<svg width="1920" height="1400" viewBox="0 0 1920 1400" fill="none" xmlns="http://www.w3.org/2000/svg">
<g clip-path="url(#clip0_1735_247617)">
<rect width="1920" height="1400" fill="#16254E"/>
<g opacity="0.1">
<path fill-rule="evenodd" clip-rule="evenodd" d="M480.732 1531.01C405.617 1531.01 344.724 1470.11 344.724 1395C344.724 1319.88 405.617 1258.99 480.732 1258.99C555.847 1258.99 616.74 1319.88 616.74 1395C616.74 1470.11 555.847 1531.01 480.732 1531.01ZM284.435 1520.87C325.902 1585.4 398.324 1628.15 480.732 1628.15C609.501 1628.15 713.889 1523.77 713.889 1395C713.889 1266.23 609.501 1161.84 480.732 1161.84C355.056 1161.84 252.603 1261.28 247.755 1385.76L247.579 1385.28C235.436 1417.67 191.719 1480 114 1470.29C36.2811 1460.57 15.2323 1386.9 14.4227 1351.28C14.4227 1282.47 -25.8939 1142.9 -187.16 1135.12L-187.16 1241.99C-155.587 1241.99 -92.4406 1266.76 -92.4406 1365.85C-92.4406 1489.72 31.4237 1562.58 67.8544 1567.44C71.997 1567.99 76.7362 1568.82 82.0256 1569.76C123.253 1577.02 197.908 1590.17 284.01 1521.29L284.435 1520.87Z" fill="url(#paint0_linear_1735_247617)" fill-opacity="0.6"/>
<path fill-rule="evenodd" clip-rule="evenodd" d="M45.9982 -96.2455C121.113 -96.2455 182.006 -35.3527 182.006 39.7624C182.006 114.877 121.113 175.77 45.9982 175.77C-29.1169 175.77 -90.0097 114.877 -90.0097 39.7624C-90.0097 -35.3527 -29.1169 -96.2455 45.9982 -96.2455ZM242.296 -86.1049C200.829 -150.641 128.406 -193.394 45.9982 -193.394C-82.7705 -193.394 -187.158 -89.0063 -187.158 39.7624C-187.158 168.531 -82.7705 272.919 45.9982 272.919C171.675 272.919 274.127 173.484 278.975 48.9957L279.151 49.4779C291.295 17.095 335.012 -45.2419 412.73 -35.5271C490.449 -25.8122 511.498 47.8587 512.308 83.4798C512.308 152.293 552.624 291.863 713.891 299.635L713.891 192.772C682.318 192.772 619.171 167.999 619.171 68.9076C619.171 -54.9568 495.307 -127.818 458.876 -132.676C454.733 -133.228 449.994 -134.063 444.705 -134.995C403.477 -142.258 328.822 -155.411 242.721 -86.5301L242.296 -86.1049Z" fill="url(#paint1_linear_1735_247617)" fill-opacity="0.6"/>
<path fill-rule="evenodd" clip-rule="evenodd" d="M874.209 174.881C949.324 174.881 1010.22 113.988 1010.22 38.8729C1010.22 -36.2422 949.324 -97.135 874.209 -97.135C799.094 -97.135 738.201 -36.2422 738.201 38.8729C738.201 113.988 799.094 174.881 874.209 174.881ZM1070.51 164.74C1029.04 229.276 956.617 272.029 874.209 272.029C745.44 272.029 641.053 167.642 641.053 38.8729C641.053 -89.8958 745.44 -194.284 874.209 -194.284C999.886 -194.284 1102.34 -94.8491 1107.19 29.6396L1107.36 29.1574C1119.51 61.5402 1163.22 123.877 1240.94 114.162C1318.66 104.448 1339.71 30.7766 1340.52 -4.84454C1340.52 -73.6581 1380.84 -213.228 1542.1 -221L1542.1 -114.137C1510.53 -114.137 1447.38 -89.3637 1447.38 9.72773C1447.38 133.592 1323.52 206.453 1287.09 211.311C1282.94 211.863 1278.21 212.698 1272.92 213.63C1231.69 220.894 1157.03 234.047 1070.93 165.165L1070.51 164.74Z" fill="url(#paint2_linear_1735_247617)" fill-opacity="0.6"/>
<path fill-rule="evenodd" clip-rule="evenodd" d="M96.9967 546.178C96.9967 621.293 36.1039 682.186 -39.0112 682.186C-114.126 682.186 -175.019 621.293 -175.019 546.178C-175.019 471.063 -114.126 410.17 -39.0112 410.17C36.1039 410.17 96.9967 471.063 96.9967 546.178ZM86.8558 742.476C151.392 701.009 194.145 628.587 194.145 546.178C194.145 417.41 89.7576 313.022 -39.0112 313.022C-167.78 313.022 -272.168 417.41 -272.168 546.178C-272.168 671.859 -172.727 774.314 -48.2322 779.156L-48.7235 779.335C-16.3406 791.479 45.9963 835.196 36.2815 912.914C26.5666 990.633 -47.1043 1011.68 -82.7254 1012.49C-151.539 1012.49 -291.109 1052.81 -298.881 1214.07H-192.018C-192.018 1182.5 -167.245 1119.36 -68.1532 1119.36C55.7112 1119.36 128.573 995.491 133.43 959.06C133.982 954.917 134.817 950.178 135.749 944.889C143.013 903.661 156.166 829.006 87.2845 742.905L86.8558 742.476Z" fill="url(#paint3_linear_1735_247617)" fill-opacity="0.6"/>
<path fill-rule="evenodd" clip-rule="evenodd" d="M448.36 943.643C523.476 943.643 584.368 882.75 584.368 807.635C584.368 732.52 523.476 671.627 448.36 671.627C373.245 671.627 312.353 732.52 312.353 807.635C312.353 882.75 373.245 943.643 448.36 943.643ZM644.658 933.502C603.191 998.038 530.769 1040.79 448.36 1040.79C319.592 1040.79 215.204 936.404 215.204 807.635C215.204 678.866 319.592 574.479 448.361 574.479C574.037 574.479 676.489 673.913 681.337 798.402L681.514 797.92C693.657 830.302 737.374 892.639 815.093 882.925C892.812 873.21 913.86 799.539 914.67 763.918C914.67 695.104 954.987 555.534 1116.25 547.762L1116.25 654.626C1084.68 654.626 1021.53 679.398 1021.53 778.49C1021.53 902.354 897.669 975.216 861.238 980.073C857.096 980.625 852.357 981.46 847.067 982.392C805.84 989.656 731.185 1002.81 645.083 933.928L644.658 933.502Z" fill="url(#paint4_linear_1735_247617)" fill-opacity="0.6"/>
<path fill-rule="evenodd" clip-rule="evenodd" d="M835.327 325.552C835.327 400.668 774.434 461.56 699.319 461.56C624.204 461.56 563.311 400.667 563.311 325.552C563.311 250.437 624.204 189.545 699.319 189.545C774.434 189.545 835.327 250.437 835.327 325.552ZM825.186 521.85C889.722 480.383 932.475 407.96 932.475 325.552C932.475 196.784 828.088 92.396 699.319 92.396C570.55 92.396 466.162 196.784 466.162 325.552C466.162 451.233 565.603 553.687 690.096 558.53L689.607 558.709C721.989 570.852 784.326 614.569 774.612 692.288C764.897 770.007 691.226 791.056 655.605 791.865C586.791 791.865 447.221 832.182 439.449 993.448L546.312 993.448C546.313 961.875 571.085 898.728 670.177 898.728C794.041 898.728 866.903 774.864 871.76 738.433C872.312 734.291 873.147 729.552 874.079 724.262C881.343 683.035 894.496 608.38 825.614 522.278L825.186 521.85Z" fill="url(#paint5_linear_1735_247617)" fill-opacity="0.6"/>
<path fill-rule="evenodd" clip-rule="evenodd" d="M1500.79 1543.56C1575.9 1543.56 1636.8 1482.67 1636.8 1407.55C1636.8 1332.44 1575.9 1271.54 1500.79 1271.54C1425.67 1271.54 1364.78 1332.44 1364.78 1407.55C1364.78 1482.67 1425.67 1543.56 1500.79 1543.56ZM1697.09 1533.42C1655.62 1597.96 1583.2 1640.71 1500.79 1640.71C1372.02 1640.71 1267.63 1536.32 1267.63 1407.55C1267.63 1278.78 1372.02 1174.4 1500.79 1174.4C1626.47 1174.4 1728.92 1273.83 1733.77 1398.32L1733.94 1397.84C1746.09 1430.22 1789.8 1492.56 1867.52 1482.84C1945.24 1473.13 1966.29 1399.46 1967.1 1363.83C1967.1 1295.02 2007.42 1155.45 2168.68 1147.68L2168.68 1254.54C2137.11 1254.54 2073.96 1279.32 2073.96 1378.41C2073.96 1502.27 1950.1 1575.13 1913.67 1579.99C1909.52 1580.54 1904.79 1581.38 1899.5 1582.31C1858.27 1589.57 1783.61 1602.73 1697.51 1533.84L1697.09 1533.42Z" fill="url(#paint6_linear_1735_247617)" fill-opacity="0.6"/>
<path fill-rule="evenodd" clip-rule="evenodd" d="M1985.72 567.652C1910.6 567.652 1849.71 506.759 1849.71 431.644C1849.71 356.529 1910.6 295.636 1985.72 295.636C2060.83 295.636 2121.73 356.529 2121.73 431.644C2121.73 506.759 2060.83 567.652 1985.72 567.652ZM1789.42 557.511C1830.89 622.047 1903.31 664.8 1985.72 664.8C2114.49 664.8 2218.88 560.413 2218.88 431.644C2218.88 302.875 2114.49 198.487 1985.72 198.487C1860.04 198.487 1757.59 297.922 1752.74 422.411L1752.57 421.928C1740.42 454.311 1696.71 516.648 1618.99 506.933C1541.27 497.219 1520.22 423.548 1519.41 387.926C1519.41 319.113 1479.09 179.543 1317.83 171.771L1317.83 278.634C1349.4 278.634 1412.55 303.407 1412.55 402.499C1412.55 526.363 1536.41 599.224 1572.84 604.082C1576.98 604.634 1581.72 605.469 1587.01 606.401C1628.24 613.665 1702.89 626.818 1789 557.936L1789.42 557.511Z" fill="url(#paint7_linear_1735_247617)" fill-opacity="0.6"/>
<path fill-rule="evenodd" clip-rule="evenodd" d="M1291.53 744.931C1366.64 744.931 1427.53 805.824 1427.53 880.939C1427.53 956.054 1366.64 1016.95 1291.53 1016.95C1216.41 1016.95 1155.52 956.054 1155.52 880.939C1155.52 805.824 1216.41 744.931 1291.53 744.931ZM1487.82 755.071C1446.36 690.535 1373.93 647.783 1291.53 647.783C1162.76 647.783 1058.37 752.17 1058.37 880.939C1058.37 1009.71 1162.76 1114.1 1291.53 1114.1C1417.21 1114.1 1519.66 1014.66 1524.5 890.163L1524.68 890.651C1536.83 858.268 1580.54 795.931 1658.26 805.646C1735.98 815.361 1757.03 889.032 1757.84 924.653C1757.84 993.467 1798.16 1133.04 1959.42 1140.81L1959.42 1033.95C1927.85 1033.95 1864.7 1009.17 1864.7 910.081C1864.7 786.217 1740.84 713.355 1704.41 708.498C1700.26 707.945 1695.53 707.11 1690.24 706.179C1649.01 698.915 1574.35 685.762 1488.25 754.643L1487.82 755.071Z" fill="url(#paint8_linear_1735_247617)" fill-opacity="0.6"/>
</g>
</g>
<defs>
<linearGradient id="paint0_linear_1735_247617" x1="713.889" y1="1381.64" x2="-260.021" y2="1380.43" gradientUnits="userSpaceOnUse">
<stop offset="0.234375" stop-color="white"/>
<stop offset="1" stop-color="white" stop-opacity="0"/>
</linearGradient>
<linearGradient id="paint1_linear_1735_247617" x1="-187.158" y1="53.1206" x2="786.752" y2="54.335" gradientUnits="userSpaceOnUse">
<stop offset="0.234375" stop-color="white"/>
<stop offset="1" stop-color="white" stop-opacity="0"/>
</linearGradient>
<linearGradient id="paint2_linear_1735_247617" x1="641.053" y1="25.5146" x2="1614.96" y2="24.3003" gradientUnits="userSpaceOnUse">
<stop offset="0.234375" stop-color="white"/>
<stop offset="1" stop-color="white" stop-opacity="0"/>
</linearGradient>
<linearGradient id="paint3_linear_1735_247617" x1="-52.3678" y1="313.022" x2="-53.5822" y2="1286.94" gradientUnits="userSpaceOnUse">
<stop offset="0.234375" stop-color="white"/>
<stop offset="1" stop-color="white" stop-opacity="0"/>
</linearGradient>
<linearGradient id="paint4_linear_1735_247617" x1="215.204" y1="794.277" x2="1189.11" y2="793.063" gradientUnits="userSpaceOnUse">
<stop offset="0.234375" stop-color="white"/>
<stop offset="1" stop-color="white" stop-opacity="0"/>
</linearGradient>
<linearGradient id="paint5_linear_1735_247617" x1="685.962" y1="92.396" x2="684.748" y2="1066.31" gradientUnits="userSpaceOnUse">
<stop offset="0.234375" stop-color="white"/>
<stop offset="1" stop-color="white" stop-opacity="0"/>
</linearGradient>
<linearGradient id="paint6_linear_1735_247617" x1="1267.63" y1="1394.19" x2="2241.54" y2="1392.98" gradientUnits="userSpaceOnUse">
<stop offset="0.234375" stop-color="white"/>
<stop offset="1" stop-color="white" stop-opacity="0"/>
</linearGradient>
<linearGradient id="paint7_linear_1735_247617" x1="2218.88" y1="418.286" x2="1244.96" y2="417.071" gradientUnits="userSpaceOnUse">
<stop offset="0.234375" stop-color="white"/>
<stop offset="1" stop-color="white" stop-opacity="0"/>
</linearGradient>
<linearGradient id="paint8_linear_1735_247617" x1="1058.37" y1="894.296" x2="2032.28" y2="895.51" gradientUnits="userSpaceOnUse">
<stop offset="0.234375" stop-color="white"/>
<stop offset="1" stop-color="white" stop-opacity="0"/>
</linearGradient>
<clipPath id="clip0_1735_247617">
<rect width="1920" height="1400" fill="white"/>
</clipPath>
</defs>
</svg>
