<svg width="1920" height="1400" viewBox="0 0 1920 1400" fill="none" xmlns="http://www.w3.org/2000/svg">
<g clip-path="url(#clip0_1735_259980)">
<rect width="1920" height="1400" fill="#FFD6D6"/>
<g clip-path="url(#clip1_1735_259980)">
<rect width="2548" height="2548" transform="translate(-58 -657)" fill="#FFD6D6"/>
<path d="M1185.81 772.759C1185.81 815.636 1150.93 850.524 1108.05 850.524C1096.71 850.526 1085.51 848.045 1075.24 843.255C1064.96 838.466 1055.86 831.485 1048.57 822.802C1042.68 819.838 1037.17 816.173 1032.16 811.886C1039.35 825.815 1050.23 837.498 1063.62 845.658C1077 853.818 1092.37 858.14 1108.05 858.152C1155.14 858.152 1193.44 819.846 1193.44 772.759C1193.43 757.086 1189.12 741.717 1180.96 728.333C1172.8 714.948 1161.13 704.064 1147.2 696.869C1151.49 701.88 1155.15 707.392 1158.12 713.283C1166.8 720.574 1173.77 729.676 1178.56 739.951C1183.34 750.226 1185.82 761.424 1185.81 772.759Z" fill="white"/>
<path d="M1032.16 811.884C1046.3 823.968 1064.14 830.857 1082.74 831.409C1101.33 831.962 1119.55 826.145 1134.38 814.922C1149.21 803.699 1159.76 787.745 1164.29 769.704C1168.81 751.662 1167.03 732.617 1159.25 715.725C1151.46 698.833 1138.14 685.109 1121.49 676.826C1104.83 668.544 1085.85 666.201 1067.68 670.186C1049.51 674.171 1033.25 684.245 1021.59 698.737C1009.94 713.23 1003.58 731.271 1003.58 749.871C1003.59 761.656 1006.15 773.3 1011.09 784.004C1016.02 794.707 1023.21 804.218 1032.16 811.884Z" fill="#FFABCD"/>
<path d="M1398.01 935.637L1497.7 835.949L1597.38 935.637L1583.9 949.121L1589.29 954.513L1605.48 938.333C1606.19 937.617 1606.59 936.646 1606.59 935.635C1606.59 934.623 1606.19 933.653 1605.48 932.937L1500.39 827.857C1500.04 827.503 1499.62 827.222 1499.16 827.03C1498.69 826.839 1498.2 826.74 1497.7 826.74C1497.2 826.74 1496.7 826.839 1496.24 827.03C1495.77 827.222 1495.35 827.503 1495 827.857L1389.92 932.952C1389.2 933.668 1388.8 934.639 1388.8 935.65C1388.8 936.662 1389.2 937.632 1389.92 938.349L1406.1 954.528L1411.5 949.137L1398.01 935.637Z" fill="white"/>
<path d="M1602.78 968.004L1589.29 954.515L1583.9 949.123L1497.7 862.919L1411.5 949.123L1406.1 954.515L1392.62 968.004L1497.7 1073.08L1602.78 968.004Z" fill="#FFEF7D"/>
<path d="M1202.43 49.7904L1302.12 -49.8976L1202.43 -149.586L1188.94 -136.102L1183.55 -141.493L1199.73 -157.678C1200.45 -158.392 1201.42 -158.793 1202.43 -158.793C1203.44 -158.793 1204.41 -158.392 1205.13 -157.678L1310.21 -52.5934C1310.56 -52.2394 1310.84 -51.8192 1311.04 -51.3566C1311.23 -50.8941 1311.33 -50.3983 1311.33 -49.8976C1311.33 -49.3969 1311.23 -48.9012 1311.04 -48.4386C1310.84 -47.9761 1310.56 -47.5558 1310.21 -47.2018L1205.11 57.8828C1204.4 58.597 1203.43 58.998 1202.42 58.998C1201.4 58.998 1200.43 58.597 1199.72 57.8828L1183.54 41.6979L1188.93 36.3013L1202.43 49.7904Z" fill="white"/>
<path d="M1170.06 -154.979L1183.55 -141.495L1188.94 -136.104L1275.15 -49.8998L1188.94 36.2991L1183.55 41.6957L1170.06 55.1797L1064.98 -49.8998L1170.06 -154.979Z" fill="#FFEF7D"/>
<path d="M214.259 1323.82V1182.84H355.245V1201.91H362.889V1179.03C362.889 1178.02 362.487 1177.05 361.773 1176.33C361.058 1175.62 360.088 1175.22 359.077 1175.22H210.452C209.441 1175.22 208.472 1175.62 207.757 1176.33C207.042 1177.05 206.641 1178.02 206.641 1179.03V1327.64C206.641 1328.65 207.042 1329.62 207.757 1330.33C208.472 1331.05 209.441 1331.45 210.452 1331.45H233.339V1323.81L214.259 1323.82Z" fill="white"/>
<path d="M362.873 1201.92H355.244H233.338V1323.82V1331.45V1350.52H381.947V1201.92H362.873Z" fill="#FFEF7D"/>
<path d="M438.162 524.192H579.138V665.168H560.068V672.812H582.955C583.966 672.812 584.935 672.41 585.65 671.695C586.365 670.981 586.766 670.011 586.766 669V520.375C586.766 519.364 586.365 518.395 585.65 517.68C584.935 516.965 583.966 516.563 582.955 516.563H434.345C433.334 516.563 432.365 516.965 431.65 517.68C430.935 518.395 430.533 519.364 430.533 520.375V543.261H438.177L438.162 524.192Z" fill="white"/>
<path d="M1936.6 684.241L1795.63 684.241L1795.63 543.266L1814.7 543.266L1814.7 535.622L1791.81 535.622C1790.8 535.622 1789.83 536.023 1789.12 536.738C1788.4 537.453 1788 538.422 1788 539.433L1788 688.058C1788 689.069 1788.4 690.039 1789.12 690.754C1789.83 691.468 1790.8 691.87 1791.81 691.87L1940.42 691.87C1941.43 691.87 1942.4 691.468 1943.12 690.754C1943.83 690.039 1944.23 689.069 1944.23 688.058L1944.23 665.172L1936.59 665.172L1936.6 684.241Z" fill="white"/>
<path d="M560.067 672.796V665.167V543.261H438.161H430.532H411.463V691.87H560.067V672.796Z" fill="#FFABCD"/>
<path d="M1814.7 535.638L1814.7 543.266L1814.7 665.173L1936.6 665.173L1944.23 665.173L1963.3 665.173L1963.3 516.563L1814.7 516.563L1814.7 535.638Z" fill="#FFABCD"/>
<path d="M794.911 1473.76L724.586 1351.97H865.236L854.223 1371.04H863.034L875.142 1350.06C875.477 1349.48 875.653 1348.83 875.653 1348.16C875.653 1347.49 875.477 1346.83 875.142 1346.25C874.807 1345.67 874.326 1345.19 873.746 1344.86C873.167 1344.52 872.509 1344.35 871.84 1344.35H717.987C717.317 1344.35 716.66 1344.52 716.08 1344.86C715.501 1345.19 715.019 1345.67 714.685 1346.25C714.35 1346.83 714.174 1347.49 714.174 1348.16C714.174 1348.83 714.35 1349.48 714.684 1350.06L791.604 1483.32C791.938 1483.9 792.42 1484.39 793.002 1484.73C793.583 1485.06 794.244 1485.24 794.916 1485.24C795.588 1485.24 796.249 1485.06 796.83 1484.73C797.412 1484.39 797.894 1483.9 798.228 1483.32L809.592 1463.64L805.184 1455.99L794.911 1473.76Z" fill="white"/>
<path d="M909.974 1371.05H863.025H854.214H756.131L805.17 1455.99L809.578 1463.62L833.05 1504.28L909.974 1371.05Z" fill="#FFABCD"/>
<path d="M610.218 26.0622L759.332 -28.2L742.765 155.893L725.214 138.704L724.332 148.519L743.188 166.972C743.704 167.475 744.352 167.823 745.058 167.973C745.764 168.123 746.497 168.071 747.174 167.821C747.851 167.571 748.443 167.135 748.882 166.563C749.321 165.99 749.589 165.305 749.654 164.587L767.49 -33.4947C767.548 -34.1334 767.443 -34.7762 767.186 -35.3637C766.929 -35.9511 766.528 -36.4642 766.019 -36.8554C765.511 -37.2466 764.913 -37.5033 764.279 -37.6018C763.646 -37.7002 762.997 -37.6373 762.394 -37.4187L601.932 20.9611C601.326 21.1828 600.787 21.554 600.363 22.0402C599.94 22.5264 599.647 23.1119 599.51 23.742C599.374 24.3722 599.399 25.0265 599.584 25.6442C599.768 26.262 600.106 26.823 600.566 27.2751L618.178 44.525L626.127 41.6304L610.218 26.0622Z" fill="#36DBFF"/>
<path d="M718.177 131.811L632.157 47.5537L624.207 50.4431L717.296 141.626L718.177 131.811Z" fill="#36DBFF"/>
<path d="M725.215 138.705L737.069 7.03999C737.126 6.40131 737.021 5.75847 736.764 5.17104C736.507 4.58361 736.106 4.07053 735.597 3.67932C735.089 3.2881 734.491 3.03135 733.857 2.93289C733.224 2.83443 732.575 2.89744 731.973 3.11603L626.124 41.6316L618.174 44.5261L571.53 61.4958C570.924 61.7157 570.383 62.0857 569.959 62.5714C569.535 63.0571 569.24 63.6425 569.104 64.2728C568.967 64.9032 568.993 65.5579 569.179 66.1755C569.364 66.7932 569.703 67.3538 570.164 67.8047L712.781 207.506C713.297 208.01 713.946 208.357 714.651 208.508C715.357 208.658 716.091 208.605 716.767 208.356C717.444 208.106 718.036 207.67 718.475 207.097C718.914 206.525 719.182 205.84 719.248 205.121L724.344 148.52L725.215 138.705ZM712.363 196.423L579.821 66.5969L624.207 50.4426L632.157 47.5481L728.93 12.3347L718.178 131.81L717.296 141.625L712.363 196.423Z" fill="white"/>
<path d="M1187 1394.05L1171.43 1409.94L1117.17 1260.83L1301.26 1277.4L1284.07 1294.94L1293.89 1295.83L1312.34 1276.97C1312.85 1276.46 1313.2 1275.81 1313.35 1275.1C1313.5 1274.4 1313.45 1273.66 1313.2 1272.98C1312.95 1272.31 1312.51 1271.71 1311.94 1271.27C1311.36 1270.84 1310.68 1270.57 1309.96 1270.51L1111.87 1252.67C1111.24 1252.61 1110.59 1252.72 1110.01 1252.97C1109.42 1253.23 1108.91 1253.63 1108.51 1254.14C1108.12 1254.65 1107.87 1255.25 1107.77 1255.88C1107.67 1256.51 1107.73 1257.16 1107.95 1257.77L1166.34 1418.21C1166.56 1418.82 1166.93 1419.36 1167.41 1419.78C1167.9 1420.2 1168.48 1420.5 1169.11 1420.63C1169.38 1420.69 1169.65 1420.72 1169.92 1420.72C1170.43 1420.72 1170.93 1420.62 1171.4 1420.42C1171.87 1420.23 1172.29 1419.94 1172.64 1419.57L1189.89 1401.97L1187 1394.05Z" fill="#36DBFF"/>
<path d="M1192.92 1388.01L1195.81 1395.96L1286.99 1302.87L1277.18 1301.99L1192.92 1388.01Z" fill="#36DBFF"/>
<path d="M1152.41 1283.09C1151.77 1283.04 1151.12 1283.14 1150.54 1283.4C1149.95 1283.65 1149.44 1284.06 1149.05 1284.56C1148.65 1285.07 1148.4 1285.67 1148.3 1286.3C1148.2 1286.94 1148.26 1287.59 1148.48 1288.19L1187 1394.04L1189.89 1401.99L1206.87 1448.64C1207.09 1449.24 1207.46 1449.78 1207.94 1450.21C1208.43 1450.63 1209.01 1450.92 1209.64 1451.06C1209.91 1451.12 1210.18 1451.15 1210.45 1451.15C1210.96 1451.15 1211.46 1451.05 1211.93 1450.85C1212.4 1450.65 1212.82 1450.36 1213.18 1450L1352.87 1307.39C1353.38 1306.87 1353.73 1306.22 1353.88 1305.51C1354.03 1304.81 1353.98 1304.07 1353.73 1303.4C1353.48 1302.72 1353.04 1302.12 1352.47 1301.69C1351.89 1301.25 1351.21 1300.98 1350.49 1300.91L1293.89 1295.82L1284.07 1294.93L1152.41 1283.09ZM1341.79 1307.8L1211.96 1440.34L1195.81 1395.95L1192.92 1388L1157.7 1291.23L1277.18 1301.98L1286.99 1302.87L1341.79 1307.8Z" fill="white"/>
<path d="M572.66 1021.04L670.875 1119.25C671.589 1116.23 672.128 1113.17 672.491 1110.08L581.833 1019.43C578.747 1019.79 575.685 1020.33 572.66 1021.04Z" fill="#36DBFF"/>
<path d="M658.304 1139.04L549.647 1030.39C547.415 1031.72 545.256 1033.16 543.17 1034.7L649.743 1141.27C650.097 1141.63 650.379 1142.05 650.57 1142.51C650.762 1142.97 650.861 1143.47 650.861 1143.97C650.862 1144.47 650.763 1144.96 650.572 1145.43C650.38 1145.89 650.1 1146.31 649.746 1146.67C649.392 1147.02 648.971 1147.3 648.509 1147.49C648.046 1147.68 647.55 1147.78 647.049 1147.78C646.548 1147.78 646.052 1147.69 645.589 1147.49C645.126 1147.3 644.706 1147.02 644.351 1146.67L537.335 1039.65L537.223 1039.53C528.344 1047.44 521.301 1057.2 516.589 1068.12C511.877 1079.04 509.609 1090.85 509.945 1102.74C510.28 1114.63 513.21 1126.3 518.53 1136.94C523.85 1147.57 531.431 1156.92 540.742 1164.32C550.053 1171.71 560.869 1176.99 572.432 1179.77C583.996 1182.54 596.027 1182.76 607.683 1180.4C619.339 1178.04 630.338 1173.16 639.91 1166.1C649.481 1159.05 657.395 1149.98 663.095 1139.54C662.359 1140.02 661.481 1140.23 660.609 1140.14C659.737 1140.05 658.923 1139.66 658.304 1139.03V1139.04ZM584.346 1146C583.63 1146.71 582.659 1147.12 581.648 1147.12C580.636 1147.12 579.666 1146.71 578.949 1146L538.003 1105.05C537.288 1104.33 536.887 1103.36 536.887 1102.35C536.888 1101.34 537.29 1100.37 538.006 1099.65C538.721 1098.94 539.692 1098.54 540.703 1098.54C541.715 1098.54 542.685 1098.94 543.4 1099.66L584.346 1140.6C585.06 1141.32 585.461 1142.29 585.461 1143.3C585.461 1144.31 585.06 1145.28 584.346 1146ZM612.935 1153.01C612.218 1153.73 611.248 1154.13 610.236 1154.13C609.225 1154.13 608.254 1153.73 607.538 1153.01L530.991 1076.46C530.276 1075.74 529.875 1074.77 529.875 1073.76C529.876 1072.75 530.278 1071.78 530.994 1071.07C531.709 1070.35 532.679 1069.95 533.691 1069.95C534.703 1069.95 535.673 1070.35 536.388 1071.07L612.935 1147.62C613.649 1148.33 614.05 1149.3 614.05 1150.31C614.05 1151.33 613.649 1152.3 612.935 1153.01ZM633.201 1151.7C632.848 1152.05 632.427 1152.34 631.964 1152.53C631.501 1152.72 631.005 1152.82 630.503 1152.82C630.002 1152.82 629.505 1152.72 629.042 1152.53C628.579 1152.34 628.158 1152.05 627.805 1151.7L532.296 1056.19C531.581 1055.47 531.179 1054.5 531.18 1053.49C531.18 1052.48 531.582 1051.51 532.298 1050.79C533.014 1050.08 533.984 1049.68 534.996 1049.68C536.007 1049.68 536.977 1050.08 537.692 1050.8L633.201 1146.31C633.556 1146.66 633.836 1147.08 634.028 1147.54C634.22 1148.01 634.318 1148.5 634.318 1149C634.318 1149.5 634.22 1150 634.028 1150.46C633.836 1150.92 633.556 1151.34 633.201 1151.7Z" fill="#36DBFF"/>
<path d="M592.061 1018.86L673.056 1099.86C673.031 1095.93 672.726 1092.01 672.144 1088.13L603.761 1019.75C599.887 1019.18 595.977 1018.88 592.061 1018.86Z" fill="#36DBFF"/>
<path d="M556.678 1026.63L663.694 1133.65C664.37 1134.33 664.767 1135.24 664.805 1136.2C666.172 1133.39 667.379 1130.51 668.418 1127.56L564.322 1023.49C561.722 1024.41 559.171 1025.46 556.678 1026.63Z" fill="#36DBFF"/>
<path d="M618.066 1023.29L668.629 1073.85C665.682 1065.3 661.331 1057.31 655.756 1050.19L641.722 1036.16C634.606 1030.58 626.612 1026.23 618.066 1023.29Z" fill="#36DBFF"/>
<path d="M543.399 1099.66C542.684 1098.94 541.714 1098.54 540.703 1098.54C539.691 1098.54 538.721 1098.94 538.005 1099.65C537.29 1100.37 536.887 1101.34 536.887 1102.35C536.886 1103.36 537.288 1104.33 538.003 1105.05L578.949 1146C579.3 1146.37 579.722 1146.66 580.188 1146.86C580.654 1147.06 581.156 1147.17 581.664 1147.18C582.172 1147.18 582.677 1147.08 583.147 1146.89C583.618 1146.7 584.045 1146.42 584.404 1146.06C584.764 1145.7 585.048 1145.27 585.24 1144.8C585.432 1144.33 585.528 1143.83 585.522 1143.32C585.517 1142.81 585.41 1142.31 585.208 1141.84C585.006 1141.38 584.713 1140.95 584.346 1140.6L543.399 1099.66Z" fill="white"/>
<path d="M536.39 1071.05C535.675 1070.34 534.705 1069.94 533.693 1069.94C532.681 1069.94 531.711 1070.34 530.995 1071.05C530.28 1071.77 529.877 1072.74 529.877 1073.75C529.876 1074.76 530.278 1075.73 530.993 1076.45L607.54 1153.01C607.891 1153.38 608.313 1153.67 608.779 1153.88C609.245 1154.08 609.747 1154.18 610.255 1154.19C610.763 1154.19 611.268 1154.1 611.738 1153.91C612.209 1153.72 612.636 1153.43 612.995 1153.07C613.355 1152.71 613.639 1152.28 613.831 1151.81C614.022 1151.34 614.119 1150.84 614.113 1150.33C614.108 1149.82 614.001 1149.32 613.799 1148.86C613.597 1148.39 613.304 1147.97 612.937 1147.62L536.39 1071.05Z" fill="white"/>
<path d="M537.692 1050.8C536.977 1050.08 536.007 1049.68 534.996 1049.68C533.984 1049.68 533.014 1050.08 532.298 1050.79C531.582 1051.51 531.18 1052.48 531.18 1053.49C531.179 1054.5 531.581 1055.47 532.296 1056.19L627.805 1151.7C628.159 1152.05 628.579 1152.33 629.042 1152.52C629.505 1152.72 630 1152.81 630.501 1152.81C631.002 1152.81 631.498 1152.72 631.961 1152.52C632.424 1152.33 632.845 1152.05 633.199 1151.7C633.553 1151.34 633.834 1150.92 634.026 1150.46C634.218 1150 634.317 1149.5 634.317 1149C634.318 1148.5 634.219 1148.01 634.028 1147.54C633.836 1147.08 633.555 1146.66 633.201 1146.3L537.692 1050.8Z" fill="white"/>
<path d="M644.352 1146.67C645.067 1147.38 646.038 1147.78 647.049 1147.78C648.061 1147.78 649.031 1147.38 649.746 1146.66C650.461 1145.95 650.862 1144.98 650.862 1143.97C650.861 1142.96 650.459 1141.99 649.743 1141.27L543.171 1034.7L542.722 1034.25C542.019 1033.54 541.063 1033.13 540.061 1033.11C539.059 1033.1 538.091 1033.48 537.368 1034.17C536.644 1034.86 536.223 1035.82 536.195 1036.82C536.167 1037.82 536.535 1038.79 537.218 1039.52L537.331 1039.65L644.352 1146.67Z" fill="white"/>
<path d="M556.679 1026.63L550.345 1020.3C549.993 1019.93 549.572 1019.64 549.106 1019.43C548.64 1019.23 548.138 1019.13 547.629 1019.12C547.121 1019.11 546.617 1019.21 546.147 1019.4C545.676 1019.59 545.249 1019.88 544.889 1020.24C544.53 1020.6 544.246 1021.02 544.054 1021.49C543.862 1021.97 543.766 1022.47 543.772 1022.98C543.777 1023.49 543.884 1023.99 544.086 1024.45C544.288 1024.92 544.581 1025.34 544.948 1025.69L549.647 1030.39L658.304 1139.04C658.922 1139.67 659.736 1140.06 660.608 1140.15C661.481 1140.24 662.358 1140.03 663.094 1139.55C663.313 1139.4 663.516 1139.23 663.7 1139.04C664.413 1138.33 664.813 1137.36 664.813 1136.35C664.813 1135.34 664.413 1134.37 663.7 1133.65L556.679 1026.63Z" fill="white"/>
<path d="M560.145 1008.5C559.429 1007.78 558.459 1007.38 557.447 1007.38C556.436 1007.38 555.466 1007.79 554.751 1008.5C554.036 1009.22 553.634 1010.19 553.635 1011.2C553.635 1012.21 554.038 1013.18 554.753 1013.9L564.344 1023.49L668.445 1127.59L670.122 1129.26C670.476 1129.62 670.896 1129.9 671.359 1130.09C671.821 1130.28 672.317 1130.38 672.818 1130.38C673.319 1130.38 673.815 1130.28 674.278 1130.09C674.741 1129.9 675.161 1129.62 675.516 1129.27C675.87 1128.91 676.151 1128.49 676.343 1128.03C676.535 1127.57 676.634 1127.07 676.634 1126.57C676.634 1126.07 676.536 1125.57 676.344 1125.11C676.153 1124.65 675.872 1124.23 675.518 1123.87L670.896 1119.25L572.681 1021.03L560.145 1008.5Z" fill="white"/>
<path d="M571.922 998.721C571.201 998.031 570.239 997.65 569.241 997.661C568.243 997.672 567.289 998.073 566.583 998.779C565.877 999.484 565.476 1000.44 565.465 1001.44C565.454 1002.43 565.835 1003.4 566.525 1004.12L581.813 1019.41L672.471 1110.06L679.86 1117.45C680.214 1117.8 680.635 1118.08 681.097 1118.28C681.56 1118.47 682.056 1118.57 682.557 1118.57C683.058 1118.57 683.554 1118.47 684.017 1118.28C684.479 1118.08 684.9 1117.8 685.254 1117.45C685.609 1117.1 685.89 1116.68 686.082 1116.21C686.274 1115.75 686.373 1115.25 686.373 1114.75C686.373 1114.25 686.275 1113.76 686.083 1113.29C685.892 1112.83 685.611 1112.41 685.257 1112.06L673.027 1099.83L592.031 1018.83L571.922 998.721Z" fill="white"/>
<path d="M585.873 991.098C585.158 990.383 584.187 989.982 583.176 989.982C582.164 989.983 581.194 990.385 580.479 991.101C579.764 991.817 579.363 992.787 579.363 993.798C579.364 994.81 579.766 995.78 580.482 996.495L603.76 1019.77L672.143 1088.16L687.503 1103.52C688.218 1104.23 689.189 1104.63 690.2 1104.63C691.212 1104.63 692.182 1104.23 692.897 1103.51C693.612 1102.8 694.013 1101.83 694.013 1100.82C694.012 1099.8 693.61 1098.83 692.894 1098.12L668.627 1073.85L618.065 1023.29L585.873 991.098Z" fill="white"/>
<path d="M602.442 986.067C601.727 985.351 600.757 984.949 599.746 984.948C598.734 984.948 597.764 985.349 597.048 986.064C596.333 986.779 595.93 987.749 595.93 988.761C595.929 989.772 596.331 990.743 597.046 991.458L641.743 1036.16L655.777 1050.19L692.555 1086.97C692.909 1087.32 693.329 1087.6 693.792 1087.79C694.255 1087.99 694.75 1088.09 695.251 1088.09C695.752 1088.09 696.248 1087.99 696.711 1087.8C697.174 1087.6 697.595 1087.32 697.949 1086.97C698.303 1086.62 698.584 1086.2 698.776 1085.73C698.968 1085.27 699.067 1084.77 699.067 1084.27C699.068 1083.77 698.969 1083.28 698.778 1082.81C698.586 1082.35 698.306 1081.93 697.952 1081.58L602.442 986.067Z" fill="white"/>
<path d="M622.694 984.763C621.979 984.048 621.009 983.645 619.998 983.645C618.986 983.645 618.016 984.046 617.3 984.761C616.584 985.476 616.182 986.446 616.182 987.457C616.181 988.469 616.583 989.439 617.298 990.155L693.85 1066.7C694.565 1067.42 695.534 1067.82 696.545 1067.82C697.557 1067.82 698.526 1067.42 699.241 1066.7C699.956 1065.99 700.358 1065.02 700.358 1064.01C700.358 1063 699.956 1062.03 699.241 1061.31L622.694 984.763Z" fill="white"/>
<path d="M689.533 1039.23C690.287 1039.23 691.024 1039.01 691.651 1038.59C692.278 1038.17 692.767 1037.57 693.055 1036.88C693.344 1036.18 693.419 1035.41 693.272 1034.67C693.125 1033.93 692.762 1033.25 692.228 1032.72L651.282 991.775C650.567 991.059 649.597 990.657 648.586 990.656C647.574 990.656 646.604 991.057 645.888 991.772C645.172 992.487 644.77 993.457 644.77 994.469C644.769 995.48 645.17 996.451 645.885 997.166L686.837 1038.11C687.19 1038.47 687.611 1038.75 688.073 1038.94C688.536 1039.13 689.032 1039.23 689.533 1039.23Z" fill="white"/>
<path d="M1438.08 173.723C1438.38 173.794 1438.68 173.83 1438.98 173.83C1439.84 173.829 1440.66 173.542 1441.34 173.013C1442.01 172.485 1442.48 171.746 1442.69 170.915L1460.06 99.0618L1553.53 107.001C1554.05 107.044 1554.57 106.981 1555.06 106.816C1555.56 106.65 1556.01 106.386 1556.4 106.038C1556.78 105.691 1557.1 105.268 1557.32 104.796C1557.53 104.323 1557.65 103.812 1557.67 103.291L1560.21 -4.2342C1560.24 -5.24572 1559.86 -6.22504 1559.16 -6.95701C1558.46 -7.68897 1557.5 -8.11365 1556.49 -8.1377H1556.41C1555.42 -8.13665 1554.46 -7.74658 1553.75 -7.05063C1553.04 -6.35468 1552.62 -5.40799 1552.6 -4.41255L1550.13 99.0362L1457.45 91.1681C1456.54 91.09 1455.64 91.3396 1454.9 91.8715C1454.16 92.4034 1453.63 93.1824 1453.42 94.0676L1435.27 169.076C1435.15 169.566 1435.12 170.075 1435.2 170.575C1435.27 171.075 1435.44 171.555 1435.71 171.987C1435.97 172.42 1436.31 172.796 1436.72 173.094C1437.13 173.392 1437.59 173.606 1438.08 173.723Z" fill="black"/>
<path d="M280.929 86.8609C281.223 86.9314 281.524 86.9673 281.826 86.9679C282.681 86.967 283.511 86.6793 284.182 86.1508C284.854 85.6223 285.329 84.8836 285.531 84.053L302.908 12.1994L396.374 20.139C396.893 20.1822 397.415 20.119 397.908 19.9534C398.401 19.7878 398.855 19.5233 399.243 19.176C399.63 18.8286 399.943 18.4058 400.161 17.9335C400.379 17.4612 400.499 16.9492 400.512 16.4291L403.06 -91.0965C403.083 -92.108 402.704 -93.0873 402.006 -93.8193C401.307 -94.5513 400.346 -94.976 399.335 -95H399.258C398.263 -94.999 397.307 -94.6089 396.595 -93.9129C395.883 -93.217 395.471 -92.2703 395.447 -91.2749L392.98 12.1739L300.294 4.30575C299.387 4.22774 298.481 4.47729 297.742 5.00919C297.002 5.54108 296.478 6.32013 296.263 7.20534L278.116 82.2134C277.993 82.7034 277.967 83.213 278.042 83.7128C278.117 84.2127 278.29 84.6927 278.552 85.1251C278.813 85.5574 279.158 85.9335 279.566 86.2315C279.974 86.5294 280.438 86.7434 280.929 86.8609Z" fill="black"/>
<path d="M1660.65 402.18C1651.86 402.18 1647.29 394.536 1642.01 385.628C1636.35 376.124 1629.94 365.351 1616.81 365.351C1603.68 365.351 1597.27 376.124 1591.61 385.628C1586.33 394.51 1581.76 402.18 1572.97 402.18C1564.18 402.18 1559.61 394.536 1554.33 385.628C1548.67 376.124 1542.26 365.351 1529.13 365.351C1516 365.351 1509.59 376.124 1503.93 385.628C1498.64 394.51 1494.08 402.18 1485.29 402.18C1476.5 402.18 1471.93 394.536 1466.65 385.628C1460.99 376.124 1454.57 365.351 1441.45 365.351C1440.43 365.351 1439.46 365.754 1438.74 366.47C1438.03 367.187 1437.62 368.159 1437.62 369.173C1437.62 370.187 1438.03 371.159 1438.74 371.876C1439.46 372.592 1440.43 372.995 1441.45 372.995C1450.24 372.995 1454.8 380.639 1460.09 389.547C1465.74 399.051 1472.16 409.824 1485.29 409.824C1498.42 409.824 1504.83 399.051 1510.49 389.547C1515.77 380.664 1520.34 372.995 1529.13 372.995C1537.92 372.995 1542.49 380.639 1547.78 389.547C1553.43 399.051 1559.84 409.824 1572.97 409.824C1586.1 409.824 1592.51 399.051 1598.17 389.547C1603.45 380.664 1608.02 372.995 1616.81 372.995C1625.6 372.995 1630.17 380.639 1635.45 389.547C1641.11 399.051 1647.52 409.824 1660.65 409.824C1673.77 409.824 1680.19 399.051 1685.85 389.547C1691.13 380.664 1695.7 372.995 1704.49 372.995C1713.28 372.995 1717.84 380.639 1723.13 389.547C1728.78 399.051 1735.2 409.824 1748.33 409.824C1749.34 409.824 1750.31 409.421 1751.03 408.704C1751.75 407.988 1752.15 407.015 1752.15 406.002C1752.15 404.988 1751.75 404.016 1751.03 403.299C1750.31 402.583 1749.34 402.18 1748.33 402.18C1739.54 402.18 1734.97 394.536 1729.69 385.628C1724.03 376.124 1717.61 365.351 1704.49 365.351C1691.36 365.351 1684.95 376.124 1679.29 385.628C1674 394.51 1669.44 402.18 1660.65 402.18Z" fill="black"/>
<path d="M1807.33 902.117C1813.82 908.614 1813.22 915.652 1812.52 923.8C1811.76 932.576 1810.91 942.523 1819.92 951.528C1828.92 960.532 1838.87 959.681 1847.64 958.922C1855.8 958.224 1862.83 957.623 1869.33 964.115C1875.83 970.607 1875.22 977.65 1874.52 985.798C1873.76 994.574 1872.91 1004.52 1881.92 1013.53C1882.63 1014.24 1883.6 1014.64 1884.61 1014.64C1885.62 1014.64 1886.59 1014.24 1887.31 1013.53C1888.02 1012.81 1888.42 1011.84 1888.42 1010.83C1888.42 1009.82 1888.02 1008.85 1887.31 1008.13C1880.81 1001.64 1881.42 994.599 1882.12 986.451C1882.87 977.67 1883.72 967.723 1874.72 958.718C1865.72 949.714 1855.77 950.565 1846.99 951.324C1838.84 952.022 1831.81 952.629 1825.31 946.136C1818.81 939.644 1819.42 932.601 1820.12 924.453C1820.88 915.677 1821.73 905.73 1812.73 896.725C1803.72 887.721 1793.77 888.572 1784.99 889.326C1776.84 890.029 1769.81 890.631 1763.31 884.138C1756.81 877.646 1757.42 870.603 1758.12 862.455C1758.88 853.679 1759.73 843.732 1750.72 834.722C1741.72 825.713 1731.77 826.569 1723 827.328C1714.84 828.026 1707.81 828.633 1701.31 822.135C1694.82 815.638 1695.42 808.6 1696.12 800.452C1696.87 791.676 1697.73 781.729 1688.72 772.719C1688.01 772.004 1687.03 771.603 1686.02 771.604C1685.01 771.604 1684.04 772.006 1683.33 772.722C1682.61 773.438 1682.21 774.408 1682.21 775.42C1682.21 776.431 1682.61 777.401 1683.33 778.116C1689.82 784.613 1689.22 791.651 1688.52 799.799C1687.77 808.575 1686.91 818.527 1695.92 827.532C1704.92 836.536 1714.87 835.685 1723.65 834.926C1731.8 834.228 1738.84 833.622 1745.33 840.119C1751.83 846.616 1751.22 853.654 1750.52 861.802C1749.77 870.578 1748.91 880.525 1757.92 889.53C1766.92 898.535 1776.87 897.683 1785.65 896.929C1793.8 896.226 1800.84 895.625 1807.33 902.117Z" fill="black"/>
<path d="M43.1193 259.513C49.6116 266.011 49.0104 273.048 48.3072 281.197C47.553 289.972 46.7019 299.92 55.7066 308.924C64.7112 317.929 74.6585 317.078 83.4339 316.319C91.5874 315.62 98.6199 315.019 105.117 321.511C111.615 328.004 111.008 335.046 110.305 343.195C109.551 351.97 108.7 361.918 117.704 370.922C118.419 371.637 119.389 372.039 120.4 372.039C121.411 372.039 122.381 371.637 123.096 370.922C123.811 370.207 124.213 369.238 124.213 368.226C124.213 367.215 123.811 366.246 123.096 365.531C116.604 359.033 117.205 351.996 117.908 343.847C118.662 335.067 119.514 325.119 110.509 316.115C101.504 307.11 91.5569 307.961 82.7816 308.72C74.6279 309.419 67.5954 310.025 61.0981 303.533C54.6006 297.04 55.2071 289.998 55.9104 281.849C56.6646 273.074 57.5207 263.126 48.5161 254.122C39.5114 245.117 29.559 245.968 20.7837 246.722C12.6301 247.426 5.59756 248.027 -0.899834 241.535C-7.39723 235.042 -6.79077 228 -6.08752 219.851C-5.33332 211.076 -4.4823 201.129 -13.4869 192.119C-22.4916 183.109 -32.439 183.965 -41.2143 184.725C-49.3679 185.423 -56.4054 186.029 -62.8977 179.532C-69.39 173.034 -68.7888 165.997 -68.0906 157.848C-67.3364 149.073 -66.4803 139.126 -75.49 130.116C-76.2057 129.401 -77.176 129 -78.1876 129C-79.1992 129 -80.1692 129.403 -80.8841 130.118C-81.5991 130.834 -82.0005 131.804 -82 132.816C-81.9995 133.828 -81.5972 134.797 -80.8815 135.512C-74.3892 142.01 -74.9906 149.047 -75.6887 157.196C-76.4429 165.971 -77.2991 175.924 -68.2944 184.928C-59.2898 193.933 -49.3373 193.082 -40.562 192.323C-32.4084 191.624 -25.3759 191.018 -18.8785 197.516C-12.3811 204.013 -12.9876 211.05 -13.6908 219.199C-14.4451 227.974 -15.2961 237.922 -6.29144 246.926C2.71319 255.931 12.6607 255.08 21.436 254.326C29.5896 253.623 36.627 253.021 43.1193 259.513Z" fill="black"/>
<path d="M388.879 849.908C397.75 852.289 400.748 858.684 404.213 866.092C407.948 874.069 412.185 883.109 424.485 886.405C436.786 889.701 444.975 883.99 452.195 878.945C458.907 874.264 464.697 870.227 473.57 872.6C482.443 874.974 485.439 881.377 488.904 888.785C492.639 896.762 496.875 905.802 509.176 909.098C510.153 909.36 511.193 909.223 512.069 908.717C512.944 908.212 513.583 907.379 513.845 906.402C514.107 905.426 513.97 904.385 513.464 903.509C512.959 902.634 512.126 901.995 511.149 901.733C502.278 899.352 499.28 892.957 495.815 885.548C492.078 877.567 487.841 868.527 475.541 865.231C463.24 861.935 455.051 867.646 447.831 872.691C441.119 877.373 435.332 881.414 426.459 879.04C417.585 876.666 414.589 870.264 411.124 862.856C407.39 854.879 403.157 845.836 390.857 842.54C378.556 839.244 370.363 844.957 363.14 849.998C356.431 854.684 350.641 858.721 341.768 856.347C332.895 853.974 329.899 847.571 326.433 840.163C322.699 832.186 318.462 823.146 306.159 819.845C293.856 816.545 285.669 822.26 278.449 827.306C271.737 831.987 265.946 836.031 257.075 833.65C248.203 831.269 245.205 824.874 241.736 817.468C238.001 809.491 233.769 800.449 221.461 797.151C220.484 796.889 219.443 797.027 218.567 797.533C217.691 798.039 217.053 798.873 216.791 799.85C216.53 800.827 216.667 801.868 217.174 802.744C217.68 803.62 218.513 804.259 219.49 804.52C228.362 806.901 231.36 813.296 234.829 820.702C238.564 828.679 242.799 837.726 255.099 841.022C267.4 844.318 275.593 838.605 282.813 833.559C289.525 828.878 295.313 824.837 304.188 827.215C313.064 829.593 316.057 835.991 319.523 843.399C323.257 851.376 327.494 860.416 339.794 863.712C352.095 867.008 360.284 861.298 367.507 856.257C374.216 851.571 380.01 847.531 388.879 849.908Z" fill="black"/>
<path d="M1002.99 1178.86C1003.71 1179.55 1004.67 1179.93 1005.67 1179.92C1006.67 1179.91 1007.62 1179.51 1008.33 1178.81C1009.03 1178.1 1009.43 1177.15 1009.44 1176.15C1009.45 1175.15 1009.07 1174.19 1008.38 1173.47C975.647 1140.73 975.647 1087.47 1008.38 1054.73C1024.13 1038.98 1045.48 1030.14 1067.75 1030.14C1090.02 1030.14 1111.37 1038.98 1127.12 1054.73C1127.84 1055.44 1128.81 1055.85 1129.82 1055.85C1130.83 1055.85 1131.8 1055.44 1132.51 1054.73C1133.23 1054.01 1133.63 1053.04 1133.63 1052.03C1133.63 1051.02 1133.23 1050.05 1132.51 1049.33C1096.8 1013.63 1038.7 1013.63 1002.99 1049.33C967.279 1085.04 967.274 1143.15 1002.99 1178.86Z" fill="black"/>
<path d="M815.902 392.193C819.966 392.193 823.26 388.898 823.26 384.834C823.26 380.77 819.966 377.476 815.902 377.476C811.838 377.476 808.543 380.77 808.543 384.834C808.543 388.898 811.838 392.193 815.902 392.193Z" fill="white"/>
<path d="M838.595 369.503C842.659 369.503 845.954 366.208 845.954 362.144C845.954 358.08 842.659 354.786 838.595 354.786C834.531 354.786 831.236 358.08 831.236 362.144C831.236 366.208 834.531 369.503 838.595 369.503Z" fill="white"/>
<path d="M861.29 346.811C865.354 346.811 868.649 343.516 868.649 339.452C868.649 335.388 865.354 332.094 861.29 332.094C857.226 332.094 853.932 335.388 853.932 339.452C853.932 343.516 857.226 346.811 861.29 346.811Z" fill="white"/>
<path d="M883.98 324.12C888.044 324.12 891.338 320.825 891.338 316.761C891.338 312.697 888.044 309.402 883.98 309.402C879.916 309.402 876.621 312.697 876.621 316.761C876.621 320.825 879.916 324.12 883.98 324.12Z" fill="white"/>
<path d="M906.671 301.425C910.735 301.425 914.03 298.131 914.03 294.067C914.03 290.003 910.735 286.708 906.671 286.708C902.607 286.708 899.312 290.003 899.312 294.067C899.312 298.131 902.607 301.425 906.671 301.425Z" fill="white"/>
<path d="M929.365 278.734C933.429 278.734 936.723 275.439 936.723 271.375C936.723 267.311 933.429 264.017 929.365 264.017C925.3 264.017 922.006 267.311 922.006 271.375C922.006 275.439 925.3 278.734 929.365 278.734Z" fill="white"/>
<path d="M821.105 425.017C820.076 423.988 818.765 423.287 817.338 423.003C815.91 422.719 814.43 422.864 813.086 423.421C811.741 423.978 810.592 424.921 809.783 426.132C808.975 427.342 808.543 428.765 808.543 430.22C808.543 431.675 808.975 433.098 809.783 434.308C810.592 435.518 811.741 436.462 813.086 437.019C814.43 437.575 815.91 437.721 817.338 437.437C818.765 437.153 820.076 436.452 821.105 435.423C822.485 434.043 823.26 432.171 823.26 430.22C823.26 428.268 822.485 426.397 821.105 425.017Z" fill="white"/>
<path d="M774.562 425.017C773.533 423.988 772.222 423.287 770.795 423.003C769.367 422.719 767.888 422.864 766.543 423.421C765.198 423.978 764.049 424.921 763.24 426.132C762.432 427.342 762 428.765 762 430.22C762 431.675 762.432 433.098 763.24 434.308C764.049 435.518 765.198 436.462 766.543 437.019C767.888 437.575 769.367 437.721 770.795 437.437C772.222 437.153 773.533 436.452 774.562 435.423C775.942 434.043 776.717 432.171 776.717 430.22C776.717 428.268 775.942 426.397 774.562 425.017Z" fill="white"/>
<path d="M843.799 402.323C842.77 401.293 841.458 400.592 840.031 400.308C838.603 400.024 837.124 400.17 835.779 400.727C834.434 401.284 833.285 402.227 832.477 403.437C831.668 404.647 831.236 406.07 831.236 407.526C831.236 408.981 831.668 410.404 832.477 411.614C833.285 412.824 834.434 413.767 835.779 414.324C837.124 414.881 838.603 415.027 840.031 414.743C841.458 414.459 842.77 413.758 843.799 412.729C845.178 411.349 845.954 409.477 845.954 407.526C845.954 405.574 845.178 403.703 843.799 402.323Z" fill="white"/>
<path d="M798.562 402.323C797.533 401.293 796.222 400.592 794.795 400.308C793.367 400.024 791.887 400.17 790.543 400.727C789.198 401.284 788.049 402.227 787.24 403.437C786.432 404.647 786 406.07 786 407.526C786 408.981 786.432 410.404 787.24 411.614C788.049 412.824 789.198 413.767 790.543 414.324C791.887 414.881 793.367 415.027 794.795 414.743C796.222 414.459 797.533 413.758 798.562 412.729C799.942 411.349 800.717 409.477 800.717 407.526C800.717 405.574 799.942 403.703 798.562 402.323Z" fill="white"/>
<path d="M861.29 392.193C865.354 392.193 868.649 388.898 868.649 384.834C868.649 380.77 865.354 377.476 861.29 377.476C857.226 377.476 853.932 380.77 853.932 384.834C853.932 388.898 857.226 392.193 861.29 392.193Z" fill="white"/>
<path d="M883.98 369.503C888.044 369.503 891.338 366.208 891.338 362.144C891.338 358.08 888.044 354.786 883.98 354.786C879.916 354.786 876.621 358.08 876.621 362.144C876.621 366.208 879.916 369.503 883.98 369.503Z" fill="white"/>
<path d="M906.671 346.811C910.735 346.811 914.03 343.516 914.03 339.452C914.03 335.388 910.735 332.094 906.671 332.094C902.607 332.094 899.312 335.388 899.312 339.452C899.312 343.516 902.607 346.811 906.671 346.811Z" fill="white"/>
<path d="M929.365 324.12C933.429 324.12 936.723 320.825 936.723 316.761C936.723 312.697 933.429 309.402 929.365 309.402C925.3 309.402 922.006 312.697 922.006 316.761C922.006 320.825 925.3 324.12 929.365 324.12Z" fill="white"/>
<path d="M952.058 301.425C956.122 301.425 959.416 298.131 959.416 294.067C959.416 290.003 956.122 286.708 952.058 286.708C947.994 286.708 944.699 290.003 944.699 294.067C944.699 298.131 947.994 301.425 952.058 301.425Z" fill="white"/>
<path d="M798.418 493.09C797.389 492.061 796.078 491.36 794.65 491.076C793.223 490.792 791.743 490.938 790.398 491.495C789.054 492.052 787.904 492.995 787.096 494.205C786.287 495.415 785.855 496.838 785.855 498.293C785.855 499.749 786.287 501.171 787.096 502.381C787.904 503.592 789.054 504.535 790.398 505.092C791.743 505.649 793.223 505.794 794.65 505.51C796.078 505.226 797.389 504.525 798.418 503.496C799.796 502.116 800.571 500.244 800.571 498.293C800.571 496.342 799.796 494.471 798.418 493.09Z" fill="white"/>
<path d="M821.107 470.398C820.077 469.37 818.766 468.669 817.339 468.386C815.912 468.103 814.432 468.249 813.088 468.806C811.744 469.363 810.595 470.306 809.787 471.516C808.978 472.726 808.547 474.149 808.547 475.604C808.547 477.059 808.978 478.481 809.787 479.691C810.595 480.901 811.744 481.845 813.088 482.402C814.432 482.959 815.912 483.105 817.339 482.821C818.766 482.538 820.077 481.838 821.107 480.809C821.791 480.126 822.333 479.314 822.703 478.421C823.074 477.528 823.264 476.571 823.264 475.604C823.264 474.637 823.074 473.679 822.703 472.786C822.333 471.893 821.791 471.082 821.107 470.398Z" fill="white"/>
<path d="M774.56 470.398C773.53 469.37 772.219 468.669 770.792 468.386C769.365 468.103 767.885 468.249 766.541 468.806C765.197 469.363 764.048 470.306 763.24 471.516C762.431 472.726 762 474.149 762 475.604C762 477.059 762.431 478.481 763.24 479.691C764.048 480.901 765.197 481.845 766.541 482.402C767.885 482.959 769.365 483.105 770.792 482.821C772.219 482.538 773.53 481.838 774.56 480.809C775.244 480.126 775.786 479.314 776.157 478.421C776.527 477.528 776.717 476.571 776.717 475.604C776.717 474.637 776.527 473.679 776.157 472.786C775.786 471.893 775.244 471.082 774.56 470.398Z" fill="white"/>
<path d="M843.798 447.706C842.769 446.677 841.457 445.977 840.03 445.694C838.603 445.41 837.124 445.556 835.779 446.113C834.435 446.671 833.286 447.614 832.478 448.824C831.67 450.034 831.238 451.456 831.238 452.911C831.238 454.366 831.67 455.789 832.478 456.999C833.286 458.209 834.435 459.152 835.779 459.709C837.124 460.266 838.603 460.412 840.03 460.129C841.457 459.846 842.769 459.145 843.798 458.117C844.482 457.434 845.025 456.622 845.395 455.729C845.765 454.836 845.956 453.878 845.956 452.911C845.956 451.944 845.765 450.987 845.395 450.094C845.025 449.201 844.482 448.389 843.798 447.706Z" fill="white"/>
<path d="M791.56 447.706C790.53 446.677 789.219 445.977 787.792 445.694C786.365 445.41 784.885 445.556 783.541 446.113C782.197 446.671 781.048 447.614 780.24 448.824C779.431 450.034 779 451.456 779 452.911C779 454.366 779.431 455.789 780.24 456.999C781.048 458.209 782.197 459.152 783.541 459.709C784.885 460.266 786.365 460.412 787.792 460.129C789.219 459.846 790.53 459.145 791.56 458.117C792.244 457.434 792.786 456.622 793.157 455.729C793.527 454.836 793.717 453.878 793.717 452.911C793.717 451.944 793.527 450.987 793.157 450.094C792.786 449.201 792.244 448.389 791.56 447.706Z" fill="white"/>
<path d="M746.56 447.706C745.53 446.677 744.219 445.977 742.792 445.694C741.365 445.41 739.885 445.556 738.541 446.113C737.197 446.671 736.048 447.614 735.24 448.824C734.431 450.034 734 451.456 734 452.911C734 454.366 734.431 455.789 735.24 456.999C736.048 458.209 737.197 459.152 738.541 459.709C739.885 460.266 741.365 460.412 742.792 460.129C744.219 459.846 745.53 459.145 746.56 458.117C747.244 457.434 747.786 456.622 748.157 455.729C748.527 454.836 748.717 453.878 748.717 452.911C748.717 451.944 748.527 450.987 748.157 450.094C747.786 449.201 747.244 448.389 746.56 447.706Z" fill="white"/>
<path d="M866.49 425.017C865.461 423.988 864.15 423.287 862.722 423.003C861.295 422.719 859.815 422.864 858.471 423.421C857.126 423.978 855.977 424.921 855.168 426.132C854.359 427.342 853.928 428.765 853.928 430.22C853.928 431.675 854.359 433.098 855.168 434.308C855.977 435.518 857.126 436.462 858.471 437.019C859.815 437.575 861.295 437.721 862.722 437.437C864.15 437.153 865.461 436.452 866.49 435.423C867.87 434.043 868.645 432.171 868.645 430.22C868.645 428.268 867.87 426.397 866.49 425.017Z" fill="white"/>
<path d="M889.183 402.323C888.154 401.293 886.843 400.592 885.416 400.308C883.988 400.024 882.509 400.17 881.164 400.727C879.819 401.284 878.67 402.227 877.861 403.437C877.053 404.647 876.621 406.07 876.621 407.526C876.621 408.981 877.053 410.404 877.861 411.614C878.67 412.824 879.819 413.767 881.164 414.324C882.509 414.881 883.988 415.027 885.416 414.743C886.843 414.459 888.154 413.758 889.183 412.729C890.563 411.349 891.338 409.477 891.338 407.526C891.338 405.574 890.563 403.703 889.183 402.323Z" fill="white"/>
<path d="M906.671 392.193C910.735 392.193 914.03 388.898 914.03 384.834C914.03 380.77 910.735 377.476 906.671 377.476C902.607 377.476 899.312 380.77 899.312 384.834C899.312 388.898 902.607 392.193 906.671 392.193Z" fill="white"/>
<path d="M998.359 392.193C1002.42 392.193 1005.72 388.898 1005.72 384.834C1005.72 380.77 1002.42 377.476 998.359 377.476C994.295 377.476 991 380.77 991 384.834C991 388.898 994.295 392.193 998.359 392.193Z" fill="white"/>
<path d="M929.365 369.503C933.429 369.503 936.723 366.208 936.723 362.144C936.723 358.08 933.429 354.786 929.365 354.786C925.3 354.786 922.006 358.08 922.006 362.144C922.006 366.208 925.3 369.503 929.365 369.503Z" fill="white"/>
<path d="M952.058 346.811C956.122 346.811 959.416 343.516 959.416 339.452C959.416 335.388 956.122 332.094 952.058 332.094C947.994 332.094 944.699 335.388 944.699 339.452C944.699 343.516 947.994 346.811 952.058 346.811Z" fill="white"/>
<path d="M997.359 346.811C1001.42 346.811 1004.72 343.516 1004.72 339.452C1004.72 335.388 1001.42 332.094 997.359 332.094C993.295 332.094 990 335.388 990 339.452C990 343.516 993.295 346.811 997.359 346.811Z" fill="white"/>
<path d="M974.743 324.12C978.807 324.12 982.102 320.825 982.102 316.761C982.102 312.697 978.807 309.402 974.743 309.402C970.679 309.402 967.385 312.697 967.385 316.761C967.385 320.825 970.679 324.12 974.743 324.12Z" fill="white"/>
<path d="M821.105 515.784C820.076 514.755 818.765 514.054 817.338 513.77C815.91 513.486 814.43 513.632 813.086 514.189C811.741 514.745 810.592 515.689 809.783 516.899C808.975 518.109 808.543 519.532 808.543 520.987C808.543 522.443 808.975 523.865 809.783 525.075C810.592 526.286 811.741 527.229 813.086 527.786C814.43 528.343 815.91 528.488 817.338 528.204C818.765 527.92 820.076 527.219 821.105 526.19C822.485 524.81 823.26 522.939 823.26 520.987C823.26 519.036 822.485 517.164 821.105 515.784Z" fill="white"/>
<path d="M843.799 493.09C842.77 492.061 841.458 491.36 840.031 491.076C838.603 490.792 837.124 490.938 835.779 491.495C834.434 492.052 833.285 492.995 832.477 494.205C831.668 495.415 831.236 496.838 831.236 498.293C831.236 499.749 831.668 501.171 832.477 502.381C833.285 503.592 834.434 504.535 835.779 505.092C837.124 505.649 838.603 505.794 840.031 505.51C841.458 505.226 842.77 504.525 843.799 503.496C845.178 502.116 845.954 500.245 845.954 498.293C845.954 496.342 845.178 494.47 843.799 493.09Z" fill="white"/>
<path d="M866.491 470.398C865.462 469.37 864.151 468.669 862.724 468.386C861.296 468.103 859.817 468.249 858.473 468.806C857.129 469.363 855.98 470.306 855.171 471.516C854.363 472.726 853.932 474.149 853.932 475.604C853.932 477.059 854.363 478.481 855.171 479.691C855.98 480.901 857.129 481.845 858.473 482.402C859.817 482.959 861.296 483.105 862.724 482.821C864.151 482.538 865.462 481.838 866.491 480.809C867.175 480.126 867.718 479.314 868.088 478.421C868.458 477.528 868.649 476.571 868.649 475.604C868.649 474.637 868.458 473.679 868.088 472.786C867.718 471.893 867.175 471.082 866.491 470.398Z" fill="white"/>
<path d="M957.56 470.398C956.53 469.37 955.219 468.669 953.792 468.386C952.365 468.103 950.885 468.249 949.541 468.806C948.197 469.363 947.048 470.306 946.24 471.516C945.431 472.726 945 474.149 945 475.604C945 477.059 945.431 478.481 946.24 479.691C947.048 480.901 948.197 481.845 949.541 482.402C950.885 482.959 952.365 483.105 953.792 482.821C955.219 482.538 956.53 481.838 957.56 480.809C958.244 480.126 958.786 479.314 959.157 478.421C959.527 477.528 959.717 476.571 959.717 475.604C959.717 474.637 959.527 473.679 959.157 472.786C958.786 471.893 958.244 471.082 957.56 470.398Z" fill="white"/>
<path d="M889.183 447.706C888.153 446.677 886.842 445.977 885.415 445.694C883.988 445.41 882.508 445.556 881.164 446.113C879.82 446.671 878.671 447.614 877.863 448.824C877.054 450.034 876.623 451.456 876.623 452.911C876.623 454.366 877.054 455.789 877.863 456.999C878.671 458.209 879.82 459.152 881.164 459.709C882.508 460.266 883.988 460.412 885.415 460.129C886.842 459.846 888.153 459.145 889.183 458.117C889.867 457.434 890.409 456.622 890.78 455.729C891.15 454.836 891.34 453.878 891.34 452.911C891.34 451.944 891.15 450.987 890.78 450.094C890.409 449.201 889.867 448.389 889.183 447.706Z" fill="white"/>
<path d="M979.56 447.706C978.53 446.677 977.219 445.977 975.792 445.694C974.365 445.41 972.885 445.556 971.541 446.113C970.197 446.671 969.048 447.614 968.24 448.824C967.431 450.034 967 451.456 967 452.911C967 454.366 967.431 455.789 968.24 456.999C969.048 458.209 970.197 459.152 971.541 459.709C972.885 460.266 974.365 460.412 975.792 460.129C977.219 459.846 978.53 459.145 979.56 458.117C980.244 457.434 980.786 456.622 981.156 455.729C981.527 454.836 981.717 453.878 981.717 452.911C981.717 451.944 981.527 450.987 981.156 450.094C980.786 449.201 980.244 448.389 979.56 447.706Z" fill="white"/>
<path d="M911.875 425.017C910.846 423.988 909.535 423.287 908.107 423.003C906.68 422.719 905.2 422.864 903.855 423.421C902.511 423.978 901.361 424.921 900.553 426.132C899.744 427.342 899.313 428.765 899.312 430.22C899.313 431.675 899.744 433.098 900.553 434.308C901.361 435.518 902.511 436.462 903.855 437.019C905.2 437.575 906.68 437.721 908.107 437.437C909.535 437.153 910.846 436.452 911.875 435.423C913.255 434.043 914.03 432.171 914.03 430.22C914.03 428.268 913.255 426.397 911.875 425.017Z" fill="white"/>
<path d="M934.568 402.323C933.539 401.293 932.228 400.592 930.8 400.308C929.373 400.024 927.893 400.17 926.549 400.727C925.204 401.284 924.055 402.227 923.246 403.437C922.437 404.647 922.006 406.07 922.006 407.526C922.006 408.981 922.437 410.404 923.246 411.614C924.055 412.824 925.204 413.767 926.549 414.324C927.893 414.881 929.373 415.027 930.8 414.743C932.228 414.459 933.539 413.758 934.568 412.729C935.948 411.349 936.723 409.477 936.723 407.526C936.723 405.574 935.948 403.703 934.568 402.323Z" fill="white"/>
<path d="M1024.56 402.323C1023.53 401.293 1022.22 400.592 1020.79 400.308C1019.37 400.024 1017.89 400.17 1016.54 400.727C1015.2 401.284 1014.05 402.227 1013.24 403.437C1012.43 404.647 1012 406.07 1012 407.526C1012 408.981 1012.43 410.404 1013.24 411.614C1014.05 412.824 1015.2 413.767 1016.54 414.324C1017.89 414.881 1019.37 415.027 1020.79 414.743C1022.22 414.459 1023.53 413.758 1024.56 412.729C1025.94 411.349 1026.72 409.477 1026.72 407.526C1026.72 405.574 1025.94 403.703 1024.56 402.323Z" fill="white"/>
<path d="M952.058 392.193C956.122 392.193 959.416 388.898 959.416 384.834C959.416 380.77 956.122 377.476 952.058 377.476C947.994 377.476 944.699 380.77 944.699 384.834C944.699 388.898 947.994 392.193 952.058 392.193Z" fill="white"/>
<path d="M1043.75 392.193C1047.81 392.193 1051.1 388.898 1051.1 384.834C1051.1 380.77 1047.81 377.476 1043.75 377.476C1039.68 377.476 1036.39 380.77 1036.39 384.834C1036.39 388.898 1039.68 392.193 1043.75 392.193Z" fill="white"/>
<path d="M974.743 369.503C978.807 369.503 982.102 366.209 982.102 362.145C982.102 358.081 978.807 354.786 974.743 354.786C970.679 354.786 967.385 358.081 967.385 362.145C967.385 366.209 970.679 369.503 974.743 369.503Z" fill="white"/>
<path d="M1019.36 369.503C1023.42 369.503 1026.72 366.209 1026.72 362.145C1026.72 358.081 1023.42 354.786 1019.36 354.786C1015.29 354.786 1012 358.081 1012 362.145C1012 366.209 1015.29 369.503 1019.36 369.503Z" fill="white"/>
<path d="M843.799 538.476C842.77 537.447 841.458 536.746 840.031 536.462C838.603 536.178 837.124 536.323 835.779 536.88C834.434 537.437 833.285 538.381 832.477 539.591C831.668 540.801 831.236 542.224 831.236 543.679C831.236 545.134 831.668 546.557 832.477 547.767C833.285 548.977 834.434 549.921 835.779 550.478C837.124 551.034 838.603 551.18 840.031 550.896C841.458 550.612 842.77 549.911 843.799 548.882C845.178 547.502 845.954 545.63 845.954 543.679C845.954 541.728 845.178 539.856 843.799 538.476Z" fill="white"/>
<path d="M866.49 515.784C865.461 514.755 864.15 514.054 862.722 513.77C861.295 513.486 859.815 513.632 858.471 514.189C857.126 514.746 855.977 515.689 855.168 516.899C854.359 518.109 853.928 519.532 853.928 520.988C853.928 522.443 854.359 523.866 855.168 525.076C855.977 526.286 857.126 527.229 858.471 527.786C859.815 528.343 861.295 528.489 862.722 528.205C864.15 527.921 865.461 527.22 866.49 526.191C867.87 524.811 868.645 522.939 868.645 520.988C868.645 519.036 867.87 517.164 866.49 515.784Z" fill="white"/>
<path d="M912.562 515.784C911.533 514.755 910.222 514.054 908.795 513.77C907.367 513.486 905.887 513.632 904.543 514.189C903.198 514.746 902.049 515.689 901.24 516.899C900.432 518.109 900 519.532 900 520.988C900 522.443 900.432 523.866 901.24 525.076C902.049 526.286 903.198 527.229 904.543 527.786C905.887 528.343 907.367 528.489 908.795 528.205C910.222 527.921 911.533 527.22 912.562 526.191C913.942 524.811 914.717 522.939 914.717 520.988C914.717 519.036 913.942 517.164 912.562 515.784Z" fill="white"/>
<path d="M889.183 493.09C888.154 492.061 886.843 491.36 885.416 491.076C883.988 490.792 882.509 490.938 881.164 491.495C879.819 492.052 878.67 492.995 877.861 494.205C877.053 495.415 876.621 496.838 876.621 498.293C876.621 499.749 877.053 501.171 877.861 502.381C878.67 503.592 879.819 504.535 881.164 505.092C882.509 505.649 883.988 505.794 885.416 505.51C886.843 505.226 888.154 504.525 889.183 503.496C890.563 502.116 891.338 500.245 891.338 498.293C891.338 496.342 890.563 494.47 889.183 493.09Z" fill="white"/>
<path d="M934.562 493.09C933.533 492.061 932.222 491.36 930.795 491.076C929.367 490.792 927.887 490.938 926.543 491.495C925.198 492.052 924.049 492.995 923.24 494.205C922.432 495.415 922 496.838 922 498.293C922 499.749 922.432 501.171 923.24 502.381C924.049 503.592 925.198 504.535 926.543 505.092C927.887 505.649 929.367 505.794 930.795 505.51C932.222 505.226 933.533 504.525 934.562 503.496C935.942 502.116 936.717 500.245 936.717 498.293C936.717 496.342 935.942 494.47 934.562 493.09Z" fill="white"/>
<path d="M911.876 470.398C910.847 469.37 909.536 468.669 908.108 468.386C906.681 468.103 905.202 468.249 903.858 468.806C902.513 469.363 901.364 470.306 900.556 471.516C899.748 472.726 899.316 474.149 899.316 475.604C899.316 477.059 899.748 478.481 900.556 479.691C901.364 480.901 902.513 481.845 903.858 482.402C905.202 482.959 906.681 483.105 908.108 482.821C909.536 482.538 910.847 481.838 911.876 480.809C912.56 480.126 913.103 479.314 913.473 478.421C913.843 477.528 914.034 476.571 914.034 475.604C914.034 474.637 913.843 473.679 913.473 472.786C913.103 471.893 912.56 471.082 911.876 470.398Z" fill="white"/>
<path d="M1002.94 470.398C1001.92 469.37 1000.6 468.669 999.177 468.386C997.749 468.103 996.27 468.249 994.926 468.806C993.582 469.363 992.433 470.306 991.624 471.516C990.816 472.726 990.385 474.149 990.385 475.604C990.385 477.059 990.816 478.481 991.624 479.691C992.433 480.901 993.582 481.845 994.926 482.402C996.27 482.959 997.749 483.105 999.177 482.821C1000.6 482.538 1001.92 481.838 1002.94 480.809C1003.63 480.126 1004.17 479.314 1004.54 478.421C1004.91 477.528 1005.1 476.571 1005.1 475.604C1005.1 474.637 1004.91 473.679 1004.54 472.786C1004.17 471.893 1003.63 471.082 1002.94 470.398Z" fill="white"/>
<path d="M1048.56 470.398C1047.53 469.37 1046.22 468.669 1044.79 468.386C1043.36 468.103 1041.89 468.249 1040.54 468.806C1039.2 469.363 1038.05 470.306 1037.24 471.516C1036.43 472.726 1036 474.149 1036 475.604C1036 477.059 1036.43 478.481 1037.24 479.691C1038.05 480.901 1039.2 481.845 1040.54 482.402C1041.89 482.959 1043.36 483.105 1044.79 482.821C1046.22 482.538 1047.53 481.838 1048.56 480.809C1049.24 480.126 1049.79 479.314 1050.16 478.421C1050.53 477.528 1050.72 476.571 1050.72 475.604C1050.72 474.637 1050.53 473.679 1050.16 472.786C1049.79 471.893 1049.24 471.082 1048.56 470.398Z" fill="white"/>
<path d="M934.568 447.706C933.538 446.677 932.227 445.977 930.8 445.694C929.372 445.41 927.893 445.556 926.549 446.113C925.205 446.671 924.056 447.614 923.248 448.824C922.439 450.034 922.008 451.456 922.008 452.911C922.008 454.366 922.439 455.789 923.248 456.999C924.056 458.209 925.205 459.152 926.549 459.709C927.893 460.266 929.372 460.412 930.8 460.129C932.227 459.846 933.538 459.145 934.568 458.117C935.252 457.434 935.794 456.622 936.164 455.729C936.535 454.836 936.725 453.878 936.725 452.911C936.725 451.944 936.535 450.987 936.164 450.094C935.794 449.201 935.252 448.389 934.568 447.706Z" fill="white"/>
<path d="M1024.94 447.706C1023.92 446.677 1022.6 445.977 1021.18 445.694C1019.75 445.41 1018.27 445.556 1016.93 446.113C1015.58 446.671 1014.43 447.614 1013.62 448.824C1012.82 450.034 1012.38 451.456 1012.38 452.911C1012.38 454.366 1012.82 455.789 1013.62 456.999C1014.43 458.209 1015.58 459.152 1016.93 459.709C1018.27 460.266 1019.75 460.412 1021.18 460.129C1022.6 459.846 1023.92 459.145 1024.94 458.117C1025.63 457.434 1026.17 456.622 1026.54 455.729C1026.91 454.836 1027.1 453.878 1027.1 452.911C1027.1 451.944 1026.91 450.987 1026.54 450.094C1026.17 449.201 1025.63 448.389 1024.94 447.706Z" fill="white"/>
<path d="M1070.56 447.706C1069.53 446.677 1068.22 445.977 1066.79 445.694C1065.36 445.41 1063.89 445.556 1062.54 446.113C1061.2 446.671 1060.05 447.614 1059.24 448.824C1058.43 450.034 1058 451.456 1058 452.911C1058 454.366 1058.43 455.789 1059.24 456.999C1060.05 458.209 1061.2 459.152 1062.54 459.709C1063.89 460.266 1065.36 460.412 1066.79 460.129C1068.22 459.846 1069.53 459.145 1070.56 458.117C1071.24 457.434 1071.79 456.622 1072.16 455.729C1072.53 454.836 1072.72 453.878 1072.72 452.911C1072.72 451.944 1072.53 450.987 1072.16 450.094C1071.79 449.201 1071.24 448.389 1070.56 447.706Z" fill="white"/>
<path d="M957.261 425.017C956.232 423.988 954.921 423.287 953.494 423.003C952.066 422.719 950.587 422.864 949.242 423.421C947.897 423.978 946.748 424.921 945.939 426.132C945.131 427.342 944.699 428.765 944.699 430.22C944.699 431.675 945.131 433.098 945.939 434.308C946.748 435.518 947.897 436.462 949.242 437.019C950.587 437.575 952.066 437.721 953.494 437.437C954.921 437.153 956.232 436.452 957.261 435.423C958.64 434.042 959.414 432.171 959.414 430.22C959.414 428.269 958.64 426.398 957.261 425.017Z" fill="white"/>
<path d="M1002.56 425.017C1001.53 423.988 1000.22 423.287 998.795 423.003C997.367 422.719 995.887 422.864 994.543 423.421C993.198 423.978 992.049 424.921 991.24 426.132C990.432 427.342 990 428.765 990 430.22C990 431.675 990.432 433.098 991.24 434.308C992.049 435.518 993.198 436.462 994.543 437.019C995.887 437.575 997.367 437.721 998.795 437.437C1000.22 437.153 1001.53 436.452 1002.56 435.423C1003.94 434.042 1004.72 432.171 1004.72 430.22C1004.72 428.269 1003.94 426.398 1002.56 425.017Z" fill="white"/>
<path d="M1048.56 425.017C1047.53 423.988 1046.22 423.287 1044.79 423.003C1043.37 422.719 1041.89 422.864 1040.54 423.421C1039.2 423.978 1038.05 424.921 1037.24 426.132C1036.43 427.342 1036 428.765 1036 430.22C1036 431.675 1036.43 433.098 1037.24 434.308C1038.05 435.518 1039.2 436.462 1040.54 437.019C1041.89 437.575 1043.37 437.721 1044.79 437.437C1046.22 437.153 1047.53 436.452 1048.56 435.423C1049.94 434.042 1050.72 432.171 1050.72 430.22C1050.72 428.269 1049.94 426.398 1048.56 425.017Z" fill="white"/>
<path d="M1094.56 425.017C1093.53 423.988 1092.22 423.287 1090.79 423.003C1089.37 422.719 1087.89 422.864 1086.54 423.421C1085.2 423.978 1084.05 424.921 1083.24 426.132C1082.43 427.342 1082 428.765 1082 430.22C1082 431.675 1082.43 433.098 1083.24 434.308C1084.05 435.518 1085.2 436.462 1086.54 437.019C1087.89 437.575 1089.37 437.721 1090.79 437.437C1092.22 437.153 1093.53 436.452 1094.56 435.423C1095.94 434.042 1096.72 432.171 1096.72 430.22C1096.72 428.269 1095.94 426.398 1094.56 425.017Z" fill="white"/>
<path d="M969.543 412.729C970.573 413.758 971.884 414.459 973.311 414.743C974.739 415.027 976.218 414.881 977.563 414.324C978.908 413.767 980.057 412.824 980.866 411.614C981.674 410.404 982.106 408.981 982.106 407.526C982.106 406.07 981.674 404.647 980.866 403.437C980.057 402.227 978.908 401.284 977.563 400.727C976.218 400.17 974.739 400.024 973.311 400.308C971.884 400.592 970.573 401.293 969.543 402.323C968.165 403.703 967.391 405.575 967.391 407.526C967.391 409.477 968.165 411.348 969.543 412.729Z" fill="white"/>
<path d="M1059.54 412.729C1060.57 413.758 1061.88 414.459 1063.31 414.743C1064.73 415.027 1066.21 414.881 1067.56 414.324C1068.9 413.767 1070.05 412.824 1070.86 411.614C1071.67 410.404 1072.1 408.981 1072.1 407.526C1072.1 406.07 1071.67 404.647 1070.86 403.437C1070.05 402.227 1068.9 401.284 1067.56 400.727C1066.21 400.17 1064.73 400.024 1063.31 400.308C1061.88 400.592 1060.57 401.293 1059.54 402.323C1058.16 403.703 1057.38 405.575 1057.38 407.526C1057.38 409.477 1058.16 411.348 1059.54 412.729Z" fill="white"/>
<path d="M878.156 583.877C877.126 584.906 876.425 586.217 876.141 587.644C875.857 589.072 876.003 590.551 876.56 591.896C877.117 593.241 878.06 594.39 879.27 595.199C880.48 596.007 881.903 596.439 883.359 596.439C884.814 596.439 886.237 596.007 887.447 595.199C888.657 594.39 889.6 593.241 890.157 591.896C890.714 590.551 890.86 589.072 890.576 587.644C890.292 586.217 889.591 584.906 888.562 583.877C887.182 582.497 885.31 581.722 883.359 581.722C881.407 581.722 879.536 582.497 878.156 583.877Z" fill="white"/>
<path d="M924.156 583.877C923.126 584.906 922.425 586.217 922.141 587.644C921.857 589.072 922.003 590.551 922.56 591.896C923.117 593.241 924.06 594.39 925.27 595.199C926.48 596.007 927.903 596.439 929.359 596.439C930.814 596.439 932.237 596.007 933.447 595.199C934.657 594.39 935.6 593.241 936.157 591.896C936.714 590.551 936.86 589.072 936.576 587.644C936.292 586.217 935.591 584.906 934.562 583.877C933.182 582.497 931.31 581.722 929.359 581.722C927.407 581.722 925.536 582.497 924.156 583.877Z" fill="white"/>
<path d="M866.49 561.17C865.461 560.141 864.15 559.44 862.722 559.156C861.295 558.872 859.815 559.018 858.471 559.575C857.126 560.132 855.977 561.075 855.168 562.285C854.359 563.495 853.928 564.918 853.928 566.373C853.928 567.829 854.359 569.251 855.168 570.462C855.977 571.672 857.126 572.615 858.471 573.172C859.815 573.729 861.295 573.874 862.722 573.59C864.15 573.306 865.461 572.606 866.49 571.576C867.87 570.196 868.645 568.325 868.645 566.373C868.645 564.422 867.87 562.55 866.49 561.17Z" fill="white"/>
<path d="M957.562 561.17C956.533 560.141 955.222 559.44 953.795 559.156C952.367 558.872 950.887 559.018 949.543 559.575C948.198 560.132 947.049 561.075 946.24 562.285C945.432 563.495 945 564.918 945 566.373C945 567.829 945.432 569.251 946.24 570.462C947.049 571.672 948.198 572.615 949.543 573.172C950.887 573.729 952.367 573.874 953.795 573.59C955.222 573.306 956.533 572.606 957.562 571.576C958.942 570.196 959.717 568.325 959.717 566.373C959.717 564.422 958.942 562.55 957.562 561.17Z" fill="white"/>
<path d="M889.183 538.476C888.154 537.447 886.843 536.746 885.416 536.462C883.988 536.178 882.509 536.323 881.164 536.88C879.819 537.437 878.67 538.381 877.861 539.591C877.053 540.801 876.621 542.224 876.621 543.679C876.621 545.134 877.053 546.557 877.861 547.767C878.67 548.977 879.819 549.921 881.164 550.478C882.509 551.034 883.988 551.18 885.416 550.896C886.843 550.612 888.154 549.911 889.183 548.882C890.563 547.502 891.338 545.63 891.338 543.679C891.338 541.728 890.563 539.856 889.183 538.476Z" fill="white"/>
<path d="M901.468 561.17C900.439 562.199 899.738 563.51 899.454 564.937C899.17 566.365 899.316 567.844 899.873 569.189C900.429 570.534 901.373 571.683 902.583 572.492C903.793 573.3 905.216 573.732 906.671 573.732C908.127 573.732 909.549 573.3 910.759 572.492C911.97 571.683 912.913 570.534 913.47 569.189C914.027 567.844 914.172 566.365 913.888 564.937C913.604 563.51 912.903 562.199 911.874 561.17C910.494 559.79 908.623 559.015 906.671 559.015C904.72 559.015 902.848 559.79 901.468 561.17Z" fill="white"/>
<path d="M901.468 607.155C900.439 608.184 899.738 609.495 899.454 610.923C899.17 612.35 899.316 613.83 899.873 615.174C900.429 616.519 901.373 617.668 902.583 618.477C903.793 619.286 905.216 619.717 906.671 619.717C908.127 619.717 909.549 619.286 910.759 618.477C911.97 617.668 912.913 616.519 913.47 615.174C914.027 613.83 914.172 612.35 913.888 610.923C913.604 609.495 912.903 608.184 911.874 607.155C910.494 605.775 908.623 605 906.671 605C904.72 605 902.848 605.775 901.468 607.155Z" fill="white"/>
<path d="M924.161 538.475C923.132 539.504 922.431 540.816 922.147 542.243C921.863 543.671 922.009 545.15 922.566 546.495C923.123 547.839 924.066 548.989 925.276 549.797C926.486 550.606 927.909 551.038 929.365 551.038C930.82 551.038 932.243 550.606 933.453 549.797C934.663 548.989 935.606 547.839 936.163 546.495C936.72 545.15 936.866 543.671 936.582 542.243C936.298 540.816 935.597 539.504 934.568 538.475C933.188 537.095 931.316 536.32 929.365 536.32C927.413 536.32 925.541 537.095 924.161 538.475Z" fill="white"/>
<path d="M969.156 538.475C968.126 539.504 967.425 540.816 967.141 542.243C966.857 543.671 967.003 545.15 967.56 546.495C968.117 547.839 969.06 548.989 970.27 549.797C971.48 550.606 972.903 551.038 974.359 551.038C975.814 551.038 977.237 550.606 978.447 549.797C979.657 548.989 980.6 547.839 981.157 546.495C981.714 545.15 981.86 543.671 981.576 542.243C981.292 540.816 980.591 539.504 979.562 538.475C978.182 537.095 976.31 536.32 974.359 536.32C972.407 536.32 970.536 537.095 969.156 538.475Z" fill="white"/>
<path d="M946.85 515.784C945.822 516.813 945.122 518.125 944.838 519.552C944.555 520.979 944.701 522.458 945.258 523.803C945.815 525.147 946.758 526.296 947.968 527.104C949.178 527.912 950.601 528.344 952.056 528.344C953.511 528.344 954.933 527.912 956.143 527.104C957.353 526.296 958.297 525.147 958.854 523.803C959.411 522.458 959.557 520.979 959.274 519.552C958.99 518.125 958.29 516.813 957.261 515.784C955.88 514.405 954.008 513.631 952.056 513.631C950.104 513.631 948.232 514.405 946.85 515.784Z" fill="white"/>
<path d="M992.153 515.784C991.125 516.813 990.424 518.125 990.141 519.552C989.858 520.979 990.004 522.458 990.561 523.803C991.118 525.147 992.061 526.296 993.271 527.104C994.481 527.912 995.904 528.344 997.359 528.344C998.814 528.344 1000.24 527.912 1001.45 527.104C1002.66 526.296 1003.6 525.147 1004.16 523.803C1004.71 522.458 1004.86 520.979 1004.58 519.552C1004.29 518.125 1003.59 516.813 1002.56 515.784C1001.18 514.405 999.311 513.631 997.359 513.631C995.407 513.631 993.535 514.405 992.153 515.784Z" fill="white"/>
<path d="M969.543 503.496C970.573 504.525 971.884 505.226 973.311 505.51C974.739 505.794 976.218 505.649 977.563 505.092C978.908 504.535 980.057 503.592 980.866 502.381C981.674 501.171 982.106 499.749 982.106 498.293C982.106 496.838 981.674 495.415 980.866 494.205C980.057 492.995 978.908 492.052 977.563 491.495C976.218 490.938 974.739 490.792 973.311 491.076C971.884 491.36 970.573 492.061 969.543 493.09C968.165 494.471 967.391 496.342 967.391 498.293C967.391 500.244 968.165 502.116 969.543 503.496Z" fill="white"/>
<path d="M1015.15 503.496C1016.18 504.525 1017.49 505.226 1018.92 505.51C1020.35 505.794 1021.83 505.649 1023.17 505.092C1024.52 504.535 1025.67 503.592 1026.47 502.381C1027.28 501.171 1027.72 499.749 1027.72 498.293C1027.72 496.838 1027.28 495.415 1026.47 494.205C1025.67 492.995 1024.52 492.052 1023.17 491.495C1021.83 490.938 1020.35 490.792 1018.92 491.076C1017.49 491.36 1016.18 492.061 1015.15 493.09C1013.77 494.471 1013 496.342 1013 498.293C1013 500.244 1013.77 502.116 1015.15 503.496Z" fill="white"/>
<path d="M1365.08 286.706C1365.08 276.59 1362.08 266.701 1356.46 258.29C1350.84 249.878 1342.85 243.322 1333.5 239.451C1324.16 235.58 1313.87 234.567 1303.95 236.54C1294.03 238.514 1284.92 243.385 1277.76 250.539C1270.61 257.692 1265.74 266.806 1263.76 276.728C1261.79 286.649 1262.8 296.934 1266.67 306.28C1270.55 315.626 1277.1 323.614 1285.51 329.235C1293.92 334.855 1303.81 337.855 1313.93 337.855C1327.49 337.839 1340.49 332.445 1350.08 322.856C1359.67 313.267 1365.06 300.267 1365.08 286.706ZM1270.41 286.706C1270.41 278.099 1272.96 269.685 1277.74 262.528C1282.53 255.371 1289.32 249.793 1297.28 246.499C1305.23 243.205 1313.98 242.343 1322.42 244.023C1330.86 245.702 1338.62 249.847 1344.7 255.933C1350.79 262.019 1354.93 269.774 1356.61 278.216C1358.29 286.658 1357.43 295.408 1354.14 303.361C1350.84 311.313 1345.26 318.11 1338.11 322.892C1330.95 327.674 1322.54 330.226 1313.93 330.226C1302.39 330.213 1291.33 325.623 1283.17 317.464C1275.01 309.306 1270.42 298.244 1270.41 286.706Z" fill="white"/>
<path d="M226.297 596.149C226.297 586.032 223.297 576.143 217.677 567.732C212.057 559.321 204.068 552.765 194.722 548.893C185.376 545.022 175.092 544.009 165.17 545.983C155.248 547.956 146.134 552.828 138.981 559.981C131.828 567.134 126.956 576.248 124.983 586.17C123.009 596.092 124.022 606.376 127.893 615.722C131.765 625.068 138.321 633.057 146.732 638.677C155.143 644.297 165.032 647.297 175.149 647.297C188.709 647.281 201.709 641.887 211.298 632.298C220.887 622.709 226.281 609.709 226.297 596.149ZM131.629 596.149C131.629 587.541 134.181 579.127 138.963 571.97C143.745 564.813 150.542 559.235 158.494 555.941C166.446 552.648 175.197 551.786 183.639 553.465C192.081 555.144 199.835 559.289 205.922 565.375C212.008 571.462 216.153 579.216 217.832 587.658C219.511 596.1 218.65 604.851 215.356 612.803C212.062 620.755 206.484 627.552 199.327 632.334C192.17 637.116 183.756 639.668 175.149 639.668C163.611 639.655 152.549 635.065 144.39 626.907C136.232 618.748 131.642 607.687 131.629 596.149Z" fill="white"/>
<path d="M1497.7 612.025C1490.15 612.024 1482.77 614.262 1476.49 618.454C1470.22 622.647 1465.33 628.606 1462.44 635.579C1459.55 642.552 1458.79 650.225 1460.26 657.627C1461.74 665.03 1465.37 671.83 1470.71 677.167C1476.04 682.504 1482.84 686.138 1490.25 687.61C1497.65 689.082 1505.32 688.326 1512.3 685.437C1519.27 682.549 1525.23 677.657 1529.42 671.381C1533.61 665.105 1535.85 657.727 1535.85 650.179C1535.83 640.066 1531.81 630.371 1524.65 623.22C1517.5 616.068 1507.81 612.043 1497.7 612.025ZM1497.7 680.709C1491.66 680.71 1485.75 678.921 1480.73 675.567C1475.71 672.212 1471.8 667.445 1469.49 661.866C1467.17 656.287 1466.57 650.149 1467.75 644.226C1468.92 638.304 1471.83 632.863 1476.1 628.593C1480.37 624.323 1485.81 621.414 1491.73 620.236C1497.65 619.058 1503.79 619.662 1509.37 621.973C1514.95 624.283 1519.72 628.196 1523.07 633.217C1526.43 638.238 1528.22 644.141 1528.22 650.179C1528.21 658.27 1524.98 666.025 1519.26 671.745C1513.54 677.466 1505.79 680.686 1497.7 680.699V680.709Z" fill="white"/>
<path d="M1049.02 1129.34C1049.02 1136.89 1051.26 1144.26 1055.45 1150.54C1059.65 1156.81 1065.6 1161.7 1072.58 1164.59C1079.55 1167.48 1087.22 1168.23 1094.62 1166.76C1102.02 1165.29 1108.82 1161.66 1114.16 1156.32C1119.49 1150.98 1123.13 1144.19 1124.6 1136.78C1126.07 1129.38 1125.31 1121.71 1122.43 1114.74C1119.54 1107.77 1114.65 1101.81 1108.37 1097.62C1102.1 1093.42 1094.72 1091.19 1087.18 1091.19C1077.06 1091.2 1067.37 1095.23 1060.22 1102.38C1053.07 1109.53 1049.04 1119.23 1049.02 1129.34ZM1117.7 1129.34C1117.7 1135.38 1115.91 1141.28 1112.56 1146.3C1109.2 1151.32 1104.44 1155.23 1098.86 1157.54C1093.28 1159.85 1087.14 1160.46 1081.22 1159.28C1075.3 1158.1 1069.86 1155.19 1065.59 1150.93C1061.32 1146.66 1058.42 1141.22 1057.24 1135.3C1056.06 1129.37 1056.67 1123.24 1058.98 1117.66C1061.29 1112.08 1065.2 1107.31 1070.22 1103.96C1075.24 1100.61 1081.14 1098.82 1087.18 1098.82C1095.27 1098.83 1103.03 1102.05 1108.75 1107.77C1114.47 1113.49 1117.69 1121.25 1117.7 1129.34Z" fill="white"/>
<path d="M921.395 96.6429V168.043C921.396 169.054 921.799 170.024 922.514 170.739C923.23 171.453 924.2 171.855 925.211 171.855H996.591C997.092 171.855 997.588 171.757 998.051 171.566C998.514 171.375 998.935 171.094 999.29 170.74C999.644 170.386 999.925 169.966 1000.12 169.503C1000.31 169.04 1000.41 168.544 1000.41 168.043V96.6429C1000.41 96.1419 1000.31 95.6458 1000.12 95.183C999.925 94.7202 999.644 94.2997 999.29 93.9457C998.935 93.5917 998.514 93.311 998.051 93.1198C997.588 92.9285 997.092 92.8304 996.591 92.8311H925.211C924.2 92.8311 923.23 93.2325 922.514 93.9472C921.799 94.6619 921.396 95.6314 921.395 96.6429ZM929.039 100.46H992.795V164.211H929.023L929.039 100.46Z" fill="white"/>
<path d="M1756 1157.81V1229.21C1756 1230.22 1756.4 1231.19 1757.12 1231.91C1757.84 1232.62 1758.81 1233.02 1759.82 1233.02H1831.2C1831.7 1233.02 1832.19 1232.93 1832.66 1232.73C1833.12 1232.54 1833.54 1232.26 1833.9 1231.91C1834.25 1231.56 1834.53 1231.13 1834.72 1230.67C1834.91 1230.21 1835.01 1229.71 1835.01 1229.21V1157.81C1835.01 1157.31 1834.91 1156.81 1834.72 1156.35C1834.53 1155.89 1834.25 1155.47 1833.9 1155.11C1833.54 1154.76 1833.12 1154.48 1832.66 1154.29C1832.19 1154.1 1831.7 1154 1831.2 1154H1759.82C1758.81 1154 1757.84 1154.4 1757.12 1155.12C1756.4 1155.83 1756 1156.8 1756 1157.81ZM1763.64 1161.63H1827.4V1225.38H1763.63L1763.64 1161.63Z" fill="white"/>
<path d="M776 812.812V884.212C776.001 885.223 776.404 886.193 777.12 886.908C777.835 887.622 778.805 888.024 779.817 888.024H851.197C851.698 888.024 852.194 887.926 852.657 887.735C853.12 887.544 853.541 887.263 853.895 886.909C854.25 886.555 854.531 886.135 854.723 885.672C854.915 885.209 855.013 884.713 855.013 884.212V812.812C855.013 812.311 854.915 811.815 854.723 811.352C854.531 810.889 854.25 810.469 853.895 810.115C853.541 809.761 853.12 809.48 852.657 809.289C852.194 809.097 851.698 808.999 851.197 809H779.817C778.805 809 777.835 809.401 777.12 810.116C776.404 810.831 776.001 811.8 776 812.812ZM783.644 816.629H847.4V880.38H783.629L783.644 816.629Z" fill="white"/>
<path d="M346.27 362.009H336.378C335.365 362.009 334.393 361.606 333.676 360.889C332.959 360.173 332.556 359.2 332.556 358.187C332.556 357.173 332.959 356.201 333.676 355.484C334.393 354.767 335.365 354.365 336.378 354.365H353.899L361.543 346.721H332.297C331.283 346.721 330.311 346.318 329.594 345.601C328.877 344.885 328.475 343.912 328.475 342.899C328.475 341.885 328.877 340.913 329.594 340.196C330.311 339.479 331.283 339.077 332.297 339.077H369.156L376.8 331.433H328.204C327.191 331.433 326.219 331.03 325.502 330.313C324.785 329.597 324.382 328.624 324.382 327.611C324.382 326.597 324.785 325.625 325.502 324.908C326.219 324.191 327.191 323.789 328.204 323.789H384.418L392.062 316.145H324.112C323.099 316.145 322.127 315.742 321.41 315.025C320.693 314.309 320.29 313.336 320.29 312.323C320.29 311.309 320.693 310.337 321.41 309.62C322.127 308.903 323.099 308.501 324.112 308.501H399.676L407.32 300.857H320.025C319.012 300.857 318.04 300.454 317.323 299.737C316.606 299.021 316.203 298.048 316.203 297.035C316.203 296.021 316.606 295.049 317.323 294.332C318.04 293.615 319.012 293.213 320.025 293.213H414.908L422.552 285.569H315.938C314.925 285.569 313.953 285.166 313.236 284.449C312.519 283.733 312.116 282.76 312.116 281.747C312.116 280.733 312.519 279.761 313.236 279.044C313.953 278.327 314.925 277.925 315.938 277.925H430.196L437.84 270.281H311.846C310.833 270.281 309.861 269.878 309.144 269.161C308.427 268.445 308.024 267.472 308.024 266.459C308.024 265.445 308.427 264.473 309.144 263.756C309.861 263.039 310.833 262.637 311.846 262.637H445.448L453.092 254.993H307.759C306.746 254.993 305.774 254.59 305.057 253.873C304.34 253.157 303.937 252.184 303.937 251.171C303.937 250.157 304.34 249.185 305.057 248.468C305.774 247.751 306.746 247.349 307.759 247.349H460.706L465.2 242.854L453.515 239.725H303.693C302.679 239.725 301.707 239.322 300.99 238.606C300.273 237.889 299.871 236.917 299.871 235.903C299.871 234.89 300.273 233.917 300.99 233.201C301.707 232.484 302.679 232.081 303.693 232.081H425.044L396.583 224.437H299.59C298.577 224.437 297.605 224.034 296.888 223.318C296.171 222.601 295.768 221.629 295.768 220.615C295.768 219.602 296.171 218.629 296.888 217.913C297.605 217.196 298.577 216.793 299.59 216.793H368.116L339.635 209.149H295.498C294.485 209.149 293.513 208.746 292.796 208.03C292.079 207.313 291.676 206.341 291.676 205.327C291.676 204.314 292.079 203.341 292.796 202.625C293.513 201.908 294.485 201.505 295.498 201.505H311.163L233.047 180.571L295.249 412.729L346.27 362.009Z" fill="#36DBFF"/>
<path d="M344.584 384.892C343.57 384.892 342.598 385.294 341.881 386.011C341.164 386.728 340.762 387.7 340.762 388.714C340.762 389.727 341.164 390.699 341.881 391.416C342.598 392.133 343.57 392.536 344.584 392.536H355.418C356.431 392.536 357.404 392.133 358.12 391.416C358.837 390.699 359.24 389.727 359.24 388.714C359.24 387.7 358.837 386.728 358.12 386.011C357.404 385.294 356.431 384.892 355.418 384.892H344.584Z" fill="white"/>
<path d="M374.463 373.453C374.463 372.441 374.061 371.47 373.345 370.754C372.629 370.038 371.658 369.636 370.646 369.636H340.472C339.459 369.636 338.487 370.039 337.77 370.756C337.053 371.472 336.65 372.445 336.65 373.458C336.65 374.472 337.053 375.444 337.77 376.161C338.487 376.878 339.459 377.28 340.472 377.28H370.646C371.148 377.28 371.645 377.181 372.109 376.989C372.573 376.796 372.994 376.514 373.348 376.159C373.703 375.803 373.984 375.381 374.175 374.917C374.366 374.453 374.464 373.955 374.463 373.453Z" fill="white"/>
<path d="M332.568 358.194C332.568 358.695 332.666 359.191 332.857 359.655C333.048 360.118 333.329 360.538 333.683 360.893C334.037 361.247 334.458 361.529 334.92 361.721C335.383 361.912 335.879 362.011 336.38 362.011H385.903C386.917 362.011 387.889 361.609 388.606 360.892C389.322 360.175 389.725 359.203 389.725 358.189C389.725 357.176 389.322 356.203 388.606 355.487C387.889 354.77 386.917 354.367 385.903 354.367H336.38C335.878 354.367 335.381 354.466 334.918 354.659C334.454 354.851 334.034 355.133 333.679 355.489C333.325 355.845 333.045 356.267 332.854 356.731C332.664 357.195 332.566 357.692 332.568 358.194Z" fill="white"/>
<path d="M328.484 342.938C328.484 343.949 328.886 344.918 329.601 345.633C330.316 346.348 331.285 346.749 332.296 346.749H401.148C402.162 346.749 403.134 346.347 403.851 345.63C404.568 344.913 404.97 343.941 404.97 342.927C404.97 341.914 404.568 340.942 403.851 340.225C403.134 339.508 402.162 339.105 401.148 339.105H332.296C331.794 339.105 331.297 339.205 330.833 339.398C330.369 339.59 329.948 339.873 329.594 340.229C329.239 340.585 328.959 341.008 328.769 341.473C328.578 341.937 328.482 342.435 328.484 342.938Z" fill="white"/>
<path d="M324.389 327.675C324.389 328.687 324.791 329.658 325.507 330.374C326.222 331.09 327.193 331.492 328.206 331.492H416.438C417.451 331.492 418.424 331.089 419.14 330.372C419.857 329.655 420.26 328.683 420.26 327.67C420.26 326.656 419.857 325.684 419.14 324.967C418.424 324.25 417.451 323.848 416.438 323.848H328.206C327.703 323.847 327.206 323.946 326.742 324.138C326.278 324.33 325.856 324.612 325.502 324.968C325.147 325.323 324.866 325.746 324.675 326.21C324.484 326.675 324.387 327.172 324.389 327.675Z" fill="white"/>
<path d="M320.301 312.424C320.301 313.435 320.702 314.404 321.417 315.119C322.132 315.834 323.102 316.236 324.113 316.236H431.674C432.688 316.236 433.66 315.833 434.376 315.116C435.093 314.4 435.496 313.427 435.496 312.414C435.496 311.4 435.093 310.428 434.376 309.711C433.66 308.994 432.688 308.592 431.674 308.592H324.113C323.61 308.592 323.113 308.691 322.649 308.884C322.185 309.077 321.764 309.359 321.41 309.715C321.056 310.072 320.775 310.494 320.585 310.959C320.395 311.424 320.298 311.922 320.301 312.424Z" fill="white"/>
<path d="M316.215 297.164C316.214 297.665 316.312 298.161 316.504 298.624C316.695 299.087 316.975 299.508 317.329 299.862C317.684 300.217 318.104 300.498 318.567 300.69C319.03 300.882 319.526 300.98 320.027 300.98H446.917C447.931 300.98 448.903 300.578 449.62 299.861C450.336 299.144 450.739 298.172 450.739 297.158C450.739 296.145 450.336 295.173 449.62 294.456C448.903 293.739 447.931 293.336 446.917 293.336H320.027C319.525 293.336 319.028 293.436 318.564 293.628C318.101 293.821 317.68 294.103 317.326 294.458C316.972 294.814 316.691 295.236 316.501 295.7C316.31 296.164 316.213 296.662 316.215 297.164Z" fill="white"/>
<path d="M312.123 281.911C312.123 282.412 312.222 282.908 312.414 283.371C312.606 283.833 312.887 284.254 313.241 284.608C313.596 284.962 314.017 285.243 314.48 285.434C314.943 285.625 315.439 285.723 315.94 285.723H462.195C463.209 285.723 464.181 285.32 464.898 284.603C465.615 283.886 466.017 282.914 466.017 281.901C466.017 280.887 465.615 279.915 464.898 279.198C464.181 278.481 463.209 278.079 462.195 278.079H315.94C315.437 278.079 314.94 278.178 314.476 278.371C314.012 278.563 313.59 278.846 313.236 279.202C312.881 279.558 312.6 279.981 312.409 280.445C312.218 280.91 312.121 281.408 312.123 281.911Z" fill="white"/>
<path d="M308.035 266.648C308.035 267.149 308.133 267.645 308.324 268.108C308.515 268.571 308.796 268.992 309.15 269.347C309.504 269.701 309.924 269.982 310.387 270.174C310.85 270.366 311.346 270.465 311.847 270.465H477.467C478.481 270.465 479.453 270.062 480.17 269.345C480.886 268.629 481.289 267.656 481.289 266.643C481.289 265.629 480.886 264.657 480.17 263.94C479.453 263.224 478.481 262.821 477.467 262.821H311.847C311.345 262.821 310.848 262.92 310.385 263.112C309.921 263.305 309.5 263.587 309.146 263.943C308.792 264.298 308.512 264.72 308.321 265.184C308.13 265.649 308.033 266.146 308.035 266.648Z" fill="white"/>
<path d="M303.943 251.391C303.945 252.402 304.347 253.372 305.063 254.086C305.779 254.801 306.749 255.203 307.76 255.203H492.704C493.718 255.203 494.69 254.8 495.407 254.083C496.124 253.366 496.526 252.394 496.526 251.381C496.526 250.367 496.124 249.395 495.407 248.678C494.69 247.961 493.718 247.559 492.704 247.559H307.76C307.258 247.559 306.76 247.658 306.296 247.851C305.832 248.043 305.411 248.326 305.056 248.682C304.701 249.038 304.42 249.461 304.23 249.925C304.039 250.39 303.941 250.888 303.943 251.391Z" fill="white"/>
<path d="M299.857 236.137C299.857 237.149 300.26 238.12 300.975 238.836C301.691 239.551 302.662 239.954 303.674 239.954H507.963C508.976 239.954 509.949 239.551 510.665 238.834C511.382 238.117 511.785 237.145 511.785 236.132C511.785 235.118 511.382 234.146 510.665 233.429C509.949 232.712 508.976 232.31 507.963 232.31H303.674C303.172 232.309 302.675 232.407 302.211 232.6C301.746 232.792 301.325 233.074 300.97 233.43C300.616 233.785 300.335 234.208 300.144 234.672C299.953 235.137 299.855 235.634 299.857 236.137Z" fill="white"/>
<path d="M295.779 220.884C295.779 221.895 296.181 222.864 296.896 223.579C297.611 224.294 298.58 224.696 299.591 224.696H492.837C493.85 224.696 494.822 224.293 495.539 223.576C496.256 222.86 496.659 221.887 496.659 220.874C496.659 219.86 496.256 218.888 495.539 218.171C494.822 217.454 493.85 217.052 492.837 217.052H299.591C299.089 217.052 298.592 217.151 298.128 217.344C297.664 217.537 297.243 217.819 296.889 218.175C296.534 218.532 296.254 218.954 296.064 219.419C295.873 219.884 295.777 220.382 295.779 220.884Z" fill="white"/>
<path d="M291.682 205.621C291.682 206.633 292.084 207.604 292.8 208.32C293.515 209.036 294.486 209.438 295.499 209.438H435.898C436.912 209.438 437.884 209.035 438.601 208.319C439.318 207.602 439.72 206.63 439.72 205.616C439.72 204.602 439.318 203.63 438.601 202.913C437.884 202.197 436.912 201.794 435.898 201.794H295.499C294.996 201.794 294.499 201.893 294.036 202.085C293.572 202.278 293.151 202.56 292.796 202.915C292.441 203.271 292.16 203.693 291.969 204.157C291.778 204.622 291.68 205.119 291.682 205.621Z" fill="white"/>
<path d="M291.418 194.173H378.931C379.945 194.173 380.917 193.771 381.634 193.054C382.351 192.337 382.753 191.365 382.753 190.351C382.753 189.338 382.351 188.365 381.634 187.649C380.917 186.932 379.945 186.529 378.931 186.529H291.418C290.404 186.529 289.432 186.932 288.715 187.649C287.998 188.365 287.596 189.338 287.596 190.351C287.596 191.365 287.998 192.337 288.715 193.054C289.432 193.771 290.404 194.173 291.418 194.173Z" fill="white"/>
<path d="M325.815 175.106C325.815 174.605 325.716 174.109 325.525 173.646C325.333 173.183 325.051 172.763 324.697 172.409C324.342 172.055 323.922 171.774 323.459 171.583C322.995 171.391 322.499 171.293 321.998 171.294H287.345C286.332 171.294 285.36 171.697 284.643 172.413C283.926 173.13 283.523 174.102 283.523 175.116C283.523 176.13 283.926 177.102 284.643 177.819C285.36 178.535 286.332 178.938 287.345 178.938H321.998C322.501 178.938 322.998 178.839 323.462 178.646C323.927 178.453 324.348 178.171 324.703 177.815C325.057 177.459 325.338 177.036 325.529 176.571C325.72 176.106 325.817 175.608 325.815 175.106Z" fill="white"/>
<path d="M1840.22 282.009H1830.33C1829.32 282.009 1828.35 281.607 1827.63 280.89C1826.91 280.173 1826.51 279.201 1826.51 278.187C1826.51 277.174 1826.91 276.201 1827.63 275.485C1828.35 274.768 1829.32 274.365 1830.33 274.365H1847.85L1855.5 266.721H1826.25C1825.24 266.721 1824.26 266.319 1823.55 265.602C1822.83 264.885 1822.43 263.913 1822.43 262.899C1822.43 261.886 1822.83 260.913 1823.55 260.197C1824.26 259.48 1825.24 259.077 1826.25 259.077H1863.11L1870.75 251.433H1822.16C1821.14 251.433 1820.17 251.031 1819.46 250.314C1818.74 249.597 1818.34 248.625 1818.34 247.611C1818.34 246.598 1818.74 245.625 1819.46 244.909C1820.17 244.192 1821.14 243.789 1822.16 243.789H1878.37L1886.02 236.145H1818.07C1817.05 236.145 1816.08 235.743 1815.36 235.026C1814.65 234.309 1814.24 233.337 1814.24 232.323C1814.24 231.31 1814.65 230.337 1815.36 229.621C1816.08 228.904 1817.05 228.501 1818.07 228.501H1893.63L1901.27 220.857H1813.98C1812.96 220.857 1811.99 220.455 1811.28 219.738C1810.56 219.021 1810.16 218.049 1810.16 217.035C1810.16 216.022 1810.56 215.049 1811.28 214.333C1811.99 213.616 1812.96 213.213 1813.98 213.213H1908.86L1916.5 205.569H1809.89C1808.88 205.569 1807.91 205.167 1807.19 204.45C1806.47 203.733 1806.07 202.761 1806.07 201.747C1806.07 200.734 1806.47 199.761 1807.19 199.045C1807.91 198.328 1808.88 197.925 1809.89 197.925H1924.15L1931.79 190.281H1805.8C1804.79 190.281 1803.81 189.879 1803.1 189.162C1802.38 188.445 1801.98 187.473 1801.98 186.459C1801.98 185.446 1802.38 184.473 1803.1 183.757C1803.81 183.04 1804.79 182.637 1805.8 182.637H1939.4L1947.05 174.993H1801.71C1800.7 174.993 1799.73 174.591 1799.01 173.874C1798.29 173.157 1797.89 172.185 1797.89 171.171C1797.89 170.158 1798.29 169.185 1799.01 168.469C1799.73 167.752 1800.7 167.349 1801.71 167.349H1954.66L1959.15 162.855L1947.47 159.726H1797.65C1796.63 159.726 1795.66 159.323 1794.94 158.606C1794.23 157.889 1793.82 156.917 1793.82 155.904C1793.82 154.89 1794.23 153.918 1794.94 153.201C1795.66 152.484 1796.63 152.082 1797.65 152.082H1919L1890.54 144.438H1793.54C1792.53 144.438 1791.56 144.035 1790.84 143.318C1790.12 142.601 1789.72 141.629 1789.72 140.616C1789.72 139.602 1790.12 138.63 1790.84 137.913C1791.56 137.196 1792.53 136.794 1793.54 136.794H1862.07L1833.59 129.15H1789.45C1788.44 129.15 1787.47 128.747 1786.75 128.03C1786.03 127.313 1785.63 126.341 1785.63 125.328C1785.63 124.314 1786.03 123.342 1786.75 122.625C1787.47 121.908 1788.44 121.506 1789.45 121.506H1805.12L1727 100.571L1789.2 332.73L1840.22 282.009Z" fill="#36DBFF"/>
<path d="M1838.54 304.892C1837.52 304.892 1836.55 305.294 1835.83 306.011C1835.12 306.728 1834.71 307.7 1834.71 308.714C1834.71 309.727 1835.12 310.699 1835.83 311.416C1836.55 312.133 1837.52 312.536 1838.54 312.536H1849.37C1850.38 312.536 1851.36 312.133 1852.07 311.416C1852.79 310.699 1853.19 309.727 1853.19 308.714C1853.19 307.7 1852.79 306.728 1852.07 306.011C1851.36 305.294 1850.38 304.892 1849.37 304.892H1838.54Z" fill="white"/>
<path d="M1868.42 293.454C1868.42 292.441 1868.01 291.471 1867.3 290.755C1866.58 290.039 1865.61 289.637 1864.6 289.637H1834.43C1833.41 289.637 1832.44 290.039 1831.72 290.756C1831.01 291.473 1830.6 292.445 1830.6 293.459C1830.6 294.472 1831.01 295.445 1831.72 296.161C1832.44 296.878 1833.41 297.281 1834.43 297.281H1864.6C1865.1 297.281 1865.6 297.182 1866.06 296.989C1866.53 296.797 1866.95 296.515 1867.3 296.159C1867.66 295.804 1867.94 295.382 1868.13 294.917C1868.32 294.453 1868.42 293.956 1868.42 293.454Z" fill="white"/>
<path d="M1826.52 278.194C1826.52 278.695 1826.62 279.191 1826.81 279.655C1827 280.118 1827.28 280.538 1827.64 280.893C1827.99 281.247 1828.41 281.529 1828.87 281.721C1829.34 281.912 1829.83 282.011 1830.33 282.011H1879.86C1880.87 282.011 1881.84 281.609 1882.56 280.892C1883.28 280.175 1883.68 279.203 1883.68 278.189C1883.68 277.176 1883.28 276.203 1882.56 275.487C1881.84 274.77 1880.87 274.367 1879.86 274.367H1830.33C1829.83 274.367 1829.33 274.466 1828.87 274.659C1828.41 274.851 1827.99 275.133 1827.63 275.489C1827.28 275.845 1827 276.267 1826.81 276.731C1826.62 277.195 1826.52 277.692 1826.52 278.194Z" fill="white"/>
<path d="M1822.44 262.938C1822.44 263.949 1822.84 264.918 1823.55 265.633C1824.27 266.348 1825.24 266.749 1826.25 266.749H1895.1C1896.12 266.749 1897.09 266.347 1897.8 265.63C1898.52 264.913 1898.92 263.941 1898.92 262.927C1898.92 261.914 1898.52 260.942 1897.8 260.225C1897.09 259.508 1896.12 259.105 1895.1 259.105H1826.25C1825.75 259.105 1825.25 259.205 1824.79 259.398C1824.32 259.59 1823.9 259.873 1823.55 260.229C1823.19 260.585 1822.91 261.008 1822.72 261.473C1822.53 261.937 1822.43 262.435 1822.44 262.938Z" fill="white"/>
<path d="M1818.34 247.675C1818.34 248.687 1818.74 249.658 1819.46 250.374C1820.18 251.09 1821.15 251.492 1822.16 251.492H1910.39C1911.4 251.492 1912.38 251.089 1913.09 250.372C1913.81 249.655 1914.21 248.683 1914.21 247.67C1914.21 246.656 1913.81 245.684 1913.09 244.967C1912.38 244.25 1911.4 243.848 1910.39 243.848H1822.16C1821.66 243.847 1821.16 243.946 1820.69 244.138C1820.23 244.33 1819.81 244.612 1819.45 244.968C1819.1 245.323 1818.82 245.746 1818.63 246.21C1818.44 246.675 1818.34 247.172 1818.34 247.675Z" fill="white"/>
<path d="M1814.25 232.424C1814.25 233.435 1814.66 234.404 1815.37 235.119C1816.09 235.834 1817.05 236.236 1818.07 236.236H1925.63C1926.64 236.236 1927.61 235.833 1928.33 235.116C1929.05 234.4 1929.45 233.427 1929.45 232.414C1929.45 231.4 1929.05 230.428 1928.33 229.711C1927.61 228.994 1926.64 228.592 1925.63 228.592H1818.07C1817.56 228.592 1817.07 228.691 1816.6 228.884C1816.14 229.077 1815.72 229.359 1815.36 229.715C1815.01 230.072 1814.73 230.494 1814.54 230.959C1814.35 231.424 1814.25 231.922 1814.25 232.424Z" fill="white"/>
<path d="M1810.17 217.163C1810.17 217.664 1810.27 218.16 1810.46 218.623C1810.65 219.086 1810.93 219.507 1811.28 219.862C1811.64 220.216 1812.06 220.497 1812.52 220.689C1812.98 220.881 1813.48 220.98 1813.98 220.98H1940.87C1941.88 220.98 1942.86 220.577 1943.57 219.861C1944.29 219.144 1944.69 218.172 1944.69 217.158C1944.69 216.144 1944.29 215.172 1943.57 214.455C1942.86 213.739 1941.88 213.336 1940.87 213.336H1813.98C1813.48 213.336 1812.98 213.435 1812.52 213.628C1812.05 213.82 1811.63 214.102 1811.28 214.458C1810.92 214.813 1810.64 215.235 1810.45 215.7C1810.26 216.164 1810.17 216.661 1810.17 217.163Z" fill="white"/>
<path d="M1806.08 201.91C1806.08 202.411 1806.17 202.907 1806.37 203.37C1806.56 203.833 1806.84 204.253 1807.19 204.607C1807.55 204.961 1807.97 205.242 1808.43 205.433C1808.9 205.625 1809.39 205.723 1809.89 205.722H1956.15C1957.16 205.722 1958.13 205.319 1958.85 204.603C1959.57 203.886 1959.97 202.914 1959.97 201.9C1959.97 200.886 1959.57 199.914 1958.85 199.198C1958.13 198.481 1957.16 198.078 1956.15 198.078H1809.89C1809.39 198.078 1808.89 198.177 1808.43 198.37C1807.96 198.563 1807.54 198.845 1807.19 199.201C1806.83 199.558 1806.55 199.98 1806.36 200.445C1806.17 200.91 1806.07 201.408 1806.08 201.91Z" fill="white"/>
<path d="M1801.99 186.647C1801.99 187.148 1802.09 187.645 1802.28 188.108C1802.47 188.571 1802.75 188.992 1803.1 189.346C1803.46 189.701 1803.88 189.982 1804.34 190.174C1804.8 190.366 1805.3 190.464 1805.8 190.464H1971.42C1972.43 190.464 1973.41 190.062 1974.12 189.345C1974.84 188.628 1975.24 187.656 1975.24 186.642C1975.24 185.629 1974.84 184.657 1974.12 183.94C1973.41 183.223 1972.43 182.82 1971.42 182.82H1805.8C1805.3 182.82 1804.8 182.919 1804.34 183.112C1803.87 183.304 1803.45 183.587 1803.1 183.942C1802.75 184.298 1802.46 184.72 1802.27 185.184C1802.08 185.648 1801.99 186.146 1801.99 186.647Z" fill="white"/>
<path d="M1797.9 171.391C1797.9 172.402 1798.3 173.372 1799.02 174.086C1799.73 174.801 1800.7 175.203 1801.71 175.203H1986.66C1987.67 175.203 1988.64 174.8 1989.36 174.083C1990.08 173.366 1990.48 172.394 1990.48 171.381C1990.48 170.367 1990.08 169.395 1989.36 168.678C1988.64 167.961 1987.67 167.559 1986.66 167.559H1801.71C1801.21 167.559 1800.71 167.658 1800.25 167.851C1799.79 168.043 1799.36 168.326 1799.01 168.682C1798.65 169.038 1798.37 169.461 1798.18 169.925C1797.99 170.39 1797.89 170.888 1797.9 171.391Z" fill="white"/>
<path d="M1793.81 156.137C1793.81 157.149 1794.21 158.12 1794.93 158.836C1795.64 159.551 1796.62 159.954 1797.63 159.954H2001.92C2002.93 159.954 2003.9 159.551 2004.62 158.834C2005.34 158.117 2005.74 157.145 2005.74 156.132C2005.74 155.118 2005.34 154.146 2004.62 153.429C2003.9 152.712 2002.93 152.31 2001.92 152.31H1797.63C1797.13 152.309 1796.63 152.407 1796.16 152.6C1795.7 152.792 1795.28 153.074 1794.92 153.43C1794.57 153.785 1794.29 154.208 1794.1 154.672C1793.91 155.137 1793.81 155.634 1793.81 156.137Z" fill="white"/>
<path d="M1789.73 140.884C1789.73 141.895 1790.13 142.864 1790.85 143.579C1791.56 144.294 1792.53 144.696 1793.54 144.696H1986.79C1987.8 144.696 1988.78 144.293 1989.49 143.576C1990.21 142.86 1990.61 141.887 1990.61 140.874C1990.61 139.86 1990.21 138.888 1989.49 138.171C1988.78 137.454 1987.8 137.052 1986.79 137.052H1793.54C1793.04 137.052 1792.54 137.151 1792.08 137.344C1791.62 137.537 1791.2 137.819 1790.84 138.175C1790.49 138.532 1790.21 138.954 1790.02 139.419C1789.83 139.884 1789.73 140.382 1789.73 140.884Z" fill="white"/>
<path d="M1785.63 125.621C1785.63 126.633 1786.04 127.604 1786.75 128.32C1787.47 129.036 1788.44 129.438 1789.45 129.438H1929.85C1930.87 129.438 1931.84 129.035 1932.55 128.319C1933.27 127.602 1933.67 126.63 1933.67 125.616C1933.67 124.602 1933.27 123.63 1932.55 122.913C1931.84 122.197 1930.87 121.794 1929.85 121.794H1789.45C1788.95 121.794 1788.45 121.893 1787.99 122.085C1787.52 122.278 1787.1 122.56 1786.75 122.915C1786.39 123.271 1786.11 123.693 1785.92 124.157C1785.73 124.622 1785.63 125.119 1785.63 125.621Z" fill="white"/>
<path d="M1785.37 114.173H1872.88C1873.9 114.173 1874.87 113.771 1875.59 113.054C1876.3 112.337 1876.71 111.365 1876.71 110.351C1876.71 109.338 1876.3 108.365 1875.59 107.649C1874.87 106.932 1873.9 106.529 1872.88 106.529H1785.37C1784.36 106.529 1783.39 106.932 1782.67 107.649C1781.95 108.365 1781.55 109.338 1781.55 110.351C1781.55 111.365 1781.95 112.337 1782.67 113.054C1783.39 113.771 1784.36 114.173 1785.37 114.173Z" fill="white"/>
<path d="M1819.77 95.1057C1819.77 94.6047 1819.67 94.1087 1819.48 93.6459C1819.29 93.1831 1819 92.7626 1818.65 92.4086C1818.3 92.0545 1817.87 91.7739 1817.41 91.5827C1816.95 91.3914 1816.45 91.2933 1815.95 91.2939H1781.3C1780.28 91.2939 1779.31 91.6966 1778.6 92.4134C1777.88 93.1301 1777.48 94.1023 1777.48 95.1159C1777.48 96.1296 1777.88 97.1018 1778.6 97.8185C1779.31 98.5353 1780.28 98.9379 1781.3 98.9379H1815.95C1816.45 98.938 1816.95 98.8387 1817.42 98.6459C1817.88 98.4532 1818.3 98.1707 1818.66 97.8146C1819.01 97.4586 1819.29 97.0359 1819.48 96.5711C1819.67 96.1062 1819.77 95.6083 1819.77 95.1057Z" fill="white"/>
<path d="M1564.76 1296.74C1564.68 1297.65 1564.93 1298.55 1565.46 1299.29C1565.99 1300.03 1566.77 1300.56 1567.66 1300.77L1642.67 1318.92C1642.96 1318.99 1643.26 1319.02 1643.56 1319.02C1644.49 1319.02 1645.39 1318.67 1646.08 1318.05C1646.78 1317.43 1647.22 1316.58 1647.33 1315.66C1647.44 1314.74 1647.21 1313.8 1646.68 1313.04C1646.15 1312.27 1645.36 1311.73 1644.46 1311.5L1572.61 1294.13L1580.55 1200.66C1580.59 1200.14 1580.53 1199.62 1580.36 1199.13C1580.19 1198.63 1579.93 1198.18 1579.58 1197.79C1579.24 1197.4 1578.81 1197.09 1578.34 1196.87C1577.87 1196.65 1577.36 1196.53 1576.84 1196.52L1469.31 1193.97H1469.27C1468.26 1193.96 1467.28 1194.35 1466.55 1195.06C1465.83 1195.77 1465.42 1196.74 1465.4 1197.75C1465.39 1198.77 1465.78 1199.74 1466.49 1200.47C1467.2 1201.19 1468.17 1201.61 1469.18 1201.62L1572.63 1204.08L1564.76 1296.74Z" fill="black"/>
<path d="M1183.3 437.424C1182.95 437.069 1182.53 436.788 1182.07 436.596C1181.6 436.404 1181.11 436.305 1180.61 436.305C1180.11 436.305 1179.61 436.404 1179.15 436.596C1178.69 436.788 1178.27 437.069 1177.91 437.424C1142.2 473.131 1142.2 531.231 1177.91 566.944C1195.09 584.116 1218.38 593.763 1242.67 593.763C1266.96 593.763 1290.25 584.116 1307.43 566.944C1308.12 566.223 1308.5 565.26 1308.49 564.262C1308.48 563.264 1308.08 562.31 1307.37 561.605C1306.67 560.899 1305.71 560.498 1304.72 560.487C1303.72 560.476 1302.76 560.857 1302.03 561.547C1294.24 569.345 1284.98 575.531 1274.8 579.751C1264.61 583.971 1253.69 586.144 1242.67 586.144C1231.64 586.144 1220.72 583.971 1210.54 579.751C1200.35 575.531 1191.09 569.345 1183.3 561.547C1150.57 528.815 1150.57 475.552 1183.3 442.81C1184.01 442.096 1184.41 441.128 1184.41 440.118C1184.42 439.108 1184.02 438.139 1183.3 437.424Z" fill="black"/>
<path d="M241.293 1091.22C241.648 1090.87 241.929 1090.45 242.121 1089.99C242.313 1089.52 242.412 1089.03 242.412 1088.53C242.412 1088.03 242.313 1087.53 242.121 1087.07C241.929 1086.61 241.648 1086.19 241.293 1085.83C205.585 1050.12 147.486 1050.12 111.773 1085.83C94.6004 1103.01 84.9533 1126.3 84.9533 1150.59C84.9533 1174.88 94.6004 1198.17 111.773 1215.35C112.494 1216.04 113.456 1216.42 114.454 1216.41C115.452 1216.4 116.406 1216 117.112 1215.29C117.818 1214.59 118.219 1213.63 118.23 1212.64C118.241 1211.64 117.86 1210.68 117.17 1209.95C109.372 1202.16 103.186 1192.9 98.9657 1182.72C94.7453 1172.53 92.5732 1161.61 92.5732 1150.59C92.5732 1139.56 94.7453 1128.64 98.9657 1118.46C103.186 1108.27 109.372 1099.01 117.17 1091.22C149.901 1058.49 203.165 1058.49 235.907 1091.22C236.621 1091.93 237.589 1092.33 238.599 1092.33C239.609 1092.34 240.578 1091.94 241.293 1091.22Z" fill="black"/>
</g>
</g>
<defs>
<clipPath id="clip0_1735_259980">
<rect width="1920" height="1400" fill="white"/>
</clipPath>
<clipPath id="clip1_1735_259980">
<rect width="2548" height="2548" fill="white" transform="translate(-58 -657)"/>
</clipPath>
</defs>
</svg>
