<svg width="1920" height="1400" viewBox="0 0 1920 1400" fill="none" xmlns="http://www.w3.org/2000/svg">
<g clip-path="url(#clip0_1735_266063)">
<rect width="1920" height="1400" fill="#4469FC"/>
<path d="M1809 1244.82C1693.57 1095.16 1481.57 1307.17 1390 1431.89V1539.97H1976.87C2010.17 1414.8 2056.79 1160.56 1976.87 1145.04C1896.96 1129.52 1831.66 1205.09 1809 1244.82Z" fill="#FFE3DA"/>
<path d="M1174.33 534.924C1279.57 548.575 1279.46 380.266 1266.25 294.405L1223.32 251.474L990.504 484.285C1027.01 547.214 1109.5 666.686 1147.37 641.148C1185.23 615.611 1181.12 559.691 1174.33 534.924Z" fill="#ECF0FF"/>
<path d="M430.611 1073.91L373.857 1195.96C319.179 1145.53 266.424 1144.32 246.881 1150.01L162 1518.41L706.081 1563.16C739.674 1284.92 536.431 1121.06 430.611 1073.91Z" fill="#FF7853"/>
<path d="M1082.95 98.3887L1032.72 53.1743C1064.98 34.354 1073.33 9.21009 1073.47 -1.00936L909.135 -96L807.542 158.574C936.152 215.669 1044.73 142.24 1082.95 98.3887Z" fill="#FF7853"/>
<path d="M1781.96 629.36L1795.95 695.478C1758.8 691.703 1737.24 707.114 1731.11 715.291L1808.04 888.816L2040.02 742.825C1969.67 620.964 1838.67 616.406 1781.96 629.36Z" fill="#FF7853"/>
<path d="M78.2784 508.179L-1 392.207C233.438 197.6 331.686 272.463 351.506 334.221C480.462 238.049 529.818 318.664 538.376 370.993L640.306 310.178L721 423.322C500.153 604.352 403.414 544.008 382.651 491.208C237.685 599.826 192.949 502.522 188.702 440.293L78.2784 508.179Z" fill="#9DECFF"/>
<path d="M1956.72 -48.5762L2065.41 2.83858C1967.05 245.503 1752.03 350.485 1656.81 372.643L1626.25 258.583C1823.18 186.256 1928.61 23.674 1956.72 -48.5762Z" fill="#DAE1FE"/>
<path d="M502.278 963.975L446 916.267C542.866 788.139 687.027 760.083 747 762.071L747 834.484C618.755 846.07 530.416 925.638 502.278 963.975Z" fill="#DAE1FE"/>
<path d="M1058.55 1152.87L1011 1083.2C1151.6 966.3 1210.52 1011.27 1222.41 1048.37C1299.74 990.599 1329.34 1039.03 1334.48 1070.46L1395.61 1033.93L1444 1101.9C1311.55 1210.64 1253.54 1174.39 1241.08 1142.68C1154.14 1207.93 1127.32 1149.47 1124.77 1112.09L1058.55 1152.87Z" fill="#9DECFF"/>
</g>
<defs>
<clipPath id="clip0_1735_266063">
<rect width="1920" height="1400" fill="white"/>
</clipPath>
</defs>
</svg>
