<svg width="40" height="40" viewBox="0 0 40 40" fill="none" xmlns="http://www.w3.org/2000/svg">
<path d="M0 8C0 3.58172 3.58172 0 8 0H40V32C40 36.4183 36.4183 40 32 40H0V8Z" fill="#663FBA"/>
<path fill-rule="evenodd" clip-rule="evenodd" d="M19.0001 10.2917C14.1907 10.2917 10.2917 14.1906 10.2917 19C10.2917 23.8094 14.1907 27.7084 19.0001 27.7084C23.8095 27.7084 27.7084 23.8094 27.7084 19C27.7084 14.1906 23.8095 10.2917 19.0001 10.2917ZM22.7747 17.5275C22.8443 17.4481 22.8972 17.3555 22.9304 17.2553C22.9636 17.1551 22.9764 17.0493 22.9681 16.9441C22.9598 16.8388 22.9306 16.7363 22.8821 16.6425C22.8336 16.5488 22.7668 16.4657 22.6857 16.3981C22.6046 16.3305 22.5108 16.2798 22.4099 16.249C22.3089 16.2182 22.2028 16.2079 22.0978 16.2188C21.9928 16.2296 21.891 16.2613 21.7984 16.312C21.7059 16.3628 21.6244 16.4315 21.5587 16.5142L18.1546 20.5984L16.3931 18.8361C16.2438 18.6919 16.0438 18.6121 15.8363 18.6139C15.6287 18.6157 15.4301 18.699 15.2834 18.8458C15.1366 18.9926 15.0533 19.1911 15.0515 19.3987C15.0497 19.6063 15.1295 19.8063 15.2737 19.9556L17.6487 22.3306C17.7265 22.4083 17.8196 22.469 17.9222 22.5087C18.0247 22.5485 18.1344 22.5664 18.2443 22.5615C18.3541 22.5565 18.4617 22.5286 18.5602 22.4798C18.6588 22.4309 18.746 22.362 18.8164 22.2775L22.7747 17.5275Z" fill="white"/>
</svg>
