<svg width="88" height="57" viewBox="0 0 88 57" fill="none" xmlns="http://www.w3.org/2000/svg">
<path d="M20 24.5273C19.2089 24.5273 18.4355 24.7619 17.7777 25.2015C17.1199 25.641 16.6072 26.2657 16.3045 26.9966C16.0017 27.7275 15.9225 28.5318 16.0769 29.3077C16.2312 30.0836 16.6122 30.7964 17.1716 31.3558C17.731 31.9152 18.4437 32.2961 19.2196 32.4505C19.9956 32.6048 20.7998 32.5256 21.5307 32.2229C22.2616 31.9201 22.8864 31.4074 23.3259 30.7496C23.7654 30.0918 24 29.3185 24 28.5273C24 27.4665 23.5786 26.4491 22.8284 25.6989C22.0783 24.9488 21.0609 24.5273 20 24.5273ZM68 24.5273C67.2089 24.5273 66.4355 24.7619 65.7777 25.2015C65.1199 25.641 64.6072 26.2657 64.3045 26.9966C64.0017 27.7275 63.9225 28.5318 64.0769 29.3077C64.2312 30.0836 64.6122 30.7964 65.1716 31.3558C65.731 31.9152 66.4437 32.2961 67.2196 32.4505C67.9956 32.6048 68.7998 32.5256 69.5307 32.2229C70.2616 31.9201 70.8864 31.4074 71.3259 30.7496C71.7654 30.0918 72 29.3185 72 28.5273C72 27.4665 71.5786 26.4491 70.8284 25.6989C70.0783 24.9488 69.0609 24.5273 68 24.5273ZM76 0.527344H12C8.8174 0.527344 5.76515 1.79163 3.51472 4.04206C1.26428 6.2925 0 9.34475 0 12.5273V44.5273C0 47.7099 1.26428 50.7622 3.51472 53.0126C5.76515 55.2631 8.8174 56.5273 12 56.5273H76C79.1826 56.5273 82.2348 55.2631 84.4853 53.0126C86.7357 50.7622 88 47.7099 88 44.5273V12.5273C88 9.34475 86.7357 6.2925 84.4853 4.04206C82.2348 1.79163 79.1826 0.527344 76 0.527344ZM80 44.5273C80 45.5882 79.5786 46.6056 78.8284 47.3558C78.0783 48.1059 77.0609 48.5273 76 48.5273H12C10.9391 48.5273 9.92172 48.1059 9.17157 47.3558C8.42143 46.6056 8 45.5882 8 44.5273V12.5273C8 11.4665 8.42143 10.4491 9.17157 9.69892C9.92172 8.94877 10.9391 8.52734 12 8.52734H76C77.0609 8.52734 78.0783 8.94877 78.8284 9.69892C79.5786 10.4491 80 11.4665 80 12.5273V44.5273ZM44 16.5273C41.6266 16.5273 39.3065 17.2311 37.3332 18.5497C35.3598 19.8683 33.8217 21.7424 32.9134 23.9351C32.0052 26.1279 31.7676 28.5407 32.2306 30.8684C32.6936 33.1962 33.8365 35.3344 35.5147 37.0126C37.1929 38.6909 39.3311 39.8337 41.6589 40.2968C43.9867 40.7598 46.3995 40.5222 48.5922 39.6139C50.7849 38.7056 52.6591 37.1676 53.9776 35.1942C55.2962 33.2208 56 30.9007 56 28.5273C56 25.3447 54.7357 22.2925 52.4853 20.0421C50.2348 17.7916 47.1826 16.5273 44 16.5273ZM44 32.5273C43.2089 32.5273 42.4355 32.2927 41.7777 31.8532C41.1199 31.4137 40.6072 30.789 40.3045 30.0581C40.0017 29.3272 39.9225 28.5229 40.0769 27.747C40.2312 26.9711 40.6122 26.2583 41.1716 25.6989C41.731 25.1395 42.4437 24.7585 43.2196 24.6042C43.9956 24.4499 44.7998 24.5291 45.5307 24.8318C46.2616 25.1346 46.8864 25.6473 47.3259 26.3051C47.7654 26.9629 48 27.7362 48 28.5273C48 29.5882 47.5786 30.6056 46.8284 31.3558C46.0783 32.1059 45.0609 32.5273 44 32.5273Z" fill="#F7F7F8"/>
</svg>
