<svg width="128" height="32" viewBox="0 0 128 32" fill="none" xmlns="http://www.w3.org/2000/svg">
<path d="M42.8829 8.5C44.048 8.5 45.0069 8.9034 45.7598 9.70992C46.527 10.5164 46.9107 11.631 46.9107 13.0535V19.8067H44.1618V13.4054C44.1618 12.6723 43.9698 12.1148 43.5864 11.7337C43.2027 11.3379 42.6912 11.1397 42.0521 11.1397C41.3419 11.1397 40.7735 11.3671 40.3473 11.8216C39.9211 12.2762 39.7079 12.9582 39.7079 13.8676V19.8067H36.959V8.80811H39.7079V10.0399C40.3756 9.01331 41.4339 8.5 42.8829 8.5ZM58.3358 18.443C57.2422 19.5573 55.9067 20.1148 54.3296 20.1148C52.7528 20.1148 51.4173 19.5573 50.3234 18.443C49.2436 17.3138 48.7038 15.9352 48.7038 14.3072C48.7038 12.6796 49.2436 11.3083 50.3234 10.1937C51.4173 9.06447 52.7528 8.5 54.3296 8.5C55.9067 8.5 57.2422 9.06447 58.3358 10.1937C59.4298 11.3083 59.9769 12.6796 59.9769 14.3072C59.9769 15.9352 59.4298 17.3138 58.3358 18.443ZM52.2626 16.485C52.8168 17.0571 53.5058 17.343 54.3296 17.343C55.1537 17.343 55.8427 17.0571 56.3969 16.485C56.9508 15.9133 57.228 15.1871 57.228 14.3072C57.228 13.4274 56.9508 12.7015 56.3969 12.1297C55.8427 11.5577 55.1537 11.2718 54.3296 11.2718C53.5058 11.2718 52.8168 11.5577 52.2626 12.1297C51.7229 12.7015 51.453 13.4274 51.453 14.3072C51.453 15.1871 51.7229 15.9133 52.2626 16.485ZM68.9431 8.80811H71.692V19.8067H68.9431V18.5748C68.2754 19.6015 67.2168 20.1148 65.7678 20.1148C64.603 20.1148 63.6368 19.7114 62.8696 18.9049C62.1167 18.0984 61.7403 16.9837 61.7403 15.5613V8.80811H64.4892V15.2094C64.4892 15.9425 64.6809 16.5073 65.0646 16.9031C65.448 17.2842 65.9598 17.4751 66.5989 17.4751C67.3092 17.4751 67.8775 17.2477 68.3037 16.7931C68.7299 16.3386 68.9431 15.6566 68.9431 14.7472V8.80811ZM85.994 8.5C87.216 8.5 88.189 8.91071 88.9137 9.73184C89.6522 10.5533 90.0218 11.653 90.0218 13.0316V19.8067H87.2726V13.2295C87.2726 12.5697 87.1166 12.0564 86.8039 11.6898C86.4913 11.3229 86.051 11.1397 85.4829 11.1397C84.8576 11.1397 84.3674 11.3525 84.0123 11.7778C83.6713 12.2028 83.5009 12.8187 83.5009 13.6256V19.8067H80.752V13.2295C80.752 12.5697 80.5957 12.0564 80.283 11.6898C79.9704 11.3229 79.53 11.1397 78.962 11.1397C78.3511 11.1397 77.8609 11.3525 77.4914 11.7778C77.1363 12.2028 76.9587 12.8187 76.9587 13.6256V19.8067H74.2098V8.80811H76.9587V9.97388C77.5981 8.99139 78.5853 8.5 79.9208 8.5C81.2277 8.5 82.1937 9.02793 82.819 10.0838C83.5295 9.02793 84.5877 8.5 85.994 8.5ZM94.6793 15.4733C95.0486 16.8519 96.0502 17.5409 97.6839 17.5409C98.7354 17.5409 99.5309 17.1743 100.071 16.4412L102.287 17.761C101.236 19.3302 99.6872 20.1148 97.6415 20.1148C95.8798 20.1148 94.4661 19.5646 93.4008 18.4649C92.3351 17.3649 91.8025 15.979 91.8025 14.3072C91.8025 12.6501 92.3281 11.2718 93.3792 10.1718C94.4307 9.05716 95.7804 8.5 97.4282 8.5C98.9909 8.5 100.277 9.05716 101.286 10.1718C102.308 11.2864 102.82 12.665 102.82 14.3072C102.82 14.6741 102.784 15.0626 102.713 15.4733H94.6793ZM94.6366 13.2736H100.071C99.9143 12.5255 99.5875 11.9684 99.0905 11.6018C98.6074 11.235 98.0532 11.0517 97.4282 11.0517C96.6894 11.0517 96.0786 11.2496 95.5955 11.6457C95.1126 12.0269 94.7929 12.5697 94.6366 13.2736ZM110.663 8.5C111.828 8.5 112.787 8.9034 113.54 9.70992C114.307 10.5164 114.69 11.631 114.69 13.0535V19.8067H111.942V13.4054C111.942 12.6723 111.75 12.1148 111.366 11.7337C110.983 11.3379 110.471 11.1397 109.832 11.1397C109.122 11.1397 108.553 11.3671 108.127 11.8216C107.701 12.2762 107.488 12.9582 107.488 13.8676V19.8067H104.739V8.80811H107.488V10.0399C108.155 9.01331 109.214 8.5 110.663 8.5ZM125.135 8.80811H127.885V19.8067H125.135V18.5088C124.312 19.5793 123.154 20.1148 121.662 20.1148C120.241 20.1148 119.02 19.5573 117.997 18.443C116.988 17.3138 116.484 15.9352 116.484 14.3072C116.484 12.6796 116.988 11.3083 117.997 10.1937C119.02 9.06447 120.241 8.5 121.662 8.5C123.154 8.5 124.312 9.03524 125.135 10.106V8.80811ZM120.064 16.5511C120.618 17.1232 121.321 17.4091 122.174 17.4091C123.026 17.4091 123.729 17.1232 124.283 16.5511C124.851 15.9644 125.135 15.2167 125.135 14.3072C125.135 13.3981 124.851 12.6574 124.283 12.0856C123.729 11.4992 123.026 11.2057 122.174 11.2057C121.321 11.2057 120.618 11.4992 120.064 12.0856C119.51 12.6574 119.233 13.3981 119.233 14.3072C119.233 15.2167 119.51 15.9644 120.064 16.5511Z" fill="#0C0024"/>
<path d="M77.5363 23.25H75.0563V30.5H76.4863V27.95H77.5763C79.2463 27.95 80.7263 27.5 80.7263 25.65C80.7263 23.46 79.0263 23.25 77.5363 23.25ZM76.4863 24.37H77.5663C78.3463 24.37 79.2563 24.47 79.2563 25.66C79.2563 26.62 78.5563 26.84 77.6663 26.84H76.4863V24.37ZM84.5472 29.79V30.5H85.9272V25.12H84.5472V27.92C84.5472 28.77 84.3372 29.52 83.4272 29.52C82.6472 29.52 82.5472 28.94 82.5472 28.22V25.12H81.1672V28.52C81.1672 29.84 81.6872 30.63 82.9772 30.63C83.6372 30.63 84.2372 30.33 84.5472 29.79ZM87.1649 30.5H88.5449V29.82C88.8849 30.41 89.5349 30.63 90.0949 30.63C91.3749 30.63 92.4349 29.53 92.4349 27.81C92.4349 26.12 91.3949 25 90.0949 25C89.4149 25 88.8349 25.31 88.5449 25.81V23.25H87.1649V30.5ZM90.9849 27.82C90.9849 28.87 90.4649 29.57 89.7549 29.57C88.9949 29.57 88.4949 28.91 88.4949 27.81C88.4949 26.73 88.9949 26.06 89.7549 26.06C90.4649 26.06 90.9849 26.77 90.9849 27.82ZM94.707 30.5V23.25H93.327V30.5H94.707ZM97.3242 23.25H95.9442V24.53H97.3242V23.25ZM97.3242 25.12H95.9442V30.5H97.3242V25.12ZM103.351 26.96C103.171 25.62 102.031 25 100.911 25C99.3014 25 98.2114 26.18 98.2114 27.82C98.2114 29.44 99.2414 30.63 100.851 30.63C101.961 30.63 103.081 30.14 103.401 28.67H102.081C101.901 29.32 101.391 29.56 100.921 29.56C100.161 29.56 99.6214 28.93 99.6214 27.8C99.6214 26.68 100.191 26.07 100.911 26.07C101.431 26.07 101.931 26.45 102.031 26.96H103.351ZM106.511 23.25V30.5H109.451C110.941 30.5 112.231 29.93 112.231 28.36C112.231 27.37 111.701 26.93 111.151 26.67C111.531 26.42 111.971 25.82 111.971 25.14C111.971 23.64 110.611 23.25 109.331 23.25H106.511ZM107.941 26.24V24.37H109.421C110.081 24.37 110.501 24.71 110.501 25.28C110.501 25.91 110.091 26.24 109.421 26.24H107.941ZM107.941 29.38V27.32H109.461C110.351 27.32 110.771 27.69 110.771 28.36C110.771 29.02 110.351 29.38 109.521 29.38H107.941ZM114.337 28.19H118.307C118.367 26.29 117.327 25 115.667 25C114.077 25 112.967 26.19 112.967 27.79C112.967 29.34 113.977 30.63 115.707 30.63C117.167 30.63 117.957 29.74 118.247 28.94H116.827C116.547 29.41 116.117 29.56 115.697 29.56C115.047 29.56 114.407 29.11 114.337 28.19ZM114.357 27.24C114.467 26.34 115.137 26.01 115.657 26.01C116.237 26.01 116.877 26.33 116.907 27.24H114.357ZM119.386 23.66V25.12H118.626V26.07H119.386V29.05C119.386 30.12 119.626 30.5 120.856 30.5H121.866V29.51H121.446C120.956 29.51 120.766 29.4 120.766 28.85V26.07H121.886V25.12H120.766V23.66H119.386ZM124.49 30.63C125.3 30.63 125.87 30.39 126.25 29.83C126.27 30.09 126.3 30.33 126.34 30.5H127.61C127.51 30.05 127.45 29.57 127.45 28.72C127.45 28.23 127.47 27.52 127.47 27.35C127.47 25.53 126.43 24.98 125.15 24.98C123.77 24.98 122.89 25.76 122.79 26.82H124.08C124.11 26.23 124.55 25.95 125.08 25.95C125.64 25.95 126.09 26.24 126.09 27.07V27.16C123.98 27.4 122.55 27.78 122.55 29.05C122.55 30.03 123.46 30.63 124.49 30.63ZM126.13 28.04V28.44C126.13 29.22 125.76 29.69 124.9 29.69C124.28 29.69 123.97 29.37 123.97 28.98C123.97 28.38 124.59 28.2 126.13 28.04Z" fill="#663FBA"/>
<path fill-rule="evenodd" clip-rule="evenodd" d="M16.0893 0.877548C16.1575 0.962868 16.1944 1.07049 16.1927 1.18108L16.1938 4.48536C16.1938 4.50766 16.1889 4.52966 16.1791 4.54958C16.1694 4.5695 16.1552 4.58674 16.1383 4.60012C16.121 4.6135 16.1008 4.62242 16.0795 4.62628C16.0582 4.63014 16.0366 4.62896 16.0159 4.62271C15.3866 4.43869 14.7406 4.32394 14.088 4.28084C12.6844 4.18749 11.2775 4.4054 9.96196 4.9194C8.64642 5.4337 7.4524 6.2322 6.46027 7.26168L0.263826 13.658C0.241939 13.6806 0.214003 13.6961 0.183764 13.702C0.153524 13.7083 0.122137 13.7047 0.0936254 13.6922C0.0654021 13.6797 0.0412136 13.6586 0.02451 13.6318C0.00780648 13.6051 -0.000548103 13.5736 2.7881e-05 13.5418V8.80131C2.7881e-05 8.73977 0.0115459 8.67883 0.0342973 8.62175C0.0570487 8.56497 0.0907488 8.51324 0.133084 8.46984L3.68431 4.80405C6.11784 2.29202 9.34134 0.693827 12.7777 0.517242C13.7957 0.46492 14.8161 0.53181 15.8197 0.716125C15.9254 0.735152 16.0207 0.792525 16.0893 0.877548ZM16.0306 11.6193C15.1963 11.4165 14.3421 11.3142 13.4854 11.3145L13.4911 11.3214C13.0842 11.319 12.681 11.4002 12.3049 11.5598C11.9288 11.7194 11.5869 11.9549 11.2995 12.2519L0.274005 23.633C0.252118 23.6556 0.22447 23.6711 0.193942 23.677C0.163703 23.6833 0.132316 23.6797 0.104092 23.6672C0.0755812 23.6547 0.0513854 23.6336 0.0346818 23.6069C0.0182663 23.5801 0.00963073 23.5486 0.0102067 23.5168V18.774C0.00991872 18.7121 0.0214367 18.6512 0.0444761 18.5938C0.0672275 18.5367 0.100921 18.485 0.143255 18.4416L8.60907 9.70238C9.68732 8.58936 11.072 7.81256 12.5828 7.60892C12.8817 7.56908 13.183 7.54887 13.4842 7.54857C14.275 7.54679 15.0638 7.63062 15.8377 7.79859C15.9402 7.82148 16.0315 7.88064 16.0963 7.96536C16.1611 8.05038 16.1951 8.15592 16.1928 8.26383V11.4855C16.1931 11.506 16.1885 11.5265 16.1801 11.5452C16.1715 11.5637 16.1588 11.58 16.1432 11.5931C16.1277 11.6059 16.1093 11.6151 16.0897 11.6196C16.0701 11.624 16.0499 11.624 16.0306 11.6193ZM10.7631 27.8202C10.7631 27.9305 10.8003 28.0372 10.8682 28.1222C10.9365 28.2073 11.0312 28.2649 11.1361 28.2854C12.138 28.4683 13.1566 28.5346 14.1727 28.4831C17.609 28.3051 20.8336 26.7072 23.266 24.196L26.8184 20.5305C26.9034 20.4417 26.9509 20.3224 26.9515 20.1976V15.4574C26.952 15.4253 26.9437 15.3941 26.9267 15.3673C26.9103 15.3406 26.8861 15.3194 26.8579 15.307C26.8293 15.2945 26.798 15.2909 26.7677 15.2972C26.7375 15.3031 26.7095 15.3183 26.6877 15.3409L20.4909 21.7375C19.4991 22.7679 18.3051 23.5676 16.9889 24.0822C15.6728 24.5968 14.2654 24.815 12.8611 24.7219C12.2126 24.6785 11.5707 24.5635 10.9457 24.3789C10.925 24.3726 10.9031 24.3717 10.8821 24.3756C10.8608 24.3798 10.8406 24.389 10.8233 24.4023C10.8063 24.4157 10.7922 24.433 10.7824 24.4529C10.7729 24.4728 10.7677 24.4948 10.7677 24.5171L10.7631 27.8202ZM10.9254 17.3891C11.7594 17.5898 12.613 17.69 13.4695 17.6879V17.682C13.8764 17.6849 14.2799 17.6041 14.6563 17.4441C15.0327 17.2845 15.3746 17.0491 15.662 16.7518L26.6878 5.36913C26.7094 5.34684 26.7373 5.33138 26.7675 5.32544C26.7978 5.31919 26.8292 5.32276 26.8577 5.33524C26.8859 5.34773 26.9101 5.36884 26.9268 5.39559C26.9435 5.42235 26.9521 5.45356 26.9513 5.48567V10.2282C26.951 10.3528 26.9032 10.4723 26.8182 10.5609L18.3524 19.2998C17.2742 20.414 15.8895 21.1896 14.3787 21.3932C14.078 21.4346 13.7751 21.4548 13.4718 21.4539C12.681 21.4554 11.8922 21.3718 11.118 21.2036C11.0158 21.1807 10.9245 21.1218 10.8597 21.0368C10.7949 20.9521 10.7609 20.8465 10.7632 20.7386V17.5214C10.7629 17.5009 10.7673 17.4807 10.7759 17.462C10.7845 17.4433 10.7972 17.4269 10.8128 17.4141C10.8286 17.4013 10.8468 17.3924 10.8663 17.3883C10.8859 17.3838 10.9061 17.3841 10.9254 17.3891Z" fill="#663FBA"/>
</svg>
