<svg width="57" height="26" viewBox="0 0 57 26" fill="none" xmlns="http://www.w3.org/2000/svg">
<path fill-rule="evenodd" clip-rule="evenodd" d="M14.9401 0.35058C15.0034 0.429806 15.0377 0.529737 15.0361 0.632427L15.0371 3.7007C15.0371 3.7214 15.0326 3.74183 15.0235 3.76032C15.0144 3.77882 15.0013 3.79483 14.9855 3.80725C14.9695 3.81968 14.9508 3.82796 14.931 3.83155C14.9112 3.83513 14.8911 3.83403 14.8719 3.82823C14.2875 3.65736 13.6877 3.5508 13.0817 3.51078C11.7783 3.4241 10.472 3.62644 9.25039 4.10373C8.02882 4.58129 6.92009 5.32275 5.99882 6.27871L0.244981 12.2182C0.224657 12.2391 0.198717 12.2535 0.170638 12.259C0.142558 12.2648 0.113413 12.2615 0.0869378 12.2499C0.0607305 12.2383 0.0382698 12.2187 0.0227593 12.1939C0.00724888 12.169 -0.000508953 12.1398 2.58895e-05 12.1102V7.70836C2.58895e-05 7.65122 0.0107212 7.59463 0.0318475 7.54163C0.0529738 7.4889 0.0842667 7.44087 0.123578 7.40057L3.42115 3.99662C5.68086 1.66402 8.6741 0.179983 11.865 0.0160102C12.8103 -0.0325742 13.7578 0.0295383 14.6897 0.200688C14.7879 0.218355 14.8764 0.27163 14.9401 0.35058ZM14.8856 10.325C14.1109 10.1368 13.3177 10.0418 12.5221 10.0421L12.5275 10.0484C12.1496 10.0462 11.7752 10.1216 11.426 10.2698C11.0767 10.4181 10.7593 10.6367 10.4924 10.9125L0.254433 21.4807C0.234109 21.5017 0.208436 21.516 0.180089 21.5215C0.15201 21.5273 0.122865 21.524 0.0966573 21.5124C0.0701826 21.5008 0.047715 21.4812 0.0322046 21.4564C0.0169615 21.4315 0.00894282 21.4023 0.00947766 21.3727V16.9687C0.00921024 16.9113 0.0199055 16.8547 0.0412992 16.8014C0.0624255 16.7484 0.093712 16.7004 0.133023 16.66L7.99414 8.54507C8.99537 7.51155 10.2811 6.79023 11.684 6.60114C11.9616 6.56415 12.2413 6.54538 12.521 6.5451C13.2554 6.54344 13.9879 6.62129 14.7064 6.77726C14.8016 6.79851 14.8864 6.85345 14.9466 6.93212C15.0067 7.01107 15.0383 7.10907 15.0361 7.20927V10.2008C15.0364 10.2199 15.0321 10.2389 15.0244 10.2563C15.0164 10.2734 15.0046 10.2886 14.9902 10.3007C14.9757 10.3126 14.9586 10.3212 14.9404 10.3253C14.9222 10.3294 14.9035 10.3294 14.8856 10.325ZM9.99433 25.3688C9.99433 25.4712 10.0288 25.5703 10.0919 25.6492C10.1553 25.7282 10.2433 25.7817 10.3406 25.8008C11.271 25.9705 12.2169 26.0321 13.1603 25.9843C16.3512 25.819 19.3455 24.3352 21.6042 22.0035L24.9028 18.5998C24.9817 18.5172 25.0258 18.4066 25.0264 18.2906V13.889C25.0269 13.8592 25.0191 13.8302 25.0034 13.8054C24.9881 13.7805 24.9657 13.7609 24.9394 13.7493C24.913 13.7377 24.8838 13.7344 24.8557 13.7402C24.8277 13.7457 24.8017 13.7598 24.7814 13.7808L19.0273 19.7205C18.1063 20.6773 16.9976 21.4199 15.7754 21.8977C14.5533 22.3756 13.2464 22.5782 11.9425 22.4918C11.3403 22.4515 10.7442 22.3447 10.1639 22.1732C10.1446 22.1674 10.1243 22.1666 10.1048 22.1702C10.085 22.1741 10.0663 22.1826 10.0502 22.195C10.0344 22.2075 10.0213 22.2235 10.0122 22.242C10.0034 22.2605 9.99861 22.2809 9.99861 22.3016L9.99433 25.3688ZM10.145 15.6828C10.9194 15.8691 11.7121 15.9621 12.5074 15.9602V15.9547C12.8853 15.9574 13.2599 15.8824 13.6094 15.7338C13.959 15.5856 14.2764 15.367 14.5433 15.0909L24.7815 4.52134C24.8016 4.50064 24.8275 4.48628 24.8556 4.48076C24.8837 4.47496 24.9128 4.47828 24.9393 4.48987C24.9655 4.50146 24.9879 4.52106 25.0035 4.54591C25.019 4.57075 25.027 4.59973 25.0262 4.62955V9.03334C25.0259 9.149 24.9815 9.25998 24.9026 9.34224L17.0415 17.4569C16.0403 18.4916 14.7545 19.2118 13.3516 19.4009C13.0725 19.4392 12.7911 19.458 12.5095 19.4572C11.7752 19.4586 11.0427 19.381 10.3239 19.2247C10.229 19.2035 10.1442 19.1488 10.084 19.0699C10.0239 18.9912 9.99229 18.8932 9.99443 18.793V15.8056C9.99416 15.7866 9.99817 15.7678 10.0062 15.7504C10.0142 15.733 10.026 15.7178 10.0404 15.706C10.0551 15.6941 10.072 15.6858 10.0902 15.682C10.1084 15.6778 10.1271 15.6781 10.145 15.6828Z" fill="#663FBA"/>
<path d="M32.817 5.475H30.585V12H31.872V9.705H32.853C34.356 9.705 35.688 9.3 35.688 7.635C35.688 5.664 34.158 5.475 32.817 5.475ZM31.872 6.483H32.844C33.546 6.483 34.365 6.573 34.365 7.644C34.365 8.508 33.735 8.706 32.934 8.706H31.872V6.483ZM39.1268 11.361V12H40.3688V7.158H39.1268V9.678C39.1268 10.443 38.9378 11.118 38.1188 11.118C37.4168 11.118 37.3268 10.596 37.3268 9.948V7.158H36.0848V10.218C36.0848 11.406 36.5528 12.117 37.7138 12.117C38.3078 12.117 38.8478 11.847 39.1268 11.361ZM41.4828 12H42.7248V11.388C43.0308 11.919 43.6158 12.117 44.1198 12.117C45.2718 12.117 46.2258 11.127 46.2258 9.579C46.2258 8.058 45.2898 7.05 44.1198 7.05C43.5078 7.05 42.9858 7.329 42.7248 7.779V5.475H41.4828V12ZM44.9208 9.588C44.9208 10.533 44.4528 11.163 43.8138 11.163C43.1298 11.163 42.6798 10.569 42.6798 9.579C42.6798 8.607 43.1298 8.004 43.8138 8.004C44.4528 8.004 44.9208 8.643 44.9208 9.588ZM48.2707 12V5.475H47.0287V12H48.2707ZM50.6262 5.475H49.3842V6.627H50.6262V5.475ZM50.6262 7.158H49.3842V12H50.6262V7.158ZM56.0506 8.814C55.8886 7.608 54.8626 7.05 53.8546 7.05C52.4056 7.05 51.4246 8.112 51.4246 9.588C51.4246 11.046 52.3516 12.117 53.8006 12.117C54.7996 12.117 55.8076 11.676 56.0956 10.353H54.9076C54.7456 10.938 54.2866 11.154 53.8636 11.154C53.1796 11.154 52.6936 10.587 52.6936 9.57C52.6936 8.562 53.2066 8.013 53.8546 8.013C54.3226 8.013 54.7726 8.355 54.8626 8.814H56.0506ZM30.585 14.475V21H33.231C34.572 21 35.733 20.487 35.733 19.074C35.733 18.183 35.256 17.787 34.761 17.553C35.103 17.328 35.499 16.788 35.499 16.176C35.499 14.826 34.275 14.475 33.123 14.475H30.585ZM31.872 17.166V15.483H33.204C33.798 15.483 34.176 15.789 34.176 16.302C34.176 16.869 33.807 17.166 33.204 17.166H31.872ZM31.872 19.992V18.138H33.24C34.041 18.138 34.419 18.471 34.419 19.074C34.419 19.668 34.041 19.992 33.294 19.992H31.872ZM37.6283 18.921H41.2013C41.2553 17.211 40.3193 16.05 38.8253 16.05C37.3943 16.05 36.3953 17.121 36.3953 18.561C36.3953 19.956 37.3043 21.117 38.8613 21.117C40.1753 21.117 40.8863 20.316 41.1473 19.596H39.8693C39.6173 20.019 39.2303 20.154 38.8523 20.154C38.2673 20.154 37.6913 19.749 37.6283 18.921ZM37.6463 18.066C37.7453 17.256 38.3483 16.959 38.8163 16.959C39.3383 16.959 39.9143 17.247 39.9413 18.066H37.6463ZM42.1724 14.844V16.158H41.4884V17.013H42.1724V19.695C42.1724 20.658 42.3884 21 43.4954 21H44.4044V20.109H44.0264C43.5854 20.109 43.4144 20.01 43.4144 19.515V17.013H44.4224V16.158H43.4144V14.844H42.1724ZM46.7662 21.117C47.4952 21.117 48.0082 20.901 48.3502 20.397C48.3682 20.631 48.3952 20.847 48.4312 21H49.5742C49.4842 20.595 49.4302 20.163 49.4302 19.398C49.4302 18.957 49.4482 18.318 49.4482 18.165C49.4482 16.527 48.5122 16.032 47.3602 16.032C46.1182 16.032 45.3262 16.734 45.2362 17.688H46.3972C46.4242 17.157 46.8202 16.905 47.2972 16.905C47.8012 16.905 48.2062 17.166 48.2062 17.913V17.994C46.3072 18.21 45.0202 18.552 45.0202 19.695C45.0202 20.577 45.8392 21.117 46.7662 21.117ZM48.2422 18.786V19.146C48.2422 19.848 47.9092 20.271 47.1352 20.271C46.5772 20.271 46.2982 19.983 46.2982 19.632C46.2982 19.092 46.8562 18.93 48.2422 18.786Z" fill="#0C0024"/>
</svg>
