<svg width="27" height="28" viewBox="0 0 27 28" fill="none" xmlns="http://www.w3.org/2000/svg">
<path fill-rule="evenodd" clip-rule="evenodd" d="M16.0893 0.37767C16.1575 0.46299 16.1944 0.570608 16.1927 0.681197L16.1938 3.98549C16.1938 4.00778 16.1889 4.02978 16.1791 4.0497C16.1694 4.06962 16.1552 4.08686 16.1383 4.10024C16.121 4.11362 16.1008 4.12254 16.0795 4.1264C16.0582 4.13027 16.0366 4.12908 16.0159 4.12283C15.3866 3.93882 14.7406 3.82407 14.088 3.78096C12.6844 3.68761 11.2775 3.90552 9.96196 4.41952C8.64642 4.93382 7.4524 5.73232 6.46027 6.76181L0.263826 13.1581C0.241939 13.1807 0.214003 13.1962 0.183764 13.2021C0.153524 13.2084 0.122137 13.2048 0.0936254 13.1923C0.0654021 13.1798 0.0412136 13.1587 0.02451 13.132C0.00780648 13.1052 -0.000548103 13.0737 2.7881e-05 13.0419V8.30143C2.7881e-05 8.23989 0.0115459 8.17895 0.0342973 8.12187C0.0570487 8.06509 0.0907488 8.01336 0.133084 7.96996L3.68431 4.30418C6.11784 1.79214 9.34134 0.193949 12.7777 0.0173638C13.7957 -0.0349578 14.8161 0.0319326 15.8197 0.216248C15.9254 0.235274 16.0207 0.292647 16.0893 0.37767ZM16.0306 11.1194C15.1963 10.9166 14.3421 10.8144 13.4854 10.8147L13.4911 10.8215C13.0842 10.8191 12.681 10.9003 12.3049 11.0599C11.9288 11.2196 11.5869 11.455 11.2995 11.752L0.274005 23.1332C0.252118 23.1557 0.22447 23.1712 0.193942 23.1771C0.163703 23.1834 0.132316 23.1798 0.104092 23.1673C0.0755812 23.1549 0.0513854 23.1337 0.0346818 23.107C0.0182663 23.0802 0.00963073 23.0487 0.0102067 23.0169V18.2741C0.00991872 18.2122 0.0214367 18.1513 0.0444761 18.0939C0.0672275 18.0368 0.100921 17.9851 0.143255 17.9417L8.60907 9.20251C9.68732 8.08948 11.072 7.31268 12.5828 7.10904C12.8817 7.06921 13.183 7.04899 13.4842 7.04869C14.275 7.04691 15.0638 7.13074 15.8377 7.29871C15.9402 7.3216 16.0315 7.38076 16.0963 7.46548C16.1611 7.55051 16.1951 7.65604 16.1928 7.76396V10.9856C16.1931 11.0061 16.1885 11.0266 16.1801 11.0454C16.1715 11.0638 16.1588 11.0801 16.1432 11.0932C16.1277 11.106 16.1093 11.1152 16.0897 11.1197C16.0701 11.1241 16.0499 11.1241 16.0306 11.1194ZM10.7631 27.3203C10.7631 27.4306 10.8003 27.5373 10.8682 27.6224C10.9365 27.7074 11.0312 27.7651 11.1361 27.7856C12.138 27.9684 13.1566 28.0347 14.1727 27.9833C17.609 27.8052 20.8336 26.2073 23.266 23.6962L26.8184 20.0307C26.9034 19.9418 26.9509 19.8226 26.9515 19.6977V14.9575C26.952 14.9254 26.9437 14.8942 26.9267 14.8674C26.9103 14.8407 26.8861 14.8196 26.8579 14.8071C26.8293 14.7946 26.798 14.791 26.7677 14.7973C26.7375 14.8032 26.7095 14.8184 26.6877 14.841L20.4909 21.2376C19.4991 22.268 18.3051 23.0677 16.9889 23.5823C15.6728 24.0969 14.2654 24.3151 12.8611 24.222C12.2126 24.1786 11.5707 24.0636 10.9457 23.879C10.925 23.8727 10.9031 23.8718 10.8821 23.8757C10.8608 23.8799 10.8406 23.8891 10.8233 23.9025C10.8063 23.9158 10.7922 23.9331 10.7824 23.953C10.7729 23.9729 10.7677 23.9949 10.7677 24.0172L10.7631 27.3203ZM10.9254 16.8893C11.7594 17.0899 12.613 17.1901 13.4695 17.188V17.1821C13.8764 17.1851 14.2799 17.1042 14.6563 16.9443C15.0327 16.7846 15.3746 16.5492 15.662 16.2519L26.6878 4.86926C26.7094 4.84696 26.7373 4.8315 26.7675 4.82556C26.7978 4.81931 26.8292 4.82288 26.8577 4.83537C26.8859 4.84785 26.9101 4.86896 26.9268 4.89571C26.9435 4.92247 26.9521 4.95368 26.9513 4.98579V9.72833C26.951 9.85289 26.9032 9.9724 26.8182 10.061L18.3524 18.7999C17.2742 19.9141 15.8895 20.6897 14.3787 20.8934C14.078 20.9347 13.7751 20.9549 13.4718 20.954C12.681 20.9555 11.8922 20.872 11.118 20.7037C11.0158 20.6808 10.9245 20.6219 10.8597 20.5369C10.7949 20.4522 10.7609 20.3467 10.7632 20.2387V17.0216C10.7629 17.001 10.7673 16.9808 10.7759 16.9621C10.7845 16.9434 10.7972 16.927 10.8128 16.9142C10.8286 16.9015 10.8468 16.8925 10.8663 16.8884C10.8859 16.8839 10.9061 16.8842 10.9254 16.8893Z" fill="#663FBA"/>
</svg>
