<svg width="95" height="149" viewBox="0 0 95 149" fill="none" xmlns="http://www.w3.org/2000/svg">
<g opacity="0.7">
<path opacity="0.7" fill-rule="evenodd" clip-rule="evenodd" d="M10.0473 43.6163C15.0857 43.3546 21.3168 46.2989 21.8544 51.7818C22.2448 55.7657 22.1239 59.7381 22.7282 63.716C23.2114 66.8951 24.2334 69.947 25.6272 72.8429C26.9674 75.6276 29.7475 77.9981 30.4706 80.973C30.9315 82.8686 30.6735 85.5351 30.038 87.3893C29.265 89.6437 29.6758 89.4655 31.2159 91.3571C34.2338 95.0641 36.9512 98.8655 38.8729 103.293C41.6409 109.67 43.4556 117.124 42.4283 124.104C42.2976 124.991 42.1426 128.172 40.9234 128.394C39.5617 128.643 40.1984 126.824 40.2711 126.236C40.7344 122.486 41.1461 119.208 40.5872 115.4C38.4307 100.706 27.9014 91.0247 21.0455 78.5536C20.6686 77.9105 19.8729 76.379 19.3197 75.3687C18.4463 73.7736 17.5682 70.7385 16.3859 69.5558C14.1591 67.3276 16.2063 71.807 16.6402 72.6622C17.1888 73.7439 17.7923 74.8935 18.3545 75.8414C20.9268 80.235 23.7979 85.031 26.4546 89.56C14.9649 92.1808 6.87313 78.3521 3.78982 69.2605C1.24942 61.77 -1.79007 44.2572 10.0473 43.6163Z" fill="#B195EC" fill-opacity="0.4"/>
<path opacity="0.7" fill-rule="evenodd" clip-rule="evenodd" d="M77.5769 29.7062C69.1542 30.3752 63.747 35.9393 61.23 43.7217C59.8734 47.9157 59.7179 52.2242 58.964 56.5342C57.8299 63.0187 55.3899 67.9327 50.6211 72.5525C49.1441 73.9833 48.0556 75.4523 47.2819 77.0239C45.7459 78.5931 44.4088 80.3688 43.4265 82.5398C42.1717 85.3124 41.8167 88.6389 43.2655 91.4031C43.655 92.1462 44.6267 93.6379 45.6338 94.3156C41.8632 102.355 39.79 111.16 40.0237 119.954C40.1649 125.263 40.4238 130.573 40.7257 135.875C40.8071 137.299 41.2701 139.65 41.9656 137.262C42.6022 135.078 41.8039 131.65 41.7301 129.369C41.3707 118.255 41.0634 108.15 45.6332 97.766C46.1124 96.6776 46.6205 95.598 47.1497 94.5271C47.1807 94.5091 47.2096 94.4873 47.2387 94.4662C47.2589 94.4817 47.2772 94.4985 47.2974 94.5138C47.3312 94.4534 47.3775 94.3816 47.4315 94.3013C47.5832 94.1446 47.7158 93.9464 47.8418 93.7253C48.2471 93.1629 48.7058 92.5023 48.7083 92.1406C48.7083 92.1378 48.7068 92.1334 48.7068 92.1306C51.5357 87.5074 54.776 83.1389 58.0857 78.8559C58.0609 78.887 61.6757 73.9596 61.1167 76.6846C60.8473 77.9978 58.1884 80.4985 57.1145 81.8895C54.739 84.984 51.9495 88.9049 49.6313 92.6964C49.3194 92.8759 48.8787 93.757 48.56 94.4133C48.384 94.7458 48.2198 95.0811 48.0584 95.3732C56.2722 98.0901 62.6617 92.6174 67.0186 86.252C67.0239 86.2446 67.0285 86.2368 67.0335 86.2293C68.3594 84.4704 69.7175 82.724 71.4143 81.3337C74.2451 79.0136 77.2768 78.6043 80.6144 77.4625C89.7165 74.349 93.5864 62.5393 94.8155 53.7766C96.2022 43.8906 89.4192 28.7314 77.5769 29.7062Z" fill="#9775E0"/>
<path opacity="0.7" fill-rule="evenodd" clip-rule="evenodd" d="M60.9404 2.02168C52.2958 11.0289 48.1195 23.5221 44.8126 35.2669C41.1191 48.3847 38.6796 61.7049 38.5859 75.3434C38.5246 84.304 38.2811 93.3205 38.8035 102.271C38.9888 105.449 39.3053 108.634 39.8085 111.778C39.85 112.036 40.9759 119.057 42.0532 117.421C42.6659 116.491 40.8991 110.138 40.7656 109.08C40.0146 103.12 39.8401 97.1165 39.8767 91.1136C39.9369 81.2302 39.6459 71.3973 40.6465 61.5502C40.7956 60.0799 40.9137 58.5357 41.2625 57.0974C41.6328 55.5683 41.1611 56.2358 42.3676 55.6305C43.5398 55.042 44.9883 55.126 46.2046 54.3877C51.029 51.459 53.4969 43.936 55.4177 39C57.6147 33.3553 58.9499 27.3361 60.0163 21.3959C60.7994 17.0315 61.3593 12.6936 61.6761 8.27296C61.7759 6.87973 61.7819 5.4228 62.0554 4.05288C62.129 3.68335 62.4987 3.02965 62.4853 2.7024C62.4569 2.0098 62.0393 1.60247 62.0051 1.0205C61.6433 1.34653 61.288 1.6805 60.9404 2.02168Z" fill="#9775E0"/>
<path opacity="0.7" fill-rule="evenodd" clip-rule="evenodd" d="M13.8047 122.029C13.8047 136.925 25.8664 149 40.7452 149C55.624 149 67.6856 136.925 67.6856 122.029" fill="#9775E0"/>
<path opacity="0.7" fill-rule="evenodd" clip-rule="evenodd" d="M42.9079 122.115H41.4844C41.5831 120.327 41.7136 118.542 42.0122 116.774C43.1542 110.011 46.7248 100.079 54.5562 98.9815C54.8451 98.9406 55.9078 98.9337 57.1952 99.0093C57.8053 98.668 58.4887 98.4616 59.2088 98.4141C65.8764 97.922 73.3226 103.307 76.5388 108.911C79.1315 113.43 78.6947 119.363 77.0933 124.164C76.0209 127.377 73.6804 131.959 69.7774 132.004C64.8942 132.06 64.6587 126.018 64.5642 122.485C64.4387 117.789 63.846 113.698 60.1498 110.497C59.2884 109.752 58.3468 109.096 57.4766 108.36C56.1141 107.209 54.6083 106.031 54.4328 104.127C54.1905 101.5 55.6717 101.027 57.9333 101.515C58.3188 101.598 62.2023 103.343 61.6273 101.964C61.4518 101.542 60.8106 101.209 60.0013 100.958C57.9072 100.73 55.4098 100.466 54.6916 100.624C46.9432 102.326 43.9264 113.071 43.1253 119.898C43.0388 120.635 42.9689 121.374 42.9079 122.115Z" fill="#B195EC" fill-opacity="0.4"/>
</g>
</svg>
