<svg width="160" height="56" viewBox="0 0 160 56" fill="none" xmlns="http://www.w3.org/2000/svg">
<mask id="path-1-outside-1_27068_58144" maskUnits="userSpaceOnUse" x="-2.46368" y="-2.64032" width="164.571" height="61.8494" fill="black">
<rect fill="white" x="-2.46368" y="-2.64032" width="164.571" height="61.8494"/>
<path d="M20.4743 47.1555C21.6749 47.2153 22.7852 47.0667 23.805 46.7095C24.8453 46.3506 25.7477 45.8285 26.5121 45.1433C27.2971 44.4564 27.9254 43.6285 28.3971 42.6598C28.8892 41.6893 29.1875 40.6224 29.2918 39.4592C29.3943 38.2754 29.2852 37.0278 28.9643 35.7162C28.664 34.4028 28.1128 33.0496 27.3107 31.6565C26.6067 30.4403 26.1311 29.2453 25.8842 28.0715C25.6372 26.8977 25.6104 25.7665 25.8037 24.6779C24.6199 24.5754 23.4229 24.5565 22.2126 24.6211C21.0209 24.6636 19.8605 24.8269 18.7312 25.1112C17.6206 25.3732 16.5727 25.7638 15.5876 26.2828C14.623 26.8 13.7843 27.4607 13.0715 28.265C12.4724 28.9563 12.0731 29.692 11.8734 30.472C11.6924 31.2298 11.663 31.9538 11.7852 32.6438C11.9074 33.3338 12.1572 33.9509 12.5345 34.495C12.9101 35.0186 13.3661 35.4012 13.9024 35.6428L12.5809 36.4385C12.1478 36.4352 11.6724 36.3016 11.1547 36.0378C10.6369 35.7739 10.1316 35.4162 9.63871 34.9647C9.144 34.4927 8.69505 33.9549 8.29188 33.3513C7.90736 32.7254 7.6122 32.0608 7.4064 31.3575C7.22105 30.6524 7.15753 29.9263 7.21583 29.1792C7.29279 28.4099 7.55562 27.645 8.00433 26.8844C8.5801 25.9272 9.31962 25.1927 10.2229 24.6808C11.1448 24.1467 12.1518 23.7598 13.2437 23.52C14.3357 23.2802 15.4784 23.1493 16.6718 23.1273C17.8635 23.0849 19.0383 23.0852 20.1962 23.1281C21.3541 23.1711 22.4506 23.2194 23.4858 23.2731C24.5192 23.3064 25.4227 23.2686 26.1964 23.1597C26.5249 22.2035 27.0038 21.3166 27.633 20.499C28.2809 19.6591 29.0417 18.933 29.9156 18.3207C30.7877 17.688 31.7737 17.1792 32.8736 16.7944C33.9716 16.3892 35.1445 16.132 36.3922 16.0229C37.7421 15.9048 38.8894 16.062 39.8341 16.4946C40.7787 16.9272 41.4998 17.5133 41.9974 18.253C42.5153 18.9908 42.8052 19.8311 42.8671 20.7737C42.9272 21.6959 42.7587 22.5969 42.3616 23.4766C41.985 24.3546 41.3651 25.1611 40.502 25.8961C39.6575 26.6089 38.5786 27.1155 37.2653 27.4158C36.0337 27.7091 35.0159 27.7363 34.2118 27.4975C33.4282 27.2569 32.8589 26.8739 32.5038 26.3485C32.1486 25.8231 32.0216 25.1953 32.1226 24.4652C32.2236 23.735 32.5625 23.0149 33.1393 22.3049C32.8805 22.41 32.592 22.528 32.2737 22.6589C31.9963 22.7862 31.6891 22.9264 31.3522 23.0796C31.0134 23.2123 30.6542 23.3467 30.2745 23.483C30.1523 24.4417 30.2222 25.4764 30.4843 26.587C30.7668 27.6959 31.3018 28.865 32.0895 30.0945C33.0917 31.6556 33.7444 33.2267 34.0476 34.8078C34.3713 36.387 34.3894 37.8899 34.102 39.3165C33.8351 40.7414 33.3018 42.0658 32.502 43.29C31.7228 44.5123 30.7219 45.5582 29.4996 46.4277C28.2977 47.2954 26.9116 47.9422 25.3413 48.3682C23.7932 48.8127 22.1272 48.9688 20.3431 48.8364C18.4773 48.7111 16.9955 48.2636 15.8976 47.4941C14.8221 46.7432 14.0723 45.8298 13.6485 44.7539C13.2264 43.6985 13.0964 42.5661 13.2585 41.3565C13.4392 40.1247 13.8437 38.9764 14.4719 37.9116C15.1205 36.8449 15.9694 35.9463 17.0184 35.2156C18.086 34.4627 19.2948 34.0272 20.6447 33.9091C21.2583 33.8554 21.7311 33.9583 22.0629 34.2178C22.4134 34.4551 22.6279 34.7867 22.7064 35.2126C22.7849 35.6385 22.7536 36.105 22.6124 36.612C22.4695 37.0985 22.2225 37.5735 21.8715 38.0371C21.5409 38.4988 21.1223 38.8961 20.6155 39.229C20.107 39.5414 19.5357 39.7253 18.9017 39.7808C18.3085 39.8327 17.8713 39.6648 17.5901 39.2772C17.3089 38.8896 17.2019 38.3735 17.2691 37.7287C16.6264 38.1559 16.1255 38.6737 15.7666 39.2822C15.4076 39.8907 15.1861 40.5387 15.102 41.2262C15.0178 41.9136 15.0564 42.5904 15.2178 43.2564C15.4013 43.9411 15.7133 44.563 16.1539 45.1221C16.6148 45.6795 17.2016 46.1434 17.9141 46.5139C18.6266 46.8843 19.48 47.0982 20.4743 47.1555ZM36.1782 17.4637C35.6259 17.512 35.0715 17.6532 34.5149 17.8874C33.977 18.0994 33.4565 18.3922 32.9533 18.766C32.4706 19.138 32.0257 19.5891 31.6187 20.1193C31.2304 20.6273 30.9198 21.2007 30.6872 21.8393C31.5434 21.4965 32.3374 21.1488 33.0691 20.7962C33.799 20.4232 34.4192 20.0907 34.9295 19.7988C35.5385 19.457 36.0861 19.1205 36.5724 18.7894L37.212 20.0937C36.6652 20.2034 36.1513 20.4544 35.6704 20.8469C35.2081 21.2171 34.8237 21.6526 34.5172 22.1535C34.2088 22.6338 33.9952 23.1369 33.8763 23.6625C33.7761 24.1659 33.795 24.6177 33.9331 25.0178C34.0916 25.4161 34.3954 25.709 34.8446 25.8964C35.2921 26.0634 35.9306 26.059 36.7602 25.8834C37.7312 25.6748 38.5336 25.3057 39.1674 24.7763C39.8217 24.245 40.2958 23.6573 40.5899 23.0133C40.8821 22.3489 41.0089 21.6782 40.9703 21.0015C40.9504 20.3025 40.7517 19.681 40.3744 19.1369C40.0157 18.5706 39.4828 18.1329 38.7756 17.8238C38.0666 17.4942 37.2008 17.3742 36.1782 17.4637Z"/>
<path d="M45.5739 26.9363C46.3102 26.8718 46.9381 26.9818 47.4577 27.2661C47.9958 27.5282 48.4016 27.9255 48.6749 28.458C48.9482 28.9906 49.0966 29.6268 49.1201 30.3667C49.1436 31.1066 49.0284 31.9101 48.7745 32.7774C48.4905 33.7709 48.1157 34.6693 47.6501 35.4726C47.1827 36.2554 46.645 36.9414 46.0371 37.5304C45.4495 38.1177 44.8001 38.5867 44.0889 38.9374C43.3963 39.266 42.6614 39.4642 41.8841 39.5322C41.1274 39.5984 40.4901 39.4996 39.9724 39.2358C39.4529 38.9515 39.0565 38.543 38.7832 38.0105C38.5099 37.4779 38.3717 36.8408 38.3686 36.0991C38.3433 35.3388 38.4576 34.525 38.7115 33.6578C39.3187 31.6467 40.2108 30.0641 41.3876 28.9101C42.5831 27.7338 43.9786 27.0758 45.5739 26.9363ZM45.3411 33.1087C45.531 32.4531 45.6725 31.8328 45.7656 31.2476C45.8791 30.6605 45.9376 30.1505 45.9409 29.7174C45.9424 29.2638 45.8907 28.9077 45.7856 28.649C45.6805 28.3902 45.5053 28.2716 45.2598 28.2931C45.0144 28.3145 44.7499 28.4716 44.4663 28.7644C44.1828 29.0571 43.8971 29.4428 43.6092 29.9214C43.34 30.3777 43.077 30.9057 42.8203 31.5052C42.5636 32.1048 42.3403 32.7323 42.1504 33.3878C41.9586 34.0229 41.806 34.6339 41.6924 35.2209C41.5771 35.7875 41.5178 36.2873 41.5145 36.7204C41.5316 37.1517 41.6029 37.4958 41.7285 37.7528C41.8522 37.9893 42.0368 38.0968 42.2822 38.0753C42.5277 38.0538 42.7828 37.9079 43.0477 37.6374C43.3312 37.3446 43.6076 36.9701 43.8768 36.5137C44.146 36.0574 44.4099 35.5397 44.6684 34.9606C44.9251 34.361 45.1493 33.7437 45.3411 33.1087Z"/>
<path d="M61.0319 34.3636C60.6154 35.4924 59.8102 36.4182 58.6162 37.1409C57.4427 37.8619 56.0174 38.2957 54.3402 38.4425C53.4811 38.5176 52.7314 38.4286 52.091 38.1755C51.4692 37.9002 50.9705 37.5007 50.595 36.9771C50.2194 36.4535 49.9892 35.8244 49.9043 35.0899C49.8176 34.3349 49.9012 33.5238 50.1551 32.6566C50.7792 30.6028 51.6908 29.0082 52.8899 27.8728C54.0872 26.717 55.4733 26.0702 57.0482 25.9324C57.7027 25.8751 58.2377 25.9829 58.6531 26.2557C59.0668 26.508 59.3658 26.8632 59.5501 27.3211C59.7345 27.779 59.8014 28.309 59.7511 28.911C59.7194 29.4909 59.5845 30.0695 59.3465 30.6468C59.1253 31.1814 58.8859 31.6248 58.6282 31.9771C58.3704 32.3294 58.1176 32.6195 57.8696 32.8473C57.6198 33.0546 57.3758 33.2099 57.1375 33.3132C56.9179 33.3942 56.7365 33.441 56.5933 33.4536C56.0206 33.5037 55.6225 33.3118 55.3991 32.8779C55.1961 32.4423 55.1887 31.8864 55.3769 31.2105C55.6175 30.4268 55.9653 29.809 56.4204 29.357C56.8959 28.9032 57.4405 28.6495 58.0541 28.5958C58.1155 28.5904 58.1768 28.5851 58.2382 28.5797C58.32 28.5725 58.3822 28.5774 58.4249 28.5943C58.4505 28.1798 58.3596 27.8477 58.1523 27.5979C57.9654 27.3464 57.6674 27.2385 57.2583 27.2742C56.8493 27.31 56.463 27.4881 56.0994 27.8084C55.7359 28.1288 55.3897 28.5301 55.0609 29.0122C54.7525 29.4926 54.47 30.0326 54.2133 30.6321C53.9753 31.2094 53.7791 31.7934 53.6246 32.3839C53.2012 33.9049 53.2152 35.0063 53.6664 35.6882C54.1177 36.37 54.8955 36.6627 56 36.566C56.4295 36.5284 56.863 36.4184 57.3004 36.2358C57.7583 36.0515 58.182 35.829 58.5714 35.5682C58.9794 35.2852 59.3439 34.9751 59.6647 34.6378C59.9838 34.2802 60.2406 33.9176 60.4352 33.5502L61.0319 34.3636Z"/>
<path d="M67.0989 33.8329C66.9373 34.3416 66.6912 34.8269 66.3606 35.2886C66.0487 35.7281 65.6812 36.1209 65.258 36.4671C64.8554 36.8115 64.4064 37.0981 63.9112 37.3269C63.4364 37.5539 62.9536 37.6889 62.4627 37.7318C61.4605 37.8195 60.7364 37.5531 60.2906 36.9326C59.8447 36.3121 59.8313 35.3343 60.2503 33.9992C60.3311 33.7448 60.4523 33.3633 60.6139 32.8545C60.7941 32.3235 60.9726 31.772 61.1493 31.2001C61.326 30.6282 61.4849 30.0887 61.626 29.5817C61.7876 29.0729 61.9097 28.7016 61.9922 28.4677C62.1201 28.0443 62.1119 27.7152 61.9677 27.4805C61.8217 27.2254 61.5135 27.1184 61.0431 27.1595L60.7363 27.1864L61.2652 25.8108C61.4252 25.7555 61.5955 25.6994 61.776 25.6424C61.936 25.5872 62.1072 25.5413 62.2895 25.5047C62.4922 25.4664 62.6959 25.4383 62.9004 25.4204C64.0662 25.3184 64.821 25.5821 65.1646 26.2116C65.5064 26.8206 65.4602 27.8242 65.0261 29.2224C64.9302 29.5399 64.793 29.9745 64.6146 30.5259C64.4566 31.0756 64.2883 31.6262 64.1099 32.1776C63.9181 32.8127 63.7179 33.4691 63.5093 34.1469C63.3815 34.5703 63.427 34.8548 63.6458 35.0006C63.8647 35.1463 64.1453 35.1733 64.4876 35.0815C64.8486 34.9675 65.2202 34.7392 65.6024 34.3966C65.9847 34.054 66.2846 33.595 66.5021 33.0194L67.0989 33.8329ZM67.3647 22.0311C67.4095 22.5424 67.2639 22.9983 66.9279 23.3986C66.592 23.799 66.1683 24.0215 65.657 24.0663C65.1252 24.1128 64.6591 23.9681 64.2588 23.6321C63.8584 23.2962 63.6359 22.8726 63.5911 22.3612C63.5464 21.8499 63.692 21.394 64.0279 20.9937C64.3639 20.5933 64.7978 20.3699 65.3295 20.3233C65.8409 20.2786 66.2967 20.4242 66.6971 20.7602C67.0975 21.0961 67.32 21.5197 67.3647 22.0311Z"/>
<path d="M73.7378 24.4722C74.5355 24.4024 75.1639 24.636 75.6231 25.1729C75.672 25.0244 75.7021 24.8981 75.7136 24.794C75.7438 24.6677 75.7775 24.5823 75.8149 24.5378L79.1897 24.2426C79.1444 24.432 79.0494 24.7598 78.9047 25.2259C78.76 25.6919 78.5909 26.2323 78.3973 26.8469C78.202 27.4411 78 28.077 77.7914 28.7548C77.581 29.4121 77.3781 30.0379 77.1827 30.632C77.0079 31.2244 76.8472 31.7434 76.7007 32.189C76.5728 32.6124 76.4938 32.8872 76.4637 33.0135C76.334 33.4165 76.3786 33.6908 76.5975 33.8365C76.8163 33.9823 77.0969 34.0092 77.4393 33.9175C77.7816 33.8257 78.1439 33.6085 78.5261 33.2659C78.9288 32.9215 79.2389 32.4616 79.4565 31.8861L80.0532 32.6995C79.8916 33.2083 79.6455 33.6935 79.315 34.1552C79.003 34.5947 78.6355 34.9876 78.2124 35.3337C77.8097 35.6781 77.3608 35.9647 76.8655 36.1935C76.3908 36.4205 75.9079 36.5555 75.4171 36.5985C74.783 36.6539 74.2498 36.5666 73.8175 36.3365C73.4056 36.1046 73.1253 35.7273 72.9765 35.2044C72.4263 35.7472 71.8569 36.1886 71.2684 36.5286C70.7003 36.8669 70.1401 37.0602 69.5879 37.1085C68.8924 37.1693 68.3063 37.066 67.8295 36.7986C67.3714 36.5089 67.0261 36.096 66.7937 35.5599C66.5613 35.0237 66.4538 34.3839 66.4712 33.6405C66.4664 32.8783 66.6113 32.0618 66.9061 31.1911C67.6031 29.0279 68.5631 27.3981 69.7863 26.3019C71.0094 25.2056 72.3266 24.5957 73.7378 24.4722ZM75.2062 26.4151C74.9971 26.1448 74.688 26.0276 74.2789 26.0634C73.8903 26.0974 73.5293 26.2114 73.1959 26.4054C72.8812 26.5772 72.5652 26.8522 72.2479 27.2303C71.9493 27.5862 71.6503 28.0555 71.3509 28.6382C71.0515 29.2208 70.7424 29.928 70.4236 30.7597C70.1687 31.3796 69.9724 31.9636 69.8349 32.5115C69.716 33.0371 69.6633 33.4951 69.6769 33.8855C69.6904 34.2759 69.7786 34.5774 69.9415 34.7898C70.1248 35.0005 70.3903 35.0906 70.738 35.0602C71.0857 35.0298 71.4551 34.8944 71.8463 34.6541C72.2375 34.4138 72.6215 34.0916 72.9984 33.6877C73.0365 33.4164 73.1052 33.1425 73.2047 32.8659L75.2062 26.4151Z"/>
<path d="M86.1547 32.1657C85.9931 32.6745 85.747 33.1597 85.4164 33.6214C85.1045 34.0609 84.737 34.4538 84.3139 34.7999C83.9112 35.1443 83.4622 35.4309 82.967 35.6597C82.4922 35.8867 82.0094 36.0217 81.5185 36.0647C81.0276 36.1076 80.591 36.0634 80.2085 35.932C79.8465 35.7988 79.5591 35.5766 79.3464 35.2654C79.1337 34.9543 79.0161 34.5524 78.9936 34.0597C78.9711 33.567 79.0651 32.9921 79.2755 32.3347C79.3225 32.1657 79.4362 31.8157 79.6164 31.2847C79.7949 30.7332 79.9969 30.0973 80.2224 29.3768C80.4461 28.6359 80.6867 27.8523 80.9441 27.026C81.2016 26.1997 81.4431 25.4263 81.6686 24.7058C81.8923 23.9649 82.0841 23.3298 82.2439 22.8006C82.4241 22.2696 82.5387 21.9298 82.5875 21.7813C82.7358 21.3561 82.7378 21.0262 82.5936 20.7915C82.4477 20.5363 82.1395 20.4293 81.669 20.4705L81.3622 20.4973L81.8911 19.1217C82.0529 19.0869 82.2241 19.041 82.4046 18.984C82.5646 18.9288 82.7358 18.8829 82.9181 18.8464C83.1004 18.8098 83.304 18.7817 83.529 18.762C84.6949 18.66 85.4487 18.9135 85.7905 19.5225C86.1323 20.1315 86.0768 21.1462 85.624 22.5667C85.577 22.7357 85.4971 23.0003 85.3843 23.3606C85.2716 23.7208 85.1344 24.1553 84.9728 24.6641C84.8299 25.1506 84.6608 25.6909 84.4654 26.2851C84.2888 26.857 84.1121 27.4289 83.9354 28.0009C83.5182 29.3564 83.0614 30.8494 82.5651 32.4797C82.4373 32.9031 82.4828 33.1877 82.7016 33.3334C82.9205 33.4791 83.2011 33.5061 83.5434 33.4143C83.884 33.3021 84.2454 33.0747 84.6276 32.7321C85.0098 32.3895 85.3199 31.9296 85.558 31.3523L86.1547 32.1657Z"/>
<path d="M131.474 8.91C130.352 11.1721 129.275 13.348 128.242 15.4375C127.804 16.3208 127.348 17.2366 126.875 18.1849C126.422 19.1313 125.967 20.0573 125.51 20.9629C125.072 21.8462 124.652 22.6971 124.25 23.5155C123.866 24.3116 123.525 25.0112 123.228 25.6143C122.842 26.39 122.456 27.1555 122.068 27.9107C121.681 28.666 121.322 29.3878 120.99 30.0763C120.679 30.763 120.415 31.3941 120.198 31.9696C119.98 32.5451 119.848 33.041 119.802 33.4572C119.753 33.8325 119.839 34.1135 120.061 34.3002C120.304 34.485 120.579 34.564 120.886 34.5372C121.091 34.5193 121.331 34.4467 121.609 34.3194C121.886 34.192 122.148 34.0043 122.394 33.756C122.663 33.5264 122.905 33.2373 123.122 32.8885C123.341 32.5603 123.514 32.1844 123.642 31.7611L124.542 32.8571C124.392 33.5091 124.158 34.1273 123.838 34.7117C123.518 35.2962 123.131 35.8144 122.676 36.2664C122.243 36.7371 121.741 37.1211 121.169 37.4184C120.618 37.7139 120.025 37.8895 119.391 37.9449C118.45 38.0272 117.628 37.9343 116.924 37.6661C116.223 37.4184 115.698 36.9593 115.351 36.2889C115.006 35.639 114.877 34.764 114.967 33.6639C115.076 32.562 115.464 31.2193 116.129 29.636C114.502 28.7066 112.628 28.1287 110.506 27.9022C109.743 29.7826 108.935 31.6257 108.083 33.4314C107.23 35.2167 106.277 36.8149 105.226 38.2259C104.176 39.6573 103.011 40.831 101.731 41.7467C100.453 42.683 99.0161 43.2209 97.4207 43.3604C96.1117 43.475 95.064 43.2781 94.2776 42.7698C93.493 42.282 92.959 41.5971 92.6757 40.715C92.3943 39.8534 92.3577 38.8467 92.5661 37.695C92.7967 36.5619 93.2523 35.4091 93.9329 34.2366C94.6135 33.0641 95.5151 31.9444 96.6378 30.8776C97.7586 29.7902 99.0899 28.87 100.632 28.1168C99.8479 27.8762 99.1149 27.5075 98.4326 27.0108C97.7689 26.4918 97.2207 25.8802 96.7882 25.1761C96.3538 24.4515 96.0777 23.6513 95.9598 22.7754C95.842 21.8995 95.9584 20.9927 96.3092 20.0552C96.66 19.1177 97.2101 18.3379 97.9594 17.7159C98.7293 17.0921 99.6121 16.582 100.608 16.1858C101.622 15.7673 102.707 15.4456 103.862 15.2209C105.017 14.9962 106.156 14.8142 107.277 14.6749C108.397 14.5151 109.457 14.3811 110.457 14.273C111.476 14.1426 112.348 13.9839 113.074 13.7967C113.714 13.1018 114.371 12.4879 115.046 11.9548C115.741 11.42 116.485 10.9736 117.278 10.6156C117.557 10.5088 117.867 10.3992 118.208 10.287C118.567 10.1525 118.93 10.0589 119.296 10.0063C119.661 9.93317 120.021 9.92231 120.375 9.9737C120.728 10.0046 121.038 10.1219 121.303 10.3254C121.614 10.5867 121.725 10.9068 121.634 11.2857C121.544 11.6646 121.279 12.0587 120.841 12.468C120.423 12.8755 119.84 13.2769 119.091 13.6721C118.341 14.0469 117.471 14.3498 116.481 14.5806C115.988 15.3039 115.513 16.1183 115.057 17.0239C114.6 17.9294 114.149 18.8964 113.703 19.9246C113.257 20.9529 112.815 22.0221 112.376 23.1322C111.956 24.2201 111.517 25.3302 111.06 26.4625C113.204 26.7077 115.128 27.2607 116.831 28.1216C117.198 27.3681 117.63 26.5266 118.125 25.597C118.64 24.6452 119.172 23.6609 119.722 22.6441C120.29 21.6051 120.869 20.5652 121.458 19.5244C122.046 18.4631 122.615 17.4343 123.167 16.438C124.47 14.1393 125.818 11.7543 127.209 9.2831L131.474 8.91ZM96.3727 41.6282C97.2317 41.553 98.0296 41.1328 98.7665 40.3676C99.5255 39.6211 100.253 38.63 100.949 37.3944C101.646 36.1792 102.327 34.78 102.993 33.1966C103.678 31.6115 104.379 29.9633 105.095 28.2518C103.313 28.6138 101.758 29.2136 100.43 30.0512C99.0998 30.8683 97.9851 31.7902 97.0857 32.8169C96.2049 33.8214 95.5229 34.8601 95.0397 35.9328C94.5769 37.0038 94.3208 37.9639 94.2715 38.8133C94.2239 39.683 94.3675 40.3815 94.7021 40.9087C95.059 41.4546 95.6159 41.6944 96.3727 41.6282ZM102.809 27.2152C103.77 26.8839 104.779 26.641 105.837 26.4866C106.673 24.4968 107.574 22.5425 108.539 20.6237C109.505 18.7049 110.569 16.9631 111.73 15.3982C110.798 15.5828 109.789 15.8256 108.702 16.1268C107.616 16.428 106.566 16.798 105.554 17.237C104.541 17.676 103.619 18.21 102.788 18.8392C101.977 19.4666 101.372 20.21 100.973 21.0692C100.644 21.7782 100.467 22.4635 100.442 23.1252C100.416 23.7664 100.488 24.3577 100.659 24.8992C100.851 25.439 101.129 25.9093 101.494 26.3101C101.879 26.7092 102.318 27.0109 102.809 27.2152Z"/>
<path d="M133.33 19.2586C134.128 19.1888 134.756 19.4224 135.215 19.9593C135.264 19.8107 135.294 19.6844 135.306 19.5804C135.336 19.4541 135.37 19.3687 135.407 19.3242L138.782 19.0289C138.737 19.2184 138.642 19.5461 138.497 20.0122C138.352 20.4783 138.183 21.0187 137.989 21.6333C137.794 22.2274 137.592 22.8634 137.384 23.5412C137.173 24.1985 136.97 24.8242 136.775 25.4184C136.6 26.0108 136.439 26.5298 136.293 26.9754C136.165 27.3988 136.086 27.6736 136.056 27.7999C135.926 28.2028 135.971 28.4772 136.19 28.6229C136.408 28.7686 136.689 28.7956 137.031 28.7038C137.374 28.612 137.736 28.3949 138.118 28.0523C138.521 27.7079 138.831 27.248 139.049 26.6725L139.645 27.4859C139.484 27.9946 139.238 28.4799 138.907 28.9416C138.595 29.3811 138.228 29.7739 137.805 30.1201C137.402 30.4645 136.953 30.7511 136.458 30.9799C135.983 31.2069 135.5 31.3419 135.009 31.3848C134.375 31.4403 133.842 31.353 133.41 31.1229C132.998 30.891 132.717 30.5136 132.569 29.9908C132.018 30.5336 131.449 30.975 130.861 31.315C130.292 31.6532 129.732 31.8465 129.18 31.8948C128.485 31.9557 127.898 31.8524 127.422 31.5849C126.964 31.2953 126.618 30.8824 126.386 30.3462C126.153 29.8101 126.046 29.1703 126.063 28.4268C126.059 27.6647 126.203 26.8482 126.498 25.9774C127.195 23.8142 128.155 22.1845 129.378 21.0882C130.602 19.9919 131.919 19.3821 133.33 19.2586ZM134.798 21.2014C134.589 20.9312 134.28 20.8139 133.871 20.8497C133.482 20.8837 133.121 20.9978 132.788 21.1918C132.473 21.3636 132.157 21.6386 131.84 22.0167C131.541 22.3726 131.242 22.8419 130.943 23.4245C130.644 24.0072 130.335 24.7143 130.016 25.546C129.761 26.166 129.565 26.7499 129.427 27.2978C129.308 27.8235 129.255 28.2815 129.269 28.6719C129.283 29.0623 129.371 29.3637 129.534 29.5762C129.717 29.7869 129.982 29.877 130.33 29.8466C130.678 29.8162 131.047 29.6808 131.438 29.4405C131.83 29.2001 132.214 28.878 132.591 28.4741C132.629 28.2028 132.697 27.9289 132.797 27.6522L134.798 21.2014Z"/>
<path d="M145.747 26.9521C145.585 27.4608 145.339 27.9461 145.009 28.4078C144.697 28.8473 144.329 29.2401 143.906 29.5863C143.503 29.9307 143.054 30.2173 142.559 30.4461C142.084 30.6731 141.602 30.8081 141.111 30.851C140.62 30.894 140.183 30.8497 139.801 30.7183C139.439 30.5851 139.151 30.3629 138.939 30.0518C138.726 29.7406 138.608 29.3387 138.586 28.8461C138.563 28.3534 138.657 27.7784 138.868 27.1211C138.915 26.9521 139.028 26.6021 139.209 26.0711C139.387 25.5196 139.589 24.8836 139.815 24.1632C140.038 23.4223 140.279 22.6387 140.536 21.8123C140.794 20.986 141.035 20.2127 141.261 19.4922C141.484 18.7513 141.676 18.1162 141.836 17.587C142.016 17.056 142.131 16.7162 142.18 16.5676C142.328 16.1425 142.33 15.8125 142.186 15.5778C142.04 15.3227 141.732 15.2157 141.261 15.2568L140.954 15.2837L141.483 13.9081C141.645 13.8733 141.816 13.8274 141.997 13.7704C142.157 13.7152 142.328 13.6693 142.51 13.6327C142.693 13.5962 142.896 13.568 143.121 13.5484C144.287 13.4464 145.041 13.6999 145.383 14.3089C145.724 14.9179 145.669 15.9326 145.216 17.3531C145.169 17.5221 145.089 17.7867 144.976 18.1469C144.864 18.5071 144.727 18.9416 144.565 19.4504C144.422 19.937 144.253 20.4773 144.058 21.0715C143.881 21.6434 143.704 22.2153 143.528 22.7872C143.11 24.1428 142.654 25.6357 142.157 27.2661C142.029 27.6895 142.075 27.974 142.294 28.1198C142.513 28.2655 142.793 28.2925 143.136 28.2007C143.476 28.0885 143.838 27.8611 144.22 27.5185C144.602 27.1759 144.912 26.7159 145.15 26.1386L145.747 26.9521Z"/>
<path d="M151.859 26.4173C151.697 26.9261 151.451 27.4113 151.121 27.8731C150.809 28.3126 150.441 28.7054 150.018 29.0516C149.615 29.3959 149.166 29.6825 148.671 29.9113C148.196 30.1384 147.714 30.2734 147.223 30.3163C146.732 30.3592 146.295 30.315 145.913 30.1836C145.551 30.0504 145.263 29.8282 145.051 29.5171C144.838 29.2059 144.72 28.804 144.698 28.3113C144.675 27.8187 144.769 27.2437 144.98 26.5864C145.027 26.4174 145.14 26.0674 145.321 25.5363C145.499 24.9849 145.701 24.3489 145.927 23.6284C146.15 22.8875 146.391 22.1039 146.648 21.2776C146.906 20.4513 147.147 19.6779 147.373 18.9575C147.596 18.2165 147.788 17.5815 147.948 17.0522C148.128 16.5212 148.243 16.1814 148.292 16.0329C148.44 15.6077 148.442 15.2778 148.298 15.0431C148.152 14.7879 147.844 14.6809 147.373 14.7221L147.066 14.7489L147.595 13.3733C147.757 13.3386 147.928 13.2927 148.109 13.2357C148.269 13.1804 148.44 13.1346 148.622 13.098C148.805 13.0614 149.008 13.0333 149.233 13.0136C150.399 12.9116 151.153 13.1651 151.495 13.7741C151.836 14.3831 151.781 15.3979 151.328 16.8183C151.281 16.9873 151.201 17.252 151.088 17.6122C150.976 17.9724 150.839 18.4069 150.677 18.9157C150.534 19.4022 150.365 19.9426 150.17 20.5367C149.993 21.1087 149.816 21.6806 149.64 22.2525C149.222 23.608 148.766 25.101 148.269 26.7314C148.141 27.1547 148.187 27.4393 148.406 27.585C148.625 27.7308 148.905 27.7577 149.248 27.666C149.588 27.5537 149.95 27.3263 150.332 26.9837C150.714 26.6411 151.024 26.1812 151.262 25.6039L151.859 26.4173Z"/>
</mask>
<path d="M20.4743 47.1555C21.6749 47.2153 22.7852 47.0667 23.805 46.7095C24.8453 46.3506 25.7477 45.8285 26.5121 45.1433C27.2971 44.4564 27.9254 43.6285 28.3971 42.6598C28.8892 41.6893 29.1875 40.6224 29.2918 39.4592C29.3943 38.2754 29.2852 37.0278 28.9643 35.7162C28.664 34.4028 28.1128 33.0496 27.3107 31.6565C26.6067 30.4403 26.1311 29.2453 25.8842 28.0715C25.6372 26.8977 25.6104 25.7665 25.8037 24.6779C24.6199 24.5754 23.4229 24.5565 22.2126 24.6211C21.0209 24.6636 19.8605 24.8269 18.7312 25.1112C17.6206 25.3732 16.5727 25.7638 15.5876 26.2828C14.623 26.8 13.7843 27.4607 13.0715 28.265C12.4724 28.9563 12.0731 29.692 11.8734 30.472C11.6924 31.2298 11.663 31.9538 11.7852 32.6438C11.9074 33.3338 12.1572 33.9509 12.5345 34.495C12.9101 35.0186 13.3661 35.4012 13.9024 35.6428L12.5809 36.4385C12.1478 36.4352 11.6724 36.3016 11.1547 36.0378C10.6369 35.7739 10.1316 35.4162 9.63871 34.9647C9.144 34.4927 8.69505 33.9549 8.29188 33.3513C7.90736 32.7254 7.6122 32.0608 7.4064 31.3575C7.22105 30.6524 7.15753 29.9263 7.21583 29.1792C7.29279 28.4099 7.55562 27.645 8.00433 26.8844C8.5801 25.9272 9.31962 25.1927 10.2229 24.6808C11.1448 24.1467 12.1518 23.7598 13.2437 23.52C14.3357 23.2802 15.4784 23.1493 16.6718 23.1273C17.8635 23.0849 19.0383 23.0852 20.1962 23.1281C21.3541 23.1711 22.4506 23.2194 23.4858 23.2731C24.5192 23.3064 25.4227 23.2686 26.1964 23.1597C26.5249 22.2035 27.0038 21.3166 27.633 20.499C28.2809 19.6591 29.0417 18.933 29.9156 18.3207C30.7877 17.688 31.7737 17.1792 32.8736 16.7944C33.9716 16.3892 35.1445 16.132 36.3922 16.0229C37.7421 15.9048 38.8894 16.062 39.8341 16.4946C40.7787 16.9272 41.4998 17.5133 41.9974 18.253C42.5153 18.9908 42.8052 19.8311 42.8671 20.7737C42.9272 21.6959 42.7587 22.5969 42.3616 23.4766C41.985 24.3546 41.3651 25.1611 40.502 25.8961C39.6575 26.6089 38.5786 27.1155 37.2653 27.4158C36.0337 27.7091 35.0159 27.7363 34.2118 27.4975C33.4282 27.2569 32.8589 26.8739 32.5038 26.3485C32.1486 25.8231 32.0216 25.1953 32.1226 24.4652C32.2236 23.735 32.5625 23.0149 33.1393 22.3049C32.8805 22.41 32.592 22.528 32.2737 22.6589C31.9963 22.7862 31.6891 22.9264 31.3522 23.0796C31.0134 23.2123 30.6542 23.3467 30.2745 23.483C30.1523 24.4417 30.2222 25.4764 30.4843 26.587C30.7668 27.6959 31.3018 28.865 32.0895 30.0945C33.0917 31.6556 33.7444 33.2267 34.0476 34.8078C34.3713 36.387 34.3894 37.8899 34.102 39.3165C33.8351 40.7414 33.3018 42.0658 32.502 43.29C31.7228 44.5123 30.7219 45.5582 29.4996 46.4277C28.2977 47.2954 26.9116 47.9422 25.3413 48.3682C23.7932 48.8127 22.1272 48.9688 20.3431 48.8364C18.4773 48.7111 16.9955 48.2636 15.8976 47.4941C14.8221 46.7432 14.0723 45.8298 13.6485 44.7539C13.2264 43.6985 13.0964 42.5661 13.2585 41.3565C13.4392 40.1247 13.8437 38.9764 14.4719 37.9116C15.1205 36.8449 15.9694 35.9463 17.0184 35.2156C18.086 34.4627 19.2948 34.0272 20.6447 33.9091C21.2583 33.8554 21.7311 33.9583 22.0629 34.2178C22.4134 34.4551 22.6279 34.7867 22.7064 35.2126C22.7849 35.6385 22.7536 36.105 22.6124 36.612C22.4695 37.0985 22.2225 37.5735 21.8715 38.0371C21.5409 38.4988 21.1223 38.8961 20.6155 39.229C20.107 39.5414 19.5357 39.7253 18.9017 39.7808C18.3085 39.8327 17.8713 39.6648 17.5901 39.2772C17.3089 38.8896 17.2019 38.3735 17.2691 37.7287C16.6264 38.1559 16.1255 38.6737 15.7666 39.2822C15.4076 39.8907 15.1861 40.5387 15.102 41.2262C15.0178 41.9136 15.0564 42.5904 15.2178 43.2564C15.4013 43.9411 15.7133 44.563 16.1539 45.1221C16.6148 45.6795 17.2016 46.1434 17.9141 46.5139C18.6266 46.8843 19.48 47.0982 20.4743 47.1555ZM36.1782 17.4637C35.6259 17.512 35.0715 17.6532 34.5149 17.8874C33.977 18.0994 33.4565 18.3922 32.9533 18.766C32.4706 19.138 32.0257 19.5891 31.6187 20.1193C31.2304 20.6273 30.9198 21.2007 30.6872 21.8393C31.5434 21.4965 32.3374 21.1488 33.0691 20.7962C33.799 20.4232 34.4192 20.0907 34.9295 19.7988C35.5385 19.457 36.0861 19.1205 36.5724 18.7894L37.212 20.0937C36.6652 20.2034 36.1513 20.4544 35.6704 20.8469C35.2081 21.2171 34.8237 21.6526 34.5172 22.1535C34.2088 22.6338 33.9952 23.1369 33.8763 23.6625C33.7761 24.1659 33.795 24.6177 33.9331 25.0178C34.0916 25.4161 34.3954 25.709 34.8446 25.8964C35.2921 26.0634 35.9306 26.059 36.7602 25.8834C37.7312 25.6748 38.5336 25.3057 39.1674 24.7763C39.8217 24.245 40.2958 23.6573 40.5899 23.0133C40.8821 22.3489 41.0089 21.6782 40.9703 21.0015C40.9504 20.3025 40.7517 19.681 40.3744 19.1369C40.0157 18.5706 39.4828 18.1329 38.7756 17.8238C38.0666 17.4942 37.2008 17.3742 36.1782 17.4637Z" fill="white"/>
<path d="M45.5739 26.9363C46.3102 26.8718 46.9381 26.9818 47.4577 27.2661C47.9958 27.5282 48.4016 27.9255 48.6749 28.458C48.9482 28.9906 49.0966 29.6268 49.1201 30.3667C49.1436 31.1066 49.0284 31.9101 48.7745 32.7774C48.4905 33.7709 48.1157 34.6693 47.6501 35.4726C47.1827 36.2554 46.645 36.9414 46.0371 37.5304C45.4495 38.1177 44.8001 38.5867 44.0889 38.9374C43.3963 39.266 42.6614 39.4642 41.8841 39.5322C41.1274 39.5984 40.4901 39.4996 39.9724 39.2358C39.4529 38.9515 39.0565 38.543 38.7832 38.0105C38.5099 37.4779 38.3717 36.8408 38.3686 36.0991C38.3433 35.3388 38.4576 34.525 38.7115 33.6578C39.3187 31.6467 40.2108 30.0641 41.3876 28.9101C42.5831 27.7338 43.9786 27.0758 45.5739 26.9363ZM45.3411 33.1087C45.531 32.4531 45.6725 31.8328 45.7656 31.2476C45.8791 30.6605 45.9376 30.1505 45.9409 29.7174C45.9424 29.2638 45.8907 28.9077 45.7856 28.649C45.6805 28.3902 45.5053 28.2716 45.2598 28.2931C45.0144 28.3145 44.7499 28.4716 44.4663 28.7644C44.1828 29.0571 43.8971 29.4428 43.6092 29.9214C43.34 30.3777 43.077 30.9057 42.8203 31.5052C42.5636 32.1048 42.3403 32.7323 42.1504 33.3878C41.9586 34.0229 41.806 34.6339 41.6924 35.2209C41.5771 35.7875 41.5178 36.2873 41.5145 36.7204C41.5316 37.1517 41.6029 37.4958 41.7285 37.7528C41.8522 37.9893 42.0368 38.0968 42.2822 38.0753C42.5277 38.0538 42.7828 37.9079 43.0477 37.6374C43.3312 37.3446 43.6076 36.9701 43.8768 36.5137C44.146 36.0574 44.4099 35.5397 44.6684 34.9606C44.9251 34.361 45.1493 33.7437 45.3411 33.1087Z" fill="white"/>
<path d="M61.0319 34.3636C60.6154 35.4924 59.8102 36.4182 58.6162 37.1409C57.4427 37.8619 56.0174 38.2957 54.3402 38.4425C53.4811 38.5176 52.7314 38.4286 52.091 38.1755C51.4692 37.9002 50.9705 37.5007 50.595 36.9771C50.2194 36.4535 49.9892 35.8244 49.9043 35.0899C49.8176 34.3349 49.9012 33.5238 50.1551 32.6566C50.7792 30.6028 51.6908 29.0082 52.8899 27.8728C54.0872 26.717 55.4733 26.0702 57.0482 25.9324C57.7027 25.8751 58.2377 25.9829 58.6531 26.2557C59.0668 26.508 59.3658 26.8632 59.5501 27.3211C59.7345 27.779 59.8014 28.309 59.7511 28.911C59.7194 29.4909 59.5845 30.0695 59.3465 30.6468C59.1253 31.1814 58.8859 31.6248 58.6282 31.9771C58.3704 32.3294 58.1176 32.6195 57.8696 32.8473C57.6198 33.0546 57.3758 33.2099 57.1375 33.3132C56.9179 33.3942 56.7365 33.441 56.5933 33.4536C56.0206 33.5037 55.6225 33.3118 55.3991 32.8779C55.1961 32.4423 55.1887 31.8864 55.3769 31.2105C55.6175 30.4268 55.9653 29.809 56.4204 29.357C56.8959 28.9032 57.4405 28.6495 58.0541 28.5958C58.1155 28.5904 58.1768 28.5851 58.2382 28.5797C58.32 28.5725 58.3822 28.5774 58.4249 28.5943C58.4505 28.1798 58.3596 27.8477 58.1523 27.5979C57.9654 27.3464 57.6674 27.2385 57.2583 27.2742C56.8493 27.31 56.463 27.4881 56.0994 27.8084C55.7359 28.1288 55.3897 28.5301 55.0609 29.0122C54.7525 29.4926 54.47 30.0326 54.2133 30.6321C53.9753 31.2094 53.7791 31.7934 53.6246 32.3839C53.2012 33.9049 53.2152 35.0063 53.6664 35.6882C54.1177 36.37 54.8955 36.6627 56 36.566C56.4295 36.5284 56.863 36.4184 57.3004 36.2358C57.7583 36.0515 58.182 35.829 58.5714 35.5682C58.9794 35.2852 59.3439 34.9751 59.6647 34.6378C59.9838 34.2802 60.2406 33.9176 60.4352 33.5502L61.0319 34.3636Z" fill="white"/>
<path d="M67.0989 33.8329C66.9373 34.3416 66.6912 34.8269 66.3606 35.2886C66.0487 35.7281 65.6812 36.1209 65.258 36.4671C64.8554 36.8115 64.4064 37.0981 63.9112 37.3269C63.4364 37.5539 62.9536 37.6889 62.4627 37.7318C61.4605 37.8195 60.7364 37.5531 60.2906 36.9326C59.8447 36.3121 59.8313 35.3343 60.2503 33.9992C60.3311 33.7448 60.4523 33.3633 60.6139 32.8545C60.7941 32.3235 60.9726 31.772 61.1493 31.2001C61.326 30.6282 61.4849 30.0887 61.626 29.5817C61.7876 29.0729 61.9097 28.7016 61.9922 28.4677C62.1201 28.0443 62.1119 27.7152 61.9677 27.4805C61.8217 27.2254 61.5135 27.1184 61.0431 27.1595L60.7363 27.1864L61.2652 25.8108C61.4252 25.7555 61.5955 25.6994 61.776 25.6424C61.936 25.5872 62.1072 25.5413 62.2895 25.5047C62.4922 25.4664 62.6959 25.4383 62.9004 25.4204C64.0662 25.3184 64.821 25.5821 65.1646 26.2116C65.5064 26.8206 65.4602 27.8242 65.0261 29.2224C64.9302 29.5399 64.793 29.9745 64.6146 30.5259C64.4566 31.0756 64.2883 31.6262 64.1099 32.1776C63.9181 32.8127 63.7179 33.4691 63.5093 34.1469C63.3815 34.5703 63.427 34.8548 63.6458 35.0006C63.8647 35.1463 64.1453 35.1733 64.4876 35.0815C64.8486 34.9675 65.2202 34.7392 65.6024 34.3966C65.9847 34.054 66.2846 33.595 66.5021 33.0194L67.0989 33.8329ZM67.3647 22.0311C67.4095 22.5424 67.2639 22.9983 66.9279 23.3986C66.592 23.799 66.1683 24.0215 65.657 24.0663C65.1252 24.1128 64.6591 23.9681 64.2588 23.6321C63.8584 23.2962 63.6359 22.8726 63.5911 22.3612C63.5464 21.8499 63.692 21.394 64.0279 20.9937C64.3639 20.5933 64.7978 20.3699 65.3295 20.3233C65.8409 20.2786 66.2967 20.4242 66.6971 20.7602C67.0975 21.0961 67.32 21.5197 67.3647 22.0311Z" fill="white"/>
<path d="M73.7378 24.4722C74.5355 24.4024 75.1639 24.636 75.6231 25.1729C75.672 25.0244 75.7021 24.8981 75.7136 24.794C75.7438 24.6677 75.7775 24.5823 75.8149 24.5378L79.1897 24.2426C79.1444 24.432 79.0494 24.7598 78.9047 25.2259C78.76 25.6919 78.5909 26.2323 78.3973 26.8469C78.202 27.4411 78 28.077 77.7914 28.7548C77.581 29.4121 77.3781 30.0379 77.1827 30.632C77.0079 31.2244 76.8472 31.7434 76.7007 32.189C76.5728 32.6124 76.4938 32.8872 76.4637 33.0135C76.334 33.4165 76.3786 33.6908 76.5975 33.8365C76.8163 33.9823 77.0969 34.0092 77.4393 33.9175C77.7816 33.8257 78.1439 33.6085 78.5261 33.2659C78.9288 32.9215 79.2389 32.4616 79.4565 31.8861L80.0532 32.6995C79.8916 33.2083 79.6455 33.6935 79.315 34.1552C79.003 34.5947 78.6355 34.9876 78.2124 35.3337C77.8097 35.6781 77.3608 35.9647 76.8655 36.1935C76.3908 36.4205 75.9079 36.5555 75.4171 36.5985C74.783 36.6539 74.2498 36.5666 73.8175 36.3365C73.4056 36.1046 73.1253 35.7273 72.9765 35.2044C72.4263 35.7472 71.8569 36.1886 71.2684 36.5286C70.7003 36.8669 70.1401 37.0602 69.5879 37.1085C68.8924 37.1693 68.3063 37.066 67.8295 36.7986C67.3714 36.5089 67.0261 36.096 66.7937 35.5599C66.5613 35.0237 66.4538 34.3839 66.4712 33.6405C66.4664 32.8783 66.6113 32.0618 66.9061 31.1911C67.6031 29.0279 68.5631 27.3981 69.7863 26.3019C71.0094 25.2056 72.3266 24.5957 73.7378 24.4722ZM75.2062 26.4151C74.9971 26.1448 74.688 26.0276 74.2789 26.0634C73.8903 26.0974 73.5293 26.2114 73.1959 26.4054C72.8812 26.5772 72.5652 26.8522 72.2479 27.2303C71.9493 27.5862 71.6503 28.0555 71.3509 28.6382C71.0515 29.2208 70.7424 29.928 70.4236 30.7597C70.1687 31.3796 69.9724 31.9636 69.8349 32.5115C69.716 33.0371 69.6633 33.4951 69.6769 33.8855C69.6904 34.2759 69.7786 34.5774 69.9415 34.7898C70.1248 35.0005 70.3903 35.0906 70.738 35.0602C71.0857 35.0298 71.4551 34.8944 71.8463 34.6541C72.2375 34.4138 72.6215 34.0916 72.9984 33.6877C73.0365 33.4164 73.1052 33.1425 73.2047 32.8659L75.2062 26.4151Z" fill="white"/>
<path d="M86.1547 32.1657C85.9931 32.6745 85.747 33.1597 85.4164 33.6214C85.1045 34.0609 84.737 34.4538 84.3139 34.7999C83.9112 35.1443 83.4622 35.4309 82.967 35.6597C82.4922 35.8867 82.0094 36.0217 81.5185 36.0647C81.0276 36.1076 80.591 36.0634 80.2085 35.932C79.8465 35.7988 79.5591 35.5766 79.3464 35.2654C79.1337 34.9543 79.0161 34.5524 78.9936 34.0597C78.9711 33.567 79.0651 32.9921 79.2755 32.3347C79.3225 32.1657 79.4362 31.8157 79.6164 31.2847C79.7949 30.7332 79.9969 30.0973 80.2224 29.3768C80.4461 28.6359 80.6867 27.8523 80.9441 27.026C81.2016 26.1997 81.4431 25.4263 81.6686 24.7058C81.8923 23.9649 82.0841 23.3298 82.2439 22.8006C82.4241 22.2696 82.5387 21.9298 82.5875 21.7813C82.7358 21.3561 82.7378 21.0262 82.5936 20.7915C82.4477 20.5363 82.1395 20.4293 81.669 20.4705L81.3622 20.4973L81.8911 19.1217C82.0529 19.0869 82.2241 19.041 82.4046 18.984C82.5646 18.9288 82.7358 18.8829 82.9181 18.8464C83.1004 18.8098 83.304 18.7817 83.529 18.762C84.6949 18.66 85.4487 18.9135 85.7905 19.5225C86.1323 20.1315 86.0768 21.1462 85.624 22.5667C85.577 22.7357 85.4971 23.0003 85.3843 23.3606C85.2716 23.7208 85.1344 24.1553 84.9728 24.6641C84.8299 25.1506 84.6608 25.6909 84.4654 26.2851C84.2888 26.857 84.1121 27.4289 83.9354 28.0009C83.5182 29.3564 83.0614 30.8494 82.5651 32.4797C82.4373 32.9031 82.4828 33.1877 82.7016 33.3334C82.9205 33.4791 83.2011 33.5061 83.5434 33.4143C83.884 33.3021 84.2454 33.0747 84.6276 32.7321C85.0098 32.3895 85.3199 31.9296 85.558 31.3523L86.1547 32.1657Z" fill="white"/>
<path d="M131.474 8.91C130.352 11.1721 129.275 13.348 128.242 15.4375C127.804 16.3208 127.348 17.2366 126.875 18.1849C126.422 19.1313 125.967 20.0573 125.51 20.9629C125.072 21.8462 124.652 22.6971 124.25 23.5155C123.866 24.3116 123.525 25.0112 123.228 25.6143C122.842 26.39 122.456 27.1555 122.068 27.9107C121.681 28.666 121.322 29.3878 120.99 30.0763C120.679 30.763 120.415 31.3941 120.198 31.9696C119.98 32.5451 119.848 33.041 119.802 33.4572C119.753 33.8325 119.839 34.1135 120.061 34.3002C120.304 34.485 120.579 34.564 120.886 34.5372C121.091 34.5193 121.331 34.4467 121.609 34.3194C121.886 34.192 122.148 34.0043 122.394 33.756C122.663 33.5264 122.905 33.2373 123.122 32.8885C123.341 32.5603 123.514 32.1844 123.642 31.7611L124.542 32.8571C124.392 33.5091 124.158 34.1273 123.838 34.7117C123.518 35.2962 123.131 35.8144 122.676 36.2664C122.243 36.7371 121.741 37.1211 121.169 37.4184C120.618 37.7139 120.025 37.8895 119.391 37.9449C118.45 38.0272 117.628 37.9343 116.924 37.6661C116.223 37.4184 115.698 36.9593 115.351 36.2889C115.006 35.639 114.877 34.764 114.967 33.6639C115.076 32.562 115.464 31.2193 116.129 29.636C114.502 28.7066 112.628 28.1287 110.506 27.9022C109.743 29.7826 108.935 31.6257 108.083 33.4314C107.23 35.2167 106.277 36.8149 105.226 38.2259C104.176 39.6573 103.011 40.831 101.731 41.7467C100.453 42.683 99.0161 43.2209 97.4207 43.3604C96.1117 43.475 95.064 43.2781 94.2776 42.7698C93.493 42.282 92.959 41.5971 92.6757 40.715C92.3943 39.8534 92.3577 38.8467 92.5661 37.695C92.7967 36.5619 93.2523 35.4091 93.9329 34.2366C94.6135 33.0641 95.5151 31.9444 96.6378 30.8776C97.7586 29.7902 99.0899 28.87 100.632 28.1168C99.8479 27.8762 99.1149 27.5075 98.4326 27.0108C97.7689 26.4918 97.2207 25.8802 96.7882 25.1761C96.3538 24.4515 96.0777 23.6513 95.9598 22.7754C95.842 21.8995 95.9584 20.9927 96.3092 20.0552C96.66 19.1177 97.2101 18.3379 97.9594 17.7159C98.7293 17.0921 99.6121 16.582 100.608 16.1858C101.622 15.7673 102.707 15.4456 103.862 15.2209C105.017 14.9962 106.156 14.8142 107.277 14.6749C108.397 14.5151 109.457 14.3811 110.457 14.273C111.476 14.1426 112.348 13.9839 113.074 13.7967C113.714 13.1018 114.371 12.4879 115.046 11.9548C115.741 11.42 116.485 10.9736 117.278 10.6156C117.557 10.5088 117.867 10.3992 118.208 10.287C118.567 10.1525 118.93 10.0589 119.296 10.0063C119.661 9.93317 120.021 9.92231 120.375 9.9737C120.728 10.0046 121.038 10.1219 121.303 10.3254C121.614 10.5867 121.725 10.9068 121.634 11.2857C121.544 11.6646 121.279 12.0587 120.841 12.468C120.423 12.8755 119.84 13.2769 119.091 13.6721C118.341 14.0469 117.471 14.3498 116.481 14.5806C115.988 15.3039 115.513 16.1183 115.057 17.0239C114.6 17.9294 114.149 18.8964 113.703 19.9246C113.257 20.9529 112.815 22.0221 112.376 23.1322C111.956 24.2201 111.517 25.3302 111.06 26.4625C113.204 26.7077 115.128 27.2607 116.831 28.1216C117.198 27.3681 117.63 26.5266 118.125 25.597C118.64 24.6452 119.172 23.6609 119.722 22.6441C120.29 21.6051 120.869 20.5652 121.458 19.5244C122.046 18.4631 122.615 17.4343 123.167 16.438C124.47 14.1393 125.818 11.7543 127.209 9.2831L131.474 8.91ZM96.3727 41.6282C97.2317 41.553 98.0296 41.1328 98.7665 40.3676C99.5255 39.6211 100.253 38.63 100.949 37.3944C101.646 36.1792 102.327 34.78 102.993 33.1966C103.678 31.6115 104.379 29.9633 105.095 28.2518C103.313 28.6138 101.758 29.2136 100.43 30.0512C99.0998 30.8683 97.9851 31.7902 97.0857 32.8169C96.2049 33.8214 95.5229 34.8601 95.0397 35.9328C94.5769 37.0038 94.3208 37.9639 94.2715 38.8133C94.2239 39.683 94.3675 40.3815 94.7021 40.9087C95.059 41.4546 95.6159 41.6944 96.3727 41.6282ZM102.809 27.2152C103.77 26.8839 104.779 26.641 105.837 26.4866C106.673 24.4968 107.574 22.5425 108.539 20.6237C109.505 18.7049 110.569 16.9631 111.73 15.3982C110.798 15.5828 109.789 15.8256 108.702 16.1268C107.616 16.428 106.566 16.798 105.554 17.237C104.541 17.676 103.619 18.21 102.788 18.8392C101.977 19.4666 101.372 20.21 100.973 21.0692C100.644 21.7782 100.467 22.4635 100.442 23.1252C100.416 23.7664 100.488 24.3577 100.659 24.8992C100.851 25.439 101.129 25.9093 101.494 26.3101C101.879 26.7092 102.318 27.0109 102.809 27.2152Z" fill="white"/>
<path d="M133.33 19.2586C134.128 19.1888 134.756 19.4224 135.215 19.9593C135.264 19.8107 135.294 19.6844 135.306 19.5804C135.336 19.4541 135.37 19.3687 135.407 19.3242L138.782 19.0289C138.737 19.2184 138.642 19.5461 138.497 20.0122C138.352 20.4783 138.183 21.0187 137.989 21.6333C137.794 22.2274 137.592 22.8634 137.384 23.5412C137.173 24.1985 136.97 24.8242 136.775 25.4184C136.6 26.0108 136.439 26.5298 136.293 26.9754C136.165 27.3988 136.086 27.6736 136.056 27.7999C135.926 28.2028 135.971 28.4772 136.19 28.6229C136.408 28.7686 136.689 28.7956 137.031 28.7038C137.374 28.612 137.736 28.3949 138.118 28.0523C138.521 27.7079 138.831 27.248 139.049 26.6725L139.645 27.4859C139.484 27.9946 139.238 28.4799 138.907 28.9416C138.595 29.3811 138.228 29.7739 137.805 30.1201C137.402 30.4645 136.953 30.7511 136.458 30.9799C135.983 31.2069 135.5 31.3419 135.009 31.3848C134.375 31.4403 133.842 31.353 133.41 31.1229C132.998 30.891 132.717 30.5136 132.569 29.9908C132.018 30.5336 131.449 30.975 130.861 31.315C130.292 31.6532 129.732 31.8465 129.18 31.8948C128.485 31.9557 127.898 31.8524 127.422 31.5849C126.964 31.2953 126.618 30.8824 126.386 30.3462C126.153 29.8101 126.046 29.1703 126.063 28.4268C126.059 27.6647 126.203 26.8482 126.498 25.9774C127.195 23.8142 128.155 22.1845 129.378 21.0882C130.602 19.9919 131.919 19.3821 133.33 19.2586ZM134.798 21.2014C134.589 20.9312 134.28 20.8139 133.871 20.8497C133.482 20.8837 133.121 20.9978 132.788 21.1918C132.473 21.3636 132.157 21.6386 131.84 22.0167C131.541 22.3726 131.242 22.8419 130.943 23.4245C130.644 24.0072 130.335 24.7143 130.016 25.546C129.761 26.166 129.565 26.7499 129.427 27.2978C129.308 27.8235 129.255 28.2815 129.269 28.6719C129.283 29.0623 129.371 29.3637 129.534 29.5762C129.717 29.7869 129.982 29.877 130.33 29.8466C130.678 29.8162 131.047 29.6808 131.438 29.4405C131.83 29.2001 132.214 28.878 132.591 28.4741C132.629 28.2028 132.697 27.9289 132.797 27.6522L134.798 21.2014Z" fill="white"/>
<path d="M145.747 26.9521C145.585 27.4608 145.339 27.9461 145.009 28.4078C144.697 28.8473 144.329 29.2401 143.906 29.5863C143.503 29.9307 143.054 30.2173 142.559 30.4461C142.084 30.6731 141.602 30.8081 141.111 30.851C140.62 30.894 140.183 30.8497 139.801 30.7183C139.439 30.5851 139.151 30.3629 138.939 30.0518C138.726 29.7406 138.608 29.3387 138.586 28.8461C138.563 28.3534 138.657 27.7784 138.868 27.1211C138.915 26.9521 139.028 26.6021 139.209 26.0711C139.387 25.5196 139.589 24.8836 139.815 24.1632C140.038 23.4223 140.279 22.6387 140.536 21.8123C140.794 20.986 141.035 20.2127 141.261 19.4922C141.484 18.7513 141.676 18.1162 141.836 17.587C142.016 17.056 142.131 16.7162 142.18 16.5676C142.328 16.1425 142.33 15.8125 142.186 15.5778C142.04 15.3227 141.732 15.2157 141.261 15.2568L140.954 15.2837L141.483 13.9081C141.645 13.8733 141.816 13.8274 141.997 13.7704C142.157 13.7152 142.328 13.6693 142.51 13.6327C142.693 13.5962 142.896 13.568 143.121 13.5484C144.287 13.4464 145.041 13.6999 145.383 14.3089C145.724 14.9179 145.669 15.9326 145.216 17.3531C145.169 17.5221 145.089 17.7867 144.976 18.1469C144.864 18.5071 144.727 18.9416 144.565 19.4504C144.422 19.937 144.253 20.4773 144.058 21.0715C143.881 21.6434 143.704 22.2153 143.528 22.7872C143.11 24.1428 142.654 25.6357 142.157 27.2661C142.029 27.6895 142.075 27.974 142.294 28.1198C142.513 28.2655 142.793 28.2925 143.136 28.2007C143.476 28.0885 143.838 27.8611 144.22 27.5185C144.602 27.1759 144.912 26.7159 145.15 26.1386L145.747 26.9521Z" fill="white"/>
<path d="M151.859 26.4173C151.697 26.9261 151.451 27.4113 151.121 27.8731C150.809 28.3126 150.441 28.7054 150.018 29.0516C149.615 29.3959 149.166 29.6825 148.671 29.9113C148.196 30.1384 147.714 30.2734 147.223 30.3163C146.732 30.3592 146.295 30.315 145.913 30.1836C145.551 30.0504 145.263 29.8282 145.051 29.5171C144.838 29.2059 144.72 28.804 144.698 28.3113C144.675 27.8187 144.769 27.2437 144.98 26.5864C145.027 26.4174 145.14 26.0674 145.321 25.5363C145.499 24.9849 145.701 24.3489 145.927 23.6284C146.15 22.8875 146.391 22.1039 146.648 21.2776C146.906 20.4513 147.147 19.6779 147.373 18.9575C147.596 18.2165 147.788 17.5815 147.948 17.0522C148.128 16.5212 148.243 16.1814 148.292 16.0329C148.44 15.6077 148.442 15.2778 148.298 15.0431C148.152 14.7879 147.844 14.6809 147.373 14.7221L147.066 14.7489L147.595 13.3733C147.757 13.3386 147.928 13.2927 148.109 13.2357C148.269 13.1804 148.44 13.1346 148.622 13.098C148.805 13.0614 149.008 13.0333 149.233 13.0136C150.399 12.9116 151.153 13.1651 151.495 13.7741C151.836 14.3831 151.781 15.3979 151.328 16.8183C151.281 16.9873 151.201 17.252 151.088 17.6122C150.976 17.9724 150.839 18.4069 150.677 18.9157C150.534 19.4022 150.365 19.9426 150.17 20.5367C149.993 21.1087 149.816 21.6806 149.64 22.2525C149.222 23.608 148.766 25.101 148.269 26.7314C148.141 27.1547 148.187 27.4393 148.406 27.585C148.625 27.7308 148.905 27.7577 149.248 27.666C149.588 27.5537 149.95 27.3263 150.332 26.9837C150.714 26.6411 151.024 26.1812 151.262 25.6039L151.859 26.4173Z" fill="white"/>
<path d="M20.4743 47.1555C21.6749 47.2153 22.7852 47.0667 23.805 46.7095C24.8453 46.3506 25.7477 45.8285 26.5121 45.1433C27.2971 44.4564 27.9254 43.6285 28.3971 42.6598C28.8892 41.6893 29.1875 40.6224 29.2918 39.4592C29.3943 38.2754 29.2852 37.0278 28.9643 35.7162C28.664 34.4028 28.1128 33.0496 27.3107 31.6565C26.6067 30.4403 26.1311 29.2453 25.8842 28.0715C25.6372 26.8977 25.6104 25.7665 25.8037 24.6779C24.6199 24.5754 23.4229 24.5565 22.2126 24.6211C21.0209 24.6636 19.8605 24.8269 18.7312 25.1112C17.6206 25.3732 16.5727 25.7638 15.5876 26.2828C14.623 26.8 13.7843 27.4607 13.0715 28.265C12.4724 28.9563 12.0731 29.692 11.8734 30.472C11.6924 31.2298 11.663 31.9538 11.7852 32.6438C11.9074 33.3338 12.1572 33.9509 12.5345 34.495C12.9101 35.0186 13.3661 35.4012 13.9024 35.6428L12.5809 36.4385C12.1478 36.4352 11.6724 36.3016 11.1547 36.0378C10.6369 35.7739 10.1316 35.4162 9.63871 34.9647C9.144 34.4927 8.69505 33.9549 8.29188 33.3513C7.90736 32.7254 7.6122 32.0608 7.4064 31.3575C7.22105 30.6524 7.15753 29.9263 7.21583 29.1792C7.29279 28.4099 7.55562 27.645 8.00433 26.8844C8.5801 25.9272 9.31962 25.1927 10.2229 24.6808C11.1448 24.1467 12.1518 23.7598 13.2437 23.52C14.3357 23.2802 15.4784 23.1493 16.6718 23.1273C17.8635 23.0849 19.0383 23.0852 20.1962 23.1281C21.3541 23.1711 22.4506 23.2194 23.4858 23.2731C24.5192 23.3064 25.4227 23.2686 26.1964 23.1597C26.5249 22.2035 27.0038 21.3166 27.633 20.499C28.2809 19.6591 29.0417 18.933 29.9156 18.3207C30.7877 17.688 31.7737 17.1792 32.8736 16.7944C33.9716 16.3892 35.1445 16.132 36.3922 16.0229C37.7421 15.9048 38.8894 16.062 39.8341 16.4946C40.7787 16.9272 41.4998 17.5133 41.9974 18.253C42.5153 18.9908 42.8052 19.8311 42.8671 20.7737C42.9272 21.6959 42.7587 22.5969 42.3616 23.4766C41.985 24.3546 41.3651 25.1611 40.502 25.8961C39.6575 26.6089 38.5786 27.1155 37.2653 27.4158C36.0337 27.7091 35.0159 27.7363 34.2118 27.4975C33.4282 27.2569 32.8589 26.8739 32.5038 26.3485C32.1486 25.8231 32.0216 25.1953 32.1226 24.4652C32.2236 23.735 32.5625 23.0149 33.1393 22.3049C32.8805 22.41 32.592 22.528 32.2737 22.6589C31.9963 22.7862 31.6891 22.9264 31.3522 23.0796C31.0134 23.2123 30.6542 23.3467 30.2745 23.483C30.1523 24.4417 30.2222 25.4764 30.4843 26.587C30.7668 27.6959 31.3018 28.865 32.0895 30.0945C33.0917 31.6556 33.7444 33.2267 34.0476 34.8078C34.3713 36.387 34.3894 37.8899 34.102 39.3165C33.8351 40.7414 33.3018 42.0658 32.502 43.29C31.7228 44.5123 30.7219 45.5582 29.4996 46.4277C28.2977 47.2954 26.9116 47.9422 25.3413 48.3682C23.7932 48.8127 22.1272 48.9688 20.3431 48.8364C18.4773 48.7111 16.9955 48.2636 15.8976 47.4941C14.8221 46.7432 14.0723 45.8298 13.6485 44.7539C13.2264 43.6985 13.0964 42.5661 13.2585 41.3565C13.4392 40.1247 13.8437 38.9764 14.4719 37.9116C15.1205 36.8449 15.9694 35.9463 17.0184 35.2156C18.086 34.4627 19.2948 34.0272 20.6447 33.9091C21.2583 33.8554 21.7311 33.9583 22.0629 34.2178C22.4134 34.4551 22.6279 34.7867 22.7064 35.2126C22.7849 35.6385 22.7536 36.105 22.6124 36.612C22.4695 37.0985 22.2225 37.5735 21.8715 38.0371C21.5409 38.4988 21.1223 38.8961 20.6155 39.229C20.107 39.5414 19.5357 39.7253 18.9017 39.7808C18.3085 39.8327 17.8713 39.6648 17.5901 39.2772C17.3089 38.8896 17.2019 38.3735 17.2691 37.7287C16.6264 38.1559 16.1255 38.6737 15.7666 39.2822C15.4076 39.8907 15.1861 40.5387 15.102 41.2262C15.0178 41.9136 15.0564 42.5904 15.2178 43.2564C15.4013 43.9411 15.7133 44.563 16.1539 45.1221C16.6148 45.6795 17.2016 46.1434 17.9141 46.5139C18.6266 46.8843 19.48 47.0982 20.4743 47.1555ZM36.1782 17.4637C35.6259 17.512 35.0715 17.6532 34.5149 17.8874C33.977 18.0994 33.4565 18.3922 32.9533 18.766C32.4706 19.138 32.0257 19.5891 31.6187 20.1193C31.2304 20.6273 30.9198 21.2007 30.6872 21.8393C31.5434 21.4965 32.3374 21.1488 33.0691 20.7962C33.799 20.4232 34.4192 20.0907 34.9295 19.7988C35.5385 19.457 36.0861 19.1205 36.5724 18.7894L37.212 20.0937C36.6652 20.2034 36.1513 20.4544 35.6704 20.8469C35.2081 21.2171 34.8237 21.6526 34.5172 22.1535C34.2088 22.6338 33.9952 23.1369 33.8763 23.6625C33.7761 24.1659 33.795 24.6177 33.9331 25.0178C34.0916 25.4161 34.3954 25.709 34.8446 25.8964C35.2921 26.0634 35.9306 26.059 36.7602 25.8834C37.7312 25.6748 38.5336 25.3057 39.1674 24.7763C39.8217 24.245 40.2958 23.6573 40.5899 23.0133C40.8821 22.3489 41.0089 21.6782 40.9703 21.0015C40.9504 20.3025 40.7517 19.681 40.3744 19.1369C40.0157 18.5706 39.4828 18.1329 38.7756 17.8238C38.0666 17.4942 37.2008 17.3742 36.1782 17.4637Z" stroke="#663FBA" stroke-width="14.0418" mask="url(#path-1-outside-1_27068_58144)"/>
<path d="M45.5739 26.9363C46.3102 26.8718 46.9381 26.9818 47.4577 27.2661C47.9958 27.5282 48.4016 27.9255 48.6749 28.458C48.9482 28.9906 49.0966 29.6268 49.1201 30.3667C49.1436 31.1066 49.0284 31.9101 48.7745 32.7774C48.4905 33.7709 48.1157 34.6693 47.6501 35.4726C47.1827 36.2554 46.645 36.9414 46.0371 37.5304C45.4495 38.1177 44.8001 38.5867 44.0889 38.9374C43.3963 39.266 42.6614 39.4642 41.8841 39.5322C41.1274 39.5984 40.4901 39.4996 39.9724 39.2358C39.4529 38.9515 39.0565 38.543 38.7832 38.0105C38.5099 37.4779 38.3717 36.8408 38.3686 36.0991C38.3433 35.3388 38.4576 34.525 38.7115 33.6578C39.3187 31.6467 40.2108 30.0641 41.3876 28.9101C42.5831 27.7338 43.9786 27.0758 45.5739 26.9363ZM45.3411 33.1087C45.531 32.4531 45.6725 31.8328 45.7656 31.2476C45.8791 30.6605 45.9376 30.1505 45.9409 29.7174C45.9424 29.2638 45.8907 28.9077 45.7856 28.649C45.6805 28.3902 45.5053 28.2716 45.2598 28.2931C45.0144 28.3145 44.7499 28.4716 44.4663 28.7644C44.1828 29.0571 43.8971 29.4428 43.6092 29.9214C43.34 30.3777 43.077 30.9057 42.8203 31.5052C42.5636 32.1048 42.3403 32.7323 42.1504 33.3878C41.9586 34.0229 41.806 34.6339 41.6924 35.2209C41.5771 35.7875 41.5178 36.2873 41.5145 36.7204C41.5316 37.1517 41.6029 37.4958 41.7285 37.7528C41.8522 37.9893 42.0368 38.0968 42.2822 38.0753C42.5277 38.0538 42.7828 37.9079 43.0477 37.6374C43.3312 37.3446 43.6076 36.9701 43.8768 36.5137C44.146 36.0574 44.4099 35.5397 44.6684 34.9606C44.9251 34.361 45.1493 33.7437 45.3411 33.1087Z" stroke="#663FBA" stroke-width="14.0418" mask="url(#path-1-outside-1_27068_58144)"/>
<path d="M61.0319 34.3636C60.6154 35.4924 59.8102 36.4182 58.6162 37.1409C57.4427 37.8619 56.0174 38.2957 54.3402 38.4425C53.4811 38.5176 52.7314 38.4286 52.091 38.1755C51.4692 37.9002 50.9705 37.5007 50.595 36.9771C50.2194 36.4535 49.9892 35.8244 49.9043 35.0899C49.8176 34.3349 49.9012 33.5238 50.1551 32.6566C50.7792 30.6028 51.6908 29.0082 52.8899 27.8728C54.0872 26.717 55.4733 26.0702 57.0482 25.9324C57.7027 25.8751 58.2377 25.9829 58.6531 26.2557C59.0668 26.508 59.3658 26.8632 59.5501 27.3211C59.7345 27.779 59.8014 28.309 59.7511 28.911C59.7194 29.4909 59.5845 30.0695 59.3465 30.6468C59.1253 31.1814 58.8859 31.6248 58.6282 31.9771C58.3704 32.3294 58.1176 32.6195 57.8696 32.8473C57.6198 33.0546 57.3758 33.2099 57.1375 33.3132C56.9179 33.3942 56.7365 33.441 56.5933 33.4536C56.0206 33.5037 55.6225 33.3118 55.3991 32.8779C55.1961 32.4423 55.1887 31.8864 55.3769 31.2105C55.6175 30.4268 55.9653 29.809 56.4204 29.357C56.8959 28.9032 57.4405 28.6495 58.0541 28.5958C58.1155 28.5904 58.1768 28.5851 58.2382 28.5797C58.32 28.5725 58.3822 28.5774 58.4249 28.5943C58.4505 28.1798 58.3596 27.8477 58.1523 27.5979C57.9654 27.3464 57.6674 27.2385 57.2583 27.2742C56.8493 27.31 56.463 27.4881 56.0994 27.8084C55.7359 28.1288 55.3897 28.5301 55.0609 29.0122C54.7525 29.4926 54.47 30.0326 54.2133 30.6321C53.9753 31.2094 53.7791 31.7934 53.6246 32.3839C53.2012 33.9049 53.2152 35.0063 53.6664 35.6882C54.1177 36.37 54.8955 36.6627 56 36.566C56.4295 36.5284 56.863 36.4184 57.3004 36.2358C57.7583 36.0515 58.182 35.829 58.5714 35.5682C58.9794 35.2852 59.3439 34.9751 59.6647 34.6378C59.9838 34.2802 60.2406 33.9176 60.4352 33.5502L61.0319 34.3636Z" stroke="#663FBA" stroke-width="14.0418" mask="url(#path-1-outside-1_27068_58144)"/>
<path d="M67.0989 33.8329C66.9373 34.3416 66.6912 34.8269 66.3606 35.2886C66.0487 35.7281 65.6812 36.1209 65.258 36.4671C64.8554 36.8115 64.4064 37.0981 63.9112 37.3269C63.4364 37.5539 62.9536 37.6889 62.4627 37.7318C61.4605 37.8195 60.7364 37.5531 60.2906 36.9326C59.8447 36.3121 59.8313 35.3343 60.2503 33.9992C60.3311 33.7448 60.4523 33.3633 60.6139 32.8545C60.7941 32.3235 60.9726 31.772 61.1493 31.2001C61.326 30.6282 61.4849 30.0887 61.626 29.5817C61.7876 29.0729 61.9097 28.7016 61.9922 28.4677C62.1201 28.0443 62.1119 27.7152 61.9677 27.4805C61.8217 27.2254 61.5135 27.1184 61.0431 27.1595L60.7363 27.1864L61.2652 25.8108C61.4252 25.7555 61.5955 25.6994 61.776 25.6424C61.936 25.5872 62.1072 25.5413 62.2895 25.5047C62.4922 25.4664 62.6959 25.4383 62.9004 25.4204C64.0662 25.3184 64.821 25.5821 65.1646 26.2116C65.5064 26.8206 65.4602 27.8242 65.0261 29.2224C64.9302 29.5399 64.793 29.9745 64.6146 30.5259C64.4566 31.0756 64.2883 31.6262 64.1099 32.1776C63.9181 32.8127 63.7179 33.4691 63.5093 34.1469C63.3815 34.5703 63.427 34.8548 63.6458 35.0006C63.8647 35.1463 64.1453 35.1733 64.4876 35.0815C64.8486 34.9675 65.2202 34.7392 65.6024 34.3966C65.9847 34.054 66.2846 33.595 66.5021 33.0194L67.0989 33.8329ZM67.3647 22.0311C67.4095 22.5424 67.2639 22.9983 66.9279 23.3986C66.592 23.799 66.1683 24.0215 65.657 24.0663C65.1252 24.1128 64.6591 23.9681 64.2588 23.6321C63.8584 23.2962 63.6359 22.8726 63.5911 22.3612C63.5464 21.8499 63.692 21.394 64.0279 20.9937C64.3639 20.5933 64.7978 20.3699 65.3295 20.3233C65.8409 20.2786 66.2967 20.4242 66.6971 20.7602C67.0975 21.0961 67.32 21.5197 67.3647 22.0311Z" stroke="#663FBA" stroke-width="14.0418" mask="url(#path-1-outside-1_27068_58144)"/>
<path d="M73.7378 24.4722C74.5355 24.4024 75.1639 24.636 75.6231 25.1729C75.672 25.0244 75.7021 24.8981 75.7136 24.794C75.7438 24.6677 75.7775 24.5823 75.8149 24.5378L79.1897 24.2426C79.1444 24.432 79.0494 24.7598 78.9047 25.2259C78.76 25.6919 78.5909 26.2323 78.3973 26.8469C78.202 27.4411 78 28.077 77.7914 28.7548C77.581 29.4121 77.3781 30.0379 77.1827 30.632C77.0079 31.2244 76.8472 31.7434 76.7007 32.189C76.5728 32.6124 76.4938 32.8872 76.4637 33.0135C76.334 33.4165 76.3786 33.6908 76.5975 33.8365C76.8163 33.9823 77.0969 34.0092 77.4393 33.9175C77.7816 33.8257 78.1439 33.6085 78.5261 33.2659C78.9288 32.9215 79.2389 32.4616 79.4565 31.8861L80.0532 32.6995C79.8916 33.2083 79.6455 33.6935 79.315 34.1552C79.003 34.5947 78.6355 34.9876 78.2124 35.3337C77.8097 35.6781 77.3608 35.9647 76.8655 36.1935C76.3908 36.4205 75.9079 36.5555 75.4171 36.5985C74.783 36.6539 74.2498 36.5666 73.8175 36.3365C73.4056 36.1046 73.1253 35.7273 72.9765 35.2044C72.4263 35.7472 71.8569 36.1886 71.2684 36.5286C70.7003 36.8669 70.1401 37.0602 69.5879 37.1085C68.8924 37.1693 68.3063 37.066 67.8295 36.7986C67.3714 36.5089 67.0261 36.096 66.7937 35.5599C66.5613 35.0237 66.4538 34.3839 66.4712 33.6405C66.4664 32.8783 66.6113 32.0618 66.9061 31.1911C67.6031 29.0279 68.5631 27.3981 69.7863 26.3019C71.0094 25.2056 72.3266 24.5957 73.7378 24.4722ZM75.2062 26.4151C74.9971 26.1448 74.688 26.0276 74.2789 26.0634C73.8903 26.0974 73.5293 26.2114 73.1959 26.4054C72.8812 26.5772 72.5652 26.8522 72.2479 27.2303C71.9493 27.5862 71.6503 28.0555 71.3509 28.6382C71.0515 29.2208 70.7424 29.928 70.4236 30.7597C70.1687 31.3796 69.9724 31.9636 69.8349 32.5115C69.716 33.0371 69.6633 33.4951 69.6769 33.8855C69.6904 34.2759 69.7786 34.5774 69.9415 34.7898C70.1248 35.0005 70.3903 35.0906 70.738 35.0602C71.0857 35.0298 71.4551 34.8944 71.8463 34.6541C72.2375 34.4138 72.6215 34.0916 72.9984 33.6877C73.0365 33.4164 73.1052 33.1425 73.2047 32.8659L75.2062 26.4151Z" stroke="#663FBA" stroke-width="14.0418" mask="url(#path-1-outside-1_27068_58144)"/>
<path d="M86.1547 32.1657C85.9931 32.6745 85.747 33.1597 85.4164 33.6214C85.1045 34.0609 84.737 34.4538 84.3139 34.7999C83.9112 35.1443 83.4622 35.4309 82.967 35.6597C82.4922 35.8867 82.0094 36.0217 81.5185 36.0647C81.0276 36.1076 80.591 36.0634 80.2085 35.932C79.8465 35.7988 79.5591 35.5766 79.3464 35.2654C79.1337 34.9543 79.0161 34.5524 78.9936 34.0597C78.9711 33.567 79.0651 32.9921 79.2755 32.3347C79.3225 32.1657 79.4362 31.8157 79.6164 31.2847C79.7949 30.7332 79.9969 30.0973 80.2224 29.3768C80.4461 28.6359 80.6867 27.8523 80.9441 27.026C81.2016 26.1997 81.4431 25.4263 81.6686 24.7058C81.8923 23.9649 82.0841 23.3298 82.2439 22.8006C82.4241 22.2696 82.5387 21.9298 82.5875 21.7813C82.7358 21.3561 82.7378 21.0262 82.5936 20.7915C82.4477 20.5363 82.1395 20.4293 81.669 20.4705L81.3622 20.4973L81.8911 19.1217C82.0529 19.0869 82.2241 19.041 82.4046 18.984C82.5646 18.9288 82.7358 18.8829 82.9181 18.8464C83.1004 18.8098 83.304 18.7817 83.529 18.762C84.6949 18.66 85.4487 18.9135 85.7905 19.5225C86.1323 20.1315 86.0768 21.1462 85.624 22.5667C85.577 22.7357 85.4971 23.0003 85.3843 23.3606C85.2716 23.7208 85.1344 24.1553 84.9728 24.6641C84.8299 25.1506 84.6608 25.6909 84.4654 26.2851C84.2888 26.857 84.1121 27.4289 83.9354 28.0009C83.5182 29.3564 83.0614 30.8494 82.5651 32.4797C82.4373 32.9031 82.4828 33.1877 82.7016 33.3334C82.9205 33.4791 83.2011 33.5061 83.5434 33.4143C83.884 33.3021 84.2454 33.0747 84.6276 32.7321C85.0098 32.3895 85.3199 31.9296 85.558 31.3523L86.1547 32.1657Z" stroke="#663FBA" stroke-width="14.0418" mask="url(#path-1-outside-1_27068_58144)"/>
<path d="M131.474 8.91C130.352 11.1721 129.275 13.348 128.242 15.4375C127.804 16.3208 127.348 17.2366 126.875 18.1849C126.422 19.1313 125.967 20.0573 125.51 20.9629C125.072 21.8462 124.652 22.6971 124.25 23.5155C123.866 24.3116 123.525 25.0112 123.228 25.6143C122.842 26.39 122.456 27.1555 122.068 27.9107C121.681 28.666 121.322 29.3878 120.99 30.0763C120.679 30.763 120.415 31.3941 120.198 31.9696C119.98 32.5451 119.848 33.041 119.802 33.4572C119.753 33.8325 119.839 34.1135 120.061 34.3002C120.304 34.485 120.579 34.564 120.886 34.5372C121.091 34.5193 121.331 34.4467 121.609 34.3194C121.886 34.192 122.148 34.0043 122.394 33.756C122.663 33.5264 122.905 33.2373 123.122 32.8885C123.341 32.5603 123.514 32.1844 123.642 31.7611L124.542 32.8571C124.392 33.5091 124.158 34.1273 123.838 34.7117C123.518 35.2962 123.131 35.8144 122.676 36.2664C122.243 36.7371 121.741 37.1211 121.169 37.4184C120.618 37.7139 120.025 37.8895 119.391 37.9449C118.45 38.0272 117.628 37.9343 116.924 37.6661C116.223 37.4184 115.698 36.9593 115.351 36.2889C115.006 35.639 114.877 34.764 114.967 33.6639C115.076 32.562 115.464 31.2193 116.129 29.636C114.502 28.7066 112.628 28.1287 110.506 27.9022C109.743 29.7826 108.935 31.6257 108.083 33.4314C107.23 35.2167 106.277 36.8149 105.226 38.2259C104.176 39.6573 103.011 40.831 101.731 41.7467C100.453 42.683 99.0161 43.2209 97.4207 43.3604C96.1117 43.475 95.064 43.2781 94.2776 42.7698C93.493 42.282 92.959 41.5971 92.6757 40.715C92.3943 39.8534 92.3577 38.8467 92.5661 37.695C92.7967 36.5619 93.2523 35.4091 93.9329 34.2366C94.6135 33.0641 95.5151 31.9444 96.6378 30.8776C97.7586 29.7902 99.0899 28.87 100.632 28.1168C99.8479 27.8762 99.1149 27.5075 98.4326 27.0108C97.7689 26.4918 97.2207 25.8802 96.7882 25.1761C96.3538 24.4515 96.0777 23.6513 95.9598 22.7754C95.842 21.8995 95.9584 20.9927 96.3092 20.0552C96.66 19.1177 97.2101 18.3379 97.9594 17.7159C98.7293 17.0921 99.6121 16.582 100.608 16.1858C101.622 15.7673 102.707 15.4456 103.862 15.2209C105.017 14.9962 106.156 14.8142 107.277 14.6749C108.397 14.5151 109.457 14.3811 110.457 14.273C111.476 14.1426 112.348 13.9839 113.074 13.7967C113.714 13.1018 114.371 12.4879 115.046 11.9548C115.741 11.42 116.485 10.9736 117.278 10.6156C117.557 10.5088 117.867 10.3992 118.208 10.287C118.567 10.1525 118.93 10.0589 119.296 10.0063C119.661 9.93317 120.021 9.92231 120.375 9.9737C120.728 10.0046 121.038 10.1219 121.303 10.3254C121.614 10.5867 121.725 10.9068 121.634 11.2857C121.544 11.6646 121.279 12.0587 120.841 12.468C120.423 12.8755 119.84 13.2769 119.091 13.6721C118.341 14.0469 117.471 14.3498 116.481 14.5806C115.988 15.3039 115.513 16.1183 115.057 17.0239C114.6 17.9294 114.149 18.8964 113.703 19.9246C113.257 20.9529 112.815 22.0221 112.376 23.1322C111.956 24.2201 111.517 25.3302 111.06 26.4625C113.204 26.7077 115.128 27.2607 116.831 28.1216C117.198 27.3681 117.63 26.5266 118.125 25.597C118.64 24.6452 119.172 23.6609 119.722 22.6441C120.29 21.6051 120.869 20.5652 121.458 19.5244C122.046 18.4631 122.615 17.4343 123.167 16.438C124.47 14.1393 125.818 11.7543 127.209 9.2831L131.474 8.91ZM96.3727 41.6282C97.2317 41.553 98.0296 41.1328 98.7665 40.3676C99.5255 39.6211 100.253 38.63 100.949 37.3944C101.646 36.1792 102.327 34.78 102.993 33.1966C103.678 31.6115 104.379 29.9633 105.095 28.2518C103.313 28.6138 101.758 29.2136 100.43 30.0512C99.0998 30.8683 97.9851 31.7902 97.0857 32.8169C96.2049 33.8214 95.5229 34.8601 95.0397 35.9328C94.5769 37.0038 94.3208 37.9639 94.2715 38.8133C94.2239 39.683 94.3675 40.3815 94.7021 40.9087C95.059 41.4546 95.6159 41.6944 96.3727 41.6282ZM102.809 27.2152C103.77 26.8839 104.779 26.641 105.837 26.4866C106.673 24.4968 107.574 22.5425 108.539 20.6237C109.505 18.7049 110.569 16.9631 111.73 15.3982C110.798 15.5828 109.789 15.8256 108.702 16.1268C107.616 16.428 106.566 16.798 105.554 17.237C104.541 17.676 103.619 18.21 102.788 18.8392C101.977 19.4666 101.372 20.21 100.973 21.0692C100.644 21.7782 100.467 22.4635 100.442 23.1252C100.416 23.7664 100.488 24.3577 100.659 24.8992C100.851 25.439 101.129 25.9093 101.494 26.3101C101.879 26.7092 102.318 27.0109 102.809 27.2152Z" stroke="#663FBA" stroke-width="14.0418" mask="url(#path-1-outside-1_27068_58144)"/>
<path d="M133.33 19.2586C134.128 19.1888 134.756 19.4224 135.215 19.9593C135.264 19.8107 135.294 19.6844 135.306 19.5804C135.336 19.4541 135.37 19.3687 135.407 19.3242L138.782 19.0289C138.737 19.2184 138.642 19.5461 138.497 20.0122C138.352 20.4783 138.183 21.0187 137.989 21.6333C137.794 22.2274 137.592 22.8634 137.384 23.5412C137.173 24.1985 136.97 24.8242 136.775 25.4184C136.6 26.0108 136.439 26.5298 136.293 26.9754C136.165 27.3988 136.086 27.6736 136.056 27.7999C135.926 28.2028 135.971 28.4772 136.19 28.6229C136.408 28.7686 136.689 28.7956 137.031 28.7038C137.374 28.612 137.736 28.3949 138.118 28.0523C138.521 27.7079 138.831 27.248 139.049 26.6725L139.645 27.4859C139.484 27.9946 139.238 28.4799 138.907 28.9416C138.595 29.3811 138.228 29.7739 137.805 30.1201C137.402 30.4645 136.953 30.7511 136.458 30.9799C135.983 31.2069 135.5 31.3419 135.009 31.3848C134.375 31.4403 133.842 31.353 133.41 31.1229C132.998 30.891 132.717 30.5136 132.569 29.9908C132.018 30.5336 131.449 30.975 130.861 31.315C130.292 31.6532 129.732 31.8465 129.18 31.8948C128.485 31.9557 127.898 31.8524 127.422 31.5849C126.964 31.2953 126.618 30.8824 126.386 30.3462C126.153 29.8101 126.046 29.1703 126.063 28.4268C126.059 27.6647 126.203 26.8482 126.498 25.9774C127.195 23.8142 128.155 22.1845 129.378 21.0882C130.602 19.9919 131.919 19.3821 133.33 19.2586ZM134.798 21.2014C134.589 20.9312 134.28 20.8139 133.871 20.8497C133.482 20.8837 133.121 20.9978 132.788 21.1918C132.473 21.3636 132.157 21.6386 131.84 22.0167C131.541 22.3726 131.242 22.8419 130.943 23.4245C130.644 24.0072 130.335 24.7143 130.016 25.546C129.761 26.166 129.565 26.7499 129.427 27.2978C129.308 27.8235 129.255 28.2815 129.269 28.6719C129.283 29.0623 129.371 29.3637 129.534 29.5762C129.717 29.7869 129.982 29.877 130.33 29.8466C130.678 29.8162 131.047 29.6808 131.438 29.4405C131.83 29.2001 132.214 28.878 132.591 28.4741C132.629 28.2028 132.697 27.9289 132.797 27.6522L134.798 21.2014Z" stroke="#663FBA" stroke-width="14.0418" mask="url(#path-1-outside-1_27068_58144)"/>
<path d="M145.747 26.9521C145.585 27.4608 145.339 27.9461 145.009 28.4078C144.697 28.8473 144.329 29.2401 143.906 29.5863C143.503 29.9307 143.054 30.2173 142.559 30.4461C142.084 30.6731 141.602 30.8081 141.111 30.851C140.62 30.894 140.183 30.8497 139.801 30.7183C139.439 30.5851 139.151 30.3629 138.939 30.0518C138.726 29.7406 138.608 29.3387 138.586 28.8461C138.563 28.3534 138.657 27.7784 138.868 27.1211C138.915 26.9521 139.028 26.6021 139.209 26.0711C139.387 25.5196 139.589 24.8836 139.815 24.1632C140.038 23.4223 140.279 22.6387 140.536 21.8123C140.794 20.986 141.035 20.2127 141.261 19.4922C141.484 18.7513 141.676 18.1162 141.836 17.587C142.016 17.056 142.131 16.7162 142.18 16.5676C142.328 16.1425 142.33 15.8125 142.186 15.5778C142.04 15.3227 141.732 15.2157 141.261 15.2568L140.954 15.2837L141.483 13.9081C141.645 13.8733 141.816 13.8274 141.997 13.7704C142.157 13.7152 142.328 13.6693 142.51 13.6327C142.693 13.5962 142.896 13.568 143.121 13.5484C144.287 13.4464 145.041 13.6999 145.383 14.3089C145.724 14.9179 145.669 15.9326 145.216 17.3531C145.169 17.5221 145.089 17.7867 144.976 18.1469C144.864 18.5071 144.727 18.9416 144.565 19.4504C144.422 19.937 144.253 20.4773 144.058 21.0715C143.881 21.6434 143.704 22.2153 143.528 22.7872C143.11 24.1428 142.654 25.6357 142.157 27.2661C142.029 27.6895 142.075 27.974 142.294 28.1198C142.513 28.2655 142.793 28.2925 143.136 28.2007C143.476 28.0885 143.838 27.8611 144.22 27.5185C144.602 27.1759 144.912 26.7159 145.15 26.1386L145.747 26.9521Z" stroke="#663FBA" stroke-width="14.0418" mask="url(#path-1-outside-1_27068_58144)"/>
<path d="M151.859 26.4173C151.697 26.9261 151.451 27.4113 151.121 27.8731C150.809 28.3126 150.441 28.7054 150.018 29.0516C149.615 29.3959 149.166 29.6825 148.671 29.9113C148.196 30.1384 147.714 30.2734 147.223 30.3163C146.732 30.3592 146.295 30.315 145.913 30.1836C145.551 30.0504 145.263 29.8282 145.051 29.5171C144.838 29.2059 144.72 28.804 144.698 28.3113C144.675 27.8187 144.769 27.2437 144.98 26.5864C145.027 26.4174 145.14 26.0674 145.321 25.5363C145.499 24.9849 145.701 24.3489 145.927 23.6284C146.15 22.8875 146.391 22.1039 146.648 21.2776C146.906 20.4513 147.147 19.6779 147.373 18.9575C147.596 18.2165 147.788 17.5815 147.948 17.0522C148.128 16.5212 148.243 16.1814 148.292 16.0329C148.44 15.6077 148.442 15.2778 148.298 15.0431C148.152 14.7879 147.844 14.6809 147.373 14.7221L147.066 14.7489L147.595 13.3733C147.757 13.3386 147.928 13.2927 148.109 13.2357C148.269 13.1804 148.44 13.1346 148.622 13.098C148.805 13.0614 149.008 13.0333 149.233 13.0136C150.399 12.9116 151.153 13.1651 151.495 13.7741C151.836 14.3831 151.781 15.3979 151.328 16.8183C151.281 16.9873 151.201 17.252 151.088 17.6122C150.976 17.9724 150.839 18.4069 150.677 18.9157C150.534 19.4022 150.365 19.9426 150.17 20.5367C149.993 21.1087 149.816 21.6806 149.64 22.2525C149.222 23.608 148.766 25.101 148.269 26.7314C148.141 27.1547 148.187 27.4393 148.406 27.585C148.625 27.7308 148.905 27.7577 149.248 27.666C149.588 27.5537 149.95 27.3263 150.332 26.9837C150.714 26.6411 151.024 26.1812 151.262 25.6039L151.859 26.4173Z" stroke="#663FBA" stroke-width="14.0418" mask="url(#path-1-outside-1_27068_58144)"/>
</svg>
