<svg width="121" height="180" viewBox="0 0 121 180" fill="none" xmlns="http://www.w3.org/2000/svg">
<path d="M73.8535 43.7942L55.8525 25.4434L37.7534 42.7226L42.1357 89.1353L47.8472 132.004L61.1076 130.047L73.8535 43.7942Z" fill="url(#paint0_linear_11435_15912)"/>
<g filter="url(#filter0_f_11435_15912)">
<path d="M5.55859 155.647L15.4964 151.195L51.9083 166.619L88.7178 151.036L98.9736 155.647L51.9083 176L5.55859 155.647Z" fill="url(#paint1_linear_11435_15912)"/>
</g>
<path d="M8.90637 111.884L6.2229 117.766L1 119.983L8.90258 111.884H8.90637Z" fill="#D1B9FF"/>
<path d="M52.05 128.231L51.7544 172.243L8.90234 154.1V128.474L8.90613 128.466L43.9655 143.392L52.05 128.231Z" fill="url(#paint2_linear_11435_15912)"/>
<path d="M95.203 128.838V154.1L51.7672 172.247L51.7559 172.243L52.0515 128.231L60.3558 142.831L95.203 128.838Z" fill="url(#paint3_linear_11435_15912)"/>
<path d="M95.2013 128.837L60.3541 142.83L52.0498 128.23L95.1899 112.759L102.145 126.047L95.2013 128.837Z" fill="#DCD0FE"/>
<path d="M95.1899 112.76L52.0498 128.231L52.3568 97.0605L95.1899 112.76Z" fill="#8851FE"/>
<path d="M52.3569 97.0605L52.0499 128.231L8.92871 111.876L52.3569 97.0605Z" fill="#8851FE"/>
<path d="M8.90234 128.473V154.098L51.7544 172.242L51.7658 172.246L95.2015 154.098V128.837V128.81" stroke="#8851FE" stroke-width="0.297186" stroke-miterlimit="10"/>
<path d="M95.2015 112.762L95.1901 112.759L52.357 97.0596L8.92888 111.875L8.90613 111.883H8.90234" stroke="#8851FE" stroke-width="0.297186" stroke-miterlimit="10"/>
<path d="M51.7549 172.257V172.242L52.0506 128.23L43.9661 143.391L8.90667 128.465L2.57324 125.767L6.22321 117.766L8.90667 111.883L8.91425 111.868L8.92941 111.876L52.0506 128.23L95.1907 112.759L102.146 126.047L95.202 128.837L60.3549 142.83L52.0506 128.23" stroke="#8851FE" stroke-width="0.297186" stroke-miterlimit="10"/>
<path d="M52.3578 97.0596L52.0508 128.23" stroke="#8851FE" stroke-width="0.297186" stroke-miterlimit="10"/>
<path d="M8.91395 111.868L8.90258 111.883L1 119.983L6.2229 117.766" stroke="#8851FE" stroke-width="0.297186" stroke-miterlimit="10"/>
<g clip-path="url(#clip0_11435_15912)">
<path d="M87.7231 111.367C57.9292 110.917 53.4955 92.5007 53.4955 92.5007L75.3111 87.7469C75.3111 87.7469 79.3773 101.755 103.534 101.202L87.7231 111.367Z" fill="white" stroke="#8851FE" stroke-width="0.146932" stroke-miterlimit="10"/>
<path d="M61.7219 94.434L72.3202 91.6124" stroke="#8851FE" stroke-width="0.146932" stroke-miterlimit="10"/>
<path d="M65.1804 95.7251L71.4588 93.9074" stroke="#8851FE" stroke-width="0.146932" stroke-miterlimit="10"/>
<path d="M64.8657 101.308L77.97 96.843" stroke="#8851FE" stroke-width="0.146932" stroke-miterlimit="10"/>
<path d="M67.2882 103.034L80.2432 98.1313" stroke="#8851FE" stroke-width="0.146932" stroke-miterlimit="10"/>
<path d="M70.4642 105.008L83.0791 99.2537" stroke="#8851FE" stroke-width="0.146932" stroke-miterlimit="10"/>
<path d="M76.2874 106.721L88.9023 100.967" stroke="#8851FE" stroke-width="0.146932" stroke-miterlimit="10"/>
<path d="M72.8598 106.268L85.4746 100.517" stroke="#8851FE" stroke-width="0.146932" stroke-miterlimit="10"/>
<path d="M89.7324 107.178C89.9138 106.289 88.7374 105.304 87.1049 104.978C85.4724 104.653 84.002 105.109 83.8206 105.998C83.6392 106.887 84.8156 107.872 86.4481 108.198C88.0806 108.523 89.551 108.067 89.7324 107.178Z" fill="white" stroke="#8851FE" stroke-width="0.146932" stroke-miterlimit="10"/>
<path d="M88.9964 107.031C89.1328 106.363 88.2486 105.622 87.0215 105.377C85.7944 105.132 84.6891 105.475 84.5526 106.144C84.4162 106.813 85.3004 107.553 86.5276 107.798C87.7547 108.043 88.86 107.7 88.9964 107.031Z" fill="white" stroke="#8851FE" stroke-width="0.146932" stroke-miterlimit="10"/>
<path d="M87.6076 106.678C87.5609 106.113 87.5687 105.535 87.6504 104.97C87.6513 104.946 87.6523 104.918 87.6632 104.898C87.678 104.861 87.6633 104.895 87.6565 104.895C87.7071 104.896 87.7665 104.935 87.8096 104.957C87.9292 105.012 88.0451 105.073 88.1576 105.138C88.3925 105.271 88.6097 105.424 88.8196 105.594C88.8852 105.647 89.0147 105.617 89.0513 105.539C89.2014 105.225 89.2411 104.881 89.142 104.546L88.8524 104.706C89.0594 104.954 89.4241 105.047 89.7199 104.904C90.0156 104.762 90.1737 104.415 90.1112 104.095C90.0685 103.878 89.7412 103.961 89.7838 104.178C89.8181 104.346 89.7266 104.539 89.562 104.606C89.3974 104.673 89.2107 104.606 89.1008 104.473C88.9909 104.34 88.7631 104.471 88.8112 104.633C88.8833 104.874 88.8771 105.134 88.764 105.363L88.9957 105.308C88.7466 105.103 88.4796 104.924 88.1913 104.773C87.9793 104.661 87.5968 104.407 87.3978 104.675C87.316 104.786 87.3105 104.936 87.2956 105.066C87.2756 105.239 87.259 105.417 87.2492 105.591C87.229 105.953 87.236 106.312 87.2667 106.672C87.2734 106.765 87.3312 106.845 87.4291 106.848C87.5134 106.85 87.6108 106.774 87.6041 106.682L87.6076 106.678Z" fill="#8851FE"/>
<path d="M108.043 80.8154C108.73 81.3416 109.104 82.0108 108.877 82.3081C108.655 82.6055 107.918 82.415 107.231 81.8862C106.544 81.36 106.169 80.6908 106.394 80.3934C106.621 80.0962 107.356 80.2866 108.043 80.8154Z" fill="white"/>
<path d="M108.878 82.3065L108.309 83.0625L107.983 83.4908L107.691 83.8763L102.185 91.1584C102.091 91.2844 101.899 91.3253 101.667 91.2828L101.664 91.2827C101.338 91.2376 100.928 91.0408 100.538 90.7417C100.148 90.4399 99.8505 90.0894 99.7194 89.7846C99.6155 89.5707 99.6049 89.3749 99.6985 89.2488L106.394 80.3919C106.172 80.6893 106.547 81.3586 107.231 81.8847C107.918 82.4134 108.656 82.6039 108.878 82.3065Z" fill="white"/>
<path d="M108.308 83.065C108.976 83.8351 108.308 84.7711 108.308 84.7711L102.943 91.8667L102.898 91.9297L102.537 91.1759L102.856 91.257L102.859 91.257C103 91.0706 107.493 85.2371 108 84.4562C108.318 83.9659 107.979 83.4907 107.979 83.4907L108.305 83.0624L108.308 83.065Z" fill="white"/>
<path d="M107.98 83.4902C107.98 83.4902 108.316 83.9654 108 84.4557C107.496 85.2367 103.001 91.0701 102.859 91.2566L102.857 91.2565L102.537 91.1755L107.368 84.7905C107.368 84.7905 107.879 84.1462 107.689 83.8783L107.98 83.4928L107.98 83.4902Z" fill="white"/>
<path d="M101.661 91.2814L93.6162 101.92L93.4096 102.079C93.0944 102.219 92.6003 102.11 92.1802 101.784C91.7602 101.459 91.5276 101.012 91.576 100.666L91.674 100.422L99.7189 89.7834C99.8475 90.088 100.145 90.4386 100.538 90.7404C100.928 91.0395 101.335 91.2362 101.664 91.2815L101.661 91.2814Z" fill="white"/>
<path d="M93.4123 102.079L89.9465 104.746L91.5762 100.666C91.5279 101.012 91.7579 101.459 92.1804 101.785C92.603 102.11 93.0946 102.219 93.4098 102.079L93.4123 102.079Z" fill="white"/>
<path d="M99.6971 89.2487C99.6035 89.3747 99.6141 89.5705 99.718 89.7845C99.8465 90.0891 100.144 90.4397 100.537 90.7415C100.927 91.0406 101.334 91.2373 101.663 91.2825L101.665 91.2826C101.897 91.3277 102.09 91.2868 102.183 91.1608" stroke="#8851FE" stroke-width="0.146932" stroke-miterlimit="10"/>
<path d="M108.876 82.3061C108.654 82.6035 107.917 82.413 107.23 81.8842C106.543 81.3581 106.168 80.6888 106.393 80.3915C106.62 80.0942 107.355 80.2847 108.042 80.8134C108.729 81.3396 109.103 82.0088 108.876 82.3061V82.3061Z" stroke="#8851FE" stroke-width="0.146932" stroke-miterlimit="10"/>
<path d="M91.6733 100.423C91.6172 100.496 91.5914 100.575 91.5753 100.667C91.527 101.013 91.757 101.459 92.1796 101.785C92.6021 102.111 93.0937 102.22 93.4089 102.079C93.4916 102.043 93.562 101.994 93.6181 101.921" stroke="#8851FE" stroke-width="0.146932" stroke-miterlimit="10"/>
<path d="M106.393 80.3913L99.6978 89.2457L99.6977 89.2482" stroke="#8851FE" stroke-width="0.146932" stroke-miterlimit="10"/>
<path d="M108.877 82.3064L108.308 83.0649L107.979 83.4906L107.688 83.8761L102.181 91.1607" stroke="#8851FE" stroke-width="0.146932" stroke-miterlimit="10"/>
<path d="M99.7186 89.7847L91.6736 100.423L91.5756 100.667L89.9459 104.746L93.4117 102.08L93.6184 101.921L101.661 91.2827" stroke="#8851FE" stroke-width="0.146932" stroke-miterlimit="10"/>
<path d="M108.307 83.0644C108.975 83.8345 108.307 84.7705 108.307 84.7705L102.942 91.866L102.897 91.9291L102.536 91.1753L107.366 84.7904C107.366 84.7904 107.878 84.146 107.687 83.8782" stroke="#8851FE" stroke-width="0.146932" stroke-miterlimit="10"/>
<path d="M107.978 83.4902C107.978 83.4902 108.314 83.9654 107.998 84.4557C107.494 85.2367 102.999 91.0701 102.857 91.2566L102.855 91.2565L102.535 91.1755" stroke="#8851FE" stroke-width="0.146932" stroke-miterlimit="10"/>
<path d="M90.8656 88.8892C90.9828 89.1464 90.8642 89.4533 90.5979 89.5679L71.3218 97.9856C71.0656 98.0933 70.7696 97.9771 70.6625 97.7164L68.9149 93.481L88.8458 84.4592L90.8622 88.8892L90.8656 88.8892ZM88.8406 87.9426C88.8426 87.1405 88.2043 86.4939 87.4096 86.5012C86.6148 86.5085 85.9667 87.1669 85.9647 87.9689C85.9627 88.771 86.6077 89.4176 87.4025 89.4103C88.1972 89.403 88.8387 88.7446 88.8406 87.9426ZM84.6753 90.5771L84.3604 89.9207L81.8724 91.0276L82.2008 91.7145L84.6719 90.5805L84.6753 90.5771ZM81.1593 92.1012L80.8443 91.4448L78.3564 92.5585L78.6847 93.2386L81.1559 92.1047L81.1593 92.1012ZM81.0891 90.491L80.7374 89.7364L70.5262 94.2139L70.9048 94.9887L81.0857 90.4911L81.0891 90.491ZM77.3263 93.788L77.018 93.1383L74.5234 94.2452L74.8517 94.9321L77.3229 93.788L77.3263 93.788ZM73.9652 95.2869L73.6502 94.6373L71.1623 95.7441L71.4906 96.431L73.9618 95.2869L73.9652 95.2869Z" fill="white"/>
<path d="M85.0327 76.0411L88.0808 82.7508L68.2001 91.7174L65.321 84.7342C65.2172 84.4836 65.3358 84.1867 65.5954 84.0722L84.38 75.7922C84.6295 75.6845 84.9222 75.794 85.0327 76.0445L85.0327 76.0411Z" fill="white"/>
<path d="M88.0875 82.7667L88.8478 84.4513L68.9177 93.4685L68.2013 91.7257L88.0808 82.7667L88.0875 82.7667Z" fill="#8851FE"/>
<path d="M84.3584 89.9255L84.6733 90.5853L82.1987 91.7194L81.8704 91.0325L84.3584 89.9255Z" fill="#8851FE"/>
<path d="M80.8437 91.4479L81.1553 92.1044L78.6841 93.2418L78.3557 92.5617L80.8437 91.4479Z" fill="#8851FE"/>
<path d="M80.7372 89.7369L81.0889 90.4911L70.9051 94.9858L70.5265 94.2115L80.7372 89.7369Z" fill="#8851FE"/>
<path d="M77.0194 93.1402L77.3242 93.79L74.853 94.9308L74.5247 94.2473L77.0194 93.1402Z" fill="#8851FE"/>
<path d="M73.6489 94.6384L73.9639 95.288L71.4927 96.4323L71.1643 95.7453L73.6489 94.6384Z" fill="#8851FE"/>
<path d="M88.0881 82.7564L88.8485 84.4431L90.865 88.8763C90.9822 89.1337 90.8636 89.4409 90.5973 89.5556L71.3195 97.9801C71.0633 98.0879 70.7673 97.9715 70.6601 97.7107L68.9126 93.4722L68.1961 91.7273L65.317 84.741C65.2132 84.4903 65.3318 84.1933 65.5914 84.0787L84.3771 75.7948C84.6266 75.6871 84.9193 75.7966 85.0298 76.0472L88.078 82.7599" stroke="#8851FE" stroke-width="0.19591" stroke-miterlimit="10"/>
<path d="M68.2014 91.7209L88.0803 82.7662L88.0871 82.7661" stroke="#8851FE" stroke-width="0.19591" stroke-miterlimit="10"/>
<path d="M68.9181 93.4692L88.8476 84.4561" stroke="#8851FE" stroke-width="0.19591" stroke-miterlimit="10"/>
<path d="M88.8366 87.951C88.8346 88.7539 88.1931 89.413 87.3982 89.4203C86.6033 89.4276 85.9583 88.7804 85.9603 87.9775C85.9623 87.1747 86.6105 86.5155 87.4054 86.5082C88.2002 86.5009 88.8385 87.1482 88.8366 87.951Z" stroke="#8851FE" stroke-width="0.19591" stroke-miterlimit="10"/>
</g>
<path d="M23.9738 95.5078L25.5345 97.8629C26.2739 99.5455 29.1379 99.8676 31.9336 98.5863C34.725 97.3049 36.3917 94.9016 35.6505 93.2224L34.8809 90.5751C34.436 92.2294 32.7436 94.0069 30.3639 95.0975C27.942 96.2071 25.4776 96.3067 23.9738 95.5078Z" fill="white"/>
<path d="M17.18 85.202L18.4971 87.1881L19.8026 89.1595C21.5487 90.1433 24.4754 90.0443 27.3522 88.7276C30.3241 87.365 32.3779 85.0887 32.7167 83.0495L32.0583 80.7867L31.3869 78.4759C31.5501 79.577 31.1269 80.8146 30.2526 81.9901C29.2753 83.3072 27.7375 84.5464 25.83 85.4209C22.3248 87.0258 18.7405 86.8746 17.18 85.202Z" fill="white"/>
<path d="M21.978 76.6957C20.7085 77.279 19.6037 78.0251 18.7171 78.8487C19.1265 79.4279 19.5629 79.9602 20.0076 80.4685C21.1286 81.7442 24.1776 81.2947 24.1776 81.2947C24.1776 81.2947 28.0325 81.1114 29.0231 81.3239C29.4098 81.4026 29.8514 81.6978 30.2545 82.0294C31.1287 80.8481 31.5518 79.6045 31.3886 78.498L31.3904 78.4946L31.1702 77.7355C30.1051 75.3114 25.9926 74.8469 21.978 76.6957Z" fill="white"/>
<path d="M13.3684 71.4427C11.0698 70.638 9.8203 72.1293 9.00239 73.3626C8.14822 74.7628 9.26221 73.2 10.3214 74.2978C11.3815 75.3939 12.7034 76.4154 12.9671 77.9396C13.2283 79.4647 12.7421 81.1653 14.5723 82.2381C15.9272 83.0338 16.4099 83.7902 16.5702 84.129C16.6047 84.202 16.6253 84.2567 16.6329 84.287C16.6383 84.3052 16.6423 84.3139 16.6423 84.3139L17.1826 85.1402L17.1842 85.1411C18.7446 86.8297 22.3278 86.9817 25.8317 85.3605C27.7385 84.477 29.2756 83.2254 30.2523 81.8953C29.8492 81.5621 29.4076 81.2656 29.0209 81.1866C28.0304 80.9732 24.176 81.1581 24.176 81.1581C24.176 81.1581 21.1276 81.6104 20.0065 80.3287C19.5617 79.818 19.1253 79.2832 18.7159 78.7012C18.0937 77.823 17.5341 76.8419 17.1046 75.6905C16.3909 73.7799 15.6644 72.2439 13.3684 71.4427Z" fill="#D1B9FF"/>
<path d="M34.8858 90.5586C35.0627 89.9017 35.0433 89.2638 34.7919 88.6958L32.7086 81.909C32.7793 82.2805 32.7789 82.6691 32.7126 83.0689C32.3737 85.1095 30.32 87.3874 27.3482 88.7509C24.4715 90.0685 21.5449 90.1675 19.7979 89.1846C19.4864 89.0087 19.2126 88.7982 18.9823 88.554L22.7504 94.2232C22.9905 94.768 23.4181 95.1936 23.9788 95.4932C25.4825 96.2925 27.9469 96.1929 30.3688 95.0828C32.7484 93.9918 34.4408 92.2136 34.8858 90.5586Z" fill="#8361D6"/>
<path d="M16.6304 84.1944C16.6054 84.1445 16.5856 84.0928 16.5675 84.0378" stroke="#8851FE" stroke-width="0.146932" stroke-miterlimit="10"/>
<path d="M17.1797 85.0471C16.9553 84.8021 16.7735 84.5292 16.6395 84.2224" stroke="#8851FE" stroke-width="0.146932" stroke-miterlimit="10"/>
<path d="M31.3885 78.4715C31.5517 79.5717 31.1285 80.8082 30.2542 81.9827C29.2769 83.2987 27.7391 84.5368 25.8315 85.4106C22.3262 87.0141 18.7417 86.8631 17.1811 85.1919" stroke="#8851FE" stroke-width="0.146932" stroke-miterlimit="10"/>
<path d="M18.7171 78.8525C19.6037 78.0285 20.7085 77.2819 21.9779 76.6982C25.9924 74.8483 30.1048 75.313 31.1699 77.7387C31.2743 77.9833 31.3502 78.2371 31.3885 78.4973" stroke="#8851FE" stroke-width="0.146932" stroke-miterlimit="10"/>
<path d="M35.6503 93.2305C36.3916 94.9084 34.7248 97.3097 31.9333 98.59C29.1376 99.8703 26.2735 99.5486 25.534 97.8673" stroke="#8851FE" stroke-width="0.146932" stroke-miterlimit="10"/>
<path d="M18.9828 88.5508L22.7509 94.2215C22.9911 94.7665 23.4186 95.1921 23.9794 95.4919C25.4831 96.2913 27.9474 96.1918 30.3693 95.0814C32.7489 93.9903 34.4413 92.2116 34.8862 90.5562C35.0632 89.8992 35.0437 89.2611 34.7924 88.6929L32.709 81.9044L32.518 81.283C32.6065 81.4836 32.6702 81.6907 32.709 81.9044C32.7797 82.276 32.7793 82.6646 32.713 83.0645C32.3742 85.1056 30.3204 87.3841 27.3487 88.7479C24.472 90.0657 21.5454 90.1647 19.7985 89.1816C19.487 89.0056 19.2131 88.7951 18.9828 88.5508C18.76 88.3126 18.5772 88.0432 18.4457 87.7419L18.9828 88.5508V88.5508Z" stroke="#8851FE" stroke-width="0.146932" stroke-miterlimit="10"/>
<path d="M34.8806 90.6726L34.8822 90.6777L35.6517 93.3268" stroke="#8851FE" stroke-width="0.146932" stroke-miterlimit="10"/>
<path d="M32.7174 83.1857L32.0591 80.9208L31.3877 78.6077L31.3878 78.6034L31.1692 77.8481" stroke="#8851FE" stroke-width="0.146932" stroke-miterlimit="10"/>
<path d="M30.2531 81.872C29.85 81.5395 29.4084 81.2436 29.0217 81.1647C28.0311 80.9516 24.1765 81.1358 24.1765 81.1358C24.1765 81.1358 21.1279 81.5867 20.0068 80.3076C19.5621 79.7979 19.1257 79.2642 18.7162 78.6834C18.0941 77.8069 17.5346 76.8277 17.1052 75.6787C16.3915 73.772 15.6651 72.2392 13.369 71.4393C11.0704 70.6361 9.73212 72.1048 8.95052 73.4085C8.1131 74.8053 9.33026 73.042 10.5508 74.5298C11.6109 75.6237 12.7036 76.4017 12.9672 77.9227C13.2283 79.4446 12.7419 81.1417 14.5722 82.2124C15.9271 83.0066 16.4097 83.7615 16.5701 84.0997C16.6046 84.1725 16.6251 84.227 16.6327 84.2573C16.6381 84.2755 16.6421 84.2841 16.6421 84.2841L17.1824 85.1087L17.184 85.1096L18.501 87.1109L19.8065 89.0973" stroke="#8851FE" stroke-width="0.146932" stroke-miterlimit="10"/>
<path d="M23.9741 95.3926L25.5357 97.7635" stroke="#8851FE" stroke-width="0.146932" stroke-miterlimit="10"/>
<path d="M32.521 81.4102C32.521 81.4102 32.3115 80.8868 32.0594 80.9226" stroke="#8851FE" stroke-width="0.146932" stroke-miterlimit="10"/>
<path d="M18.448 87.5799C18.448 87.5799 18.2702 87.1982 18.4961 87.0477" stroke="#8851FE" stroke-width="0.146932" stroke-miterlimit="10"/>
<path d="M37.7224 123.386L57.1399 123.368C56.8686 123.948 56.3063 124.313 55.6852 124.315L37.2785 124.367L37.723 123.417L37.7202 123.386L37.7224 123.386Z" fill="white"/>
<path d="M37.7184 123.567L37.7191 123.596L37.2802 124.514L15.0934 102.667L15.681 101.438L37.6623 123.567L37.7184 123.567Z" fill="white"/>
<path d="M35.1809 114.08C35.3433 114.24 35.2375 114.514 35.0126 114.518L30.7267 114.607C30.657 114.609 30.5889 114.581 30.5388 114.531L26.3168 110.268C26.1566 110.108 26.2669 109.834 26.49 109.834L30.7768 109.822C30.8423 109.823 30.9079 109.849 30.9555 109.897L35.1809 114.08Z" fill="white"/>
<path d="M35.0346 104.369L50.9544 120.373L42.9264 120.301L26.6211 104.359L35.0346 104.369Z" fill="white"/>
<path d="M35.0755 101.444L57.1418 123.465L37.7842 123.555L37.7279 123.556L15.6846 101.357L35.0755 101.444ZM50.9544 120.394L35.0233 104.368L26.603 104.358L42.9199 120.321L50.9544 120.394ZM35.0277 114.489C35.2526 114.485 35.3584 114.211 35.196 114.05L30.9711 109.869C30.9235 109.821 30.8579 109.795 30.7924 109.794L26.5062 109.806C26.2831 109.806 26.1729 110.08 26.3331 110.24L30.5546 114.502C30.6046 114.552 30.6727 114.58 30.7424 114.578L35.0277 114.489Z" fill="white"/>
<path d="M65.2154 104.06C65.7277 104.563 65.8675 105.338 65.5588 105.98L57.2185 123.387L35.2308 101.442L43.963 83.2123L65.2154 104.06ZM64.8986 105.233L44.2705 84.997L36.4797 101.338L57.1089 121.494L64.8986 105.233Z" fill="white"/>
<path d="M66.3351 103.875C66.8705 104.398 67.0131 105.205 66.6921 105.876L58.8332 122.295C58.8332 122.295 58.2947 123.257 57.398 123.338C57.3514 123.342 57.3024 123.344 57.2531 123.344L65.5779 105.954C65.8861 105.312 65.7468 104.538 65.2359 104.036L44.04 83.1992L45.2259 83.1441L66.3351 103.875Z" fill="white"/>
<path d="M44.271 84.9943L64.9021 105.231L57.1115 121.493L36.4793 101.336L44.271 84.9943ZM60.2486 110.657C60.321 110.505 60.2894 110.322 60.1652 110.202L54.3668 104.468L56.3265 100.377C56.425 100.171 56.3846 99.9226 56.2203 99.7605L45.0132 88.6907C44.7566 88.435 44.3279 88.5033 44.1718 88.8305L39.33 98.9361C39.2315 99.1424 39.2721 99.3928 39.4361 99.5527L48.2614 108.32L47.6518 109.596C47.5771 109.748 47.6041 109.929 47.7301 110.045L56.0201 118.282C56.2095 118.471 56.5279 118.422 56.6433 118.182L60.2486 110.657Z" fill="#D1B9FF"/>
<path d="M60.1458 110.169C60.27 110.289 60.3017 110.472 60.2292 110.624L56.6239 118.149C56.5085 118.389 56.1901 118.438 56.0007 118.249L47.7108 110.011C47.5848 109.896 47.5578 109.714 47.6325 109.562L48.2421 108.287L51.2209 102.071C51.338 101.826 51.6515 101.773 51.8409 101.962L54.3474 104.435L60.1458 110.169Z" fill="#8361D6"/>
<path d="M56.237 99.7881C56.4014 99.9502 56.4418 100.198 56.3432 100.405L54.3822 104.498L51.8738 102.024C51.6842 101.835 51.3705 101.888 51.2533 102.132L48.2724 108.351L39.4402 99.5807C39.276 99.4208 39.2354 99.1703 39.334 98.9639L44.179 88.8543C44.3352 88.5269 44.7643 88.4586 45.0211 88.7144L56.237 99.7881Z" fill="white"/>
<path d="M43.9642 83.2121L35.2315 101.442L57.2192 123.386L65.56 105.979C65.8688 105.337 65.729 104.562 65.2166 104.06L43.9642 83.2121V83.2121Z" stroke="#8851FE" stroke-width="0.146932" stroke-miterlimit="10"/>
<path d="M44.2712 84.9951L36.4791 101.337L57.1113 121.493L64.9023 105.231L44.2712 84.9951Z" stroke="#8851FE" stroke-width="0.146932" stroke-miterlimit="10"/>
<path d="M35.142 101.474L15.769 101.391L15.1801 102.622L37.4115 124.504L55.7443 124.381C56.3629 124.377 56.9218 124.022 57.1902 123.461C57.2397 123.461 57.289 123.459 57.3359 123.455C58.2371 123.373 58.7782 122.408 58.7782 122.408L66.6738 105.943C66.9963 105.27 66.8528 104.46 66.3145 103.936L45.0906 83.1537L43.8986 83.2093" stroke="#8851FE" stroke-width="0.146932" stroke-miterlimit="10"/>
<path d="M15.6846 101.359L37.7277 123.557L37.784 123.556L57.1417 123.465" stroke="#8851FE" stroke-width="0.146932" stroke-miterlimit="10"/>
<path d="M37.2806 124.429L37.7188 123.512" stroke="#8851FE" stroke-width="0.146932" stroke-miterlimit="10"/>
<path d="M26.3158 110.268L30.5378 114.531C30.5878 114.581 30.656 114.609 30.7256 114.607L35.0116 114.518C35.2365 114.514 35.3423 114.24 35.1799 114.079L30.9546 109.897C30.907 109.849 30.8413 109.823 30.7759 109.822L26.489 109.834C26.2659 109.834 26.1556 110.108 26.3158 110.268V110.268Z" stroke="#8851FE" stroke-width="0.146932" stroke-miterlimit="10"/>
<path d="M54.3802 104.497L56.3414 100.404C56.4399 100.198 56.3995 99.9497 56.2351 99.7876L45.0193 88.7143C44.7624 88.4584 44.3334 88.5268 44.1772 88.8542L39.3318 98.9638C39.2333 99.1702 39.2739 99.4207 39.4381 99.5805L48.2703 108.351" stroke="#8851FE" stroke-width="0.146932" stroke-miterlimit="10"/>
<path d="M54.3465 104.435L60.1449 110.168C60.2691 110.289 60.3008 110.472 60.2283 110.624L56.6228 118.149C56.5074 118.388 56.189 118.438 55.9996 118.248L47.7097 110.011C47.5837 109.896 47.5567 109.714 47.6314 109.562L48.241 108.287L51.22 102.07C51.3371 101.826 51.6506 101.773 51.8401 101.962L54.3465 104.435V104.435Z" stroke="#8851FE" stroke-width="0.146932" stroke-miterlimit="10"/>
<path d="M42.9253 120.302L26.6201 104.36L35.0337 104.369L50.9534 120.373L42.9253 120.302Z" stroke="#8851FE" stroke-width="0.146932" stroke-miterlimit="10"/>
<path d="M54.9001 85.2761L54.8853 85.3427L54.8845 85.3426L48.0978 85.7918L45.3779 85.9717L44.3716 82.7923L41.1247 72.5357L41.125 72.5342L54.9001 85.2761Z" fill="white"/>
<path d="M52.2084 97.4666L52.2067 97.4671L38.4281 84.7736L44.4213 82.6539L45.4273 85.8314L48.1466 85.6518L48.1465 85.6525L52.2084 97.4666Z" fill="white"/>
<path d="M54.892 85.2751L54.8928 85.2752L54.9076 85.2089L41.1658 72.5378L41.1664 72.5354L41.7355 72.1697L55.7109 85.0758L52.9916 97.2831L52.1741 97.4762L54.8919 85.2758L54.892 85.2751Z" fill="white"/>
<path d="M54.9329 85.2936L52.2247 97.4662L48.1714 85.7421L48.1716 85.7413L54.933 85.2929L54.9329 85.2936Z" fill="white"/>
<path d="M44.3466 82.6941L38.3793 84.8015L41.1045 72.5342L44.3466 82.6941Z" fill="white"/>
<path d="M52.1728 97.4761L52.9902 97.2831L55.7097 85.0757L41.7345 72.1697L41.1654 72.5354L41.1649 72.5378L41.1645 72.5393L38.4229 84.8465L52.1711 97.4766L52.1728 97.4761Z" stroke="#8851FE" stroke-width="0.15949" stroke-miterlimit="10"/>
<path d="M41.123 72.5332L41.1244 72.5343L54.8993 85.2762L54.8845 85.3428L54.8837 85.3427L48.097 85.792L45.3771 85.972L44.3708 82.7925L41.1241 72.5359L41.123 72.5332Z" stroke="#8851FE" stroke-width="0.15949" stroke-miterlimit="10"/>
<path d="M44.3758 82.6567L38.3776 84.7866" stroke="#8851FE" stroke-width="0.15949" stroke-miterlimit="10"/>
<path d="M54.932 85.2948L52.2237 97.4674L48.1706 85.7433" stroke="#8851FE" stroke-width="0.15949" stroke-miterlimit="10"/>
<g clip-path="url(#clip1_11435_15912)">
<path d="M37.5671 33.9956C37.3741 52.7107 43.9492 67.9393 52.2558 68.02C60.5625 68.1006 67.4564 52.9996 67.6493 34.2876C67.8423 15.5755 61.2642 0.343802 52.9545 0.263162C44.6448 0.182522 37.76 15.2866 37.5671 33.9956Z" fill="url(#paint4_linear_11435_15912)"/>
<path d="M74.0867 34.3496C74.2797 15.6406 67.7046 0.408937 59.3949 0.328296L52.9535 0.265787C61.2633 0.343375 67.8413 15.5781 67.6484 34.2871C67.4555 52.9961 60.5646 68.1002 52.2549 68.0195L58.6963 68.082C67.006 68.1627 73.8938 53.0617 74.0867 34.3496Z" fill="url(#paint5_linear_11435_15912)"/>
<path d="M52.2558 68.02C60.5655 68.1006 67.4564 52.9996 67.6493 34.2876C67.8423 15.5755 61.2642 0.343803 52.9545 0.263163C44.6448 0.182523 37.76 15.2866 37.5671 33.9956C37.3742 52.7046 43.9492 67.9393 52.2558 68.02Z" stroke="#8851FE" stroke-width="0.182499" stroke-miterlimit="10"/>
<path d="M52.9536 0.262736L59.395 0.325246C67.7046 0.40894 74.2797 15.6406 74.0867 34.3496C73.8938 53.0586 67.009 68.1627 58.6963 68.082L52.2549 68.0195" stroke="#8851FE" stroke-width="0.182499" stroke-miterlimit="10"/>
<g clip-path="url(#clip2_11435_15912)">
<path d="M51.0133 37.004C51.0133 37.004 51.0078 37.0377 51.0094 37.0526L51.0204 37.157C50.6764 37.1482 50.3326 37.1122 49.9922 37.0518L51.0755 36.9371C51.0755 36.9371 51.0467 36.9492 51.036 36.9624C51.0251 36.9726 51.0177 36.9884 51.0133 37.004Z" fill="white"/>
<path d="M51.6203 43.1231C51.2752 43.045 50.9329 42.9365 50.5908 42.8008L51.62 42.6918C51.62 42.6918 51.5984 42.7152 51.5941 42.7308C51.5867 42.7466 51.5853 42.7618 51.5875 42.7827L51.6232 43.1228L51.6203 43.1231Z" fill="white"/>
<path d="M61.5566 33.5664L62.637 33.452C62.6171 33.4632 62.5981 33.4833 62.5831 33.512L61.784 34.9568L61.6644 33.7329C61.6607 33.6971 61.6509 33.662 61.6359 33.6334C61.6209 33.6048 61.6008 33.5859 61.5784 33.5731C61.5692 33.5711 61.5626 33.5658 61.5566 33.5664Z" fill="white"/>
<path d="M61.4993 22.307L60.7098 23.8714L60.5753 22.4772C60.5715 22.4414 60.5651 22.4089 60.5504 22.3833C60.5357 22.3577 60.5159 22.3417 60.4941 22.335L61.5745 22.2206C61.5745 22.2206 61.5569 22.2255 61.5516 22.232C61.5323 22.2492 61.514 22.2752 61.4993 22.307Z" fill="white"/>
<path d="M54.3292 31.2633L53.297 31.3725C53.3112 31.365 53.3222 31.3548 53.3325 31.3386C53.3405 31.3287 53.3482 31.3159 53.3496 31.3006C53.6765 31.263 54.0029 31.2495 54.3292 31.2633Z" fill="white"/>
<path d="M53.2815 21.3104C53.2666 21.312 53.2517 21.3136 53.2372 21.3181C52.9574 21.4051 52.6796 21.5099 52.4003 21.6299C52.3848 21.5682 52.3553 21.5171 52.3185 21.4817C52.2823 21.4524 52.2441 21.4323 52.2015 21.4278L53.2818 21.3134L53.2815 21.3104Z" fill="white"/>
<path d="M42.7912 35.4062C42.8076 35.4195 42.8267 35.4296 42.8481 35.4333L41.7894 35.5454C41.8096 35.5372 41.8291 35.5231 41.8454 35.5063L42.6651 34.3789L42.7677 35.3544C42.7695 35.3723 42.7777 35.3925 42.7912 35.4062Z" fill="white"/>
<path d="M43.3348 40.6539L43.4201 41.4652C43.422 41.4831 43.4301 41.5033 43.4439 41.5199C43.458 41.5396 43.4774 41.5526 43.4995 41.5623C43.5213 41.5691 43.546 41.5755 43.5669 41.5733L42.4419 41.6924C42.4657 41.6899 42.4829 41.682 42.4995 41.6682L43.3348 40.6539Z" fill="white"/>
<path d="M61.6209 22.2152L61.5754 22.22C61.5903 22.2154 61.6054 22.2138 61.6209 22.2152Z" fill="white"/>
<path d="M62.584 33.5119C62.599 33.4831 62.618 33.463 62.6379 33.4519C62.6611 33.4434 62.6853 33.4438 62.7074 33.4536C62.7298 33.4663 62.7499 33.4852 62.765 33.5138C62.78 33.5424 62.7897 33.5775 62.7905 33.6136L63.3107 38.964C63.3225 39.1045 63.3005 39.2394 63.245 39.3418L60.9725 43.2604C59.5791 45.3676 57.6373 46.5288 55.423 46.5583C57.1677 46.2168 58.6944 45.1206 59.8461 43.3797L62.1187 39.4611C62.1742 39.3587 62.1962 39.2237 62.1814 39.0836L61.7838 34.9562L62.584 33.5119Z" fill="white"/>
<path d="M61.5565 33.5658L61.511 33.5706C61.5258 33.566 61.541 33.5644 61.5565 33.5658Z" fill="url(#paint6_linear_11435_15912)"/>
<path d="M54.424 31.2529C54.4097 31.2604 54.395 31.265 54.3797 31.2636C54.3644 31.2622 54.346 31.2611 54.3311 31.2627L54.424 31.2529Z" fill="white"/>
<path d="M53.8914 27.8004L53.5344 27.8382C53.6531 27.8226 53.7721 27.81 53.8914 27.8004Z" fill="white"/>
<path d="M54.331 31.2619C54.0041 31.2483 53.6771 31.2618 53.3496 31.2995C53.3523 31.2962 53.3546 31.2899 53.3543 31.2869C53.3614 31.2681 53.3625 31.2499 53.3603 31.229L53.066 28.2577C53.0584 28.1561 53.0222 28.0695 52.9673 28.0059C52.9502 27.9867 52.9301 27.9677 52.908 27.958C53.1164 27.9057 53.3264 27.8684 53.5341 27.8374L53.8917 27.7995C53.9695 27.7943 54.0391 27.8261 54.0937 27.8867C54.1486 27.9502 54.1848 28.0368 54.1925 28.1385L54.4867 31.1097C54.4889 31.1306 54.4878 31.1488 54.4837 31.1673C54.4767 31.1862 54.4696 31.205 54.459 31.2182C54.4486 31.2344 54.4376 31.2446 54.4234 31.2521L54.331 31.2619Z" fill="white"/>
<path d="M52.6508 24.9373C52.6677 24.9265 52.681 24.91 52.6914 24.8938C52.7014 24.8747 52.7115 24.8555 52.7152 24.834C52.722 24.8122 52.7228 24.791 52.7206 24.7702L52.4182 21.7214C52.4147 21.6886 52.4116 21.6588 52.3995 21.6299C52.6792 21.5099 52.9574 21.4051 53.2376 21.3181C53.2522 21.3136 53.2671 21.312 53.282 21.3104C53.3416 21.3041 53.3977 21.3223 53.4441 21.3626C53.5008 21.4139 53.537 21.5005 53.5446 21.6021L53.847 24.6509C53.8492 24.6718 53.8484 24.693 53.8447 24.7145C53.8379 24.7363 53.8309 24.7551 53.8178 24.7746C53.8075 24.7907 53.7942 24.8072 53.7802 24.8178C53.7633 24.8286 53.7487 24.8332 53.7338 24.8347C53.3746 24.8577 53.0139 24.923 52.6515 25.0307L52.6279 24.9488C52.6279 24.9488 52.6421 24.9413 52.6508 24.9373Z" fill="white"/>
<path d="M53.3487 31.3005C53.3487 31.3005 53.3396 31.3286 53.3316 31.3385C53.3212 31.3547 53.3103 31.3649 53.296 31.3724C53.2817 31.38 53.2672 31.3845 53.252 31.3831C53.1218 31.3758 52.9922 31.3744 52.8602 31.3794C53.0221 31.3441 53.1852 31.3208 53.3487 31.3005Z" fill="url(#paint7_linear_11435_15912)"/>
<path d="M61.4997 22.3067C61.5145 22.275 61.5328 22.2489 61.5521 22.2318C61.5575 22.2252 61.5664 22.2242 61.575 22.2203L61.6197 22.2156C61.6415 22.2223 61.6613 22.2383 61.676 22.2639C61.6907 22.2895 61.7002 22.3216 61.7039 22.3574L62.2215 27.7111C62.2362 27.8513 62.2122 27.9955 62.1612 28.1125L56.8093 38.248C56.1071 39.3353 55.1443 40.0643 54.0335 40.2453C53.811 40.2779 53.5868 40.2956 53.3606 40.2924C53.3212 40.2905 53.2792 40.292 53.2398 40.2901C54.2098 40.0306 55.0506 39.3447 55.68 38.3676L61.0319 28.232C61.0859 28.1148 61.1069 27.9708 61.0951 27.8304L60.7091 23.8706L61.4997 22.3067Z" fill="white"/>
<path d="M51.0215 37.1573L51.0105 37.0529C51.0105 37.0529 51.0071 37.0201 51.0145 37.0043C51.0218 36.9884 51.0262 36.9729 51.0372 36.9627C51.0479 36.9495 51.0622 36.942 51.0767 36.9374C51.0884 36.9331 51.1033 36.9316 51.1185 36.933C51.5175 37.0023 51.9224 37.0408 52.3232 37.0406C52.1865 37.0882 52.0477 37.115 51.9043 37.1271L51.905 37.1331C51.6126 37.161 51.315 37.1684 51.0215 37.1573Z" fill="white"/>
<path d="M52.0559 43.2125C51.9117 43.1886 51.767 43.1587 51.6216 43.1229L51.5858 42.783C51.5837 42.7621 51.588 42.7466 51.5954 42.7307C51.5998 42.7152 51.6105 42.702 51.6215 42.6918C51.6324 42.6816 51.6467 42.6741 51.6646 42.6722C51.6795 42.6706 51.6947 42.672 51.7105 42.6794C52.1978 42.8719 52.6917 43.0126 53.1823 43.0933C53.5288 43.15 53.8724 43.18 54.2129 43.1801C53.5234 43.3285 52.795 43.3363 52.0559 43.2125Z" fill="white"/>
<path d="M50.5917 42.8007L50.4957 42.8109C50.4957 42.8109 50.5211 42.793 50.5361 42.7915C50.5541 42.7895 50.5694 42.791 50.5854 42.7984C50.5854 42.7984 50.5857 42.8014 50.5917 42.8007Z" fill="url(#paint8_linear_11435_15912)"/>
<path d="M42.9185 35.4254C42.8944 35.4342 42.8728 35.4365 42.8506 35.4326L42.9185 35.4254Z" fill="white"/>
<path d="M52.3138 25.1425C51.2953 25.5126 50.3019 26.1514 49.3951 26.983C48.4887 27.7905 47.689 28.7525 47.0483 29.7941L42.9723 35.3869C42.956 35.4037 42.9394 35.4176 42.9162 35.426L42.8506 35.433C42.8291 35.4292 42.81 35.4192 42.7935 35.4059C42.7801 35.3922 42.7719 35.372 42.77 35.3541L42.6675 34.3791L45.922 29.9133C46.5597 28.872 47.3624 27.9097 48.2688 27.1023C49.1756 26.2707 50.1689 25.6319 51.1875 25.2618C51.6604 25.0881 52.1348 24.9866 52.6045 24.955C52.6134 24.954 52.6223 24.9531 52.628 24.9495L52.6516 25.0314C52.5406 25.0642 52.4269 25.1004 52.3138 25.1425Z" fill="white"/>
<path d="M50.5187 32.0099C50.7803 31.8043 51.0693 31.6592 51.3659 31.5856L51.3653 31.5796C51.861 31.4517 52.36 31.3838 52.8596 31.3792C52.7354 31.4014 52.6119 31.4295 52.4886 31.4607L52.4952 31.466C52.1956 31.5399 51.9096 31.6848 51.648 31.8903C51.3861 32.0929 51.1543 32.3526 50.9683 32.6467L43.6248 41.549C43.6248 41.549 43.5909 41.5707 43.5671 41.5732C43.5462 41.5754 43.5214 41.569 43.4996 41.5622C43.4775 41.5525 43.4581 41.5395 43.444 41.5199C43.4302 41.5033 43.422 41.483 43.4201 41.4651L43.3349 40.6542L49.8419 32.7659C50.028 32.4719 50.2568 32.2125 50.5187 32.0099Z" fill="white"/>
<path d="M60.7088 23.8707L61.0949 27.8304C61.1066 27.9709 61.0856 28.1148 61.0316 28.2321L55.6797 38.3676C55.0503 39.3447 54.2095 40.0307 53.2395 40.2902C52.6871 40.2793 52.1307 40.2026 51.5772 40.0682C51.4999 40.0493 51.4258 40.0028 51.3702 39.9333C51.3147 39.8639 51.2815 39.7769 51.2751 39.6872L51.0212 37.1575C51.3146 37.1686 51.6121 37.1613 51.9045 37.1333L51.9038 37.1274C52.0472 37.1152 52.186 37.0885 52.3226 37.0408C52.5581 37.046 52.7951 37.036 53.0308 37.0141L53.0301 37.0081C53.332 36.9852 53.6258 36.8848 53.8914 36.718C54.1538 36.5485 54.3878 36.3097 54.5738 36.0156L60.7088 23.8707Z" fill="url(#paint9_linear_11435_15912)"/>
<path d="M61.7837 34.9568L62.1814 39.0841C62.1961 39.2243 62.1741 39.3593 62.1186 39.4616L59.8461 43.3803C58.6944 45.1211 57.1676 46.2174 55.423 46.5588C55.1225 46.5665 54.8135 46.551 54.5021 46.5116C53.7354 46.4119 52.9551 46.2112 52.1773 45.9197C52.0984 45.8858 52.02 45.8278 51.9602 45.7467C51.9038 45.6683 51.8669 45.5757 51.8575 45.4862L51.6212 43.1235C51.7666 43.1594 51.9114 43.1893 52.0555 43.2132C52.7946 43.337 53.5228 43.3292 54.2123 43.1808L54.2182 43.1802C54.92 43.1783 55.599 43.0461 56.2339 42.7799C57.178 42.3604 57.9959 41.6286 58.6407 40.6257L61.7837 34.9568Z" fill="url(#paint10_linear_11435_15912)"/>
<path d="M55.1076 42.8991C56.0487 42.4799 56.8696 41.7478 57.5144 40.745L61.4576 33.6317C61.4727 33.6029 61.4887 33.5831 61.5116 33.5717L61.5563 33.5669C61.5563 33.5669 61.5688 33.5716 61.5781 33.5737C61.6005 33.5864 61.6206 33.6054 61.6356 33.6339C61.6507 33.6625 61.6604 33.6976 61.6642 33.7334L61.7837 34.9568L58.6407 40.6257C57.9959 41.6286 57.178 42.3604 56.2339 42.7799C55.599 43.0461 54.92 43.1783 54.2182 43.1802C54.5214 43.1119 54.819 43.0201 55.1076 42.8991Z" fill="url(#paint11_linear_11435_15912)"/>
<path d="M51.0482 22.337C51.4952 22.0605 51.9462 21.8228 52.399 21.6302C52.411 21.6591 52.4142 21.6889 52.4176 21.7217L52.72 24.7708C52.7222 24.7916 52.7214 24.8128 52.7147 24.8346C52.7109 24.8561 52.7009 24.8753 52.6909 24.8944C52.6805 24.9106 52.6672 24.9271 52.6502 24.9379C52.6416 24.9419 52.6363 24.9485 52.6273 24.9494C52.6217 24.953 52.6128 24.954 52.6038 24.9549C52.1341 24.9865 51.6597 25.088 51.1869 25.2617C50.1683 25.6318 49.1749 26.2706 48.2681 27.1022C47.3618 27.9097 46.5591 28.872 45.9214 29.9133L42.6669 34.379L42.4641 32.4499C42.4601 32.4112 42.4649 32.3715 42.4787 32.3308C42.4896 32.2905 42.5126 32.2519 42.5387 32.2129L44.8635 28.8495C46.4288 26.2569 48.6112 23.831 51.0482 22.337Z" fill="url(#paint12_linear_11435_15912)"/>
<path d="M52.9668 28.0066C53.0217 28.0702 53.0579 28.1568 53.0656 28.2585L53.3598 31.23C53.362 31.2509 53.3609 31.2691 53.3539 31.2879C53.3539 31.2879 53.3518 31.2972 53.3492 31.3005C53.1856 31.3208 53.0223 31.3442 52.8603 31.3794C52.3607 31.3841 51.8617 31.452 51.363 31.5801L51.3636 31.5861C51.07 31.6594 50.781 31.8046 50.5194 32.0101C50.2575 32.2127 50.0287 32.4721 49.8426 32.7661L43.3356 40.6544L43.1153 38.5583C43.1112 38.5195 43.1164 38.4828 43.1275 38.4455C43.1419 38.4108 43.1623 38.3755 43.1926 38.3481L48.7961 31.1223C49.4913 29.9966 50.4346 29.0254 51.5149 28.4679C51.726 28.3551 51.9449 28.2595 52.1627 28.1822C52.4094 28.0928 52.6577 28.0183 52.9075 27.9586C52.9296 27.9684 52.9497 27.9873 52.9668 28.0066Z" fill="url(#paint13_linear_11435_15912)"/>
<path d="M60.3732 22.426C60.3849 22.3946 60.4033 22.3685 60.4256 22.3511C60.4482 22.3366 60.4687 22.3314 60.4932 22.3349C60.515 22.3416 60.5347 22.3576 60.5495 22.3832C60.5642 22.4087 60.5736 22.4409 60.5744 22.477L60.7088 23.8707L54.5738 36.0156C54.3878 36.3097 54.1538 36.5485 53.8914 36.718C53.6258 36.8848 53.332 36.9852 53.0301 37.0081L53.0308 37.0141C52.7951 37.036 52.5581 37.046 52.3226 37.0408C52.4773 36.9943 52.6237 36.9245 52.7622 36.8375C53.0275 36.6677 53.2615 36.4289 53.4475 36.1348L60.3732 22.426Z" fill="url(#paint14_linear_11435_15912)"/>
<path d="M50.5901 42.8015C50.9328 42.9371 51.2756 43.0456 51.6212 43.1235L51.8575 45.4862C51.8669 45.5757 51.9038 45.6683 51.9602 45.7467C52.02 45.8278 52.0984 45.8858 52.1773 45.9197C52.9551 46.2112 53.7354 46.4119 54.5021 46.5116C54.8135 46.551 55.1225 46.5665 55.423 46.5588C54.7681 46.6915 54.0837 46.7157 53.3758 46.6308C52.6091 46.5311 51.8287 46.3303 51.0509 46.0389C50.9691 46.0053 50.8936 45.947 50.8339 45.8659C50.7774 45.7874 50.7376 45.6952 50.7312 45.6054L50.4622 42.9025C50.46 42.8817 50.4614 42.8664 50.4687 42.8506C50.4731 42.835 50.4838 42.8218 50.4948 42.8116L50.5901 42.8015Z" fill="url(#paint15_linear_11435_15912)"/>
<path d="M49.9472 37.0572C49.9618 37.0527 49.9767 37.0511 49.9919 37.0525C50.3326 37.1129 50.6769 37.1487 51.0212 37.1575L51.2751 39.6872C51.2815 39.7769 51.3147 39.8639 51.3702 39.9333C51.4258 40.0028 51.4999 40.0493 51.5772 40.0682C52.1307 40.2026 52.6871 40.2793 53.2395 40.2902C53.1315 40.3227 53.0195 40.3466 52.9069 40.3646C52.6844 40.3972 52.4603 40.4149 52.234 40.4117C51.6401 40.4083 51.0447 40.3326 50.4509 40.1875C50.3736 40.1685 50.2995 40.1221 50.2439 40.0526C50.1884 39.9831 50.1552 39.8962 50.1458 39.8068L49.884 37.1724C49.884 37.1724 49.8835 37.1393 49.8879 37.1238C49.8923 37.1082 49.8996 37.0924 49.9106 37.0822C49.9213 37.069 49.9326 37.0618 49.9472 37.0572Z" fill="url(#paint16_linear_11435_15912)"/>
<path d="M50.3856 28.5874C50.5996 28.4743 50.8156 28.3791 51.0364 28.3014C51.608 28.0932 52.1881 27.9654 52.7648 27.9195C52.8157 27.9171 52.8653 27.93 52.9075 27.9586C52.6577 28.0183 52.4094 28.0928 52.1627 28.1822C51.9449 28.2595 51.726 28.3551 51.5149 28.4679C50.4346 29.0254 49.4913 29.9966 48.7961 31.1223L43.1926 38.3481C43.1623 38.3755 43.1419 38.4108 43.1275 38.4455C43.1164 38.4828 43.1112 38.5195 43.1153 38.5583L43.3356 40.6544L42.4991 41.6684C42.4825 41.6823 42.4652 41.6901 42.4414 41.6926C42.4205 41.6949 42.3958 41.6884 42.374 41.6817C42.3519 41.672 42.3324 41.659 42.3183 41.6394C42.3045 41.6227 42.2934 41.6028 42.2945 41.5846L41.9889 38.6775C41.9819 38.6391 41.987 38.6024 42.0011 38.5647C42.0156 38.53 42.036 38.4947 42.0662 38.4674L47.6698 31.2415C48.3649 30.1158 49.3083 29.1446 50.3856 28.5874Z" fill="url(#paint17_linear_11435_15912)"/>
<path d="M43.7342 28.9691C45.3025 26.3762 47.4849 23.9503 49.9219 22.4563C50.6432 22.0091 51.3754 21.6662 52.1106 21.4377C52.1368 21.4289 52.1606 21.4263 52.1851 21.4298L52.2 21.4282C52.2426 21.4327 52.2809 21.4528 52.3171 21.4821C52.354 21.5174 52.3834 21.5685 52.399 21.6302C51.9462 21.8228 51.4952 22.0605 51.0482 22.337C48.6112 23.831 46.4288 26.2569 44.8635 28.8495L42.5387 32.2129C42.5126 32.2519 42.4896 32.2905 42.4787 32.3308C42.4649 32.3715 42.4601 32.4112 42.4641 32.4499L42.6669 34.379L41.8454 35.5062C41.8291 35.523 41.8095 35.5371 41.7892 35.5453C41.766 35.5538 41.7422 35.5563 41.7207 35.5525C41.6992 35.5488 41.6801 35.5387 41.6666 35.5251C41.6531 35.5115 41.645 35.4912 41.6431 35.4733L41.3378 32.5692C41.3338 32.5305 41.3386 32.4908 41.3524 32.4501C41.3633 32.4098 41.3863 32.3712 41.4124 32.3322L43.7342 28.9691Z" fill="url(#paint18_linear_11435_15912)"/>
</g>
</g>
<defs>
<filter id="filter0_f_11435_15912" x="2.23396" y="147.711" width="100.064" height="31.6131" filterUnits="userSpaceOnUse" color-interpolation-filters="sRGB">
<feFlood flood-opacity="0" result="BackgroundImageFix"/>
<feBlend mode="normal" in="SourceGraphic" in2="BackgroundImageFix" result="shape"/>
<feGaussianBlur stdDeviation="1.66232" result="effect1_foregroundBlur_11435_15912"/>
</filter>
<linearGradient id="paint0_linear_11435_15912" x1="54.2085" y1="25.3063" x2="54.2085" y2="96.7808" gradientUnits="userSpaceOnUse">
<stop stop-color="#DCD0FE"/>
<stop offset="1" stop-color="#D1B9FF" stop-opacity="0.14"/>
</linearGradient>
<linearGradient id="paint1_linear_11435_15912" x1="51.4313" y1="147.936" x2="51.4313" y2="182.916" gradientUnits="userSpaceOnUse">
<stop stop-color="#D1B9FF"/>
<stop offset="1" stop-color="#D1B9FF" stop-opacity="0"/>
</linearGradient>
<linearGradient id="paint2_linear_11435_15912" x1="31.9802" y1="172.232" x2="47.4401" y2="136.722" gradientUnits="userSpaceOnUse">
<stop stop-color="#B58DFF"/>
<stop offset="1" stop-color="#D1B9FF" stop-opacity="0"/>
</linearGradient>
<linearGradient id="paint3_linear_11435_15912" x1="81.7344" y1="165.393" x2="81.7344" y2="124.541" gradientUnits="userSpaceOnUse">
<stop stop-color="#B58DFF"/>
<stop offset="1" stop-color="#D1B9FF" stop-opacity="0"/>
</linearGradient>
<linearGradient id="paint4_linear_11435_15912" x1="45.4315" y1="70.2032" x2="69.3378" y2="48.8113" gradientUnits="userSpaceOnUse">
<stop stop-color="#B58DFF"/>
<stop offset="0.619792" stop-color="#E5DCFF"/>
</linearGradient>
<linearGradient id="paint5_linear_11435_15912" x1="61.548" y1="79.8169" x2="71.4311" y2="15.5365" gradientUnits="userSpaceOnUse">
<stop stop-color="#B58DFF"/>
<stop offset="0.53125" stop-color="#F4EFFF"/>
<stop offset="1" stop-color="#E8E0FF"/>
</linearGradient>
<linearGradient id="paint6_linear_11435_15912" x1="61.5335" y1="33.566" x2="61.5337" y2="33.5682" gradientUnits="userSpaceOnUse">
<stop stop-color="#6B40C7"/>
<stop offset="1" stop-color="#8851FE"/>
</linearGradient>
<linearGradient id="paint7_linear_11435_15912" x1="53.103" y1="31.3265" x2="53.1107" y2="31.3992" gradientUnits="userSpaceOnUse">
<stop stop-color="#6B40C7"/>
<stop offset="1" stop-color="#8851FE"/>
</linearGradient>
<linearGradient id="paint8_linear_11435_15912" x1="50.5421" y1="42.7908" x2="50.5437" y2="42.8058" gradientUnits="userSpaceOnUse">
<stop stop-color="#6B40C7"/>
<stop offset="1" stop-color="#8851FE"/>
</linearGradient>
<linearGradient id="paint9_linear_11435_15912" x1="50.146" y1="28.5008" x2="57.8374" y2="43.3478" gradientUnits="userSpaceOnUse">
<stop stop-color="#6829E7"/>
<stop offset="1" stop-color="#B58DFF"/>
</linearGradient>
<linearGradient id="paint10_linear_11435_15912" x1="50.146" y1="28.5008" x2="57.8374" y2="43.3478" gradientUnits="userSpaceOnUse">
<stop stop-color="#6829E7"/>
<stop offset="1" stop-color="#B58DFF"/>
</linearGradient>
<linearGradient id="paint11_linear_11435_15912" x1="50.146" y1="28.5008" x2="57.8374" y2="43.3478" gradientUnits="userSpaceOnUse">
<stop stop-color="#6829E7"/>
<stop offset="1" stop-color="#B58DFF"/>
</linearGradient>
<linearGradient id="paint12_linear_11435_15912" x1="50.146" y1="28.5008" x2="57.8374" y2="43.3478" gradientUnits="userSpaceOnUse">
<stop stop-color="#6829E7"/>
<stop offset="1" stop-color="#B58DFF"/>
</linearGradient>
<linearGradient id="paint13_linear_11435_15912" x1="50.146" y1="28.5008" x2="57.8374" y2="43.3478" gradientUnits="userSpaceOnUse">
<stop stop-color="#6829E7"/>
<stop offset="1" stop-color="#B58DFF"/>
</linearGradient>
<linearGradient id="paint14_linear_11435_15912" x1="50.146" y1="28.5008" x2="57.8374" y2="43.3478" gradientUnits="userSpaceOnUse">
<stop stop-color="#6829E7"/>
<stop offset="1" stop-color="#B58DFF"/>
</linearGradient>
<linearGradient id="paint15_linear_11435_15912" x1="50.146" y1="28.5008" x2="57.8374" y2="43.3478" gradientUnits="userSpaceOnUse">
<stop stop-color="#6829E7"/>
<stop offset="1" stop-color="#B58DFF"/>
</linearGradient>
<linearGradient id="paint16_linear_11435_15912" x1="50.146" y1="28.5008" x2="57.8374" y2="43.3478" gradientUnits="userSpaceOnUse">
<stop stop-color="#6829E7"/>
<stop offset="1" stop-color="#B58DFF"/>
</linearGradient>
<linearGradient id="paint17_linear_11435_15912" x1="50.146" y1="28.5008" x2="57.8374" y2="43.3478" gradientUnits="userSpaceOnUse">
<stop stop-color="#6829E7"/>
<stop offset="1" stop-color="#B58DFF"/>
</linearGradient>
<linearGradient id="paint18_linear_11435_15912" x1="50.146" y1="28.5008" x2="57.8374" y2="43.3478" gradientUnits="userSpaceOnUse">
<stop stop-color="#6829E7"/>
<stop offset="1" stop-color="#B58DFF"/>
</linearGradient>
<clipPath id="clip0_11435_15912">
<rect width="61.061" height="40.0313" fill="white" transform="matrix(1.00088 0.0280693 -0.0368462 0.998039 54.2539 70.4814)"/>
</clipPath>
<clipPath id="clip1_11435_15912">
<rect width="36.7543" height="67.9895" fill="white" transform="matrix(0.999953 0.00970399 -0.0103112 0.999947 37.8018 0)"/>
</clipPath>
<clipPath id="clip2_11435_15912">
<rect width="21.4701" height="25.515" fill="white" transform="matrix(0.994511 -0.105296 0.104527 0.994452 40.2168 22.6182)"/>
</clipPath>
</defs>
</svg>
