<svg width="20" height="20" viewBox="0 0 20 20" fill="none" xmlns="http://www.w3.org/2000/svg">
<path d="M10.8314 10.8311L15.8931 10.837C16.115 10.837 16.3278 10.7488 16.4847 10.5919C16.6417 10.435 16.7298 10.2222 16.7298 10.0002C16.7298 9.77832 16.6417 9.56549 16.4847 9.40857C16.3278 9.25165 16.115 9.16349 15.8931 9.16349L10.8314 9.16939L10.8373 4.10768C10.8373 3.88576 10.7491 3.67293 10.5922 3.51601C10.4353 3.35909 10.2224 3.27094 10.0005 3.27094C9.7786 3.27094 9.56577 3.35909 9.40885 3.51601C9.25193 3.67293 9.16377 3.88576 9.16377 4.10768L9.16967 9.16939L4.10796 9.16349C3.99795 9.16304 3.88894 9.18438 3.78722 9.22627C3.6855 9.26816 3.59308 9.32977 3.51529 9.40756C3.4375 9.48535 3.37588 9.57777 3.33399 9.67949C3.2921 9.78122 3.27077 9.89023 3.27122 10.0002C3.27077 10.1102 3.2921 10.2193 3.33399 10.321C3.37588 10.4227 3.4375 10.5151 3.51529 10.5929C3.59308 10.6707 3.6855 10.7323 3.78722 10.7742C3.88894 10.8161 3.99795 10.8374 4.10796 10.837L9.16967 10.8311L9.16378 15.8928C9.16332 16.0028 9.18466 16.1118 9.22655 16.2135C9.26844 16.3153 9.33006 16.4077 9.40785 16.4855C9.48563 16.5633 9.57805 16.6249 9.67978 16.6668C9.7815 16.7087 9.89051 16.73 10.0005 16.7295C10.1105 16.73 10.2195 16.7087 10.3213 16.6668C10.423 16.6249 10.5154 16.5633 10.5932 16.4855C10.671 16.4077 10.7326 16.3153 10.7745 16.2135C10.8164 16.1118 10.8377 16.0028 10.8373 15.8928L10.8314 10.8311Z" fill="#0C0024"/>
</svg>
