<svg width="96" height="96" viewBox="0 0 96 96" fill="none" xmlns="http://www.w3.org/2000/svg">
<path d="M46.8 72C40.4 71.6667 35 69.2 30.6 64.6C26.2 60 24 54.4667 24 48C24 41.3333 26.3333 35.6667 31 31C35.6667 26.3333 41.3333 24 48 24C54.4667 24 60 26.2 64.6 30.6C69.2 35 71.6667 40.4 72 46.8L63.6 44.3C62.7333 40.7 60.8667 37.7507 58 35.452C55.1333 33.1507 51.8 32 48 32C43.6 32 39.8333 33.5667 36.7 36.7C33.5667 39.8333 32 43.6 32 48C32 51.8 33.1507 55.1333 35.452 58C37.7507 60.8667 40.7 62.7333 44.3 63.6L46.8 72ZM51.6 87.8C51 87.9333 50.4 88 49.8 88H48C42.4667 88 37.2667 86.9493 32.4 84.848C27.5333 82.7493 23.3 79.9 19.7 76.3C16.1 72.7 13.2507 68.4667 11.152 63.6C9.05067 58.7333 8 53.5333 8 48C8 42.4667 9.05067 37.2667 11.152 32.4C13.2507 27.5333 16.1 23.3 19.7 19.7C23.3 16.1 27.5333 13.2493 32.4 11.148C37.2667 9.04933 42.4667 8 48 8C53.5333 8 58.7333 9.04933 63.6 11.148C68.4667 13.2493 72.7 16.1 76.3 19.7C79.9 23.3 82.7493 27.5333 84.848 32.4C86.9493 37.2667 88 42.4667 88 48V49.8C88 50.4 87.9333 51 87.8 51.6L80 49.2V48C80 39.0667 76.9 31.5 70.7 25.3C64.5 19.1 56.9333 16 48 16C39.0667 16 31.5 19.1 25.3 25.3C19.1 31.5 16 39.0667 16 48C16 56.9333 19.1 64.5 25.3 70.7C31.5 76.9 39.0667 80 48 80H49.2L51.6 87.8ZM82.1 90L65 72.9L60 88L48 48L88 60L72.9 65L90 82.1L82.1 90Z" fill="#F7F7F8"/>
</svg>
