<svg width="16" height="16" viewBox="0 0 16 16" fill="none" xmlns="http://www.w3.org/2000/svg">
<rect width="16" height="16" rx="8" fill="#0C0024"/>
<path fill-rule="evenodd" clip-rule="evenodd" d="M8 3.75C8.41421 3.75 8.75 4.08579 8.75 4.5V8.74997C8.75 9.16418 8.41421 9.49997 8 9.49997C7.58579 9.49997 7.25 9.16418 7.25 8.74997V4.5C7.25 4.08579 7.58579 3.75 8 3.75ZM8 10.75C8.41421 10.75 8.75 11.0858 8.75 11.5V11.505C8.75 11.9192 8.41421 12.255 8 12.255C7.58579 12.255 7.25 11.9192 7.25 11.505V11.5C7.25 11.0858 7.58579 10.75 8 10.75Z" fill="white"/>
</svg>
