<svg width="24" height="24" viewBox="0 0 24 24" fill="none" xmlns="http://www.w3.org/2000/svg">
  <path d="M2.75 3C2.55109 3 2.36032 3.07902 2.21967 3.21967C2.07902 3.36032 2 3.55109 2 3.75C2 3.94891 2.07902 4.13968 2.21967 4.28033C2.36032 4.42098 2.55109 4.5 2.75 4.5H21.25C21.4489 4.5 21.6397 4.42098 21.7803 4.28033C21.921 4.13968 22 3.94891 22 3.75C22 3.55109 21.921 3.36032 21.7803 3.21967C21.6397 3.07902 21.4489 3 21.25 3H2.75ZM4 8.25C4 7.65326 4.23705 7.08097 4.65901 6.65901C5.08097 6.23705 5.65326 6 6.25 6H8.75C9.34674 6 9.91903 6.23705 10.341 6.65901C10.7629 7.08097 11 7.65326 11 8.25V18.75C11 19.3467 10.7629 19.919 10.341 20.341C9.91903 20.7629 9.34674 21 8.75 21H6.25C5.65326 21 5.08097 20.7629 4.65901 20.341C4.23705 19.919 4 19.3467 4 18.75V8.25ZM6.25 7.5C6.05109 7.5 5.86032 7.57902 5.71967 7.71967C5.57902 7.86032 5.5 8.05109 5.5 8.25V18.75C5.5 19.164 5.836 19.5 6.25 19.5H8.75C8.94891 19.5 9.13968 19.421 9.28033 19.2803C9.42098 19.1397 9.5 18.9489 9.5 18.75V8.25C9.5 8.05109 9.42098 7.86032 9.28033 7.71967C9.13968 7.57902 8.94891 7.5 8.75 7.5H6.25ZM13 8.25C13 7.65326 13.2371 7.08097 13.659 6.65901C14.081 6.23705 14.6533 6 15.25 6H17.75C18.0455 6 18.3381 6.0582 18.611 6.17127C18.884 6.28434 19.1321 6.45008 19.341 6.65901C19.5499 6.86794 19.7157 7.11598 19.8287 7.38896C19.9418 7.66194 20 7.95453 20 8.25V15.25C20 15.5455 19.9418 15.8381 19.8287 16.111C19.7157 16.384 19.5499 16.6321 19.341 16.841C19.1321 17.0499 18.884 17.2157 18.611 17.3287C18.3381 17.4418 18.0455 17.5 17.75 17.5H15.25C14.6533 17.5 14.081 17.2629 13.659 16.841C13.2371 16.419 13 15.8467 13 15.25V8.25ZM15.25 7.5C15.0511 7.5 14.8603 7.57902 14.7197 7.71967C14.579 7.86032 14.5 8.05109 14.5 8.25V15.25C14.5 15.664 14.836 16 15.25 16H17.75C17.9489 16 18.1397 15.921 18.2803 15.7803C18.421 15.6397 18.5 15.4489 18.5 15.25V8.25C18.5 8.05109 18.421 7.86032 18.2803 7.71967C18.1397 7.57902 17.9489 7.5 17.75 7.5H15.25Z" fill="#0C0024" stroke="#0C0024" stroke-width="0.3"/>
</svg>