<svg width="97" height="96" viewBox="0 0 97 96" fill="none" xmlns="http://www.w3.org/2000/svg">
<path d="M83.9798 69L73.1398 50.28C75.358 46.206 76.5136 41.6387 76.4998 37C76.4998 29.5739 73.5498 22.452 68.2988 17.201C63.0478 11.95 55.9259 9 48.4998 9C41.0737 9 33.9518 11.95 28.7008 17.201C23.4498 22.452 20.4998 29.5739 20.4998 37C20.486 41.6387 21.6416 46.206 23.8598 50.28L13.0198 69C12.668 69.6092 12.4832 70.3005 12.4839 71.004C12.4846 71.7075 12.6708 72.3983 13.0238 73.0069C13.3767 73.6154 13.8839 74.1201 14.4942 74.4701C15.1045 74.82 15.7963 75.0028 16.4998 75H27.9798L33.8198 84.84C34.0167 85.1661 34.2591 85.4624 34.5398 85.72C35.2813 86.4347 36.2699 86.8359 37.2998 86.84H37.8598C38.4637 86.7573 39.0407 86.5378 39.5468 86.1981C40.0528 85.8584 40.4746 85.4076 40.7798 84.88L48.4998 71.6L56.2198 85C56.5295 85.5201 56.9532 85.9632 57.459 86.2957C57.9648 86.6283 58.5395 86.8418 59.1398 86.92H59.6998C60.7435 86.9263 61.7483 86.5243 62.4998 85.8C62.7688 85.5571 62.9983 85.2737 63.1798 84.96L69.0198 75.12H80.4998C81.2046 75.1228 81.8977 74.9393 82.5088 74.5881C83.1199 74.2369 83.6274 73.7304 83.9798 73.12C84.3536 72.4979 84.551 71.7858 84.551 71.06C84.551 70.3342 84.3536 69.6221 83.9798 69V69ZM37.2598 75.12L33.6998 69.16C33.3493 68.5687 32.8522 68.0777 32.2567 67.7344C31.6611 67.391 30.9872 67.207 30.2998 67.2H23.3798L29.0998 57.28C33.0387 61.0755 38.0031 63.6342 43.3798 64.64L37.2598 75.12ZM48.4998 57C44.5442 57 40.6774 55.827 37.3884 53.6294C34.0994 51.4318 31.536 48.3082 30.0222 44.6537C28.5085 40.9991 28.1124 36.9778 28.8841 33.0982C29.6558 29.2186 31.5606 25.6549 34.3577 22.8579C37.1547 20.0608 40.7184 18.156 44.598 17.3843C48.4776 16.6126 52.4989 17.0087 56.1535 18.5224C59.808 20.0362 62.9316 22.5996 65.1292 25.8886C67.3268 29.1776 68.4998 33.0444 68.4998 37C68.4998 42.3043 66.3927 47.3914 62.6419 51.1421C58.8912 54.8929 53.8041 57 48.4998 57V57ZM66.6998 67.2C66.0124 67.207 65.3385 67.391 64.7429 67.7344C64.1474 68.0777 63.6503 68.5687 63.2998 69.16L59.7398 75.12L53.6598 64.52C59.0177 63.4936 63.9637 60.9373 67.8998 57.16L73.6198 67.08L66.6998 67.2Z" fill="#F4F4F4"/>
</svg>
