<svg width="53" height="9" viewBox="0 0 53 9" fill="none" xmlns="http://www.w3.org/2000/svg">
<path d="M2.53625 0.75H0.0562501V8H1.48625V5.45H2.57625C4.24625 5.45 5.72625 5 5.72625 3.15C5.72625 0.959999 4.02625 0.75 2.53625 0.75ZM1.48625 1.87H2.56625C3.34625 1.87 4.25625 1.97 4.25625 3.16C4.25625 4.12 3.55625 4.34 2.66625 4.34H1.48625V1.87ZM9.54719 7.29V8H10.9272V2.62H9.54719V5.42C9.54719 6.27 9.33719 7.02 8.42719 7.02C7.64719 7.02 7.54719 6.44 7.54719 5.72V2.62H6.16719V6.02C6.16719 7.34 6.68719 8.13 7.97719 8.13C8.63719 8.13 9.23719 7.83 9.54719 7.29ZM12.1649 8H13.5449V7.32C13.8849 7.91 14.5349 8.13 15.0949 8.13C16.3749 8.13 17.4349 7.03 17.4349 5.31C17.4349 3.62 16.3949 2.5 15.0949 2.5C14.4149 2.5 13.8349 2.81 13.5449 3.31V0.75H12.1649V8ZM15.9849 5.32C15.9849 6.37 15.4649 7.07 14.7549 7.07C13.9949 7.07 13.4949 6.41 13.4949 5.31C13.4949 4.23 13.9949 3.56 14.7549 3.56C15.4649 3.56 15.9849 4.27 15.9849 5.32ZM19.707 8V0.75H18.327V8H19.707ZM22.3242 0.75H20.9442V2.03H22.3242V0.75ZM22.3242 2.62H20.9442V8H22.3242V2.62ZM28.3514 4.46C28.1714 3.12 27.0314 2.5 25.9114 2.5C24.3014 2.5 23.2114 3.68 23.2114 5.32C23.2114 6.94 24.2414 8.13 25.8514 8.13C26.9614 8.13 28.0814 7.64 28.4014 6.17H27.0814C26.9014 6.82 26.3914 7.06 25.9214 7.06C25.1614 7.06 24.6214 6.43 24.6214 5.3C24.6214 4.18 25.1914 3.57 25.9114 3.57C26.4314 3.57 26.9314 3.95 27.0314 4.46H28.3514ZM31.5113 0.75V8H34.4513C35.9413 8 37.2313 7.43 37.2313 5.86C37.2313 4.87 36.7013 4.43 36.1513 4.17C36.5313 3.92 36.9713 3.32 36.9713 2.64C36.9713 1.14 35.6113 0.75 34.3313 0.75H31.5113ZM32.9413 3.74V1.87H34.4213C35.0813 1.87 35.5013 2.21 35.5013 2.78C35.5013 3.41 35.0913 3.74 34.4213 3.74H32.9413ZM32.9413 6.88V4.82H34.4613C35.3513 4.82 35.7713 5.19 35.7713 5.86C35.7713 6.52 35.3513 6.88 34.5213 6.88H32.9413ZM39.3373 5.69H43.3073C43.3673 3.79 42.3273 2.5 40.6673 2.5C39.0773 2.5 37.9673 3.69 37.9673 5.29C37.9673 6.84 38.9773 8.13 40.7073 8.13C42.1673 8.13 42.9573 7.24 43.2473 6.44H41.8273C41.5473 6.91 41.1173 7.06 40.6973 7.06C40.0473 7.06 39.4073 6.61 39.3373 5.69ZM39.3573 4.74C39.4673 3.84 40.1373 3.51 40.6573 3.51C41.2373 3.51 41.8773 3.83 41.9073 4.74H39.3573ZM44.3862 1.16V2.62H43.6262V3.57H44.3862V6.55C44.3862 7.62 44.6262 8 45.8562 8H46.8662V7.01H46.4462C45.9562 7.01 45.7662 6.9 45.7662 6.35V3.57H46.8862V2.62H45.7662V1.16H44.3862ZM49.4904 8.13C50.3004 8.13 50.8704 7.89 51.2504 7.33C51.2704 7.59 51.3004 7.83 51.3404 8H52.6104C52.5104 7.55 52.4504 7.07 52.4504 6.22C52.4504 5.73 52.4704 5.02 52.4704 4.85C52.4704 3.03 51.4304 2.48 50.1504 2.48C48.7704 2.48 47.8904 3.26 47.7904 4.32H49.0804C49.1104 3.73 49.5504 3.45 50.0804 3.45C50.6404 3.45 51.0904 3.74 51.0904 4.57V4.66C48.9804 4.9 47.5504 5.28 47.5504 6.55C47.5504 7.53 48.4604 8.13 49.4904 8.13ZM51.1304 5.54V5.94C51.1304 6.72 50.7604 7.19 49.9004 7.19C49.2804 7.19 48.9704 6.87 48.9704 6.48C48.9704 5.88 49.5904 5.7 51.1304 5.54Z" fill="#663FBA"/>
</svg>
