<svg width="27" height="28" viewBox="0 0 27 28" fill="none" xmlns="http://www.w3.org/2000/svg">
<path fill-rule="evenodd" clip-rule="evenodd" d="M16.0893 0.377548C16.1575 0.462868 16.1944 0.570486 16.1927 0.681075L16.1938 3.98536C16.1938 4.00766 16.1889 4.02966 16.1791 4.04958C16.1694 4.0695 16.1552 4.08674 16.1383 4.10012C16.121 4.1135 16.1008 4.12242 16.0795 4.12628C16.0582 4.13014 16.0366 4.12896 16.0159 4.12271C15.3866 3.93869 14.7406 3.82394 14.088 3.78084C12.6844 3.68749 11.2775 3.9054 9.96196 4.4194C8.64642 4.9337 7.4524 5.7322 6.46027 6.76168L0.263826 13.158C0.241939 13.1806 0.214003 13.1961 0.183764 13.202C0.153524 13.2083 0.122137 13.2047 0.0936254 13.1922C0.0654021 13.1797 0.0412136 13.1586 0.02451 13.1318C0.00780648 13.1051 -0.000548103 13.0736 2.7881e-05 13.0418V8.30131C2.7881e-05 8.23977 0.0115459 8.17883 0.0342973 8.12175C0.0570487 8.06497 0.0907488 8.01324 0.133084 7.96984L3.68431 4.30405C6.11784 1.79202 9.34134 0.193827 12.7777 0.0172418C13.7957 -0.0350799 14.8161 0.0318105 15.8197 0.216125C15.9254 0.235152 16.0207 0.292525 16.0893 0.377548ZM16.0306 11.1193C15.1963 10.9165 14.3421 10.8142 13.4854 10.8145L13.4911 10.8214C13.0842 10.819 12.681 10.9002 12.3049 11.0598C11.9288 11.2194 11.5869 11.4549 11.2995 11.7519L0.274005 23.133C0.252118 23.1556 0.22447 23.1711 0.193942 23.177C0.163703 23.1833 0.132316 23.1797 0.104092 23.1672C0.0755812 23.1547 0.0513854 23.1336 0.0346818 23.1069C0.0182663 23.0801 0.00963073 23.0486 0.0102067 23.0168V18.274C0.00991872 18.2121 0.0214367 18.1512 0.0444761 18.0938C0.0672275 18.0367 0.100921 17.985 0.143255 17.9416L8.60907 9.20238C9.68732 8.08936 11.072 7.31256 12.5828 7.10892C12.8817 7.06908 13.183 7.04887 13.4842 7.04857C14.275 7.04679 15.0638 7.13062 15.8377 7.29859C15.9402 7.32148 16.0315 7.38064 16.0963 7.46536C16.1611 7.55038 16.1951 7.65592 16.1928 7.76383V10.9855C16.1931 11.006 16.1885 11.0265 16.1801 11.0452C16.1715 11.0637 16.1588 11.08 16.1432 11.0931C16.1277 11.1059 16.1093 11.1151 16.0897 11.1196C16.0701 11.124 16.0499 11.124 16.0306 11.1193ZM10.7631 27.3202C10.7631 27.4305 10.8003 27.5372 10.8682 27.6222C10.9365 27.7073 11.0312 27.7649 11.1361 27.7854C12.138 27.9683 13.1566 28.0346 14.1727 27.9831C17.609 27.8051 20.8336 26.2072 23.266 23.696L26.8184 20.0305C26.9034 19.9417 26.9509 19.8224 26.9515 19.6976V14.9574C26.952 14.9253 26.9437 14.8941 26.9267 14.8673C26.9103 14.8406 26.8861 14.8194 26.8579 14.807C26.8293 14.7945 26.798 14.7909 26.7677 14.7972C26.7375 14.8031 26.7095 14.8183 26.6877 14.8409L20.4909 21.2375C19.4991 22.2679 18.3051 23.0676 16.9889 23.5822C15.6728 24.0968 14.2654 24.315 12.8611 24.2219C12.2126 24.1785 11.5707 24.0635 10.9457 23.8789C10.925 23.8726 10.9031 23.8717 10.8821 23.8756C10.8608 23.8798 10.8406 23.889 10.8233 23.9023C10.8063 23.9157 10.7922 23.933 10.7824 23.9529C10.7729 23.9728 10.7677 23.9948 10.7677 24.0171L10.7631 27.3202ZM10.9254 16.8891C11.7594 17.0898 12.613 17.19 13.4695 17.1879V17.182C13.8764 17.1849 14.2799 17.1041 14.6563 16.9441C15.0327 16.7845 15.3746 16.5491 15.662 16.2518L26.6878 4.86913C26.7094 4.84684 26.7373 4.83138 26.7675 4.82544C26.7978 4.81919 26.8292 4.82276 26.8577 4.83524C26.8859 4.84773 26.9101 4.86884 26.9268 4.89559C26.9435 4.92235 26.9521 4.95356 26.9513 4.98567V9.72821C26.951 9.85277 26.9032 9.97228 26.8182 10.0609L18.3524 18.7998C17.2742 19.914 15.8895 20.6896 14.3787 20.8932C14.078 20.9346 13.7751 20.9548 13.4718 20.9539C12.681 20.9554 11.8922 20.8718 11.118 20.7036C11.0158 20.6807 10.9245 20.6218 10.8597 20.5368C10.7949 20.4521 10.7609 20.3465 10.7632 20.2386V17.0214C10.7629 17.0009 10.7673 16.9807 10.7759 16.962C10.7845 16.9433 10.7972 16.9269 10.8128 16.9141C10.8286 16.9013 10.8468 16.8924 10.8663 16.8883C10.8859 16.8838 10.9061 16.8841 10.9254 16.8891Z" fill="#663FBA"/>
</svg>
