<svg width="27" height="17" viewBox="0 0 27 17" fill="none" xmlns="http://www.w3.org/2000/svg">
<path d="M2.817 0.475H0.585V7H1.872V4.705H2.853C4.356 4.705 5.688 4.3 5.688 2.635C5.688 0.663999 4.158 0.475 2.817 0.475ZM1.872 1.483H2.844C3.546 1.483 4.365 1.573 4.365 2.644C4.365 3.508 3.735 3.706 2.934 3.706H1.872V1.483ZM9.12684 6.361V7H10.3688V2.158H9.12684V4.678C9.12684 5.443 8.93784 6.118 8.11884 6.118C7.41684 6.118 7.32684 5.596 7.32684 4.948V2.158H6.08484V5.218C6.08484 6.406 6.55284 7.117 7.71384 7.117C8.30784 7.117 8.84784 6.847 9.12684 6.361ZM11.4828 7H12.7248V6.388C13.0308 6.919 13.6158 7.117 14.1198 7.117C15.2718 7.117 16.2258 6.127 16.2258 4.579C16.2258 3.058 15.2898 2.05 14.1198 2.05C13.5078 2.05 12.9858 2.329 12.7248 2.779V0.475H11.4828V7ZM14.9208 4.588C14.9208 5.533 14.4528 6.163 13.8138 6.163C13.1298 6.163 12.6798 5.569 12.6798 4.579C12.6798 3.607 13.1298 3.004 13.8138 3.004C14.4528 3.004 14.9208 3.643 14.9208 4.588ZM18.2707 7V0.475H17.0287V7H18.2707ZM20.6262 0.475H19.3842V1.627H20.6262V0.475ZM20.6262 2.158H19.3842V7H20.6262V2.158ZM26.0506 3.814C25.8886 2.608 24.8626 2.05 23.8546 2.05C22.4056 2.05 21.4246 3.112 21.4246 4.588C21.4246 6.046 22.3516 7.117 23.8006 7.117C24.7996 7.117 25.8076 6.676 26.0956 5.353H24.9076C24.7456 5.938 24.2866 6.154 23.8636 6.154C23.1796 6.154 22.6936 5.587 22.6936 4.57C22.6936 3.562 23.2066 3.013 23.8546 3.013C24.3226 3.013 24.7726 3.355 24.8626 3.814H26.0506ZM0.585 9.475V16H3.231C4.572 16 5.733 15.487 5.733 14.074C5.733 13.183 5.256 12.787 4.761 12.553C5.103 12.328 5.499 11.788 5.499 11.176C5.499 9.826 4.275 9.475 3.123 9.475H0.585ZM1.872 12.166V10.483H3.204C3.798 10.483 4.176 10.789 4.176 11.302C4.176 11.869 3.807 12.166 3.204 12.166H1.872ZM1.872 14.992V13.138H3.24C4.041 13.138 4.419 13.471 4.419 14.074C4.419 14.668 4.041 14.992 3.294 14.992H1.872ZM7.62834 13.921H11.2013C11.2553 12.211 10.3193 11.05 8.82534 11.05C7.39434 11.05 6.39534 12.121 6.39534 13.561C6.39534 14.956 7.30434 16.117 8.86134 16.117C10.1753 16.117 10.8863 15.316 11.1473 14.596H9.86934C9.61734 15.019 9.23034 15.154 8.85234 15.154C8.26734 15.154 7.69134 14.749 7.62834 13.921ZM7.64634 13.066C7.74534 12.256 8.34834 11.959 8.81634 11.959C9.33834 11.959 9.91434 12.247 9.94134 13.066H7.64634ZM12.1724 9.844V11.158H11.4884V12.013H12.1724V14.695C12.1724 15.658 12.3884 16 13.4954 16H14.4044V15.109H14.0264C13.5854 15.109 13.4144 15.01 13.4144 14.515V12.013H14.4224V11.158H13.4144V9.844H12.1724ZM16.7662 16.117C17.4952 16.117 18.0082 15.901 18.3502 15.397C18.3682 15.631 18.3952 15.847 18.4312 16H19.5742C19.4842 15.595 19.4302 15.163 19.4302 14.398C19.4302 13.957 19.4482 13.318 19.4482 13.165C19.4482 11.527 18.5122 11.032 17.3602 11.032C16.1182 11.032 15.3262 11.734 15.2362 12.688H16.3972C16.4242 12.157 16.8202 11.905 17.2972 11.905C17.8012 11.905 18.2062 12.166 18.2062 12.913V12.994C16.3072 13.21 15.0202 13.552 15.0202 14.695C15.0202 15.577 15.8392 16.117 16.7662 16.117ZM18.2422 13.786V14.146C18.2422 14.848 17.9092 15.271 17.1352 15.271C16.5772 15.271 16.2982 14.983 16.2982 14.632C16.2982 14.092 16.8562 13.93 18.2422 13.786Z" fill="#0C0024"/>
</svg>
