<svg width="97" height="96" viewBox="0 0 97 96" fill="none" xmlns="http://www.w3.org/2000/svg">
<path d="M76.5 26H64.5V22C64.5 18.8174 63.2357 15.7652 60.9853 13.5147C58.7349 11.2643 55.6826 10 52.5 10H44.5C41.3174 10 38.2652 11.2643 36.0147 13.5147C33.7643 15.7652 32.5 18.8174 32.5 22V26H20.5C17.3174 26 14.2652 27.2643 12.0147 29.5147C9.76428 31.7652 8.5 34.8174 8.5 38V74C8.5 77.1826 9.76428 80.2348 12.0147 82.4853C14.2652 84.7357 17.3174 86 20.5 86H76.5C79.6826 86 82.7349 84.7357 84.9853 82.4853C87.2357 80.2348 88.5 77.1826 88.5 74V38C88.5 34.8174 87.2357 31.7652 84.9853 29.5147C82.7349 27.2643 79.6826 26 76.5 26ZM40.5 22C40.5 20.9391 40.9214 19.9217 41.6716 19.1716C42.4217 18.4214 43.4391 18 44.5 18H52.5C53.5609 18 54.5783 18.4214 55.3284 19.1716C56.0786 19.9217 56.5 20.9391 56.5 22V26H40.5V22ZM80.5 74C80.5 75.0609 80.0786 76.0783 79.3284 76.8284C78.5783 77.5786 77.5609 78 76.5 78H20.5C19.4391 78 18.4217 77.5786 17.6716 76.8284C16.9214 76.0783 16.5 75.0609 16.5 74V52C26.685 56.0406 37.5428 58.1171 48.5 58.12C59.4569 58.1133 70.3139 56.0369 80.5 52V74ZM80.5 43.24C70.4136 47.6711 59.5168 49.9591 48.5 49.9591C37.4832 49.9591 26.5864 47.6711 16.5 43.24V38C16.5 36.9391 16.9214 35.9217 17.6716 35.1716C18.4217 34.4214 19.4391 34 20.5 34H76.5C77.5609 34 78.5783 34.4214 79.3284 35.1716C80.0786 35.9217 80.5 36.9391 80.5 38V43.24Z" fill="#F4F4F4"/>
</svg>
