<svg width="57" height="88" viewBox="0 0 57 88" fill="none" xmlns="http://www.w3.org/2000/svg">
<path d="M50.3001 45.839C54.9702 40.0889 57.1714 32.7225 56.4217 25.3528C55.672 17.9832 52.0325 11.2109 46.3001 6.51905C43.0159 3.88699 39.187 2.01891 35.0912 1.05031C30.9954 0.0817048 26.7354 0.0368669 22.6201 0.919045C17.9995 1.94103 13.7133 4.11743 10.1619 7.24497C6.61041 10.3725 3.90958 14.3491 2.31162 18.8035C0.713664 23.2578 0.270721 28.0444 1.02416 32.7163C1.77761 37.3882 3.70285 41.7929 6.62008 45.519C9.27878 48.7536 10.7971 52.7744 10.9401 56.959V58.119C9.41806 59.5895 8.54069 61.6031 8.50008 63.719V71.719C8.50008 73.8408 9.34294 75.8756 10.8432 77.3759C12.3435 78.8762 14.3784 79.719 16.5001 79.719V83.719C16.5001 84.7799 16.9215 85.7973 17.6717 86.5475C18.4218 87.2976 19.4392 87.719 20.5001 87.719C21.561 87.719 22.5784 87.2976 23.3285 86.5475C24.0787 85.7973 24.5001 84.7799 24.5001 83.719V79.719H32.5001V83.719C32.5001 84.7799 32.9215 85.7973 33.6717 86.5475C34.4218 87.2976 35.4392 87.719 36.5001 87.719C37.561 87.719 38.5784 87.2976 39.3285 86.5475C40.0787 85.7973 40.5001 84.7799 40.5001 83.719V79.719C42.6218 79.719 44.6567 78.8762 46.1569 77.3759C47.6572 75.8756 48.5001 73.8408 48.5001 71.719V63.719C48.5019 61.626 47.6834 59.6156 46.2201 58.119V56.399C46.3369 52.5169 47.7764 48.7912 50.3001 45.839ZM16.5001 71.719V63.719H40.5001V71.719H16.5001ZM44.0601 40.839C40.5192 45.0154 38.4651 50.2492 38.2201 55.719H18.7401C18.3628 50.1774 16.2652 44.8916 12.7401 40.599C10.6225 37.9416 9.21695 34.7884 8.65601 31.437C8.09506 28.0857 8.39723 24.6467 9.53401 21.4445C10.6708 18.2423 12.6047 15.3826 15.1532 13.1351C17.7017 10.8876 20.7809 9.32647 24.1001 8.59904C27.0409 7.93571 30.0936 7.94576 33.0299 8.62845C35.9663 9.31114 38.7103 10.6488 41.0569 12.5414C43.4034 14.434 45.2917 16.8326 46.5807 19.5579C47.8696 22.2831 48.5257 25.2645 48.5001 28.279C48.5252 32.8546 46.9552 37.2958 44.0601 40.839Z" fill="#F4F4F4"/>
</svg>
