<svg width="24" height="24" viewBox="0 0 24 24" fill="none" xmlns="http://www.w3.org/2000/svg">
<path d="M10 4.56592C10 4.01363 9.55228 3.56592 9 3.56592V2.56592C9 2.3007 8.89464 2.04635 8.70711 1.85881C8.51957 1.67127 8.26522 1.56592 8 1.56592C7.73478 1.56592 7.48043 1.67127 7.29289 1.85881C7.10536 2.04635 7 2.3007 7 2.56592V3.56592H5C4.20435 3.56592 3.44129 3.88199 2.87868 4.4446C2.31607 5.00721 2 5.77027 2 6.56592V18.5659C2 19.3616 2.31607 20.1246 2.87868 20.6872C3.44129 21.2498 4.20435 21.5659 5 21.5659H19C19.7956 21.5659 20.5587 21.2498 21.1213 20.6872C21.6839 20.1246 22 19.3616 22 18.5659V17C22 16.4477 21.5523 16 21 16C20.4477 16 20 16.4477 20 17V18.5659C20 18.8311 19.8946 19.0855 19.7071 19.273C19.5196 19.4606 19.2652 19.5659 19 19.5659H5C4.73478 19.5659 4.48043 19.4606 4.29289 19.273C4.10536 19.0855 4 18.8311 4 18.5659V11.5659H8C8.55228 11.5659 9 11.1182 9 10.5659C9 10.0136 8.55228 9.56592 8 9.56592H4V6.56592C4 6.3007 4.10536 6.04635 4.29289 5.85881C4.48043 5.67128 4.73478 5.56592 5 5.56592H7V6.56592C7 6.83113 7.10536 7.08549 7.29289 7.27302C7.48043 7.46056 7.73478 7.56592 8 7.56592C8.26522 7.56592 8.51957 7.46056 8.70711 7.27302C8.89464 7.08549 9 6.83113 9 6.56592V5.56592C9.55228 5.56592 10 5.1182 10 4.56592Z" fill="#0C0024"/>
<path d="M19.9915 6.97547L15.0696 11.9225C14.8685 12.1236 14.6296 12.2241 14.3528 12.2241C14.0767 12.2241 13.8381 12.1236 13.637 11.9225C13.436 11.7215 13.3354 11.4826 13.3354 11.2058C13.3354 10.9296 13.436 10.6911 13.637 10.49L18.5841 5.56807H14.9439C14.6591 5.56807 14.4202 5.4719 14.2271 5.27955C14.0348 5.08654 13.9386 4.84761 13.9386 4.56278C13.9386 4.27795 14.0348 4.03903 14.2271 3.84601C14.4202 3.65367 14.6591 3.5575 14.9439 3.5575C15.2287 3.5575 20.9968 3.5575 20.9968 3.5575C21.2816 3.5575 21.5202 3.65367 21.7126 3.84601C21.9056 4.03903 22.0021 4.27795 22.0021 4.56278V10.6157C22.0021 10.9005 21.9056 11.1391 21.7126 11.3314C21.5202 11.5244 21.2816 11.6209 20.9968 11.6209C20.712 11.6209 20.4734 11.5244 20.281 11.3314C20.088 11.1391 19.9915 10.9005 19.9915 10.6157V6.97547Z" fill="#0C0024"/>
</svg>
