<svg
  width="24"
  height="24"
  viewBox="0 0 97 96"
  fill="none"
  xmlns="http://www.w3.org/2000/svg"
>
<path
    d="M76.5 14.2617H68.5V10.2617C68.5 9.20085 68.0786 8.18344 67.3284 7.43329C66.5783 6.68315 65.5609 6.26172 64.5 6.26172C63.4391 6.26172 62.4217 6.68315 61.6716 7.43329C60.9214 8.18344 60.5 9.20085 60.5 10.2617V14.2617H36.5V10.2617C36.5 9.20085 36.0786 8.18344 35.3284 7.43329C34.5783 6.68315 33.5609 6.26172 32.5 6.26172C31.4391 6.26172 30.4217 6.68315 29.6716 7.43329C28.9214 8.18344 28.5 9.20085 28.5 10.2617V14.2617H20.5C17.3174 14.2617 14.2652 15.526 12.0147 17.7764C9.76428 20.0269 8.5 23.0791 8.5 26.2617V74.2617C8.5 77.4443 9.76428 80.4966 12.0147 82.747C14.2652 84.9974 17.3174 86.2617 20.5 86.2617H76.5C79.6826 86.2617 82.7348 84.9974 84.9853 82.747C87.2357 80.4966 88.5 77.4443 88.5 74.2617V26.2617C88.5 23.0791 87.2357 20.0269 84.9853 17.7764C82.7348 15.526 79.6826 14.2617 76.5 14.2617ZM80.5 74.2617C80.5 75.3226 80.0786 76.34 79.3284 77.0901C78.5783 77.8403 77.5609 78.2617 76.5 78.2617H20.5C19.4391 78.2617 18.4217 77.8403 17.6716 77.0901C16.9214 76.34 16.5 75.3226 16.5 74.2617V46.2617H80.5V74.2617ZM80.5 38.2617H16.5V26.2617C16.5 25.2009 16.9214 24.1834 17.6716 23.4333C18.4217 22.6831 19.4391 22.2617 20.5 22.2617H28.5V26.2617C28.5 27.3226 28.9214 28.34 29.6716 29.0901C30.4217 29.8403 31.4391 30.2617 32.5 30.2617C33.5609 30.2617 34.5783 29.8403 35.3284 29.0901C36.0786 28.34 36.5 27.3226 36.5 26.2617V22.2617H60.5V26.2617C60.5 27.3226 60.9214 28.34 61.6716 29.0901C62.4217 29.8403 63.4391 30.2617 64.5 30.2617C65.5609 30.2617 66.5783 29.8403 67.3284 29.0901C68.0786 28.34 68.5 27.3226 68.5 26.2617V22.2617H76.5C77.5609 22.2617 78.5783 22.6831 79.3284 23.4333C80.0786 24.1834 80.5 25.2009 80.5 26.2617V38.2617Z"
    fill="#0C0024"
  />
</svg>
