<svg width="24" height="24" viewBox="0 0 24 24" fill="none" xmlns="http://www.w3.org/2000/svg">
  <path d="M11.25 20.75C11.25 20.9489 11.329 21.1397 11.4697 21.2803C11.6103 21.421 11.8011 21.5 12 21.5C12.1989 21.5 12.3897 21.421 12.5303 21.2803C12.671 21.1397 12.75 20.9489 12.75 20.75L12.75 19.5L15.25 19.5C15.5455 19.5 15.8381 19.4418 16.111 19.3287C16.384 19.2157 16.6321 19.0499 16.841 18.841C17.0499 18.6321 17.2157 18.384 17.3287 18.111C17.4418 17.8381 17.5 17.5455 17.5 17.25L17.5 14.75C17.5 14.1533 17.2629 13.581 16.841 13.159C16.419 12.7371 15.8467 12.5 15.25 12.5L12.75 12.5L12.75 10.5L17.25 10.5C17.8467 10.5 18.419 10.2629 18.841 9.84099C19.2629 9.41903 19.5 8.84674 19.5 8.25L19.5 5.75C19.5 5.15326 19.2629 4.58097 18.841 4.15901C18.419 3.73705 17.8467 3.5 17.25 3.5L12.75 3.5L12.75 2.25C12.75 2.05109 12.671 1.86032 12.5303 1.71967C12.3897 1.57902 12.1989 1.5 12 1.5C11.8011 1.5 11.6103 1.57902 11.4697 1.71967C11.329 1.86032 11.25 2.05109 11.25 2.25L11.25 3.5L6.75 3.5C6.15326 3.5 5.58097 3.73705 5.15901 4.15901C4.73705 4.58097 4.5 5.15326 4.5 5.75L4.5 8.25C4.5 8.84674 4.73705 9.41903 5.15901 9.84099C5.58097 10.2629 6.15326 10.5 6.75 10.5L11.25 10.5L11.25 12.5L8.75 12.5C8.15326 12.5 7.58097 12.7371 7.15901 13.159C6.73705 13.581 6.5 14.1533 6.5 14.75L6.5 17.25C6.5 17.5455 6.5582 17.8381 6.67127 18.111C6.78434 18.384 6.95008 18.6321 7.15901 18.841C7.36794 19.0499 7.61598 19.2157 7.88896 19.3287C8.16194 19.4418 8.45453 19.5 8.75 19.5L11.25 19.5L11.25 20.75ZM15.25 18L8.75 18C8.55109 18 8.36032 17.921 8.21967 17.7803C8.07902 17.6397 8 17.4489 8 17.25L8 14.75C8 14.5511 8.07902 14.3603 8.21967 14.2197C8.36032 14.079 8.55109 14 8.75 14L15.25 14C15.4489 14 15.6397 14.079 15.7803 14.2197C15.921 14.3603 16 14.5511 16 14.75L16 17.25C16 17.4489 15.921 17.6397 15.7803 17.7803C15.6397 17.921 15.4489 18 15.25 18ZM17.25 9L6.75 9C6.55109 9 6.36032 8.92098 6.21967 8.78033C6.07902 8.63968 6 8.44891 6 8.25L6 5.75C6 5.55109 6.07902 5.36032 6.21967 5.21967C6.36032 5.07902 6.55109 5 6.75 5L17.25 5C17.4489 5 17.6397 5.07902 17.7803 5.21967C17.921 5.36032 18 5.55109 18 5.75L18 8.25C18 8.44891 17.921 8.63968 17.7803 8.78033C17.6397 8.92098 17.4489 9 17.25 9Z" fill="#0C0024" stroke="#0C0024" stroke-width="0.3"/>
</svg>