<svg width="24" height="24" viewBox="0 0 24 24" fill="none" xmlns="http://www.w3.org/2000/svg">
<path d="M14.141 15.4181C14.2698 15.5482 14.3421 15.7239 14.3421 15.9071C14.3421 16.0902 14.2698 16.2659 14.141 16.3961C14.0777 16.4603 14.0023 16.5113 13.9191 16.5462C13.8359 16.581 13.7467 16.5989 13.6565 16.5989C13.5663 16.5989 13.477 16.581 13.3939 16.5462C13.3107 16.5113 13.2353 16.4603 13.172 16.3961L9.34199 12.4881C9.21332 12.3576 9.14117 12.1818 9.14117 11.9986C9.14117 11.8153 9.21332 11.6395 9.34199 11.5091L13.172 7.60106C13.2353 7.53681 13.3107 7.48578 13.3939 7.45096C13.477 7.41613 13.5663 7.39819 13.6565 7.39819C13.7467 7.39819 13.8359 7.41613 13.9191 7.45096C14.0023 7.48578 14.0777 7.53681 14.141 7.60106C14.2698 7.73119 14.3421 7.90692 14.3421 8.09006C14.3421 8.27319 14.2698 8.44892 14.141 8.57906L11 12.0001L14.141 15.4181Z" fill="#0C0024"/>
</svg>
