<svg width="24" height="24" viewBox="0 0 24 24" fill="none" xmlns="http://www.w3.org/2000/svg">
<path d="M8.58199 14.1411C8.45185 14.2699 8.27612 14.3422 8.09299 14.3422C7.90985 14.3422 7.73412 14.2699 7.60399 14.1411C7.53974 14.0778 7.48871 14.0024 7.45389 13.9192C7.41906 13.836 7.40112 13.7467 7.40112 13.6566C7.40112 13.5664 7.41906 13.4771 7.45389 13.3939C7.48871 13.3107 7.53974 13.2353 7.60399 13.1721L11.512 9.34205C11.6424 9.21338 11.8183 9.14124 12.0015 9.14124C12.1847 9.14124 12.3606 9.21338 12.491 9.34205L16.399 13.1721C16.4632 13.2353 16.5143 13.3107 16.5491 13.3939C16.5839 13.4771 16.6018 13.5664 16.6018 13.6566C16.6018 13.7467 16.5839 13.836 16.5491 13.9192C16.5143 14.0024 16.4632 14.0778 16.399 14.1411C16.2686 14.2697 16.0927 14.3419 15.9095 14.3419C15.7263 14.3419 15.5504 14.2697 15.42 14.1411L12 11.0001L8.58199 14.1411Z" fill="#0C0024"/>
</svg>
