<svg width="24" height="24" viewBox="0 0 24 24" fill="none" xmlns="http://www.w3.org/2000/svg">
<path d="M13 12L9.859 8.58003C9.73015 8.4499 9.65787 8.27417 9.65787 8.09103C9.65787 7.9079 9.73015 7.73217 9.859 7.60203C9.92227 7.53778 9.9977 7.48676 10.0809 7.45193C10.1641 7.41711 10.2533 7.39917 10.3435 7.39917C10.4337 7.39917 10.523 7.41711 10.6061 7.45193C10.6893 7.48676 10.7647 7.53778 10.828 7.60203L14.658 11.51C14.7867 11.6405 14.8588 11.8163 14.8588 11.9995C14.8588 12.1828 14.7867 12.3586 14.658 12.489L10.828 16.397C10.7647 16.4613 10.6893 16.5123 10.6061 16.5471C10.523 16.582 10.4337 16.5999 10.3435 16.5999C10.2533 16.5999 10.1641 16.582 10.0809 16.5471C9.9977 16.5123 9.92227 16.4613 9.859 16.397C9.73015 16.2669 9.65787 16.0912 9.65787 15.908C9.65787 15.7249 9.73015 15.5492 9.859 15.419L13 12Z" fill="#0C0024"/>
</svg>
