<svg width="21" height="20" viewBox="0 0 21 20" fill="none" xmlns="http://www.w3.org/2000/svg">
<path fill-rule="evenodd" clip-rule="evenodd" d="M10.6247 0.833252C5.56217 0.833252 1.45801 4.93741 1.45801 9.9999C1.45801 15.0624 5.56217 19.1666 10.6247 19.1666C15.6872 19.1666 19.7913 15.0624 19.7913 9.9999C19.7913 4.93741 15.6872 0.833252 10.6247 0.833252ZM14.598 8.44991C14.6712 8.36628 14.7269 8.26886 14.7618 8.16338C14.7968 8.0579 14.8103 7.9465 14.8015 7.83573C14.7928 7.72495 14.762 7.61704 14.711 7.51835C14.6599 7.41965 14.5896 7.33216 14.5043 7.26103C14.4189 7.18989 14.3202 7.13654 14.2139 7.10413C14.1076 7.07171 13.9959 7.06088 13.8854 7.07227C13.7749 7.08365 13.6677 7.11703 13.5703 7.17044C13.4728 7.22384 13.3871 7.2962 13.318 7.38324L9.73466 11.6824L7.8805 9.8274C7.72333 9.67561 7.51283 9.59161 7.29433 9.59351C7.07583 9.59541 6.86682 9.68305 6.71232 9.83756C6.55781 9.99206 6.47017 10.2011 6.46827 10.4196C6.46637 10.6381 6.55037 10.8486 6.70217 11.0057L9.20216 13.5057C9.28404 13.5876 9.38207 13.6514 9.49001 13.6933C9.59794 13.7351 9.71341 13.754 9.82905 13.7488C9.94469 13.7435 10.058 13.7142 10.1617 13.6628C10.2654 13.6113 10.3572 13.5388 10.4313 13.4499L14.598 8.44991Z" fill="#00CA7A"/>
</svg>
