<svg width="24" height="24" viewBox="0 0 24 24" fill="none" xmlns="http://www.w3.org/2000/svg">
<path fill-rule="evenodd" clip-rule="evenodd" d="M5.25447 22.3696H5.77565C6.30968 22.3696 6.7426 21.9367 6.7426 21.4027C6.7426 20.8687 6.30968 20.4357 5.77565 20.4357H5.34675C5.31617 20.4343 5.28541 20.4336 5.25447 20.4336H3.70003C3.24178 20.4336 2.87029 20.0621 2.87029 19.6038V3.70049C2.87029 3.24224 3.24178 2.87075 3.70003 2.87075H16.1461C16.6044 2.87075 16.9759 3.24224 16.9759 3.70049V6.51993C16.9759 6.55087 16.9766 6.58163 16.978 6.61221V7.09376C16.978 7.62779 17.411 8.06071 17.945 8.06071C18.479 8.06071 18.9119 7.62779 18.9119 7.09376V6.51993V6.06115V3.70049C18.9119 2.17298 17.6736 0.934692 16.1461 0.934692H3.70003C2.17253 0.934692 0.934235 2.17298 0.934235 3.70049V19.6038C0.934235 21.1313 2.17252 22.3696 3.70003 22.3696H5.25447ZM5.00224 5.93062C5.00224 5.39599 5.41304 4.96259 5.91979 4.96259H13.8362C14.3429 4.96259 14.7537 5.39599 14.7537 5.93062C14.7537 6.46525 14.3429 6.89865 13.8362 6.89865H5.91979C5.41304 6.89865 5.00224 6.46525 5.00224 5.93062ZM5.00224 9.74495C5.00224 9.21032 5.43565 8.77692 5.97027 8.77692H13.4892C14.0238 8.77692 14.4572 9.21032 14.4572 9.74495C14.4572 10.2796 14.0238 10.713 13.4892 10.713H5.97027C5.43565 10.713 5.00224 10.2796 5.00224 9.74495ZM5.97027 12.5911C5.43565 12.5911 5.00224 13.0245 5.00224 13.5592C5.00224 14.0938 5.43565 14.5272 5.97027 14.5272H9.92406C10.4587 14.5272 10.8921 14.0938 10.8921 13.5592C10.8921 13.0245 10.4587 12.5911 9.92406 12.5911H5.97027ZM5.00224 17.3736C5.00224 16.839 5.48974 16.4056 6.09109 16.4056H6.66573C7.26709 16.4056 7.75458 16.839 7.75458 17.3736C7.75458 17.9082 7.26709 18.3416 6.66573 18.3416H6.09109C5.48974 18.3416 5.00224 17.9082 5.00224 17.3736ZM18.8641 9.8017C18.486 9.42366 17.8731 9.42366 17.4951 9.8017L9.79027 17.5065C9.6662 17.6306 9.57819 17.786 9.53564 17.9562L8.57254 21.8086C8.49007 22.1385 8.58672 22.4875 8.82716 22.7279C9.0676 22.9684 9.41657 23.065 9.74645 22.9826L13.5989 22.0195C13.7691 21.9769 13.9245 21.8889 14.0486 21.7648L20.1058 15.7076L20.663 16.2648L17.4951 19.4327C17.1171 19.8108 17.1171 20.4237 17.4951 20.8017C17.8731 21.1798 18.4861 21.1798 18.8641 20.8017L22.7165 16.9493C23.0946 16.5713 23.0946 15.9584 22.7165 15.5803L21.4748 14.3386L21.7534 14.06C22.1314 13.682 22.1314 13.069 21.7534 12.691L18.8641 9.8017ZM19.6999 13.3755L19.4213 13.6541L12.8692 20.2062L10.8421 20.713L11.3489 18.6859L18.1796 11.8552L19.6999 13.3755Z" fill="#0C0024"/>
</svg>
