<svg width="24" height="24" viewBox="0 0 24 24" fill="none" xmlns="http://www.w3.org/2000/svg">
<path fill-rule="evenodd" clip-rule="evenodd" d="M10.7924 21.9771C10.6439 21.9455 10.5046 21.8805 10.385 21.7869C10.142 21.5979 10 21.3069 10 20.9989V19.9989H6C5.73478 19.9989 5.48043 19.8935 5.29289 19.706C5.10536 19.5185 5 19.2641 5 18.9989V4.99889C5 4.73368 5.10536 4.47932 5.29289 4.29179C5.48043 4.10425 5.73478 3.99889 6 3.99889H10V2.99889C10.0006 2.84719 10.0356 2.6976 10.1024 2.56139C10.1692 2.42518 10.2661 2.30589 10.3856 2.21252C10.5052 2.11914 10.6444 2.0541 10.7927 2.02229C10.941 1.99049 11.0947 1.99274 11.242 2.02889L19.242 4.02889C19.4584 4.08287 19.6506 4.20767 19.788 4.38343C19.9253 4.55919 19.9999 4.77583 20 4.99889V18.9989C20.0001 19.222 19.9255 19.4387 19.7882 19.6145C19.6508 19.7903 19.4585 19.9151 19.242 19.9689L11.242 21.9689C11.0947 22.0058 10.941 22.0086 10.7924 21.9771ZM18 5.77989L12 4.27989V19.7179L18 18.2179V5.77989ZM7 5.99889V17.9989H10V5.99889H7ZM15 12.1869C15 12.6459 14.688 13.0459 14.242 13.1579C14.0946 13.1947 13.9408 13.1974 13.7922 13.1658C13.6436 13.1343 13.5042 13.0693 13.3845 12.9758C13.2648 12.8823 13.1679 12.7627 13.1013 12.6262C13.0347 12.4897 13 12.3398 13 12.1879V11.8109C12.9999 11.5457 13.1051 11.2913 13.2925 11.1037C13.48 10.916 13.7343 10.8106 13.9995 10.8104C14.2647 10.8103 14.5191 10.9155 14.7068 11.103C14.8944 11.2904 14.9999 11.5447 15 11.8099V12.1869Z" fill="#0C0024"/>
</svg>
