<svg width="22" height="19" viewBox="0 0 22 19" fill="none" xmlns="http://www.w3.org/2000/svg">
<path fill-rule="evenodd" clip-rule="evenodd" d="M14.4802 2.07543C15.4965 2.79909 16.2619 3.82152 16.6699 5.00047C17.5797 5.11331 18.4409 5.4741 19.1595 6.0434C19.878 6.6127 20.4262 7.36859 20.7441 8.22844C21.0621 9.08829 21.1375 10.019 20.9621 10.9188C20.7868 11.8186 20.3674 12.6529 19.7499 13.3305C19.6562 13.4371 19.5408 13.5226 19.4115 13.5813C19.2822 13.6399 19.1419 13.6703 18.9999 13.6705C18.7568 13.6701 18.5222 13.5812 18.3399 13.4205C18.24 13.3336 18.1584 13.2278 18.0998 13.1091C18.0411 12.9905 18.0066 12.8614 17.9983 12.7293C17.9899 12.5972 18.0078 12.4647 18.051 12.3396C18.0942 12.2145 18.1618 12.0993 18.2499 12.0005C18.6368 11.5679 18.8899 11.0325 18.9786 10.459C19.0673 9.88546 18.9878 9.29855 18.7496 8.76934C18.5115 8.24014 18.125 7.79136 17.6369 7.4774C17.1488 7.16344 16.5802 6.99777 15.9999 7.00047H15.9399C15.7059 7.00519 15.4778 6.92772 15.295 6.78154C15.1123 6.63537 14.9866 6.42974 14.9399 6.20047C14.7563 5.29624 14.2657 4.48329 13.5513 3.89937C12.8369 3.31544 11.9426 2.99646 11.0199 2.99646C10.0972 2.99646 9.2029 3.31544 8.48849 3.89937C7.77408 4.48329 7.28351 5.29624 7.0999 6.20047C7.05314 6.42974 6.92747 6.63537 6.74475 6.78154C6.56204 6.92772 6.33384 7.00519 6.0999 7.00047H5.9999C5.41958 6.99777 4.85094 7.16344 4.36289 7.4774C3.87483 7.79136 3.48831 8.24014 3.25017 8.76934C3.01203 9.29855 2.93249 9.88546 3.02118 10.459C3.10988 11.0325 3.36301 11.5679 3.7499 12.0005C3.86402 12.0931 3.9563 12.2098 4.02018 12.3422C4.08406 12.4746 4.11796 12.6195 4.11947 12.7665C4.12098 12.9135 4.09006 13.059 4.02891 13.1927C3.96776 13.3264 3.87789 13.445 3.76569 13.54C3.6535 13.6349 3.52174 13.704 3.3798 13.7423C3.23785 13.7806 3.08922 13.7871 2.94448 13.7613C2.79974 13.7356 2.66246 13.6783 2.5424 13.5934C2.42235 13.5086 2.32247 13.3983 2.2499 13.2705C1.64904 12.5917 1.244 11.7624 1.0781 10.8713C0.912205 9.98013 0.991692 9.06063 1.30806 8.21116C1.62443 7.36169 2.16578 6.6142 2.8742 6.04866C3.58261 5.48312 4.43145 5.1208 5.3299 5.00047C5.73794 3.82152 6.50332 2.79909 7.51956 2.07543C8.5358 1.35177 9.75233 0.962891 10.9999 0.962891C12.2475 0.962891 13.464 1.35177 14.4802 2.07543ZM11.9999 15.6405L13.3099 14.3805C13.4019 14.2782 13.514 14.196 13.6392 14.139C13.7644 14.082 13.9001 14.0515 14.0376 14.0493C14.1752 14.0471 14.3117 14.0733 14.4386 14.1263C14.5656 14.1793 14.6803 14.2579 14.7754 14.3573C14.8706 14.4566 14.9443 14.5745 14.9918 14.7036C15.0394 14.8327 15.0598 14.9702 15.0518 15.1075C15.0437 15.2449 15.0074 15.3791 14.9452 15.5017C14.8829 15.6244 14.796 15.7329 14.6899 15.8205L11.6899 18.7205C11.5045 18.8992 11.2574 18.9995 10.9999 19.0005C10.8683 19.0012 10.7378 18.976 10.616 18.9263C10.4942 18.8765 10.3834 18.8032 10.2899 18.7105L7.28991 15.7105C7.19667 15.6172 7.12271 15.5066 7.07225 15.3847C7.02179 15.2629 6.99582 15.1323 6.99582 15.0005C6.99582 14.8686 7.02179 14.7381 7.07225 14.6162C7.12271 14.4944 7.19667 14.3837 7.28991 14.2905C7.38315 14.1973 7.49384 14.1233 7.61566 14.0728C7.73748 14.0224 7.86805 13.9964 7.99991 13.9964C8.13177 13.9964 8.26234 14.0224 8.38416 14.0728C8.50598 14.1233 8.61667 14.1973 8.70991 14.2905L9.99991 15.5905V10.0005C9.99991 9.73527 10.1053 9.48092 10.2928 9.29338C10.4803 9.10585 10.7347 9.00049 10.9999 9.00049C11.2651 9.00049 11.5195 9.10585 11.707 9.29338C11.8946 9.48092 11.9999 9.73527 11.9999 10.0005V15.6405Z" fill="#858091"/>
</svg>
