<svg width="22" height="19" viewBox="0 0 22 19" fill="none" xmlns="http://www.w3.org/2000/svg">
<path fill-rule="evenodd" clip-rule="evenodd" d="M14.4802 2.07494C15.4965 2.7986 16.2619 3.82103 16.6699 4.99998C17.5797 5.11282 18.4409 5.47362 19.1595 6.04291C19.878 6.61221 20.4262 7.3681 20.7441 8.22795C21.0621 9.0878 21.1375 10.0185 20.9621 10.9183C20.7868 11.8181 20.3674 12.6524 19.7499 13.33C19.6562 13.4366 19.5408 13.5221 19.4115 13.5808C19.2822 13.6394 19.1419 13.6698 18.9999 13.67C18.7568 13.6696 18.5222 13.5808 18.3399 13.42C18.24 13.3331 18.1584 13.2273 18.0998 13.1086C18.0411 12.99 18.0066 12.8609 17.9983 12.7288C17.9899 12.5967 18.0078 12.4643 18.051 12.3392C18.0942 12.214 18.1618 12.0988 18.2499 12C18.6368 11.5674 18.8899 11.032 18.9786 10.4585C19.0673 9.88497 18.9878 9.29806 18.7496 8.76885C18.5115 8.23965 18.125 7.79087 17.6369 7.47691C17.1488 7.16295 16.5802 6.99728 15.9999 6.99998H15.9399C15.7059 7.0047 15.4778 6.92723 15.295 6.78105C15.1123 6.63488 14.9866 6.42926 14.9399 6.19998C14.7563 5.29575 14.2657 4.4828 13.5513 3.89888C12.8369 3.31496 11.9426 2.99597 11.0199 2.99597C10.0972 2.99597 9.2029 3.31496 8.48849 3.89888C7.77408 4.4828 7.28351 5.29575 7.0999 6.19998C7.05314 6.42926 6.92747 6.63488 6.74475 6.78105C6.56204 6.92723 6.33384 7.0047 6.0999 6.99998H5.9999C5.41958 6.99728 4.85094 7.16295 4.36289 7.47691C3.87483 7.79087 3.48831 8.23965 3.25017 8.76885C3.01203 9.29806 2.93249 9.88497 3.02118 10.4585C3.10988 11.032 3.36301 11.5674 3.7499 12C3.86402 12.0927 3.9563 12.2093 4.02018 12.3417C4.08406 12.4742 4.11796 12.619 4.11947 12.766C4.12098 12.913 4.09006 13.0585 4.02891 13.1922C3.96776 13.3259 3.87789 13.4445 3.76569 13.5395C3.6535 13.6345 3.52174 13.7035 3.3798 13.7418C3.23785 13.7801 3.08922 13.7866 2.94448 13.7608C2.79974 13.7351 2.66246 13.6778 2.5424 13.5929C2.42235 13.5081 2.32247 13.3978 2.2499 13.27C1.64904 12.5913 1.244 11.762 1.0781 10.8708C0.912205 9.97964 0.991692 9.06014 1.30806 8.21067C1.62443 7.3612 2.16578 6.61371 2.8742 6.04817C3.58261 5.48263 4.43145 5.12032 5.3299 4.99998C5.73794 3.82103 6.50332 2.7986 7.51956 2.07494C8.5358 1.35129 9.75233 0.962402 10.9999 0.962402C12.2475 0.962402 13.464 1.35129 14.4802 2.07494ZM11.9999 15.64L13.3099 14.38C13.4019 14.2777 13.514 14.1955 13.6392 14.1385C13.7644 14.0815 13.9001 14.051 14.0376 14.0488C14.1752 14.0466 14.3117 14.0729 14.4386 14.1259C14.5656 14.1788 14.6803 14.2575 14.7754 14.3568C14.8706 14.4561 14.9443 14.574 14.9918 14.7031C15.0394 14.8322 15.0598 14.9697 15.0518 15.107C15.0437 15.2444 15.0074 15.3786 14.9452 15.5013C14.8829 15.6239 14.796 15.7324 14.6899 15.82L11.6899 18.72C11.5045 18.8987 11.2574 18.999 10.9999 19C10.8683 19.0008 10.7378 18.9755 10.616 18.9258C10.4942 18.876 10.3834 18.8027 10.2899 18.71L7.28991 15.71C7.19667 15.6168 7.12271 15.5061 7.07225 15.3842C7.02179 15.2624 6.99582 15.1319 6.99582 15C6.99582 14.8681 7.02179 14.7376 7.07225 14.6158C7.12271 14.4939 7.19667 14.3832 7.28991 14.29C7.38315 14.1968 7.49384 14.1228 7.61566 14.0723C7.73748 14.0219 7.86805 13.9959 7.99991 13.9959C8.13177 13.9959 8.26234 14.0219 8.38416 14.0723C8.50598 14.1228 8.61667 14.1968 8.70991 14.29L9.99991 15.59V10C9.99991 9.73478 10.1053 9.48043 10.2928 9.29289C10.4803 9.10536 10.7347 9 10.9999 9C11.2651 9 11.5195 9.10536 11.707 9.29289C11.8946 9.48043 11.9999 9.73478 11.9999 10V15.64Z" fill="#663FBA"/>
</svg>
