<svg width="24" height="24" viewBox="0 0 24 24" fill="none" xmlns="http://www.w3.org/2000/svg">
<path fill-rule="evenodd" clip-rule="evenodd" d="M15.4803 4.07494C16.4966 4.7986 17.2619 5.82103 17.67 6.99998C18.5798 7.11282 19.441 7.47362 20.1595 8.04291C20.8781 8.61221 21.4263 9.3681 21.7442 10.228C22.0621 11.0878 22.1376 12.0185 21.9622 12.9183C21.7869 13.8181 21.3675 14.6524 20.75 15.33C20.6563 15.4366 20.5409 15.5221 20.4116 15.5808C20.2823 15.6394 20.142 15.6698 20 15.67C19.7569 15.6696 19.5223 15.5808 19.34 15.42C19.2401 15.3331 19.1585 15.2273 19.0999 15.1086C19.0412 14.99 19.0067 14.8609 18.9983 14.7288C18.99 14.5967 19.0079 14.4643 19.0511 14.3392C19.0943 14.214 19.1619 14.0988 19.25 14C19.6369 13.5674 19.89 13.032 19.9787 12.4585C20.0674 11.885 19.9879 11.2981 19.7497 10.7689C19.5116 10.2396 19.1251 9.79087 18.637 9.47691C18.1489 9.16295 17.5803 8.99728 17 8.99998H16.94C16.706 9.0047 16.4778 8.92723 16.2951 8.78105C16.1124 8.63488 15.9867 8.42926 15.94 8.19998C15.7564 7.29575 15.2658 6.4828 14.5514 5.89888C13.837 5.31496 12.9427 4.99597 12.02 4.99597C11.0973 4.99597 10.203 5.31496 9.48858 5.89888C8.77417 6.4828 8.2836 7.29575 8.09999 8.19998C8.05324 8.42926 7.92756 8.63488 7.74484 8.78105C7.56213 8.92723 7.33393 9.0047 7.09999 8.99998H6.99999C6.41967 8.99728 5.85103 9.16295 5.36298 9.47691C4.87492 9.79087 4.4884 10.2396 4.25026 10.7689C4.01212 11.2981 3.93258 11.885 4.02127 12.4585C4.10997 13.032 4.3631 13.5674 4.74999 14C4.86411 14.0927 4.9564 14.2093 5.02027 14.3417C5.08415 14.4742 5.11805 14.619 5.11956 14.766C5.12107 14.913 5.09015 15.0585 5.029 15.1922C4.96785 15.3259 4.87798 15.4445 4.76579 15.5395C4.65359 15.6345 4.52183 15.7035 4.37989 15.7418C4.23795 15.7801 4.08931 15.7866 3.94458 15.7608C3.79984 15.7351 3.66255 15.6778 3.5425 15.5929C3.42244 15.5081 3.32257 15.3978 3.24999 15.27C2.64913 14.5913 2.24409 13.762 2.07819 12.8708C1.9123 11.9796 1.99178 11.0601 2.30815 10.2107C2.62452 9.3612 3.16587 8.61371 3.87429 8.04817C4.5827 7.48263 5.43154 7.12032 6.32999 6.99998C6.73803 5.82103 7.50342 4.7986 8.51965 4.07494C9.53589 3.35129 10.7524 2.9624 12 2.9624C13.2475 2.9624 14.4641 3.35129 15.4803 4.07494ZM13 17.64L14.31 16.38C14.402 16.2777 14.5141 16.1955 14.6393 16.1385C14.7645 16.0815 14.9002 16.051 15.0377 16.0488C15.1753 16.0466 15.3118 16.0729 15.4387 16.1259C15.5657 16.1788 15.6803 16.2575 15.7755 16.3568C15.8707 16.4561 15.9444 16.574 15.9919 16.7031C16.0395 16.8322 16.0599 16.9697 16.0518 17.107C16.0438 17.2444 16.0075 17.3786 15.9453 17.5013C15.883 17.6239 15.7961 17.7324 15.69 17.82L12.69 20.72C12.5046 20.8987 12.2575 20.999 12 21C11.8684 21.0008 11.7379 20.9755 11.6161 20.9258C11.4943 20.876 11.3834 20.8027 11.29 20.71L8.29 17.71C8.19676 17.6168 8.1228 17.5061 8.07234 17.3842C8.02188 17.2624 7.99591 17.1319 7.99591 17C7.99591 16.8681 8.02188 16.7376 8.07234 16.6158C8.1228 16.4939 8.19676 16.3832 8.29 16.29C8.38324 16.1968 8.49393 16.1228 8.61575 16.0723C8.73757 16.0219 8.86814 15.9959 9 15.9959C9.13186 15.9959 9.26243 16.0219 9.38425 16.0723C9.50607 16.1228 9.61676 16.1968 9.71 16.29L11 17.59V12C11 11.7348 11.1054 11.4804 11.2929 11.2929C11.4804 11.1054 11.7348 11 12 11C12.2652 11 12.5196 11.1054 12.7071 11.2929C12.8946 11.4804 13 11.7348 13 12V17.64Z" fill="#0C0024"/>
</svg>
