<svg width="96" height="96" viewBox="0 0 96 96" fill="none" xmlns="http://www.w3.org/2000/svg">
<path d="M86.46 40.7603L82.46 38.5603L46.46 18.5603H46.02C45.7748 18.4566 45.5203 18.3763 45.26 18.3203H43.78C43.5067 18.3763 43.239 18.4566 42.98 18.5603H42.54L6.54 38.5603C5.92441 38.9092 5.41238 39.4151 5.05614 40.0265C4.6999 40.6378 4.51221 41.3327 4.51221 42.0403C4.51221 42.7479 4.6999 43.4428 5.05614 44.0542C5.41238 44.6655 5.92441 45.1714 6.54 45.5203L16.5 51.0403V70.0003C16.5 73.1829 17.7643 76.2352 20.0147 78.4856C22.2652 80.736 25.3174 82.0003 28.5 82.0003H60.5C63.6826 82.0003 66.7348 80.736 68.9853 78.4856C71.2357 76.2352 72.5 73.1829 72.5 70.0003V51.0403L80.5 46.5603V58.0003C80.5 59.0612 80.9214 60.0786 81.6716 60.8287C82.4217 61.5789 83.4391 62.0003 84.5 62.0003C85.5609 62.0003 86.5783 61.5789 87.3284 60.8287C88.0786 60.0786 88.5 59.0612 88.5 58.0003V44.2403C88.4988 43.5315 88.3092 42.8358 87.9508 42.2243C87.5924 41.6129 87.0779 41.1076 86.46 40.7603V40.7603ZM64.5 70.0003C64.5 71.0612 64.0786 72.0786 63.3284 72.8288C62.5783 73.5789 61.5609 74.0003 60.5 74.0003H28.5C27.4391 74.0003 26.4217 73.5789 25.6716 72.8288C24.9214 72.0786 24.5 71.0612 24.5 70.0003V55.4803L42.54 65.4803L43.14 65.7203H43.5C43.832 65.7622 44.168 65.7622 44.5 65.7203C44.832 65.7622 45.168 65.7622 45.5 65.7203H45.86C46.0724 65.6756 46.2754 65.5944 46.46 65.4803L64.5 55.4803V70.0003ZM44.5 57.4403L16.74 42.0003L44.5 26.5603L72.26 42.0003L44.5 57.4403Z" fill="#F4F4F4"/>
</svg>
