<svg xmlns="http://www.w3.org/2000/svg" width="20" height="21" viewBox="0 0 20 21" fill="none">
<path fill-rule="evenodd" clip-rule="evenodd" d="M11.8623 0.314113C11.4144 0.179667 10.9412 0.151829 10.4805 0.232822C10.0198 0.313823 9.58442 0.501436 9.20914 0.780676C8.83385 1.05992 8.52907 1.42304 8.31913 1.84106C8.10921 2.259 7.99993 2.72024 8 3.18794C8 3.18787 8 3.18801 8 3.18794V17.8117C8 17.8116 8 17.8118 8 17.8117C7.99993 18.2794 8.10921 18.7409 8.31913 19.1588C8.52907 19.5768 8.83385 19.94 9.20914 20.2192C9.58442 20.4984 10.0198 20.6861 10.4805 20.7671C10.9412 20.848 11.4144 20.8202 11.8623 20.6858C11.8624 20.6858 11.8623 20.6858 11.8623 20.6858L17.8623 18.8858C18.4803 18.7003 19.0222 18.3204 19.4072 17.8027C19.7922 17.2851 20.0001 16.6571 20 16.0119C20 16.0119 20 16.012 20 16.0119V4.98816C20 4.98808 20 4.98823 20 4.98816C20.0001 4.34303 19.7922 3.71483 19.4072 3.19716C19.0222 2.67944 18.4805 2.29966 17.8625 2.11416L11.8623 0.314113C11.8623 0.314097 11.8624 0.314128 11.8623 0.314113ZM10.8268 2.20261C10.9804 2.17561 11.1382 2.18489 11.2875 2.22972L17.2875 4.02972C17.2876 4.02973 17.2874 4.0297 17.2875 4.02972C17.4934 4.09157 17.6741 4.21819 17.8024 4.39072C17.9308 4.56329 18 4.77265 18 4.98772V16.0119C18 16.227 17.9308 16.4366 17.8024 16.6092C17.6741 16.7817 17.4936 16.9083 17.2877 16.9701C17.2877 16.9701 17.2876 16.9701 17.2877 16.9701L11.2877 18.7701C11.1383 18.8149 10.9804 18.8243 10.8268 18.7973C10.6733 18.7703 10.5281 18.7077 10.403 18.6147C10.278 18.5216 10.1764 18.4005 10.1064 18.2612C10.0364 18.1219 9.99997 17.9681 10 17.8122V3.18794C9.99997 3.03202 10.0364 2.87802 10.1064 2.73869C10.1764 2.59935 10.278 2.4783 10.403 2.38523C10.5281 2.29215 10.6733 2.22961 10.8268 2.20261ZM7 2.49994C7 1.94765 6.55229 1.49994 6 1.49994H3C2.20435 1.49994 1.44129 1.81601 0.878679 2.37862C0.316071 2.94123 0 3.70429 0 4.49994V5.49994C0 6.05222 0.447716 6.49994 1 6.49994C1.55228 6.49994 2 6.05222 2 5.49994V4.49994C2 4.23472 2.10536 3.98037 2.29289 3.79283C2.48043 3.6053 2.73478 3.49994 3 3.49994H6C6.55229 3.49994 7 3.05222 7 2.49994ZM3.29289 7.79283C2.90237 8.18336 2.90237 8.81652 3.29289 9.20705L3.58579 9.49994H1C0.447716 9.49994 0 9.94765 0 10.4999C0 11.0522 0.447716 11.4999 1 11.4999H3.58579L3.29289 11.7928C2.90237 12.1834 2.90237 12.8165 3.29289 13.207C3.68342 13.5976 4.31658 13.5976 4.70711 13.207L6.70711 11.207C7.09763 10.8165 7.09763 10.1834 6.70711 9.79283L4.70711 7.79283C4.31658 7.40231 3.68342 7.40231 3.29289 7.79283ZM14 10.4999C14 9.94765 13.5523 9.49994 13 9.49994H12.999C12.4467 9.49994 11.999 9.94765 11.999 10.4999C11.999 11.0522 12.4467 11.4999 12.999 11.4999H13C13.5523 11.4999 14 11.0522 14 10.4999ZM1 14.4999C0.447716 14.4999 0 14.9477 0 15.4999V16.4999C0 17.2956 0.316071 18.0587 0.878679 18.6213C1.44129 19.1839 2.20435 19.4999 3 19.4999H6C6.55229 19.4999 7 19.0522 7 18.4999C7 17.9477 6.55229 17.4999 6 17.4999H3C2.73479 17.4999 2.48043 17.3946 2.29289 17.207C2.10536 17.0195 2 16.7652 2 16.4999V15.4999C2 14.9477 1.55228 14.4999 1 14.4999Z" fill="white"/>
</svg>