<svg width="16" height="16" viewBox="0 0 16 16" fill="none" xmlns="http://www.w3.org/2000/svg">
<path d="M14.8168 1.18223C14.6668 1.03225 14.4633 0.947998 14.2512 0.947998C14.0391 0.947998 13.8356 1.03225 13.6856 1.18223L1.184 13.6854C1.10759 13.7592 1.04665 13.8475 1.00472 13.9451C0.962792 14.0427 0.940723 14.1477 0.9398 14.2539C0.938877 14.3601 0.959118 14.4655 0.999343 14.5638C1.03957 14.6621 1.09897 14.7514 1.17408 14.8265C1.2492 14.9017 1.33852 14.9611 1.43684 15.0013C1.53515 15.0415 1.6405 15.0618 1.74672 15.0608C1.85294 15.0599 1.95792 15.0378 2.05552 14.9959C2.15313 14.954 2.2414 14.893 2.3152 14.8166L14.816 2.31343C14.966 2.1634 15.0502 1.95996 15.0502 1.74783C15.0502 1.5357 14.966 1.33225 14.816 1.18223H14.8168ZM2.4864 10.7982L4.5344 8.75023C4.47601 8.50431 4.44568 8.25257 4.444 7.99983C4.444 6.09663 6.036 4.55263 8 4.55263C8.2288 4.55263 8.4512 4.57823 8.668 4.61823L9.6304 3.65663C9.0915 3.56735 8.54625 3.52187 8 3.52063C2.752 3.51983 0 7.38463 0 7.99983C0 8.33823 0.8456 9.67183 2.4864 10.7974V10.7982ZM13.516 5.20383L11.4664 7.25183C11.5216 7.49343 11.5552 7.74223 11.5552 7.99983C11.5552 9.90303 9.964 11.4454 8 11.4454C7.7728 11.4454 7.552 11.4198 7.3368 11.3806L6.3736 12.343C6.8872 12.4262 7.4264 12.479 8 12.479C13.248 12.479 16 8.61263 16 7.99983C16 7.66063 15.1552 6.32783 13.516 5.20383Z" fill="#0C0024"/>
</svg>
