<svg width="24" height="24" viewBox="0 0 24 24" fill="none" xmlns="http://www.w3.org/2000/svg">
  <path d="M15.5969 11.9977C15.5969 13.9043 13.9836 15.4499 11.9935 15.4499C10.0034 15.4499 8.39012 13.9043 8.39012 11.9977C8.39012 10.091 10.0034 8.54541 11.9935 8.54541C13.9836 8.54539 15.5969 10.091 15.5969 11.9977ZM12 4.80957C9.9395 4.81871 7.80372 5.32033 5.78192 6.28071C4.28076 7.02315 2.8178 8.07063 1.54788 9.36353C0.92416 10.0235 0.12862 10.9792 0 11.9988C0.0152 12.882 0.9626 13.9722 1.54788 14.634C2.73874 15.8762 4.1636 16.8944 5.78192 17.7176C7.66734 18.6326 9.75424 19.1594 12 19.1887C14.0625 19.1795 16.1978 18.6721 18.2173 17.7176C19.7185 16.9752 21.1822 15.9269 22.4521 14.634C23.0758 13.9741 23.8714 13.0184 24 11.9988C23.9848 11.1156 23.0374 10.0254 22.4521 9.36349C21.2613 8.12137 19.8356 7.10391 18.2173 6.28067C16.3329 5.36635 14.2408 4.84315 12 4.80957ZM11.9985 6.59453C15.1209 6.59453 17.652 9.01441 17.652 11.9996C17.652 14.9847 15.1209 17.4046 11.9985 17.4046C8.8761 17.4046 6.34498 14.9847 6.34498 11.9996C6.34498 9.01441 8.8761 6.59453 11.9985 6.59453Z" fill="#663FBA"/>
</svg>