<svg width="16" height="16" viewBox="0 0 16 16" fill="none" xmlns="http://www.w3.org/2000/svg">
<path d="M10.3979 7.99847C10.3979 9.26955 9.32239 10.3 7.99565 10.3C6.66893 10.3 5.59341 9.26955 5.59341 7.99847C5.59341 6.72738 6.66893 5.69698 7.99565 5.69698C9.32239 5.69697 10.3979 6.72739 10.3979 7.99847ZM8 3.20642C6.62633 3.21251 5.20248 3.54693 3.85461 4.18718C2.85384 4.68214 1.87853 5.38046 1.03192 6.24239C0.616107 6.68238 0.0857467 7.31947 0 7.99922C0.0101333 8.58803 0.641733 9.31481 1.03192 9.75606C1.82583 10.5841 2.77573 11.263 3.85461 11.8118C5.11156 12.4218 6.50283 12.773 8 12.7925C9.37497 12.7864 10.7985 12.4481 12.1449 11.8118C13.1457 11.3168 14.1215 10.618 14.9681 9.75606C15.3839 9.31607 15.9142 8.67897 16 7.99922C15.9899 7.41041 15.3583 6.68361 14.9681 6.24237C14.1742 5.41429 13.2238 4.73598 12.1449 4.18715C10.8886 3.57761 9.49389 3.22881 8 3.20642ZM7.99899 4.39639C10.0806 4.39639 11.768 6.00965 11.768 7.99974C11.768 9.98982 10.0806 11.6031 7.99899 11.6031C5.9174 11.6031 4.22999 9.98981 4.22999 7.99974C4.22999 6.00965 5.9174 4.39639 7.99899 4.39639Z" fill="#0C0024"/>
</svg>
