<svg width="56" height="56" viewBox="0 0 56 56" fill="none" xmlns="http://www.w3.org/2000/svg">
<path d="M0 28C0 16.7643 0 11.1465 2.69649 7.11088C3.86382 5.36383 5.36383 3.86382 7.11088 2.69649C11.1465 0 16.7643 0 28 0C39.2357 0 44.8535 0 48.8891 2.69649C50.6362 3.86382 52.1362 5.36383 53.3035 7.11088C56 11.1465 56 16.7643 56 28C56 39.2357 56 44.8535 53.3035 48.8891C52.1362 50.6362 50.6362 52.1362 48.8891 53.3035C44.8535 56 39.2357 56 28 56C16.7643 56 11.1465 56 7.11088 53.3035C5.36383 52.1362 3.86382 50.6362 2.69649 48.8891C0 44.8535 0 39.2357 0 28Z" fill="#1877F2"/>
<path d="M29.8213 38V29H32.5537L33 25H29.8213V23.052C29.8213 22.022 29.8476 21 31.2869 21H32.7447V18.14C32.7447 18.097 31.4925 18 30.2257 18C27.58 18 25.9234 19.657 25.9234 22.7V25H23V29H25.9234V38H29.8213Z" fill="white"/>
</svg>
