<svg width="16" height="16" viewBox="0 0 16 16" fill="none" xmlns="http://www.w3.org/2000/svg">
<path d="M6 7.99984C5.63181 7.99984 5.33333 8.29831 5.33333 8.6665C5.33333 9.03469 5.63181 9.33317 6 9.33317H10C10.3682 9.33317 10.6667 9.03469 10.6667 8.6665C10.6667 8.29831 10.3682 7.99984 10 7.99984H6Z" fill="#0C0024"/>
<path d="M5.33333 11.3332C5.33333 10.965 5.63181 10.6665 6 10.6665H8C8.36819 10.6665 8.66667 10.965 8.66667 11.3332C8.66667 11.7014 8.36819 11.9998 8 11.9998H6C5.63181 11.9998 5.33333 11.7014 5.33333 11.3332Z" fill="#0C0024"/>
<path fill-rule="evenodd" clip-rule="evenodd" d="M4 0.666504C3.46957 0.666504 2.96086 0.877217 2.58579 1.25229C2.21071 1.62736 2 2.13607 2 2.6665V13.3332C2 13.8636 2.21071 14.3723 2.58579 14.7474C2.96086 15.1225 3.46957 15.3332 4 15.3332H12C12.5304 15.3332 13.0391 15.1225 13.4142 14.7474C13.7893 14.3723 14 13.8636 14 13.3332V5.56109C14 5.29465 13.9467 5.0309 13.8433 4.78533C13.74 4.53982 13.5885 4.31731 13.398 4.13109L10.4381 1.2365C10.0644 0.871162 9.56257 0.666569 9.04 0.666504H4ZM3.5286 2.1951C3.65362 2.07008 3.82319 1.99984 4 1.99984H8.66667V3.99984C8.66667 4.53027 8.87738 5.03898 9.25245 5.41405C9.62753 5.78912 10.1362 5.99984 10.6667 5.99984H12.6667V13.3332C12.6667 13.51 12.5964 13.6796 12.4714 13.8046C12.3464 13.9296 12.1768 13.9998 12 13.9998H4C3.82319 13.9998 3.65362 13.9296 3.5286 13.8046C3.40357 13.6796 3.33333 13.51 3.33333 13.3332V2.6665C3.33333 2.48969 3.40357 2.32012 3.5286 2.1951ZM12.0385 4.6665L10 2.67301V3.99984C10 4.17665 10.0702 4.34622 10.1953 4.47124C10.3203 4.59627 10.4899 4.6665 10.6667 4.6665H12.0385Z" fill="#0C0024"/>
</svg>
