<svg width="24" height="24" viewBox="0 0 24 24" fill="none" xmlns="http://www.w3.org/2000/svg">
<path d="M18 2.475C16.2375 1.3875 14.2125 0.75 12 0.75V2.475H18Z" fill="#ED4C5C"/>
<path d="M12 4.19998H20.1C19.4625 3.56248 18.75 2.96248 18 2.47498H12V4.19998Z" fill="white"/>
<path d="M12 5.92507H21.4875C21.075 5.28757 20.625 4.72507 20.1375 4.20007H12V5.92507Z" fill="#ED4C5C"/>
<path d="M12 7.64993H22.3875C22.125 7.04993 21.825 6.44993 21.4875 5.92493H12V7.64993Z" fill="white"/>
<path d="M12 9.37502H22.95C22.8 8.77502 22.6125 8.21252 22.3875 7.65002H12V9.37502Z" fill="#ED4C5C"/>
<path d="M12 11.1375H23.2125C23.175 10.5375 23.0625 9.97498 22.95 9.41248H12V11.1375Z" fill="white"/>
<path d="M23.2125 11.1376H12V12.0001H0.75C0.75 12.3001 0.75 12.5626 0.7875 12.8626H23.2125C23.25 12.5626 23.25 12.3001 23.25 12.0001C23.25 11.7001 23.25 11.4001 23.2125 11.1376Z" fill="#ED4C5C"/>
<path d="M1.04999 14.5874H22.95C23.1 14.0249 23.175 13.4624 23.2125 12.8624H0.787491C0.824991 13.4249 0.937491 14.0249 1.04999 14.5874Z" fill="white"/>
<path d="M1.6125 16.3125H22.3875C22.6125 15.75 22.8 15.1875 22.95 14.5875H1.05C1.2 15.1875 1.3875 15.75 1.6125 16.3125Z" fill="#ED4C5C"/>
<path d="M2.5125 18.0375H21.4875C21.825 17.475 22.125 16.9125 22.3875 16.3125H1.6125C1.875 16.9125 2.175 17.475 2.5125 18.0375Z" fill="white"/>
<path d="M3.8625 19.7625H20.1375C20.625 19.2375 21.1125 18.6375 21.4875 18.0375H2.5125C2.8875 18.675 3.375 19.2375 3.8625 19.7625Z" fill="#ED4C5C"/>
<path d="M5.9625 21.4876H18.0375C18.825 21.0001 19.5 20.4001 20.1375 19.7626H3.8625C4.5 20.4376 5.2125 21.0001 5.9625 21.4876Z" fill="white"/>
<path d="M12 23.2499C14.2125 23.2499 16.275 22.6124 18.0375 21.4874H5.96251C7.72501 22.6124 9.78751 23.2499 12 23.2499Z" fill="#ED4C5C"/>
<path d="M6 2.475C5.2125 2.9625 4.5 3.5625 3.8625 4.2C3.3375 4.725 2.8875 5.325 2.5125 5.925C2.175 6.4875 1.8375 7.05 1.6125 7.65C1.3875 8.2125 1.2 8.775 1.05 9.375C0.9 9.9375 0.825 10.5 0.7875 11.1C0.75 11.4 0.75 11.7 0.75 12H12V0.75C9.7875 0.75 7.7625 1.3875 6 2.475Z" fill="#428BC1"/>
<path d="M9.375 1.125L9.5625 1.6875H10.125L9.675 2.0625L9.825 2.625L9.375 2.2875L8.925 2.625L9.075 2.0625L8.625 1.6875H9.1875L9.375 1.125Z" fill="white"/>
<path d="M10.875 3.375L11.0625 3.9375H11.625L11.175 4.3125L11.325 4.875L10.875 4.5375L10.425 4.875L10.575 4.3125L10.125 3.9375H10.6875L10.875 3.375Z" fill="white"/>
<path d="M7.875 3.375L8.0625 3.9375H8.625L8.175 4.3125L8.325 4.875L7.875 4.5375L7.425 4.875L7.575 4.3125L7.125 3.9375H7.6875L7.875 3.375Z" fill="white"/>
<path d="M9.375 5.625L9.5625 6.1875H10.125L9.675 6.5625L9.825 7.125L9.375 6.7875L8.925 7.125L9.075 6.5625L8.625 6.1875H9.1875L9.375 5.625Z" fill="white"/>
<path d="M6.375 5.625L6.5625 6.1875H7.125L6.675 6.5625L6.825 7.125L6.375 6.7875L5.925 7.125L6.075 6.5625L5.625 6.1875H6.1875L6.375 5.625Z" fill="white"/>
<path d="M3.375 5.625L3.5625 6.1875H4.125L3.675 6.5625L3.825 7.125L3.375 6.7875L2.925 7.125L3.075 6.5625L2.625 6.1875H3.1875L3.375 5.625Z" fill="white"/>
<path d="M10.875 7.875L11.0625 8.4375H11.625L11.175 8.8125L11.325 9.375L10.875 9.0375L10.425 9.375L10.575 8.8125L10.125 8.4375H10.6875L10.875 7.875Z" fill="white"/>
<path d="M7.875 7.875L8.0625 8.4375H8.625L8.175 8.8125L8.325 9.375L7.875 9.0375L7.425 9.375L7.575 8.8125L7.125 8.4375H7.6875L7.875 7.875Z" fill="white"/>
<path d="M4.875 7.875L5.0625 8.4375H5.625L5.175 8.8125L5.325 9.375L4.875 9.0375L4.425 9.375L4.575 8.8125L4.125 8.4375H4.6875L4.875 7.875Z" fill="white"/>
<path d="M9.375 10.125L9.5625 10.6875H10.125L9.675 11.0625L9.825 11.625L9.375 11.2875L8.925 11.625L9.075 11.0625L8.625 10.6875H9.1875L9.375 10.125Z" fill="white"/>
<path d="M6.375 10.125L6.5625 10.6875H7.125L6.675 11.0625L6.825 11.625L6.375 11.2875L5.925 11.625L6.075 11.0625L5.625 10.6875H6.1875L6.375 10.125Z" fill="white"/>
<path d="M3.375 10.125L3.5625 10.6875H4.125L3.675 11.0625L3.825 11.625L3.375 11.2875L2.925 11.625L3.075 11.0625L2.625 10.6875H3.1875L3.375 10.125Z" fill="white"/>
<path d="M4.42499 4.875L4.87499 4.5375L5.32499 4.875L5.13749 4.3125L5.58749 3.9375H5.02499L4.87499 3.375L4.68749 3.9375H4.16249L4.61249 4.275L4.42499 4.875Z" fill="white"/>
<path d="M1.42501 9.375L1.87501 9.0375L2.32501 9.375L2.13751 8.8125L2.58751 8.4375H2.06251L1.87501 7.875L1.68751 8.4375H1.31251C1.31251 8.475 1.27501 8.5125 1.27501 8.55L1.57501 8.775L1.42501 9.375Z" fill="white"/>
</svg>
