<svg width="20" height="18" viewBox="0 0 20 18" fill="none" xmlns="http://www.w3.org/2000/svg">
<path d="M18 2H14.83L13 0H7L5.17 2H2C0.9 2 0 2.9 0 4V16C0 16.5304 0.210714 17.0391 0.585786 17.4142C0.960859 17.7893 1.46957 18 2 18H18C19.11 18 20 17.11 20 16V4C20 3.46957 19.7893 2.96086 19.4142 2.58579C19.0391 2.21071 18.5304 2 18 2ZM18 16H2V4H6.05L7.88 2H12.12L14 4H18V16ZM3 9H5.1C5.23084 8.35627 5.48731 7.74466 5.85475 7.20015C6.22219 6.65564 6.69338 6.18892 7.24137 5.82669C7.78936 5.46446 8.40339 5.21382 9.04834 5.08913C9.69328 4.96444 10.3565 4.96813 11 5.1C11.76 5.25 12.43 5.59 13 6L11.56 7.45C11.11 7.17 10.58 7 10 7C8.74 7 7.6 7.8 7.18 9H9L6 12L3 9ZM14.91 11C14.36 13.71 11.72 15.45 9 14.9C8.27915 14.7389 7.59865 14.4327 7 14L8.44 12.55C8.9 12.83 9.43 13 10 13C11.27 13 12.41 12.2 12.83 11H11L14 8L17 11H14.91Z" fill="#0C0024"/>
</svg>
