<svg width="96" height="96" viewBox="0 0 96 96" fill="none" xmlns="http://www.w3.org/2000/svg">
<path fill-rule="evenodd" clip-rule="evenodd" d="M39.4706 80.2395L39.4746 80.1595C39.9826 75.9755 41.8586 72.0995 44.8906 69.0755C48.4706 65.4955 53.2266 63.5235 58.2906 63.5235H58.3346C63.3866 63.5355 68.1186 65.5035 71.6906 69.0755C74.7266 72.1035 76.6026 75.9835 77.1066 80.1755L77.2346 82.0155C77.2706 82.5635 77.2586 82.3755 77.2346 82.0595C77.3786 84.0915 79.1386 85.6235 81.1706 85.4835C83.1746 85.3435 84.6946 83.6275 84.5986 81.6275C84.3986 74.9275 81.6826 68.6355 76.9026 63.8635C74.9266 61.8835 72.6506 60.2355 70.1626 58.9715C73.7666 55.7235 76.0346 51.0195 76.0346 45.7835C76.0346 36.0795 68.2386 28.1915 58.5666 28.0395C48.7386 27.8915 40.5506 35.9555 40.5506 45.7835C40.5506 51.0195 42.8226 55.7195 46.4226 58.9715C43.9306 60.2355 41.6546 61.8835 39.6786 63.8635C34.8986 68.6355 32.1826 74.9275 31.9826 81.6395C31.8866 83.6275 33.4066 85.3435 35.4106 85.4835C37.4426 85.6235 39.2026 84.0915 39.3466 82.0595L39.4706 80.2395ZM11.5266 63.9115L11.5106 64.1315C11.5106 64.1315 11.5026 64.2755 11.5106 64.1395C11.3746 66.1155 12.8666 67.8275 14.8426 67.9675C16.8186 68.1035 18.5306 66.6115 18.6706 64.6355C18.6666 64.6475 18.6666 64.6595 18.6666 64.6715L18.7866 62.9635C19.2266 58.6235 21.1346 54.5955 24.2666 51.4715C26.7226 49.0155 29.7266 47.3115 33.0106 46.4875C33.5906 46.3395 33.9706 45.7875 33.8986 45.1955C33.8226 44.4755 33.7826 43.7395 33.7826 42.9915C33.7826 41.6595 33.9066 40.3635 34.1426 39.0995C34.2466 38.5675 33.9626 38.0195 33.4706 37.7995V37.7955C32.3586 37.2995 31.3346 36.6115 30.4506 35.7435C29.4106 34.7355 28.5906 33.5195 28.0466 32.1755C27.4986 30.8315 27.2426 29.3875 27.2866 27.9395C27.3586 25.3155 28.4146 22.8195 30.2546 20.9395C32.2746 18.8675 34.9906 17.7395 37.8786 17.7715C40.4906 17.7955 43.0066 18.8035 44.9146 20.5835C45.5626 21.1915 46.1186 21.8635 46.5866 22.5835C46.8826 23.0435 47.4626 23.2355 47.9666 23.0555C49.4386 22.5475 50.9946 22.1875 52.5946 22.0195C53.4226 21.9315 53.8986 21.0435 53.5266 20.3035C50.6586 14.6315 44.8026 10.7115 38.0306 10.6075C28.2466 10.4595 20.0986 18.4795 20.0986 28.2435C20.0986 33.4995 22.3946 38.2195 26.0426 41.4515C23.5346 42.7035 21.2186 44.3635 19.1906 46.3915C14.4746 51.0995 11.7746 57.2915 11.5266 63.9115ZM58.2906 56.1555C55.5226 56.1555 52.9226 55.0755 50.9586 53.1155C49.9826 52.1435 49.2066 50.9835 48.6866 49.7035C48.1626 48.4275 47.9026 47.0595 47.9226 45.6795C47.9226 45.6795 47.9226 45.6795 47.9226 45.6755C47.9466 43.0195 49.0066 40.4515 50.8626 38.5475C52.8066 36.5555 55.4066 35.4435 58.1866 35.4115C60.9346 35.3875 63.5986 36.4595 65.5626 38.3795C67.5706 40.3475 68.6706 42.9795 68.6706 45.7835C68.6626 48.5515 67.5866 51.1555 65.6266 53.1155C63.6626 55.0755 61.0626 56.1555 58.2906 56.1555Z" fill="#F4F4F4"/>
</svg>
