<svg width="24" height="24" viewBox="0 0 24 24" fill="none" xmlns="http://www.w3.org/2000/svg">
<path fill-rule="evenodd" clip-rule="evenodd" d="M9.86764 20.0599L9.86864 20.0399C9.99564 18.9939 10.4646 18.0249 11.2226 17.2689C12.1176 16.3739 13.3066 15.8809 14.5726 15.8809H14.5836C15.8466 15.8839 17.0296 16.3759 17.9226 17.2689C18.6816 18.0259 19.1506 18.9959 19.2766 20.0439L19.3086 20.5039C19.3176 20.6409 19.3146 20.5939 19.3086 20.5149C19.3446 21.0229 19.7846 21.4059 20.2926 21.3709C20.7936 21.3359 21.1736 20.9069 21.1496 20.4069C21.0996 18.7319 20.4206 17.1589 19.2256 15.9659C18.7316 15.4709 18.1626 15.0589 17.5406 14.7429C18.4416 13.9309 19.0086 12.7549 19.0086 11.4459C19.0086 9.01987 17.0596 7.04787 14.6416 7.00987C12.1846 6.97287 10.1376 8.98887 10.1376 11.4459C10.1376 12.7549 10.7056 13.9299 11.6056 14.7429C10.9826 15.0589 10.4136 15.4709 9.91964 15.9659C8.72464 17.1589 8.04564 18.7319 7.99564 20.4099C7.97164 20.9069 8.35164 21.3359 8.85264 21.3709C9.36064 21.4059 9.80064 21.0229 9.83664 20.5149L9.86764 20.0599ZM2.88164 15.9779L2.87764 16.0329C2.87764 16.0329 2.87564 16.0689 2.87764 16.0349C2.84364 16.5289 3.21664 16.9569 3.71064 16.9919C4.20464 17.0259 4.63264 16.6529 4.66764 16.1589C4.66664 16.1619 4.66664 16.1649 4.66664 16.1679L4.69664 15.7409C4.80664 14.6559 5.28364 13.6489 6.06664 12.8679C6.68064 12.2539 7.43164 11.8279 8.25264 11.6219C8.39764 11.5849 8.49264 11.4469 8.47464 11.2989C8.45564 11.1189 8.44564 10.9349 8.44564 10.7479C8.44564 10.4149 8.47664 10.0909 8.53564 9.77487C8.56164 9.64187 8.49064 9.50487 8.36764 9.44987V9.44887C8.08964 9.32487 7.83364 9.15287 7.61264 8.93587C7.35264 8.68387 7.14764 8.37987 7.01164 8.04387C6.87464 7.70787 6.81064 7.34687 6.82164 6.98487C6.83964 6.32887 7.10364 5.70487 7.56364 5.23487C8.06864 4.71687 8.74764 4.43487 9.46964 4.44287C10.1226 4.44887 10.7516 4.70087 11.2286 5.14587C11.3906 5.29787 11.5296 5.46587 11.6466 5.64587C11.7206 5.76087 11.8656 5.80887 11.9916 5.76387C12.3596 5.63687 12.7486 5.54687 13.1486 5.50487C13.3556 5.48287 13.4746 5.26087 13.3816 5.07587C12.6646 3.65787 11.2006 2.67787 9.50764 2.65187C7.06164 2.61487 5.02464 4.61987 5.02464 7.06087C5.02464 8.37487 5.59864 9.55487 6.51064 10.3629C5.88364 10.6759 5.30464 11.0909 4.79764 11.5979C3.61864 12.7749 2.94364 14.3229 2.88164 15.9779ZM14.5726 14.0389C13.8806 14.0389 13.2306 13.7689 12.7396 13.2789C12.4956 13.0359 12.3016 12.7459 12.1716 12.4259C12.0406 12.1069 11.9756 11.7649 11.9806 11.4199C11.9806 11.4199 11.9806 11.4199 11.9806 11.4189C11.9866 10.7549 12.2516 10.1129 12.7156 9.63687C13.2016 9.13887 13.8516 8.86087 14.5466 8.85287C15.2336 8.84687 15.8996 9.11487 16.3906 9.59487C16.8926 10.0869 17.1676 10.7449 17.1676 11.4459C17.1656 12.1379 16.8966 12.7889 16.4066 13.2789C15.9156 13.7689 15.2656 14.0389 14.5726 14.0389Z" fill="#0C0024"/>
</svg>
