<svg width="56" height="56" viewBox="0 0 56 56" fill="none" xmlns="http://www.w3.org/2000/svg">
<rect width="56" height="56" rx="12" fill="#F7F5FC"/>
<path fill-rule="evenodd" clip-rule="evenodd" d="M40.0647 20.7607H40.1021L40.1311 20.7632L40.1637 20.7644L40.1757 20.7656C40.2686 20.774 40.3591 20.7933 40.4448 20.8223L40.4798 20.8343L40.5148 20.8476L40.522 20.85C40.6222 20.8911 40.7187 20.9466 40.808 21.0177L40.8369 21.0395L40.8671 21.066L40.878 21.0757C41.0107 21.1963 41.1108 21.3411 41.176 21.4968L41.1808 21.5088C41.2303 21.6295 41.2604 21.7586 41.2689 21.8937C41.2713 21.9215 41.2713 21.9492 41.2713 21.9782V30.4134C41.2713 31.0795 40.7308 31.62 40.0647 31.62C39.3987 31.62 38.8581 31.0795 38.8581 30.4134V25.1117L30.1019 34.8404C29.8811 35.0866 29.5686 35.2313 29.2368 35.2398C28.9062 35.2482 28.5865 35.1203 28.3524 34.8863L21.9659 28.4998L16.786 33.6797C16.3155 34.1515 15.5505 34.1515 15.0799 33.6797C14.6081 33.2091 14.6081 32.4441 15.0799 31.9736L21.1128 25.9406C21.5834 25.4688 22.3484 25.4688 22.819 25.9406L29.1596 32.2812L37.3559 23.1739H31.6186C30.9526 23.1739 30.412 22.6334 30.412 21.9673C30.412 21.3013 30.9526 20.7607 31.6186 20.7607H40.0647Z" fill="#663FBA"/>
</svg>
