<svg width="97" height="96" viewBox="0 0 97 96" fill="none" xmlns="http://www.w3.org/2000/svg">
<path d="M81.1401 20.0038C76.8749 15.7826 71.2415 13.2249 65.2562 12.7921C59.271 12.3594 53.3282 14.0801 48.5001 17.6438C43.4107 13.8583 37.0761 12.1418 30.7718 12.8399C24.4675 13.538 18.6619 16.5989 14.524 21.4061C10.3862 26.2134 8.22341 32.4099 8.47133 38.7478C8.71925 45.0858 11.3594 51.0945 15.8601 55.5638L39.8601 79.7638C42.1101 82.011 45.1601 83.2732 48.3401 83.2732C51.5201 83.2732 54.5701 82.011 56.8201 79.7638L80.8201 55.5638C83.1838 53.2544 85.0679 50.5006 86.3639 47.4607C87.6599 44.4208 88.3424 41.1548 88.3722 37.8503C88.4019 34.5458 87.7783 31.268 86.5372 28.2053C85.2961 25.1426 83.4619 22.3554 81.1401 20.0038ZM75.5001 49.8438L51.5001 73.8438C51.1283 74.2187 50.6859 74.5163 50.1984 74.7194C49.711 74.9224 49.1882 75.027 48.6601 75.027C48.1321 75.027 47.6092 74.9224 47.1218 74.7194C46.6344 74.5163 46.192 74.2187 45.8201 73.8438L21.8201 49.8438C18.6832 46.6372 16.9266 42.3296 16.9266 37.8438C16.9266 33.3579 18.6832 29.0504 21.8201 25.8438C25.0167 22.6877 29.328 20.9181 33.8201 20.9181C38.3122 20.9181 42.6235 22.6877 45.8201 25.8438C46.192 26.2187 46.6344 26.5163 47.1218 26.7194C47.6092 26.9224 48.1321 27.027 48.6601 27.027C49.1882 27.027 49.711 26.9224 50.1984 26.7194C50.6859 26.5163 51.1283 26.2187 51.5001 25.8438C54.6967 22.6877 59.008 20.9181 63.5001 20.9181C67.9922 20.9181 72.3035 22.6877 75.5001 25.8438C78.6611 29.054 80.4329 33.3785 80.4329 37.8838C80.4329 42.3891 78.6611 46.7136 75.5001 49.9238V49.8438Z" fill="#F4F4F4"/>
</svg>
