<svg width="24" height="24" viewBox="0 0 24 24" fill="none" xmlns="http://www.w3.org/2000/svg">
<path fill-rule="evenodd" clip-rule="evenodd" d="M10.177 3.51778L4.14505 9.15578C3.72005 9.55178 3.38205 10.0308 3.15105 10.5608C2.91905 11.0918 2.80005 11.6638 2.80005 12.2428V18.5738C2.80005 19.2708 3.08005 19.9388 3.57805 20.4318C4.07605 20.9238 4.75105 21.2008 5.45505 21.2008H18.545C19.249 21.2008 19.9241 20.9238 20.4221 20.4318C20.92 19.9388 21.2001 19.2708 21.2001 18.5738V12.2418C21.2001 11.6638 21.0811 11.0918 20.8491 10.5608C20.618 10.0308 20.28 9.55178 19.855 9.15478L13.823 3.51778C13.33 3.05778 12.678 2.80078 12 2.80078C11.322 2.80078 10.67 3.05778 10.177 3.51778ZM12 4.81878C12.158 4.81878 12.311 4.87878 12.426 4.98578L18.458 10.6238C18.681 10.8318 18.859 11.0828 18.98 11.3608C19.101 11.6398 19.164 11.9388 19.164 12.2418V18.5738C19.164 18.7348 19.099 18.8898 18.983 19.0038C18.8671 19.1188 18.71 19.1828 18.546 19.1828H5.45505C5.29005 19.1828 5.13305 19.1188 5.01705 19.0038C4.90105 18.8898 4.83605 18.7348 4.83605 18.5738V12.2418C4.83605 11.9388 4.89905 11.6398 5.02005 11.3618C5.14105 11.0828 5.31905 10.8318 5.54205 10.6238L11.574 4.98578C11.689 4.87878 11.842 4.81878 12 4.81878Z" fill="#0C0024"/>
</svg>
