<svg width="16" height="16" viewBox="0 0 16 16" fill="none" xmlns="http://www.w3.org/2000/svg">
<path fill-rule="evenodd" clip-rule="evenodd" d="M7.9987 1.33301C6.68016 1.33301 5.39123 1.724 4.2949 2.45654C3.19857 3.18909 2.34409 4.23028 1.8395 5.44845C1.33492 6.66663 1.2029 8.00707 1.46013 9.30028C1.71737 10.5935 2.35231 11.7814 3.28466 12.7137C4.21701 13.6461 5.40489 14.281 6.6981 14.5382C7.99131 14.7955 9.33175 14.6635 10.5499 14.1589C11.7681 13.6543 12.8093 12.7998 13.5418 11.7035C14.2744 10.6071 14.6654 9.31822 14.6654 7.99967C14.6654 7.1242 14.4929 6.25729 14.1579 5.44845C13.8229 4.63961 13.3318 3.90469 12.7127 3.28563C12.0937 2.66657 11.3588 2.17551 10.5499 1.84048C9.74109 1.50545 8.87418 1.33301 7.9987 1.33301ZM7.9987 13.333C6.94387 13.333 5.91272 13.0202 5.03566 12.4342C4.1586 11.8481 3.47501 11.0152 3.07134 10.0407C2.66768 9.06611 2.56206 7.99376 2.76785 6.95919C2.97363 5.92463 3.48158 4.97432 4.22746 4.22844C4.97334 3.48256 5.92365 2.97461 6.95822 2.76882C7.99279 2.56303 9.06514 2.66865 10.0397 3.07232C11.0142 3.47598 11.8472 4.15957 12.4332 5.03663C13.0192 5.9137 13.332 6.94484 13.332 7.99967C13.332 9.41416 12.7701 10.7707 11.7699 11.7709C10.7697 12.7711 9.41319 13.333 7.9987 13.333ZM7.9987 5.99967C8.36689 5.99967 8.66536 5.7012 8.66536 5.33301C8.66536 4.96482 8.36689 4.66634 7.9987 4.66634C7.63051 4.66634 7.33203 4.96482 7.33203 5.33301C7.33203 5.7012 7.63051 5.99967 7.9987 5.99967ZM7.52729 6.8616C7.65232 6.73658 7.82189 6.66634 7.9987 6.66634C8.17551 6.66634 8.34508 6.73658 8.4701 6.8616C8.59513 6.98663 8.66536 7.1562 8.66536 7.33301V10.6663C8.66536 10.8432 8.59513 11.0127 8.4701 11.1377C8.34508 11.2628 8.17551 11.333 7.9987 11.333C7.82189 11.333 7.65232 11.2628 7.52729 11.1377C7.40227 11.0127 7.33203 10.8432 7.33203 10.6663V7.33301C7.33203 7.1562 7.40227 6.98663 7.52729 6.8616Z" fill="#858091"/>
</svg>
