<svg width="97" height="96" viewBox="0 0 97 96" fill="none" xmlns="http://www.w3.org/2000/svg">
<path d="M81.22 40.76C78.3429 40.2394 75.4239 39.985 72.5 40C70.82 40 69.18 40 67.54 40.32C65.4984 37.5955 62.8923 35.3442 59.9 33.72C62.4702 30.913 63.8971 27.2459 63.9 23.44C63.9 19.3451 62.2733 15.4178 59.3778 12.5223C56.4822 9.62671 52.555 8 48.46 8C44.3651 8 40.4379 9.62671 37.5423 12.5223C34.6468 15.4178 33.02 19.3451 33.02 23.44C33.023 27.2459 34.4499 30.913 37.02 33.72C34.0456 35.3526 31.4437 37.5867 29.38 40.28C27.82 40 26.18 40 24.5 40C21.5737 40.0114 18.6547 40.2926 15.78 40.84C14.8482 41.0104 14.0071 41.5059 13.4064 42.2384C12.8058 42.9709 12.4846 43.8928 12.5 44.84V77.84C12.4991 78.4276 12.6276 79.0083 12.8765 79.5406C13.1254 80.0729 13.4885 80.5439 13.94 80.92C14.3887 81.2983 14.9152 81.5733 15.482 81.7254C16.0489 81.8774 16.6422 81.9029 17.22 81.8C19.6137 81.2787 22.0511 80.984 24.5 80.92C32.2484 80.9115 39.8287 83.1786 46.3 87.44L46.82 87.64C47.3506 87.8702 47.9217 87.9926 48.5 88C48.8818 87.9952 49.2602 87.9277 49.62 87.8H49.9L50.42 87.6C56.953 83.2292 64.6399 80.9037 72.5 80.92C74.9439 80.9314 77.3813 81.1724 79.78 81.64C80.3578 81.7429 80.9512 81.7175 81.5181 81.5654C82.0849 81.4133 82.6114 81.1383 83.06 80.76C83.5116 80.3839 83.8747 79.9129 84.1236 79.3806C84.3725 78.8483 84.501 78.2676 84.5 77.68V44.68C84.4966 43.7465 84.1668 42.8437 83.5678 42.1278C82.9688 41.4119 82.1383 40.928 81.22 40.76ZM48.5 16C50.3738 16.1377 52.1262 16.9792 53.4051 18.3555C54.684 19.7319 55.3949 21.5412 55.3949 23.42C55.3949 25.2988 54.684 27.1081 53.4051 28.4845C52.1262 29.8608 50.3738 30.7023 48.5 30.84C46.6263 30.7023 44.8739 29.8608 43.595 28.4845C42.3161 27.1081 41.6052 25.2988 41.6052 23.42C41.6052 21.5412 42.3161 19.7319 43.595 18.3555C44.8739 16.9792 46.6263 16.1377 48.5 16ZM44.5 77.32C38.2307 74.4221 31.4067 72.9208 24.5 72.92C23.18 72.92 21.86 72.92 20.5 73.12V48C23.8543 47.6248 27.2433 47.692 30.58 48.2H31.02C35.7864 49.076 40.354 50.8108 44.5 53.32V77.32ZM48.5 46.4C46.7213 45.3739 44.8774 44.4653 42.98 43.68H42.74C41.42 43.16 40.1 42.64 38.74 42.24C41.5173 40.0295 44.9508 38.8053 48.5 38.76C52.0399 38.7824 55.4724 39.9782 58.26 42.16C54.8644 43.2201 51.5923 44.6416 48.5 46.4ZM76.5 73.12C68.2867 72.2948 60.0018 73.6756 52.5 77.12V53.12C56.6536 50.6752 61.224 49.0206 65.98 48.24H66.78C69.996 47.7392 73.2633 47.6585 76.5 48V73.12Z" fill="#F4F4F4"/>
</svg>
