<svg width="24" height="24" viewBox="0 0 24 24" fill="none" xmlns="http://www.w3.org/2000/svg">
<path fill-rule="evenodd" clip-rule="evenodd" d="M12 1C8.68629 1 6 3.68629 6 7C6 10.3137 8.68629 13 12 13C15.3137 13 18 10.3137 18 7C18 3.68629 15.3137 1 12 1ZM8 7C8 4.79086 9.79086 3 12 3C14.2091 3 16 4.79086 16 7C16 9.20914 14.2091 11 12 11C9.79086 11 8 9.20914 8 7Z" fill="#0C0024"/>
<path d="M5.3245 15.5004C5.69011 15.1778 6.161 14.9998 6.64862 15H7C7.55229 15 8 14.5523 8 14C8 13.4477 7.55229 13 7 13H6.649C5.67391 12.9997 4.73229 13.3556 4.00116 14.0008C3.26994 14.6461 2.79963 15.5364 2.6787 16.5041L2.2887 19.6281C2.23597 20.0502 2.27361 20.4787 2.39912 20.8852C2.52465 21.2917 2.73519 21.6668 3.01678 21.9857C3.29837 22.3046 3.64456 22.56 4.03239 22.7348C4.42014 22.9097 4.84087 23.0001 5.26622 23H17C17.5523 23 18 22.5523 18 22C18 21.4477 17.5523 21 17 21H5.26578C5.12397 21 4.98378 20.9699 4.8545 20.9116C4.72523 20.8533 4.60983 20.7682 4.51597 20.6619C4.42211 20.5556 4.35193 20.4306 4.31008 20.2951C4.26824 20.1596 4.25571 20.0166 4.2733 19.8759L4.6633 16.7519C4.72379 16.2681 4.95892 15.823 5.3245 15.5004Z" fill="#0C0024"/>
<path d="M19 12C19.5523 12 20 12.4477 20 13V15H22C22.5523 15 23 15.4477 23 16C23 16.5523 22.5523 17 22 17H20V19C20 19.5523 19.5523 20 19 20C18.4477 20 18 19.5523 18 19V17H16C15.4477 17 15 16.5523 15 16C15 15.4477 15.4477 15 16 15H18V13C18 12.4477 18.4477 12 19 12Z" fill="#0C0024"/>
</svg>
