<svg width="18" height="21" viewBox="0 0 18 21" fill="none" xmlns="http://www.w3.org/2000/svg">
<path d="M16.79 6.13C16.6958 6.01082 16.5757 5.91466 16.4388 5.84882C16.302 5.78298 16.1519 5.74918 16 5.75H4.99998V5.25C5.00123 4.81468 5.14447 4.39165 5.40797 4.04514C5.67147 3.69862 6.04083 3.44754 6.45998 3.33C6.72926 3.58983 7.08593 3.73963 7.45998 3.75H8.45998C8.85781 3.75 9.23934 3.59196 9.52064 3.31066C9.80195 3.02936 9.95998 2.64782 9.95998 2.25C9.95998 1.85218 9.80195 1.47064 9.52064 1.18934C9.23934 0.908035 8.85781 0.75 8.45998 0.75H7.45998C7.23455 0.75031 7.01212 0.80177 6.80946 0.900504C6.6068 0.999237 6.42918 1.14267 6.28998 1.32C5.36825 1.48625 4.53408 1.97067 3.93286 2.68884C3.33164 3.40702 3.0015 4.31339 2.99998 5.25V5.75H1.99998C1.84809 5.74918 1.69801 5.78298 1.56112 5.84882C1.42424 5.91466 1.30416 6.01082 1.20998 6.13C1.10981 6.24874 1.03867 6.38918 1.00222 6.5402C0.96577 6.69121 0.965004 6.84864 0.999983 7L1.61998 9.49C1.76802 10.0635 2.08253 10.5804 2.52387 10.9755C2.96521 11.3705 3.51362 11.6261 4.09998 11.71L4.87998 18.71H3.99998C3.73477 18.71 3.48041 18.8154 3.29288 19.0029C3.10534 19.1904 2.99998 19.4448 2.99998 19.71C2.99998 19.9752 3.10534 20.2296 3.29288 20.4171C3.48041 20.6046 3.73477 20.71 3.99998 20.71H14C14.2652 20.71 14.5196 20.6046 14.7071 20.4171C14.8946 20.2296 15 19.9752 15 19.71C15 19.4448 14.8946 19.1904 14.7071 19.0029C14.5196 18.8154 14.2652 18.71 14 18.71H13.12L13.9 11.71C14.4822 11.6199 15.025 11.3604 15.4607 10.9639C15.8964 10.5673 16.2057 10.0512 16.35 9.48L17 7C17.035 6.84864 17.0342 6.69121 16.9977 6.5402C16.9613 6.38918 16.8902 6.24874 16.79 6.13ZM11.1 18.75H6.89998L6.11998 11.75H11.88L11.1 18.75ZM14.41 9C14.3552 9.22188 14.2261 9.41831 14.0442 9.55659C13.8622 9.69487 13.6384 9.76666 13.41 9.76H4.55998C4.33155 9.76666 4.10773 9.69487 3.92578 9.55659C3.74383 9.41831 3.61473 9.22188 3.55998 9L3.27998 7.75H14.72L14.41 9Z" fill="#0C0024"/>
</svg>
