<svg width="24" height="24" viewBox="0 0 24 24" fill="none" xmlns="http://www.w3.org/2000/svg">
  <path d="M3 2.75C3 2.55109 3.07902 2.36032 3.21967 2.21967C3.36032 2.07902 3.55109 2 3.75 2C3.94891 2 4.13968 2.07902 4.28033 2.21967C4.42098 2.36032 4.5 2.55109 4.5 2.75L4.5 21.25C4.5 21.4489 4.42098 21.6397 4.28033 21.7803C4.13968 21.921 3.94891 22 3.75 22C3.55109 22 3.36032 21.921 3.21967 21.7803C3.07902 21.6397 3 21.4489 3 21.25L3 2.75ZM8.25 4C7.65326 4 7.08097 4.23705 6.65901 4.65901C6.23705 5.08097 6 5.65326 6 6.25L6 8.75C6 9.34674 6.23705 9.91903 6.65901 10.341C7.08097 10.7629 7.65326 11 8.25 11L18.75 11C19.3467 11 19.919 10.7629 20.341 10.341C20.7629 9.91903 21 9.34674 21 8.75L21 6.25C21 5.65326 20.7629 5.08097 20.341 4.65901C19.919 4.23705 19.3467 4 18.75 4L8.25 4ZM7.5 6.25C7.5 6.05109 7.57902 5.86032 7.71967 5.71967C7.86032 5.57902 8.05109 5.5 8.25 5.5L18.75 5.5C18.9489 5.5 19.1397 5.57902 19.2803 5.71967C19.421 5.86032 19.5 6.05109 19.5 6.25L19.5 8.75C19.5 8.94891 19.421 9.13968 19.2803 9.28033C19.1397 9.42098 18.9489 9.5 18.75 9.5L8.25 9.5C8.05109 9.5 7.86032 9.42098 7.71967 9.28033C7.57902 9.13968 7.5 8.94891 7.5 8.75L7.5 6.25ZM8.25 13C7.65326 13 7.08097 13.2371 6.65901 13.659C6.23705 14.081 6 14.6533 6 15.25L6 17.75C6 18.0455 6.0582 18.3381 6.17127 18.611C6.28434 18.884 6.45008 19.1321 6.65901 19.341C6.86794 19.5499 7.11598 19.7157 7.38896 19.8287C7.66194 19.9418 7.95453 20 8.25 20L15.25 20C15.5455 20 15.8381 19.9418 16.111 19.8287C16.384 19.7157 16.6321 19.5499 16.841 19.341C17.0499 19.1321 17.2157 18.884 17.3287 18.611C17.4418 18.3381 17.5 18.0455 17.5 17.75L17.5 15.25C17.5 14.6533 17.2629 14.081 16.841 13.659C16.419 13.2371 15.8467 13 15.25 13L8.25 13ZM7.5 15.25C7.5 15.0511 7.57902 14.8603 7.71967 14.7197C7.86032 14.579 8.05109 14.5 8.25 14.5L15.25 14.5C15.4489 14.5 15.6397 14.579 15.7803 14.7197C15.921 14.8603 16 15.0511 16 15.25L16 17.75C16 17.9489 15.921 18.1397 15.7803 18.2803C15.6397 18.421 15.4489 18.5 15.25 18.5L8.25 18.5C8.05109 18.5 7.86032 18.421 7.71967 18.2803C7.57902 18.1397 7.5 17.9489 7.5 17.75L7.5 15.25Z" fill="#0C0024" stroke="#0C0024" stroke-width="0.3"/>
</svg>