<svg width="24" height="25" viewBox="0 0 24 25" fill="none" xmlns="http://www.w3.org/2000/svg">
<path d="M19.7778 2.5C20.3671 2.5 20.9324 2.73413 21.3491 3.15087C21.7659 3.56762 22 4.13285 22 4.72222V20.2778C22 20.8671 21.7659 21.4324 21.3491 21.8491C20.9324 22.2659 20.3671 22.5 19.7778 22.5H4.22222C3.63285 22.5 3.06762 22.2659 2.65087 21.8491C2.23413 21.4324 2 20.8671 2 20.2778V4.72222C2 4.13285 2.23413 3.56762 2.65087 3.15087C3.06762 2.73413 3.63285 2.5 4.22222 2.5H19.7778ZM19.2222 19.7222V13.8333C19.2222 12.8727 18.8406 11.9513 18.1613 11.272C17.482 10.5927 16.5607 10.2111 15.6 10.2111C14.6556 10.2111 13.5556 10.7889 13.0222 11.6556V10.4222H9.92222V19.7222H13.0222V14.2444C13.0222 13.3889 13.7111 12.6889 14.5667 12.6889C14.9792 12.6889 15.3749 12.8528 15.6666 13.1445C15.9583 13.4362 16.1222 13.8319 16.1222 14.2444V19.7222H19.2222ZM6.31111 8.67778C6.80618 8.67778 7.28098 8.48111 7.63104 8.13104C7.98111 7.78098 8.17778 7.30618 8.17778 6.81111C8.17778 5.77778 7.34444 4.93333 6.31111 4.93333C5.81309 4.93333 5.33547 5.13117 4.98332 5.48332C4.63117 5.83547 4.43333 6.31309 4.43333 6.81111C4.43333 7.84444 5.27778 8.67778 6.31111 8.67778ZM7.85556 19.7222V10.4222H4.77778V19.7222H7.85556Z" fill="#0077B5"/>
</svg>
