<svg width="56" height="56" viewBox="0 0 56 56" fill="none" xmlns="http://www.w3.org/2000/svg">
<path d="M0 28C0 16.7643 0 11.1465 2.69649 7.11088C3.86382 5.36383 5.36383 3.86382 7.11088 2.69649C11.1465 0 16.7643 0 28 0C39.2357 0 44.8535 0 48.8891 2.69649C50.6362 3.86382 52.1362 5.36383 53.3035 7.11088C56 11.1465 56 16.7643 56 28C56 39.2357 56 44.8535 53.3035 48.8891C52.1362 50.6362 50.6362 52.1362 48.8891 53.3035C44.8535 56 39.2357 56 28 56C16.7643 56 11.1465 56 7.11088 53.3035C5.36383 52.1362 3.86382 50.6362 2.69649 48.8891C0 44.8535 0 39.2357 0 28Z" fill="#2867B2"/>
<path fill-rule="evenodd" clip-rule="evenodd" d="M20.442 22.921C19.093 22.921 18 21.819 18 20.46C18 19.102 19.093 18 20.442 18C21.79 18 22.883 19.102 22.883 20.46C22.884 21.819 21.79 22.921 20.442 22.921ZM38 38H34V31.001C34 29.081 33.153 28.01 31.634 28.01C29.981 28.01 29 29.126 29 31.001V38H25V25H29V26.462C29 26.462 30.255 24.26 33.083 24.26C35.912 24.26 38 25.986 38 29.558V38ZM23 38H18V25H23V38Z" fill="white"/>
</svg>
