<svg width="56" height="56" viewBox="0 0 56 56" fill="none" xmlns="http://www.w3.org/2000/svg">
<path d="M0 28C0 16.7643 0 11.1465 2.69649 7.11088C3.86382 5.36383 5.36383 3.86382 7.11088 2.69649C11.1465 0 16.7643 0 28 0C39.2357 0 44.8535 0 48.8891 2.69649C50.6362 3.86382 52.1362 5.36383 53.3035 7.11088C56 11.1465 56 16.7643 56 28C56 39.2357 56 44.8535 53.3035 48.8891C52.1362 50.6362 50.6362 52.1362 48.8891 53.3035C44.8535 56 39.2357 56 28 56C16.7643 56 11.1465 56 7.11088 53.3035C5.36383 52.1362 3.86382 50.6362 2.69649 48.8891C0 44.8535 0 39.2357 0 28Z" fill="black"/>
<path d="M35.5633 22.6828L37 21.3023V21H32.0242L28.4781 29.8688L24.4445 21H19.2273V21.3023L20.9055 23.332C21.0695 23.482 21.1539 23.7023 21.1328 23.9227V31.8984C21.1844 32.1867 21.093 32.4797 20.8914 32.6883L19 34.9922V35.2898H24.3578V34.9875L22.4688 32.6906C22.3675 32.5879 22.2914 32.4631 22.2463 32.3261C22.2012 32.1891 22.1883 32.0436 22.2086 31.9008V25.0008L26.9125 35.2945H27.4586L31.5039 25.0008V33.2016C31.5039 33.4172 31.5039 33.4617 31.3633 33.6047L29.9078 35.018V35.3203H36.9672V35.018L35.5633 33.6375C35.4414 33.5438 35.3781 33.3867 35.4039 33.2344V23.0859C35.3918 23.0106 35.4002 22.9334 35.4282 22.8625C35.4563 22.7915 35.5029 22.7295 35.5633 22.6828Z" fill="white"/>
</svg>
