<svg width="80" height="80" viewBox="0 0 80 80" fill="none" xmlns="http://www.w3.org/2000/svg">
<path d="M62.008 0.540101C62.614 0.891837 63.117 1.39658 63.4665 2.00381C63.8161 2.61103 64.0001 3.29943 64 4.0001V20.0001C66.2512 19.9977 68.4774 20.4715 70.5324 21.3904C72.5875 22.3094 74.4249 23.6527 75.924 25.3321C78.5523 28.2635 80.004 32.063 80 36.0001C80 40.0961 78.456 43.8401 75.924 46.6681C74.4244 48.3469 72.5869 49.6898 70.532 50.6087C68.477 51.5277 66.251 52.0018 64 52.0001V68.0001C63.9998 68.7006 63.8156 69.3887 63.4659 69.9957C63.1162 70.6026 62.6133 71.1071 62.0074 71.4586C61.4015 71.8102 60.714 71.9964 60.0135 71.9988C59.3131 72.0012 58.6242 71.8195 58.016 71.4721L32 56.6081V76.0001C32 77.061 31.5786 78.0784 30.8284 78.8285C30.0783 79.5787 29.0609 80.0001 28 80.0001H12C10.9391 80.0001 9.92172 79.5787 9.17157 78.8285C8.42143 78.0784 8 77.061 8 76.0001V56.0001C5.87827 56.0001 3.84344 55.1572 2.34315 53.657C0.842854 52.1567 0 50.1218 0 48.0001V24.0001C0 21.8784 0.842854 19.8435 2.34315 18.3432C3.84344 16.843 5.87827 16.0001 8 16.0001H30.936L58.016 0.528101C58.6242 0.180334 59.313 -0.0015996 60.0136 0.000506358C60.7142 0.00261231 61.4019 0.188684 62.008 0.540101V0.540101ZM32 48.0001C32.696 48.0005 33.3799 48.1825 33.984 48.5281L56 61.1081V10.8921L33.984 23.4721C33.3799 23.8177 32.696 23.9997 32 24.0001H8V48.0001H32ZM16 56.0001V72.0001H24V56.0001H16ZM64 44.0001C66.368 44.0001 68.492 42.9761 69.964 41.3321C71.232 39.9161 72 38.0521 72 36.0001C72 33.9481 71.232 32.0841 69.964 30.6681C69.2147 29.8274 68.2959 29.1549 67.2679 28.6951C66.2399 28.2352 65.1262 27.9983 64 28.0001V44.0001Z" fill="#F7F7F8"/>
</svg>
