<svg width="24" height="24" viewBox="0 0 24 24" fill="none" xmlns="http://www.w3.org/2000/svg">
<path d="M18.876 12.114L18.873 12.126C18.6819 13.0323 18.2804 13.8811 17.7009 14.6037C17.1214 15.3263 16.3802 15.9026 15.537 16.286L12 17.894V16H10C8.67392 16 7.40215 15.4732 6.46447 14.5355C5.52678 13.5979 5 12.3261 5 11V10C5 8.67392 5.52678 7.40215 6.46447 6.46447C7.40215 5.52678 8.67392 5 10 5H14C15.3261 5 16.5979 5.52678 17.5355 6.46447C18.4732 7.40215 19 8.67392 19 10V11C19 11.38 18.958 11.748 18.879 12.1L18.876 12.114ZM10 21L16.364 18.107C17.4926 17.594 18.4849 16.8229 19.2606 15.8559C20.0364 14.8889 20.574 13.753 20.83 12.54C20.9433 12.0345 21.0003 11.518 21 11V10C21 8.14348 20.2625 6.36301 18.9497 5.05025C17.637 3.7375 15.8565 3 14 3H10C8.14348 3 6.36301 3.7375 5.05025 5.05025C3.7375 6.36301 3 8.14348 3 10V11C3 12.8565 3.7375 14.637 5.05025 15.9497C6.36301 17.2625 8.14348 18 10 18V21Z" fill="#0C0024"/>
</svg>
