<svg width="144" height="144" viewBox="0 0 144 144" fill="none" xmlns="http://www.w3.org/2000/svg">
<path d="M113.256 72.684L113.238 72.756C112.091 78.1941 109.683 83.2865 106.206 87.6222C102.729 91.9579 98.2812 95.4155 93.222 97.716L72 107.364V96H60C52.0435 96 44.4129 92.8393 38.7868 87.2132C33.1607 81.5871 30 73.9565 30 66V60C30 52.0435 33.1607 44.4129 38.7868 38.7868C44.4129 33.1607 52.0435 30 60 30H84C91.9565 30 99.5871 33.1607 105.213 38.7868C110.839 44.4129 114 52.0435 114 60V66C114 68.28 113.748 70.488 113.274 72.6L113.256 72.684ZM60 126L98.184 108.642C104.956 105.564 110.909 100.938 115.564 95.1354C120.219 89.3332 123.444 82.5181 124.98 75.24C125.66 72.207 126.002 69.1082 126 66V60C126 48.8609 121.575 38.178 113.698 30.3015C105.822 22.425 95.1391 18 84 18H60C48.8609 18 38.178 22.425 30.3015 30.3015C22.425 38.178 18 48.8609 18 60V66C18 77.1391 22.425 87.822 30.3015 95.6985C38.178 103.575 48.8609 108 60 108V126Z" fill="#F7F7F8"/>
</svg>
