<svg width="24" height="24" viewBox="0 0 24 24" fill="none" xmlns="http://www.w3.org/2000/svg">
<path fill-rule="evenodd" clip-rule="evenodd" d="M16 6L16 12C16 14.206 14.206 16 12 16C9.794 16 8 14.206 8 12L8 6C8.00136 4.97205 8.39783 3.98395 9.10738 3.24016C9.81693 2.49636 10.7853 2.05378 11.812 2.004C11.8805 1.98781 11.9506 1.97943 12.021 1.979C14.215 1.979 16 3.783 16 6ZM10 6V12C10 13.103 10.897 14 12 14C13.103 14 14 13.103 14 12L14 6C14 4.935 13.188 4.06 12.163 3.985C12.1092 3.995 12.0547 4.00002 12 4C10.897 4 10 4.897 10 6ZM4 12H6C6 15.309 8.691 18 12 18C15.309 18 18 15.309 18 12H20C20 16.073 16.939 19.436 13 19.931V22H11L11 19.931C7.061 19.436 4 16.072 4 12Z" fill="#0C0024"/>
</svg>
