<svg xmlns="http://www.w3.org/2000/svg" width="16" height="16" viewBox="0 0 16 16" fill="none">
<path d="M8.42406 1.77606C8.31156 1.6637 8.15906 1.60059 8.00006 1.60059C7.84106 1.60059 7.68856 1.6637 7.57606 1.77606L5.77606 3.57606C5.67007 3.6898 5.61238 3.84023 5.61512 3.99568C5.61786 4.15112 5.68083 4.29942 5.79076 4.40936C5.90069 4.51929 6.049 4.58226 6.20444 4.585C6.35988 4.58774 6.51032 4.53004 6.62406 4.42406L7.40006 3.64806V5.80006C7.40006 5.95919 7.46327 6.1118 7.57579 6.22432C7.68832 6.33684 7.84093 6.40006 8.00006 6.40006C8.15919 6.40006 8.3118 6.33684 8.42432 6.22432C8.53684 6.1118 8.60006 5.95919 8.60006 5.80006V3.64806L9.37606 4.42406C9.43099 4.48301 9.49723 4.53029 9.57083 4.56308C9.64443 4.59588 9.72388 4.61351 9.80444 4.61493C9.885 4.61635 9.96502 4.60153 10.0397 4.57136C10.1144 4.54118 10.1823 4.49626 10.2393 4.43929C10.2963 4.38231 10.3412 4.31445 10.3714 4.23974C10.4015 4.16503 10.4164 4.085 10.4149 4.00444C10.4135 3.92388 10.3959 3.84443 10.3631 3.77083C10.3303 3.69723 10.283 3.63099 10.2241 3.57606L8.42406 1.77606ZM1.77606 7.57606C1.6637 7.68856 1.60059 7.84106 1.60059 8.00006C1.60059 8.15906 1.6637 8.31156 1.77606 8.42406L3.57606 10.2241C3.6898 10.33 3.84023 10.3877 3.99568 10.385C4.15112 10.3823 4.29942 10.3193 4.40936 10.2094C4.51929 10.0994 4.58226 9.95112 4.585 9.79568C4.58774 9.64023 4.53004 9.4898 4.42406 9.37606L3.64806 8.60006H5.80006C5.95919 8.60006 6.1118 8.53684 6.22432 8.42432C6.33684 8.3118 6.40006 8.15919 6.40006 8.00006C6.40006 7.84093 6.33684 7.68832 6.22432 7.57579C6.1118 7.46327 5.95919 7.40006 5.80006 7.40006H3.64806L4.42406 6.62406C4.53004 6.51032 4.58774 6.35988 4.585 6.20444C4.58226 6.049 4.51929 5.90069 4.40936 5.79076C4.29942 5.68083 4.15112 5.61786 3.99568 5.61512C3.84023 5.61238 3.6898 5.67007 3.57606 5.77606L1.77606 7.57606ZM8.42406 14.2241L10.2241 12.4241C10.283 12.3691 10.3303 12.3029 10.3631 12.2293C10.3959 12.1557 10.4135 12.0762 10.4149 11.9957C10.4164 11.9151 10.4015 11.8351 10.3714 11.7604C10.3412 11.6857 10.2963 11.6178 10.2393 11.5608C10.1823 11.5039 10.1144 11.4589 10.0397 11.4288C9.96502 11.3986 9.885 11.3838 9.80444 11.3852C9.72388 11.3866 9.64443 11.4042 9.57083 11.437C9.49723 11.4698 9.43099 11.5171 9.37606 11.5761L8.60006 12.3521V10.2001C8.60006 10.0409 8.53684 9.88832 8.42432 9.77579C8.3118 9.66327 8.15919 9.60006 8.00006 9.60006C7.84093 9.60006 7.68832 9.66327 7.57579 9.77579C7.46327 9.88832 7.40006 10.0409 7.40006 10.2001V12.3521L6.62406 11.5761C6.51032 11.4701 6.35988 11.4124 6.20444 11.4151C6.049 11.4179 5.90069 11.4808 5.79076 11.5908C5.68083 11.7007 5.61786 11.849 5.61512 12.0044C5.61238 12.1599 5.67007 12.3103 5.77606 12.4241L7.57606 14.2241C7.68856 14.3364 7.84106 14.3995 8.00006 14.3995C8.15906 14.3995 8.31156 14.3364 8.42406 14.2241ZM12.4241 5.77606L14.2241 7.57606C14.3364 7.68856 14.3995 7.84106 14.3995 8.00006C14.3995 8.15906 14.3364 8.31156 14.2241 8.42406L12.4241 10.2241C12.3691 10.283 12.3029 10.3303 12.2293 10.3631C12.1557 10.3959 12.0762 10.4135 11.9957 10.4149C11.9151 10.4164 11.8351 10.4015 11.7604 10.3714C11.6857 10.3412 11.6178 10.2963 11.5608 10.2393C11.5039 10.1823 11.4589 10.1144 11.4288 10.0397C11.3986 9.96502 11.3838 9.885 11.3852 9.80444C11.3866 9.72388 11.4042 9.64443 11.437 9.57083C11.4698 9.49723 11.5171 9.43099 11.5761 9.37606L12.3521 8.60006H10.2001C10.0409 8.60006 9.88832 8.53684 9.77579 8.42432C9.66327 8.3118 9.60006 8.15919 9.60006 8.00006C9.60006 7.84093 9.66327 7.68832 9.77579 7.57579C9.88832 7.46327 10.0409 7.40006 10.2001 7.40006H12.3521L11.5761 6.62406C11.4701 6.51032 11.4124 6.35988 11.4151 6.20444C11.4179 6.049 11.4808 5.90069 11.5908 5.79076C11.7007 5.68083 11.849 5.61786 12.0044 5.61512C12.1599 5.61238 12.3103 5.67007 12.4241 5.77606Z" fill="white"/>
</svg>