<svg xmlns="http://www.w3.org/2000/svg" width="19" height="21" viewBox="0 0 19 21" fill="none">
<path d="M17.0001 8.49992C17.0001 5.27592 14.8201 2.55992 11.8541 1.74792C11.7047 1.37864 11.4484 1.06238 11.1181 0.839697C10.7877 0.617013 10.3984 0.498047 10.0001 0.498047C9.60171 0.498047 9.21242 0.617013 8.8821 0.839697C8.55178 1.06238 8.29549 1.37864 8.14608 1.74792C7.59206 1.89989 7.059 2.1199 6.55908 2.40292L8.05108 3.89392C8.81142 3.57209 9.63962 3.44355 10.4617 3.51978C11.2839 3.59601 12.0743 3.87465 12.7625 4.3308C13.4507 4.78696 14.0152 5.40644 14.4057 6.13393C14.7961 6.86142 15.0003 7.67428 15.0001 8.49992V10.8429L17.0001 12.8429V8.49992ZM1.17508 15.9339L3.00008 13.1969V8.49992C3.00008 7.44992 3.23108 6.45392 3.64608 5.55992L1.29308 3.20692C1.19757 3.11468 1.12139 3.00433 1.06898 2.88233C1.01657 2.76032 0.988985 2.6291 0.987831 2.49633C0.986677 2.36355 1.01198 2.23187 1.06226 2.10897C1.11254 1.98607 1.18679 1.87442 1.28069 1.78053C1.37458 1.68664 1.48623 1.61238 1.60913 1.5621C1.73202 1.51182 1.8637 1.48652 1.99648 1.48767C2.12926 1.48883 2.26048 1.51641 2.38249 1.56882C2.50449 1.62123 2.61483 1.69741 2.70708 1.79292L18.7071 17.7929C18.8892 17.9815 18.99 18.2341 18.9878 18.4963C18.9855 18.7585 18.8803 19.0093 18.6949 19.1947C18.5095 19.3801 18.2587 19.4853 17.9965 19.4876C17.7343 19.4899 17.4817 19.3891 17.2931 19.2069L15.5861 17.4999H13.4651C13.3462 18.3342 12.9303 19.0976 12.2938 19.6499C11.6572 20.2021 10.8428 20.5062 10.0001 20.5062C9.15736 20.5062 8.34294 20.2021 7.7064 19.6499C7.06987 19.0976 6.65396 18.3342 6.53508 17.4999H2.01308C1.78359 17.5035 1.55993 17.4275 1.38008 17.2849C1.18097 17.1279 1.049 16.9011 1.01093 16.6504C0.972865 16.3997 1.03155 16.1439 1.17508 15.9349V15.9339ZM3.87008 15.4999H13.5871L5.19708 7.10992C5.0664 7.56169 5.00008 8.02963 5.00008 8.49992V13.4999C5.00013 13.6975 4.94167 13.8906 4.83208 14.0549L3.87008 15.4999ZM8.58608 17.4999C8.68915 17.7929 8.88063 18.0467 9.13409 18.2262C9.38755 18.4057 9.69049 18.5022 10.0011 18.5022C10.3117 18.5022 10.6146 18.4057 10.8681 18.2262C11.1215 18.0467 11.313 17.7929 11.4161 17.4999H8.58608Z" fill="#20113E"/>
</svg>