<svg width="24" height="24" viewBox="0 0 24 24" fill="none" xmlns="http://www.w3.org/2000/svg">
<path fill-rule="evenodd" clip-rule="evenodd" d="M12.0231 1.81091H12C11.0001 1.81091 10.1825 2.56036 10.1354 3.50317C10.1344 3.53523 10.1114 3.56228 10.0813 3.5713C7.18273 4.4029 5.06165 7.07505 5.06165 10.2411V14.9472C5.06165 14.9622 5.05764 14.9763 5.04963 14.9883L3.21409 17.7416C3.11991 17.8818 3.06681 18.0442 3.0588 18.2115C3.04978 18.3798 3.08785 18.5451 3.167 18.6934C3.24616 18.8417 3.36438 18.9649 3.50766 19.0511L3.54673 19.0621C3.53271 19.0621 3.51968 19.0581 3.50766 19.0511C3.65194 19.1373 3.81625 19.1834 3.98458 19.1834H8.52832C8.5654 19.1834 8.59746 19.2104 8.60247 19.2475V19.2485C8.72069 20.0651 9.12848 20.8115 9.75268 21.3525C10.3779 21.8926 11.1744 22.1891 12 22.1891C12.8256 22.1891 13.6221 21.8926 14.2473 21.3525C14.8715 20.8115 15.2793 20.0651 15.3975 19.2485V19.2475C15.4026 19.2104 15.4346 19.1834 15.4717 19.1834H20.0154C20.1777 19.1834 20.3381 19.1403 20.4783 19.0591L20.4924 19.0511C20.6356 18.9649 20.7539 18.8417 20.833 18.6934C20.9122 18.5451 20.9502 18.3798 20.9412 18.2115C20.9332 18.0442 20.8801 17.8818 20.7859 17.7416L18.9504 14.9883C18.9424 14.9763 18.9384 14.9622 18.9384 14.9472V10.2411C18.9384 8.72121 18.4394 7.24337 17.5176 6.03404C16.6139 4.84776 15.3515 3.9851 13.9187 3.5713C13.8886 3.56228 13.8656 3.53523 13.8646 3.50317C13.8165 2.56737 13.012 1.82294 12.0231 1.81091ZM12.9188 20.042C12.9158 20.044 12.9138 20.045 12.9118 20.047C12.6452 20.2354 12.3266 20.3366 12.001 20.3366C11.6744 20.3366 11.3558 20.2354 11.0883 20.047C10.8227 19.8587 10.6214 19.5911 10.5131 19.2835L10.5121 19.2825C10.5041 19.2605 10.5081 19.2355 10.5222 19.2154C10.5362 19.1954 10.5582 19.1834 10.5833 19.1834H13.4177C13.4428 19.1834 13.4648 19.1954 13.4789 19.2154C13.4929 19.2355 13.4969 19.2605 13.4889 19.2825L13.4879 19.2835C13.3807 19.5891 13.1813 19.8546 12.9188 20.042ZM8.40408 6.64522C9.35792 5.69238 10.6514 5.15635 12 5.15635C13.3486 5.15635 14.6421 5.69238 15.5959 6.64522C16.5488 7.59905 17.0848 8.89254 17.0848 10.2411V15.2508C17.0848 15.4341 17.1379 15.6125 17.2401 15.7648L18.2039 17.2126C18.219 17.2356 18.221 17.2657 18.208 17.2907C18.1949 17.3148 18.1689 17.3298 18.1418 17.3298H5.85718C5.83013 17.3298 5.80408 17.3148 5.79106 17.2907C5.77803 17.2657 5.78003 17.2356 5.79506 17.2126L6.75892 15.7648C6.86111 15.6125 6.91522 15.4341 6.91522 15.2508V10.2411C6.91522 8.89254 7.45125 7.59905 8.40408 6.64522Z" fill="#0C0024"/>
</svg>
