<svg width="24" height="24" viewBox="0 0 24 24" fill="none" xmlns="http://www.w3.org/2000/svg">
<path d="M16.5 8.25C16.5 8.54547 16.5582 8.83806 16.6713 9.11104C16.7843 9.38402 16.9501 9.63206 17.159 9.84099C17.3679 10.0499 17.616 10.2157 17.889 10.3287C18.1619 10.4418 18.4545 10.5 18.75 10.5C19.0455 10.5 19.3381 10.4418 19.611 10.3287C19.884 10.2157 20.1321 10.0499 20.341 9.84099C20.5499 9.63206 20.7157 9.38402 20.8287 9.11104C20.9418 8.83806 21 8.54547 21 8.25C21 7.65326 20.7629 7.08097 20.341 6.65901C19.919 6.23705 19.3467 6 18.75 6C18.1533 6 17.581 6.23705 17.159 6.65901C16.7371 7.08097 16.5 7.65326 16.5 8.25ZM9.75 8.25C9.75 8.84674 9.98705 9.41903 10.409 9.84099C10.831 10.2629 11.4033 10.5 12 10.5C12.5967 10.5 13.169 10.2629 13.591 9.84099C14.0129 9.41903 14.25 8.84674 14.25 8.25C14.25 7.65326 14.0129 7.08097 13.591 6.65901C13.169 6.23705 12.5967 6 12 6C11.4033 6 10.831 6.23705 10.409 6.65901C9.98705 7.08097 9.75 7.65326 9.75 8.25ZM5.25 10.5C4.95453 10.5 4.66194 10.4418 4.38896 10.3287C4.11598 10.2157 3.86794 10.0499 3.65901 9.84099C3.45008 9.63206 3.28434 9.38402 3.17127 9.11104C3.0582 8.83806 3 8.54547 3 8.25C3 7.95453 3.0582 7.66194 3.17127 7.38896C3.28434 7.11598 3.45008 6.86794 3.65901 6.65901C3.86794 6.45008 4.11598 6.28434 4.38896 6.17127C4.66194 6.0582 4.95453 6 5.25 6C5.84674 6 6.41903 6.23705 6.84099 6.65901C7.26295 7.08097 7.5 7.65326 7.5 8.25C7.5 8.84674 7.26295 9.41903 6.84099 9.84099C6.41903 10.2629 5.84674 10.5 5.25 10.5ZM16.5 15.75C16.5 16.0455 16.5582 16.3381 16.6713 16.611C16.7843 16.884 16.9501 17.1321 17.159 17.341C17.3679 17.5499 17.616 17.7157 17.889 17.8287C18.1619 17.9418 18.4545 18 18.75 18C19.0455 18 19.3381 17.9418 19.611 17.8287C19.884 17.7157 20.1321 17.5499 20.341 17.341C20.5499 17.1321 20.7157 16.884 20.8287 16.611C20.9418 16.3381 21 16.0455 21 15.75C21 15.1533 20.7629 14.581 20.341 14.159C19.919 13.7371 19.3467 13.5 18.75 13.5C18.1533 13.5 17.581 13.7371 17.159 14.159C16.7371 14.581 16.5 15.1533 16.5 15.75ZM12 18C11.4033 18 10.831 17.7629 10.409 17.341C9.98705 16.919 9.75 16.3467 9.75 15.75C9.75 15.1533 9.98705 14.581 10.409 14.159C10.831 13.7371 11.4033 13.5 12 13.5C12.5967 13.5 13.169 13.7371 13.591 14.159C14.0129 14.581 14.25 15.1533 14.25 15.75C14.25 16.3467 14.0129 16.919 13.591 17.341C13.169 17.7629 12.5967 18 12 18ZM3 15.75C3 16.0455 3.0582 16.3381 3.17127 16.611C3.28434 16.884 3.45008 17.1321 3.65901 17.341C3.86794 17.5499 4.11598 17.7157 4.38896 17.8287C4.66194 17.9418 4.95453 18 5.25 18C5.54547 18 5.83806 17.9418 6.11104 17.8287C6.38402 17.7157 6.63206 17.5499 6.84099 17.341C7.04992 17.1321 7.21566 16.884 7.32873 16.611C7.4418 16.3381 7.5 16.0455 7.5 15.75C7.5 15.1533 7.26295 14.581 6.84099 14.159C6.41903 13.7371 5.84674 13.5 5.25 13.5C4.65326 13.5 4.08097 13.7371 3.65901 14.159C3.23705 14.581 3 15.1533 3 15.75Z" fill="#0C0024"/>
</svg>
