<svg width="22" height="22" viewBox="0 0 22 22" fill="none" xmlns="http://www.w3.org/2000/svg">
<path d="M6.83049 8.69904C6.61279 8.69799 6.39886 8.75586 6.21137 8.8665C6.02388 8.97715 5.86981 9.13645 5.7655 9.32754C5.48058 9.83407 5.34388 10.4105 5.371 10.991C5.34139 11.5704 5.47828 12.1461 5.7655 12.65C5.86938 12.8333 6.01965 12.9859 6.20122 13.0927C6.38278 13.1994 6.58924 13.2565 6.79986 13.2581C7.01047 13.2598 7.21781 13.206 7.40105 13.1022C7.58429 12.9983 7.73697 12.8481 7.84375 12.6665C8.12783 12.1649 8.26189 11.5922 8.23 11.0165C8.26253 10.4228 8.1329 9.83145 7.855 9.30579C7.75568 9.12094 7.60777 8.96672 7.42721 8.85979C7.24666 8.75286 7.04033 8.69728 6.83049 8.69904Z" fill="#0072C6"/>
<path fill-rule="evenodd" clip-rule="evenodd" d="M0.615234 18.9366V2.86631L12.8402 0.500061V21.5001L0.615234 18.9366ZM7.91051 14.3802C8.26347 14.2023 8.56755 13.9407 8.79623 13.6183C9.34616 12.8327 9.61924 11.8866 9.57248 10.9288C9.61686 9.99901 9.35323 9.08054 8.82248 8.31581C8.6022 8.00308 8.30852 7.7492 7.96722 7.57645C7.62592 7.40371 7.24743 7.31739 6.86498 7.32506C6.46312 7.316 6.06521 7.40594 5.70631 7.58696C5.34741 7.76798 5.03856 8.03451 4.80698 8.36306C4.25741 9.15731 3.98438 10.1103 4.02998 11.0751C3.98694 11.9947 4.25512 12.9021 4.79123 13.6506C5.01728 13.9626 5.31534 14.2154 5.66007 14.3875C6.0048 14.5596 6.38599 14.6459 6.77123 14.6391C7.16642 14.647 7.55755 14.5581 7.91051 14.3802Z" fill="#0072C6"/>
<path d="M13.6135 4.95282V9.06057L15.0505 9.96432C15.1024 9.97573 15.1561 9.97573 15.208 9.96432L21.3865 5.79882C21.382 5.59666 21.308 5.40221 21.177 5.24815C21.0461 5.09409 20.866 4.9898 20.6672 4.95282H13.6135Z" fill="#0072C6"/>
<path d="M13.6135 10.5928L14.9237 11.4928C14.9851 11.5301 15.0555 11.5499 15.1274 11.5499C15.1992 11.5499 15.2696 11.5301 15.331 11.4928C15.106 11.6285 21.3857 7.45929 21.3857 7.45929V15.0088C21.4021 15.1618 21.3849 15.3165 21.3352 15.4621C21.2855 15.6077 21.2047 15.7407 21.0982 15.8518C20.9918 15.9629 20.8623 16.0494 20.719 16.1052C20.5756 16.161 20.4218 16.1849 20.2682 16.175H13.6127L13.6135 10.5928Z" fill="#0072C6"/>
</svg>
