<svg width="22" height="21" viewBox="0 0 22 21" fill="none" xmlns="http://www.w3.org/2000/svg">
<path d="M17.6398 0.204146L2.79055 5.15389C2.20542 5.35013 1.69505 5.72205 1.32902 6.21895C0.962993 6.71585 0.759123 7.31355 0.745206 7.93055C0.731288 8.54755 0.908001 9.15383 1.25125 9.66673C1.5945 10.1796 2.08758 10.5742 2.66327 10.7966L8.15749 12.8967C8.2878 12.95 8.40619 13.0287 8.50574 13.1283C8.6053 13.2278 8.68402 13.3462 8.73732 13.4765L10.8374 18.9708C11.0166 19.4375 11.3096 19.852 11.6897 20.1767C12.0699 20.5013 12.5251 20.7259 13.0141 20.8298C13.5031 20.9338 14.0103 20.9139 14.4897 20.772C14.969 20.6301 15.4053 20.3707 15.7589 20.0173C16.0867 19.6829 16.3355 19.2794 16.4872 18.8364L21.437 3.98717C21.6115 3.45937 21.6359 2.89348 21.5075 2.35261C21.3791 1.81175 21.103 1.31719 20.7099 0.924111C20.3168 0.531036 19.8223 0.254906 19.2814 0.126528C18.7406 -0.00185082 18.1747 0.0225731 17.6469 0.197075L17.6398 0.204146ZM19.5348 3.35784L14.5851 18.2071C14.5175 18.3995 14.3927 18.5666 14.2275 18.6861C14.0622 18.8056 13.8643 18.8717 13.6605 18.8755C13.4566 18.8794 13.2564 18.8208 13.0867 18.7076C12.917 18.5945 12.786 18.4322 12.7113 18.2424L10.6041 12.7553C10.5753 12.6827 10.5422 12.6119 10.5051 12.5432L15.3771 7.67119C15.5646 7.48366 15.6699 7.2293 15.6699 6.96409C15.6699 6.69887 15.5646 6.44452 15.3771 6.25698C15.1895 6.06944 14.9352 5.96409 14.6699 5.96409C14.4047 5.96409 14.1504 6.06944 13.9628 6.25698L9.09087 11.1289C9.02215 11.0918 8.95132 11.0588 8.87874 11.03L3.39159 8.92277C3.20187 8.84799 3.03954 8.71698 2.92638 8.54733C2.81323 8.37767 2.75464 8.17747 2.75849 7.97358C2.76234 7.76968 2.82843 7.57184 2.94791 7.40657C3.06739 7.2413 3.23454 7.11652 3.42695 7.04894L18.2762 2.09919C18.4514 2.04271 18.6387 2.03566 18.8176 2.07882C18.9965 2.12198 19.1601 2.21368 19.2902 2.34382C19.4203 2.47396 19.512 2.63749 19.5552 2.81641C19.5984 2.99532 19.5913 3.18268 19.5348 3.35784Z" fill="#663FBA"/>
</svg>
