<svg width="24" height="24" viewBox="0 0 24 24" fill="none" xmlns="http://www.w3.org/2000/svg">
  <path fill-rule="evenodd" clip-rule="evenodd" d="M12 2.83594C9.23855 2.83594 6.99997 5.07451 6.99997 7.83594C6.99997 10.5974 9.23855 12.8359 12 12.8359C14.7614 12.8359 17 10.5974 17 7.83594C17 5.07451 14.7614 2.83594 12 2.83594ZM8.66664 7.83594C8.66664 5.99499 10.159 4.5026 12 4.5026C13.8409 4.5026 15.3333 5.99499 15.3333 7.83594C15.3333 9.67689 13.8409 11.1693 12 11.1693C10.159 11.1693 8.66664 9.67689 8.66664 7.83594Z" fill="#858091"/>
  <path d="M6.43706 14.9196C6.74173 14.6507 7.13414 14.5024 7.54048 14.5026H7.8333C8.29354 14.5026 8.66664 14.1295 8.66664 13.6693C8.66664 13.209 8.29354 12.8359 7.8333 12.8359H7.5408C6.72822 12.8357 5.94354 13.1323 5.33427 13.67C4.72492 14.2077 4.333 14.9496 4.23222 15.756L3.90722 18.3594C3.86328 18.7111 3.89465 19.0682 3.99924 19.4069C4.10384 19.7456 4.2793 20.0583 4.51395 20.324C4.74861 20.5898 5.03711 20.8026 5.36029 20.9483C5.68342 21.094 6.03402 21.1693 6.38848 21.1693H16.1666C16.6269 21.1693 17 20.7962 17 20.3359C17 19.8757 16.6269 19.5026 16.1666 19.5026H6.38812C6.26995 19.5026 6.15312 19.4775 6.04539 19.4289C5.93766 19.3804 5.8415 19.3094 5.76328 19.2209C5.68506 19.1323 5.62657 19.0281 5.59171 18.9151C5.55684 18.8022 5.5464 18.6831 5.56105 18.5658L5.88605 15.9625C5.93646 15.5593 6.13241 15.1885 6.43706 14.9196Z" fill="#858091"/>
  <path d="M17.8333 12.0026C18.2935 12.0026 18.6666 12.3757 18.6666 12.8359V14.5026H20.3333C20.7935 14.5026 21.1666 14.8757 21.1666 15.3359C21.1666 15.7962 20.7935 16.1693 20.3333 16.1693H18.6666V17.8359C18.6666 18.2962 18.2935 18.6693 17.8333 18.6693C17.3731 18.6693 17 18.2962 17 17.8359V16.1693H15.3333C14.8731 16.1693 14.5 15.7962 14.5 15.3359C14.5 14.8757 14.8731 14.5026 15.3333 14.5026H17V12.8359C17 12.3757 17.3731 12.0026 17.8333 12.0026Z" fill="#858091"/>
</svg>