<svg width="24" height="24" viewBox="0 0 24 24" fill="none" xmlns="http://www.w3.org/2000/svg">
<path d="M19.1566 21.2013H4.84336C4.30106 21.2013 3.78097 20.9859 3.39751 20.6024C3.01404 20.219 2.79861 19.6989 2.79861 19.1566V4.84333C2.79861 4.30103 3.01404 3.78094 3.39751 3.39748C3.78097 3.01401 4.30106 2.79858 4.84336 2.79858H19.1566C19.6989 2.79858 20.219 3.01401 20.6025 3.39748C20.9859 3.78094 21.2014 4.30103 21.2014 4.84333V19.1566C21.2014 19.6989 20.9859 20.219 20.6025 20.6024C20.219 20.9859 19.6989 21.2013 19.1566 21.2013ZM4.84336 4.84333V19.1566H19.1566V4.84333H4.84336ZM18.1342 17.1118H5.86574L8.93286 13.0223L9.95524 14.0447L13.0224 9.95521L18.1342 17.1118ZM8.42167 10.9776C8.01495 10.9776 7.62488 10.816 7.33728 10.5284C7.04968 10.2408 6.88811 9.85075 6.88811 9.44402C6.88811 9.03729 7.04968 8.64723 7.33728 8.35963C7.62488 8.07203 8.01495 7.91046 8.42167 7.91046C8.8284 7.91046 9.21847 8.07203 9.50607 8.35963C9.79367 8.64723 9.95524 9.03729 9.95524 9.44402C9.95524 9.85075 9.79367 10.2408 9.50607 10.5284C9.21847 10.816 8.8284 10.9776 8.42167 10.9776Z" fill="#0C0024"/>
</svg>
