<svg width="32" height="32" viewBox="0 0 32 32" fill="none" xmlns="http://www.w3.org/2000/svg">
<path d="M2 7.05556C2 5.71474 2.53264 4.42884 3.48074 3.48074C4.42884 2.53264 5.71474 2 7.05556 2H24.9444C26.2853 2 27.5712 2.53264 28.5193 3.48074C29.4674 4.42884 30 5.71474 30 7.05556V24.9444C30 26.2853 29.4674 27.5712 28.5193 28.5193C27.5712 29.4674 26.2853 30 24.9444 30H7.05556C5.71474 30 4.42884 29.4674 3.48074 28.5193C2.53264 27.5712 2 26.2853 2 24.9444V7.05556ZM17.1667 9.38889C17.1667 9.07947 17.0438 8.78272 16.825 8.56393C16.6062 8.34514 16.3094 8.22222 16 8.22222C15.6906 8.22222 15.3938 8.34514 15.175 8.56393C14.9563 8.78272 14.8333 9.07947 14.8333 9.38889V14.8333H9.38889C9.07947 14.8333 8.78272 14.9563 8.56393 15.175C8.34514 15.3938 8.22222 15.6906 8.22222 16C8.22222 16.3094 8.34514 16.6062 8.56393 16.825C8.78272 17.0438 9.07947 17.1667 9.38889 17.1667H14.8333V22.6111C14.8333 22.9205 14.9563 23.2173 15.175 23.4361C15.3938 23.6549 15.6906 23.7778 16 23.7778C16.3094 23.7778 16.6062 23.6549 16.825 23.4361C17.0438 23.2173 17.1667 22.9205 17.1667 22.6111V17.1667H22.6111C22.9205 17.1667 23.2173 17.0438 23.4361 16.825C23.6549 16.6062 23.7778 16.3094 23.7778 16C23.7778 15.6906 23.6549 15.3938 23.4361 15.175C23.2173 14.9563 22.9205 14.8333 22.6111 14.8333H17.1667V9.38889Z" fill="#858091"/>
</svg>
