<svg width="24" height="24" viewBox="0 0 24 24" fill="none" xmlns="http://www.w3.org/2000/svg">
<path fill-rule="evenodd" clip-rule="evenodd" d="M5.69158 7.21596H18.3084C19.0753 7.21596 19.8108 7.52061 20.3531 8.06289C20.8954 8.60517 21.2 9.34065 21.2 10.1076V13.8926C21.2 14.6595 20.8954 15.395 20.3531 15.9373C19.8108 16.4795 19.0753 16.7842 18.3084 16.7842H5.69158C4.92468 16.7842 4.18919 16.4795 3.64692 15.9373C3.10464 15.395 2.79999 14.6595 2.79999 13.8926V10.1076C2.79999 9.34065 3.10464 8.60517 3.64692 8.06289C4.18919 7.52061 4.92468 7.21596 5.69158 7.21596ZM5.69158 9.21409C5.45462 9.21409 5.22737 9.30822 5.05981 9.47578C4.89225 9.64334 4.79812 9.87059 4.79812 10.1076V13.8926C4.79812 14.1296 4.89225 14.3568 5.05981 14.5244C5.22737 14.6919 5.45462 14.7861 5.69158 14.7861H18.3084C18.5454 14.7861 18.7726 14.6919 18.9402 14.5244C19.1077 14.3568 19.2019 14.1296 19.2019 13.8926V10.1076C19.2019 9.87059 19.1077 9.64334 18.9402 9.47578C18.7726 9.30822 18.5454 9.21409 18.3084 9.21409H5.69158ZM2.79999 4.42997C2.79999 4.16501 2.90525 3.91089 3.09261 3.72353C3.27997 3.53617 3.53409 3.43091 3.79905 3.43091H20.2009C20.4659 3.43091 20.72 3.53617 20.9074 3.72353C21.0948 3.91089 21.2 4.16501 21.2 4.42997C21.2 4.69494 21.0948 4.94906 20.9074 5.13642C20.72 5.32378 20.4659 5.42904 20.2009 5.42904H3.79905C3.53408 5.42904 3.27997 5.32378 3.09261 5.13642C2.90525 4.94906 2.79999 4.69494 2.79999 4.42997ZM2.79999 19.5702C2.79999 19.3052 2.90525 19.0511 3.09261 18.8637C3.27997 18.6764 3.53409 18.5711 3.79905 18.5711H20.2009C20.4659 18.5711 20.72 18.6764 20.9074 18.8637C21.0948 19.0511 21.2 19.3052 21.2 19.5702C21.2 19.8351 21.0948 20.0893 20.9074 20.2766C20.72 20.464 20.4659 20.5692 20.2009 20.5692H3.79905C3.53409 20.5692 3.27997 20.464 3.09261 20.2766C2.90525 20.0893 2.79999 19.8351 2.79999 19.5702Z" fill="#0C0024"/>
</svg>
