<svg width="40" height="40" viewBox="0 0 40 40" fill="none" xmlns="http://www.w3.org/2000/svg">
<path d="M0 16C0 8.45753 0 4.68629 2.34315 2.34315C4.68629 0 8.45753 0 16 0H24C31.5425 0 35.3137 0 37.6569 2.34315C40 4.68629 40 8.45753 40 16V24C40 31.5425 40 35.3137 37.6569 37.6569C35.3137 40 31.5425 40 24 40H16C8.45753 40 4.68629 40 2.34315 37.6569C0 35.3137 0 31.5425 0 24V16Z" fill="#F3F2F4"/>
<path fill-rule="evenodd" clip-rule="evenodd" d="M12.3882 11.0764C12.51 11.1269 12.6207 11.2009 12.714 11.2941L28.714 27.2941C28.8077 27.3871 28.8821 27.4977 28.9329 27.6195C28.9836 27.7414 29.0098 27.8721 29.0098 28.0041C29.0098 28.1361 28.9836 28.2668 28.9329 28.3887C28.8821 28.5105 28.8077 28.6211 28.714 28.7141C28.621 28.8078 28.5104 28.8822 28.3885 28.933C28.2667 28.9838 28.136 29.0099 28.004 29.0099C27.872 29.0099 27.7413 28.9838 27.6194 28.933C27.4975 28.8822 27.3869 28.8078 27.294 28.7141L21.664 23.0841C21.0014 23.4403 20.2416 23.5735 19.4973 23.464C18.753 23.3545 18.0639 23.0081 17.5319 22.4762C17 21.9442 16.6536 21.255 16.5441 20.5107C16.4346 19.7665 16.5678 19.0067 16.924 18.3441L11.294 12.7141C11.1057 12.5258 10.9999 12.2704 10.9999 12.0041C10.9999 11.7378 11.1057 11.4824 11.294 11.2941C11.3872 11.2009 11.4979 11.1269 11.6197 11.0764C11.7415 11.026 11.8721 11 12.004 11C12.1358 11 12.2664 11.026 12.3882 11.0764ZM18.9433 21.0648C19.2246 21.3461 19.6061 21.5041 20.004 21.5041L20.064 21.4941L18.504 19.9341V20.0041C18.504 20.4019 18.662 20.7834 18.9433 21.0648ZM12.224 20.0041C13.104 21.4141 15.924 25.1041 20.224 25.0041C20.7982 24.9842 21.3683 24.9003 21.924 24.7541L23.504 26.3341C22.4747 26.7445 21.3815 26.9713 20.274 27.0041H20.024C14.134 27.0041 10.764 21.5941 10.134 20.5041C10.0462 20.3521 10 20.1797 10 20.0041C10 19.8286 10.0462 19.6562 10.134 19.5041C10.9084 18.1606 11.8753 16.9376 13.004 15.8741L14.464 17.2841C13.6033 18.0906 12.8504 19.0048 12.224 20.0041ZM19.734 13.0041C25.704 12.8241 29.234 18.3941 29.874 19.5041C29.9679 19.6526 30.021 19.8232 30.0281 19.9988C30.0351 20.1743 29.9957 20.3486 29.914 20.5041C29.1273 21.8504 28.1468 23.0735 27.004 24.1341L25.494 22.7241C26.3722 21.9208 27.142 21.0064 27.784 20.0041C26.894 18.5941 24.074 14.8941 19.784 15.0041C19.2098 15.0241 18.6396 15.108 18.084 15.2541L16.504 13.6741C17.5332 13.2638 18.6264 13.037 19.734 13.0041Z" fill="#20113E"/>
</svg>
