<svg width="40" height="41" viewBox="0 0 40 41" fill="none" xmlns="http://www.w3.org/2000/svg">
<path d="M0 16.5C0 8.95753 0 5.18629 2.34315 2.84315C4.68629 0.5 8.45753 0.5 16 0.5H24C31.5425 0.5 35.3137 0.5 37.6569 2.84315C40 5.18629 40 8.95753 40 16.5V24.5C40 32.0425 40 35.8137 37.6569 38.1569C35.3137 40.5 31.5425 40.5 24 40.5H16C8.45753 40.5 4.68629 40.5 2.34315 38.1569C0 35.8137 0 32.0425 0 24.5V16.5Z" fill="#F7F7F8"/>
<path fill-rule="evenodd" clip-rule="evenodd" d="M19.734 13.5043C25.714 13.3243 29.234 18.8943 29.874 20.0043C29.9617 20.1563 30.0079 20.3287 30.0079 20.5043C30.0079 20.6798 29.9617 20.8522 29.874 21.0043C29.014 22.5043 25.804 27.3643 20.274 27.5043H20.024C14.134 27.5043 10.764 22.0943 10.134 21.0043C10.0462 20.8522 10 20.6798 10 20.5043C10 20.3287 10.0462 20.1563 10.134 20.0043C11.004 18.5043 14.204 13.6443 19.734 13.5043ZM12.224 20.5043C13.104 21.9143 15.914 25.6043 20.224 25.5043C24.224 25.4043 26.804 22.1143 27.834 20.5043C26.944 19.0943 24.124 15.3943 19.834 15.5043C15.834 15.6043 13.224 18.8943 12.224 20.5043ZM18.0595 17.5941C18.635 17.2095 19.3117 17.0043 20.004 17.0043C20.9322 17.0043 21.8225 17.373 22.4788 18.0294C23.1352 18.6858 23.504 19.576 23.504 20.5043C23.504 21.1965 23.2987 21.8732 22.9141 22.4488C22.5295 23.0243 21.9829 23.4729 21.3434 23.7379C20.7038 24.0028 20.0001 24.0721 19.3212 23.937C18.6422 23.802 18.0186 23.4686 17.5291 22.9791C17.0396 22.4897 16.7063 21.866 16.5712 21.1871C16.4362 20.5082 16.5055 19.8044 16.7704 19.1649C17.0353 18.5253 17.4839 17.9787 18.0595 17.5941ZM19.1706 21.7515C19.4173 21.9163 19.7073 22.0043 20.004 22.0043C20.4018 22.0043 20.7833 21.8462 21.0646 21.5649C21.3459 21.2836 21.504 20.9021 21.504 20.5043C21.504 20.2076 21.416 19.9176 21.2512 19.6709C21.0864 19.4242 20.8521 19.232 20.578 19.1185C20.3039 19.0049 20.0023 18.9752 19.7113 19.0331C19.4204 19.091 19.1531 19.2338 18.9433 19.4436C18.7335 19.6534 18.5907 19.9207 18.5328 20.2116C18.4749 20.5026 18.5046 20.8042 18.6181 21.0783C18.7317 21.3524 18.9239 21.5867 19.1706 21.7515Z" fill="#20113E"/>
</svg>
