<svg width="16" height="16" viewBox="0 0 16 16" fill="none" xmlns="http://www.w3.org/2000/svg">
<path d="M7.32495 4.50243C7.32647 4.67722 7.25928 4.84563 7.13784 4.97136L6.9425 5.16669H9.33317C9.8636 5.16669 10.3723 5.37741 10.7474 5.75248C11.1225 6.12755 11.3332 6.63626 11.3332 7.16669V7.83336C11.3332 8.01017 11.2629 8.17974 11.1379 8.30477C11.0129 8.42979 10.8433 8.50003 10.6665 8.50003C10.4897 8.50003 10.3201 8.42979 10.1951 8.30477C10.0701 8.17974 9.99984 8.01017 9.99984 7.83336V7.16669C9.99984 6.98988 9.9296 6.82031 9.80458 6.69529C9.67955 6.57027 9.50998 6.50003 9.33317 6.50003H6.9425L7.13784 6.69536C7.25928 6.8211 7.32647 6.9895 7.32495 7.16429C7.32343 7.33909 7.25332 7.5063 7.12972 7.62991C7.00611 7.75351 6.8389 7.82362 6.6641 7.82514C6.48931 7.82666 6.32091 7.75947 6.19517 7.63803L4.86184 6.30469C4.73686 6.17968 4.66665 6.01014 4.66665 5.83336C4.66665 5.65658 4.73686 5.48705 4.86184 5.36203L6.19517 4.02869C6.32091 3.90726 6.48931 3.84006 6.6641 3.84158C6.8389 3.8431 7.00611 3.91321 7.12972 4.03682C7.25332 4.16042 7.32343 4.32763 7.32495 4.50243Z" fill="#0C0024"/>
<path d="M5.80458 8.69529C5.9296 8.82031 5.99984 8.98988 5.99984 9.16669V9.83336C5.99984 10.0102 6.07008 10.1797 6.1951 10.3048C6.32012 10.4298 6.48969 10.5 6.6665 10.5H9.05717L8.86184 10.3047C8.7404 10.179 8.6732 10.0106 8.67472 9.83576C8.67624 9.66096 8.74635 9.49375 8.86996 9.37015C8.99356 9.24654 9.16077 9.17643 9.33557 9.17491C9.51037 9.17339 9.67877 9.24059 9.8045 9.36203L11.1378 10.6954C11.2628 10.8204 11.333 10.9899 11.333 11.1667C11.333 11.3435 11.2628 11.513 11.1378 11.638L9.8045 12.9714C9.67877 13.0928 9.51037 13.16 9.33557 13.1585C9.16077 13.157 8.99356 13.0868 8.86996 12.9632C8.74635 12.8396 8.67624 12.6724 8.67472 12.4976C8.6732 12.3228 8.7404 12.1544 8.86184 12.0287L9.05717 11.8334H6.6665C6.13607 11.8334 5.62736 11.6226 5.25229 11.2476C4.87722 10.8725 4.6665 10.3638 4.6665 9.83336V9.16669C4.6665 8.98988 4.73674 8.82031 4.86177 8.69529C4.98679 8.57027 5.15636 8.50003 5.33317 8.50003C5.50998 8.50003 5.67955 8.57027 5.80458 8.69529Z" fill="#0C0024"/>
</svg>
