<svg width="24" height="24" viewBox="0 0 24 24" fill="none" xmlns="http://www.w3.org/2000/svg">
<path fill-rule="evenodd" clip-rule="evenodd" d="M7.7311 6.19994C8.96152 5.29252 10.4565 4.79755 11.9995 4.79994C13.469 4.80019 14.9036 5.25006 16.11 6.08914C17.3163 6.92822 18.237 8.11632 18.7485 9.49391C19.26 10.8715 19.3377 12.3726 18.9712 13.7956C18.6047 15.2187 17.8116 16.4955 16.6983 17.4546C15.585 18.4138 14.205 19.0093 12.7434 19.1613C11.2818 19.3133 9.8087 19.0144 8.52191 18.3048C7.23513 17.5953 6.19627 16.5089 5.54484 15.1918C4.89342 13.8746 4.66069 12.3891 4.87778 10.9357C4.96766 10.3267 4.52502 9.70164 3.85971 9.69994C3.60979 9.69604 3.36665 9.78151 3.17412 9.94101C2.98088 10.1011 2.8514 10.3251 2.80923 10.5725L2.80854 10.577C2.47306 12.7419 2.91258 14.9557 4.04962 16.8282C5.18667 18.7007 6.94824 20.1117 9.02383 20.8125C11.0994 21.5133 13.3558 21.4589 15.3952 20.6588C17.4346 19.8588 19.1261 18.3645 20.1715 16.4393C21.217 14.5142 21.5493 12.2818 21.1098 10.1356C20.6704 7.98943 19.4874 6.06728 17.7694 4.70798C16.0514 3.34867 13.9087 2.63947 11.719 2.70539C9.74678 2.76476 7.85046 3.44948 6.3 4.6518V4.24994C6.3 3.97146 6.18937 3.70439 5.99246 3.50747C5.79555 3.31056 5.52847 3.19994 5.25 3.19994C4.97152 3.19994 4.70445 3.31056 4.50754 3.50747C4.31062 3.70439 4.2 3.97146 4.2 4.24994V7.24994C4.2 7.82962 4.67031 8.29994 5.25 8.29994H8.25C8.52847 8.29994 8.79555 8.18931 8.99246 7.9924C9.18937 7.79549 9.3 7.52841 9.3 7.24994C9.3 6.97146 9.18937 6.70439 8.99246 6.50748C8.79555 6.31056 8.52847 6.19994 8.25 6.19994H7.7311ZM3.11137 10.59C3.10901 10.6009 3.10688 10.6119 3.105 10.6229ZM6.90001 6.49992C7.01159 6.39618 7.12601 6.29616 7.24306 6.19994C8.57956 5.10128 10.2605 4.49724 12 4.49994C10.1081 4.49701 8.28556 5.21173 6.90001 6.49992Z" fill="black"/>
</svg>
