<svg width="24" height="24" viewBox="0 0 24 24" fill="none" xmlns="http://www.w3.org/2000/svg">
  <path d="M21 2.75C21 2.55109 20.921 2.36032 20.7803 2.21967C20.6397 2.07902 20.4489 2 20.25 2C20.0511 2 19.8603 2.07902 19.7197 2.21967C19.579 2.36032 19.5 2.55109 19.5 2.75L19.5 21.25C19.5 21.4489 19.579 21.6397 19.7197 21.7803C19.8603 21.921 20.0511 22 20.25 22C20.4489 22 20.6397 21.921 20.7803 21.7803C20.921 21.6397 21 21.4489 21 21.25L21 2.75ZM15.75 4C16.3467 4 16.919 4.23705 17.341 4.65901C17.7629 5.08097 18 5.65326 18 6.25L18 8.75C18 9.34674 17.7629 9.91903 17.341 10.341C16.919 10.7629 16.3467 11 15.75 11L5.25 11C4.65326 11 4.08097 10.7629 3.65901 10.341C3.23705 9.91903 3 9.34674 3 8.75L3 6.25C3 5.65326 3.23705 5.08097 3.65901 4.65901C4.08097 4.23705 4.65326 4 5.25 4L15.75 4ZM16.5 6.25C16.5 6.05109 16.421 5.86032 16.2803 5.71967C16.1397 5.57902 15.9489 5.5 15.75 5.5L5.25 5.5C5.05109 5.5 4.86032 5.57902 4.71967 5.71967C4.57902 5.86032 4.5 6.05109 4.5 6.25L4.5 8.75C4.5 8.94891 4.57902 9.13968 4.71967 9.28033C4.86032 9.42098 5.05109 9.5 5.25 9.5L15.75 9.5C15.9489 9.5 16.1397 9.42098 16.2803 9.28033C16.421 9.13968 16.5 8.94891 16.5 8.75L16.5 6.25ZM15.75 13C16.3467 13 16.919 13.2371 17.341 13.659C17.7629 14.081 18 14.6533 18 15.25L18 17.75C18 18.0455 17.9418 18.3381 17.8287 18.611C17.7157 18.884 17.5499 19.1321 17.341 19.341C17.1321 19.5499 16.884 19.7157 16.611 19.8287C16.3381 19.9418 16.0455 20 15.75 20L8.75 20C8.45453 20 8.16195 19.9418 7.88896 19.8287C7.61598 19.7157 7.36794 19.5499 7.15901 19.341C6.95008 19.1321 6.78434 18.884 6.67127 18.611C6.5582 18.3381 6.5 18.0455 6.5 17.75L6.5 15.25C6.5 14.6533 6.73705 14.081 7.15901 13.659C7.58097 13.2371 8.15326 13 8.75 13L15.75 13ZM16.5 15.25C16.5 15.0511 16.421 14.8603 16.2803 14.7197C16.1397 14.579 15.9489 14.5 15.75 14.5L8.75 14.5C8.55109 14.5 8.36032 14.579 8.21967 14.7197C8.07902 14.8603 8 15.0511 8 15.25L8 17.75C8 17.9489 8.07902 18.1397 8.21967 18.2803C8.36032 18.421 8.55109 18.5 8.75 18.5L15.75 18.5C15.9489 18.5 16.1397 18.421 16.2803 18.2803C16.421 18.1397 16.5 17.9489 16.5 17.75L16.5 15.25Z" fill="#0C0024" stroke="#0C0024" stroke-width="0.3"/>
</svg>