<svg width="32" height="32" viewBox="0 0 32 32" fill="none" xmlns="http://www.w3.org/2000/svg">
<path fill-rule="evenodd" clip-rule="evenodd" d="M21.767 19.8653L28.9403 27.0387C29.1925 27.291 29.334 27.6331 29.3339 27.9898C29.3338 28.3465 29.192 28.6885 28.9397 28.9407C28.6874 29.1928 28.3452 29.3344 27.9885 29.3343C27.6318 29.3341 27.2898 29.1923 27.0377 28.94L19.8643 21.7667C17.72 23.4276 15.0234 24.2092 12.3232 23.9525C9.62298 23.6958 7.12198 22.42 5.32898 20.3848C3.53598 18.3496 2.58566 15.7078 2.67134 12.9967C2.75703 10.2857 3.87228 7.70915 5.79022 5.79121C7.70815 3.87327 10.2847 2.75802 12.9957 2.67234C15.7068 2.58665 18.3486 3.53698 20.3838 5.32998C22.419 7.12298 23.6948 9.62397 23.9515 12.3242C24.2082 15.0244 23.4266 17.7209 21.7657 19.8653H21.767ZM13.3337 21.3333C15.4554 21.3333 17.4902 20.4905 18.9905 18.9902C20.4908 17.4899 21.3337 15.4551 21.3337 13.3333C21.3337 11.2116 20.4908 9.17677 18.9905 7.67648C17.4902 6.17619 15.4554 5.33333 13.3337 5.33333C11.2119 5.33333 9.17711 6.17619 7.67682 7.67648C6.17653 9.17677 5.33367 11.2116 5.33367 13.3333C5.33367 15.4551 6.17653 17.4899 7.67682 18.9902C9.17711 20.4905 11.2119 21.3333 13.3337 21.3333Z" fill="#858091"/>
</svg>
