<svg width="40" height="41" viewBox="0 0 40 41" fill="none" xmlns="http://www.w3.org/2000/svg">
<path d="M0 16.5C0 8.95753 0 5.18629 2.34315 2.84315C4.68629 0.5 8.45753 0.5 16 0.5H24C31.5425 0.5 35.3137 0.5 37.6569 2.84315C40 5.18629 40 8.95753 40 16.5V24.5C40 32.0425 40 35.8137 37.6569 38.1569C35.3137 40.5 31.5425 40.5 24 40.5H16C8.45753 40.5 4.68629 40.5 2.34315 38.1569C0 35.8137 0 32.0425 0 24.5V16.5Z" fill="#F7F7F8"/>
<path fill-rule="evenodd" clip-rule="evenodd" d="M12.3882 11.5764C12.51 11.6269 12.6207 11.7009 12.714 11.7941L28.714 27.7941C28.8077 27.8871 28.8821 27.9977 28.9329 28.1195C28.9836 28.2414 29.0098 28.3721 29.0098 28.5041C29.0098 28.6361 28.9836 28.7668 28.9329 28.8887C28.8821 29.0105 28.8077 29.1211 28.714 29.2141C28.621 29.3078 28.5104 29.3822 28.3885 29.433C28.2667 29.4838 28.136 29.5099 28.004 29.5099C27.872 29.5099 27.7413 29.4838 27.6194 29.433C27.4975 29.3822 27.3869 29.3078 27.294 29.2141L21.664 23.5841C21.0014 23.9403 20.2416 24.0735 19.4973 23.964C18.753 23.8545 18.0639 23.5081 17.5319 22.9762C17 22.4442 16.6536 21.755 16.5441 21.0107C16.4346 20.2665 16.5678 19.5067 16.924 18.8441L11.294 13.2141C11.1057 13.0258 10.9999 12.7704 10.9999 12.5041C10.9999 12.2378 11.1057 11.9824 11.294 11.7941C11.3872 11.7009 11.4979 11.6269 11.6197 11.5764C11.7415 11.526 11.8721 11.5 12.004 11.5C12.1358 11.5 12.2664 11.526 12.3882 11.5764ZM18.9433 21.5648C19.2246 21.8461 19.6061 22.0041 20.004 22.0041L20.064 21.9941L18.504 20.4341V20.5041C18.504 20.9019 18.662 21.2834 18.9433 21.5648ZM12.224 20.5041C13.104 21.9141 15.924 25.6041 20.224 25.5041C20.7982 25.4842 21.3683 25.4003 21.924 25.2541L23.504 26.8341C22.4747 27.2445 21.3815 27.4713 20.274 27.5041H20.024C14.134 27.5041 10.764 22.0941 10.134 21.0041C10.0462 20.8521 10 20.6797 10 20.5041C10 20.3286 10.0462 20.1562 10.134 20.0041C10.9084 18.6606 11.8753 17.4376 13.004 16.3741L14.464 17.7841C13.6033 18.5906 12.8504 19.5048 12.224 20.5041ZM19.734 13.5041C25.704 13.3241 29.234 18.8941 29.874 20.0041C29.9679 20.1526 30.021 20.3232 30.0281 20.4988C30.0351 20.6743 29.9957 20.8486 29.914 21.0041C29.1273 22.3504 28.1468 23.5735 27.004 24.6341L25.494 23.2241C26.3722 22.4208 27.142 21.5064 27.784 20.5041C26.894 19.0941 24.074 15.3941 19.784 15.5041C19.2098 15.5241 18.6396 15.608 18.084 15.7541L16.504 14.1741C17.5332 13.7638 18.6264 13.537 19.734 13.5041Z" fill="#0C0024"/>
</svg>
