<svg width="24" height="24" viewBox="0 0 24 24" fill="none" xmlns="http://www.w3.org/2000/svg">
<path d="M18.1398 2.20415L3.29055 7.15389C2.70542 7.35013 2.19505 7.72205 1.82902 8.21895C1.46299 8.71585 1.25912 9.31355 1.24521 9.93055C1.23129 10.5476 1.408 11.1538 1.75125 11.6667C2.0945 12.1796 2.58758 12.5742 3.16327 12.7966L8.65749 14.8967C8.7878 14.95 8.90619 15.0287 9.00574 15.1283C9.1053 15.2278 9.18402 15.3462 9.23732 15.4765L11.3374 20.9708C11.5166 21.4375 11.8096 21.852 12.1897 22.1767C12.5699 22.5013 13.0251 22.7259 13.5141 22.8298C14.0031 22.9338 14.5103 22.9139 14.9897 22.772C15.469 22.6301 15.9053 22.3707 16.2589 22.0173C16.5867 21.6829 16.8355 21.2794 16.9872 20.8364L21.937 5.98717C22.1115 5.45937 22.1359 4.89348 22.0075 4.35261C21.8791 3.81175 21.603 3.31719 21.2099 2.92411C20.8168 2.53104 20.3223 2.25491 19.7814 2.12653C19.2406 1.99815 18.6747 2.02257 18.1469 2.19707L18.1398 2.20415ZM20.0348 5.35784L15.0851 20.2071C15.0175 20.3995 14.8927 20.5666 14.7275 20.6861C14.5622 20.8056 14.3643 20.8717 14.1605 20.8755C13.9566 20.8794 13.7564 20.8208 13.5867 20.7076C13.417 20.5945 13.286 20.4322 13.2113 20.2424L11.1041 14.7553C11.0753 14.6827 11.0422 14.6119 11.0051 14.5432L15.8771 9.67119C16.0646 9.48366 16.1699 9.2293 16.1699 8.96409C16.1699 8.69887 16.0646 8.44452 15.8771 8.25698C15.6895 8.06944 15.4352 7.96409 15.1699 7.96409C14.9047 7.96409 14.6504 8.06944 14.4628 8.25698L9.59087 13.1289C9.52215 13.0918 9.45132 13.0588 9.37874 13.03L3.89159 10.9228C3.70187 10.848 3.53954 10.717 3.42638 10.5473C3.31323 10.3777 3.25464 10.1775 3.25849 9.97358C3.26234 9.76968 3.32843 9.57184 3.44791 9.40657C3.56739 9.2413 3.73454 9.11652 3.92695 9.04894L18.7762 4.09919C18.9514 4.04271 19.1387 4.03566 19.3176 4.07882C19.4965 4.12198 19.6601 4.21368 19.7902 4.34382C19.9203 4.47396 20.012 4.63749 20.0552 4.81641C20.0984 4.99532 20.0913 5.18268 20.0348 5.35784Z" fill="#663FBA"/>
</svg>
