<svg width="24" height="24" viewBox="0 0 24 24" fill="none" xmlns="http://www.w3.org/2000/svg">
<path d="M2.60042 13.0841L6.05242 14.5951L16.0004 9.16813L10.0004 16.1681L18.6004 20.0841C18.7475 20.1485 18.9079 20.1766 19.0681 20.1659C19.2283 20.1552 19.3836 20.1061 19.5209 20.0227C19.6581 19.9394 19.7732 19.8242 19.8565 19.6869C19.9398 19.5496 19.9888 19.3943 19.9994 19.2341L20.9994 4.23413C21.0106 4.06051 20.9763 3.88698 20.9 3.73063C20.8237 3.57427 20.7081 3.44047 20.5644 3.34238C20.4207 3.2443 20.2539 3.18533 20.0805 3.17125C19.9071 3.15718 19.733 3.1885 19.5754 3.26213L2.57542 11.2621C2.40201 11.3444 2.25588 11.4747 2.15441 11.6377C2.05294 11.8006 2.00039 11.9892 2.00302 12.1812C2.00566 12.3731 2.06336 12.5602 2.16926 12.7203C2.27517 12.8803 2.42482 13.0066 2.60042 13.0841ZM8.00042 22.1681L12.7764 19.8521L8.00042 17.6241V22.1681Z" fill="#663FBA"/>
</svg>
