<svg width="24" height="24" viewBox="0 0 24 24" fill="none" xmlns="http://www.w3.org/2000/svg">
<path d="M12.7071 8.29289C12.3166 7.90237 11.6834 7.90237 11.2929 8.29289L9.29289 10.2929C8.90237 10.6834 8.90237 11.3166 9.29289 11.7071C9.68342 12.0976 10.3166 12.0976 10.7071 11.7071L11 11.4142V15C11 15.5523 11.4477 16 12 16C12.5523 16 13 15.5523 13 15V11.4142L13.2929 11.7071C13.6834 12.0976 14.3166 12.0976 14.7071 11.7071C15.0976 11.3166 15.0976 10.6834 14.7071 10.2929L12.7071 8.29289Z" fill="#20113E"/>
<path fill-rule="evenodd" clip-rule="evenodd" d="M2 6C2 4.89543 2.89543 4 4 4H20C21.1046 4 22 4.89543 22 6V18C22 19.1046 21.1046 20 20 20H4C2.89543 20 2 19.1046 2 18V6ZM4 6H20V18H4V6Z" fill="#20113E"/>
</svg>
