<svg width="24" height="24" viewBox="0 0 24 24" fill="none" xmlns="http://www.w3.org/2000/svg">
<path d="M13.0045 7.05V4C13.0045 3.73478 13.1098 3.48043 13.2974 3.29289C13.4849 3.10536 13.7392 3 14.0045 3C14.2668 3.0011 14.5182 3.10526 14.7045 3.29L21.7045 10.29C21.7982 10.383 21.8726 10.4936 21.9234 10.6154C21.9741 10.7373 22.0003 10.868 22.0003 11C22.0003 11.132 21.9741 11.2627 21.9234 11.3846C21.8726 11.5064 21.7982 11.617 21.7045 11.71L14.7045 18.71C14.5641 18.8476 14.3863 18.9408 14.1932 18.9779C14.0002 19.015 13.8005 18.9944 13.6191 18.9186C13.4377 18.8429 13.2826 18.7153 13.1733 18.5519C13.064 18.3886 13.0053 18.1966 13.0045 18V14.9H12.1545C10.5745 14.8764 9.00842 15.197 7.56479 15.8393C6.12117 16.4817 4.83463 17.4306 3.79446 18.62C3.66911 18.7869 3.49468 18.9104 3.29563 18.9731C3.09657 19.0359 2.88287 19.0348 2.68446 18.97C2.48256 18.9019 2.3077 18.771 2.18537 18.5965C2.06305 18.422 1.99967 18.213 2.00446 18C2.00446 8.88 10.0845 7.32 13.0045 7.05ZM12.1545 12.88C12.8233 12.8779 13.4915 12.9213 14.1545 13.01C14.3912 13.0459 14.6072 13.1656 14.7632 13.3473C14.9192 13.5289 15.0048 13.7606 15.0045 14V15.59L19.5845 11L15.0045 6.41V8C15.0045 8.26522 14.8991 8.51957 14.7116 8.70711C14.524 8.89464 14.2697 9 14.0045 9C13.0945 9 5.89446 9.2 4.33446 15.43C6.59877 13.7606 9.34129 12.8663 12.1545 12.88Z" fill="#0C0024"/>
</svg>
