<svg width="24" height="24" viewBox="0 0 24 24" fill="none" xmlns="http://www.w3.org/2000/svg">
<path fill-rule="evenodd" clip-rule="evenodd" d="M16.7972 1.92529C13.888 1.92529 11.5297 4.28361 11.5297 7.19275C11.5297 10.1019 13.888 12.4602 16.7972 12.4602C19.7063 12.4602 22.0646 10.1019 22.0646 7.19275C22.0646 4.28361 19.7063 1.92529 16.7972 1.92529ZM13.4297 7.19275C13.4297 5.33296 14.9374 3.82529 16.7972 3.82529C18.657 3.82529 20.1646 5.33296 20.1646 7.19275C20.1646 9.05255 18.657 10.5602 16.7972 10.5602C14.9374 10.5602 13.4297 9.05255 13.4297 7.19275ZM6.24339 8.16162C3.86413 8.16162 1.93536 10.0904 1.93536 12.4696C1.93536 14.8489 3.86413 16.7777 6.24339 16.7777C8.62264 16.7777 10.5514 14.8489 10.5514 12.4696C10.5514 10.0904 8.62264 8.16162 6.24339 8.16162ZM3.83536 12.4696C3.83536 11.1397 4.91347 10.0616 6.24339 10.0616C7.5733 10.0616 8.65141 11.1397 8.65141 12.4696C8.65141 13.7996 7.5733 14.8777 6.24339 14.8777C4.91347 14.8777 3.83536 13.7996 3.83536 12.4696ZM14.3986 14.8777C12.5492 14.8777 11.05 16.3769 11.05 18.2263C11.05 20.0756 12.5492 21.5749 14.3986 21.5749C16.248 21.5749 17.7472 20.0756 17.7472 18.2263C17.7472 16.3769 16.248 14.8777 14.3986 14.8777ZM12.95 18.2263C12.95 17.4262 13.5985 16.7777 14.3986 16.7777C15.1986 16.7777 15.8472 17.4262 15.8472 18.2263C15.8472 19.0263 15.1986 19.6749 14.3986 19.6749C13.5985 19.6749 12.95 19.0263 12.95 18.2263Z" fill="#0C0024"/>
</svg>
