<svg width="24" height="24" viewBox="0 0 24 24" fill="none" xmlns="http://www.w3.org/2000/svg">
<path fill-rule="evenodd" clip-rule="evenodd" d="M12 2C10.0222 2 8.08879 2.58649 6.4443 3.6853C4.79981 4.78412 3.51809 6.3459 2.76121 8.17317C2.00433 10.0004 1.8063 12.0111 2.19215 13.9509C2.578 15.8907 3.53041 17.6725 4.92894 19.0711C6.32746 20.4696 8.10929 21.422 10.0491 21.8079C11.9889 22.1937 13.9996 21.9957 15.8268 21.2388C17.6541 20.4819 19.2159 19.2002 20.3147 17.5557C21.4135 15.9112 22 13.9778 22 12C22 10.6868 21.7413 9.38642 21.2388 8.17317C20.7363 6.95991 19.9997 5.85752 19.0711 4.92893C18.1425 4.00035 17.0401 3.26375 15.8268 2.7612C14.6136 2.25866 13.3132 2 12 2ZM12 20C10.4178 20 8.87104 19.5308 7.55544 18.6518C6.23985 17.7727 5.21447 16.5233 4.60897 15.0615C4.00347 13.5997 3.84504 11.9911 4.15372 10.4393C4.4624 8.88743 5.22433 7.46197 6.34315 6.34315C7.46197 5.22433 8.88743 4.4624 10.4393 4.15372C11.9911 3.84504 13.5997 4.00346 15.0615 4.60896C16.5233 5.21447 17.7727 6.23984 18.6518 7.55544C19.5308 8.87103 20 10.4177 20 12C20 14.1217 19.1572 16.1566 17.6569 17.6569C16.1566 19.1571 14.1217 20 12 20ZM12 5.99995C11.0717 5.99995 10.1815 6.36869 9.52513 7.02507C8.86875 7.68145 8.5 8.57169 8.5 9.49995C8.5 9.76516 8.60536 10.0195 8.79289 10.2071C8.98043 10.3946 9.23478 10.4999 9.5 10.4999C9.76522 10.4999 10.0196 10.3946 10.2071 10.2071C10.3946 10.0195 10.5 9.76516 10.5 9.49995C10.5 9.20327 10.588 8.91326 10.7528 8.66659C10.9176 8.41992 11.1519 8.22766 11.426 8.11413C11.7001 8.00059 12.0017 7.97089 12.2926 8.02877C12.5836 8.08665 12.8509 8.22951 13.0607 8.43928C13.2704 8.64906 13.4133 8.91634 13.4712 9.20731C13.5291 9.49828 13.4994 9.79988 13.3858 10.074C13.2723 10.3481 13.08 10.5823 12.8334 10.7472C12.5867 10.912 12.2967 10.9999 12 10.9999C11.7348 10.9999 11.4804 11.1053 11.2929 11.2928C11.1054 11.4804 11 11.7347 11 11.9999V13.9999C11 14.2652 11.1054 14.5195 11.2929 14.7071C11.4804 14.8946 11.7348 14.9999 12 14.9999C12.2652 14.9999 12.5196 14.8946 12.7071 14.7071C12.8946 14.5195 13 14.2652 13 13.9999V12.8399C13.8081 12.604 14.5037 12.0838 14.9585 11.3754C15.4133 10.667 15.5967 9.81801 15.4749 8.98501C15.3532 8.15201 14.9344 7.3911 14.2958 6.84254C13.6572 6.29397 12.8418 5.99472 12 5.99995ZM12 18C11.4477 18 11 17.5523 11 17C11 16.4477 11.4477 16 12 16C12.5523 16 13 16.4477 13 17C13 17.5523 12.5523 18 12 18Z" fill="#0C0024"/>
</svg>
