<svg width="24" height="24" viewBox="0 0 24 24" fill="none" xmlns="http://www.w3.org/2000/svg">
<path fill-rule="evenodd" clip-rule="evenodd" d="M18.707 7.29303C18.8945 7.48056 18.9998 7.73487 18.9998 8.00003C18.9998 8.26519 18.8945 8.5195 18.707 8.70703L10.707 16.707C10.5195 16.8945 10.2652 16.9998 10 16.9998C9.73485 16.9998 9.48054 16.8945 9.29301 16.707L5.29301 12.707C5.11085 12.5184 5.01006 12.2658 5.01234 12.0036C5.01461 11.7414 5.11978 11.4906 5.30519 11.3052C5.4906 11.1198 5.74141 11.0146 6.00361 11.0124C6.26581 11.0101 6.51841 11.1109 6.70701 11.293L10 14.586L17.293 7.29303C17.4805 7.10556 17.7348 7.00024 18 7.00024C18.2652 7.00024 18.5195 7.10556 18.707 7.29303Z" fill="#0C0024"/>
</svg>
