<svg width="18" height="18" viewBox="0 0 18 18" fill="none" xmlns="http://www.w3.org/2000/svg">
<path fill-rule="evenodd" clip-rule="evenodd" d="M0.666504 8.99984C0.666504 4.40484 4.40484 0.666504 8.99984 0.666504C13.5948 0.666504 17.3332 4.40484 17.3332 8.99984C17.3332 13.5948 13.5948 17.3332 8.99984 17.3332C4.40484 17.3332 0.666504 13.5948 0.666504 8.99984ZM2.33317 8.99984C2.33317 12.6757 5.324 15.6665 8.99984 15.6665C12.6757 15.6665 15.6665 12.6757 15.6665 8.99984C15.6665 5.324 12.6757 2.33317 8.99984 2.33317C5.324 2.33317 2.33317 5.324 2.33317 8.99984ZM8.1665 9.34484V4.83317H9.83317V8.65484L12.089 10.9107L10.9107 12.089L8.1665 9.34484Z" fill="#C92E4A"/>
</svg>
