<svg width="24" height="24" viewBox="0 0 24 24" fill="none" xmlns="http://www.w3.org/2000/svg">
<path d="M20.2967 17.2969L17.2967 20.2969C17.0844 20.5064 16.7981 20.6239 16.4998 20.6239C16.2015 20.6239 15.9153 20.5064 15.703 20.2969C15.5981 20.1924 15.5149 20.0682 15.4581 19.9314C15.4013 19.7947 15.3721 19.6481 15.3721 19.5C15.3721 19.3519 15.4013 19.2053 15.4581 19.0686C15.5149 18.9318 15.5981 18.8076 15.703 18.7031L16.7811 17.625H4.49983C4.20146 17.625 3.91532 17.5065 3.70434 17.2955C3.49336 17.0845 3.37483 16.7984 3.37483 16.5C3.37483 16.2016 3.49336 15.9155 3.70434 15.7045C3.91532 15.4935 4.20146 15.375 4.49983 15.375H16.7811L15.703 14.2969C15.4916 14.0855 15.3729 13.7989 15.3729 13.5C15.3729 13.2011 15.4916 12.9145 15.703 12.7031C15.9143 12.4918 16.2009 12.373 16.4998 12.373C16.7987 12.373 17.0854 12.4918 17.2967 12.7031L20.2967 15.7031C20.4016 15.8076 20.4848 15.9318 20.5416 16.0686C20.5984 16.2053 20.6276 16.3519 20.6276 16.5C20.6276 16.6481 20.5984 16.7947 20.5416 16.9314C20.4848 17.0682 20.4016 17.1924 20.2967 17.2969ZM6.70296 11.2969C6.91525 11.5064 7.20154 11.6239 7.49983 11.6239C7.79812 11.6239 8.08441 11.5064 8.29671 11.2969C8.40159 11.1924 8.4848 11.0682 8.54158 10.9314C8.59837 10.7947 8.62759 10.6481 8.62759 10.5C8.62759 10.3519 8.59837 10.2053 8.54158 10.0686C8.4848 9.93183 8.40159 9.80764 8.29671 9.70312L7.21858 8.625H19.4998C19.7982 8.625 20.0843 8.50647 20.2953 8.29549C20.5063 8.08452 20.6248 7.79837 20.6248 7.5C20.6248 7.20163 20.5063 6.91548 20.2953 6.7045C20.0843 6.49353 19.7982 6.375 19.4998 6.375H7.21858L8.29671 5.29687C8.40135 5.19223 8.48436 5.06799 8.541 4.93126C8.59763 4.79454 8.62678 4.64799 8.62678 4.5C8.62678 4.35201 8.59763 4.20546 8.541 4.06873C8.48436 3.932 8.40135 3.80777 8.29671 3.70312C8.19206 3.59848 8.06783 3.51547 7.9311 3.45883C7.79437 3.4022 7.64783 3.37305 7.49983 3.37305C7.20095 3.37305 6.9143 3.49178 6.70296 3.70312L3.70296 6.70312C3.59808 6.80764 3.51486 6.93183 3.45808 7.06858C3.4013 7.20532 3.37207 7.35193 3.37207 7.5C3.37207 7.64806 3.4013 7.79467 3.45808 7.93142C3.51486 8.06817 3.59808 8.19236 3.70296 8.29687L6.70296 11.2969Z" fill="#663FBA"/>
</svg>
