<svg xmlns="http://www.w3.org/2000/svg" width="24" height="24" viewBox="0 0 24 24" fill="none">
  <path d="M6 11.1318C5.80222 11.1318 5.60888 11.1905 5.44443 11.3004C5.27998 11.4102 5.15181 11.5664 5.07612 11.7492C5.00043 11.9319 4.98063 12.1329 5.01921 12.3269C5.0578 12.5209 5.15304 12.6991 5.29289 12.8389C5.43275 12.9788 5.61093 13.074 5.80491 13.1126C5.99889 13.1512 6.19996 13.1314 6.38268 13.0557C6.56541 12.98 6.72159 12.8519 6.83147 12.6874C6.94135 12.523 7 12.3296 7 12.1318C7 11.8666 6.89464 11.6123 6.70711 11.4247C6.51957 11.2372 6.26522 11.1318 6 11.1318ZM18 11.1318C17.8022 11.1318 17.6089 11.1905 17.4444 11.3004C17.28 11.4102 17.1518 11.5664 17.0761 11.7492C17.0004 11.9319 16.9806 12.1329 17.0192 12.3269C17.0578 12.5209 17.153 12.6991 17.2929 12.8389C17.4327 12.9788 17.6109 13.074 17.8049 13.1126C17.9989 13.1512 18.2 13.1314 18.3827 13.0557C18.5654 12.98 18.7216 12.8519 18.8315 12.6874C18.9414 12.523 19 12.3296 19 12.1318C19 11.8666 18.8946 11.6123 18.7071 11.4247C18.5196 11.2372 18.2652 11.1318 18 11.1318ZM20 5.13184H4C3.20435 5.13184 2.44129 5.44791 1.87868 6.01052C1.31607 6.57312 1 7.33619 1 8.13184V16.1318C1 16.9275 1.31607 17.6905 1.87868 18.2532C2.44129 18.8158 3.20435 19.1318 4 19.1318H20C20.7956 19.1318 21.5587 18.8158 22.1213 18.2532C22.6839 17.6905 23 16.9275 23 16.1318V8.13184C23 7.33619 22.6839 6.57312 22.1213 6.01052C21.5587 5.44791 20.7956 5.13184 20 5.13184ZM21 16.1318C21 16.3971 20.8946 16.6514 20.7071 16.8389C20.5196 17.0265 20.2652 17.1318 20 17.1318H4C3.73478 17.1318 3.48043 17.0265 3.29289 16.8389C3.10536 16.6514 3 16.3971 3 16.1318V8.13184C3 7.86662 3.10536 7.61227 3.29289 7.42473C3.48043 7.23719 3.73478 7.13184 4 7.13184H20C20.2652 7.13184 20.5196 7.23719 20.7071 7.42473C20.8946 7.61227 21 7.86662 21 8.13184V16.1318ZM12 9.13184C11.4067 9.13184 10.8266 9.30778 10.3333 9.63743C9.83994 9.96707 9.45542 10.4356 9.22836 10.9838C9.0013 11.532 8.94189 12.1352 9.05764 12.7171C9.1734 13.299 9.45912 13.8336 9.87868 14.2532C10.2982 14.6727 10.8328 14.9584 11.4147 15.0742C11.9967 15.1899 12.5999 15.1305 13.1481 14.9035C13.6962 14.6764 14.1648 14.2919 14.4944 13.7985C14.8241 13.3052 15 12.7252 15 12.1318C15 11.3362 14.6839 10.5731 14.1213 10.0105C13.5587 9.44791 12.7956 9.13184 12 9.13184ZM12 13.1318C11.8022 13.1318 11.6089 13.0732 11.4444 12.9633C11.28 12.8534 11.1518 12.6972 11.0761 12.5145C11.0004 12.3318 10.9806 12.1307 11.0192 11.9367C11.0578 11.7428 11.153 11.5646 11.2929 11.4247C11.4327 11.2849 11.6109 11.1896 11.8049 11.1511C11.9989 11.1125 12.2 11.1323 12.3827 11.208C12.5654 11.2836 12.7216 11.4118 12.8315 11.5763C12.9414 11.7407 13 11.9341 13 12.1318C13 12.3971 12.8946 12.6514 12.7071 12.8389C12.5196 13.0265 12.2652 13.1318 12 13.1318Z" fill="#20113E"/>
</svg>