<svg width="19" height="12" viewBox="0 0 19 12" fill="none" xmlns="http://www.w3.org/2000/svg">
<path d="M4.49967 5.27637C4.33486 5.27637 4.17374 5.32524 4.0367 5.41681C3.89966 5.50838 3.79285 5.63853 3.72977 5.7908C3.6667 5.94307 3.6502 6.11062 3.68235 6.27228C3.71451 6.43393 3.79387 6.58241 3.91042 6.69896C4.02696 6.8155 4.17545 6.89487 4.3371 6.92702C4.49875 6.95918 4.66631 6.94267 4.81858 6.8796C4.97085 6.81653 5.101 6.70972 5.19257 6.57268C5.28413 6.43563 5.33301 6.27452 5.33301 6.1097C5.33301 5.88869 5.24521 5.67673 5.08893 5.52044C4.93265 5.36416 4.72069 5.27637 4.49967 5.27637ZM14.4997 5.27637C14.3349 5.27637 14.1737 5.32524 14.0367 5.41681C13.8997 5.50838 13.7928 5.63853 13.7298 5.7908C13.6667 5.94307 13.6502 6.11062 13.6824 6.27228C13.7145 6.43393 13.7939 6.58241 13.9104 6.69896C14.027 6.8155 14.1754 6.89487 14.3371 6.92702C14.4987 6.95918 14.6663 6.94267 14.8186 6.8796C14.9708 6.81653 15.101 6.70972 15.1926 6.57268C15.2841 6.43563 15.333 6.27452 15.333 6.1097C15.333 5.88869 15.2452 5.67673 15.0889 5.52044C14.9326 5.36416 14.7207 5.27637 14.4997 5.27637ZM16.1663 0.276367H2.83301C2.16997 0.276367 1.53408 0.539759 1.06524 1.0086C0.5964 1.47744 0.333008 2.11333 0.333008 2.77637V9.44303C0.333008 10.1061 0.5964 10.742 1.06524 11.2108C1.53408 11.6796 2.16997 11.943 2.83301 11.943H16.1663C16.8294 11.943 17.4653 11.6796 17.9341 11.2108C18.4029 10.742 18.6663 10.1061 18.6663 9.44303V2.77637C18.6663 2.11333 18.4029 1.47744 17.9341 1.0086C17.4653 0.539759 16.8294 0.276367 16.1663 0.276367ZM16.9997 9.44303C16.9997 9.66405 16.9119 9.87601 16.7556 10.0323C16.5993 10.1886 16.3874 10.2764 16.1663 10.2764H2.83301C2.61199 10.2764 2.40003 10.1886 2.24375 10.0323C2.08747 9.87601 1.99967 9.66405 1.99967 9.44303V2.77637C1.99967 2.55535 2.08747 2.34339 2.24375 2.18711C2.40003 2.03083 2.61199 1.94303 2.83301 1.94303H16.1663C16.3874 1.94303 16.5993 2.03083 16.7556 2.18711C16.9119 2.34339 16.9997 2.55535 16.9997 2.77637V9.44303ZM9.49967 3.6097C9.00522 3.6097 8.52187 3.75632 8.11075 4.03103C7.69963 4.30573 7.37919 4.69618 7.18997 5.15299C7.00076 5.60981 6.95125 6.11247 7.04771 6.59743C7.14417 7.08238 7.38228 7.52784 7.73191 7.87747C8.08154 8.2271 8.527 8.4652 9.01195 8.56166C9.4969 8.65813 9.99957 8.60862 10.4564 8.4194C10.9132 8.23018 11.3036 7.90975 11.5783 7.49863C11.8531 7.0875 11.9997 6.60415 11.9997 6.1097C11.9997 5.44666 11.7363 4.81077 11.2674 4.34193C10.7986 3.87309 10.1627 3.6097 9.49967 3.6097ZM9.49967 6.94303C9.33486 6.94303 9.17374 6.89416 9.0367 6.80259C8.89966 6.71102 8.79285 6.58088 8.72977 6.4286C8.6667 6.27633 8.6502 6.10878 8.68235 5.94713C8.71451 5.78547 8.79387 5.63699 8.91042 5.52044C9.02696 5.4039 9.17545 5.32453 9.3371 5.29238C9.49875 5.26022 9.6663 5.27673 9.81858 5.3398C9.97085 5.40287 10.101 5.50968 10.1926 5.64672C10.2841 5.78377 10.333 5.94488 10.333 6.1097C10.333 6.33071 10.2452 6.54268 10.0889 6.69896C9.93265 6.85524 9.72069 6.94303 9.49967 6.94303Z" fill="#663FBA"/>
</svg>
