<svg width="55" height="54" viewBox="0 0 55 54" fill="none" xmlns="http://www.w3.org/2000/svg">
<path d="M23.7663 31.8002L17.9663 26.0002C17.4775 25.5113 16.8668 25.2784 16.1343 25.3015C15.4001 25.3228 14.7886 25.5779 14.2997 26.0668C13.8108 26.5557 13.5663 27.1779 13.5663 27.9335C13.5663 28.6891 13.8108 29.3113 14.2997 29.8002L21.8997 37.4002C22.3886 37.8891 23.0108 38.1335 23.7663 38.1335C24.5219 38.1335 25.1441 37.8891 25.633 37.4002L40.7663 22.2668C41.2552 21.7779 41.489 21.1664 41.4677 20.4322C41.4446 19.6997 41.1886 19.0891 40.6997 18.6002C40.2108 18.1113 39.5886 17.8668 38.833 17.8668C38.0775 17.8668 37.4552 18.1113 36.9663 18.6002L23.7663 31.8002ZM27.4997 53.6668C23.8108 53.6668 20.3441 52.9664 17.0997 51.5655C13.8552 50.1664 11.033 48.2668 8.63301 45.8668C6.23301 43.4668 4.33345 40.6446 2.93434 37.4002C1.53345 34.1557 0.833008 30.6891 0.833008 27.0002C0.833008 23.3113 1.53345 19.8446 2.93434 16.6002C4.33345 13.3557 6.23301 10.5335 8.63301 8.1335C11.033 5.7335 13.8552 3.83305 17.0997 2.43216C20.3441 1.03305 23.8108 0.333496 27.4997 0.333496C31.1886 0.333496 34.6552 1.03305 37.8997 2.43216C41.1441 3.83305 43.9663 5.7335 46.3663 8.1335C48.7663 10.5335 50.6659 13.3557 52.065 16.6002C53.4659 19.8446 54.1663 23.3113 54.1663 27.0002C54.1663 30.6891 53.4659 34.1557 52.065 37.4002C50.6659 40.6446 48.7663 43.4668 46.3663 45.8668C43.9663 48.2668 41.1441 50.1664 37.8997 51.5655C34.6552 52.9664 31.1886 53.6668 27.4997 53.6668ZM27.4997 48.3335C33.4108 48.3335 38.4446 46.2562 42.601 42.1015C46.7557 37.9451 48.833 32.9113 48.833 27.0002C48.833 21.0891 46.7557 16.0553 42.601 11.8988C38.4446 7.74416 33.4108 5.66683 27.4997 5.66683C21.5886 5.66683 16.5557 7.74416 12.401 11.8988C8.24456 16.0553 6.16634 21.0891 6.16634 27.0002C6.16634 32.9113 8.24456 37.9451 12.401 42.1015C16.5557 46.2562 21.5886 48.3335 27.4997 48.3335Z" fill="#663FBA"/>
</svg>
