<svg width="56" height="56" viewBox="0 0 56 56" fill="none" xmlns="http://www.w3.org/2000/svg">
<path d="M0 28C0 16.7643 0 11.1465 2.69649 7.11088C3.86382 5.36383 5.36383 3.86382 7.11088 2.69649C11.1465 0 16.7643 0 28 0C39.2357 0 44.8535 0 48.8891 2.69649C50.6362 3.86382 52.1362 5.36383 53.3035 7.11088C56 11.1465 56 16.7643 56 28C56 39.2357 56 44.8535 53.3035 48.8891C52.1362 50.6362 50.6362 52.1362 48.8891 53.3035C44.8535 56 39.2357 56 28 56C16.7643 56 11.1465 56 7.11088 53.3035C5.36383 52.1362 3.86382 50.6362 2.69649 48.8891C0 44.8535 0 39.2357 0 28Z" fill="#F3F2F4"/>
<path d="M35.1568 37.2013H20.8436C20.3013 37.2013 19.7812 36.9859 19.3977 36.6024C19.0143 36.219 18.7988 35.6989 18.7988 35.1566V20.8433C18.7988 20.301 19.0143 19.7809 19.3977 19.3975C19.7812 19.014 20.3013 18.7986 20.8436 18.7986H35.1568C35.6991 18.7986 36.2192 19.014 36.6027 19.3975C36.9861 19.7809 37.2016 20.301 37.2016 20.8433V35.1566C37.2016 35.6989 36.9861 36.219 36.6027 36.6024C36.2192 36.9859 35.6991 37.2013 35.1568 37.2013ZM20.8436 20.8433V35.1566H35.1568V20.8433H20.8436ZM34.1344 33.1118H21.866L24.9331 29.0223L25.9555 30.0447L29.0226 25.9552L34.1344 33.1118ZM24.4219 26.9776C24.0152 26.9776 23.6251 26.816 23.3375 26.5284C23.0499 26.2408 22.8883 25.8507 22.8883 25.444C22.8883 25.0373 23.0499 24.6472 23.3375 24.3596C23.6251 24.072 24.0152 23.9105 24.4219 23.9105C24.8286 23.9105 25.2187 24.072 25.5063 24.3596C25.7939 24.6472 25.9555 25.0373 25.9555 25.444C25.9555 25.8507 25.7939 26.2408 25.5063 26.5284C25.2187 26.816 24.8286 26.9776 24.4219 26.9776Z" fill="#0C0024"/>
</svg>
