<svg width="25" height="24" viewBox="0 0 25 24" fill="none" xmlns="http://www.w3.org/2000/svg">
<path fill-rule="evenodd" clip-rule="evenodd" d="M2.79289 4.29289C3.18342 3.90237 3.81658 3.90237 4.20711 4.29289L6.20678 6.29257C6.207 6.29279 6.20721 6.293 6.20743 6.29322L16.2066 16.2924C16.207 16.2927 16.2073 16.293 16.2076 16.2934L18.2071 18.2929C18.5976 18.6834 18.5976 19.3166 18.2071 19.7071C17.8166 20.0976 17.1834 20.0976 16.7929 19.7071L15.0858 18H5.5C4.96957 18 4.46086 17.7893 4.08579 17.4142C3.71071 17.0391 3.5 16.5304 3.5 16V8C3.5 7.56819 3.63964 7.15077 3.89392 6.80813L2.79289 5.70711C2.40237 5.31658 2.40237 4.68342 2.79289 4.29289ZM5.5 8.41421V16H13.0858L5.5 8.41421ZM20.9472 6.10557C21.286 6.27496 21.5 6.62123 21.5 7V17C21.5 17.3788 21.286 17.725 20.9472 17.8944C20.6084 18.0638 20.203 18.0273 19.9 17.8L16.3 15.1C16.0516 14.9137 15.85 14.6721 15.7111 14.3944C15.5723 14.1167 15.5 13.8105 15.5 13.5V10.0117C15.4999 10.0044 15.4999 9.99713 15.5 9.98987V8H9.5C8.94772 8 8.5 7.55228 8.5 7C8.5 6.44772 8.94772 6 9.5 6H15.5C16.0304 6 16.5391 6.21071 16.9142 6.58579C17.2893 6.96086 17.5 7.46957 17.5 8L19.9 6.2C20.203 5.97274 20.6084 5.93618 20.9472 6.10557ZM17.5 10.5V13.5L19.5 15V9L17.5 10.5Z" fill="#C92E4A"/>
</svg>
