<svg width="69" height="10" viewBox="0 0 69 10" fill="none" xmlns="http://www.w3.org/2000/svg">
<path fill-rule="evenodd" clip-rule="evenodd" d="M8.99148 9.77737H7.60212V0H8.99148V3.6704C9.19587 3.39685 9.46465 3.17801 9.77394 3.0333C10.0832 2.8886 10.4235 2.82252 10.7645 2.84093C11.1 2.81324 11.4376 2.85985 11.7531 2.97743C12.0686 3.09502 12.3543 3.28069 12.5899 3.52124C12.8255 3.76179 13.0052 4.05131 13.1162 4.36919C13.2272 4.68708 13.2668 5.02553 13.2321 5.36045V9.77737H11.822V5.5056C11.8388 5.31096 11.8149 5.11497 11.7519 4.93004C11.6889 4.74512 11.5881 4.57531 11.4561 4.43138C11.324 4.28744 11.1634 4.17252 10.9846 4.09391C10.8057 4.0153 10.6125 3.9747 10.4171 3.9747C10.2218 3.9747 10.0285 4.0153 9.8497 4.09391C9.67086 4.17252 9.5103 4.28744 9.37821 4.43138C9.24612 4.57531 9.14538 4.74512 9.08238 4.93004C9.01937 5.11497 8.99548 5.31096 9.01222 5.5056L8.99148 9.77737ZM5.45571 5.05975C5.25623 4.75146 4.98063 4.49981 4.65553 4.32909C4.33044 4.15836 3.96681 4.07434 3.59977 4.08512C3.30256 4.08445 3.00839 4.14493 2.73555 4.2628C2.46271 4.38066 2.21703 4.55339 2.01378 4.77025C1.81054 4.9871 1.65408 5.24345 1.55413 5.52335C1.45418 5.80325 1.41287 6.10072 1.43278 6.39727C1.40368 6.88589 1.53851 7.37026 1.81589 7.77357C2.09328 8.17688 2.49735 8.47607 2.96405 8.6237C3.43075 8.77133 3.93338 8.75896 4.39225 8.58854C4.85112 8.41813 5.23998 8.09942 5.49718 7.68294L6.33702 8.53315C6.04004 8.98615 5.63339 9.35675 5.15484 9.61052C4.6763 9.8643 4.14138 9.99301 3.59977 9.98472C3.12352 10.0021 2.64879 9.92121 2.20513 9.74719C1.76146 9.57318 1.35835 9.30973 1.02088 8.97323C0.683411 8.63673 0.418797 8.23438 0.243502 7.79122C0.0682084 7.34806 -0.0140146 6.87357 0.00194944 6.39727C-0.00817108 5.92394 0.0782887 5.45352 0.25605 5.01473C0.433812 4.57594 0.699145 4.17798 1.03585 3.84516C1.37255 3.51234 1.77356 3.25164 2.21438 3.07897C2.65521 2.90631 3.1266 2.82531 3.59977 2.84092C4.12916 2.82768 4.65369 2.94461 5.12734 3.18143C5.60098 3.41825 6.00924 3.76772 6.31628 4.19917L5.45571 5.05975ZM19.4323 3.13008C19.008 2.90874 18.5308 2.80873 18.0532 2.84104C17.5893 2.83338 17.1288 2.92102 16.7001 3.09853C16.2715 3.27603 15.8838 3.53963 15.5611 3.873C15.2384 4.20637 14.9876 4.60242 14.8242 5.03663C14.6607 5.47085 14.5881 5.93399 14.6109 6.39739C14.5746 6.86241 14.6361 7.32988 14.7915 7.76967C14.9469 8.20946 15.1927 8.61181 15.5131 8.95078C15.8335 9.28975 16.2214 9.55782 16.6518 9.73771C17.0821 9.9176 17.5454 10.0053 18.0117 9.99521C18.5105 10.0255 19.0074 9.91159 19.4432 9.66706C19.8789 9.42252 20.235 9.05772 20.469 8.61622V9.30053V9.77747H21.7443V3.05877H20.4587V3.43203V4.09561C20.2119 3.68551 19.8567 3.35142 19.4323 3.13008ZM20.2749 5.51103C20.3758 5.79503 20.4171 6.09673 20.3965 6.39739C20.4171 6.69804 20.3758 6.99974 20.2749 7.28374C20.1741 7.56774 20.0159 7.82797 19.8103 8.04826C19.6046 8.26855 19.3559 8.4442 19.0795 8.56429C18.8031 8.68438 18.5049 8.74636 18.2035 8.74636C17.9022 8.74636 17.604 8.68438 17.3276 8.56429C17.0512 8.4442 16.8025 8.26855 16.5968 8.04826C16.3911 7.82797 16.233 7.56774 16.1321 7.28374C16.0313 6.99974 15.99 6.69804 16.0106 6.39739C15.99 6.09673 16.0313 5.79503 16.1321 5.51103C16.233 5.22703 16.3911 4.96681 16.5968 4.74651C16.8025 4.52622 17.0512 4.35057 17.3276 4.23048C17.604 4.11039 17.9022 4.04842 18.2035 4.04842C18.5049 4.04842 18.8031 4.11039 19.0795 4.23048C19.3559 4.35057 19.6046 4.52622 19.8103 4.74651C20.0159 4.96681 20.1741 5.22703 20.2749 5.51103ZM32.8384 9.77738H31.4698V5.36045C31.4698 5.02497 31.3365 4.70323 31.0993 4.466C30.862 4.22878 30.5403 4.09551 30.2048 4.09551C29.8693 4.09551 29.5476 4.22878 29.3104 4.466C29.0732 4.70323 28.9399 5.02497 28.9399 5.36045V9.76701H27.5298V5.36045C27.5298 5.02772 27.3976 4.70861 27.1623 4.47334C26.9271 4.23806 26.6079 4.10588 26.2752 4.10588C25.9425 4.10588 25.6234 4.23806 25.3881 4.47334C25.1528 4.70861 25.0206 5.02772 25.0206 5.36045V9.76701H23.6105V5.36045C23.6059 5.01624 23.6718 4.67473 23.8042 4.35698C23.9367 4.03923 24.1328 3.75199 24.3805 3.51299C24.6283 3.27398 24.9224 3.08828 25.2447 2.96735C25.567 2.84641 25.9107 2.7928 26.2545 2.80983C26.6451 2.79493 27.0332 2.87711 27.3843 3.04901C27.7353 3.2209 28.0382 3.47716 28.2659 3.79483C28.4939 3.47998 28.7955 3.22565 29.1442 3.05397C29.493 2.88229 29.8785 2.79848 30.267 2.80983C30.6068 2.79534 30.9459 2.85124 31.2631 2.97402C31.5802 3.0968 31.8686 3.28381 32.11 3.52331C32.3515 3.76281 32.5408 4.04963 32.6661 4.36578C32.7915 4.68193 32.8501 5.02057 32.8384 5.36045V9.77738ZM36.4441 9.75051C36.8865 9.92634 37.3603 10.0096 37.8363 9.99518C38.3617 10.0024 38.8812 9.88264 39.3505 9.64618C39.8198 9.40972 40.2251 9.0635 40.532 8.63693L39.7129 7.79709C39.4918 8.09402 39.2014 8.33239 38.8671 8.49141C38.5328 8.65044 38.1647 8.72531 37.7948 8.70951C37.2885 8.7138 36.7981 8.53271 36.4161 8.20038C36.0341 7.86804 35.7869 7.40744 35.7211 6.90541H41.1334C41.1445 6.73624 41.1445 6.56653 41.1334 6.39736C41.1693 5.93948 41.1097 5.47913 40.9585 5.04546C40.8072 4.6118 40.5676 4.21425 40.2547 3.878C39.9419 3.54176 39.5626 3.27412 39.1409 3.09205C38.7193 2.90998 38.2644 2.81743 37.8051 2.82027C37.3324 2.80576 36.8618 2.88851 36.4223 3.06341C35.9829 3.23831 35.5841 3.50162 35.2507 3.83702C34.9172 4.17241 34.6562 4.57273 34.4839 5.01316C34.3116 5.45359 34.2315 5.92473 34.2488 6.39736C34.233 6.87322 34.3149 7.34727 34.4895 7.79024C34.664 8.23321 34.9275 8.6357 35.2637 8.97285C35.5999 9.31001 36.0016 9.57467 36.4441 9.75051ZM39.7648 5.91005H35.7626H35.7211C35.7828 5.39885 36.0324 4.92888 36.4214 4.59158C36.8105 4.25428 37.3111 4.07379 37.8259 4.08521C38.3232 4.07664 38.8041 4.2626 39.1663 4.60346C39.5285 4.94433 39.7432 5.41316 39.7648 5.91005ZM42.4707 7.43412V0H43.8808V7.25786C43.8625 7.4371 43.8847 7.61818 43.9457 7.7877C44.0067 7.95723 44.1051 8.11087 44.2335 8.23728C44.3619 8.36369 44.5171 8.45963 44.6875 8.51803C44.858 8.57642 45.0394 8.59577 45.2183 8.57464C45.3598 8.58541 45.5019 8.58541 45.6434 8.57464V9.80847C45.4281 9.87238 45.2044 9.90383 44.9798 9.90179C44.6438 9.94462 44.3023 9.91064 43.9813 9.80241C43.6602 9.69418 43.3679 9.51451 43.1263 9.27695C42.8848 9.03938 42.7003 8.7501 42.5867 8.43089C42.4731 8.11169 42.4335 7.77087 42.4707 7.43412ZM48.3172 9.75045C48.7592 9.9264 49.2325 10.0097 49.708 9.99518C50.2437 10.0116 50.7753 9.89642 51.2562 9.65962C51.737 9.42281 52.1524 9.07165 52.466 8.63693L51.6365 7.79709C51.4176 8.09387 51.1292 8.3323 50.7965 8.49141C50.4638 8.65051 50.0971 8.72541 49.7287 8.70951C49.2136 8.72673 48.7105 8.55149 48.3175 8.21795C47.9246 7.88442 47.6699 7.4165 47.6032 6.90541H52.9948C53.011 6.73645 53.011 6.56632 52.9948 6.39736C53.0321 5.94089 52.9742 5.48164 52.8248 5.0487C52.6754 4.61576 52.4377 4.21858 52.1267 3.8823C51.8158 3.54603 51.4384 3.27799 51.0185 3.09518C50.5986 2.91236 50.1452 2.81875 49.6873 2.82027C49.2145 2.80576 48.7439 2.88851 48.3044 3.06341C47.865 3.23831 47.4662 3.50162 47.1328 3.83702C46.7993 4.17241 46.5383 4.57273 46.366 5.01316C46.1937 5.45359 46.1136 5.92473 46.1309 6.39736C46.1136 6.87271 46.1942 7.34655 46.3676 7.78949C46.541 8.23243 46.8035 8.63504 47.1389 8.97235C47.4742 9.30967 47.8753 9.57451 48.3172 9.75045ZM51.6054 5.91005H47.6343H47.6032C47.6504 5.40231 47.8886 4.93144 48.2697 4.59267C48.6508 4.2539 49.1464 4.07252 49.6561 4.08521C50.1552 4.0739 50.6388 4.25863 51.0032 4.59978C51.3676 4.94094 51.5838 5.41133 51.6054 5.91005ZM53.9069 6.39734C53.9562 5.48059 54.3552 4.61764 55.0216 3.98615C55.688 3.35465 56.5711 3.00267 57.4892 3.00267C58.4072 3.00267 59.2904 3.35465 59.9568 3.98615C60.6232 4.61764 61.0221 5.48059 61.0714 6.39734C61.0221 7.31409 60.6232 8.17703 59.9568 8.80853C59.2904 9.44002 58.4072 9.792 57.4892 9.792C56.5711 9.792 55.688 9.44002 55.0216 8.80853C54.3552 8.17703 53.9562 7.31409 53.9069 6.39734ZM59.6302 6.39734C59.6507 6.10225 59.6103 5.80609 59.5115 5.52729C59.4126 5.24849 59.2575 4.99301 59.0557 4.77672C58.8539 4.56043 58.6098 4.38796 58.3385 4.27004C58.0672 4.15212 57.7746 4.09127 57.4788 4.09127C57.183 4.09127 56.8904 4.15212 56.6191 4.27004C56.3478 4.38796 56.1037 4.56043 55.9019 4.77672C55.7001 4.99301 55.545 5.24849 55.4461 5.52729C55.3473 5.80609 55.3069 6.10225 55.3274 6.39734C55.3069 6.69243 55.3473 6.98858 55.4461 7.26738C55.545 7.54618 55.7001 7.80167 55.9019 8.01796C56.1037 8.23425 56.3478 8.40671 56.6191 8.52463C56.8904 8.64255 57.183 8.7034 57.4788 8.7034C57.7746 8.7034 58.0672 8.64255 58.3385 8.52463C58.6098 8.40671 58.8539 8.23425 59.0557 8.01796C59.2575 7.80167 59.4126 7.54618 59.5115 7.26738C59.6103 6.98858 59.6507 6.69243 59.6302 6.39734ZM66.3253 2.98275C65.9773 2.86029 65.6076 2.812 65.2398 2.841C64.8792 2.81359 64.5168 2.86163 64.1758 2.98206C63.8349 3.10249 63.5227 3.29266 63.2593 3.54045C62.9959 3.78824 62.787 4.08821 62.646 4.42122C62.505 4.75423 62.435 5.11297 62.4403 5.47457V9.77744H63.8401V5.50567C63.8233 5.31103 63.8472 5.11504 63.9102 4.93012C63.9732 4.74519 64.074 4.57538 64.206 4.43145C64.3381 4.28751 64.4987 4.17259 64.6775 4.09398C64.8564 4.01537 65.0496 3.97477 65.245 3.97477C65.4403 3.97477 65.6336 4.01537 65.8124 4.09398C65.9912 4.17259 66.1518 4.28751 66.2839 4.43145C66.416 4.57538 66.5167 4.74519 66.5797 4.93012C66.6427 5.11504 66.6666 5.31103 66.6499 5.50567V9.77744H68.0911V5.52641C68.098 5.15757 68.0277 4.79137 67.8846 4.45134C67.7415 4.11131 67.5289 3.80498 67.2603 3.55206C66.9918 3.29913 66.6733 3.10521 66.3253 2.98275Z" fill="#161617"/>
</svg>
