<svg width="100" height="20" viewBox="0 0 100 20" fill="none" xmlns="http://www.w3.org/2000/svg">
<path fill-rule="evenodd" clip-rule="evenodd" d="M11.1181 0H8.86168V6.8H11.1181V0ZM6.92748 11.4702L2.1264 16.2713L3.72193 17.8668L8.523 13.0657L6.92748 11.4702ZM2.11438 3.72033L3.70991 2.12481L8.51098 6.92588L6.91546 8.5214L2.11438 3.72033ZM16.2609 2.13753L11.4598 6.9386L13.0554 8.53413L17.8564 3.73305L16.2609 2.13753ZM11.4643 13.0609L13.0599 11.4654L17.8609 16.2665L16.2654 17.862L11.4643 13.0609ZM11.1181 13.2H8.86168V20H11.1181V13.2ZM0 8.87182H6.78974V11.1282H0V8.87182Z" fill="#161617"/>
<path fill-rule="evenodd" clip-rule="evenodd" d="M33.9915 14.7774H32.6021V5H33.9915V8.6704C34.1959 8.39685 34.4646 8.17801 34.7739 8.0333C35.0832 7.8886 35.4235 7.82252 35.7645 7.84093C36.1 7.81324 36.4376 7.85985 36.7531 7.97743C37.0686 8.09502 37.3543 8.28069 37.5899 8.52124C37.8255 8.76179 38.0052 9.05131 38.1162 9.36919C38.2272 9.68708 38.2668 10.0255 38.2321 10.3604V14.7774H36.822V10.5056C36.8388 10.311 36.8149 10.115 36.7519 9.93004C36.6889 9.74512 36.5881 9.57531 36.4561 9.43138C36.324 9.28744 36.1634 9.17252 35.9846 9.09391C35.8057 9.0153 35.6125 8.9747 35.4171 8.9747C35.2218 8.9747 35.0285 9.0153 34.8497 9.09391C34.6709 9.17252 34.5103 9.28744 34.3782 9.43138C34.2461 9.57531 34.1454 9.74512 34.0824 9.93004C34.0194 10.115 33.9955 10.311 34.0122 10.5056L33.9915 14.7774ZM30.4557 10.0597C30.2562 9.75146 29.9806 9.49981 29.6555 9.32909C29.3304 9.15836 28.9668 9.07434 28.5998 9.08512C28.3026 9.08445 28.0084 9.14493 27.7355 9.2628C27.4627 9.38066 27.217 9.55339 27.0138 9.77025C26.8105 9.9871 26.6541 10.2435 26.5541 10.5234C26.4542 10.8033 26.4129 11.1007 26.4328 11.3973C26.4037 11.8859 26.5385 12.3703 26.8159 12.7736C27.0933 13.1769 27.4973 13.4761 27.964 13.6237C28.4308 13.7713 28.9334 13.759 29.3922 13.5885C29.8511 13.4181 30.24 13.0994 30.4972 12.6829L31.337 13.5331C31.04 13.9861 30.6334 14.3567 30.1548 14.6105C29.6763 14.8643 29.1414 14.993 28.5998 14.9847C28.1235 15.0021 27.6488 14.9212 27.2051 14.7472C26.7615 14.5732 26.3584 14.3097 26.0209 13.9732C25.6834 13.6367 25.4188 13.2344 25.2435 12.7912C25.0682 12.3481 24.986 11.8736 25.0019 11.3973C24.9918 10.9239 25.0783 10.4535 25.2561 10.0147C25.4338 9.57594 25.6991 9.17798 26.0358 8.84516C26.3725 8.51234 26.7736 8.25164 27.2144 8.07897C27.6552 7.90631 28.1266 7.82531 28.5998 7.84092C29.1292 7.82768 29.6537 7.94461 30.1273 8.18143C30.601 8.41825 31.0092 8.76772 31.3163 9.19917L30.4557 10.0597ZM44.4323 8.13008C44.008 7.90874 43.5308 7.80873 43.0532 7.84104C42.5893 7.83338 42.1288 7.92102 41.7001 8.09853C41.2715 8.27603 40.8838 8.53963 40.5611 8.873C40.2384 9.20637 39.9876 9.60242 39.8242 10.0366C39.6607 10.4708 39.5881 10.934 39.6109 11.3974C39.5746 11.8624 39.6361 12.3299 39.7915 12.7697C39.9469 13.2095 40.1927 13.6118 40.5131 13.9508C40.8335 14.2897 41.2214 14.5578 41.6518 14.7377C42.0821 14.9176 42.5454 15.0053 43.0117 14.9952C43.5105 15.0255 44.0074 14.9116 44.4432 14.6671C44.8789 14.4225 45.235 14.0577 45.469 13.6162V14.3005V14.7775H46.7443V8.05877H45.4587V8.43203V9.09561C45.2119 8.68551 44.8567 8.35142 44.4323 8.13008ZM45.2749 10.511C45.3758 10.795 45.4171 11.0967 45.3965 11.3974C45.4171 11.698 45.3758 11.9997 45.2749 12.2837C45.1741 12.5677 45.0159 12.828 44.8103 13.0483C44.6046 13.2685 44.3559 13.4442 44.0795 13.5643C43.8031 13.6844 43.5049 13.7464 43.2035 13.7464C42.9022 13.7464 42.604 13.6844 42.3276 13.5643C42.0512 13.4442 41.8025 13.2685 41.5968 13.0483C41.3911 12.828 41.233 12.5677 41.1321 12.2837C41.0313 11.9997 40.99 11.698 41.0106 11.3974C40.99 11.0967 41.0313 10.795 41.1321 10.511C41.233 10.227 41.3911 9.96681 41.5968 9.74651C41.8025 9.52622 42.0512 9.35057 42.3276 9.23048C42.604 9.11039 42.9022 9.04842 43.2035 9.04842C43.5049 9.04842 43.8031 9.11039 44.0795 9.23048C44.3559 9.35057 44.6046 9.52622 44.8103 9.74651C45.0159 9.96681 45.1741 10.227 45.2749 10.511ZM57.8384 14.7774H56.4698V10.3605C56.4698 10.025 56.3365 9.70323 56.0993 9.466C55.862 9.22878 55.5403 9.09551 55.2048 9.09551C54.8693 9.09551 54.5476 9.22878 54.3104 9.466C54.0732 9.70323 53.9399 10.025 53.9399 10.3605V14.767H52.5298V10.3605C52.5298 10.0277 52.3976 9.70861 52.1623 9.47334C51.9271 9.23806 51.6079 9.10588 51.2752 9.10588C50.9425 9.10588 50.6234 9.23806 50.3881 9.47334C50.1528 9.70861 50.0206 10.0277 50.0206 10.3605V14.767H48.6105V10.3605C48.6059 10.0162 48.6718 9.67473 48.8042 9.35698C48.9367 9.03923 49.1328 8.75199 49.3805 8.51299C49.6283 8.27398 49.9224 8.08828 50.2447 7.96735C50.567 7.84641 50.9107 7.7928 51.2545 7.80983C51.6451 7.79493 52.0332 7.87711 52.3843 8.04901C52.7353 8.2209 53.0382 8.47716 53.2659 8.79483C53.4939 8.47998 53.7955 8.22565 54.1442 8.05397C54.493 7.88229 54.8785 7.79848 55.267 7.80983C55.6068 7.79534 55.9459 7.85124 56.2631 7.97402C56.5802 8.0968 56.8686 8.28381 57.11 8.52331C57.3515 8.76281 57.5408 9.04963 57.6661 9.36578C57.7915 9.68193 57.8501 10.0206 57.8384 10.3605V14.7774ZM61.4441 14.7505C61.8865 14.9263 62.3603 15.0096 62.8363 14.9952C63.3617 15.0024 63.8812 14.8826 64.3505 14.6462C64.8198 14.4097 65.2251 14.0635 65.532 13.6369L64.7129 12.7971C64.4918 13.094 64.2014 13.3324 63.8671 13.4914C63.5328 13.6504 63.1647 13.7253 62.7948 13.7095C62.2885 13.7138 61.7981 13.5327 61.4161 13.2004C61.0341 12.868 60.7869 12.4074 60.7211 11.9054H66.1334C66.1445 11.7362 66.1445 11.5665 66.1334 11.3974C66.1693 10.9395 66.1097 10.4791 65.9585 10.0455C65.8072 9.6118 65.5676 9.21425 65.2547 8.878C64.9419 8.54176 64.5626 8.27412 64.1409 8.09205C63.7193 7.90998 63.2644 7.81743 62.8051 7.82027C62.3324 7.80576 61.8618 7.88851 61.4223 8.06341C60.9829 8.23831 60.5841 8.50162 60.2507 8.83702C59.9172 9.17241 59.6562 9.57273 59.4839 10.0132C59.3116 10.4536 59.2315 10.9247 59.2488 11.3974C59.233 11.8732 59.3149 12.3473 59.4895 12.7902C59.664 13.2332 59.9275 13.6357 60.2637 13.9729C60.5999 14.31 61.0016 14.5747 61.4441 14.7505ZM64.7648 10.91H60.7626H60.7211C60.7828 10.3988 61.0324 9.92888 61.4214 9.59158C61.8105 9.25428 62.3111 9.07379 62.8259 9.08521C63.3232 9.07664 63.8041 9.2626 64.1663 9.60346C64.5285 9.94433 64.7432 10.4132 64.7648 10.91ZM67.4707 12.4341V5H68.8808V12.2579C68.8625 12.4371 68.8847 12.6182 68.9457 12.7877C69.0067 12.9572 69.1051 13.1109 69.2335 13.2373C69.3619 13.3637 69.5171 13.4596 69.6875 13.518C69.858 13.5764 70.0394 13.5958 70.2183 13.5746C70.3598 13.5854 70.5019 13.5854 70.6434 13.5746V14.8085C70.4281 14.8724 70.2044 14.9038 69.9798 14.9018C69.6438 14.9446 69.3023 14.9106 68.9813 14.8024C68.6602 14.6942 68.3679 14.5145 68.1263 14.2769C67.8848 14.0394 67.7003 13.7501 67.5867 13.4309C67.4731 13.1117 67.4335 12.7709 67.4707 12.4341ZM73.3172 14.7505C73.7592 14.9264 74.2325 15.0097 74.708 14.9952C75.2437 15.0116 75.7753 14.8964 76.2562 14.6596C76.737 14.4228 77.1524 14.0716 77.466 13.6369L76.6365 12.7971C76.4176 13.0939 76.1292 13.3323 75.7965 13.4914C75.4638 13.6505 75.0971 13.7254 74.7287 13.7095C74.2136 13.7267 73.7105 13.5515 73.3175 13.218C72.9246 12.8844 72.6699 12.4165 72.6032 11.9054H77.9948C78.011 11.7364 78.011 11.5663 77.9948 11.3974C78.0321 10.9409 77.9742 10.4816 77.8248 10.0487C77.6754 9.61576 77.4377 9.21858 77.1267 8.8823C76.8158 8.54603 76.4384 8.27799 76.0185 8.09518C75.5986 7.91236 75.1452 7.81875 74.6873 7.82027C74.2145 7.80576 73.7439 7.88851 73.3044 8.06341C72.865 8.23831 72.4662 8.50162 72.1328 8.83702C71.7993 9.17241 71.5383 9.57273 71.366 10.0132C71.1937 10.4536 71.1136 10.9247 71.1309 11.3974C71.1136 11.8727 71.1942 12.3465 71.3676 12.7895C71.541 13.2324 71.8035 13.635 72.1389 13.9724C72.4742 14.3097 72.8753 14.5745 73.3172 14.7505ZM76.6054 10.91H72.6343H72.6032C72.6504 10.4023 72.8886 9.93144 73.2697 9.59267C73.6508 9.2539 74.1464 9.07252 74.6561 9.08521C75.1552 9.0739 75.6388 9.25863 76.0032 9.59978C76.3676 9.94094 76.5838 10.4113 76.6054 10.91ZM78.9069 11.3973C78.9562 10.4806 79.3552 9.61764 80.0216 8.98615C80.688 8.35465 81.5711 8.00267 82.4892 8.00267C83.4072 8.00267 84.2904 8.35465 84.9568 8.98615C85.6232 9.61764 86.0221 10.4806 86.0714 11.3973C86.0221 12.3141 85.6232 13.177 84.9568 13.8085C84.2904 14.44 83.4072 14.792 82.4892 14.792C81.5711 14.792 80.688 14.44 80.0216 13.8085C79.3552 13.177 78.9562 12.3141 78.9069 11.3973ZM84.6302 11.3973C84.6507 11.1022 84.6103 10.8061 84.5115 10.5273C84.4126 10.2485 84.2575 9.99301 84.0557 9.77672C83.8539 9.56043 83.6098 9.38796 83.3385 9.27004C83.0672 9.15212 82.7746 9.09127 82.4788 9.09127C82.183 9.09127 81.8904 9.15212 81.6191 9.27004C81.3478 9.38796 81.1037 9.56043 80.9019 9.77672C80.7001 9.99301 80.545 10.2485 80.4461 10.5273C80.3473 10.8061 80.3069 11.1022 80.3274 11.3973C80.3069 11.6924 80.3473 11.9886 80.4461 12.2674C80.545 12.5462 80.7001 12.8017 80.9019 13.018C81.1037 13.2342 81.3478 13.4067 81.6191 13.5246C81.8904 13.6425 82.183 13.7034 82.4788 13.7034C82.7746 13.7034 83.0672 13.6425 83.3385 13.5246C83.6098 13.4067 83.8539 13.2342 84.0557 13.018C84.2575 12.8017 84.4126 12.5462 84.5115 12.2674C84.6103 11.9886 84.6507 11.6924 84.6302 11.3973ZM91.3253 7.98275C90.9773 7.86029 90.6076 7.812 90.2398 7.841C89.8792 7.81359 89.5168 7.86163 89.1758 7.98206C88.8349 8.10249 88.5227 8.29266 88.2593 8.54045C87.9959 8.78824 87.787 9.08821 87.646 9.42122C87.505 9.75423 87.435 10.113 87.4403 10.4746V14.7774H88.8401V10.5057C88.8233 10.311 88.8472 10.115 88.9102 9.93012C88.9732 9.74519 89.074 9.57538 89.206 9.43145C89.3381 9.28751 89.4987 9.17259 89.6775 9.09398C89.8564 9.01537 90.0496 8.97477 90.245 8.97477C90.4403 8.97477 90.6336 9.01537 90.8124 9.09398C90.9912 9.17259 91.1518 9.28751 91.2839 9.43145C91.416 9.57538 91.5167 9.74519 91.5797 9.93012C91.6427 10.115 91.6666 10.311 91.6499 10.5057V14.7774H93.0911V10.5264C93.098 10.1576 93.0277 9.79137 92.8846 9.45134C92.7415 9.11131 92.5289 8.80498 92.2603 8.55206C91.9918 8.29913 91.6733 8.10521 91.3253 7.98275Z" fill="#161617"/>
</svg>
