<svg width="20" height="20" viewBox="0 0 20 20" fill="none" xmlns="http://www.w3.org/2000/svg">
<path fill-rule="evenodd" clip-rule="evenodd" d="M11.1181 0H8.86168V6.8H11.1181V0ZM6.92748 11.4702L2.1264 16.2713L3.72193 17.8668L8.523 13.0657L6.92748 11.4702ZM2.11438 3.72033L3.70991 2.12481L8.51098 6.92588L6.91546 8.5214L2.11438 3.72033ZM16.2609 2.13753L11.4598 6.9386L13.0554 8.53413L17.8564 3.73305L16.2609 2.13753ZM11.4643 13.0609L13.0599 11.4654L17.8609 16.2665L16.2654 17.862L11.4643 13.0609ZM11.1181 13.2H8.86168V20H11.1181V13.2ZM0 8.87182H6.78974V11.1282H0V8.87182Z" fill="#161617"/>
</svg>
