<svg width="69" height="11" viewBox="0 0 69 11" fill="none" xmlns="http://www.w3.org/2000/svg">
<path fill-rule="evenodd" clip-rule="evenodd" d="M0.706717 4.02074H0V5.22932H0.706717V10.6577H2.09967V5.22932H3.68722V4.02074H2.10991V3.39596C2.08563 3.22934 2.0997 3.05938 2.15106 2.89902C2.20242 2.73867 2.28971 2.59215 2.40628 2.47065C2.52284 2.34914 2.66561 2.25585 2.8237 2.19789C2.98178 2.13992 3.15101 2.11881 3.3185 2.13616C3.50485 2.13004 3.69111 2.15074 3.87158 2.19761V0.999265C3.61368 0.934019 3.34894 0.899637 3.08292 0.896843C2.75997 0.854565 2.43161 0.887266 2.12334 0.992407C1.81506 1.09755 1.53515 1.2723 1.30533 1.50311C1.07552 1.73392 0.901968 2.01458 0.798153 2.3233C0.694339 2.63203 0.663051 2.96052 0.706717 3.28329V4.02074ZM8.93977 4.09712C8.52064 3.88033 8.04993 3.78308 7.5792 3.81602C7.12477 3.81533 6.67497 3.90741 6.25737 4.08662C5.83976 4.26583 5.46313 4.52839 5.15054 4.85824C4.83795 5.18809 4.59598 5.57828 4.43945 6.0049C4.28292 6.43153 4.21513 6.88562 4.24022 7.33936C4.20743 7.79621 4.27016 8.25488 4.42441 8.68614C4.57865 9.11741 4.82104 9.51182 5.13612 9.84424C5.4512 10.1767 5.83207 10.4398 6.25446 10.6169C6.67685 10.794 7.1315 10.8812 7.58945 10.8729C8.08087 10.9026 8.5705 10.791 9.0006 10.5515C9.4307 10.3119 9.78332 9.95436 10.0169 9.52097V10.1867V10.6579H11.2255V4.02087H9.95541V4.38959V5.0451C9.71028 4.64188 9.3589 4.31391 8.93977 4.09712ZM9.79441 6.45355C9.89402 6.73409 9.93488 7.03212 9.91444 7.32912C9.93488 7.62612 9.89402 7.92415 9.79441 8.2047C9.6948 8.48524 9.53856 8.7423 9.3354 8.95992C9.13225 9.17753 8.88652 9.35104 8.61347 9.46967C8.34043 9.58831 8.0459 9.64952 7.7482 9.64952C7.4505 9.64952 7.15598 9.58831 6.88293 9.46967C6.60989 9.35104 6.36415 9.17753 6.161 8.95992C5.95784 8.7423 5.8016 8.48524 5.70199 8.2047C5.60238 7.92415 5.56152 7.62612 5.58196 7.32912C5.56152 7.03212 5.60238 6.73409 5.70199 6.45355C5.8016 6.173 5.95784 5.91594 6.161 5.69833C6.36415 5.48071 6.60989 5.3072 6.88293 5.18857C7.15598 5.06994 7.4505 5.00872 7.7482 5.00872C8.0459 5.00872 8.34043 5.06994 8.61347 5.18857C8.88652 5.3072 9.13225 5.48071 9.3354 5.69833C9.53856 5.91594 9.6948 6.173 9.79441 6.45355ZM15.0151 6.58143L15.8652 6.99112C16.2713 7.12103 16.6266 7.3744 16.8818 7.71588C17.137 8.05737 17.2793 8.46997 17.2889 8.89618C17.2889 10.0433 16.3876 10.8729 14.9332 10.8729C14.3955 10.9117 13.8613 10.7608 13.4234 10.4464C12.9855 10.132 12.6717 9.67408 12.5365 9.15224L13.5607 8.55818C13.6165 8.87826 13.784 9.16818 14.0334 9.37636C14.2829 9.58453 14.5981 9.69747 14.9229 9.69508C15.476 9.69508 15.8652 9.40829 15.8652 8.88594C15.8652 8.38732 15.6319 8.28067 15.0673 8.02257L14.9844 7.98462L14.2265 7.62614C13.8117 7.49811 13.4483 7.24163 13.1888 6.89371C12.9292 6.54579 12.7869 6.1244 12.7823 5.69035C12.8268 5.15962 13.0763 4.66709 13.4778 4.31718C13.8793 3.96728 14.4014 3.78752 14.9332 3.81601C15.433 3.77942 15.9314 3.90387 16.3553 4.17113C16.7792 4.43839 17.1064 4.83441 17.2889 5.30114L16.2647 5.87471C16.1672 5.62052 15.9964 5.40104 15.7739 5.2442C15.5514 5.08735 15.2873 5.00022 15.0151 4.99387C14.4928 4.99387 14.1343 5.28066 14.1343 5.72108C14.1343 6.16149 14.3903 6.29464 15.0151 6.58143ZM18.9278 5.28119V8.35387C18.8899 8.68271 18.9269 9.01588 19.0362 9.32835C19.1454 9.64083 19.324 9.9245 19.5586 10.1581C19.7932 10.3917 20.0776 10.5691 20.3905 10.677C20.7034 10.7849 21.0368 10.8206 21.3654 10.7813C21.6102 10.7886 21.854 10.7468 22.0824 10.6584V9.43955C21.9226 9.50235 21.7522 9.53365 21.5805 9.53173C21.4069 9.5506 21.2312 9.52957 21.0669 9.47024C20.9027 9.41091 20.7541 9.31484 20.6326 9.18938C20.5111 9.06391 20.4198 8.91235 20.3658 8.74625C20.3117 8.58016 20.2963 8.40391 20.3207 8.23096V5.22998H22.2463V4.02139H20.3207V2.29045H18.9278V4.02139H18.2108V5.28119H18.9278ZM26.4046 10.8726C25.9368 10.8868 25.4709 10.8051 25.0358 10.6326C24.6007 10.46 24.2054 10.2002 23.8744 9.86925C23.5434 9.53826 23.2837 9.14304 23.1111 8.70791C22.9386 8.27277 22.8569 7.80694 22.8711 7.33906C22.8537 6.87084 22.9334 6.4041 23.105 5.96812C23.2766 5.53213 23.5364 5.13631 23.8682 4.80549C24.2 4.47467 24.5965 4.21598 25.033 4.04566C25.4695 3.87533 25.9365 3.79705 26.4046 3.81572C26.8561 3.81433 27.303 3.90653 27.7171 4.0865C28.1311 4.26647 28.5034 4.5303 28.8104 4.86136C29.1174 5.19241 29.3525 5.5835 29.5007 6.00995C29.649 6.4364 29.7073 6.88895 29.6719 7.33906C29.688 7.50596 29.688 7.67402 29.6719 7.84093H24.3562C24.4221 8.3458 24.6737 8.80803 25.0618 9.13751C25.45 9.46699 25.947 9.64009 26.4558 9.62308C26.8198 9.63879 27.182 9.5648 27.5106 9.40763C27.8393 9.25047 28.1242 9.01493 28.3404 8.72176L29.1598 9.55138C28.8449 9.98147 28.4286 10.3271 27.948 10.5576C27.4673 10.7881 26.9372 10.8963 26.4046 10.8726ZM24.3562 6.83718H28.3097C28.2989 6.34093 28.0928 5.86896 27.7361 5.52378C27.3794 5.17859 26.901 4.98806 26.4046 4.99358C25.8911 4.97636 25.3908 5.15878 25.0089 5.50254C24.6269 5.84629 24.393 6.32464 24.3562 6.83718ZM34.0964 5.14817V3.97031C33.8782 3.89695 33.6505 3.85555 33.4204 3.8474C33.0967 3.80828 32.7683 3.84291 32.4599 3.9487C32.1515 4.05449 31.871 4.22869 31.6395 4.45825C31.408 4.68782 31.2314 4.9668 31.123 5.27429C31.0145 5.58179 30.9771 5.90983 31.0135 6.23385V10.6585H32.3962V6.39773C32.3962 5.48617 32.8673 5.09696 33.6252 5.09696C33.7836 5.09822 33.9414 5.11537 34.0964 5.14817Z" fill="#161617"/>
</svg>
