<svg width="20" height="20" viewBox="0 0 20 20" fill="none" xmlns="http://www.w3.org/2000/svg">
<path fill-rule="evenodd" clip-rule="evenodd" d="M10.0014 0C9.40942 0.00232025 8.81877 0.056986 8.23637 0.163359L9.45049 2.26661H10.0014C11.8617 2.26905 13.6591 2.9407 15.0657 4.159C16.4723 5.37731 17.3943 7.06107 17.6636 8.90309H13.3683V11.1493H19.9286C19.973 10.7765 19.9968 10.4016 20 10.0262C20 7.37061 18.9472 4.8235 17.0727 2.94381C15.1982 1.06412 12.6551 0.0054085 10.0014 0ZM10.0015 17.7654C9.02254 17.7692 8.05219 17.5819 7.14481 17.214L9.28736 13.4874L7.34887 12.3643L5.20632 16.1011L4.08403 18.0512C5.33484 18.9749 6.78418 19.593 8.31626 19.8562C9.84835 20.1194 11.4207 20.0203 12.9077 19.567C14.3947 19.1136 15.7552 18.3185 16.8804 17.2451C18.0055 16.1718 18.8643 14.85 19.3879 13.3853H16.9801C16.3446 14.697 15.3532 15.8033 14.1192 16.5779C12.8851 17.3524 11.4582 17.7639 10.0015 17.7654ZM7.35911 7.64628L5.20636 3.90943C3.66323 5.1252 2.6386 6.88166 2.33939 8.82412C2.04018 10.7666 2.4887 12.7503 3.59435 14.3746L2.39044 16.4779C1.37602 15.2892 0.654649 13.8788 0.284381 12.3602C-0.0858876 10.8416 -0.0947056 9.25716 0.258637 7.73451C0.611979 6.21185 1.31761 4.79349 2.31874 3.59357C3.31986 2.39365 4.58851 1.4457 6.02257 0.826023L7.14486 2.79655L9.29761 6.52318L7.35911 7.64628Z" fill="black"/>
</svg>
