<svg width="100" height="20" viewBox="0 0 100 20" fill="none" xmlns="http://www.w3.org/2000/svg">
<path fill-rule="evenodd" clip-rule="evenodd" d="M10.0014 0C9.40942 0.00232025 8.81877 0.056986 8.23637 0.163359L9.45049 2.26661H10.0014C11.8617 2.26905 13.6591 2.9407 15.0657 4.159C16.4723 5.37731 17.3943 7.06107 17.6636 8.90309H13.3683V11.1493H19.9286C19.973 10.7765 19.9968 10.4016 20 10.0262C20 7.37061 18.9472 4.8235 17.0727 2.94381C15.1982 1.06412 12.6551 0.0054085 10.0014 0ZM10.0015 17.7654C9.02254 17.7692 8.05219 17.5819 7.14481 17.214L9.28736 13.4874L7.34887 12.3643L5.20632 16.1011L4.08403 18.0512C5.33484 18.9749 6.78418 19.593 8.31626 19.8562C9.84835 20.1194 11.4207 20.0203 12.9077 19.567C14.3947 19.1136 15.7552 18.3185 16.8804 17.2451C18.0055 16.1718 18.8643 14.85 19.3879 13.3853H16.9801C16.3446 14.697 15.3532 15.8033 14.1192 16.5779C12.8851 17.3524 11.4582 17.7639 10.0015 17.7654ZM7.35911 7.64628L5.20636 3.90943C3.66323 5.1252 2.6386 6.88166 2.33939 8.82412C2.04018 10.7666 2.4887 12.7503 3.59435 14.3746L2.39044 16.4779C1.37602 15.2892 0.654649 13.8788 0.284381 12.3602C-0.0858876 10.8416 -0.0947056 9.25716 0.258637 7.73451C0.611979 6.21185 1.31761 4.79349 2.31874 3.59357C3.31986 2.39365 4.58851 1.4457 6.02257 0.826023L7.14486 2.79655L9.29761 6.52318L7.35911 7.64628Z" fill="black"/>
<path fill-rule="evenodd" clip-rule="evenodd" d="M29.7067 8.02074H29V9.22932H29.7067V14.6577H31.0997V9.22932H32.6872V8.02074H31.1099V7.39596C31.0856 7.22934 31.0997 7.05938 31.1511 6.89902C31.2024 6.73867 31.2897 6.59215 31.4063 6.47065C31.5228 6.34914 31.6656 6.25585 31.8237 6.19789C31.9818 6.13992 32.151 6.11881 32.3185 6.13616C32.5048 6.13004 32.6911 6.15074 32.8716 6.19761V4.99927C32.6137 4.93402 32.3489 4.89964 32.0829 4.89684C31.76 4.85457 31.4316 4.88727 31.1233 4.99241C30.8151 5.09755 30.5352 5.2723 30.3053 5.50311C30.0755 5.73392 29.902 6.01458 29.7982 6.3233C29.6943 6.63203 29.6631 6.96052 29.7067 7.28329V8.02074ZM37.9398 8.09712C37.5206 7.88033 37.0499 7.78308 36.5792 7.81602C36.1248 7.81533 35.675 7.90741 35.2574 8.08662C34.8398 8.26583 34.4631 8.52839 34.1505 8.85824C33.8379 9.18809 33.596 9.57828 33.4395 10.0049C33.2829 10.4315 33.2151 10.8856 33.2402 11.3394C33.2074 11.7962 33.2702 12.2549 33.4244 12.6861C33.5787 13.1174 33.821 13.5118 34.1361 13.8442C34.4512 14.1767 34.8321 14.4398 35.2545 14.6169C35.6768 14.794 36.1315 14.8812 36.5894 14.8729C37.0809 14.9026 37.5705 14.791 38.0006 14.5515C38.4307 14.3119 38.7833 13.9544 39.0169 13.521V14.1867V14.6579H40.2255V8.02087H38.9554V8.38959V9.0451C38.7103 8.64188 38.3589 8.31391 37.9398 8.09712ZM38.7944 10.4535C38.894 10.7341 38.9349 11.0321 38.9144 11.3291C38.9349 11.6261 38.894 11.9242 38.7944 12.2047C38.6948 12.4852 38.5386 12.7423 38.3354 12.9599C38.1322 13.1775 37.8865 13.351 37.6135 13.4697C37.3404 13.5883 37.0459 13.6495 36.7482 13.6495C36.4505 13.6495 36.156 13.5883 35.8829 13.4697C35.6099 13.351 35.3642 13.1775 35.161 12.9599C34.9578 12.7423 34.8016 12.4852 34.702 12.2047C34.6024 11.9242 34.5615 11.6261 34.582 11.3291C34.5615 11.0321 34.6024 10.7341 34.702 10.4535C34.8016 10.173 34.9578 9.91594 35.161 9.69833C35.3642 9.48071 35.6099 9.3072 35.8829 9.18857C36.156 9.06994 36.4505 9.00872 36.7482 9.00872C37.0459 9.00872 37.3404 9.06994 37.6135 9.18857C37.8865 9.3072 38.1322 9.48071 38.3354 9.69833C38.5386 9.91594 38.6948 10.173 38.7944 10.4535ZM44.0151 10.5814L44.8652 10.9911C45.2713 11.121 45.6266 11.3744 45.8818 11.7159C46.137 12.0574 46.2793 12.47 46.2889 12.8962C46.2889 14.0433 45.3876 14.8729 43.9332 14.8729C43.3955 14.9117 42.8613 14.7608 42.4234 14.4464C41.9855 14.132 41.6717 13.6741 41.5365 13.1522L42.5607 12.5582C42.6165 12.8783 42.784 13.1682 43.0334 13.3764C43.2829 13.5845 43.5981 13.6975 43.9229 13.6951C44.476 13.6951 44.8652 13.4083 44.8652 12.8859C44.8652 12.3873 44.6319 12.2807 44.0673 12.0226L43.9844 11.9846L43.2265 11.6261C42.8117 11.4981 42.4483 11.2416 42.1888 10.8937C41.9292 10.5458 41.7869 10.1244 41.7823 9.69035C41.8268 9.15962 42.0763 8.66709 42.4778 8.31718C42.8793 7.96728 43.4014 7.78752 43.9332 7.81601C44.433 7.77942 44.9314 7.90387 45.3553 8.17113C45.7792 8.43839 46.1064 8.83441 46.2889 9.30114L45.2647 9.87471C45.1672 9.62052 44.9964 9.40104 44.7739 9.2442C44.5514 9.08735 44.2873 9.00022 44.0151 8.99387C43.4928 8.99387 43.1343 9.28066 43.1343 9.72108C43.1343 10.1615 43.3903 10.2946 44.0151 10.5814ZM47.9278 9.28119V12.3539C47.8899 12.6827 47.9269 13.0159 48.0362 13.3284C48.1454 13.6408 48.324 13.9245 48.5586 14.1581C48.7932 14.3917 49.0776 14.5691 49.3905 14.677C49.7034 14.7849 50.0368 14.8206 50.3654 14.7813C50.6102 14.7886 50.854 14.7468 51.0824 14.6584V13.4396C50.9226 13.5023 50.7522 13.5336 50.5805 13.5317C50.4069 13.5506 50.2312 13.5296 50.0669 13.4702C49.9027 13.4109 49.7541 13.3148 49.6326 13.1894C49.5111 13.0639 49.4198 12.9123 49.3658 12.7463C49.3117 12.5802 49.2963 12.4039 49.3207 12.231V9.22998H51.2463V8.02139H49.3207V6.29045H47.9278V8.02139H47.2108V9.28119H47.9278ZM55.4046 14.8726C54.9368 14.8868 54.4709 14.8051 54.0358 14.6326C53.6007 14.46 53.2054 14.2002 52.8744 13.8693C52.5434 13.5383 52.2837 13.143 52.1111 12.7079C51.9386 12.2728 51.8569 11.8069 51.8711 11.3391C51.8537 10.8708 51.9334 10.4041 52.105 9.96812C52.2766 9.53213 52.5364 9.13631 52.8682 8.80549C53.2 8.47467 53.5965 8.21598 54.033 8.04566C54.4695 7.87533 54.9365 7.79705 55.4046 7.81572C55.8561 7.81433 56.303 7.90653 56.7171 8.0865C57.1311 8.26647 57.5034 8.5303 57.8104 8.86136C58.1174 9.19241 58.3525 9.5835 58.5007 10.01C58.649 10.4364 58.7073 10.889 58.6719 11.3391C58.688 11.506 58.688 11.674 58.6719 11.8409H53.3562C53.4221 12.3458 53.6737 12.808 54.0618 13.1375C54.45 13.467 54.947 13.6401 55.4558 13.6231C55.8198 13.6388 56.182 13.5648 56.5106 13.4076C56.8393 13.2505 57.1242 13.0149 57.3404 12.7218L58.1598 13.5514C57.8449 13.9815 57.4286 14.3271 56.948 14.5576C56.4673 14.7881 55.9372 14.8963 55.4046 14.8726ZM53.3562 10.8372H57.3097C57.2989 10.3409 57.0928 9.86896 56.7361 9.52378C56.3794 9.17859 55.901 8.98806 55.4046 8.99358C54.8911 8.97636 54.3908 9.15878 54.0089 9.50254C53.6269 9.84629 53.393 10.3246 53.3562 10.8372ZM63.0964 9.14817V7.97031C62.8782 7.89695 62.6505 7.85555 62.4204 7.8474C62.0967 7.80828 61.7683 7.84291 61.4599 7.9487C61.1515 8.05449 60.871 8.22869 60.6395 8.45825C60.408 8.68782 60.2314 8.9668 60.123 9.27429C60.0145 9.58179 59.9771 9.90983 60.0135 10.2339V14.6585H61.3962V10.3977C61.3962 9.48617 61.8673 9.09696 62.6252 9.09696C62.7836 9.09822 62.9414 9.11537 63.0964 9.14817Z" fill="#161617"/>
</svg>
