<svg width="70" height="11" viewBox="0 0 70 11" fill="none" xmlns="http://www.w3.org/2000/svg">
<path fill-rule="evenodd" clip-rule="evenodd" d="M64.8657 1.24981C64.8218 1.35723 64.7999 1.47244 64.8014 1.58855C64.7999 1.70466 64.8218 1.81988 64.8657 1.9273C64.9096 2.03473 64.9747 2.13216 65.057 2.21377C65.1393 2.29538 65.2371 2.35949 65.3447 2.40226C65.4522 2.44504 65.5673 2.46561 65.6829 2.46273C65.7973 2.46273 65.9105 2.44012 66.0162 2.39619C66.1219 2.35226 66.2179 2.28787 66.2987 2.20669C66.3796 2.12552 66.4438 2.02915 66.4875 1.92309C66.5313 1.81703 66.5538 1.70335 66.5538 1.58855C66.5538 1.47376 66.5313 1.36008 66.4875 1.25402C66.4438 1.14796 66.3796 1.05159 66.2987 0.970417C66.2179 0.889242 66.1219 0.824851 66.0162 0.780919C65.9105 0.736988 65.7973 0.714376 65.6829 0.714376C65.5673 0.7115 65.4522 0.732066 65.3447 0.774843C65.2371 0.817621 65.1393 0.881731 65.057 0.96334C64.9747 1.04495 64.9096 1.14238 64.8657 1.24981ZM64.9607 3.57144V10.4902H66.3945V3.57144H64.9607ZM60.2556 8.09159V4.82941H59.4909V3.57145H60.245V1.78045H61.6894V3.57145H63.7393V4.82941H61.7001V7.953C61.6711 8.13462 61.6844 8.3205 61.7388 8.49613C61.7932 8.67177 61.8873 8.83241 62.0138 8.96552C62.1402 9.09864 62.2956 9.20064 62.4678 9.26355C62.64 9.32647 62.8243 9.3486 63.0064 9.32823C63.1848 9.33446 63.3624 9.30172 63.5269 9.23228V10.5116C63.2846 10.596 63.0291 10.6358 62.7728 10.6288C62.4309 10.6726 62.0836 10.637 61.7576 10.5248C61.4316 10.4126 61.1356 10.2268 60.8925 9.98166C60.6493 9.73654 60.4654 9.43867 60.355 9.11098C60.2446 8.78329 60.2106 8.43454 60.2556 8.09159ZM3.79494 3.3583C4.17075 3.32971 4.54836 3.3808 4.90322 3.50824C5.25808 3.63569 5.58227 3.83664 5.85471 4.09804C6.12716 4.35944 6.34177 4.67545 6.48461 5.02553C6.62745 5.37562 6.69532 5.75195 6.68382 6.13008V10.501H5.23938V6.13008C5.23938 5.74838 5.08831 5.38232 4.81942 5.11241C4.55053 4.84251 4.18583 4.69088 3.80556 4.69088C3.42528 4.69088 3.06059 4.84251 2.79169 5.11241C2.5228 5.38232 2.37174 5.74838 2.37174 6.13008V10.5223H0.927295V6.06611C0.921802 5.69432 0.993565 5.32547 1.13801 4.98307C1.28245 4.64067 1.4964 4.33224 1.76622 4.07747C2.03603 3.82269 2.35579 3.62715 2.70509 3.50333C3.05439 3.3795 3.42556 3.33011 3.79494 3.3583ZM8.08576 7.03617C8.08576 6.06072 8.47181 5.12522 9.15898 4.43547C9.84616 3.74572 10.7782 3.35822 11.75 3.35822C12.7218 3.35822 13.6538 3.74572 14.341 4.43547C15.0281 5.12522 15.4142 6.06072 15.4142 7.03617C15.4142 8.01162 15.0281 8.94712 14.341 9.63687C13.6538 10.3266 12.7218 10.7141 11.75 10.7141C10.7782 10.7141 9.84616 10.3266 9.15898 9.63687C8.47181 8.94712 8.08576 8.01162 8.08576 7.03617ZM13.9485 7.03617C13.9695 6.73276 13.9281 6.42825 13.8268 6.14159C13.7256 5.85493 13.5667 5.59224 13.36 5.36985C13.1533 5.14747 12.9032 4.97014 12.6253 4.84889C12.3474 4.72765 12.0477 4.66508 11.7447 4.66508C11.4417 4.66508 11.1419 4.72765 10.864 4.84889C10.5861 4.97014 10.336 5.14747 10.1293 5.36985C9.92264 5.59224 9.76373 5.85493 9.66248 6.14159C9.56124 6.42825 9.51983 6.73276 9.54083 7.03617C9.51983 7.33958 9.56124 7.64408 9.66248 7.93074C9.76373 8.2174 9.92264 8.48009 10.1293 8.70248C10.336 8.92487 10.5861 9.1022 10.864 9.22344C11.1419 9.34469 11.4417 9.40725 11.7447 9.40725C12.0477 9.40725 12.3474 9.34469 12.6253 9.22344C12.9032 9.1022 13.1533 8.92487 13.36 8.70248C13.5667 8.48009 13.7256 8.2174 13.8268 7.93074C13.9281 7.64408 13.9695 7.33958 13.9485 7.03617ZM18.5799 10.5424C18.9327 10.6724 19.3087 10.7272 19.6838 10.7034C20.0539 10.7257 20.4245 10.6705 20.7723 10.5415C21.12 10.4124 21.4372 10.2122 21.7038 9.95366C21.9704 9.69507 22.1806 9.38371 22.321 9.0393C22.4615 8.6949 22.5291 8.32497 22.5196 7.95296V3.57141H21.0858V7.95296C21.1028 8.15021 21.0788 8.34886 21.0153 8.5363C20.9517 8.72374 20.8501 8.89589 20.7168 9.0418C20.5834 9.18772 20.4213 9.30422 20.2408 9.38393C20.0602 9.46363 19.8651 9.50478 19.6679 9.50478C19.4706 9.50478 19.2755 9.46363 19.095 9.38393C18.9144 9.30422 18.7523 9.18772 18.619 9.0418C18.4857 8.89589 18.384 8.72374 18.3205 8.5363C18.257 8.34886 18.233 8.15021 18.25 7.95296V3.57141H16.8055V7.92098C16.796 8.29814 16.8647 8.67317 17.0073 9.02222C17.15 9.37126 17.3635 9.68668 17.6342 9.94839C17.905 10.2101 18.227 10.4124 18.5799 10.5424ZM33.8202 10.4902H32.3758V5.95942C32.3758 5.78862 32.3423 5.61949 32.2771 5.4617C32.212 5.3039 32.1166 5.16052 31.9963 5.03975C31.8759 4.91898 31.7331 4.82317 31.5759 4.75781C31.4187 4.69245 31.2502 4.65881 31.08 4.65881C30.9099 4.65881 30.7414 4.69245 30.5842 4.75781C30.427 4.82317 30.2841 4.91898 30.1638 5.03975C30.0435 5.16052 29.948 5.3039 29.8829 5.4617C29.8178 5.61949 29.7843 5.78862 29.7843 5.95942V10.4902H28.3505V5.95942C28.3667 5.77944 28.3455 5.59804 28.288 5.42677C28.2306 5.2555 28.1382 5.09813 28.0168 4.96469C27.8954 4.83125 27.7476 4.72468 27.5828 4.65176C27.4181 4.57884 27.2401 4.54118 27.06 4.54118C26.88 4.54118 26.7019 4.57884 26.5372 4.65176C26.3724 4.72468 26.2247 4.83125 26.1032 4.96469C25.9818 5.09813 25.8895 5.2555 25.832 5.42677C25.7745 5.59804 25.7533 5.77944 25.7696 5.95942V10.4902H24.3251V5.97008C24.3218 5.61705 24.3904 5.26707 24.5267 4.94162C24.663 4.61617 24.8642 4.32212 25.1178 4.07753C25.3714 3.83293 25.6722 3.64296 26.0016 3.51926C26.331 3.39556 26.6822 3.34075 27.0335 3.3582C27.4329 3.33976 27.8306 3.42177 28.1904 3.59677C28.5502 3.77178 28.8608 4.03424 29.0939 4.36031C29.3297 4.03702 29.6407 3.77664 29.9999 3.60195C30.3591 3.42725 30.7555 3.34356 31.1544 3.3582C31.5041 3.33883 31.854 3.39263 32.182 3.51618C32.5099 3.63973 32.8086 3.83034 33.0593 4.07592C33.31 4.3215 33.507 4.61669 33.638 4.94276C33.769 5.26883 33.831 5.61867 33.8202 5.97008V10.4902ZM37.4768 10.4578C37.9286 10.6361 38.4119 10.7197 38.897 10.7035C39.4412 10.7223 39.9819 10.6079 40.4722 10.3702C40.9626 10.1324 41.3879 9.7785 41.7116 9.33893L40.8725 8.46475C40.6473 8.77144 40.3501 9.01755 40.0073 9.18121C39.6645 9.34487 39.2868 9.42102 38.9076 9.40289C38.3816 9.4209 37.8676 9.2422 37.4653 8.90144C37.063 8.56069 36.8011 8.08215 36.7304 7.55859H42.2638C42.2805 7.38487 42.2805 7.20994 42.2638 7.03622C42.3005 6.56632 42.2398 6.0939 42.0855 5.64873C41.9312 5.20357 41.6867 4.79533 41.3674 4.44976C41.048 4.1042 40.6608 3.8288 40.2302 3.64094C39.7995 3.45308 39.3347 3.35683 38.8652 3.35827C38.3809 3.34335 37.8988 3.42844 37.4487 3.60827C36.9986 3.7881 36.59 4.05883 36.2485 4.40368C35.9069 4.74853 35.6395 5.16014 35.463 5.61299C35.2865 6.06584 35.2045 6.55026 35.2222 7.03622C35.2089 7.52326 35.295 8.00788 35.4752 8.46027C35.6555 8.91265 35.926 9.32324 36.2703 9.66676C36.6145 10.0103 37.0251 10.2795 37.4768 10.4578ZM40.8725 6.50318H36.7728H36.7304C36.7935 5.97757 37.0492 5.49435 37.4478 5.14754C37.8463 4.80073 38.3591 4.61515 38.8864 4.6269C39.3958 4.61808 39.8885 4.80928 40.2595 5.15976C40.6305 5.51024 40.8504 5.99228 40.8725 6.50318ZM46.4803 3.3583C46.8561 3.32971 47.2337 3.3808 47.5886 3.50824C47.9435 3.63569 48.2676 3.83664 48.5401 4.09804C48.8125 4.35944 49.0271 4.67545 49.17 5.02553C49.3128 5.37562 49.3807 5.75195 49.3692 6.13008V10.501H47.9247V6.13008C47.9247 5.74838 47.7737 5.38232 47.5048 5.11241C47.2359 4.84251 46.8712 4.69088 46.4909 4.69088C46.1107 4.69088 45.7459 4.84251 45.4771 5.11241C45.2082 5.38232 45.0571 5.74838 45.0571 6.13008V10.5223H43.6127V6.06611C43.6072 5.69432 43.6789 5.32547 43.8234 4.98307C43.9678 4.64067 44.1818 4.33224 44.4516 4.07747C44.7214 3.82269 45.0412 3.62715 45.3904 3.50333C45.7397 3.3795 46.1109 3.33011 46.4803 3.3583ZM55.718 3.65176C55.2845 3.42381 54.796 3.32214 54.3079 3.35826C53.8326 3.35316 53.3613 3.44604 52.9232 3.63116C52.4851 3.81628 52.0896 4.0897 51.761 4.43448C51.4324 4.77926 51.1779 5.18806 51.0131 5.63559C50.8483 6.08311 50.7768 6.55982 50.803 7.03621C50.7689 7.51123 50.8339 7.98816 50.994 8.4365C51.154 8.88484 51.4056 9.29471 51.7325 9.63989C52.0594 9.98508 52.4544 10.258 52.8924 10.4411C53.3304 10.6243 53.8017 10.7136 54.276 10.7035C54.7847 10.7376 55.2923 10.6227 55.7372 10.3729C56.1821 10.1232 56.5452 9.74914 56.7826 9.29628V9.98922V10.4903H58.0783V3.57148H56.7613V3.96592V4.64821C56.513 4.22487 56.1516 3.87972 55.718 3.65176ZM56.605 6.10354C56.7083 6.39554 56.7507 6.70575 56.7295 7.01488C56.7507 7.32402 56.7083 7.63422 56.605 7.92623C56.5017 8.21823 56.3397 8.4858 56.129 8.7123C55.9184 8.93881 55.6635 9.11941 55.3804 9.24289C55.0973 9.36636 54.7919 9.43008 54.4831 9.43008C54.1744 9.43008 53.869 9.36636 53.5859 9.24289C53.3027 9.11941 53.0479 8.93881 52.8373 8.7123C52.6266 8.4858 52.4646 8.21823 52.3613 7.92623C52.258 7.63422 52.2156 7.32402 52.2368 7.01488C52.2156 6.70575 52.258 6.39554 52.3613 6.10354C52.4646 5.81153 52.6266 5.54397 52.8373 5.31746C53.0479 5.09096 53.3027 4.91036 53.5859 4.78688C53.869 4.6634 54.1744 4.59968 54.4831 4.59968C54.7919 4.59968 55.0973 4.6634 55.3804 4.78688C55.6635 4.91036 55.9184 5.09096 56.129 5.31746C56.3397 5.54397 56.5017 5.81153 56.605 6.10354Z" fill="black"/>
</svg>
