<svg width="29" height="20" viewBox="0 0 29 20" fill="none" xmlns="http://www.w3.org/2000/svg">
<path fill-rule="evenodd" clip-rule="evenodd" d="M29 10.7942L21.7583 17.3005C18.9662 19.8077 15.1692 20.5692 11.7689 19.5819V18.693L12.1234 18.8092C15.4296 19.5619 18.6228 18.8768 21.1944 16.674L29 9.66184V10.7942ZM10.8703 8.68334C12.6696 7.21449 14.8955 6.99975 16.9386 8.10997L17.2311 8.30589V9.38512L17.148 9.30985C15.4119 7.89302 13.1693 7.89302 11.4342 9.30985L0 19.5819V18.4484L10.8703 8.68334ZM19.9435 14.3075C17.5946 16.2269 14.8335 16.7504 11.9472 15.8118L11.7689 15.7354V14.8189L12.2442 15.0237C14.8202 15.8616 17.2832 15.3934 19.3795 13.681L29 5.03944V6.1729L19.9435 14.3075V14.3075ZM9.05544 5.6914C11.4054 3.77315 14.1665 3.24848 17.0528 4.18713L17.2311 4.2635V5.18001L16.7547 4.97634C14.1798 4.13842 11.7157 4.60553 9.61939 6.3179L0 14.9606V13.8271L9.05544 5.6914V5.6914ZM18.1297 11.3155C16.3304 12.7855 14.1033 13.0002 12.0603 11.8889L11.7689 11.693V10.6149L11.852 10.689C13.587 12.107 15.8307 12.107 17.5658 10.689L29 0.418138V1.55049L18.1297 11.3155ZM0 9.2047L7.24169 2.69945C10.0327 0.19233 13.8297 -0.569216 17.2311 0.418138V1.30587L16.8766 1.19075C13.5704 0.438062 10.3772 1.12323 7.80565 3.32596L0 10.3382V9.2047Z" fill="#161617"/>
</svg>
