<svg width="100" height="20" viewBox="0 0 100 20" fill="none" xmlns="http://www.w3.org/2000/svg">
<path fill-rule="evenodd" clip-rule="evenodd" d="M10.3358 2.22656H12.534V-0.000165122H10.3358C8.65057 -0.00966393 6.9803 0.317446 5.42225 0.96212C3.86419 1.60679 2.44947 2.55615 1.26046 3.75491L0 5.06058V8.20836L2.86377 5.33386C3.84264 4.3457 5.00708 3.56225 6.28966 3.02888C7.57224 2.49551 8.94749 2.22281 10.3358 2.22656ZM12.534 5.45529V7.68202H10.3358C9.66264 7.6781 8.99552 7.80952 8.37379 8.06853C7.75205 8.32754 7.18829 8.70891 6.71574 9.19012L0 15.9209V12.7833L5.14268 7.61117C5.82448 6.92664 6.63413 6.38386 7.52525 6.01391C8.41637 5.64397 9.37146 5.45414 10.3358 5.45529H12.534ZM7.39133 17.7731H9.57949C10.9668 17.7766 12.3412 17.5047 13.6235 16.9732C14.9058 16.4416 16.0708 15.661 17.0515 14.676L19.9556 11.7913V14.9391L18.6548 16.2448C17.4648 17.4422 16.0499 18.3907 14.4921 19.0352C12.9342 19.6798 11.2645 20.0077 9.57949 19.9999H7.39133V17.7731ZM11.545 11.9284C12.1681 11.6696 12.7338 11.2893 13.2096 10.8096L19.9254 4.04845V7.21647L14.7726 12.3886C14.0918 13.0744 13.2823 13.6181 12.391 13.9881C11.4996 14.3582 10.5441 14.5473 9.57949 14.5444H7.39133V12.3177H9.57949C10.2538 12.3196 10.9219 12.1873 11.545 11.9284Z" fill="black"/>
<path fill-rule="evenodd" clip-rule="evenodd" d="M92.8657 5.24981C92.8218 5.35723 92.7999 5.47244 92.8014 5.58855C92.7999 5.70466 92.8218 5.81988 92.8657 5.9273C92.9096 6.03473 92.9747 6.13216 93.057 6.21377C93.1393 6.29538 93.2371 6.35949 93.3447 6.40226C93.4522 6.44504 93.5673 6.46561 93.6829 6.46273C93.7973 6.46273 93.9105 6.44012 94.0162 6.39619C94.1219 6.35226 94.2179 6.28787 94.2987 6.20669C94.3796 6.12552 94.4438 6.02915 94.4875 5.92309C94.5313 5.81703 94.5538 5.70335 94.5538 5.58855C94.5538 5.47376 94.5313 5.36008 94.4875 5.25402C94.4438 5.14796 94.3796 5.05159 94.2987 4.97042C94.2179 4.88924 94.1219 4.82485 94.0162 4.78092C93.9105 4.73699 93.7973 4.71438 93.6829 4.71438C93.5673 4.7115 93.4522 4.73207 93.3447 4.77484C93.2371 4.81762 93.1393 4.88173 93.057 4.96334C92.9747 5.04495 92.9096 5.14238 92.8657 5.24981ZM92.9607 7.57144V14.4902H94.3945V7.57144H92.9607ZM88.2556 12.0916V8.82941H87.4909V7.57145H88.245V5.78045H89.6894V7.57145H91.7393V8.82941H89.7001V11.953C89.6711 12.1346 89.6844 12.3205 89.7388 12.4961C89.7932 12.6718 89.8873 12.8324 90.0138 12.9655C90.1402 13.0986 90.2956 13.2006 90.4678 13.2636C90.64 13.3265 90.8243 13.3486 91.0064 13.3282C91.1848 13.3345 91.3624 13.3017 91.5269 13.2323V14.5116C91.2846 14.596 91.0291 14.6358 90.7728 14.6288C90.4309 14.6726 90.0836 14.637 89.7576 14.5248C89.4316 14.4126 89.1356 14.2268 88.8925 13.9817C88.6493 13.7365 88.4654 13.4387 88.355 13.111C88.2446 12.7833 88.2106 12.4345 88.2556 12.0916ZM31.7949 7.3583C32.1708 7.32971 32.5484 7.3808 32.9032 7.50824C33.2581 7.63569 33.5823 7.83664 33.8547 8.09804C34.1272 8.35944 34.3418 8.67545 34.4846 9.02553C34.6275 9.37562 34.6953 9.75195 34.6838 10.1301V14.501H33.2394V10.1301C33.2394 9.74838 33.0883 9.38232 32.8194 9.11241C32.5505 8.84251 32.1858 8.69088 31.8056 8.69088C31.4253 8.69088 31.0606 8.84251 30.7917 9.11241C30.5228 9.38232 30.3717 9.74838 30.3717 10.1301V14.5223H28.9273V10.0661C28.9218 9.69432 28.9936 9.32547 29.138 8.98307C29.2825 8.64067 29.4964 8.33224 29.7662 8.07747C30.036 7.82269 30.3558 7.62715 30.7051 7.50333C31.0544 7.3795 31.4256 7.33011 31.7949 7.3583ZM36.0858 11.0362C36.0858 10.0607 36.4718 9.12522 37.159 8.43547C37.8462 7.74572 38.7782 7.35822 39.75 7.35822C40.7218 7.35822 41.6538 7.74572 42.341 8.43547C43.0281 9.12522 43.4142 10.0607 43.4142 11.0362C43.4142 12.0116 43.0281 12.9471 42.341 13.6369C41.6538 14.3266 40.7218 14.7141 39.75 14.7141C38.7782 14.7141 37.8462 14.3266 37.159 13.6369C36.4718 12.9471 36.0858 12.0116 36.0858 11.0362ZM41.9485 11.0362C41.9695 10.7328 41.9281 10.4283 41.8268 10.1416C41.7256 9.85493 41.5667 9.59224 41.36 9.36985C41.1533 9.14747 40.9032 8.97014 40.6253 8.84889C40.3474 8.72765 40.0477 8.66508 39.7447 8.66508C39.4417 8.66508 39.1419 8.72765 38.864 8.84889C38.5861 8.97014 38.336 9.14747 38.1293 9.36985C37.9226 9.59224 37.7637 9.85493 37.6625 10.1416C37.5612 10.4283 37.5198 10.7328 37.5408 11.0362C37.5198 11.3396 37.5612 11.6441 37.6625 11.9307C37.7637 12.2174 37.9226 12.4801 38.1293 12.7025C38.336 12.9249 38.5861 13.1022 38.864 13.2234C39.1419 13.3447 39.4417 13.4073 39.7447 13.4073C40.0477 13.4073 40.3474 13.3447 40.6253 13.2234C40.9032 13.1022 41.1533 12.9249 41.36 12.7025C41.5667 12.4801 41.7256 12.2174 41.8268 11.9307C41.9281 11.6441 41.9695 11.3396 41.9485 11.0362ZM46.5799 14.5424C46.9327 14.6724 47.3087 14.7272 47.6838 14.7034C48.0539 14.7257 48.4245 14.6705 48.7723 14.5415C49.12 14.4124 49.4372 14.2122 49.7038 13.9537C49.9704 13.6951 50.1806 13.3837 50.321 13.0393C50.4615 12.6949 50.5291 12.325 50.5196 11.953V7.57141H49.0858V11.953C49.1028 12.1502 49.0788 12.3489 49.0153 12.5363C48.9517 12.7237 48.8501 12.8959 48.7168 13.0418C48.5834 13.1877 48.4213 13.3042 48.2408 13.3839C48.0602 13.4636 47.8651 13.5048 47.6679 13.5048C47.4706 13.5048 47.2755 13.4636 47.095 13.3839C46.9144 13.3042 46.7523 13.1877 46.619 13.0418C46.4857 12.8959 46.384 12.7237 46.3205 12.5363C46.257 12.3489 46.233 12.1502 46.25 11.953V7.57141H44.8055V11.921C44.796 12.2981 44.8647 12.6732 45.0073 13.0222C45.15 13.3713 45.3635 13.6867 45.6342 13.9484C45.905 14.2101 46.227 14.4124 46.5799 14.5424ZM61.8202 14.4902H60.3758V9.95942C60.3758 9.78862 60.3423 9.61949 60.2771 9.4617C60.212 9.3039 60.1166 9.16052 59.9963 9.03975C59.8759 8.91898 59.7331 8.82317 59.5759 8.75781C59.4187 8.69245 59.2502 8.65881 59.08 8.65881C58.9099 8.65881 58.7414 8.69245 58.5842 8.75781C58.427 8.82317 58.2841 8.91898 58.1638 9.03975C58.0435 9.16052 57.948 9.3039 57.8829 9.4617C57.8178 9.61949 57.7843 9.78862 57.7843 9.95942V14.4902H56.3505V9.95942C56.3667 9.77944 56.3455 9.59804 56.288 9.42677C56.2306 9.2555 56.1382 9.09813 56.0168 8.96469C55.8954 8.83125 55.7476 8.72468 55.5828 8.65176C55.4181 8.57884 55.2401 8.54118 55.06 8.54118C54.88 8.54118 54.7019 8.57884 54.5372 8.65176C54.3724 8.72468 54.2247 8.83125 54.1032 8.96469C53.9818 9.09813 53.8895 9.2555 53.832 9.42677C53.7745 9.59804 53.7533 9.77944 53.7696 9.95942V14.4902H52.3251V9.97008C52.3218 9.61705 52.3904 9.26707 52.5267 8.94162C52.663 8.61617 52.8642 8.32212 53.1178 8.07753C53.3714 7.83293 53.6722 7.64296 54.0016 7.51926C54.331 7.39556 54.6822 7.34075 55.0335 7.3582C55.4329 7.33976 55.8306 7.42177 56.1904 7.59677C56.5502 7.77178 56.8608 8.03424 57.0939 8.36031C57.3297 8.03702 57.6407 7.77664 57.9999 7.60195C58.3591 7.42725 58.7555 7.34356 59.1544 7.3582C59.5041 7.33883 59.854 7.39263 60.182 7.51618C60.5099 7.63973 60.8086 7.83034 61.0593 8.07592C61.31 8.3215 61.507 8.61669 61.638 8.94276C61.769 9.26883 61.831 9.61867 61.8202 9.97008V14.4902ZM65.4768 14.4578C65.9286 14.6361 66.4119 14.7197 66.897 14.7035C67.4412 14.7223 67.9819 14.6079 68.4722 14.3702C68.9626 14.1324 69.3879 13.7785 69.7116 13.3389L68.8725 12.4647C68.6473 12.7714 68.3501 13.0175 68.0073 13.1812C67.6645 13.3449 67.2868 13.421 66.9076 13.4029C66.3816 13.4209 65.8676 13.2422 65.4653 12.9014C65.063 12.5607 64.8011 12.0821 64.7304 11.5586H70.2638C70.2805 11.3849 70.2805 11.2099 70.2638 11.0362C70.3005 10.5663 70.2398 10.0939 70.0855 9.64873C69.9312 9.20357 69.6867 8.79533 69.3674 8.44976C69.048 8.1042 68.6608 7.8288 68.2302 7.64094C67.7995 7.45308 67.3347 7.35683 66.8652 7.35827C66.3809 7.34335 65.8988 7.42844 65.4487 7.60827C64.9986 7.7881 64.59 8.05883 64.2485 8.40368C63.9069 8.74853 63.6395 9.16014 63.463 9.61299C63.2865 10.0658 63.2045 10.5503 63.2222 11.0362C63.2089 11.5233 63.295 12.0079 63.4752 12.4603C63.6555 12.9127 63.926 13.3232 64.2703 13.6668C64.6145 14.0103 65.0251 14.2795 65.4768 14.4578ZM68.8725 10.5032H64.7728H64.7304C64.7935 9.97757 65.0492 9.49435 65.4478 9.14754C65.8463 8.80073 66.3591 8.61515 66.8864 8.6269C67.3958 8.61808 67.8885 8.80928 68.2595 9.15976C68.6305 9.51024 68.8504 9.99228 68.8725 10.5032ZM74.4803 7.3583C74.8561 7.32971 75.2337 7.3808 75.5886 7.50824C75.9435 7.63569 76.2676 7.83664 76.5401 8.09804C76.8125 8.35944 77.0271 8.67545 77.17 9.02553C77.3128 9.37562 77.3807 9.75195 77.3692 10.1301V14.501H75.9247V10.1301C75.9247 9.74838 75.7737 9.38232 75.5048 9.11241C75.2359 8.84251 74.8712 8.69088 74.4909 8.69088C74.1107 8.69088 73.7459 8.84251 73.4771 9.11241C73.2082 9.38232 73.0571 9.74838 73.0571 10.1301V14.5223H71.6127V10.0661C71.6072 9.69432 71.6789 9.32547 71.8234 8.98307C71.9678 8.64067 72.1818 8.33224 72.4516 8.07747C72.7214 7.82269 73.0412 7.62715 73.3904 7.50333C73.7397 7.3795 74.1109 7.33011 74.4803 7.3583ZM83.718 7.65176C83.2845 7.42381 82.796 7.32214 82.3079 7.35826C81.8326 7.35316 81.3613 7.44604 80.9232 7.63116C80.4851 7.81628 80.0896 8.0897 79.761 8.43448C79.4324 8.77926 79.1779 9.18806 79.0131 9.63559C78.8483 10.0831 78.7768 10.5598 78.803 11.0362C78.7689 11.5112 78.8339 11.9882 78.994 12.4365C79.154 12.8848 79.4056 13.2947 79.7325 13.6399C80.0594 13.9851 80.4544 14.258 80.8924 14.4411C81.3304 14.6243 81.8017 14.7136 82.276 14.7035C82.7847 14.7376 83.2923 14.6227 83.7372 14.3729C84.1821 14.1232 84.5452 13.7491 84.7826 13.2963V13.9892V14.4903H86.0783V7.57148H84.7613V7.96592V8.64821C84.513 8.22487 84.1516 7.87972 83.718 7.65176ZM84.605 10.1035C84.7083 10.3955 84.7507 10.7057 84.7295 11.0149C84.7507 11.324 84.7083 11.6342 84.605 11.9262C84.5017 12.2182 84.3397 12.4858 84.129 12.7123C83.9184 12.9388 83.6635 13.1194 83.3804 13.2429C83.0973 13.3664 82.7919 13.4301 82.4831 13.4301C82.1744 13.4301 81.869 13.3664 81.5859 13.2429C81.3027 13.1194 81.0479 12.9388 80.8373 12.7123C80.6266 12.4858 80.4646 12.2182 80.3613 11.9262C80.258 11.6342 80.2156 11.324 80.2368 11.0149C80.2156 10.7057 80.258 10.3955 80.3613 10.1035C80.4646 9.81153 80.6266 9.54397 80.8373 9.31746C81.0479 9.09096 81.3027 8.91036 81.5859 8.78688C81.869 8.6634 82.1744 8.59968 82.4831 8.59968C82.7919 8.59968 83.0973 8.6634 83.3804 8.78688C83.6635 8.91036 83.9184 9.09096 84.129 9.31746C84.3397 9.54397 84.5017 9.81153 84.605 10.1035Z" fill="black"/>
</svg>
