<svg width="70" height="10" viewBox="0 0 70 10" fill="none" xmlns="http://www.w3.org/2000/svg">
<path d="M58.6568 2.0871V2.31075C58.6568 2.35591 58.6203 2.39247 58.5751 2.39247H58.0213C57.9762 2.39247 57.9396 2.35591 57.9396 2.31075V1.71183C57.9396 1.68387 57.9547 1.65806 57.9783 1.64301C58.6181 1.23656 59.6342 1 60.5568 1C62.0751 1 63.588 1.65699 63.588 3.55484V7.7129H63.7826C63.8278 7.7129 63.8643 7.74946 63.8643 7.79462V8.34839C63.8643 8.39355 63.8278 8.43011 63.7826 8.43011H62.9676C62.9224 8.43011 62.8859 8.39355 62.8859 8.34839V7.41828C62.1364 8.17527 60.9482 8.56882 59.9418 8.56882C58.2321 8.56882 56.8493 7.52581 56.8493 6.22796C56.8493 5.00968 57.916 3.87312 59.9418 3.87312H62.8859V3.55484C62.8859 2.07634 61.6364 1.70215 60.5568 1.70215C59.8256 1.70215 59.1375 1.87097 58.6568 2.0871ZM12.9504 1C10.8622 1 9.1665 2.6957 9.1665 4.78387C9.1665 6.87204 10.8622 8.56882 12.9504 8.56882C15.0385 8.56882 16.7342 6.87204 16.7342 4.78387C16.7342 2.6957 15.0385 1 12.9504 1ZM18.1988 1.83978H18.0203C17.9751 1.83978 17.9385 1.80323 17.9385 1.75806V1.22043C17.9385 1.17527 17.9751 1.13871 18.0203 1.13871H18.8342C18.8794 1.13871 18.916 1.17527 18.916 1.22043V6.0129C18.916 6.60753 19.1192 7.06774 19.4848 7.37742C19.8536 7.6914 20.3848 7.85161 21.031 7.85161C22.7407 7.85161 24.2364 6.37849 24.2364 4.36989V1.22043C24.2364 1.17527 24.2729 1.13871 24.3181 1.13871H24.8708C24.916 1.13871 24.9536 1.17527 24.9536 1.22043V7.7129H25.1482C25.1934 7.7129 25.2299 7.74946 25.2299 7.79462V8.34839C25.2299 8.39355 25.1934 8.43011 25.1482 8.43011H24.3181C24.2729 8.43011 24.2364 8.39355 24.2364 8.34839V6.62903C23.5762 7.8086 22.4181 8.56882 21.031 8.56882C20.1859 8.56882 19.4805 8.32473 18.9859 7.8871C18.4869 7.44624 18.1988 6.80753 18.1988 6.0129V1.83978ZM40.8611 5.14301C41.0375 6.67097 42.3493 7.85161 43.9192 7.85161C44.8031 7.85161 45.5955 7.47742 46.1643 6.87849C46.1955 6.84624 46.2461 6.84409 46.2794 6.87527L46.6783 7.24301C46.6945 7.25806 46.7041 7.27849 46.7052 7.30107C46.7063 7.32258 46.6977 7.34409 46.6826 7.35914C45.9923 8.09785 45.0192 8.56882 43.9192 8.56882C41.831 8.56882 40.1353 6.87204 40.1353 4.78387C40.1353 2.6957 41.8471 1 43.9192 1C45.1762 1 46.2751 1.6129 46.9644 2.55269L47.1181 2.75269C47.1439 2.78602 47.1396 2.83441 47.1084 2.86344L46.9246 3.03226L46.9224 3.03441C46.5052 3.38602 45.8213 4.07097 45.0418 4.56237C44.5106 4.89785 43.9342 5.14301 43.3665 5.14301H40.8611ZM33.1203 2.87742C33.8837 1.32903 35.2299 1 36.116 1C36.9407 1 37.574 1.23011 38.002 1.66237C38.4299 2.09355 38.6557 2.73118 38.6557 3.55484V7.7129H38.8504C38.8955 7.7129 38.9321 7.74946 38.9321 7.79462V8.34839C38.9321 8.39355 38.8955 8.43011 38.8504 8.43011H38.0364C37.9912 8.43011 37.9547 8.39355 37.9547 8.34839V3.55484C37.9547 2.98064 37.8256 2.51505 37.5289 2.19355C37.2321 1.87419 36.7708 1.70215 36.116 1.70215C34.4224 1.70215 33.1719 3.17634 33.1719 5.19892V8.34839C33.1719 8.39355 33.1353 8.43011 33.0902 8.43011H32.5525C32.5074 8.43011 32.4697 8.39355 32.4697 8.34839V3.55484C32.4697 2.98064 32.3418 2.51505 32.045 2.19355C31.7482 1.87419 31.2869 1.70215 30.6321 1.70215C28.9385 1.70215 27.6869 3.17634 27.6869 5.19892V8.34839C27.6869 8.39355 27.6504 8.43011 27.6052 8.43011H27.0525C27.0074 8.43011 26.9708 8.39355 26.9708 8.34839V1.83978H26.7912C26.7461 1.83978 26.7095 1.80323 26.7095 1.75806V1.22043C26.7095 1.17527 26.7461 1.13871 26.7912 1.13871H27.6052C27.6504 1.13871 27.6869 1.17527 27.6869 1.22043V2.75161C28.4622 1.29247 29.8181 1 30.6321 1C31.3923 1 31.9859 1.18925 32.4074 1.54731C32.7773 1.86237 33.017 2.3086 33.1203 2.87742ZM1.64929 2.93978C2.31059 1.76021 3.46757 1 4.85467 1C5.69983 1 6.40521 1.24301 6.90091 1.68172C7.39876 2.12258 7.68693 2.76129 7.68693 3.55484V7.7129H7.88155C7.92671 7.7129 7.96327 7.74946 7.96327 7.79462V8.34839C7.96327 8.39355 7.92671 8.43011 7.88155 8.43011H7.05144C7.00628 8.43011 6.96972 8.39355 6.96972 8.34839V3.55484C6.96972 2.96021 6.7665 2.49677 6.40091 2.1828C6.03209 1.86559 5.50091 1.70215 4.85467 1.70215C3.14499 1.70215 1.64929 3.18925 1.64929 5.19892V8.34839C1.64929 8.39355 1.61274 8.43011 1.56757 8.43011H1.01489C0.969725 8.43011 0.933165 8.39355 0.933165 8.34839V1.83978H0.753596C0.708434 1.83978 0.671875 1.80323 0.671875 1.75806V1.22043C0.671875 1.17527 0.708434 1.13871 0.753596 1.13871H1.56757C1.61274 1.13871 1.64929 1.17527 1.64929 1.22043V2.93978ZM49.3321 2.93978C49.9923 1.76021 51.1504 1 52.5375 1C53.3816 1 54.088 1.24301 54.5826 1.68172C55.0816 2.12258 55.3686 2.76129 55.3686 3.55484V7.7129H55.5633C55.6095 7.7129 55.6461 7.74946 55.6461 7.79462V8.34839C55.6461 8.39355 55.6095 8.43011 55.5633 8.43011H54.7342C54.6891 8.43011 54.6525 8.39355 54.6525 8.34839V3.55484C54.6525 2.96021 54.4493 2.49677 54.0837 2.1828C53.7149 1.86559 53.1826 1.70215 52.5375 1.70215C50.8278 1.70215 49.3321 3.18925 49.3321 5.19892V8.34839C49.3321 8.39355 49.2955 8.43011 49.2504 8.43011H48.6966C48.6514 8.43011 48.6149 8.39355 48.6149 8.34839V1.83978H48.4364C48.3912 1.83978 48.3536 1.80323 48.3536 1.75806V1.22043C48.3536 1.17527 48.3912 1.13871 48.4364 1.13871H49.2504C49.2955 1.13871 49.3321 1.17527 49.3321 1.22043V2.93978ZM62.8859 4.58925H59.9418C58.2859 4.58925 57.5504 5.43011 57.5504 6.22796C57.5504 6.5871 57.7213 6.91505 58.0052 7.17957C58.4461 7.59032 59.1536 7.85161 59.9418 7.85161C60.6106 7.85161 61.3826 7.66774 61.9912 7.32796C62.3826 7.1086 62.7063 6.82688 62.8859 6.48495V4.58925ZM9.86757 4.78387C9.86757 3.09355 11.26 1.70215 12.9504 1.70215C14.6418 1.70215 16.0181 3.09355 16.0181 4.78387C16.0181 6.47527 14.6418 7.85161 12.9504 7.85161C11.26 7.85161 9.86757 6.47527 9.86757 4.78387ZM46.1859 2.71935C45.6192 2.0957 44.8192 1.70215 43.9192 1.70215C42.3633 1.70215 41.0375 2.89677 40.8611 4.42581H43.3665C43.7708 4.42581 44.188 4.25269 44.5912 4.00538C45.1848 3.64193 45.7461 3.11613 46.1859 2.71935Z" fill="#161617"/>
</svg>
