<svg width="20" height="20" viewBox="0 0 20 20" fill="none" xmlns="http://www.w3.org/2000/svg">
<path fill-rule="evenodd" clip-rule="evenodd" d="M10.3358 2.22656H12.534V-0.000165122H10.3358C8.65057 -0.00966393 6.9803 0.317446 5.42225 0.96212C3.86419 1.60679 2.44947 2.55615 1.26046 3.75491L0 5.06058V8.20836L2.86377 5.33386C3.84264 4.3457 5.00708 3.56225 6.28966 3.02888C7.57224 2.49551 8.94749 2.22281 10.3358 2.22656ZM12.534 5.45529V7.68202H10.3358C9.66264 7.6781 8.99552 7.80952 8.37379 8.06853C7.75205 8.32754 7.18829 8.70891 6.71574 9.19012L0 15.9209V12.7833L5.14268 7.61117C5.82448 6.92664 6.63413 6.38386 7.52525 6.01391C8.41637 5.64397 9.37146 5.45414 10.3358 5.45529H12.534ZM7.39133 17.7731H9.57949C10.9668 17.7766 12.3412 17.5047 13.6235 16.9732C14.9058 16.4416 16.0708 15.661 17.0515 14.676L19.9556 11.7913V14.9391L18.6548 16.2448C17.4648 17.4422 16.0499 18.3907 14.4921 19.0352C12.9342 19.6798 11.2645 20.0077 9.57949 19.9999H7.39133V17.7731ZM11.545 11.9284C12.1681 11.6696 12.7338 11.2893 13.2096 10.8096L19.9254 4.04845V7.21647L14.7726 12.3886C14.0918 13.0744 13.2823 13.6181 12.391 13.9881C11.4996 14.3582 10.5441 14.5473 9.57949 14.5444H7.39133V12.3177H9.57949C10.2538 12.3196 10.9219 12.1873 11.545 11.9284Z" fill="black"/>
</svg>
