<svg width="106" height="21" viewBox="0 0 106 21" fill="none" xmlns="http://www.w3.org/2000/svg">
<path d="M95.4615 7.11517V7.33883C95.4615 7.38399 95.4249 7.42055 95.3798 7.42055H94.826C94.7809 7.42055 94.7443 7.38399 94.7443 7.33883V6.7399C94.7443 6.71195 94.7594 6.68614 94.783 6.67109C95.4228 6.26463 96.4389 6.02808 97.3615 6.02808C98.8798 6.02808 100.393 6.68507 100.393 8.58291V12.741H100.587C100.632 12.741 100.669 12.7775 100.669 12.8227V13.3765C100.669 13.4216 100.632 13.4582 100.587 13.4582H99.7723C99.7271 13.4582 99.6905 13.4216 99.6905 13.3765V12.4464C98.9411 13.2033 97.7529 13.5969 96.7465 13.5969C95.0368 13.5969 93.654 12.5539 93.654 11.256C93.654 10.0378 94.7207 8.90119 96.7465 8.90119H99.6905V8.58291C99.6905 7.10442 98.4411 6.73023 97.3615 6.73023C96.6303 6.73023 95.9422 6.89904 95.4615 7.11517ZM49.7551 6.02808C47.6669 6.02808 45.9712 7.72377 45.9712 9.81195C45.9712 11.9001 47.6669 13.5969 49.7551 13.5969C51.8432 13.5969 53.5389 11.9001 53.5389 9.81195C53.5389 7.72377 51.8432 6.02808 49.7551 6.02808ZM55.0034 6.86786H54.8249C54.7798 6.86786 54.7432 6.8313 54.7432 6.78614V6.24851C54.7432 6.20334 54.7798 6.16679 54.8249 6.16679H55.6389C55.6841 6.16679 55.7206 6.20334 55.7206 6.24851V11.041C55.7206 11.6356 55.9239 12.0958 56.2895 12.4055C56.6583 12.7195 57.1895 12.8797 57.8357 12.8797C59.5454 12.8797 61.0411 11.4066 61.0411 9.39797V6.24851C61.0411 6.20334 61.0776 6.16679 61.1228 6.16679H61.6755C61.7206 6.16679 61.7583 6.20334 61.7583 6.24851V12.741H61.9529C61.9981 12.741 62.0346 12.7775 62.0346 12.8227V13.3765C62.0346 13.4216 61.9981 13.4582 61.9529 13.4582H61.1228C61.0776 13.4582 61.0411 13.4216 61.0411 13.3765V11.6571C60.3809 12.8367 59.2228 13.5969 57.8357 13.5969C56.9905 13.5969 56.2852 13.3528 55.7905 12.9152C55.2916 12.4743 55.0034 11.8356 55.0034 11.041V6.86786ZM77.6658 10.1711C77.8422 11.699 79.154 12.8797 80.7239 12.8797C81.6077 12.8797 82.4002 12.5055 82.969 11.9066C83.0002 11.8743 83.0508 11.8722 83.0841 11.9033L83.483 12.2711C83.4991 12.2861 83.5088 12.3066 83.5099 12.3292C83.511 12.3507 83.5024 12.3722 83.4873 12.3872C82.797 13.1259 81.8239 13.5969 80.7239 13.5969C78.6357 13.5969 76.94 11.9001 76.94 9.81195C76.94 7.72377 78.6518 6.02808 80.7239 6.02808C81.9809 6.02808 83.0798 6.64098 83.769 7.58076L83.9228 7.78076C83.9486 7.8141 83.9443 7.86248 83.9131 7.89152L83.7293 8.06033L83.7271 8.06248C83.3099 8.4141 82.626 9.09904 81.8465 9.59044C81.3153 9.92593 80.7389 10.1711 80.1712 10.1711H77.6658ZM69.9249 7.9055C70.6884 6.35711 72.0346 6.02808 72.9206 6.02808C73.7454 6.02808 74.3787 6.25818 74.8067 6.69044C75.2346 7.12162 75.4604 7.75926 75.4604 8.58291V12.741H75.6551C75.7002 12.741 75.7368 12.7775 75.7368 12.8227V13.3765C75.7368 13.4216 75.7002 13.4582 75.6551 13.4582H74.8411C74.7959 13.4582 74.7594 13.4216 74.7594 13.3765V8.58291C74.7594 8.00872 74.6303 7.54313 74.3336 7.22162C74.0368 6.90227 73.5755 6.73023 72.9206 6.73023C71.2271 6.73023 69.9766 8.20442 69.9766 10.227V13.3765C69.9766 13.4216 69.94 13.4582 69.8948 13.4582H69.3572C69.312 13.4582 69.2744 13.4216 69.2744 13.3765V8.58291C69.2744 8.00872 69.1465 7.54313 68.8497 7.22162C68.5529 6.90227 68.0916 6.73023 67.4368 6.73023C65.7432 6.73023 64.4916 8.20442 64.4916 10.227V13.3765C64.4916 13.4216 64.4551 13.4582 64.4099 13.4582H63.8572C63.812 13.4582 63.7755 13.4216 63.7755 13.3765V6.86786H63.5959C63.5508 6.86786 63.5142 6.8313 63.5142 6.78614V6.24851C63.5142 6.20334 63.5508 6.16679 63.5959 6.16679H64.4099C64.4551 6.16679 64.4916 6.20334 64.4916 6.24851V7.77969C65.2669 6.32055 66.6228 6.02808 67.4368 6.02808C68.197 6.02808 68.7905 6.21732 69.212 6.57539C69.5819 6.89044 69.8217 7.33668 69.9249 7.9055ZM38.454 7.96786C39.1153 6.78829 40.2723 6.02808 41.6594 6.02808C42.5045 6.02808 43.2099 6.27109 43.7056 6.7098C44.2034 7.15066 44.4916 7.78937 44.4916 8.58291V12.741H44.6862C44.7314 12.741 44.768 12.7775 44.768 12.8227V13.3765C44.768 13.4216 44.7314 13.4582 44.6862 13.4582H43.8561C43.811 13.4582 43.7744 13.4216 43.7744 13.3765V8.58291C43.7744 7.98829 43.5712 7.52485 43.2056 7.21087C42.8368 6.89367 42.3056 6.73023 41.6594 6.73023C39.9497 6.73023 38.454 8.21732 38.454 10.227V13.3765C38.454 13.4216 38.4174 13.4582 38.3723 13.4582H37.8196C37.7744 13.4582 37.7379 13.4216 37.7379 13.3765V6.86786H37.5583C37.5131 6.86786 37.4766 6.8313 37.4766 6.78614V6.24851C37.4766 6.20334 37.5131 6.16679 37.5583 6.16679H38.3723C38.4174 6.16679 38.454 6.20334 38.454 6.24851V7.96786ZM86.1368 7.96786C86.797 6.78829 87.9551 6.02808 89.3422 6.02808C90.1862 6.02808 90.8927 6.27109 91.3873 6.7098C91.8862 7.15066 92.1733 7.78937 92.1733 8.58291V12.741H92.368C92.4142 12.741 92.4508 12.7775 92.4508 12.8227V13.3765C92.4508 13.4216 92.4142 13.4582 92.368 13.4582H91.5389C91.4938 13.4582 91.4572 13.4216 91.4572 13.3765V8.58291C91.4572 7.98829 91.254 7.52485 90.8884 7.21087C90.5196 6.89367 89.9873 6.73023 89.3422 6.73023C87.6325 6.73023 86.1368 8.21732 86.1368 10.227V13.3765C86.1368 13.4216 86.1002 13.4582 86.0551 13.4582H85.5013C85.4561 13.4582 85.4196 13.4216 85.4196 13.3765V6.86786H85.2411C85.1959 6.86786 85.1583 6.8313 85.1583 6.78614V6.24851C85.1583 6.20334 85.1959 6.16679 85.2411 6.16679H86.0551C86.1002 6.16679 86.1368 6.20334 86.1368 6.24851V7.96786ZM99.6905 9.61732H96.7465C95.0905 9.61732 94.3551 10.4582 94.3551 11.256C94.3551 11.6152 94.526 11.9431 94.8099 12.2076C95.2508 12.6184 95.9583 12.8797 96.7465 12.8797C97.4153 12.8797 98.1873 12.6958 98.7959 12.356C99.1873 12.1367 99.511 11.855 99.6905 11.513V9.61732ZM46.6723 9.81195C46.6723 8.12162 48.0647 6.73023 49.7551 6.73023C51.4465 6.73023 52.8228 8.12162 52.8228 9.81195C52.8228 11.5033 51.4465 12.8797 49.7551 12.8797C48.0647 12.8797 46.6723 11.5033 46.6723 9.81195ZM82.9905 7.74743C82.4239 7.12378 81.6239 6.73023 80.7239 6.73023C79.168 6.73023 77.8422 7.92485 77.6658 9.45388H80.1712C80.5755 9.45388 80.9927 9.28076 81.3959 9.03345C81.9895 8.67001 82.5508 8.14421 82.9905 7.74743Z" fill="#161617"/>
<path fill-rule="evenodd" clip-rule="evenodd" d="M29.8047 10.8223L22.563 17.3286C19.7709 19.8357 15.9739 20.5973 12.5735 19.6099V18.7211L12.9281 18.8373C16.2343 19.59 19.4274 18.9048 21.999 16.7021L29.8047 9.68992V10.8223ZM11.675 8.71142C13.4743 7.24257 15.7002 7.02783 17.7433 8.13805L18.0358 8.33397V9.4132L17.9527 9.33793C16.2165 7.9211 13.974 7.9211 12.2389 9.33793L0.804688 19.6099V18.4765L11.675 8.71142ZM20.7481 14.3356C18.3992 16.2549 15.6382 16.7785 12.7519 15.8398L12.5735 15.7635V14.847L13.0489 15.0517C15.6249 15.8897 18.0879 15.4214 20.1842 13.7091L29.8047 5.06751V6.20098L20.7481 14.3356ZM9.86012 5.71948C12.2101 3.80122 14.9712 3.27655 17.8575 4.2152L18.0358 4.29158V5.20809L17.5594 5.00442C14.9845 4.1665 12.5204 4.63361 10.4241 6.34598L0.804688 14.9886V13.8552L9.86012 5.71948ZM18.9344 11.3436C17.1351 12.8136 14.908 13.0283 12.8649 11.917L12.5735 11.7211V10.643L12.6566 10.7171C14.3917 12.1351 16.6354 12.1351 18.3704 10.7171L29.8047 0.446214V1.57857L18.9344 11.3436ZM0.804688 9.23277L8.04638 2.72753C10.8374 0.220406 14.6344 -0.541139 18.0358 0.446214V1.33395L17.6813 1.21883C14.3751 0.466138 11.1819 1.15131 8.61033 3.35404L0.804688 10.3662V9.23277Z" fill="#161617"/>
</svg>
