<svg width="20" height="20" viewBox="0 0 20 20" fill="none" xmlns="http://www.w3.org/2000/svg">
<path fill-rule="evenodd" clip-rule="evenodd" d="M20 8.53306C19.8 7.31062 19.3799 6.13458 18.7603 5.06198L10 0L1.22934 5.06198C0.608663 6.13314 0.191848 7.31003 0 8.53306L10 2.75826L20 8.53306ZM0.185798 12.6446C0.375324 13.427 0.659804 14.1833 1.03291 14.8967L9.97919 9.73141L18.9255 14.8967C19.3017 14.1825 19.593 13.4266 19.7932 12.6446L9.99985 6.97314L0.185798 12.6446ZM5.70252 19.3078C4.8877 18.928 4.12691 18.4417 3.44013 17.8616L10 14.0702L16.56 17.8616C15.8695 18.4419 15.1053 18.9282 14.2872 19.3078L10 16.8285L5.70252 19.3078Z" fill="black"/>
</svg>
