<svg width="100" height="20" viewBox="0 0 100 20" fill="none" xmlns="http://www.w3.org/2000/svg">
<path fill-rule="evenodd" clip-rule="evenodd" d="M20 8.53306C19.8 7.31062 19.3799 6.13458 18.7603 5.06198L10 0L1.22934 5.06198C0.608663 6.13314 0.191848 7.31003 0 8.53306L10 2.75826L20 8.53306ZM0.185798 12.6446C0.375324 13.427 0.659804 14.1833 1.03291 14.8967L9.97919 9.73141L18.9255 14.8967C19.3017 14.1825 19.593 13.4266 19.7932 12.6446L9.99985 6.97314L0.185798 12.6446ZM5.70252 19.3078C4.8877 18.928 4.12691 18.4417 3.44013 17.8616L10 14.0702L16.56 17.8616C15.8695 18.4419 15.1053 18.9282 14.2872 19.3078L10 16.8285L5.70252 19.3078Z" fill="black"/>
<path fill-rule="evenodd" clip-rule="evenodd" d="M33.5566 6.74735C34.044 6.74735 34.439 6.35704 34.439 5.87557C34.439 5.39409 34.044 5.00378 33.5566 5.00378C33.0693 5.00378 32.6742 5.39409 32.6742 5.87557C32.6742 6.35704 33.0693 6.74735 33.5566 6.74735ZM28.4003 10.1494V14.7316H29.8461V10.3302C29.8461 9.37333 30.3246 8.97996 31.1219 8.97996C31.2842 8.95844 31.4487 8.95844 31.611 8.97996V7.76797C31.3787 7.70622 31.1389 7.67758 30.8987 7.68292C30.5636 7.64261 30.2239 7.6784 29.9046 7.78762C29.5853 7.89684 29.2948 8.07667 29.0547 8.31373C28.8146 8.55079 28.631 8.83897 28.5177 9.1568C28.4044 9.47463 28.3643 9.81393 28.4003 10.1494ZM32.8334 7.85302H34.2793V14.7529H32.8334V7.85302ZM38.1917 8.83112C38.4842 8.83608 38.7684 8.92899 39.0073 9.09776C39.2463 9.26653 39.4288 9.50333 39.5313 9.77732L40.5944 9.19259C40.4109 8.71427 40.0805 8.30641 39.6508 8.02754C39.221 7.74867 38.7139 7.61313 38.2023 7.64039C37.6503 7.61082 37.1084 7.79741 36.6917 8.16061C36.2749 8.52381 36.0159 9.03506 35.9697 9.58596C35.9745 10.0365 36.1222 10.4739 36.3916 10.835C36.6611 11.1962 37.0382 11.4624 37.4688 11.5953L38.2555 11.9674C38.904 12.2651 39.1698 12.5202 39.1698 12.903C39.1698 13.4558 38.7658 13.7429 38.1917 13.7429C37.8533 13.7573 37.5209 13.6508 37.254 13.4423C36.9871 13.2338 36.8031 12.9371 36.7352 12.6053L35.6189 13.2219C35.7613 13.7616 36.0879 14.2345 36.5422 14.5588C36.9966 14.883 37.55 15.0382 38.1067 14.9974C39.6163 14.9974 40.5519 14.1362 40.5519 12.9455C40.5486 12.4976 40.404 12.0622 40.1386 11.7014C39.8732 11.3406 39.5007 11.0728 39.0741 10.9362L38.1917 10.479C37.5432 10.192 37.2774 9.95806 37.2774 9.54343C37.2774 9.1288 37.692 8.83112 38.1917 8.83112ZM48.4503 9.91722C48.6054 10.3599 48.6673 10.8299 48.6321 11.2976C48.6422 11.4716 48.6351 11.646 48.6109 11.8186H43.1144C43.1828 12.3426 43.4439 12.8224 43.8469 13.1644C44.2498 13.5064 44.7656 13.6861 45.2939 13.6684C45.6734 13.6865 46.0515 13.6106 46.3946 13.4474C46.7377 13.2842 47.0352 13.0387 47.2607 12.7329L48.0793 13.6047C47.7553 14.043 47.3296 14.396 46.8387 14.6331C46.3479 14.8702 45.8067 14.9842 45.262 14.9655C44.7754 14.9817 44.2907 14.898 43.8378 14.7195C43.3849 14.5411 42.9733 14.2717 42.6286 13.928C42.2839 13.5842 42.0133 13.1735 41.8335 12.7211C41.6538 12.2687 41.5687 11.7842 41.5835 11.2976C41.5657 10.8135 41.6477 10.3308 41.8246 9.87978C42.0014 9.42873 42.2692 9.0189 42.6113 8.67582C42.9533 8.33275 43.3624 8.06377 43.8129 7.88563C44.2635 7.70749 44.7459 7.62401 45.2301 7.64039C45.6991 7.63907 46.1634 7.73477 46.5937 7.92147C47.0241 8.10817 47.4111 8.38184 47.7306 8.72529C48.0501 9.06874 48.2951 9.47455 48.4503 9.91722ZM43.7994 9.43554C43.4072 9.78065 43.1558 10.2581 43.0931 10.7767H47.2075C47.1854 10.2672 46.9652 9.78646 46.5939 9.43694C46.2225 9.08742 45.7293 8.89675 45.2194 8.90554C44.6971 8.90177 44.1916 9.09043 43.7994 9.43554Z" fill="black"/>
</svg>
