<svg width="69" height="11" viewBox="0 0 69 11" fill="none" xmlns="http://www.w3.org/2000/svg">
<path fill-rule="evenodd" clip-rule="evenodd" d="M5.55661 1.74735C6.04396 1.74735 6.43903 1.35704 6.43903 0.875566C6.43903 0.394094 6.04396 0.00378418 5.55661 0.00378418C5.06927 0.00378418 4.6742 0.394094 4.6742 0.875566C4.6742 1.35704 5.06927 1.74735 5.55661 1.74735ZM0.400254 5.14943V9.7316H1.84614V5.33016C1.84614 4.37333 2.32455 3.97996 3.12192 3.97996C3.28422 3.95844 3.44866 3.95844 3.61097 3.97996V2.76797C3.37872 2.70622 3.13891 2.67758 2.89866 2.68292C2.56365 2.64261 2.22386 2.6784 1.9046 2.78762C1.58534 2.89684 1.29483 3.07667 1.05471 3.31373C0.814582 3.55079 0.63103 3.83897 0.517718 4.1568C0.404407 4.47463 0.364256 4.81393 0.400254 5.14943ZM4.83339 2.85302H6.27928V9.75286H4.83339V2.85302ZM10.1917 3.83112C10.4842 3.83608 10.7684 3.92899 11.0073 4.09776C11.2463 4.26653 11.4288 4.50333 11.5313 4.77732L12.5944 4.19259C12.4109 3.71427 12.0805 3.30641 11.6508 3.02754C11.221 2.74867 10.7139 2.61313 10.2023 2.64039C9.6503 2.61082 9.10845 2.79741 8.69166 3.16061C8.27488 3.52381 8.01593 4.03506 7.96973 4.58596C7.97447 5.0365 8.12221 5.4739 8.39163 5.83504C8.66106 6.19619 9.03824 6.46241 9.46877 6.59531L10.2555 6.96741C10.904 7.26509 11.1698 7.52025 11.1698 7.90298C11.1698 8.45582 10.7658 8.74287 10.1917 8.74287C9.85334 8.75733 9.52089 8.65078 9.25397 8.44231C8.98705 8.23384 8.80313 7.9371 8.7352 7.6053L7.61889 8.22192C7.76128 8.76162 8.08792 9.23454 8.54225 9.55878C8.99658 9.88302 9.54999 10.0382 10.1067 9.99738C11.6163 9.99738 12.5519 9.13623 12.5519 7.94551C12.5486 7.49762 12.404 7.06221 12.1386 6.70139C11.8732 6.34056 11.5007 6.07275 11.0741 5.93615L10.1917 5.479C9.54319 5.19195 9.27741 4.95806 9.27741 4.54343C9.27741 4.1288 9.69204 3.83112 10.1917 3.83112ZM20.4503 4.91722C20.6054 5.3599 20.6673 5.82987 20.6321 6.29763C20.6422 6.47155 20.6351 6.64604 20.6109 6.81857H15.1144C15.1828 7.34263 15.4439 7.82242 15.8469 8.16442C16.2498 8.50642 16.7656 8.68611 17.2939 8.66845C17.6734 8.68653 18.0515 8.61059 18.3946 8.44737C18.7377 8.28416 19.0352 8.03873 19.2607 7.73288L20.0793 8.60466C19.7553 9.04303 19.3296 9.39598 18.8387 9.63307C18.3479 9.87015 17.8067 9.98424 17.262 9.96549C16.7754 9.9817 16.2907 9.89799 15.8378 9.71954C15.3849 9.54109 14.9733 9.27168 14.6286 8.92795C14.2839 8.58422 14.0133 8.17347 13.8335 7.72107C13.6538 7.26867 13.5687 6.78421 13.5835 6.29763C13.5657 5.81347 13.6477 5.33084 13.8246 4.87978C14.0014 4.42873 14.2692 4.0189 14.6113 3.67582C14.9533 3.33275 15.3624 3.06377 15.8129 2.88563C16.2635 2.70749 16.7459 2.62401 17.2301 2.64039C17.6991 2.63907 18.1634 2.73477 18.5937 2.92147C19.0241 3.10817 19.4111 3.38184 19.7306 3.72529C20.0501 4.06874 20.2951 4.47455 20.4503 4.91722ZM15.7994 4.43554C15.4072 4.78065 15.1558 5.25806 15.0931 5.77668H19.2075C19.1854 5.26719 18.9652 4.78646 18.5939 4.43694C18.2225 4.08742 17.7293 3.89675 17.2194 3.90554C16.6971 3.90177 16.1916 4.09043 15.7994 4.43554Z" fill="black"/>
</svg>
