
<!--
This is an auto-generated file. Do not modify.
If you want to add or update any Glass Icons, follow instructions from here:
https://communitycapitalnoumena.atlassian.net/wiki/spaces/NF/pages/1712488456/Glass+Icons
-->
<svg width="28" height="28" viewBox="0 0 28 28" fill="none" xmlns="http://www.w3.org/2000/svg">
<g id="Type=Event, State=Active">
<path id="back" d="M25.2682 12.183L22.68 21.8422C22.5274 22.4115 22.1776 22.903 21.7074 23.2084C21.2373 23.5139 20.6853 23.6084 20.173 23.4711L6.65 19.8476C6.13764 19.7103 5.70687 19.3525 5.45243 18.8529C5.198 18.3533 5.14076 17.7528 5.2933 17.1835L7.88149 7.52423L25.2682 12.183ZM22.4516 3.37612C22.7077 3.44477 22.9231 3.62367 23.0504 3.87348C23.1776 4.12329 23.2062 4.42355 23.1299 4.70819L22.8423 5.78144L24.7742 6.29908C25.2865 6.43637 25.7173 6.79418 25.9718 7.2938C26.2262 7.79343 26.2834 8.39393 26.1309 8.96322L25.2682 12.183L7.88149 7.52423L8.74422 4.30448C8.89676 3.73519 9.24659 3.24376 9.71675 2.93828C10.1869 2.63281 10.7389 2.53833 11.2512 2.67561L13.1831 3.19325L13.4707 2.12C13.5469 1.83536 13.7218 1.58964 13.9569 1.43691C14.192 1.28417 14.468 1.23693 14.7242 1.30557C14.9803 1.37421 15.1957 1.55312 15.3229 1.80293C15.4502 2.05274 15.4788 2.353 15.4025 2.63764L15.1149 3.71089L20.9105 5.2638L21.1981 4.19055C21.2743 3.90591 21.4492 3.66019 21.6843 3.50746C21.9194 3.35472 22.1954 3.30748 22.4516 3.37612Z" fill="url(#gradient-back-active)"/>
<g id="front" filter="url(#filter0_i_17291_105237)">
<path d="M23 11.7778V21.7778C23 22.3671 22.7893 22.9324 22.4142 23.3491C22.0391 23.7659 21.5304 24 21 24H7C6.46957 24 5.96086 23.7659 5.58579 23.3491C5.21071 22.9324 5 22.3671 5 21.7778V11.7778H23ZM18 4C18.2652 4 18.5196 4.11706 18.7071 4.32544C18.8946 4.53381 19 4.81643 19 5.11111V6.22222H21C21.5304 6.22222 22.0391 6.45635 22.4142 6.8731C22.7893 7.28984 23 7.85507 23 8.44444V11.7778H5V8.44444C5 7.85507 5.21071 7.28984 5.58579 6.8731C5.96086 6.45635 6.46957 6.22222 7 6.22222H9V5.11111C9 4.81643 9.10536 4.53381 9.29289 4.32544C9.48043 4.11706 9.73478 4 10 4C10.2652 4 10.5196 4.11706 10.7071 4.32544C10.8946 4.53381 11 4.81643 11 5.11111V6.22222H17V5.11111C17 4.81643 17.1054 4.53381 17.2929 4.32544C17.4804 4.11706 17.7348 4 18 4Z" fill="url(#gradient-front-active)"/>
</g>
<g id="element" filter="url(#filter1_dii_17291_105237)">
<rect x="7" y="11" width="14" height="2.5" rx="1.25" fill="var(--glass-icon-element)"/>
</g>
</g>
<defs>
<filter id="filter0_i_17291_105237" x="5" y="4" width="18" height="21" filterUnits="userSpaceOnUse" color-interpolation-filters="sRGB">
<feFlood flood-opacity="0" result="BackgroundImageFix"/>
<feBlend mode="normal" in="SourceGraphic" in2="BackgroundImageFix" result="shape"/>
<feColorMatrix in="SourceAlpha" type="matrix" values="0 0 0 0 0 0 0 0 0 0 0 0 0 0 0 0 0 0 127 0" result="hardAlpha"/>
<feOffset dy="1"/>
<feGaussianBlur stdDeviation="0.5"/>
<feComposite in2="hardAlpha" operator="arithmetic" k2="-1" k3="1"/>
<feColorMatrix type="matrix" values="0 0 0 0 1 0 0 0 0 1 0 0 0 0 1 0 0 0 0.25 0"/>
<feBlend mode="normal" in2="shape" result="effect1_innerShadow_17291_105237"/>
</filter>
<filter id="filter1_dii_17291_105237" x="5" y="10" width="18" height="6.5" filterUnits="userSpaceOnUse" color-interpolation-filters="sRGB">
<feFlood flood-opacity="0" result="BackgroundImageFix"/>
<feColorMatrix in="SourceAlpha" type="matrix" values="0 0 0 0 0 0 0 0 0 0 0 0 0 0 0 0 0 0 127 0" result="hardAlpha"/>
<feOffset dy="1"/>
<feGaussianBlur stdDeviation="1"/>
<feComposite in2="hardAlpha" operator="out"/>
<feColorMatrix type="matrix" values="0 0 0 0 0.521569 0 0 0 0 0.501961 0 0 0 0 0.568627 0 0 0 0.35 0"/>
<feBlend mode="normal" in2="BackgroundImageFix" result="effect1_dropShadow_17291_105237"/>
<feBlend mode="normal" in="SourceGraphic" in2="effect1_dropShadow_17291_105237" result="shape"/>
<feColorMatrix in="SourceAlpha" type="matrix" values="0 0 0 0 0 0 0 0 0 0 0 0 0 0 0 0 0 0 127 0" result="hardAlpha"/>
<feOffset dx="0.4" dy="-0.7"/>
<feGaussianBlur stdDeviation="0.2"/>
<feComposite in2="hardAlpha" operator="arithmetic" k2="-1" k3="1"/>
<feColorMatrix type="matrix" values="0 0 0 0 0.912405 0 0 0 0 0.845833 0 0 0 0 1 0 0 0 1 0"/>
<feBlend mode="normal" in2="shape" result="effect2_innerShadow_17291_105237"/>
<feColorMatrix in="SourceAlpha" type="matrix" values="0 0 0 0 0 0 0 0 0 0 0 0 0 0 0 0 0 0 127 0" result="hardAlpha"/>
<feOffset dx="-0.4" dy="0.2"/>
<feGaussianBlur stdDeviation="0.25"/>
<feComposite in2="hardAlpha" operator="arithmetic" k2="-1" k3="1"/>
<feColorMatrix type="matrix" values="0 0 0 0 1 0 0 0 0 1 0 0 0 0 1 0 0 0 1 0"/>
<feBlend mode="normal" in2="effect2_innerShadow_17291_105237" result="effect3_innerShadow_17291_105237"/>
</filter>
<linearGradient id="gradient-back-active" x1="8.56638" y1="4.9682" x2="24.6955" y2="16.2028" gradientUnits="userSpaceOnUse">
<stop stop-color="var(--glass-icon-back-active-gradient-from)"/>
<stop offset="1" stop-color="var(--glass-icon-back-active-gradient-to)"/>
</linearGradient>
<linearGradient id="gradient-back-hover" x1="8.56638" y1="4.9682" x2="24.6955" y2="16.2028" gradientUnits="userSpaceOnUse">
<stop stop-color="var(--glass-icon-back-hover-gradient-from)"/>
<stop offset="1" stop-color="var(--glass-icon-back-hover-gradient-to)"/>
</linearGradient>
<linearGradient id="gradient-front-active" x1="5" y1="9.13158" x2="23.4872" y2="15.8089" gradientUnits="userSpaceOnUse">
<stop stop-color="var(--glass-icon-front-active-gradient-from)"/>
<stop offset="1" stop-color="var(--glass-icon-front-active-gradient-to)"/>
</linearGradient>
<linearGradient id="gradient-front-hover" x1="5" y1="9.13158" x2="23.4872" y2="15.8089" gradientUnits="userSpaceOnUse">
<stop stop-color="var(--glass-icon-front-hover-gradient-from)"/>
<stop offset="1" stop-color="var(--glass-icon-front-hover-gradient-to)"/>
</linearGradient>
</defs>
</svg>
