
<!--
This is an auto-generated file. Do not modify.
If you want to add or update any Glass Icons, follow instructions from here:
https://communitycapitalnoumena.atlassian.net/wiki/spaces/NF/pages/1712488456/Glass+Icons
-->
<svg width="28" height="28" viewBox="0 0 28 28" fill="none" xmlns="http://www.w3.org/2000/svg">
<g id="Type=Events, State=Active">
<path id="back" d="M23 10.7778V20.7778C23 21.3671 22.7893 21.9324 22.4142 22.3491C22.0391 22.7659 21.5304 23 21 23H7C6.46957 23 5.96086 22.7659 5.58579 22.3491C5.21071 21.9324 5 21.3671 5 20.7778L5 10.7778H23ZM18 3C18.2652 3 18.5196 3.11706 18.7071 3.32544C18.8946 3.53381 19 3.81643 19 4.11111V5.22222H21C21.5304 5.22222 22.0391 5.45635 22.4142 5.8731C22.7893 6.28984 23 6.85507 23 7.44444V10.7778H5V7.44444C5 6.85507 5.21071 6.28984 5.58579 5.8731C5.96086 5.45635 6.46957 5.22222 7 5.22222H9V4.11111C9 3.81643 9.10536 3.53381 9.29289 3.32544C9.48043 3.11706 9.73478 3 10 3C10.2652 3 10.5196 3.11706 10.7071 3.32544C10.8946 3.53381 11 3.81643 11 4.11111V5.22222H17V4.11111C17 3.81643 17.1054 3.53381 17.2929 3.32544C17.4804 3.11706 17.7348 3 18 3Z" fill="url(#gradient-back-active)"/>
<g id="front" filter="url(#filter0_i_17420_105374)">
<path d="M23 10.7778V20.7778C23 21.3671 22.7893 21.9324 22.4142 22.3491C22.0391 22.7659 21.5304 23 21 23H7C6.46957 23 5.96086 22.7659 5.58579 22.3491C5.21071 21.9324 5 21.3671 5 20.7778V10.7778H23ZM18 3C18.2652 3 18.5196 3.11706 18.7071 3.32544C18.8946 3.53381 19 3.81643 19 4.11111V5.22222H21C21.5304 5.22222 22.0391 5.45635 22.4142 5.8731C22.7893 6.28984 23 6.85507 23 7.44444V10.7778H5V7.44444C5 6.85507 5.21071 6.28984 5.58579 5.8731C5.96086 5.45635 6.46957 5.22222 7 5.22222H9V4.11111C9 3.81643 9.10536 3.53381 9.29289 3.32544C9.48043 3.11706 9.73478 3 10 3C10.2652 3 10.5196 3.11706 10.7071 3.32544C10.8946 3.53381 11 3.81643 11 4.11111V5.22222H17V4.11111C17 3.81643 17.1054 3.53381 17.2929 3.32544C17.4804 3.11706 17.7348 3 18 3Z" fill="url(#gradient-front-active)"/>
</g>
<g id="element" filter="url(#filter1_dii_17420_105374)">
<rect x="8" y="10" width="12" height="2.5" rx="1.25" fill="var(--glass-icon-element)"/>
</g>
</g>
<defs>
<filter id="filter0_i_17420_105374" x="5" y="3" width="18" height="21" filterUnits="userSpaceOnUse" color-interpolation-filters="sRGB">
<feFlood flood-opacity="0" result="BackgroundImageFix"/>
<feBlend mode="normal" in="SourceGraphic" in2="BackgroundImageFix" result="shape"/>
<feColorMatrix in="SourceAlpha" type="matrix" values="0 0 0 0 0 0 0 0 0 0 0 0 0 0 0 0 0 0 127 0" result="hardAlpha"/>
<feOffset dy="1"/>
<feGaussianBlur stdDeviation="0.5"/>
<feComposite in2="hardAlpha" operator="arithmetic" k2="-1" k3="1"/>
<feColorMatrix type="matrix" values="0 0 0 0 1 0 0 0 0 1 0 0 0 0 1 0 0 0 0.25 0"/>
<feBlend mode="normal" in2="shape" result="effect1_innerShadow_17420_105374"/>
</filter>
<filter id="filter1_dii_17420_105374" x="6" y="9" width="16" height="6.5" filterUnits="userSpaceOnUse" color-interpolation-filters="sRGB">
<feFlood flood-opacity="0" result="BackgroundImageFix"/>
<feColorMatrix in="SourceAlpha" type="matrix" values="0 0 0 0 0 0 0 0 0 0 0 0 0 0 0 0 0 0 127 0" result="hardAlpha"/>
<feOffset dy="1"/>
<feGaussianBlur stdDeviation="1"/>
<feComposite in2="hardAlpha" operator="out"/>
<feColorMatrix type="matrix" values="0 0 0 0 0.521569 0 0 0 0 0.501961 0 0 0 0 0.568627 0 0 0 0.35 0"/>
<feBlend mode="normal" in2="BackgroundImageFix" result="effect1_dropShadow_17420_105374"/>
<feBlend mode="normal" in="SourceGraphic" in2="effect1_dropShadow_17420_105374" result="shape"/>
<feColorMatrix in="SourceAlpha" type="matrix" values="0 0 0 0 0 0 0 0 0 0 0 0 0 0 0 0 0 0 127 0" result="hardAlpha"/>
<feOffset dx="0.4" dy="-0.7"/>
<feGaussianBlur stdDeviation="0.2"/>
<feComposite in2="hardAlpha" operator="arithmetic" k2="-1" k3="1"/>
<feColorMatrix type="matrix" values="0 0 0 0 0.912405 0 0 0 0 0.845833 0 0 0 0 1 0 0 0 1 0"/>
<feBlend mode="normal" in2="shape" result="effect2_innerShadow_17420_105374"/>
<feColorMatrix in="SourceAlpha" type="matrix" values="0 0 0 0 0 0 0 0 0 0 0 0 0 0 0 0 0 0 127 0" result="hardAlpha"/>
<feOffset dx="-0.4" dy="0.2"/>
<feGaussianBlur stdDeviation="0.25"/>
<feComposite in2="hardAlpha" operator="arithmetic" k2="-1" k3="1"/>
<feColorMatrix type="matrix" values="0 0 0 0 1 0 0 0 0 1 0 0 0 0 1 0 0 0 1 0"/>
<feBlend mode="normal" in2="effect2_innerShadow_17420_105374" result="effect3_innerShadow_17420_105374"/>
</filter>
<linearGradient id="gradient-back-active" x1="5" y1="8.13158" x2="23.4872" y2="14.8089" gradientUnits="userSpaceOnUse">
<stop stop-color="var(--glass-icon-back-active-gradient-from)"/>
<stop offset="1" stop-color="var(--glass-icon-back-active-gradient-to)"/>
</linearGradient>
<linearGradient id="gradient-back-hover" x1="5" y1="8.13158" x2="23.4872" y2="14.8089" gradientUnits="userSpaceOnUse">
<stop stop-color="var(--glass-icon-back-hover-gradient-from)"/>
<stop offset="1" stop-color="var(--glass-icon-back-hover-gradient-to)"/>
</linearGradient>
<linearGradient id="gradient-front-active" x1="5" y1="8.13158" x2="23.4872" y2="14.8089" gradientUnits="userSpaceOnUse">
<stop stop-color="var(--glass-icon-front-active-gradient-from)"/>
<stop offset="1" stop-color="var(--glass-icon-front-active-gradient-to)"/>
</linearGradient>
<linearGradient id="gradient-front-hover" x1="5" y1="8.13158" x2="23.4872" y2="14.8089" gradientUnits="userSpaceOnUse">
<stop stop-color="var(--glass-icon-front-hover-gradient-from)"/>
<stop offset="1" stop-color="var(--glass-icon-front-hover-gradient-to)"/>
</linearGradient>
</defs>
</svg>
