
<!--
This is an auto-generated file. Do not modify.
If you want to add or update any Glass Icons, follow instructions from here:
https://communitycapitalnoumena.atlassian.net/wiki/spaces/NF/pages/1712488456/Glass+Icons
-->
<svg width="28" height="28" viewBox="0 0 28 28" fill="none" xmlns="http://www.w3.org/2000/svg">
<g id="Type=Invoices, State=Active">
<path id="back" fill-rule="evenodd" clip-rule="evenodd" d="M10.2123 2.68483C10.3839 2.04439 10.8199 1.50288 11.4243 1.17945C12.0287 0.856022 12.752 0.777155 13.4352 0.960204L19.3415 2.5428C20.0245 2.72597 20.6114 3.156 20.973 3.7383L24.2654 9.03853C24.6272 9.62073 24.7341 10.3076 24.5626 10.948L21.7849 21.3148C21.6132 21.9553 21.1773 22.4968 20.5729 22.8202C19.9685 23.1436 19.2452 23.2225 18.562 23.0395L8.2588 20.2787C7.57565 20.0957 6.98866 19.6657 6.62694 19.0834C6.26523 18.5011 6.15843 17.8142 6.33004 17.1737L10.2123 2.68483Z" fill="url(#gradient-back-active)"/>
<g id="front" filter="url(#filter0_i_17291_105317)">
<path fill-rule="evenodd" clip-rule="evenodd" d="M6 6.50024C6 5.8372 6.28095 5.20132 6.78105 4.73248C7.28115 4.26364 7.95942 4.00024 8.66667 4.00024H14.7813C15.4885 4.00039 16.1667 4.26387 16.6667 4.73274L21.2187 9.00024C21.7188 9.46898 21.9998 10.1048 22 10.7677V21.5002C22 22.1633 21.719 22.7992 21.219 23.268C20.7189 23.7369 20.0406 24.0002 19.3333 24.0002H8.66667C7.95942 24.0002 7.28115 23.7369 6.78105 23.268C6.28095 22.7992 6 22.1633 6 21.5002V6.50024Z" fill="url(#gradient-front-active)"/>
</g>
<g id="element" filter="url(#filter1_dii_17291_105317)">
<path d="M17 16.2127C17 16.9097 16.7709 17.4708 16.3128 17.896C15.8546 18.3168 15.4011 18.5688 14.5764 18.6521V20H13.3819V18.6784C12.4098 18.6565 11.7451 18.468 11.012 18.113V16.3772C11.3586 16.5656 11.775 16.7323 12.261 16.8769C12.751 17.0215 12.9993 17.107 13.3818 17.1333V15.095L13.1693 14.9241C12.3805 14.5821 11.8207 14.2118 11.49 13.8129C11.1634 13.4096 11 12.9121 11 12.3203C11 11.6847 11.2251 11.1632 11.6753 10.7555C12.1295 10.3435 12.5731 10.0936 13.3818 10.006V9H14.5763V9.9797C15.4886 10.0235 16.1254 10.2252 16.8625 10.5846L16.3007 12.1231C15.6793 11.8426 15.2297 11.6716 14.5763 11.6103V13.55C15.3532 13.8787 15.717 14.1637 16.0438 14.4047C16.3745 14.6458 16.6155 14.911 16.7669 15.2004C16.9222 15.4896 17 15.8271 17 16.2127ZM15.2011 16.3115C15.2011 16.1274 15.1334 15.9718 14.9979 15.8446C14.8625 15.7175 14.8471 15.586 14.5763 15.4501V17.0873C15.1181 16.9864 15.2011 16.7278 15.2011 16.3115ZM12.7989 12.3203C12.7989 12.5132 12.8586 12.6732 12.9781 12.8003C13.1017 12.923 13.111 13.0501 13.3818 13.1816V11.6366C12.8678 11.7199 12.7989 11.9478 12.7989 12.3203Z" fill="var(--glass-icon-element)"/>
</g>
</g>
<defs>
<filter id="filter0_i_17291_105317" x="6" y="4.00024" width="16" height="21" filterUnits="userSpaceOnUse" color-interpolation-filters="sRGB">
<feFlood flood-opacity="0" result="BackgroundImageFix"/>
<feBlend mode="normal" in="SourceGraphic" in2="BackgroundImageFix" result="shape"/>
<feColorMatrix in="SourceAlpha" type="matrix" values="0 0 0 0 0 0 0 0 0 0 0 0 0 0 0 0 0 0 127 0" result="hardAlpha"/>
<feOffset dy="1"/>
<feGaussianBlur stdDeviation="0.5"/>
<feComposite in2="hardAlpha" operator="arithmetic" k2="-1" k3="1"/>
<feColorMatrix type="matrix" values="0 0 0 0 1 0 0 0 0 1 0 0 0 0 1 0 0 0 0.25 0"/>
<feBlend mode="normal" in2="shape" result="effect1_innerShadow_17291_105317"/>
</filter>
<filter id="filter1_dii_17291_105317" x="9" y="8" width="10" height="15" filterUnits="userSpaceOnUse" color-interpolation-filters="sRGB">
<feFlood flood-opacity="0" result="BackgroundImageFix"/>
<feColorMatrix in="SourceAlpha" type="matrix" values="0 0 0 0 0 0 0 0 0 0 0 0 0 0 0 0 0 0 127 0" result="hardAlpha"/>
<feOffset dy="1"/>
<feGaussianBlur stdDeviation="1"/>
<feComposite in2="hardAlpha" operator="out"/>
<feColorMatrix type="matrix" values="0 0 0 0 0.521569 0 0 0 0 0.501961 0 0 0 0 0.568627 0 0 0 0.35 0"/>
<feBlend mode="normal" in2="BackgroundImageFix" result="effect1_dropShadow_17291_105317"/>
<feBlend mode="normal" in="SourceGraphic" in2="effect1_dropShadow_17291_105317" result="shape"/>
<feColorMatrix in="SourceAlpha" type="matrix" values="0 0 0 0 0 0 0 0 0 0 0 0 0 0 0 0 0 0 127 0" result="hardAlpha"/>
<feOffset dx="0.4" dy="-0.7"/>
<feGaussianBlur stdDeviation="0.2"/>
<feComposite in2="hardAlpha" operator="arithmetic" k2="-1" k3="1"/>
<feColorMatrix type="matrix" values="0 0 0 0 0.912405 0 0 0 0 0.845833 0 0 0 0 1 0 0 0 1 0"/>
<feBlend mode="normal" in2="shape" result="effect2_innerShadow_17291_105317"/>
<feColorMatrix in="SourceAlpha" type="matrix" values="0 0 0 0 0 0 0 0 0 0 0 0 0 0 0 0 0 0 127 0" result="hardAlpha"/>
<feOffset dx="-0.4" dy="0.2"/>
<feGaussianBlur stdDeviation="0.25"/>
<feComposite in2="hardAlpha" operator="arithmetic" k2="-1" k3="1"/>
<feColorMatrix type="matrix" values="0 0 0 0 1 0 0 0 0 1 0 0 0 0 1 0 0 0 1 0"/>
<feBlend mode="normal" in2="effect2_innerShadow_17291_105317" result="effect3_innerShadow_17291_105317"/>
</filter>
<linearGradient id="gradient-back-active" x1="9.53122" y1="5.22674" x2="24.399" y2="14.8081" gradientUnits="userSpaceOnUse">
<stop stop-color="var(--glass-icon-back-active-gradient-from)"/>
<stop offset="1" stop-color="var(--glass-icon-back-active-gradient-to)"/>
</linearGradient>
<linearGradient id="gradient-back-hover" x1="9.53122" y1="5.22674" x2="24.399" y2="14.8081" gradientUnits="userSpaceOnUse">
<stop stop-color="var(--glass-icon-back-hover-gradient-from)"/>
<stop offset="1" stop-color="var(--glass-icon-back-hover-gradient-to)"/>
</linearGradient>
<linearGradient id="gradient-front-active" x1="6" y1="9.13182" x2="22.841" y2="14.5387" gradientUnits="userSpaceOnUse">
<stop stop-color="var(--glass-icon-front-active-gradient-from)"/>
<stop offset="1" stop-color="var(--glass-icon-front-active-gradient-to)"/>
</linearGradient>
<linearGradient id="gradient-front-hover" x1="6" y1="9.13182" x2="22.841" y2="14.5387" gradientUnits="userSpaceOnUse">
<stop stop-color="var(--glass-icon-front-hover-gradient-from)"/>
<stop offset="1" stop-color="var(--glass-icon-front-hover-gradient-to)"/>
</linearGradient>
</defs>
</svg>
