
<!--
This is an auto-generated file. Do not modify.
If you want to add or update any Glass Icons, follow instructions from here:
https://communitycapitalnoumena.atlassian.net/wiki/spaces/NF/pages/1712488456/Glass+Icons
-->
<svg width="28" height="28" viewBox="0 0 28 28" fill="none" xmlns="http://www.w3.org/2000/svg">
<g id="Type=My Profile, State=Active">
<rect id="back" x="8.92969" y="-0.247559" width="20.0003" height="20.0003" rx="3" fill="url(#gradient-back-active)" style="--x: 8.92969px; --y: -0.247559px; --rotate: 15deg;" />
<g id="front" filter="url(#filter0_i_17291_105277)">
<rect x="4" y="4" width="20.0003" height="20.0003" rx="3" fill="url(#gradient-front-active)"/>
</g>
<g id="element" filter="url(#filter1_dii_17291_105277)">
<path d="M14 14.6C15.4642 14.6 16.7958 15.0164 17.7754 15.6026C18.2643 15.8966 18.6823 16.2416 18.9842 16.6166C19.2812 16.9862 19.5 17.4278 19.5 17.9C19.5 18.407 19.2488 18.8066 18.8871 19.0916C18.5448 19.3616 18.0932 19.5404 17.6135 19.6652C16.6492 19.9154 15.3622 20 14 20C12.6378 20 11.3508 19.916 10.3865 19.6652C9.90678 19.5404 9.45517 19.3616 9.11294 19.0916C8.75056 18.806 8.5 18.407 8.5 17.9C8.5 17.4278 8.71878 16.9862 9.01578 16.6166C9.31767 16.2416 9.73506 15.8966 10.2246 15.6026C11.2042 15.0164 12.5364 14.6 14 14.6ZM14 8C14.8104 8 15.5876 8.31607 16.1606 8.87868C16.7336 9.44129 17.0556 10.2044 17.0556 11C17.0556 11.7956 16.7336 12.5587 16.1606 13.1213C15.5876 13.6839 14.8104 14 14 14C13.1896 14 12.4124 13.6839 11.8394 13.1213C11.2664 12.5587 10.9444 11.7956 10.9444 11C10.9444 10.2044 11.2664 9.44129 11.8394 8.87868C12.4124 8.31607 13.1896 8 14 8Z" fill="var(--glass-icon-element)"/>
</g>
</g>
<defs>
<filter id="filter0_i_17291_105277" x="4" y="4" width="20" height="21.0004" filterUnits="userSpaceOnUse" color-interpolation-filters="sRGB">
<feFlood flood-opacity="0" result="BackgroundImageFix"/>
<feBlend mode="normal" in="SourceGraphic" in2="BackgroundImageFix" result="shape"/>
<feColorMatrix in="SourceAlpha" type="matrix" values="0 0 0 0 0 0 0 0 0 0 0 0 0 0 0 0 0 0 127 0" result="hardAlpha"/>
<feOffset dy="1"/>
<feGaussianBlur stdDeviation="0.5"/>
<feComposite in2="hardAlpha" operator="arithmetic" k2="-1" k3="1"/>
<feColorMatrix type="matrix" values="0 0 0 0 1 0 0 0 0 1 0 0 0 0 1 0 0 0 0.25 0"/>
<feBlend mode="normal" in2="shape" result="effect1_innerShadow_17291_105277"/>
</filter>
<filter id="filter1_dii_17291_105277" x="6.5" y="7" width="15" height="16" filterUnits="userSpaceOnUse" color-interpolation-filters="sRGB">
<feFlood flood-opacity="0" result="BackgroundImageFix"/>
<feColorMatrix in="SourceAlpha" type="matrix" values="0 0 0 0 0 0 0 0 0 0 0 0 0 0 0 0 0 0 127 0" result="hardAlpha"/>
<feOffset dy="1"/>
<feGaussianBlur stdDeviation="1"/>
<feComposite in2="hardAlpha" operator="out"/>
<feColorMatrix type="matrix" values="0 0 0 0 0.521569 0 0 0 0 0.501961 0 0 0 0 0.568627 0 0 0 0.35 0"/>
<feBlend mode="normal" in2="BackgroundImageFix" result="effect1_dropShadow_17291_105277"/>
<feBlend mode="normal" in="SourceGraphic" in2="effect1_dropShadow_17291_105277" result="shape"/>
<feColorMatrix in="SourceAlpha" type="matrix" values="0 0 0 0 0 0 0 0 0 0 0 0 0 0 0 0 0 0 127 0" result="hardAlpha"/>
<feOffset dx="0.4" dy="-0.7"/>
<feGaussianBlur stdDeviation="0.2"/>
<feComposite in2="hardAlpha" operator="arithmetic" k2="-1" k3="1"/>
<feColorMatrix type="matrix" values="0 0 0 0 0.912405 0 0 0 0 0.845833 0 0 0 0 1 0 0 0 1 0"/>
<feBlend mode="normal" in2="shape" result="effect2_innerShadow_17291_105277"/>
<feColorMatrix in="SourceAlpha" type="matrix" values="0 0 0 0 0 0 0 0 0 0 0 0 0 0 0 0 0 0 127 0" result="hardAlpha"/>
<feOffset dx="-0.4" dy="0.2"/>
<feGaussianBlur stdDeviation="0.25"/>
<feComposite in2="hardAlpha" operator="arithmetic" k2="-1" k3="1"/>
<feColorMatrix type="matrix" values="0 0 0 0 1 0 0 0 0 1 0 0 0 0 1 0 0 0 1 0"/>
<feBlend mode="normal" in2="effect2_innerShadow_17291_105277" result="effect3_innerShadow_17291_105277"/>
</filter>
<linearGradient id="gradient-back-active" x1="8.92969" y1="4.88411" x2="28.93" y2="12.9106" gradientUnits="userSpaceOnUse">
<stop stop-color="var(--glass-icon-back-active-gradient-from)"/>
<stop offset="1" stop-color="var(--glass-icon-back-active-gradient-to)"/>
</linearGradient>
<linearGradient id="gradient-back-hover" x1="8.92969" y1="4.88411" x2="28.93" y2="12.9106" gradientUnits="userSpaceOnUse">
<stop stop-color="var(--glass-icon-back-hover-gradient-from)"/>
<stop offset="1" stop-color="var(--glass-icon-back-hover-gradient-to)"/>
</linearGradient>
<linearGradient id="gradient-front-active" x1="4" y1="9.13167" x2="24.0003" y2="17.1581" gradientUnits="userSpaceOnUse">
<stop stop-color="var(--glass-icon-front-active-gradient-from)"/>
<stop offset="1" stop-color="var(--glass-icon-front-active-gradient-to)"/>
</linearGradient>
<linearGradient id="gradient-front-hover" x1="4" y1="9.13167" x2="24.0003" y2="17.1581" gradientUnits="userSpaceOnUse">
<stop stop-color="var(--glass-icon-front-hover-gradient-from)"/>
<stop offset="1" stop-color="var(--glass-icon-front-hover-gradient-to)"/>
</linearGradient>
</defs>
</svg>
