
<!--
This is an auto-generated file. Do not modify.
If you want to add or update any Glass Icons, follow instructions from here:
https://communitycapitalnoumena.atlassian.net/wiki/spaces/NF/pages/1712488456/Glass+Icons
-->
<svg width="28" height="28" viewBox="0 0 28 28" fill="none" xmlns="http://www.w3.org/2000/svg">
<g id="Type=Tools, State=Active">
<path id="back" d="M5.94303 18.6228C5.41177 18.4805 5.00755 18.1692 4.73036 17.6891C4.45318 17.209 4.386 16.7038 4.52882 16.1733L8.15229 2.65036C8.29464 2.1191 8.60586 1.71488 9.08596 1.43769C9.56606 1.16051 10.0713 1.09332 10.6018 1.23615L15.197 2.46744C15.9656 2.67337 16.6208 3.17617 17.0187 3.86522L17.1902 4.16239C17.588 4.85144 18.2433 5.35424 19.0118 5.56017L25.5389 7.3091C26.0702 7.45145 26.4744 7.76268 26.7516 8.24278C27.0288 8.72288 27.096 9.22815 26.9532 9.75859L23.8473 21.3497C23.705 21.881 23.3938 22.2852 22.9137 22.5624C22.4336 22.8396 21.9283 22.9067 21.3978 22.7639L5.94303 18.6228Z" fill="url(#gradient-back-active)"/>
<g id="front" filter="url(#filter0_i_17290_105232)">
<path d="M6 23C5.45 23 4.979 22.804 4.587 22.412C4.195 22.02 3.99933 21.5493 4 21L4 7C4 6.45 4.196 5.979 4.588 5.587C4.98 5.195 5.45067 4.99934 6 5L10.7574 5C11.553 5 12.3161 5.31607 12.8787 5.87868L13.1213 6.12132C13.6839 6.68393 14.447 7 15.2426 7L22 7C22.55 7 23.021 7.196 23.413 7.588C23.805 7.98 24.0007 8.45067 24 9L24 21C24 21.55 23.804 22.021 23.412 22.413C23.02 22.805 22.5493 23.0007 22 23L6 23Z" fill="url(#gradient-front-active)"/>
</g>
<g id="element" filter="url(#filter1_dii_17290_105232)">
<path d="M18.7875 17.7278L16.5006 15.4409C16.0494 14.9897 15.3756 14.9019 14.8327 15.1694L12.7508 13.0876L12.7508 11.8748L10.2509 10L9.00098 11.2499L10.8759 13.7496L12.0887 13.7496L14.1706 15.8315C13.905 16.3744 13.9909 17.0481 14.4421 17.4993L16.7291 19.7862C17.0142 20.0713 17.4751 20.0713 17.7583 19.7862L18.7875 18.757C19.0707 18.4718 19.0707 18.0109 18.7875 17.7278ZM15.4791 14.3941C16.0318 14.3941 16.5513 14.6089 16.9419 14.9995L17.3208 15.3784C17.6294 15.2436 17.9224 15.0561 18.1762 14.8023C18.9008 14.0777 19.1469 13.0583 18.9164 12.1326C18.8735 11.9568 18.6528 11.8963 18.5239 12.0252L17.0708 13.4782L15.7447 13.2575L15.5241 11.9315L16.9771 10.4785C17.106 10.3496 17.0435 10.1289 16.8658 10.084C15.94 9.85548 14.9206 10.1016 14.198 10.8241C13.6413 11.3807 13.3796 12.115 13.3933 12.8474L14.9967 14.4507C15.1549 14.4136 15.319 14.3941 15.4791 14.3941ZM13.4499 15.9955L12.3426 14.8882L9.36619 17.8664C8.87793 18.3546 8.87793 19.1456 9.36619 19.6338C9.85444 20.1221 10.6454 20.1221 11.1337 19.6338L13.5476 17.22C13.3992 16.8314 13.3542 16.4076 13.4499 15.9955Z" fill="var(--glass-icon-element)"/>
</g>
</g>
<defs>
<filter id="filter0_i_17290_105232" x="4" y="5" width="20" height="19" filterUnits="userSpaceOnUse" color-interpolation-filters="sRGB">
<feFlood flood-opacity="0" result="BackgroundImageFix"/>
<feBlend mode="normal" in="SourceGraphic" in2="BackgroundImageFix" result="shape"/>
<feColorMatrix in="SourceAlpha" type="matrix" values="0 0 0 0 0 0 0 0 0 0 0 0 0 0 0 0 0 0 127 0" result="hardAlpha"/>
<feOffset dy="1"/>
<feGaussianBlur stdDeviation="0.5"/>
<feComposite in2="hardAlpha" operator="arithmetic" k2="-1" k3="1"/>
<feColorMatrix type="matrix" values="0 0 0 0 1 0 0 0 0 1 0 0 0 0 1 0 0 0 0.25 0"/>
<feBlend mode="normal" in2="shape" result="effect1_innerShadow_17290_105232"/>
</filter>
<filter id="filter1_dii_17290_105232" x="7" y="9" width="14" height="14" filterUnits="userSpaceOnUse" color-interpolation-filters="sRGB">
<feFlood flood-opacity="0" result="BackgroundImageFix"/>
<feColorMatrix in="SourceAlpha" type="matrix" values="0 0 0 0 0 0 0 0 0 0 0 0 0 0 0 0 0 0 127 0" result="hardAlpha"/>
<feOffset dy="1"/>
<feGaussianBlur stdDeviation="1"/>
<feComposite in2="hardAlpha" operator="out"/>
<feColorMatrix type="matrix" values="0 0 0 0 0.521569 0 0 0 0 0.501961 0 0 0 0 0.568627 0 0 0 0.35 0"/>
<feBlend mode="normal" in2="BackgroundImageFix" result="effect1_dropShadow_17290_105232"/>
<feBlend mode="normal" in="SourceGraphic" in2="effect1_dropShadow_17290_105232" result="shape"/>
<feColorMatrix in="SourceAlpha" type="matrix" values="0 0 0 0 0 0 0 0 0 0 0 0 0 0 0 0 0 0 127 0" result="hardAlpha"/>
<feOffset dx="0.4" dy="-0.7"/>
<feGaussianBlur stdDeviation="0.2"/>
<feComposite in2="hardAlpha" operator="arithmetic" k2="-1" k3="1"/>
<feColorMatrix type="matrix" values="0 0 0 0 0.912405 0 0 0 0 0.845833 0 0 0 0 1 0 0 0 1 0"/>
<feBlend mode="normal" in2="shape" result="effect2_innerShadow_17290_105232"/>
<feColorMatrix in="SourceAlpha" type="matrix" values="0 0 0 0 0 0 0 0 0 0 0 0 0 0 0 0 0 0 127 0" result="hardAlpha"/>
<feOffset dx="-0.4" dy="0.2"/>
<feGaussianBlur stdDeviation="0.25"/>
<feComposite in2="hardAlpha" operator="arithmetic" k2="-1" k3="1"/>
<feColorMatrix type="matrix" values="0 0 0 0 1 0 0 0 0 1 0 0 0 0 1 0 0 0 1 0"/>
<feBlend mode="normal" in2="effect2_innerShadow_17290_105232" result="effect3_innerShadow_17290_105232"/>
</filter>
<linearGradient id="gradient-back-active" x1="7.47459" y1="5.17956" x2="23.9489" y2="18.5356" gradientUnits="userSpaceOnUse">
<stop stop-color="var(--glass-icon-back-active-gradient-from)"/>
<stop offset="1" stop-color="var(--glass-icon-back-active-gradient-to)"/>
</linearGradient>
<linearGradient id="gradient-back-hover" x1="7.47459" y1="5.17956" x2="23.9489" y2="18.5356" gradientUnits="userSpaceOnUse">
<stop stop-color="var(--glass-icon-back-hover-gradient-from)"/>
<stop offset="1" stop-color="var(--glass-icon-back-hover-gradient-to)"/>
</linearGradient>
<linearGradient id="gradient-front-active" x1="4" y1="9.61842" x2="23.3697" y2="18.2555" gradientUnits="userSpaceOnUse">
<stop stop-color="var(--glass-icon-front-active-gradient-from)"/>
<stop offset="1" stop-color="var(--glass-icon-front-active-gradient-to)"/>
</linearGradient>
<linearGradient id="gradient-front-hover" x1="4" y1="9.61842" x2="23.3697" y2="18.2555" gradientUnits="userSpaceOnUse">
<stop stop-color="var(--glass-icon-front-hover-gradient-from)"/>
<stop offset="1" stop-color="var(--glass-icon-front-hover-gradient-to)"/>
</linearGradient>
</defs>
</svg>
