<svg width="16" height="16" viewBox="0 0 16 16" fill="none" xmlns="http://www.w3.org/2000/svg">
<path d="M1 3.52778C1 2.85737 1.26632 2.21442 1.74037 1.74037C2.21442 1.26632 2.85737 1 3.52778 1H12.4722C13.1426 1 13.7856 1.26632 14.2596 1.74037C14.7337 2.21442 15 2.85737 15 3.52778V12.4722C15 13.1426 14.7337 13.7856 14.2596 14.2596C13.7856 14.7337 13.1426 15 12.4722 15H3.52778C2.85737 15 2.21442 14.7337 1.74037 14.2596C1.26632 13.7856 1 13.1426 1 12.4722V3.52778ZM8.58333 4.69444C8.58333 4.53973 8.52187 4.39136 8.41248 4.28197C8.30308 4.17257 8.15471 4.11111 8 4.11111C7.84529 4.11111 7.69692 4.17257 7.58752 4.28197C7.47813 4.39136 7.41667 4.53973 7.41667 4.69444V7.41667H4.69444C4.53973 7.41667 4.39136 7.47813 4.28197 7.58752C4.17257 7.69692 4.11111 7.84529 4.11111 8C4.11111 8.15471 4.17257 8.30308 4.28197 8.41248C4.39136 8.52187 4.53973 8.58333 4.69444 8.58333H7.41667V11.3056C7.41667 11.4603 7.47813 11.6086 7.58752 11.718C7.69692 11.8274 7.84529 11.8889 8 11.8889C8.15471 11.8889 8.30308 11.8274 8.41248 11.718C8.52187 11.6086 8.58333 11.4603 8.58333 11.3056V8.58333H11.3056C11.4603 8.58333 11.6086 8.52187 11.718 8.41248C11.8274 8.30308 11.8889 8.15471 11.8889 8C11.8889 7.84529 11.8274 7.69692 11.718 7.58752C11.6086 7.47813 11.4603 7.41667 11.3056 7.41667H8.58333V4.69444Z" fill="#0C0024"/>
</svg>
