<svg width="24" height="24" viewBox="0 0 24 24" fill="none" xmlns="http://www.w3.org/2000/svg">
  <path d="M2.75 21C2.55109 21 2.36032 20.921 2.21967 20.7803C2.07902 20.6397 2 20.4489 2 20.25C2 20.0511 2.07902 19.8603 2.21967 19.7197C2.36032 19.579 2.55109 19.5 2.75 19.5H21.25C21.4489 19.5 21.6397 19.579 21.7803 19.7197C21.921 19.8603 22 20.0511 22 20.25C22 20.4489 21.921 20.6397 21.7803 20.7803C21.6397 20.921 21.4489 21 21.25 21H2.75ZM4 15.75C4 16.3467 4.23705 16.919 4.65901 17.341C5.08097 17.7629 5.65326 18 6.25 18H8.75C9.34674 18 9.91903 17.7629 10.341 17.341C10.7629 16.919 11 16.3467 11 15.75V5.25C11 4.65326 10.7629 4.08097 10.341 3.65901C9.91903 3.23705 9.34674 3 8.75 3H6.25C5.65326 3 5.08097 3.23705 4.65901 3.65901C4.23705 4.08097 4 4.65326 4 5.25V15.75ZM6.25 16.5C6.05109 16.5 5.86032 16.421 5.71967 16.2803C5.57902 16.1397 5.5 15.9489 5.5 15.75V5.25C5.5 5.05109 5.57902 4.86032 5.71967 4.71967C5.86032 4.57902 6.05109 4.5 6.25 4.5H8.75C8.94891 4.5 9.13968 4.57902 9.28033 4.71967C9.42098 4.86032 9.5 5.05109 9.5 5.25V15.75C9.5 15.9489 9.42098 16.1397 9.28033 16.2803C9.13968 16.421 8.94891 16.5 8.75 16.5H6.25ZM13 15.75C13 16.3467 13.2371 16.919 13.659 17.341C14.081 17.7629 14.6533 18 15.25 18H17.75C18.0455 18 18.3381 17.9418 18.611 17.8287C18.884 17.7157 19.1321 17.5499 19.341 17.341C19.5499 17.1321 19.7157 16.884 19.8287 16.611C19.9418 16.3381 20 16.0455 20 15.75V8.75C20 8.45453 19.9418 8.16194 19.8287 7.88896C19.7157 7.61598 19.5499 7.36794 19.341 7.15901C19.1321 6.95008 18.884 6.78434 18.611 6.67127C18.3381 6.5582 18.0455 6.5 17.75 6.5H15.25C14.6533 6.5 14.081 6.73705 13.659 7.15901C13.2371 7.58097 13 8.15326 13 8.75V15.75ZM15.25 16.5C15.0511 16.5 14.8603 16.421 14.7197 16.2803C14.579 16.1397 14.5 15.9489 14.5 15.75V8.75C14.5 8.55109 14.579 8.36032 14.7197 8.21967C14.8603 8.07902 15.0511 8 15.25 8H17.75C17.9489 8 18.1397 8.07902 18.2803 8.21967C18.421 8.36032 18.5 8.55109 18.5 8.75V15.75C18.5 15.9489 18.421 16.1397 18.2803 16.2803C18.1397 16.421 17.9489 16.5 17.75 16.5H15.25Z" fill="#0C0024" stroke="#0C0024" stroke-width="0.3"/>
</svg>