<svg width="24" height="24" viewBox="0 0 24 24" fill="none" xmlns="http://www.w3.org/2000/svg">
  <path d="M21.25 12.75C21.4489 12.75 21.6397 12.671 21.7803 12.5303C21.921 12.3897 22 12.1989 22 12C22 11.8011 21.921 11.6103 21.7803 11.4697C21.6397 11.329 21.4489 11.25 21.25 11.25H20V8.75C20 8.45453 19.9418 8.16194 19.8287 7.88896C19.7157 7.61598 19.5499 7.36794 19.341 7.15901C19.1321 6.95008 18.884 6.78434 18.611 6.67127C18.3381 6.5582 18.0455 6.5 17.75 6.5H15.25C14.6533 6.5 14.081 6.73705 13.659 7.15901C13.2371 7.58097 13 8.15326 13 8.75V11.25H11V6.75C11 6.15326 10.7629 5.58097 10.341 5.15901C9.91903 4.73705 9.34674 4.5 8.75 4.5H6.25C5.65326 4.5 5.08097 4.73705 4.65901 5.15901C4.23705 5.58097 4 6.15326 4 6.75V11.25H2.75C2.55109 11.25 2.36032 11.329 2.21967 11.4697C2.07902 11.6103 2 11.8011 2 12C2 12.1989 2.07902 12.3897 2.21967 12.5303C2.36032 12.671 2.55109 12.75 2.75 12.75H4V17.25C4 17.8467 4.23705 18.419 4.65901 18.841C5.08097 19.2629 5.65326 19.5 6.25 19.5H8.75C9.34674 19.5 9.91903 19.2629 10.341 18.841C10.7629 18.419 11 17.8467 11 17.25V12.75H13V15.25C13 15.8467 13.2371 16.419 13.659 16.841C14.081 17.2629 14.6533 17.5 15.25 17.5H17.75C18.0455 17.5 18.3381 17.4418 18.611 17.3287C18.884 17.2157 19.1321 17.0499 19.341 16.841C19.5499 16.6321 19.7157 16.384 19.8287 16.111C19.9418 15.8381 20 15.5455 20 15.25V12.75H21.25ZM18.5 8.75V15.25C18.5 15.4489 18.421 15.6397 18.2803 15.7803C18.1397 15.921 17.9489 16 17.75 16H15.25C15.0511 16 14.8603 15.921 14.7197 15.7803C14.579 15.6397 14.5 15.4489 14.5 15.25V8.75C14.5 8.55109 14.579 8.36032 14.7197 8.21967C14.8603 8.07902 15.0511 8 15.25 8H17.75C17.9489 8 18.1397 8.07902 18.2803 8.21967C18.421 8.36032 18.5 8.55109 18.5 8.75ZM9.5 6.75V17.25C9.5 17.4489 9.42098 17.6397 9.28033 17.7803C9.13968 17.921 8.94891 18 8.75 18H6.25C6.05109 18 5.86032 17.921 5.71967 17.7803C5.57902 17.6397 5.5 17.4489 5.5 17.25V6.75C5.5 6.55109 5.57902 6.36032 5.71967 6.21967C5.86032 6.07902 6.05109 6 6.25 6H8.75C8.94891 6 9.13968 6.07902 9.28033 6.21967C9.42098 6.36032 9.5 6.55109 9.5 6.75Z" fill="#0C0024" stroke="#0C0024" stroke-width="0.3"/>
</svg>