<svg width="18" height="19" viewBox="0 0 18 19" fill="none" xmlns="http://www.w3.org/2000/svg">
<path d="M10.1091 10.2097L16.8581 10.2175C17.154 10.2175 17.4377 10.1 17.647 9.89076C17.8562 9.68154 17.9737 9.39777 17.9737 9.10188C17.9737 8.80598 17.8562 8.52221 17.647 8.31299C17.4377 8.10376 17.154 7.98622 16.8581 7.98622L10.1091 7.99408L10.117 1.24513C10.117 0.949244 9.99946 0.665472 9.79023 0.456245C9.581 0.247019 9.29723 0.129477 9.00134 0.129477C8.70545 0.129477 8.42168 0.247019 8.21245 0.456245C8.00323 0.665472 7.88568 0.949244 7.88568 1.24513L7.89354 7.99408L1.1446 7.98622C0.99792 7.98562 0.852574 8.01406 0.716945 8.06992C0.581315 8.12577 0.458088 8.20793 0.354369 8.31165C0.250651 8.41536 0.168495 8.53859 0.112641 8.67422C0.0567869 8.80985 0.0283404 8.9552 0.0289416 9.10188C0.0283406 9.24855 0.0567864 9.3939 0.11264 9.52953C0.168494 9.66516 0.250651 9.78839 0.354369 9.89211C0.458088 9.99582 0.581315 10.078 0.716944 10.1338C0.852574 10.1897 0.997921 10.2181 1.1446 10.2175L7.89354 10.2097L7.88568 16.9586C7.88508 17.1053 7.91353 17.2506 7.96938 17.3863C8.02524 17.5219 8.10739 17.6451 8.21111 17.7488C8.31483 17.8526 8.43806 17.9347 8.57369 17.9906C8.70932 18.0464 8.85466 18.0749 9.00134 18.0743C9.14802 18.0749 9.29337 18.0464 9.429 17.9906C9.56462 17.9347 9.68785 17.8526 9.79157 17.7488C9.89529 17.6451 9.97744 17.5219 10.0333 17.3863C10.0892 17.2506 10.1176 17.1053 10.117 16.9586L10.1091 10.2097Z" fill="#0C0024"/>
</svg>
