<svg width="18" height="24" viewBox="0 0 18 24" fill="none" xmlns="http://www.w3.org/2000/svg">
<path d="M13.4056 0.934365C13.3586 0.88175 11.6624 0.955134 10.1864 2.55712C8.71044 4.15772 8.93751 5.99371 8.97074 6.04078C9.00397 6.08786 11.0753 6.16124 12.3976 4.29895C13.7199 2.43666 13.4527 0.988365 13.4056 0.934365ZM17.9942 17.1799C17.9277 17.047 14.775 15.4713 15.0685 12.4418C15.3621 9.41091 17.3878 8.58015 17.4196 8.49015C17.4514 8.40015 16.593 7.39631 15.6833 6.88816C15.0154 6.5299 14.2762 6.32464 13.5192 6.28724C13.3696 6.28309 12.8504 6.1557 11.7829 6.44786C11.0795 6.64032 9.49412 7.26339 9.05797 7.28831C8.62044 7.31323 7.31891 6.56555 5.91908 6.36755C5.02324 6.19447 4.0734 6.54893 3.39356 6.8217C2.71511 7.09308 1.42465 7.86569 0.521893 9.91906C-0.380869 11.971 0.0912811 15.2221 0.429124 16.2328C0.766968 17.2422 1.2945 18.8968 2.19172 20.1042C2.98926 21.4667 4.04709 22.4123 4.48878 22.7336C4.93047 23.0548 6.17661 23.268 7.04061 22.8263C7.73568 22.3999 8.99013 22.1548 9.48582 22.1728C9.98012 22.1908 10.9549 22.386 11.9532 22.9191C12.7438 23.1919 13.4915 23.0783 14.2405 22.7737C14.9896 22.4677 16.0738 21.3074 17.3393 18.955C17.8197 17.8611 18.0385 17.2699 17.9942 17.1799Z" fill="#0C0024"/>
<path d="M13.4056 0.934365C13.3586 0.88175 11.6624 0.955134 10.1864 2.55712C8.71044 4.15772 8.93751 5.99371 8.97074 6.04078C9.00397 6.08786 11.0753 6.16124 12.3976 4.29895C13.7199 2.43666 13.4527 0.988365 13.4056 0.934365ZM17.9942 17.1799C17.9277 17.047 14.775 15.4713 15.0685 12.4418C15.3621 9.41091 17.3878 8.58015 17.4196 8.49015C17.4514 8.40015 16.593 7.39631 15.6833 6.88816C15.0154 6.5299 14.2762 6.32464 13.5192 6.28724C13.3696 6.28309 12.8504 6.1557 11.7829 6.44786C11.0795 6.64032 9.49412 7.26339 9.05797 7.28831C8.62044 7.31323 7.31891 6.56555 5.91908 6.36755C5.02324 6.19447 4.0734 6.54893 3.39356 6.8217C2.71511 7.09308 1.42465 7.86569 0.521893 9.91906C-0.380869 11.971 0.0912811 15.2221 0.429124 16.2328C0.766968 17.2422 1.2945 18.8968 2.19172 20.1042C2.98926 21.4667 4.04709 22.4123 4.48878 22.7336C4.93047 23.0548 6.17661 23.268 7.04061 22.8263C7.73568 22.3999 8.99013 22.1548 9.48582 22.1728C9.98012 22.1908 10.9549 22.386 11.9532 22.9191C12.7438 23.1919 13.4915 23.0783 14.2405 22.7737C14.9896 22.4677 16.0738 21.3074 17.3393 18.955C17.8197 17.8611 18.0385 17.2699 17.9942 17.1799Z" fill="#0C0024"/>
</svg>
