<svg width="24" height="24" viewBox="0 0 24 24" fill="none" xmlns="http://www.w3.org/2000/svg">
<path fill-rule="evenodd" clip-rule="evenodd" d="M11.3073 4.0859C11.4439 4.14261 11.5681 4.22572 11.6725 4.33047C11.7773 4.43496 11.8604 4.5591 11.9171 4.69576C11.9738 4.83242 12.003 4.97893 12.003 5.12689C12.003 5.27485 11.9738 5.42135 11.9171 5.55801C11.8604 5.69468 11.7773 5.81881 11.6725 5.9233L6.84276 10.7513H19.8751C20.1735 10.7513 20.4596 10.8698 20.6705 11.0807C20.8815 11.2917 21 11.5778 21 11.8761C21 12.1745 20.8815 12.4606 20.6705 12.6715C20.4596 12.8825 20.1735 13.001 19.8751 13.001H6.84275L11.6725 17.829C11.8838 18.0402 12.0024 18.3267 12.0024 18.6254C12.0024 18.9241 11.8838 19.2106 11.6725 19.4218C11.4613 19.633 11.1748 19.7517 10.8761 19.7517C10.5774 19.7517 10.2909 19.633 10.0797 19.4218L3.33047 12.6725C3.22572 12.5681 3.1426 12.4439 3.0859 12.3073C3.02919 12.1706 3 12.0241 3 11.8761C3 11.7282 3.02919 11.5817 3.0859 11.445C3.1426 11.3083 3.22572 11.1842 3.33047 11.0797L10.0797 4.33047C10.1842 4.22572 10.3083 4.14261 10.445 4.0859C10.5817 4.02919 10.7282 4 10.8761 4C11.0241 4 11.1706 4.02919 11.3073 4.0859Z" fill="#0C0024"/>
</svg>
