<svg width="24" height="24" viewBox="0 0 24 24" fill="none" xmlns="http://www.w3.org/2000/svg">
<path fill-rule="evenodd" clip-rule="evenodd" d="M8.3 13.375V9.20838C8.3 8.63769 8.76264 8.17505 9.33334 8.17505C9.90403 8.17505 10.3667 8.63769 10.3667 9.20838V13.375C10.3667 13.853 10.5222 14.2758 10.818 14.5808C11.1145 14.8866 11.529 15.05 12 15.05C12.471 15.05 12.8855 14.8866 13.182 14.5808C13.4778 14.2758 13.6333 13.853 13.6333 13.375V7.18755C13.6333 5.10563 12.041 3.45005 10 3.45005C7.95902 3.45005 6.36667 5.10563 6.36667 7.18755V14.75C6.36667 17.932 8.89235 20.5501 12 20.5501C15.1077 20.5501 17.6333 17.932 17.6333 14.75V7.83338C17.6333 7.26269 18.096 6.80005 18.6667 6.80005C19.2374 6.80005 19.7 7.26269 19.7 7.83338V14.75C19.7 19.1306 16.2257 22.7001 12 22.7001C7.77432 22.7001 4.3 19.1306 4.3 14.75V7.18755C4.3 3.90697 6.84099 1.30005 10 1.30005C13.159 1.30005 15.7 3.90697 15.7 7.18755V13.375C15.7 15.5556 14.0924 17.2 12 17.2C9.90766 17.2 8.3 15.5556 8.3 13.375Z" fill="#0C0024"/>
</svg>
