<svg width="56" height="56" viewBox="0 0 56 56" fill="none" xmlns="http://www.w3.org/2000/svg">
<path d="M0 28C0 16.7643 0 11.1465 2.69649 7.11088C3.86382 5.36383 5.36383 3.86382 7.11088 2.69649C11.1465 0 16.7643 0 28 0C39.2357 0 44.8535 0 48.8891 2.69649C50.6362 3.86382 52.1362 5.36383 53.3035 7.11088C56 11.1465 56 16.7643 56 28C56 39.2357 56 44.8535 53.3035 48.8891C52.1362 50.6362 50.6362 52.1362 48.8891 53.3035C44.8535 56 39.2357 56 28 56C16.7643 56 11.1465 56 7.11088 53.3035C5.36383 52.1362 3.86382 50.6362 2.69649 48.8891C0 44.8535 0 39.2357 0 28Z" fill="#0056FF"/>
<path d="M31.0582 22.8305H36.0488V24.0413H31.0582V22.8305ZM26.0575 27.621C27.1607 27.0932 27.7386 26.2902 27.7386 25.0494C27.7386 22.5954 25.9124 22 23.8036 22H18V34.3177H23.9662C26.2026 34.3177 28.3014 33.242 28.3014 30.7405C28.3014 29.1945 27.571 28.0513 26.0575 27.621ZM20.7067 24.1013H23.2458C24.2239 24.1013 25.1019 24.374 25.1019 25.5097C25.1019 26.5553 24.419 26.9756 23.4509 26.9756H20.7067V24.1013ZM23.596 32.2264H20.7042V28.8343H23.6535C24.8443 28.8343 25.5972 29.3321 25.5972 30.5929C25.5972 31.8336 24.6992 32.2264 23.596 32.2264ZM38 29.9875C38 27.3483 36.4565 25.1495 33.6648 25.1495C30.9506 25.1495 29.1044 27.1932 29.1044 29.8724C29.1044 32.6492 30.853 34.5553 33.6648 34.5553C35.7936 34.5553 37.172 33.5972 37.8349 31.5535H35.676C35.4409 32.3164 34.4853 32.7167 33.7423 32.7167C32.3064 32.7167 31.556 31.8762 31.556 30.4478H37.9825C37.99 30.3002 38 30.1451 38 29.9875ZM31.556 28.9018C31.6335 27.7286 32.4165 26.9956 33.5872 26.9956C34.818 26.9956 35.4334 27.7186 35.541 28.9018H31.556Z" fill="white"/>
</svg>
