<svg width="24" height="24" viewBox="0 0 24 24" fill="none" xmlns="http://www.w3.org/2000/svg">
<path d="M10.1585 13.817C10.1585 14.7647 9.47098 15.0643 8.62634 15.0643H6.41161V12.4665H8.67054C9.58393 12.4714 10.1585 12.8496 10.1585 13.817ZM9.78036 9.77545C9.78036 8.90625 9.10759 8.7 8.36116 8.7H6.41652V10.9H8.51339C9.25491 10.9 9.78036 10.5759 9.78036 9.77545ZM16.2772 10.9147C15.3786 10.9147 14.7795 11.4746 14.7205 12.3732H17.775C17.6915 11.4647 17.2201 10.9147 16.2772 10.9147ZM23 3.35714V20.6429C23 21.9442 21.9442 23 20.6429 23H3.35714C2.0558 23 1 21.9442 1 20.6429V3.35714C1 2.0558 2.0558 1 3.35714 1H20.6429C21.9442 1 23 2.0558 23 3.35714ZM14.3424 8.51339H18.1629V7.58527H14.3424V8.51339ZM12.2308 13.9299C12.2308 12.7464 11.671 11.725 10.5121 11.396C11.3567 10.9933 11.7987 10.5268 11.7987 9.57902C11.7987 7.70312 10.3991 7.24643 8.78348 7.24643H4.33929V16.675H8.91116C10.625 16.6652 12.2308 15.8451 12.2308 13.9299ZM19.6607 13.2031C19.6607 11.1848 18.4772 9.50045 16.3411 9.50045C14.2589 9.50045 12.8496 11.0621 12.8496 13.1147C12.8496 15.2411 14.1902 16.6996 16.3411 16.6996C17.9714 16.6996 19.0272 15.9679 19.5379 14.4013H17.883C17.7013 14.9857 16.9696 15.2902 16.4 15.2902C15.3 15.2902 14.7254 14.6469 14.7254 13.5567H19.646C19.6509 13.4438 19.6607 13.321 19.6607 13.2031Z" fill="#0C0024"/>
</svg>
