<svg width="92" height="12" viewBox="0 0 92 12" fill="none" xmlns="http://www.w3.org/2000/svg">
<path d="M6.88295 0C8.04797 0 9.00685 0.403403 9.75984 1.20992C10.527 2.01643 10.9107 3.13105 10.9107 4.55348V11.3067H8.16182V4.90544C8.16182 4.17229 7.96982 3.61484 7.58639 3.23365C7.20267 2.83785 6.69124 2.63966 6.05208 2.63966C5.34185 2.63966 4.7735 2.86708 4.3473 3.32164C3.92111 3.7762 3.70788 4.45819 3.70788 5.3676V11.3067H0.958984V0.308107H3.70788V1.53994C4.37563 0.513314 5.43389 0 6.88295 0ZM22.3358 9.943C21.2422 11.0573 19.9067 11.6148 18.3296 11.6148C16.7528 11.6148 15.4173 11.0573 14.3234 9.943C13.2436 8.81377 12.7038 7.43518 12.7038 5.80725C12.7038 4.17961 13.2436 2.80833 14.3234 1.69371C15.4173 0.56447 16.7528 0 18.3296 0C19.9067 0 21.2422 0.56447 22.3358 1.69371C23.4298 2.80833 23.9769 4.17961 23.9769 5.80725C23.9769 7.43518 23.4298 8.81377 22.3358 9.943ZM16.2626 7.98504C16.8168 8.55711 17.5058 8.843 18.3296 8.843C19.1537 8.843 19.8427 8.55711 20.3969 7.98504C20.9508 7.41326 21.228 6.68713 21.228 5.80725C21.228 4.92736 20.9508 4.20153 20.3969 3.62975C19.8427 3.05767 19.1537 2.77179 18.3296 2.77179C17.5058 2.77179 16.8168 3.05767 16.2626 3.62975C15.7229 4.20153 15.453 4.92736 15.453 5.80725C15.453 6.68713 15.7229 7.41326 16.2626 7.98504ZM32.9431 0.308107H35.692V11.3067H32.9431V10.0748C32.2754 11.1015 31.2168 11.6148 29.7678 11.6148C28.603 11.6148 27.6368 11.2114 26.8696 10.4049C26.1167 9.59836 25.7403 8.48374 25.7403 7.0613V0.308107H28.4892V6.70935C28.4892 7.44249 28.6809 8.00725 29.0646 8.40306C29.448 8.78424 29.9598 8.97513 30.5989 8.97513C31.3092 8.97513 31.8775 8.7477 32.3037 8.29314C32.7299 7.83858 32.9431 7.1566 32.9431 6.24719V0.308107ZM49.994 0C51.216 0 52.189 0.410711 52.9137 1.23184C53.6522 2.05326 54.0218 3.15297 54.0218 4.53156V11.3067H51.2726V4.72946C51.2726 4.06969 51.1166 3.55638 50.8039 3.18981C50.4913 2.82294 50.051 2.63966 49.4829 2.63966C48.8576 2.63966 48.3674 2.85247 48.0123 3.27779C47.6713 3.70283 47.5009 4.31875 47.5009 5.12555V11.3067H44.752V4.72946C44.752 4.06969 44.5957 3.55638 44.283 3.18981C43.9704 2.82294 43.53 2.63966 42.962 2.63966C42.3511 2.63966 41.8609 2.85247 41.4914 3.27779C41.1363 3.70283 40.9587 4.31875 40.9587 5.12555V11.3067H38.2098V0.308107H40.9587V1.47388C41.5981 0.491389 42.5853 0 43.9208 0C45.2277 0 46.1937 0.52793 46.819 1.58379C47.5295 0.52793 48.5877 0 49.994 0ZM58.6793 6.97331C59.0486 8.3519 60.0502 9.0409 61.6839 9.0409C62.7354 9.0409 63.5309 8.67433 64.0706 7.94119L66.2868 9.26102C65.2357 10.8302 63.6872 11.6148 61.6415 11.6148C59.8798 11.6148 58.4661 11.0646 57.4008 9.96493C56.3351 8.86492 55.8025 7.47903 55.8025 5.80725C55.8025 4.15008 56.3281 2.77179 57.3792 1.67178C58.4307 0.557162 59.7804 0 61.4282 0C62.9909 0 64.2768 0.557162 65.2855 1.67178C66.3081 2.7864 66.8198 4.16499 66.8198 5.80725C66.8198 6.17411 66.7841 6.5626 66.713 6.97331H58.6793ZM58.6366 4.7736H64.0706C63.9143 4.02555 63.5875 3.46839 63.0905 3.10182C62.6074 2.73495 62.0532 2.55167 61.4282 2.55167C60.6894 2.55167 60.0786 2.74957 59.5955 3.14566C59.1126 3.52685 58.7929 4.06969 58.6366 4.7736ZM74.6629 0C75.8279 0 76.7868 0.403403 77.5398 1.20992C78.307 2.01643 78.6904 3.13105 78.6904 4.55348V11.3067H75.9415V4.90544C75.9415 4.17229 75.7498 3.61484 75.3661 3.23365C74.9826 2.83785 74.4712 2.63966 73.8318 2.63966C73.1215 2.63966 72.5532 2.86708 72.127 3.32164C71.7008 3.7762 71.4878 4.45819 71.4878 5.3676V11.3067H68.7387V0.308107H71.4878V1.53994C72.1553 0.513314 73.2139 0 74.6629 0ZM89.1354 0.308107H91.8846V11.3067H89.1354V10.0088C88.3116 11.0793 87.1537 11.6148 85.6621 11.6148C84.2414 11.6148 83.0197 11.0573 81.9966 9.943C80.9882 8.81377 80.4835 7.43518 80.4835 5.80725C80.4835 4.17961 80.9882 2.80833 81.9966 1.69371C83.0197 0.56447 84.2414 0 85.6621 0C87.1537 0 88.3116 0.535238 89.1354 1.60601V0.308107ZM84.0638 8.0511C84.6178 8.62317 85.3209 8.90907 86.1736 8.90907C87.026 8.90907 87.7291 8.62317 88.283 8.0511C88.8514 7.46441 89.1354 6.71666 89.1354 5.80725C89.1354 4.89813 88.8514 4.15739 88.283 3.58561C87.7291 2.99921 87.026 2.70572 86.1736 2.70572C85.3209 2.70572 84.6178 2.99921 84.0638 3.58561C83.5097 4.15739 83.2327 4.89813 83.2327 5.80725C83.2327 6.71666 83.5097 7.46441 84.0638 8.0511Z" fill="#0C0024"/>
</svg>
