<svg width="40" height="40" viewBox="0 0 40 40" fill="none" xmlns="http://www.w3.org/2000/svg">
<path d="M0 8C0 3.58172 3.58172 0 8 0H32C36.4183 0 40 3.58172 40 8V32C40 36.4183 36.4183 40 32 40H8C3.58172 40 0 36.4183 0 32V8Z" fill="white"/>
<path fill-rule="evenodd" clip-rule="evenodd" d="M11 14C11 13.4477 11.4477 13 12 13H28C28.5523 13 29 13.4477 29 14C29 14.5523 28.5523 15 28 15H12C11.4477 15 11 14.5523 11 14ZM11 20C11 19.4477 11.4477 19 12 19H28C28.5523 19 29 19.4477 29 20C29 20.5523 28.5523 21 28 21H12C11.4477 21 11 20.5523 11 20ZM20 26C20 25.4477 20.4477 25 21 25H28C28.5523 25 29 25.4477 29 26C29 26.5523 28.5523 27 28 27H21C20.4477 27 20 26.5523 20 26Z" fill="#20113E"/>
</svg>
