<svg width="20" height="20" viewBox="0 0 20 20" fill="none" xmlns="http://www.w3.org/2000/svg">
<path d="M16.9999 4.5H13.9999V3.5C13.9999 2.70435 13.6839 1.94129 13.1213 1.37868C12.5587 0.816071 11.7956 0.5 10.9999 0.5H8.99994C8.20429 0.5 7.44123 0.816071 6.87862 1.37868C6.31601 1.94129 5.99994 2.70435 5.99994 3.5V4.5H2.99994C2.20429 4.5 1.44123 4.81607 0.878619 5.37868C0.31601 5.94129 -6.10352e-05 6.70435 -6.10352e-05 7.5V16.5C-6.10352e-05 17.2956 0.31601 18.0587 0.878619 18.6213C1.44123 19.1839 2.20429 19.5 2.99994 19.5H16.9999C17.7956 19.5 18.5587 19.1839 19.1213 18.6213C19.6839 18.0587 19.9999 17.2956 19.9999 16.5V7.5C19.9999 6.70435 19.6839 5.94129 19.1213 5.37868C18.5587 4.81607 17.7956 4.5 16.9999 4.5ZM7.99994 3.5C7.99994 3.23478 8.1053 2.98043 8.29283 2.79289C8.48037 2.60536 8.73472 2.5 8.99994 2.5H10.9999C11.2652 2.5 11.5195 2.60536 11.707 2.79289C11.8946 2.98043 11.9999 3.23478 11.9999 3.5V4.5H7.99994V3.5ZM17.9999 16.5C17.9999 16.7652 17.8946 17.0196 17.707 17.2071C17.5195 17.3946 17.2652 17.5 16.9999 17.5H2.99994C2.73472 17.5 2.48037 17.3946 2.29283 17.2071C2.1053 17.0196 1.99994 16.7652 1.99994 16.5V11C4.5462 12.0101 7.26063 12.5293 9.99994 12.53C12.7392 12.5283 15.4534 12.0092 17.9999 11V16.5ZM17.9999 8.81C15.4783 9.91778 12.7541 10.4898 9.99994 10.4898C7.24573 10.4898 4.52154 9.91778 1.99994 8.81V7.5C1.99994 7.23478 2.1053 6.98043 2.29283 6.79289C2.48037 6.60536 2.73472 6.5 2.99994 6.5H16.9999C17.2652 6.5 17.5195 6.60536 17.707 6.79289C17.8946 6.98043 17.9999 7.23478 17.9999 7.5V8.81Z" fill="#0C0024"/>
</svg>
