<svg width="16" height="16" viewBox="0 0 16 16" fill="none" xmlns="http://www.w3.org/2000/svg">
<path fill-rule="evenodd" clip-rule="evenodd" d="M5.33333 1.33337C5.70152 1.33337 6 1.63185 6 2.00004V2.66671H10V2.00004C10 1.63185 10.2985 1.33337 10.6667 1.33337C11.0349 1.33337 11.3333 1.63185 11.3333 2.00004V2.66671H12C12.5304 2.66671 13.0391 2.87742 13.4142 3.25249C13.7893 3.62757 14 4.13627 14 4.66671V12.6667C14 13.1971 13.7893 13.7058 13.4142 14.0809C13.0391 14.456 12.5304 14.6667 12 14.6667H4C3.46957 14.6667 2.96086 14.456 2.58579 14.0809C2.21071 13.7058 2 13.1971 2 12.6667V4.66671C2 4.13627 2.21071 3.62757 2.58579 3.25249C2.96086 2.87742 3.46957 2.66671 4 2.66671H4.66667V2.00004C4.66667 1.63185 4.96514 1.33337 5.33333 1.33337ZM4 4.00004C3.82319 4.00004 3.65362 4.07028 3.5286 4.1953C3.40357 4.32033 3.33333 4.4899 3.33333 4.66671V5.33337H12.6667V4.66671C12.6667 4.4899 12.5964 4.32033 12.4714 4.1953C12.3464 4.07028 12.1768 4.00004 12 4.00004H4ZM12.6667 6.66671H3.33333V12.6667C3.33333 12.8435 3.40357 13.0131 3.5286 13.1381C3.65362 13.2631 3.82319 13.3334 4 13.3334H12C12.1768 13.3334 12.3464 13.2631 12.4714 13.1381C12.5964 13.0131 12.6667 12.8435 12.6667 12.6667V6.66671Z" fill="#0C0024"/>
</svg>
