<svg width="24" height="24" viewBox="0 0 24 24" fill="none" xmlns="http://www.w3.org/2000/svg">
<path d="M6.225 4.81099C6.0364 4.62883 5.7838 4.52803 5.5216 4.53031C5.25941 4.53259 5.00859 4.63776 4.82318 4.82317C4.63778 5.00858 4.53261 5.25939 4.53033 5.52158C4.52805 5.78378 4.62884 6.03638 4.811 6.22499L10.586 12L4.81 17.775C4.71449 17.8672 4.63831 17.9776 4.5859 18.0996C4.53349 18.2216 4.50591 18.3528 4.50475 18.4856C4.5036 18.6184 4.5289 18.75 4.57918 18.8729C4.62946 18.9958 4.70372 19.1075 4.79761 19.2014C4.8915 19.2953 5.00315 19.3695 5.12605 19.4198C5.24895 19.4701 5.38062 19.4954 5.5134 19.4942C5.64618 19.4931 5.7774 19.4655 5.89941 19.4131C6.02141 19.3607 6.13176 19.2845 6.224 19.189L12 13.414L17.775 19.189C17.9636 19.3711 18.2162 19.4719 18.4784 19.4697C18.7406 19.4674 18.9914 19.3622 19.1768 19.1768C19.3622 18.9914 19.4674 18.7406 19.4697 18.4784C19.472 18.2162 19.3712 17.9636 19.189 17.775L13.414 12L19.189 6.22499C19.3712 6.03638 19.472 5.78378 19.4697 5.52158C19.4674 5.25939 19.3622 5.00858 19.1768 4.82317C18.9914 4.63776 18.7406 4.53259 18.4784 4.53031C18.2162 4.52803 17.9636 4.62883 17.775 4.81099L12 10.586L6.225 4.80999V4.81099Z" fill="#0C0024"/>
</svg>
