<svg width="24" height="25" viewBox="0 0 24 25" fill="none" xmlns="http://www.w3.org/2000/svg">
<path fill-rule="evenodd" clip-rule="evenodd" d="M12 22.8683C17.5228 22.8683 22 18.3911 22 12.8683C22 7.34544 17.5228 2.86829 12 2.86829C6.47715 2.86829 2 7.34544 2 12.8683C2 18.3911 6.47715 22.8683 12 22.8683ZM13.2097 7.17153C13.2105 7.12229 13.194 7.07438 13.1637 7.03639C13.1331 6.99853 13.0907 6.97299 13.0436 6.96451C12.5968 6.88245 12.1425 6.85267 11.6892 6.87596C10.1592 6.95459 8.72393 7.66617 7.64042 8.78464L6.05925 10.4168C6.04041 10.4361 6.0254 10.4592 6.01527 10.4844C6.00514 10.5099 6.00001 10.537 6.00001 10.5644V12.6751C5.99976 12.6892 6.00348 12.7033 6.01091 12.7152C6.01835 12.7271 6.02912 12.7365 6.04169 12.742C6.05438 12.7476 6.06836 12.7492 6.08182 12.7464C6.09528 12.7438 6.10772 12.7369 6.11747 12.7268L8.8764 9.87889C9.31814 9.42051 9.84977 9.06499 10.4355 8.836C11.0212 8.60714 11.6476 8.51012 12.2726 8.55168C12.5632 8.57087 12.8508 8.62197 13.131 8.7039C13.1402 8.70668 13.1498 8.70721 13.1593 8.70549C13.1688 8.70377 13.1778 8.6998 13.1855 8.69384C13.193 8.68788 13.1993 8.68021 13.2037 8.67134C13.208 8.66247 13.2102 8.65267 13.2102 8.64275L13.2097 7.17153ZM12.0043 11.6834C12.3857 11.6832 12.7661 11.7288 13.1375 11.819C13.1461 11.8212 13.1551 11.8212 13.1638 11.8192C13.1725 11.8172 13.1807 11.8131 13.1877 11.8074C13.1946 11.8016 13.2002 11.7943 13.2041 11.7861C13.2078 11.7778 13.2098 11.7686 13.2097 11.7595V10.3251C13.2107 10.277 13.1956 10.23 13.1668 10.1922C13.1379 10.1545 13.0973 10.1281 13.0516 10.1179C12.7071 10.0431 12.3559 10.0058 12.0037 10.0066C11.8696 10.0067 11.7355 10.0157 11.6024 10.0335C10.9297 10.1241 10.3132 10.47 9.83312 10.9656L6.06376 14.8567C6.04491 14.876 6.02991 14.899 6.01978 14.9244C6.00952 14.95 6.0044 14.9771 6.00452 15.0046V17.1164C6.00427 17.1305 6.00811 17.1446 6.01542 17.1565C6.02286 17.1684 6.03363 17.1778 6.04633 17.1833C6.05889 17.1889 6.07287 17.1905 6.08633 17.1877C6.09992 17.1851 6.11223 17.1782 6.12198 17.1681L11.031 12.1007C11.159 11.9685 11.3112 11.8637 11.4787 11.7926C11.6461 11.7215 11.8256 11.6854 12.0068 11.6864L12.0043 11.6834ZM10.839 19.1669C10.8088 19.129 10.7922 19.0815 10.7922 19.0324L10.7943 17.5617C10.7943 17.5518 10.7966 17.542 10.8008 17.5331C10.8052 17.5242 10.8115 17.5166 10.819 17.5106C10.8267 17.5047 10.8357 17.5006 10.8452 17.4987C10.8545 17.497 10.8643 17.4974 10.8735 17.5002C11.1518 17.5824 11.4376 17.6336 11.7264 17.6529C12.3516 17.6943 12.9782 17.5972 13.5642 17.3681C14.1502 17.1389 14.6819 16.7829 15.1235 16.3241L17.8825 13.476C17.8923 13.466 17.9047 13.4592 17.9182 13.4566C17.9316 13.4538 17.9456 13.4554 17.9583 13.4609C17.9709 13.4665 17.9816 13.4759 17.9889 13.4878C17.9965 13.4997 18.0002 13.5136 18 13.5279V15.6385C17.9997 15.6941 17.9786 15.7471 17.9407 15.7867L16.3591 17.4188C15.2761 18.5368 13.8403 19.2483 12.3103 19.3276C11.8579 19.3505 11.4044 19.3209 10.9583 19.2395C10.9116 19.2304 10.8694 19.2047 10.839 19.1669ZM11.9972 14.5211C11.6159 14.522 11.2358 14.4774 10.8645 14.3881C10.8559 14.3858 10.8469 14.3857 10.8382 14.3877C10.8295 14.3896 10.8214 14.3935 10.8143 14.3992C10.8074 14.4049 10.8018 14.4122 10.7979 14.4205C10.7941 14.4289 10.7921 14.4379 10.7923 14.447V15.8794C10.7912 15.9275 10.8064 15.9745 10.8352 16.0122C10.8641 16.0501 10.9047 16.0763 10.9502 16.0864C11.2949 16.1614 11.6461 16.1986 11.9982 16.1979C12.1333 16.1983 12.2682 16.1893 12.402 16.1709C13.0747 16.0802 13.6912 15.7349 14.1713 15.2388L17.9407 11.3478C17.9785 11.3084 17.9998 11.2552 17.9999 11.1997V9.08814C18.0003 9.07385 17.9964 9.05995 17.989 9.04804C17.9816 9.03613 17.9708 9.02673 17.9582 9.02117C17.9455 9.01561 17.9316 9.01402 17.9181 9.0168C17.9046 9.01945 17.8922 9.02633 17.8826 9.03626L12.9734 14.1043C12.8454 14.2367 12.6932 14.3415 12.5256 14.4126C12.358 14.4838 12.1784 14.5198 11.9972 14.5185V14.5211Z" fill="#663FBA"/>
</svg>
