<svg width="24" height="25" viewBox="0 0 24 25" fill="none" xmlns="http://www.w3.org/2000/svg">
<path d="M2 4.85937C2 3.7548 2.89543 2.85938 4 2.85938H14C15.1046 2.85938 16 3.75481 16 4.85938V8.85938H20C21.1046 8.85938 22 9.75481 22 10.8594V20.8594C22 21.9639 21.1046 22.8594 20 22.8594H10C8.89543 22.8594 8 21.9639 8 20.8594V16.8594H4C2.89543 16.8594 2 15.9639 2 14.8594V4.85937ZM10 16.8594V20.8594H20V10.8594H16V14.8594C16 15.9639 15.1046 16.8594 14 16.8594H10ZM14 14.8594V4.85938L4 4.85937V14.8594H14Z" fill="#20113E"/>
</svg>
