<svg width="40" height="40" viewBox="0 0 40 40" fill="none" xmlns="http://www.w3.org/2000/svg">
<g id="Icon">
<path d="M0 20C0 12.5231 0 8.78461 1.60769 6C2.66091 4.17577 4.17577 2.66091 6 1.60769C8.78461 0 12.5231 0 20 0C27.4769 0 31.2154 0 34 1.60769C35.8242 2.66091 37.3391 4.17577 38.3923 6C40 8.78461 40 12.5231 40 20C40 27.4769 40 31.2154 38.3923 34C37.3391 35.8242 35.8242 37.3391 34 38.3923C31.2154 40 27.4769 40 20 40C12.5231 40 8.78461 40 6 38.3923C4.17577 37.3391 2.66091 35.8242 1.60769 34C0 31.2154 0 27.4769 0 20Z" fill="#F7F7F8"/>
<g id="wallet-m">
<path id="Vector" d="M14 19.1318C13.8022 19.1318 13.6089 19.1905 13.4444 19.3004C13.28 19.4102 13.1518 19.5664 13.0761 19.7492C13.0004 19.9319 12.9806 20.1329 13.0192 20.3269C13.0578 20.5209 13.153 20.6991 13.2929 20.8389C13.4327 20.9788 13.6109 21.074 13.8049 21.1126C13.9989 21.1512 14.2 21.1314 14.3827 21.0557C14.5654 20.98 14.7216 20.8519 14.8315 20.6874C14.9414 20.523 15 20.3296 15 20.1318C15 19.8666 14.8946 19.6123 14.7071 19.4247C14.5196 19.2372 14.2652 19.1318 14 19.1318ZM26 19.1318C25.8022 19.1318 25.6089 19.1905 25.4444 19.3004C25.28 19.4102 25.1518 19.5664 25.0761 19.7492C25.0004 19.9319 24.9806 20.1329 25.0192 20.3269C25.0578 20.5209 25.153 20.6991 25.2929 20.8389C25.4327 20.9788 25.6109 21.074 25.8049 21.1126C25.9989 21.1512 26.2 21.1314 26.3827 21.0557C26.5654 20.98 26.7216 20.8519 26.8315 20.6874C26.9414 20.523 27 20.3296 27 20.1318C27 19.8666 26.8946 19.6123 26.7071 19.4247C26.5196 19.2372 26.2652 19.1318 26 19.1318ZM28 13.1318H12C11.2044 13.1318 10.4413 13.4479 9.87868 14.0105C9.31607 14.5731 9 15.3362 9 16.1318V24.1318C9 24.9275 9.31607 25.6905 9.87868 26.2532C10.4413 26.8158 11.2044 27.1318 12 27.1318H28C28.7956 27.1318 29.5587 26.8158 30.1213 26.2532C30.6839 25.6905 31 24.9275 31 24.1318V16.1318C31 15.3362 30.6839 14.5731 30.1213 14.0105C29.5587 13.4479 28.7956 13.1318 28 13.1318ZM29 24.1318C29 24.3971 28.8946 24.6514 28.7071 24.8389C28.5196 25.0265 28.2652 25.1318 28 25.1318H12C11.7348 25.1318 11.4804 25.0265 11.2929 24.8389C11.1054 24.6514 11 24.3971 11 24.1318V16.1318C11 15.8666 11.1054 15.6123 11.2929 15.4247C11.4804 15.2372 11.7348 15.1318 12 15.1318H28C28.2652 15.1318 28.5196 15.2372 28.7071 15.4247C28.8946 15.6123 29 15.8666 29 16.1318V24.1318ZM20 17.1318C19.4067 17.1318 18.8266 17.3078 18.3333 17.6374C17.8399 17.9671 17.4554 18.4356 17.2284 18.9838C17.0013 19.532 16.9419 20.1352 17.0576 20.7171C17.1734 21.299 17.4591 21.8336 17.8787 22.2532C18.2982 22.6727 18.8328 22.9584 19.4147 23.0742C19.9967 23.1899 20.5999 23.1305 21.1481 22.9035C21.6962 22.6764 22.1648 22.2919 22.4944 21.7985C22.8241 21.3052 23 20.7252 23 20.1318C23 19.3362 22.6839 18.5731 22.1213 18.0105C21.5587 17.4479 20.7956 17.1318 20 17.1318ZM20 21.1318C19.8022 21.1318 19.6089 21.0732 19.4444 20.9633C19.28 20.8534 19.1518 20.6972 19.0761 20.5145C19.0004 20.3318 18.9806 20.1307 19.0192 19.9367C19.0578 19.7428 19.153 19.5646 19.2929 19.4247C19.4327 19.2849 19.6109 19.1896 19.8049 19.1511C19.9989 19.1125 20.2 19.1323 20.3827 19.208C20.5654 19.2836 20.7216 19.4118 20.8315 19.5763C20.9414 19.7407 21 19.9341 21 20.1318C21 20.3971 20.8946 20.6514 20.7071 20.8389C20.5196 21.0265 20.2652 21.1318 20 21.1318Z" fill="#20113E"/>
</g>
</g>
</svg>
