<svg width="56" height="56" viewBox="0 0 56 56" fill="none" xmlns="http://www.w3.org/2000/svg">
<path d="M0 28C0 16.7643 0 11.1465 2.69649 7.11088C3.86382 5.36383 5.36383 3.86382 7.11088 2.69649C11.1465 0 16.7643 0 28 0C39.2357 0 44.8535 0 48.8891 2.69649C50.6362 3.86382 52.1362 5.36383 53.3035 7.11088C56 11.1465 56 16.7643 56 28C56 39.2357 56 44.8535 53.3035 48.8891C52.1362 50.6362 50.6362 52.1362 48.8891 53.3035C44.8535 56 39.2357 56 28 56C16.7643 56 11.1465 56 7.11088 53.3035C5.36383 52.1362 3.86382 50.6362 2.69649 48.8891C0 44.8535 0 39.2357 0 28Z" fill="#858091"/>
<path d="M34.0797 28.42L27.8997 34.61C27.0895 35.33 26.0348 35.7132 24.9514 35.6814C23.868 35.6495 22.8377 35.2048 22.0712 34.4384C21.3048 33.672 20.8602 32.6417 20.8283 31.5582C20.7964 30.4748 21.1797 29.4202 21.8997 28.61L29.8997 20.61C30.3773 20.1563 31.0109 19.9033 31.6697 19.9033C32.3284 19.9033 32.962 20.1563 33.4397 20.61C33.905 21.0816 34.1659 21.7174 34.1659 22.38C34.1659 23.0425 33.905 23.6784 33.4397 24.15L26.5397 31.04C26.4714 31.1135 26.3893 31.1729 26.298 31.2147C26.2068 31.2565 26.1082 31.2799 26.008 31.2836C25.8054 31.2911 25.6082 31.2179 25.4597 31.08C25.3861 31.0117 25.3268 30.9296 25.285 30.8383C25.2431 30.7471 25.2197 30.6485 25.216 30.5483C25.2085 30.3457 25.2818 30.1485 25.4197 30L30.5497 24.88C30.738 24.6917 30.8438 24.4363 30.8438 24.17C30.8438 23.9037 30.738 23.6483 30.5497 23.46C30.3614 23.2717 30.106 23.1659 29.8397 23.1659C29.5734 23.1659 29.318 23.2717 29.1297 23.46L23.9997 28.6C23.743 28.8547 23.5392 29.1577 23.4002 29.4915C23.2612 29.8253 23.1896 30.1834 23.1896 30.545C23.1896 30.9066 23.2612 31.2646 23.4002 31.5984C23.5392 31.9323 23.743 32.2353 23.9997 32.49C24.524 32.9895 25.2205 33.2681 25.9447 33.2681C26.6689 33.2681 27.3653 32.9895 27.8897 32.49L34.7797 25.59C35.5746 24.7369 36.0073 23.6086 35.9867 22.4428C35.9662 21.277 35.4939 20.1647 34.6694 19.3402C33.8449 18.5158 32.7326 18.0435 31.5668 18.0229C30.401 18.0023 29.2727 18.4351 28.4197 19.23L20.4197 27.23C19.3409 28.4248 18.7647 29.9898 18.8112 31.5989C18.8577 33.2081 19.5233 34.7372 20.6693 35.8677C21.8153 36.9983 23.3533 37.643 24.963 37.6677C26.5726 37.6923 28.1296 37.0949 29.3097 36L35.4997 29.82C35.5929 29.7267 35.6669 29.616 35.7173 29.4942C35.7678 29.3724 35.7938 29.2418 35.7938 29.11C35.7938 28.9781 35.7678 28.8475 35.7173 28.7257C35.6669 28.6039 35.5929 28.4932 35.4997 28.4C35.4064 28.3067 35.2957 28.2328 35.1739 28.1823C35.0521 28.1318 34.9215 28.1059 34.7897 28.1059C34.6578 28.1059 34.5272 28.1318 34.4054 28.1823C34.2836 28.2328 34.1729 28.3067 34.0797 28.4V28.42Z" fill="white"/>
</svg>
