<svg width="96" height="96" viewBox="0 0 96 96" fill="none" xmlns="http://www.w3.org/2000/svg">
<path d="M0 48C0 21.4903 21.4903 0 48 0C74.5097 0 96 21.4903 96 48C96 74.5097 74.5097 96 48 96C21.4903 96 0 74.5097 0 48Z" fill="#F7F5FC"/>
<circle cx="48.3791" cy="47.6193" r="24.7619" fill="white"/>
<path d="M44.2654 52.8007L38.4654 47.0007C37.9765 46.5118 37.3658 46.2789 36.6334 46.302C35.8991 46.3233 35.2876 46.5784 34.7987 47.0673C34.3098 47.5562 34.0654 48.1784 34.0654 48.934C34.0654 49.6895 34.3098 50.3118 34.7987 50.8007L42.3987 58.4007C42.8876 58.8895 43.5098 59.134 44.2654 59.134C45.0209 59.134 45.6431 58.8895 46.132 58.4007L61.2654 43.2673C61.7543 42.7784 61.988 42.1669 61.9667 41.4327C61.9436 40.7002 61.6876 40.0895 61.1987 39.6007C60.7098 39.1118 60.0876 38.8673 59.332 38.8673C58.5765 38.8673 57.9543 39.1118 57.4654 39.6007L44.2654 52.8007ZM47.9987 74.6673C44.3098 74.6673 40.8431 73.9669 37.5987 72.566C34.3543 71.1669 31.532 69.2673 29.132 66.8673C26.732 64.4673 24.8325 61.6451 23.4334 58.4007C22.0325 55.1562 21.332 51.6895 21.332 48.0007C21.332 44.3118 22.0325 40.8451 23.4334 37.6007C24.8325 34.3562 26.732 31.534 29.132 29.134C31.532 26.734 34.3543 24.8335 37.5987 23.4327C40.8431 22.0335 44.3098 21.334 47.9987 21.334C51.6876 21.334 55.1543 22.0335 58.3987 23.4327C61.6431 24.8335 64.4654 26.734 66.8654 29.134C69.2654 31.534 71.1649 34.3562 72.564 37.6007C73.9649 40.8451 74.6654 44.3118 74.6654 48.0007C74.6654 51.6895 73.9649 55.1562 72.564 58.4007C71.1649 61.6451 69.2654 64.4673 66.8654 66.8673C64.4654 69.2673 61.6431 71.1669 58.3987 72.566C55.1543 73.9669 51.6876 74.6673 47.9987 74.6673ZM47.9987 69.334C53.9098 69.334 58.9436 67.2567 63.1 63.102C67.2547 58.9455 69.332 53.9118 69.332 48.0007C69.332 42.0895 67.2547 37.0558 63.1 32.8993C58.9436 28.7447 53.9098 26.6673 47.9987 26.6673C42.0876 26.6673 37.0547 28.7447 32.9 32.8993C28.7436 37.0558 26.6654 42.0895 26.6654 48.0007C26.6654 53.9118 28.7436 58.9455 32.9 63.102C37.0547 67.2567 42.0876 69.334 47.9987 69.334Z" fill="#663FBA"/>
</svg>
