<svg width="56" height="56" viewBox="0 0 56 56" fill="none" xmlns="http://www.w3.org/2000/svg">
<path d="M0 28C0 16.7643 0 11.1465 2.69649 7.11088C3.86382 5.36383 5.36383 3.86382 7.11088 2.69649C11.1465 0 16.7643 0 28 0C39.2357 0 44.8535 0 48.8891 2.69649C50.6362 3.86382 52.1362 5.36383 53.3035 7.11088C56 11.1465 56 16.7643 56 28C56 39.2357 56 44.8535 53.3035 48.8891C52.1362 50.6362 50.6362 52.1362 48.8891 53.3035C44.8535 56 39.2357 56 28 56C16.7643 56 11.1465 56 7.11088 53.3035C5.36383 52.1362 3.86382 50.6362 2.69649 48.8891C0 44.8535 0 39.2357 0 28Z" fill="#EA4C89"/>
<path d="M28 18C22.4856 18 18 22.4856 18 28C18 33.5144 22.4856 38 28 38C33.5144 38 38 33.5144 38 28C38 22.4856 33.5144 18 28 18ZM34.613 22.6106C35.8029 24.0649 36.524 25.9159 36.5409 27.9327C36.2596 27.8726 33.4351 27.3005 30.5938 27.6587C30.5337 27.512 30.4736 27.3654 30.4111 27.2188C30.2332 26.8029 30.0433 26.387 29.8438 25.9808C33 24.6899 34.4327 22.8558 34.613 22.6106ZM28 19.4712C30.1707 19.4712 32.1538 20.2861 33.6611 21.6226C33.5072 21.8413 32.2212 23.5697 29.1851 24.7091C27.7861 22.137 26.2356 20.0264 25.9976 19.7091C26.6538 19.5505 27.3245 19.4712 28 19.4712ZM24.3678 20.2837C24.5938 20.5913 26.1202 22.7091 27.5337 25.2236C23.5385 26.2837 20.0192 26.2692 19.637 26.2644C20.1923 23.613 21.9784 21.4111 24.3678 20.2837ZM19.4591 28.012C19.4591 27.9255 19.4615 27.8365 19.4639 27.75C19.8365 27.7572 23.976 27.8101 28.2428 26.5337C28.488 27.012 28.7212 27.4976 28.9351 27.9832C28.8221 28.0144 28.7091 28.0481 28.5986 28.0841C24.1923 29.512 21.8486 33.3942 21.6538 33.7236C20.2909 32.2091 19.4591 30.2067 19.4591 28.012ZM28 36.5529C26.024 36.5529 24.2043 35.8798 22.7572 34.75C22.9111 34.4351 24.6394 31.0962 29.4567 29.4159L29.512 29.3966C30.7115 32.512 31.2067 35.125 31.3341 35.875C30.2804 36.3254 29.1459 36.556 28 36.5529ZM32.7716 35.0938C32.6851 34.5745 32.2308 32.0745 31.113 29.0048C33.7909 28.5769 36.1418 29.2788 36.4327 29.3702C36.0529 31.7452 34.6899 33.7981 32.7716 35.0938Z" fill="white"/>
</svg>
