<svg width="20" height="20" viewBox="0 0 20 20" fill="none" xmlns="http://www.w3.org/2000/svg">
<path d="M16.1667 6.11667L13.8833 3.83334C13.5853 3.55342 13.1948 3.3928 12.7861 3.38205C12.3774 3.37129 11.979 3.51114 11.6667 3.775L4.16667 11.275C3.89731 11.5466 3.72959 11.9027 3.69167 12.2833L3.33334 15.7583C3.32211 15.8804 3.33795 16.0034 3.37972 16.1187C3.42149 16.2339 3.48817 16.3385 3.575 16.425C3.65287 16.5022 3.74522 16.5633 3.84675 16.6048C3.94828 16.6463 4.057 16.6673 4.16667 16.6667H4.24167L7.71667 16.35C8.09733 16.3121 8.45337 16.1444 8.725 15.875L16.225 8.375C16.5161 8.06748 16.6734 7.65709 16.6625 7.23378C16.6516 6.81047 16.4733 6.40876 16.1667 6.11667ZM7.56667 14.6833L5.06667 14.9167L5.29167 12.4167L10 7.76667L12.25 10.0167L7.56667 14.6833ZM13.3333 8.9L11.1 6.66667L12.725 5L15 7.275L13.3333 8.9Z" fill="#0C0024"/>
</svg>
