<svg width="24" height="24" viewBox="0 0 24 24" fill="none" xmlns="http://www.w3.org/2000/svg">
<path fill-rule="evenodd" clip-rule="evenodd" d="M11.734 5.00427C17.714 4.82427 21.234 10.3943 21.874 11.5043C21.9617 11.6563 22.0079 11.8287 22.0079 12.0043C22.0079 12.1798 21.9617 12.3522 21.874 12.5043C21.014 14.0043 17.804 18.8643 12.274 19.0043H12.024C6.13398 19.0043 2.76397 13.5943 2.13397 12.5043C2.04621 12.3522 2 12.1798 2 12.0043C2 11.8287 2.04621 11.6563 2.13397 11.5043C3.00397 10.0043 6.20397 5.14427 11.734 5.00427ZM4.22397 12.0043C5.10397 13.4143 7.91398 17.1043 12.224 17.0043C16.224 16.9043 18.804 13.6143 19.834 12.0043C18.944 10.5943 16.124 6.89427 11.834 7.00427C7.83397 7.10427 5.22397 10.3943 4.22397 12.0043ZM10.0595 9.09413C10.635 8.70954 11.3117 8.50427 12.004 8.50427C12.9322 8.50427 13.8225 8.87302 14.4788 9.5294C15.1352 10.1858 15.504 11.076 15.504 12.0043C15.504 12.6965 15.2987 13.3732 14.9141 13.9488C14.5295 14.5243 13.9829 14.9729 13.3434 15.2379C12.7038 15.5028 12.0001 15.5721 11.3212 15.437C10.6422 15.302 10.0186 14.9686 9.5291 14.4791C9.03961 13.9897 8.70627 13.366 8.57122 12.6871C8.43617 12.0082 8.50548 11.3044 8.77039 10.6649C9.0353 10.0253 9.4839 9.47871 10.0595 9.09413ZM11.1706 13.2515C11.4173 13.4163 11.7073 13.5043 12.004 13.5043C12.4018 13.5043 12.7833 13.3462 13.0646 13.0649C13.3459 12.7836 13.504 12.4021 13.504 12.0043C13.504 11.7076 13.416 11.4176 13.2512 11.1709C13.0864 10.9242 12.8521 10.732 12.578 10.6185C12.3039 10.5049 12.0023 10.4752 11.7113 10.5331C11.4204 10.591 11.1531 10.7338 10.9433 10.9436C10.7335 11.1534 10.5907 11.4207 10.5328 11.7116C10.4749 12.0026 10.5046 12.3042 10.6181 12.5783C10.7317 12.8524 10.9239 13.0867 11.1706 13.2515Z" fill="#0C0024"/>
</svg>
