<svg width="48" height="48" viewBox="0 0 48 48" fill="none" xmlns="http://www.w3.org/2000/svg">
<rect width="48" height="48" rx="8" fill="#F2EEFE"/>
<path d="M21 24C20.4477 24 20 24.4477 20 25C20 25.5523 20.4477 26 21 26H27C27.5523 26 28 25.5523 28 25C28 24.4477 27.5523 24 27 24H21Z" fill="#663FBA"/>
<path d="M20 29C20 28.4477 20.4477 28 21 28H24C24.5523 28 25 28.4477 25 29C25 29.5523 24.5523 30 24 30H21C20.4477 30 20 29.5523 20 29Z" fill="#663FBA"/>
<path fill-rule="evenodd" clip-rule="evenodd" d="M18 13C17.2044 13 16.4413 13.3161 15.8787 13.8787C15.3161 14.4413 15 15.2044 15 16V32C15 32.7957 15.3161 33.5587 15.8787 34.1213C16.4413 34.6839 17.2043 35 18 35H30C30.7957 35 31.5587 34.6839 32.1213 34.1213C32.6839 33.5587 33 32.7957 33 32V20.3419C33 19.9422 32.92 19.5466 32.765 19.1782C32.6099 18.81 32.3827 18.4762 32.097 18.1969L27.6571 13.855C27.0967 13.307 26.3439 13.0001 25.56 13H18ZM17.2929 15.2929C17.4804 15.1054 17.7348 15 18 15H25V18C25 18.7957 25.3161 19.5587 25.8787 20.1213C26.4413 20.6839 27.2044 21 28 21H31V32C31 32.2652 30.8946 32.5196 30.7071 32.7071C30.5196 32.8946 30.2652 33 30 33H18C17.7348 33 17.4804 32.8946 17.2929 32.7071C17.1054 32.5196 17 32.2652 17 32V16C17 15.7348 17.1054 15.4804 17.2929 15.2929ZM30.0577 19L27 16.0098V18C27 18.2652 27.1054 18.5196 27.2929 18.7071C27.4804 18.8946 27.7348 19 28 19H30.0577Z" fill="#663FBA"/>
</svg>
