<svg width="24" height="24" viewBox="0 0 24 24" fill="none" xmlns="http://www.w3.org/2000/svg">
<path d="M14.8929 16.9286C15.1486 16.9286 15.3939 17.0302 15.5747 17.211C15.7555 17.3918 15.8571 17.6371 15.8571 17.8929C15.8571 18.1486 15.7555 18.3939 15.5747 18.5747C15.3939 18.7555 15.1486 18.8571 14.8929 18.8571H9.10714C8.8514 18.8571 8.60613 18.7555 8.42529 18.5747C8.24445 18.3939 8.14286 18.1486 8.14286 17.8929C8.14286 17.6371 8.24445 17.3918 8.42529 17.211C8.60613 17.0302 8.8514 16.9286 9.10714 16.9286H14.8929ZM17.4643 11.4643C17.72 11.4643 17.9653 11.5659 18.1461 11.7467C18.327 11.9276 18.4286 12.1728 18.4286 12.4286C18.4286 12.6843 18.327 12.9296 18.1461 13.1104C17.9653 13.2913 17.72 13.3929 17.4643 13.3929H6.53571C6.27997 13.3929 6.0347 13.2913 5.85386 13.1104C5.67302 12.9296 5.57143 12.6843 5.57143 12.4286C5.57143 12.1728 5.67302 11.9276 5.85386 11.7467C6.0347 11.5659 6.27997 11.4643 6.53571 11.4643H17.4643ZM20.0357 6C20.2915 6 20.5367 6.10159 20.7176 6.28243C20.8984 6.46327 21 6.70854 21 6.96429C21 7.22003 20.8984 7.4653 20.7176 7.64614C20.5367 7.82698 20.2915 7.92857 20.0357 7.92857H3.96429C3.70854 7.92857 3.46327 7.82698 3.28243 7.64614C3.10159 7.4653 3 7.22003 3 6.96429C3 6.70854 3.10159 6.46327 3.28243 6.28243C3.46327 6.10159 3.70854 6 3.96429 6H20.0357Z" fill="#0C0024"/>
</svg>
