<svg width="24" height="24" viewBox="0 0 24 24" fill="none" xmlns="http://www.w3.org/2000/svg">
<path fill-rule="evenodd" clip-rule="evenodd" d="M21.0487 6.57031H21.0767L21.0984 6.57212L21.1229 6.57303L21.1319 6.57393C21.2016 6.58027 21.2695 6.59475 21.3337 6.61646L21.36 6.62551L21.3862 6.63547L21.3916 6.63728C21.4667 6.66805 21.5391 6.70967 21.6061 6.76306L21.6278 6.77935L21.6504 6.79926L21.6586 6.8065C21.7581 6.897 21.8332 7.00559 21.8821 7.12233L21.8857 7.13138C21.9228 7.22187 21.9455 7.3187 21.9518 7.42005C21.9536 7.44087 21.9536 7.46168 21.9536 7.4834V13.8098C21.9536 14.3094 21.5482 14.7148 21.0487 14.7148C20.5491 14.7148 20.1437 14.3094 20.1437 13.8098V9.83353L13.5766 17.1301C13.411 17.3147 13.1766 17.4233 12.9277 17.4296C12.6798 17.4359 12.44 17.34 12.2644 17.1645L7.47455 12.3746L3.58964 16.2595C3.23671 16.6133 2.66298 16.6133 2.31005 16.2595C1.95622 15.9066 1.95622 15.3329 2.31005 14.9799L6.83476 10.4552C7.18768 10.1014 7.76142 10.1014 8.11434 10.4552L12.8698 15.2107L19.0171 8.38019H14.7141C14.2145 8.38019 13.8091 7.97478 13.8091 7.47525C13.8091 6.97573 14.2145 6.57031 14.7141 6.57031H21.0487Z" fill="#0C0024"/>
</svg>
