<svg width="56" height="56" viewBox="0 0 56 56" fill="none" xmlns="http://www.w3.org/2000/svg">
<path d="M0 28C0 16.7643 0 11.1465 2.69649 7.11088C3.86382 5.36383 5.36383 3.86382 7.11088 2.69649C11.1465 0 16.7643 0 28 0C39.2357 0 44.8535 0 48.8891 2.69649C50.6362 3.86382 52.1362 5.36383 53.3035 7.11088C56 11.1465 56 16.7643 56 28C56 39.2357 56 44.8535 53.3035 48.8891C52.1362 50.6362 50.6362 52.1362 48.8891 53.3035C44.8535 56 39.2357 56 28 56C16.7643 56 11.1465 56 7.11088 53.3035C5.36383 52.1362 3.86382 50.6362 2.69649 48.8891C0 44.8535 0 39.2357 0 28Z" fill="black"/>
<path d="M28.0011 18C22.4755 17.9978 18 22.471 18 27.9922C18 32.3582 20.7997 36.0695 24.6987 37.4325C25.2238 37.5643 25.1433 37.1912 25.1433 36.9364V35.2048C22.1113 35.56 21.9884 33.5536 21.7851 33.2184C21.3739 32.5168 20.402 32.3381 20.6924 32.0029C21.3829 31.6476 22.0867 32.0923 22.9022 33.2966C23.4921 34.1703 24.6428 34.0228 25.226 33.8776C25.3534 33.3525 25.626 32.8833 26.0013 32.519C22.8598 31.956 21.5504 30.0389 21.5504 27.7598C21.5504 26.6538 21.9146 25.6371 22.6297 24.8171C22.1738 23.4653 22.6721 22.3079 22.7391 22.1359C24.0373 22.0197 25.3869 23.0654 25.4919 23.148C26.2292 22.9492 27.0716 22.8442 28.0145 22.8442C28.9619 22.8442 29.8065 22.9536 30.5506 23.1547C30.803 22.9626 32.0543 22.0644 33.2609 22.1738C33.3257 22.3459 33.8128 23.4765 33.3838 24.8104C34.1077 25.6327 34.4764 26.6583 34.4764 27.7665C34.4764 30.0501 33.1581 31.9694 30.0076 32.5235C30.2774 32.7889 30.4917 33.1054 30.6379 33.4545C30.784 33.8036 30.8592 34.1783 30.8589 34.5568V37.0705C30.8768 37.2716 30.8589 37.4705 31.1941 37.4705C35.1512 36.1365 38 32.3984 38 27.9944C38 22.471 33.5223 18 28.0011 18Z" fill="white"/>
</svg>
