<svg width="57" height="56" viewBox="0 0 57 56" fill="none" xmlns="http://www.w3.org/2000/svg">
<g clip-path="url(#clip0_13627_31315)">
<rect x="0.699951" width="56" height="56" rx="16" fill="#0A66C2"/>
<path d="M28.7091 0C17.0194 0 13.6005 0.0120641 12.936 0.0671998C10.5371 0.266662 9.04431 0.644485 7.41801 1.45438C6.16472 2.07691 5.17628 2.7985 4.20077 3.81004C2.42419 5.65475 1.34747 7.92423 0.957687 10.6219C0.768193 11.9316 0.713057 12.1987 0.701861 18.8882C0.697564 21.1181 0.701861 24.0527 0.701861 27.989C0.701861 39.6725 0.714772 43.0888 0.770775 43.7522C0.964586 46.0872 1.33066 47.5562 2.10591 49.1631C3.58748 52.2391 6.41708 54.5482 9.75062 55.4098C10.9049 55.7071 12.1797 55.8708 13.8163 55.9483C14.5097 55.9785 21.5773 56 28.6492 56C35.7211 56 42.793 55.9914 43.4692 55.9569C45.3642 55.8677 46.4646 55.72 47.6813 55.4055C51.0364 54.5396 53.8144 52.2649 55.326 49.1459C56.0862 47.5777 56.4717 46.0527 56.6461 43.8396C56.684 43.3572 56.7 35.6642 56.7 27.9817C56.7 20.2978 56.6827 12.6191 56.6448 12.1366C56.4682 9.88784 56.0828 8.37573 55.2981 6.77742C54.6542 5.46907 53.9393 4.49199 52.9013 3.49298C51.0489 1.72322 48.7835 0.6462 46.0839 0.256757C44.7759 0.0676234 44.5154 0.0116198 37.8224 0H28.7091Z" fill="url(#paint0_radial_13627_31315)"/>
<path d="M28.7091 0C17.0194 0 13.6005 0.0120641 12.936 0.0671998C10.5371 0.266662 9.04431 0.644485 7.41801 1.45438C6.16472 2.07691 5.17628 2.7985 4.20077 3.81004C2.42419 5.65475 1.34747 7.92423 0.957687 10.6219C0.768193 11.9316 0.713057 12.1987 0.701861 18.8882C0.697564 21.1181 0.701861 24.0527 0.701861 27.989C0.701861 39.6725 0.714772 43.0888 0.770775 43.7522C0.964586 46.0872 1.33066 47.5562 2.10591 49.1631C3.58748 52.2391 6.41708 54.5482 9.75062 55.4098C10.9049 55.7071 12.1797 55.8708 13.8163 55.9483C14.5097 55.9785 21.5773 56 28.6492 56C35.7211 56 42.793 55.9914 43.4692 55.9569C45.3642 55.8677 46.4646 55.72 47.6813 55.4055C51.0364 54.5396 53.8144 52.2649 55.326 49.1459C56.0862 47.5777 56.4717 46.0527 56.6461 43.8396C56.684 43.3572 56.7 35.6642 56.7 27.9817C56.7 20.2978 56.6827 12.6191 56.6448 12.1366C56.4682 9.88784 56.0828 8.37573 55.2981 6.77742C54.6542 5.46907 53.9393 4.49199 52.9013 3.49298C51.0489 1.72322 48.7835 0.6462 46.0839 0.256757C44.7759 0.0676234 44.5154 0.0116198 37.8224 0H28.7091Z" fill="url(#paint1_radial_13627_31315)"/>
<path d="M28.7091 0C17.0194 0 13.6005 0.0120641 12.936 0.0671998C10.5371 0.266662 9.04431 0.644485 7.41801 1.45438C6.16472 2.07691 5.17628 2.7985 4.20077 3.81004C2.42419 5.65475 1.34747 7.92423 0.957687 10.6219C0.768193 11.9316 0.713057 12.1987 0.701861 18.8882C0.697564 21.1181 0.701861 24.0527 0.701861 27.989C0.701861 39.6725 0.714772 43.0888 0.770775 43.7522C0.964586 46.0872 1.33066 47.5562 2.10591 49.1631C3.58748 52.2391 6.41708 54.5482 9.75062 55.4098C10.9049 55.7071 12.1797 55.8708 13.8163 55.9483C14.5097 55.9785 21.5773 56 28.6492 56C35.7211 56 42.793 55.9914 43.4692 55.9569C45.3642 55.8677 46.4646 55.72 47.6813 55.4055C51.0364 54.5396 53.8144 52.2649 55.326 49.1459C56.0862 47.5777 56.4717 46.0527 56.6461 43.8396C56.684 43.3572 56.7 35.6642 56.7 27.9817C56.7 20.2978 56.6827 12.6191 56.6448 12.1366C56.4682 9.88784 56.0828 8.37573 55.2981 6.77742C54.6542 5.46907 53.9393 4.49199 52.9013 3.49298C51.0489 1.72322 48.7835 0.6462 46.0839 0.256757C44.7759 0.0676234 44.5154 0.0116198 37.8224 0H28.7091Z" fill="url(#paint2_radial_13627_31315)"/>
<path d="M28.7091 0C17.0194 0 13.6005 0.0120641 12.936 0.0671998C10.5371 0.266662 9.04431 0.644485 7.41801 1.45438C6.16472 2.07691 5.17628 2.7985 4.20077 3.81004C2.42419 5.65475 1.34747 7.92423 0.957687 10.6219C0.768193 11.9316 0.713057 12.1987 0.701861 18.8882C0.697564 21.1181 0.701861 24.0527 0.701861 27.989C0.701861 39.6725 0.714772 43.0888 0.770775 43.7522C0.964586 46.0872 1.33066 47.5562 2.10591 49.1631C3.58748 52.2391 6.41708 54.5482 9.75062 55.4098C10.9049 55.7071 12.1797 55.8708 13.8163 55.9483C14.5097 55.9785 21.5773 56 28.6492 56C35.7211 56 42.793 55.9914 43.4692 55.9569C45.3642 55.8677 46.4646 55.72 47.6813 55.4055C51.0364 54.5396 53.8144 52.2649 55.326 49.1459C56.0862 47.5777 56.4717 46.0527 56.6461 43.8396C56.684 43.3572 56.7 35.6642 56.7 27.9817C56.7 20.2978 56.6827 12.6191 56.6448 12.1366C56.4682 9.88784 56.0828 8.37573 55.2981 6.77742C54.6542 5.46907 53.9393 4.49199 52.9013 3.49298C51.0489 1.72322 48.7835 0.6462 46.0839 0.256757C44.7759 0.0676234 44.5154 0.0116198 37.8224 0H28.7091Z" fill="url(#paint3_radial_13627_31315)"/>
<path fill-rule="evenodd" clip-rule="evenodd" d="M24.5696 18.1227C22.9417 18.1962 21.5308 18.5942 20.3914 19.7287C19.2481 20.8692 18.8551 22.2856 18.7815 23.8965C18.7357 24.902 18.468 32.4982 19.2442 34.4903C19.7675 35.8342 20.7984 36.8675 22.1546 37.3926C22.7875 37.6387 23.5099 37.8055 24.5696 37.8541C33.4304 38.2551 36.715 38.0367 38.1001 34.4903C38.3459 33.859 38.5151 33.1374 38.5618 32.0803C38.9668 23.1968 38.4962 21.2712 36.9519 19.7287C35.727 18.5069 34.2862 17.6751 24.5696 18.1227ZM24.6512 36.0675C23.681 36.0238 23.1547 35.862 22.8034 35.726C21.9198 35.3826 21.2561 34.7215 20.9148 33.8431C20.3238 32.3294 20.5198 25.1402 20.5725 23.9769C20.6243 22.8375 20.8551 21.7962 21.6591 20.9923C22.6542 19.9997 23.9397 19.5133 32.6931 19.9084C33.8354 19.96 34.8792 20.1903 35.6852 20.9923C36.6802 21.9848 37.1738 23.2801 36.7718 31.9999C36.728 32.9677 36.5658 33.4927 36.4295 33.8431C35.529 36.1509 33.4573 36.4715 24.6512 36.0675ZM33.9837 23.8807C33.3239 23.8807 32.7896 23.3466 32.7896 22.6896C32.7896 22.0325 33.3239 21.4985 33.9837 21.4985C34.6434 21.4985 35.1787 22.0325 35.1787 22.6896C35.1787 23.3466 34.6434 23.8807 33.9837 23.8807ZM23.5626 27.9879C23.5626 30.8029 25.8502 33.0848 28.6721 33.0848C31.4941 33.0848 33.7817 30.8029 33.7817 27.9879C33.7817 25.173 31.4941 22.892 28.6721 22.892C25.8502 22.892 23.5626 25.173 23.5626 27.9879ZM28.6721 24.6797C26.8403 24.6797 25.3557 26.1616 25.3557 27.9879C25.3557 29.8153 26.8403 31.2972 28.6721 31.2972C30.504 31.2972 31.9886 29.8153 31.9886 27.9879C31.9886 26.1616 30.504 24.6797 28.6721 24.6797Z" fill="white"/>
</g>
<defs>
<radialGradient id="paint0_radial_13627_31315" cx="0" cy="0" r="1" gradientUnits="userSpaceOnUse" gradientTransform="translate(54.8917 26.2479) rotate(164.25) scale(35.7808 25.7784)">
<stop stop-color="#FF005F"/>
<stop offset="1" stop-color="#FC01D8"/>
</radialGradient>
<radialGradient id="paint1_radial_13627_31315" cx="0" cy="0" r="1" gradientUnits="userSpaceOnUse" gradientTransform="translate(15.5745 60.3131) rotate(-90) scale(44.7003 47.426)">
<stop stop-color="#FFCC00"/>
<stop offset="0.1242" stop-color="#FFCC00"/>
<stop offset="0.5672" stop-color="#FE4A05"/>
<stop offset="0.6942" stop-color="#FF0F3F"/>
<stop offset="1" stop-color="#FE0657" stop-opacity="0"/>
</radialGradient>
<radialGradient id="paint2_radial_13627_31315" cx="0" cy="0" r="1" gradientUnits="userSpaceOnUse" gradientTransform="translate(30.115 55.2102) rotate(-59.8703) scale(18.4839 24.064)">
<stop stop-color="#FFCC00"/>
<stop offset="1" stop-color="#FFCC00" stop-opacity="0"/>
</radialGradient>
<radialGradient id="paint3_radial_13627_31315" cx="0" cy="0" r="1" gradientUnits="userSpaceOnUse" gradientTransform="translate(8.29795 2.2803) rotate(164.274) scale(35.3839 12.0553)">
<stop stop-color="#780CFF"/>
<stop offset="1" stop-color="#820BFF" stop-opacity="0"/>
</radialGradient>
<clipPath id="clip0_13627_31315">
<rect x="0.699951" width="56" height="56" rx="16" fill="white"/>
</clipPath>
</defs>
</svg>
