<svg width="24" height="24" viewBox="0 0 24 24" fill="none" xmlns="http://www.w3.org/2000/svg">
<path fill-rule="evenodd" clip-rule="evenodd" d="M7.86965 2.12273C6.24177 2.19618 4.8308 2.5942 3.69149 3.72871C2.54819 4.86918 2.15515 6.28558 2.08151 7.89653C2.03574 8.90201 1.76808 16.4982 2.54421 18.4903C3.0676 19.8342 4.09846 20.8675 5.45469 21.3926C6.08754 21.6387 6.80994 21.8055 7.86965 21.8541C16.7305 22.2551 20.0151 22.0367 21.4002 18.4903C21.646 17.859 21.8151 17.1374 21.8619 16.0803C22.2669 7.19677 21.7962 5.27117 20.2519 3.72871C19.027 2.50685 17.5862 1.67508 7.86965 2.12273ZM7.95124 20.0675C6.98108 20.0238 6.45471 19.862 6.10346 19.726C5.21986 19.3826 4.55617 18.7215 4.21488 17.8431C3.62382 16.3294 3.81985 9.14023 3.87258 7.97693C3.92432 6.83745 4.15517 5.79624 4.95916 4.99226C5.9542 3.99968 7.23979 3.51332 15.9931 3.90837C17.1354 3.95998 18.1792 4.19026 18.9852 4.99226C19.9803 5.98483 20.4738 7.28014 20.0718 15.9999C20.028 16.9677 19.8658 17.4927 19.7295 17.8431C18.829 20.1509 16.7573 20.4715 7.95124 20.0675ZM17.2837 7.88065C16.624 7.88065 16.0897 7.34665 16.0897 6.68956C16.0897 6.03248 16.624 5.49847 17.2837 5.49847C17.9434 5.49847 18.4788 6.03248 18.4788 6.68956C18.4788 7.34665 17.9434 7.88065 17.2837 7.88065ZM6.86267 11.9879C6.86267 14.8029 9.15027 17.0848 11.9722 17.0848C14.7941 17.0848 17.0817 14.8029 17.0817 11.9879C17.0817 9.17298 14.7941 6.89205 11.9722 6.89205C9.15027 6.89205 6.86267 9.17298 6.86267 11.9879ZM11.9722 8.67967C10.1403 8.67967 8.65573 10.1616 8.65573 11.9879C8.65573 13.8153 10.1403 15.2972 11.9722 15.2972C13.8041 15.2972 15.2887 13.8153 15.2887 11.9879C15.2887 10.1616 13.8041 8.67967 11.9722 8.67967Z" fill="#0C0024"/>
</svg>
