<svg width="96" height="96" viewBox="0 0 96 96" fill="none" xmlns="http://www.w3.org/2000/svg">
<path fill-rule="evenodd" clip-rule="evenodd" d="M24 4C20.8174 4 17.7652 5.26428 15.5147 7.51472C13.2643 9.76516 12 12.8174 12 16L12 80C12 83.1826 13.2643 86.2348 15.5147 88.4853C17.7652 90.7357 20.8174 92 24 92H72C75.1826 92 78.2348 90.7357 80.4853 88.4853C82.7357 86.2348 84 83.1826 84 80V33.3675C83.9998 31.7689 83.6802 30.1864 83.0599 28.713C82.4398 27.2399 81.5309 25.9048 80.388 24.7875L62.6285 7.42C60.3867 5.22795 57.3754 4.00039 54.24 4L24 4ZM21.1716 13.1716C21.9217 12.4214 22.9391 12 24 12H52V24C52 27.1826 53.2643 30.2348 55.5147 32.4853C57.7652 34.7357 60.8174 36 64 36H76V80C76 81.0609 75.5786 82.0783 74.8284 82.8284C74.0783 83.5786 73.0609 84 72 84H24C22.9391 84 21.9217 83.5786 21.1716 82.8284C20.4214 82.0783 20 81.0609 20 80V16C20 14.9391 20.4214 13.9217 21.1716 13.1716ZM72.2309 28L60 16.0391V24C60 25.0609 60.4214 26.0783 61.1716 26.8284C61.9217 27.5786 62.9391 28 64 28H72.2309Z" fill="#F7F7F8"/>
<path fill-rule="evenodd" clip-rule="evenodd" d="M46.3872 34.8862C48.3715 34.8862 49.98 36.4948 49.98 38.479V38.8411C55.6683 38.973 60 43.7915 60 49.4172C60 51.4014 58.3914 53.01 56.4072 53.01C54.4229 53.01 52.8144 51.4014 52.8144 49.4172C52.8144 47.4829 51.4352 46.1663 49.98 46.0348V53.8644L53.62 55.1341C55.0726 55.6511 56.804 56.4865 58.1062 58.154C59.4402 59.8624 59.9601 61.9673 59.9601 64.3074C59.9601 69.5098 55.9274 74.008 50.5788 74.008H49.98V74.4072C49.98 76.3914 48.3715 78 46.3872 78C44.403 78 42.7944 76.3914 42.7944 74.4072V74.0042C37.1258 73.8508 32.8144 69.0416 32.8144 63.4291C32.8144 61.4449 34.4229 59.8363 36.4072 59.8363C38.3914 59.8363 40 61.4449 40 63.4291C40 65.3457 41.354 66.6559 42.7944 66.8076V58.968L39.1944 57.7122C37.7645 57.2033 36.024 56.3828 34.7143 54.715C33.3701 53.0034 32.8543 50.8899 32.8543 48.5389C32.8543 43.3921 36.8722 38.8383 42.2355 38.8383H42.7944V38.479C42.7944 36.4948 44.403 34.8862 46.3872 34.8862ZM42.7944 46.024H42.2355C41.2117 46.024 40.0399 46.9792 40.0399 48.5389C40.0399 49.8606 40.3225 50.2222 40.3656 50.277C40.4428 50.3753 40.6769 50.6115 41.5941 50.939L42.7944 51.3577V46.024ZM49.98 61.4746V66.8224H50.5788C51.6176 66.8224 52.7744 65.8914 52.7744 64.3074C52.7744 63.0148 52.4959 62.6446 52.4427 62.5766C52.358 62.468 52.1148 62.2268 51.2202 61.9072L49.98 61.4746Z" fill="#F7F7F8"/>
</svg>
