<svg width="144" height="144" viewBox="0 0 144 144" fill="none" xmlns="http://www.w3.org/2000/svg">
<rect width="144" height="144" rx="72" fill="#F7F5FC"/>
<path d="M61.2339 51.5741C60.4415 51.5741 59.696 51.0905 59.4007 50.3048L53.5284 34.6453C53.1489 33.6321 53.6622 32.5043 54.6743 32.1239C55.6875 31.7473 56.8143 32.2577 57.1948 33.2689L63.0671 48.9285C63.4465 49.9416 62.9333 51.0695 61.9211 51.4499C61.6946 51.534 61.4623 51.5741 61.2339 51.5741Z" fill="#E9E2FE"/>
<path d="M80.8088 51.5741C80.5804 51.5741 80.3481 51.534 80.1216 51.4499C79.1094 51.0695 78.5962 49.9416 78.9756 48.9285L84.848 33.2689C85.2293 32.2577 86.3581 31.7473 87.3684 32.1239C88.3805 32.5043 88.8938 33.6321 88.5144 34.6453L82.642 50.3048C82.3467 51.0905 81.6012 51.5741 80.8088 51.5741Z" fill="#E9E2FE"/>
<path d="M55.3615 112.255C55.1331 112.255 54.9009 112.215 54.6743 112.131C53.6622 111.75 53.1489 110.623 53.5284 109.609L59.4007 93.9498C59.7821 92.9386 60.9108 92.4301 61.9211 92.8048C62.9333 93.1852 63.4465 94.313 63.0671 95.3261L57.1948 110.986C56.8994 111.771 56.1539 112.255 55.3615 112.255Z" fill="#E9E2FE"/>
<path d="M86.6812 112.255C85.8888 112.255 85.1433 111.771 84.848 110.986L78.9756 95.3261C78.5962 94.313 79.1094 93.1852 80.1216 92.8048C81.1347 92.4301 82.2616 92.9386 82.642 93.9498L88.5144 109.609C88.8938 110.623 88.3805 111.75 87.3684 112.131C87.1418 112.215 86.9096 112.255 86.6812 112.255Z" fill="#E9E2FE"/>
<path d="M54.383 88.7649H42.6383C33.4647 88.7649 26 81.3002 26 72.1266C26 62.953 33.4647 55.4883 42.6383 55.4883H54.383C63.5566 55.4883 71.0213 62.953 71.0213 72.1266C71.0213 81.3002 63.5566 88.7649 54.383 88.7649ZM42.6383 61.3606C36.7029 61.3606 31.8723 66.1911 31.8723 72.1266C31.8723 78.062 36.7029 82.8925 42.6383 82.8925H54.383C60.3184 82.8925 65.1489 78.062 65.1489 72.1266C65.1489 66.1911 60.3184 61.3606 54.383 61.3606H42.6383Z" fill="#663FBA"/>
<path d="M101.361 88.7649H89.6168C80.4432 88.7649 72.9785 81.3002 72.9785 72.1266C72.9785 62.953 80.4432 55.4883 89.6168 55.4883H101.361C110.535 55.4883 118 62.953 118 72.1266C118 81.3002 110.535 88.7649 101.361 88.7649ZM89.6168 61.3606C83.6814 61.3606 78.8509 66.1911 78.8509 72.1266C78.8509 78.062 83.6814 82.8925 89.6168 82.8925H101.361C107.297 82.8925 112.127 78.062 112.127 72.1266C112.127 66.1911 107.297 61.3606 101.361 61.3606H89.6168Z" fill="#663FBA"/>
<path d="M91.5744 75.0637H52.4254C50.8044 75.0637 49.4893 73.7486 49.4893 72.1276C49.4893 70.5066 50.8044 69.1914 52.4254 69.1914H91.5744C93.1954 69.1914 94.5105 70.5066 94.5105 72.1276C94.5105 73.7486 93.1954 75.0637 91.5744 75.0637Z" fill="#A796D9"/>
<path d="M70.7458 75.0625H64.7314C64.3188 76.5136 63.6178 77.8443 62.6807 78.9774H69.5277C70.088 77.7441 70.5002 76.4333 70.7458 75.0625Z" fill="#310D75"/>
<path d="M74.4721 78.9774H81.3191C80.3819 77.8443 79.681 76.5136 79.2683 75.0625H73.2539C73.4996 76.4333 73.9117 77.7441 74.4721 78.9774Z" fill="#310D75"/>
</svg>
