<svg width="40" height="40" viewBox="0 0 40 40" fill="none" xmlns="http://www.w3.org/2000/svg">
<path d="M0 16C0 8.45753 0 4.68629 2.34315 2.34315C4.68629 0 8.45753 0 16 0H24C31.5425 0 35.3137 0 37.6569 2.34315C40 4.68629 40 8.45753 40 16V24C40 31.5425 40 35.3137 37.6569 37.6569C35.3137 40 31.5425 40 24 40H16C8.45753 40 4.68629 40 2.34315 37.6569C0 35.3137 0 31.5425 0 24V16Z" fill="#F7F7F8"/>
<path fill-rule="evenodd" clip-rule="evenodd" d="M20 12C19.2044 12 18.4413 12.3161 17.8787 12.8787C17.3161 13.4413 17 14.2044 17 15V17H23V15C23 14.2044 22.6839 13.4413 22.1213 12.8787C21.5587 12.3161 20.7956 12 20 12ZM16.4645 11.4645C17.4021 10.5268 18.6739 10 20 10C21.3261 10 22.5979 10.5268 23.5355 11.4645C24.4732 12.4021 25 13.6739 25 15V17H26C26.7957 17 27.5587 17.3161 28.1213 17.8787C28.6839 18.4413 29 19.2043 29 20V27C29 27.7957 28.6839 28.5587 28.1213 29.1213C27.5587 29.6839 26.7957 30 26 30H14C13.2043 30 12.4413 29.6839 11.8787 29.1213C11.3161 28.5587 11 27.7957 11 27V20C11 19.2044 11.3161 18.4413 11.8787 17.8787C12.4413 17.3161 13.2043 17 14 17H15V15C15 13.6739 15.5268 12.4021 16.4645 11.4645ZM14 19C13.7348 19 13.4804 19.1054 13.2929 19.2929C13.1054 19.4804 13 19.7348 13 20V27C13 27.2652 13.1054 27.5196 13.2929 27.7071C13.4804 27.8946 13.7348 28 14 28H26C26.2652 28 26.5196 27.8946 26.7071 27.7071C26.8946 27.5196 27 27.2652 27 27V20C27 19.7348 26.8946 19.4804 26.7071 19.2929C26.5196 19.1054 26.2652 19 26 19H14ZM20 21C20.5523 21 21 21.4477 21 22V25C21 25.5523 20.5523 26 20 26C19.4477 26 19 25.5523 19 25V22C19 21.4477 19.4477 21 20 21Z" fill="#20113E"/>
</svg>
