<svg width="24" height="24" viewBox="0 0 24 24" fill="none" xmlns="http://www.w3.org/2000/svg">
<path d="M0 8C0 3.58172 3.58172 0 8 0H16C20.4183 0 24 3.58172 24 8V16C24 20.4183 20.4183 24 16 24H8C3.58172 24 0 20.4183 0 16V8Z" fill="transparent"/>
<path d="M19.3299 10.7368C16.7699 8.17684 13.2033 7.24351 9.89659 7.92351L11.5766 9.60351C13.8899 9.49018 16.2366 10.3035 17.9966 12.0702L19.3299 10.7368ZM16.6633 13.4035C15.8363 12.5768 14.8025 11.9874 13.6699 11.6968L16.0233 14.0502L16.6633 13.4035ZM5.77241 6.34449C5.53278 6.57855 5.53115 6.96347 5.76878 7.19955L7.38326 8.80351C6.40326 9.28351 5.48326 9.92351 4.66992 10.7368L5.99659 12.0702C6.82326 11.2435 7.77659 10.6302 8.79659 10.2235L10.2899 11.7168C9.17242 12.005 8.15259 12.5874 7.33659 13.4035V13.4102L8.66326 14.7368C9.53422 13.8667 10.7121 13.3735 11.9433 13.3635L16.2365 17.6507C16.4688 17.8827 16.845 17.8833 17.078 17.652C17.3126 17.4193 17.3133 17.0403 17.0796 16.8068L6.61598 6.34932C6.38355 6.11702 6.0075 6.11487 5.77241 6.34449ZM10.0033 16.0702L12.0033 18.0702L14.0033 16.0702C13.7409 15.8071 13.4291 15.5983 13.0859 15.4559C12.7428 15.3135 12.3748 15.2402 12.0033 15.2402C11.6317 15.2402 11.2638 15.3135 10.9206 15.4559C10.5774 15.5983 10.2656 15.8071 10.0033 16.0702Z" fill="white"/>
</svg>
