<svg width="40" height="41" viewBox="0 0 40 41" fill="none" xmlns="http://www.w3.org/2000/svg">
<g clip-path="url(#clip0_1324_26977)">
<path d="M0 12.5C0 5.87258 5.37258 0.5 12 0.5H28C34.6274 0.5 40 5.87258 40 12.5V28.5C40 35.1274 34.6274 40.5 28 40.5H12C5.37258 40.5 0 35.1274 0 28.5V12.5Z" fill="#663FBA"/>
<path fill-rule="evenodd" clip-rule="evenodd" d="M21.9394 10.7802C21.9901 10.8435 22.0174 10.9233 22.0162 11.0054L22.017 13.4574C22.017 13.474 22.0134 13.4903 22.0061 13.5051C21.9989 13.5199 21.9884 13.5327 21.9758 13.5426C21.963 13.5525 21.948 13.5591 21.9322 13.562C21.9164 13.5649 21.9003 13.564 21.885 13.5594C21.418 13.4228 20.9386 13.3376 20.4544 13.3057C19.4127 13.2364 18.3687 13.3981 17.3925 13.7795C16.4163 14.1612 15.5302 14.7537 14.794 15.5177L10.1958 20.2642C10.1795 20.281 10.1588 20.2925 10.1364 20.2969C10.1139 20.3015 10.0906 20.2989 10.0695 20.2896C10.0485 20.2803 10.0306 20.2647 10.0182 20.2448C10.0058 20.2249 9.99959 20.2016 10 20.178V16.6602C10 16.6145 10.0086 16.5693 10.0255 16.5269C10.0423 16.4848 10.0673 16.4464 10.0988 16.4142L12.734 13.6939C14.5399 11.8298 16.932 10.6438 19.482 10.5128C20.2374 10.474 20.9946 10.5236 21.7394 10.6604C21.8178 10.6745 21.8886 10.7171 21.9394 10.7802ZM21.8959 18.7513C21.2768 18.6009 20.6429 18.525 20.0071 18.5252L20.0114 18.5303C19.7094 18.5285 19.4102 18.5887 19.1311 18.7072C18.852 18.8257 18.5984 19.0004 18.3851 19.2208L10.2033 27.6664C10.1871 27.6832 10.1666 27.6947 10.1439 27.6991C10.1215 27.7037 10.0982 27.7011 10.0772 27.6918C10.0561 27.6825 10.0381 27.6669 10.0257 27.647C10.0136 27.6272 10.0071 27.6038 10.0076 27.5802V24.0606C10.0074 24.0147 10.0159 23.9695 10.033 23.9269C10.0499 23.8846 10.0749 23.8462 10.1063 23.814L16.3886 17.3289C17.1887 16.5029 18.2162 15.9265 19.3374 15.7753C19.5592 15.7458 19.7827 15.7308 20.0063 15.7306C20.5931 15.7292 21.1785 15.7914 21.7527 15.9161C21.8288 15.9331 21.8966 15.977 21.9446 16.0399C21.9927 16.1029 22.0179 16.1813 22.0162 16.2613V18.652C22.0165 18.6673 22.013 18.6825 22.0068 18.6964C22.0004 18.7101 21.991 18.7222 21.9795 18.7319C21.9679 18.7414 21.9543 18.7482 21.9397 18.7515C21.9252 18.7548 21.9102 18.7548 21.8959 18.7513ZM17.987 30.7736C17.987 30.8555 18.0146 30.9347 18.065 30.9977C18.1157 31.0608 18.186 31.1036 18.2638 31.1189C19.0073 31.2545 19.7632 31.3037 20.5172 31.2656C23.0672 31.1334 25.4601 29.9477 27.2651 28.0842L29.9012 25.3641C29.9643 25.2982 29.9996 25.2097 30 25.1171V21.5995C30.0004 21.5757 29.9942 21.5525 29.9816 21.5326C29.9694 21.5128 29.9515 21.4971 29.9305 21.4879C29.9094 21.4786 29.8861 21.476 29.8636 21.4806C29.8412 21.485 29.8205 21.4962 29.8042 21.513L25.2058 26.2598C24.4698 27.0244 23.5837 27.6178 22.607 27.9997C21.6304 28.3816 20.586 28.5435 19.5439 28.4745C19.0626 28.4423 18.5863 28.3569 18.1225 28.2199C18.1071 28.2153 18.0909 28.2146 18.0753 28.2175C18.0595 28.2205 18.0445 28.2274 18.0317 28.2373C18.0191 28.2472 18.0086 28.26 18.0014 28.2748C17.9943 28.2896 17.9905 28.3059 17.9905 28.3225L17.987 30.7736ZM18.1074 23.033C18.7263 23.1819 19.3598 23.2563 19.9954 23.2547V23.2503C20.2973 23.2525 20.5967 23.1925 20.8761 23.0738C21.1554 22.9553 21.4091 22.7806 21.6224 22.56L29.8043 14.1133C29.8203 14.0967 29.8411 14.0852 29.8635 14.0808C29.8859 14.0762 29.9092 14.0788 29.9304 14.0881C29.9513 14.0974 29.9693 14.113 29.9817 14.1329C29.9941 14.1527 30.0005 14.1759 29.9998 14.1997V17.7191C29.9996 17.8115 29.9642 17.9002 29.9011 17.9659L23.6188 24.4508C22.8187 25.2777 21.7912 25.8532 20.6701 26.0043C20.4469 26.035 20.2221 26.05 19.9971 26.0493C19.4102 26.0504 18.8249 25.9885 18.2504 25.8636C18.1745 25.8466 18.1068 25.8029 18.0587 25.7398C18.0106 25.677 17.9854 25.5986 17.9871 25.5186V23.1312C17.9869 23.1159 17.9901 23.1009 17.9965 23.087C18.0029 23.0731 18.0123 23.061 18.0239 23.0515C18.0356 23.042 18.0491 23.0354 18.0636 23.0323C18.0782 23.029 18.0931 23.0292 18.1074 23.033Z" fill="white"/>
</g>
<defs>
<clipPath id="clip0_1324_26977">
<path d="M0 12.5C0 5.87258 5.37258 0.5 12 0.5H28C34.6274 0.5 40 5.87258 40 12.5V28.5C40 35.1274 34.6274 40.5 28 40.5H12C5.37258 40.5 0 35.1274 0 28.5V12.5Z" fill="white"/>
</clipPath>
</defs>
</svg>
