<svg width="24" height="24" viewBox="0 0 24 24" fill="none" xmlns="http://www.w3.org/2000/svg">
<path fill-rule="evenodd" clip-rule="evenodd" d="M18.319 16.905L21.707 20.293L20.293 21.707L2.293 3.707L3.707 2.293L8 6.586V6.021C8.00111 4.99297 8.3975 4.00474 9.1071 3.26089C9.8167 2.51704 10.7852 2.07454 11.812 2.025C11.881 2.009 11.951 2 12.021 2C14.215 2 16 3.804 16 6.021L16 12.021C16 12.755 15.787 13.434 15.439 14.025L16.891 15.477C17.6116 14.4686 17.9993 13.2604 18 12.021H20C19.9995 13.7908 19.4079 15.5098 18.319 16.905ZM12 4.021C10.897 4.021 10 4.918 10 6.021V8.586L13.929 12.515C13.971 12.356 14 12.193 14 12.021L14 6.021C14 4.956 13.188 4.08 12.164 4.006C12.1099 4.0159 12.055 4.02092 12 4.021ZM4 12.021H6C6 15.329 8.691 18.021 12 18.021C12.5618 18.0197 13.1206 17.9393 13.66 17.782L15.218 19.34C14.512 19.6496 13.7649 19.8554 13 19.951V22.021H11V19.952C7.06 19.457 4 16.093 4 12.021ZM9.17887 14.8411C8.45802 14.1202 8.04018 13.151 8.01099 12.132L11.888 16.009C10.869 15.9798 9.89972 15.5619 9.17887 14.8411Z" fill="#0C0024"/>
</svg>
