<svg width="21" height="15" viewBox="0 0 21 15" fill="none" xmlns="http://www.w3.org/2000/svg">
<path fill-rule="evenodd" clip-rule="evenodd" d="M9.75741 0.00426608C15.7374 -0.175734 19.2574 5.39427 19.8974 6.50427C19.9852 6.65629 20.0314 6.82873 20.0314 7.00427C20.0314 7.1798 19.9852 7.35225 19.8974 7.50427C19.0374 9.00427 15.8274 13.8643 10.2974 14.0043H10.0474C4.15741 14.0043 0.787412 8.59427 0.157412 7.50427C0.0696438 7.35225 0.0234375 7.1798 0.0234375 7.00427C0.0234375 6.82873 0.0696438 6.65629 0.157412 6.50427C1.02741 5.00427 4.22741 0.144266 9.75741 0.00426608ZM2.24741 7.00427C3.12741 8.41427 5.93741 12.1043 10.2474 12.0043C14.2474 11.9043 16.8274 8.61427 17.8574 7.00427C16.9674 5.59427 14.1474 1.89427 9.85741 2.00427C5.85741 2.10427 3.24741 5.39427 2.24741 7.00427ZM8.08291 4.09413C8.65848 3.70954 9.33517 3.50427 10.0274 3.50427C10.9557 3.50427 11.8459 3.87302 12.5023 4.5294C13.1587 5.18578 13.5274 6.07601 13.5274 7.00427C13.5274 7.69651 13.3221 8.3732 12.9376 8.94877C12.553 9.52434 12.0063 9.97294 11.3668 10.2379C10.7273 10.5028 10.0235 10.5721 9.34459 10.437C8.66566 10.302 8.04202 9.96863 7.55253 9.47915C7.06305 8.98966 6.72971 8.36602 6.59466 7.68709C6.45961 7.00816 6.52892 6.30442 6.79383 5.66488C7.05873 5.02534 7.50734 4.47871 8.08291 4.09413ZM9.19405 8.25148C9.44073 8.4163 9.73073 8.50427 10.0274 8.50427C10.4252 8.50427 10.8068 8.34624 11.0881 8.06493C11.3694 7.78363 11.5274 7.4021 11.5274 7.00427C11.5274 6.7076 11.4394 6.41759 11.2746 6.17092C11.1098 5.92424 10.8755 5.73198 10.6014 5.61845C10.3273 5.50492 10.0257 5.47522 9.73477 5.53309C9.4438 5.59097 9.17653 5.73383 8.96675 5.94361C8.75697 6.15339 8.61411 6.42066 8.55623 6.71164C8.49835 7.00261 8.52806 7.30421 8.64159 7.5783C8.75512 7.85239 8.94738 8.08665 9.19405 8.25148Z" fill="#310D75"/>
</svg>
