<svg width="21" height="15" viewBox="0 0 24 24" fill="none" xmlns="http://www.w3.org/2000/svg">
<path fill-rule="evenodd" clip-rule="evenodd" d="M4.38822 3.07643C4.51004 3.12689 4.62073 3.20085 4.71397 3.29409L20.714 19.2941C20.8077 19.3871 20.8821 19.4977 20.9329 19.6195C20.9836 19.7414 21.0098 19.8721 21.0098 20.0041C21.0098 20.1361 20.9836 20.2668 20.9329 20.3887C20.8821 20.5105 20.8077 20.6211 20.714 20.7141C20.621 20.8078 20.5104 20.8822 20.3885 20.933C20.2667 20.9838 20.136 21.0099 20.004 21.0099C19.872 21.0099 19.7413 20.9838 19.6194 20.933C19.4975 20.8822 19.3869 20.8078 19.294 20.7141L13.664 15.0841C13.0014 15.4403 12.2416 15.5735 11.4973 15.464C10.753 15.3545 10.0639 15.0081 9.53191 14.4762C8.99996 13.9442 8.65356 13.255 8.54406 12.5107C8.43456 11.7665 8.56777 11.0067 8.92397 10.3441L3.29397 4.71409C3.10567 4.52579 2.99988 4.27039 2.99988 4.00409C2.99988 3.73779 3.10567 3.4824 3.29397 3.29409C3.38721 3.20085 3.4979 3.12689 3.61972 3.07643C3.74154 3.02597 3.87211 3 4.00397 3C4.13583 3 4.2664 3.02597 4.38822 3.07643ZM10.9433 13.0648C11.2246 13.3461 11.6061 13.5041 12.004 13.5041L12.064 13.4941L10.504 11.9341V12.0041C10.504 12.4019 10.662 12.7834 10.9433 13.0648ZM4.22397 12.0041C5.10397 13.4141 7.92397 17.1041 12.224 17.0041C12.7982 16.9842 13.3683 16.9003 13.924 16.7541L15.504 18.3341C14.4747 18.7445 13.3815 18.9713 12.274 19.0041H12.024C6.13398 19.0041 2.76397 13.5941 2.13397 12.5041C2.04621 12.3521 2 12.1797 2 12.0041C2 11.8286 2.04621 11.6562 2.13397 11.5041C2.90838 10.1606 3.8753 8.93761 5.00397 7.87414L6.46397 9.28414C5.60334 10.0906 4.85044 11.0048 4.22397 12.0041ZM11.734 5.00414C17.704 4.82414 21.234 10.3941 21.874 11.5041C21.9679 11.6526 22.021 11.8232 22.0281 11.9988C22.0351 12.1743 21.9957 12.3486 21.914 12.5041C21.1273 13.8504 20.1468 15.0735 19.004 16.1341L17.494 14.7241C18.3722 13.9208 19.142 13.0064 19.784 12.0041C18.894 10.5941 16.074 6.89414 11.784 7.00414C11.2098 7.02412 10.6396 7.10797 10.084 7.25414L8.50397 5.67414C9.53321 5.26376 10.6264 5.037 11.734 5.00414Z" fill="#310D75"/>
</svg>
