<svg width="24" height="24" viewBox="0 0 24 24" fill="none" xmlns="http://www.w3.org/2000/svg">
<path d="M7.125 12C7.125 12.4973 6.92746 12.9742 6.57583 13.3258C6.22419 13.6775 5.74728 13.875 5.25 13.875C4.75272 13.875 4.27581 13.6775 3.92417 13.3258C3.57254 12.9742 3.375 12.4973 3.375 12C3.375 11.5027 3.57254 11.0258 3.92417 10.6742C4.27581 10.3225 4.75272 10.125 5.25 10.125C5.74728 10.125 6.22419 10.3225 6.57583 10.6742C6.92746 11.0258 7.125 11.5027 7.125 12ZM13.875 12C13.875 12.4973 13.6775 12.9742 13.3258 13.3258C12.9742 13.6775 12.4973 13.875 12 13.875C11.5027 13.875 11.0258 13.6775 10.6742 13.3258C10.3225 12.9742 10.125 12.4973 10.125 12C10.125 11.5027 10.3225 11.0258 10.6742 10.6742C11.0258 10.3225 11.5027 10.125 12 10.125C12.4973 10.125 12.9742 10.3225 13.3258 10.6742C13.6775 11.0258 13.875 11.5027 13.875 12ZM18.75 13.875C19.2473 13.875 19.7242 13.6775 20.0758 13.3258C20.4275 12.9742 20.625 12.4973 20.625 12C20.625 11.5027 20.4275 11.0258 20.0758 10.6742C19.7242 10.3225 19.2473 10.125 18.75 10.125C18.2527 10.125 17.7758 10.3225 17.4242 10.6742C17.0725 11.0258 16.875 11.5027 16.875 12C16.875 12.4973 17.0725 12.9742 17.4242 13.3258C17.7758 13.6775 18.2527 13.875 18.75 13.875Z" fill="#0C0024"/>
</svg>
