<svg width="56" height="56" viewBox="0 0 56 56" fill="none" xmlns="http://www.w3.org/2000/svg">
<path d="M0 28C0 16.7643 0 11.1465 2.69649 7.11088C3.86382 5.36383 5.36383 3.86382 7.11088 2.69649C11.1465 0 16.7643 0 28 0C39.2357 0 44.8535 0 48.8891 2.69649C50.6362 3.86382 52.1362 5.36383 53.3035 7.11088C56 11.1465 56 16.7643 56 28C56 39.2357 56 44.8535 53.3035 48.8891C52.1362 50.6362 50.6362 52.1362 48.8891 53.3035C44.8535 56 39.2357 56 28 56C16.7643 56 11.1465 56 7.11088 53.3035C5.36383 52.1362 3.86382 50.6362 2.69649 48.8891C0 44.8535 0 39.2357 0 28Z" fill="#310D75"/>
<g clip-path="url(#clip0_904_17045)">
<path d="M28 40C24.8174 40 21.7652 38.7357 19.5147 36.4853C17.2643 34.2348 16 31.1826 16 28C16 24.8174 17.2643 21.7652 19.5147 19.5147C21.7652 17.2643 24.8174 16 28 16C31.1826 16 34.2348 17.2643 36.4853 19.5147C38.7357 21.7652 40 24.8174 40 28C40 31.1826 38.7357 34.2348 36.4853 36.4853C34.2348 38.7357 31.1826 40 28 40ZM37.3 30.4C37.7059 28.8257 37.7059 27.1743 37.3 25.6H32.716C32.8272 27.1981 32.8272 28.8019 32.716 30.4H37.3ZM36.316 32.8H32.452C32.251 34.2464 31.868 35.6616 31.312 37.012C33.4201 36.2344 35.1901 34.7445 36.316 32.8ZM25.696 30.4H30.304C30.4342 28.8027 30.4342 27.1973 30.304 25.6H25.696C25.5658 27.1973 25.5658 28.8027 25.696 30.4ZM25.996 32.8C26.488 35.68 27.352 37.6 28 37.6C28.648 37.6 29.512 35.68 30.004 32.8H25.996ZM18.7 30.4H23.284C23.1728 28.8019 23.1728 27.1981 23.284 25.6H18.7C18.2941 27.1743 18.2941 28.8257 18.7 30.4ZM19.684 32.8C20.8099 34.7445 22.5799 36.2344 24.688 37.012C24.184 35.86 23.8 34.42 23.548 32.8H19.684ZM36.316 23.2C35.1901 21.2555 33.4201 19.7656 31.312 18.988C31.816 20.14 32.2 21.58 32.452 23.2H36.316ZM25.996 23.2H30.004C29.512 20.32 28.648 18.4 28 18.4C27.352 18.4 26.488 20.32 25.996 23.2ZM19.684 23.2H23.548C23.788 21.58 24.184 20.14 24.688 18.988C22.5799 19.7656 20.8099 21.2555 19.684 23.2Z" fill="white"/>
</g>
<defs>
<clipPath id="clip0_904_17045">
<rect width="24" height="24" fill="white" transform="translate(16 16)"/>
</clipPath>
</defs>
</svg>
