<svg width="24" height="24" viewBox="0 0 24 24" fill="none" xmlns="http://www.w3.org/2000/svg">
<path d="M19.1566 21.1996H4.84333C4.30103 21.1996 3.78094 20.9842 3.39748 20.6007C3.01401 20.2173 2.79858 19.6972 2.79858 19.1549V4.84162C2.79858 4.29932 3.01401 3.77923 3.39748 3.39577C3.78094 3.0123 4.30103 2.79688 4.84333 2.79688H19.1566C19.6989 2.79688 20.219 3.0123 20.6024 3.39577C20.9859 3.77923 21.2013 4.29932 21.2013 4.84162V19.1549C21.2013 19.6972 20.9859 20.2173 20.6024 20.6007C20.219 20.9842 19.6989 21.1996 19.1566 21.1996ZM4.84333 4.84162V19.1549H19.1566V4.84162H4.84333ZM18.1342 17.1101H5.86571L8.93283 13.0206L9.95521 14.043L13.0223 9.9535L18.1342 17.1101ZM8.42164 10.9759C8.01492 10.9759 7.62485 10.8143 7.33725 10.5267C7.04965 10.2391 6.88808 9.84904 6.88808 9.44231C6.88808 9.03558 7.04965 8.64552 7.33725 8.35792C7.62485 8.07032 8.01492 7.90875 8.42164 7.90875C8.82837 7.90875 9.21844 8.07032 9.50604 8.35792C9.79364 8.64552 9.95521 9.03558 9.95521 9.44231C9.95521 9.84904 9.79364 10.2391 9.50604 10.5267C9.21844 10.8143 8.82837 10.9759 8.42164 10.9759Z" fill="#B6B3BD"/>
</svg>
