
<!--
This is an auto-generated file. Do not modify.
If you want to add or update any Glass Icons, follow instructions from here:
https://communitycapitalnoumena.atlassian.net/wiki/spaces/NF/pages/1712488456/Glass+Icons
-->
<svg width="28" height="28" viewBox="0 0 28 28" fill="none" xmlns="http://www.w3.org/2000/svg">
<g id="Type=Notification, State=Active">
<path id="back" d="M8 10.1538C8 8.52174 8.63214 6.95649 9.75736 5.80242C10.8826 4.64835 12.4087 4 14 4C15.5913 4 17.1174 4.64835 18.2426 5.80242C19.3679 6.95649 20 8.52174 20 10.1538V13.1456C20 13.8667 20.228 14.5682 20.65 15.1456L22.7 17.9487C22.8671 18.1773 22.9689 18.4491 22.9939 18.7336C23.019 19.0182 22.9662 19.3043 22.8416 19.5598C22.7171 19.8154 22.5256 20.0303 22.2886 20.1805C22.0516 20.3307 21.7786 20.4103 21.5 20.4103H6.5C6.22143 20.4103 5.94837 20.3307 5.7114 20.1805C5.47444 20.0303 5.28294 19.8154 5.15836 19.5598C5.03378 19.3043 4.98104 19.0182 5.00606 18.7336C5.03108 18.4491 5.13286 18.1773 5.3 17.9487L7.35 15.1456C7.77192 14.5687 8 13.8669 8 13.1456V10.1538ZM14 24C13.2462 23.9999 12.5126 23.7503 11.9081 23.2883C11.3037 22.8264 10.8607 22.1767 10.645 21.4359H17.355C17.1393 22.1767 16.6963 22.8264 16.0919 23.2883C15.4874 23.7503 14.7538 23.9999 14 24Z" fill="url(#gradient-back-active)"/>
<g id="front" filter="url(#filter0_i_17420_105386)">
<path d="M8 10.1538C8 8.52174 8.63214 6.95649 9.75736 5.80242C10.8826 4.64835 12.4087 4 14 4C15.5913 4 17.1174 4.64835 18.2426 5.80242C19.3679 6.95649 20 8.52174 20 10.1538V13.1456C20 13.8667 20.228 14.5682 20.65 15.1456L22.7 17.9487C22.8671 18.1773 22.9689 18.4491 22.9939 18.7336C23.019 19.0182 22.9662 19.3043 22.8416 19.5598C22.7171 19.8154 22.5256 20.0303 22.2886 20.1805C22.0516 20.3307 21.7786 20.4103 21.5 20.4103H6.5C6.22143 20.4103 5.94837 20.3307 5.7114 20.1805C5.47444 20.0303 5.28294 19.8154 5.15836 19.5598C5.03378 19.3043 4.98104 19.0182 5.00606 18.7336C5.03108 18.4491 5.13286 18.1773 5.3 17.9487L7.35 15.1456C7.77192 14.5687 8 13.8669 8 13.1456V10.1538ZM14 24C13.2462 23.9999 12.5126 23.7503 11.9081 23.2883C11.3037 22.8264 10.8607 22.1767 10.645 21.4359H17.355C17.1393 22.1767 16.6963 22.8264 16.0919 23.2883C15.4874 23.7503 14.7538 23.9999 14 24Z" fill="url(#gradient-front-active)"/>
</g>
</g>
<defs>
<filter id="filter0_i_17420_105386" x="5" y="4" width="18" height="21" filterUnits="userSpaceOnUse" color-interpolation-filters="sRGB">
<feFlood flood-opacity="0" result="BackgroundImageFix"/>
<feBlend mode="normal" in="SourceGraphic" in2="BackgroundImageFix" result="shape"/>
<feColorMatrix in="SourceAlpha" type="matrix" values="0 0 0 0 0 0 0 0 0 0 0 0 0 0 0 0 0 0 127 0" result="hardAlpha"/>
<feOffset dy="1"/>
<feGaussianBlur stdDeviation="0.5"/>
<feComposite in2="hardAlpha" operator="arithmetic" k2="-1" k3="1"/>
<feColorMatrix type="matrix" values="0 0 0 0 1 0 0 0 0 1 0 0 0 0 1 0 0 0 0.25 0"/>
<feBlend mode="normal" in2="shape" result="effect1_innerShadow_17420_105386"/>
</filter>
<linearGradient id="gradient-back-active" x1="5" y1="9.13158" x2="23.4872" y2="15.8089" gradientUnits="userSpaceOnUse">
<stop stop-color="var(--glass-icon-back-active-gradient-from)"/>
<stop offset="1" stop-color="var(--glass-icon-back-active-gradient-to)"/>
</linearGradient>
<linearGradient id="gradient-back-hover" x1="5" y1="9.13158" x2="23.4872" y2="15.8089" gradientUnits="userSpaceOnUse">
<stop stop-color="var(--glass-icon-back-hover-gradient-from)"/>
<stop offset="1" stop-color="var(--glass-icon-back-hover-gradient-to)"/>
</linearGradient>
<linearGradient id="gradient-front-active" x1="5" y1="9.13158" x2="23.4872" y2="15.8089" gradientUnits="userSpaceOnUse">
<stop stop-color="var(--glass-icon-front-active-gradient-from)"/>
<stop offset="1" stop-color="var(--glass-icon-front-active-gradient-to)"/>
</linearGradient>
<linearGradient id="gradient-front-hover" x1="5" y1="9.13158" x2="23.4872" y2="15.8089" gradientUnits="userSpaceOnUse">
<stop stop-color="var(--glass-icon-front-hover-gradient-from)"/>
<stop offset="1" stop-color="var(--glass-icon-front-hover-gradient-to)"/>
</linearGradient>
</defs>
</svg>
