<svg width="24" height="24" viewBox="0 0 24 24" fill="none" xmlns="http://www.w3.org/2000/svg">
<path d="M0 6C0 2.68629 2.68629 0 6 0H18C21.3137 0 24 2.68629 24 6V18C24 21.3137 21.3137 24 18 24H6C2.68629 24 0 21.3137 0 18V6Z" fill="#663FBA"/>
<path fill-rule="evenodd" clip-rule="evenodd" d="M13.1637 6.16181C13.1941 6.19837 13.2105 6.24449 13.2097 6.29189L13.2102 7.70801C13.2102 7.71757 13.208 7.727 13.2037 7.73553C13.1993 7.74407 13.193 7.75146 13.1855 7.75719C13.1778 7.76293 13.1688 7.76675 13.1593 7.76841C13.1498 7.77006 13.1402 7.76955 13.131 7.76688C12.8508 7.68801 12.5632 7.63883 12.2726 7.62036C11.6476 7.58035 11.0213 7.67374 10.4355 7.89403C9.84977 8.11444 9.31814 8.45666 8.8764 8.89786L6.11747 11.6391C6.10772 11.6488 6.09528 11.6555 6.08182 11.658C6.06836 11.6607 6.05438 11.6592 6.04169 11.6538C6.02912 11.6484 6.01835 11.6394 6.01091 11.6279C6.00348 11.6165 5.99976 11.603 6.00001 11.5893V9.5577C6.00001 9.53133 6.00514 9.50521 6.01527 9.48075C6.0254 9.45642 6.04041 9.43425 6.05925 9.41565L7.64042 7.84459C8.72394 6.76801 10.1592 6.08307 11.6892 6.00739C12.1425 5.98497 12.5968 6.01363 13.0436 6.09263C13.0907 6.10078 13.1331 6.12537 13.1637 6.16181ZM13.1375 10.7654C12.7661 10.6785 12.3858 10.6347 12.0043 10.6348L12.0068 10.6377C11.8257 10.6367 11.6461 10.6715 11.4787 10.7399C11.3112 10.8083 11.159 10.9092 11.031 11.0365L6.122 15.9142C6.11225 15.9238 6.09994 15.9305 6.08635 15.933C6.07289 15.9357 6.05891 15.9342 6.04635 15.9288C6.03365 15.9235 6.02288 15.9144 6.01544 15.9029C6.00813 15.8915 6.00429 15.878 6.00454 15.8643V13.8317C6.00442 13.8052 6.00954 13.7791 6.0198 13.7545C6.02993 13.73 6.04493 13.7079 6.06378 13.6893L9.83314 9.94388C10.3132 9.46687 10.9297 9.13395 11.6024 9.04668C11.7355 9.02961 11.8696 9.02094 12.0038 9.02082C12.3559 9.02005 12.7071 9.05598 13.0516 9.12797C13.0973 9.13778 13.1379 9.16313 13.1668 9.19944C13.1956 9.23588 13.2108 9.28111 13.2097 9.32736V10.7081C13.2099 10.7169 13.2078 10.7256 13.2041 10.7337C13.2003 10.7416 13.1946 10.7486 13.1877 10.7542C13.1808 10.7597 13.1726 10.7636 13.1638 10.7655C13.1551 10.7674 13.1461 10.7674 13.1375 10.7654ZM10.7922 17.7087C10.7922 17.7559 10.8088 17.8017 10.839 17.8381C10.8694 17.8745 10.9116 17.8993 10.9583 17.908C11.4044 17.9864 11.8579 18.0148 12.3103 17.9928C13.8403 17.9165 15.2761 17.2316 16.3591 16.1554L17.9407 14.5845C17.9786 14.5464 17.9997 14.4953 18 14.4418V12.4103C18.0002 12.3965 17.9965 12.3832 17.989 12.3717C17.9817 12.3602 17.9709 12.3512 17.9583 12.3458C17.9456 12.3405 17.9316 12.339 17.9182 12.3416C17.9047 12.3442 17.8923 12.3507 17.8825 12.3604L15.1235 15.1018C14.6819 15.5434 14.1502 15.8861 13.5642 16.1066C12.9782 16.3272 12.3516 16.4207 11.7264 16.3808C11.4376 16.3622 11.1518 16.3129 10.8735 16.2338C10.8643 16.2311 10.8545 16.2307 10.8452 16.2324C10.8357 16.2342 10.8267 16.2381 10.819 16.2439C10.8115 16.2496 10.8052 16.257 10.8008 16.2655C10.7966 16.2741 10.7943 16.2835 10.7943 16.293L10.7922 17.7087ZM10.8645 13.2382C11.2358 13.3242 11.6159 13.3671 11.9972 13.3662V13.3637C12.1784 13.365 12.358 13.3303 12.5256 13.2618C12.6932 13.1934 12.8454 13.0925 12.9734 12.965L17.8826 8.08677C17.8922 8.07722 17.9046 8.07059 17.9181 8.06804C17.9316 8.06537 17.9455 8.0669 17.9582 8.07225C17.9708 8.0776 17.9816 8.08664 17.989 8.09811C17.9964 8.10958 18.0003 8.12295 17.9999 8.13671V10.1692C17.9998 10.2226 17.9785 10.2738 17.9407 10.3118L14.1713 14.057C13.6912 14.5346 13.0747 14.867 12.402 14.9542C12.2682 14.972 12.1333 14.9806 11.9982 14.9802C11.6461 14.9809 11.2949 14.9451 10.9502 14.873C10.9047 14.8632 10.8641 14.8379 10.8352 14.8015C10.8064 14.7652 10.7912 14.7199 10.7923 14.6737V13.2949C10.7921 13.2861 10.7941 13.2774 10.7979 13.2694C10.8018 13.2614 10.8074 13.2544 10.8143 13.2489C10.8214 13.2434 10.8295 13.2396 10.8382 13.2378C10.8469 13.2359 10.8559 13.236 10.8645 13.2382Z" fill="white"/>
</svg>
