<svg width="24" height="24" viewBox="0 0 24 24" fill="none" xmlns="http://www.w3.org/2000/svg">
<path fill-rule="evenodd" clip-rule="evenodd" d="M6.67979 10.1335L13.6569 6.32765L12.9631 5.63216C12.6024 5.27053 12.6024 4.73272 12.9631 4.37109C13.3237 4.0096 13.8597 4.0096 14.2203 4.37109L19.6156 9.78001C19.7947 9.9595 19.8872 10.2097 19.8988 10.4652C19.9103 10.7185 19.8417 10.9676 19.7105 11.1462C19.6177 11.2376 19.4373 11.3702 19.2172 11.4143C19.0005 11.4578 18.7346 11.4182 18.4584 11.1412L17.7648 10.4459L13.9675 17.3394L15.0196 18.3942C15.3803 18.7558 15.3803 19.2936 15.0196 19.6553C14.9368 19.7383 14.7327 19.855 14.4892 19.8898C14.2508 19.924 13.9852 19.8786 13.7624 19.6553L9.69508 15.5777L5.99828 19.2838L4.73977 18.0221L8.33666 14.316L4.37055 10.3399C4.00983 9.97829 4.00983 9.44048 4.37055 9.07885C4.73113 8.71736 5.26716 8.71736 5.62774 9.07885L6.67979 10.1335ZM8.03193 11.4891L12.516 15.9844L16.3133 9.09091L14.9081 7.68224L8.03193 11.4891Z" fill="#0C0024"/>
</svg>
