<svg width="24" height="24" viewBox="0 0 24 24" fill="none" xmlns="http://www.w3.org/2000/svg">
<path d="M24 12C24 18.6274 18.6274 24 12 24C5.37258 24 0 18.6274 0 12C0 5.37258 5.37258 0 12 0C18.6274 0 24 5.37258 24 12ZM2.30751 12C2.30751 17.353 6.64699 21.6925 12 21.6925C17.353 21.6925 21.6925 17.353 21.6925 12C21.6925 6.64699 17.353 2.30751 12 2.30751C6.64699 2.30751 2.30751 6.64699 2.30751 12Z" fill="#F2EEFE"/>
<path d="M10.9015 1.21567C10.8366 0.578395 11.3012 0.00325324 11.9417 0.000141566C13.6109 -0.00796674 15.2679 0.332297 16.8052 1.0041C18.6978 1.83115 20.3449 3.13267 21.5871 4.78274C22.8292 6.43281 23.6245 8.37556 23.896 10.423C24.1164 12.0862 23.9852 13.7727 23.5158 15.3745C23.3357 15.9892 22.6545 16.2766 22.06 16.038C21.4655 15.7994 21.1844 15.125 21.3502 14.5063C21.6792 13.2789 21.7643 11.995 21.5963 10.7279C21.3774 9.0762 20.7358 7.50901 19.7338 6.17791C18.7317 4.84682 17.403 3.7969 15.8763 3.12973C14.7051 2.61788 13.4477 2.34461 12.1772 2.32135C11.5368 2.30962 10.9664 1.85295 10.9015 1.21567Z" fill="#663FBA"/>
</svg>
