<svg width="40" height="40" viewBox="0 0 40 40" fill="none" xmlns="http://www.w3.org/2000/svg">
<path d="M0 16C0 8.45753 0 4.68629 2.34315 2.34315C4.68629 0 8.45753 0 16 0H24C31.5425 0 35.3137 0 37.6569 2.34315C40 4.68629 40 8.45753 40 16V24C40 31.5425 40 35.3137 37.6569 37.6569C35.3137 40 31.5425 40 24 40H16C8.45753 40 4.68629 40 2.34315 37.6569C0 35.3137 0 31.5425 0 24V16Z" fill="#F3F2F4"/>
<path fill-rule="evenodd" clip-rule="evenodd" d="M19.734 13.0043C25.714 12.8243 29.234 18.3943 29.874 19.5043C29.9617 19.6563 30.0079 19.8287 30.0079 20.0043C30.0079 20.1798 29.9617 20.3522 29.874 20.5043C29.014 22.0043 25.804 26.8643 20.274 27.0043H20.024C14.134 27.0043 10.764 21.5943 10.134 20.5043C10.0462 20.3522 10 20.1798 10 20.0043C10 19.8287 10.0462 19.6563 10.134 19.5043C11.004 18.0043 14.204 13.1443 19.734 13.0043ZM12.224 20.0043C13.104 21.4143 15.914 25.1043 20.224 25.0043C24.224 24.9043 26.804 21.6143 27.834 20.0043C26.944 18.5943 24.124 14.8943 19.834 15.0043C15.834 15.1043 13.224 18.3943 12.224 20.0043ZM18.0595 17.0941C18.635 16.7095 19.3117 16.5043 20.004 16.5043C20.9322 16.5043 21.8225 16.873 22.4788 17.5294C23.1352 18.1858 23.504 19.076 23.504 20.0043C23.504 20.6965 23.2987 21.3732 22.9141 21.9488C22.5295 22.5243 21.9829 22.9729 21.3434 23.2379C20.7038 23.5028 20.0001 23.5721 19.3212 23.437C18.6422 23.302 18.0186 22.9686 17.5291 22.4791C17.0396 21.9897 16.7063 21.366 16.5712 20.6871C16.4362 20.0082 16.5055 19.3044 16.7704 18.6649C17.0353 18.0253 17.4839 17.4787 18.0595 17.0941ZM19.1706 21.2515C19.4173 21.4163 19.7073 21.5043 20.004 21.5043C20.4018 21.5043 20.7833 21.3462 21.0646 21.0649C21.3459 20.7836 21.504 20.4021 21.504 20.0043C21.504 19.7076 21.416 19.4176 21.2512 19.1709C21.0864 18.9242 20.8521 18.732 20.578 18.6185C20.3039 18.5049 20.0023 18.4752 19.7113 18.5331C19.4204 18.591 19.1531 18.7338 18.9433 18.9436C18.7335 19.1534 18.5907 19.4207 18.5328 19.7116C18.4749 20.0026 18.5046 20.3042 18.6181 20.5783C18.7317 20.8524 18.9239 21.0867 19.1706 21.2515Z" fill="#20113E"/>
</svg>
