<svg width="40" height="40" viewBox="0 0 40 40" fill="none" xmlns="http://www.w3.org/2000/svg">
<rect width="40" height="40" rx="8" fill="#F7F7F8"/>
<path d="M27 11.5654H25V10.5654C25 10.3002 24.8946 10.0459 24.7071 9.85832C24.5196 9.67079 24.2652 9.56543 24 9.56543C23.7348 9.56543 23.4804 9.67079 23.2929 9.85832C23.1054 10.0459 23 10.3002 23 10.5654V11.5654H17V10.5654C17 10.3002 16.8946 10.0459 16.7071 9.85832C16.5196 9.67079 16.2652 9.56543 16 9.56543C15.7348 9.56543 15.4804 9.67079 15.2929 9.85832C15.1054 10.0459 15 10.3002 15 10.5654V11.5654H13C12.2044 11.5654 11.4413 11.8815 10.8787 12.4441C10.3161 13.0067 10 13.7698 10 14.5654V26.5654C10 27.3611 10.3161 28.1241 10.8787 28.6868C11.4413 29.2494 12.2044 29.5654 13 29.5654H27C27.7956 29.5654 28.5587 29.2494 29.1213 28.6868C29.6839 28.1241 30 27.3611 30 26.5654V14.5654C30 13.7698 29.6839 13.0067 29.1213 12.4441C28.5587 11.8815 27.7956 11.5654 27 11.5654ZM28 26.5654C28 26.8306 27.8946 27.085 27.7071 27.2725C27.5196 27.4601 27.2652 27.5654 27 27.5654H13C12.7348 27.5654 12.4804 27.4601 12.2929 27.2725C12.1054 27.085 12 26.8306 12 26.5654V19.5654H28V26.5654ZM28 17.5654H12V14.5654C12 14.3002 12.1054 14.0459 12.2929 13.8583C12.4804 13.6708 12.7348 13.5654 13 13.5654H15V14.5654C15 14.8306 15.1054 15.085 15.2929 15.2725C15.4804 15.4601 15.7348 15.5654 16 15.5654C16.2652 15.5654 16.5196 15.4601 16.7071 15.2725C16.8946 15.085 17 14.8306 17 14.5654V13.5654H23V14.5654C23 14.8306 23.1054 15.085 23.2929 15.2725C23.4804 15.4601 23.7348 15.5654 24 15.5654C24.2652 15.5654 24.5196 15.4601 24.7071 15.2725C24.8946 15.085 25 14.8306 25 14.5654V13.5654H27C27.2652 13.5654 27.5196 13.6708 27.7071 13.8583C27.8946 14.0459 28 14.3002 28 14.5654V17.5654Z" fill="#20113E"/>
</svg>
