<svg width="21" height="20" viewBox="0 0 21 20" fill="none" xmlns="http://www.w3.org/2000/svg">
<path fill-rule="evenodd" clip-rule="evenodd" d="M5.95776 18.824L0.666759 20L1.84276 14.709C1.06829 13.2604 0.664286 11.6426 0.666759 10C0.666759 4.477 5.14376 0 10.6668 0C16.1898 0 20.6668 4.477 20.6668 10C20.6668 15.523 16.1898 20 10.6668 20C9.02411 20.0025 7.40638 19.5985 5.95776 18.824ZM6.24776 16.711L6.90076 17.061C8.05931 17.6801 9.35315 18.0027 10.6668 18C12.249 18 13.7957 17.5308 15.1113 16.6518C16.4269 15.7727 17.4523 14.5233 18.0578 13.0615C18.6633 11.5997 18.8217 9.99113 18.513 8.43928C18.2044 6.88743 17.4424 5.46197 16.3236 4.34315C15.2048 3.22433 13.7793 2.4624 12.2275 2.15372C10.6756 1.84504 9.0671 2.00346 7.60529 2.60896C6.14348 3.21447 4.89405 4.23984 4.015 5.55544C3.13595 6.87103 2.66676 8.41775 2.66676 10C2.66676 11.334 2.99176 12.618 3.60676 13.766L3.95576 14.419L3.30076 17.366L6.24776 16.711ZM10.6667 3.99995C9.73849 3.99995 8.84825 4.36869 8.19187 5.02507C7.5355 5.68145 7.16675 6.57169 7.16675 7.49995C7.16675 7.76516 7.27211 8.01952 7.45964 8.20705C7.64718 8.39459 7.90153 8.49994 8.16675 8.49994C8.43196 8.49994 8.68632 8.39459 8.87385 8.20705C9.06139 8.01952 9.16675 7.76516 9.16675 7.49995C9.16675 7.20327 9.25472 6.91326 9.41954 6.66659C9.58437 6.41992 9.81863 6.22766 10.0927 6.11413C10.3668 6.00059 10.6684 5.97089 10.9594 6.02877C11.2504 6.08665 11.5176 6.22951 11.7274 6.43928C11.9372 6.64906 12.08 6.91634 12.1379 7.20731C12.1958 7.49828 12.1661 7.79988 12.0526 8.07397C11.939 8.34806 11.7468 8.58233 11.5001 8.74715C11.2534 8.91197 10.9634 8.99994 10.6667 8.99994C10.4015 8.99994 10.1472 9.1053 9.95964 9.29284C9.77211 9.48038 9.66675 9.73473 9.66675 9.99994V11.9999C9.66675 12.2652 9.77211 12.5195 9.95964 12.7071C10.1472 12.8946 10.4015 12.9999 10.6667 12.9999C10.932 12.9999 11.1863 12.8946 11.3739 12.7071C11.5614 12.5195 11.6667 12.2652 11.6667 11.9999V10.8399C12.4749 10.604 13.1704 10.0838 13.6252 9.37539C14.0801 8.66696 14.2635 7.81801 14.1417 6.98501C14.0199 6.15201 13.6011 5.3911 12.9625 4.84254C12.3239 4.29397 11.5086 3.99472 10.6667 3.99995ZM10.6667 16C10.1145 16 9.66675 15.5523 9.66675 15C9.66675 14.4477 10.1145 14 10.6667 14C11.219 14 11.6667 14.4477 11.6667 15C11.6667 15.5523 11.219 16 10.6667 16Z" fill="#20113E"/>
</svg>
