<svg xmlns="http://www.w3.org/2000/svg" width="24" height="24" viewBox="0 0 24 24" fill="none">
<path fill-rule="evenodd" clip-rule="evenodd" d="M21 6C20.4477 6 20 6.44772 20 7V12H15C14.4477 12 14 12.4477 14 13C14 13.5523 14.4477 14 15 14H21C21.5523 14 22 13.5523 22 13V7C22 6.44772 21.5523 6 21 6Z" fill="#310D75"/>
<path fill-rule="evenodd" clip-rule="evenodd" d="M12.001 7L12 7C9.34783 7 6.8043 8.05357 4.92893 9.92893C3.05357 11.8043 2 14.3478 2 17C2 17.5523 2.44772 18 3 18C3.55228 18 4 17.5523 4 17C4 14.8783 4.84285 12.8434 6.34315 11.3431C7.84332 9.84297 9.87795 9.00013 11.9995 9C13.9678 9.00213 15.8663 9.72983 17.3317 11.0439C17.3315 11.0437 17.3319 11.0441 17.3317 11.0439L20.331 13.7433C20.7415 14.1128 21.3738 14.0795 21.7433 13.669C22.1128 13.2585 22.0795 12.6262 21.669 12.2567L18.6677 9.55556C16.8356 7.9124 14.462 7.00251 12.001 7Z" fill="#310D75"/>
</svg>