<svg width="56" height="56" viewBox="0 0 56 56" fill="none" xmlns="http://www.w3.org/2000/svg">
  <path d="M18.172 21.1137C18.3449 21.2862 18.4822 21.4912 18.5758 21.7168C18.6694 21.9424 18.7176 22.1843 18.7176 22.4286C18.7176 22.6728 18.6694 22.9147 18.5758 23.1404C18.4822 23.366 18.3449 23.5709 18.172 23.7434L15.7689 26.1429H40.2311L37.828 23.7434C37.4793 23.3947 37.2834 22.9217 37.2834 22.4286C37.2834 21.9354 37.4793 21.4624 37.828 21.1137C38.1767 20.765 38.6497 20.5691 39.1429 20.5691C39.636 20.5691 40.109 20.765 40.4577 21.1137L46.0291 26.6851C46.2021 26.8577 46.3393 27.0626 46.4329 27.2882C46.5266 27.5138 46.5747 27.7557 46.5747 28C46.5747 28.2443 46.5266 28.4862 46.4329 28.7118C46.3393 28.9374 46.2021 29.1423 46.0291 29.3149L40.4577 34.8863C40.109 35.235 39.636 35.4309 39.1429 35.4309C38.6497 35.4309 38.1767 35.235 37.828 34.8863C37.4793 34.5376 37.2834 34.0646 37.2834 33.5714C37.2834 33.0783 37.4793 32.6053 37.828 32.2566L40.2311 29.8571H15.7689L18.172 32.2566C18.5207 32.6053 18.7166 33.0783 18.7166 33.5714C18.7166 34.0646 18.5207 34.5376 18.172 34.8863C17.8233 35.235 17.3503 35.4309 16.8571 35.4309C16.364 35.4309 15.891 35.235 15.5423 34.8863L9.97086 29.3149C9.79791 29.1423 9.66069 28.9374 9.56707 28.7118C9.47344 28.4862 9.42525 28.2443 9.42525 28C9.42525 27.7557 9.47344 27.5138 9.56707 27.2882C9.66069 27.0626 9.79791 26.8577 9.97086 26.6851L15.5423 21.1137C15.7148 20.9408 15.9197 20.8035 16.1454 20.7099C16.371 20.6163 16.6129 20.5681 16.8571 20.5681C17.1014 20.5681 17.3433 20.6163 17.5689 20.7099C17.7945 20.8035 17.9995 20.9408 18.172 21.1137ZM54 13.1429C54 10.1876 52.826 7.35336 50.7363 5.26367C48.6466 3.17398 45.8124 2 42.8571 2H13.1429C10.1876 2 7.35336 3.17398 5.26367 5.26367C3.17398 7.35336 2 10.1876 2 13.1429V42.8571C2 45.8124 3.17398 48.6466 5.26367 50.7363C7.35336 52.826 10.1876 54 13.1429 54H42.8571C45.8124 54 48.6466 52.826 50.7363 50.7363C52.826 48.6466 54 45.8124 54 42.8571V13.1429ZM39.1429 5.71429V16.8571C40.4726 16.8571 41.8023 17.3289 42.8571 18.276V5.71429C44.8273 5.71429 46.7168 6.49694 48.1099 7.89006C49.5031 9.28319 50.2857 11.1727 50.2857 13.1429V42.8571C50.2857 44.8273 49.5031 46.7168 48.1099 48.1099C46.7168 49.5031 44.8273 50.2857 42.8571 50.2857V37.724C41.8366 38.6392 40.5136 39.1446 39.1429 39.1429V50.2857H16.8571V39.1429C15.5274 39.1429 14.1977 38.6711 13.1429 37.724V50.2857C11.1727 50.2857 9.28319 49.5031 7.89006 48.1099C6.49694 46.7168 5.71429 44.8273 5.71429 42.8571V13.1429C5.71429 11.1727 6.49694 9.28319 7.89006 7.89006C9.28319 6.49694 11.1727 5.71429 13.1429 5.71429V18.276C14.1634 17.3608 15.4864 16.8554 16.8571 16.8571V5.71429H39.1429Z" fill="#0C0024"/>
</svg>