<svg width="24" height="24" viewBox="0 0 24 24" fill="none" xmlns="http://www.w3.org/2000/svg">
<path d="M2.6 13.083L6.052 14.594L16 9.16703L10 16.167L18.6 20.083C18.7471 20.1474 18.9075 20.1755 19.0677 20.1648C19.2279 20.1541 19.3832 20.105 19.5204 20.0217C19.6576 19.9383 19.7728 19.8231 19.8561 19.6858C19.9394 19.5485 19.9884 19.3932 19.999 19.233L20.999 4.23303C21.0101 4.05941 20.9759 3.88589 20.8996 3.72953C20.8233 3.57317 20.7076 3.43937 20.5639 3.34129C20.4203 3.24321 20.2535 3.18423 20.0801 3.17015C19.9067 3.15608 19.7326 3.1874 19.575 3.26103L2.575 11.261C2.40159 11.3433 2.25545 11.4736 2.15398 11.6366C2.05251 11.7995 1.99996 11.9881 2.0026 12.1801C2.00523 12.372 2.06293 12.5591 2.16884 12.7192C2.27474 12.8793 2.42439 13.0055 2.6 13.083ZM8 22.167L12.776 19.851L8 17.623V22.167Z" fill="#0C0024"/>
</svg>
