<svg width="24" height="24" viewBox="0 0 24 24" fill="none" xmlns="http://www.w3.org/2000/svg">
<path fill-rule="evenodd" clip-rule="evenodd" d="M2.70711 1.70696C2.31658 1.31643 1.68342 1.31643 1.29289 1.70696C0.902369 2.09748 0.902369 2.73064 1.29289 3.12117L20.3707 22.1989C20.7612 22.5895 21.3943 22.5895 21.7849 22.1989C22.1754 21.8084 22.1754 21.1752 21.7849 20.7847L2.70711 1.70696ZM2 17.9998V6.6567L4 8.6567V17.9998H13.3431L15.3431 19.9998H4C2.89543 19.9998 2 19.1044 2 17.9998ZM22 17.9998C22 18.0554 21.9977 18.1103 21.9933 18.1647L20 16.1714V5.99985H9.82843L7.82843 3.99985H20C21.1046 3.99985 22 4.89528 22 5.99985V17.9998Z" fill="#20113E"/>
</svg>
