<svg width="24" height="24" viewBox="0 0 24 24" fill="none" xmlns="http://www.w3.org/2000/svg">
<path d="M18.996 11.0001C19.2409 11.0001 19.4773 11.09 19.6604 11.2528C19.8434 11.4155 19.9603 11.6398 19.989 11.8831L19.996 12.0001V18.0001C19.996 19.0263 19.6016 20.0133 18.8943 20.7569C18.187 21.5005 17.221 21.9437 16.196 21.9951L15.996 22.0001H8C6.97376 22.0001 5.98677 21.6056 5.24319 20.8983C4.4996 20.191 4.05631 19.225 4.005 18.2001L4 18.0001V12.0001C4.00028 11.7452 4.09788 11.5 4.27285 11.3147C4.44782 11.1294 4.68695 11.0178 4.94139 11.0029C5.19584 10.9879 5.44638 11.0707 5.64183 11.2343C5.83729 11.3979 5.9629 11.63 5.993 11.8831L6 12.0001V18.0001C6.00009 18.5045 6.19077 18.9902 6.53384 19.36C6.8769 19.7297 7.34702 19.9562 7.85 19.9941L8 20.0001H15.996C16.5004 20 16.9861 19.8093 17.3559 19.4662C17.7257 19.1232 17.9522 18.653 17.99 18.1501L17.996 18.0001V12.0001C17.996 11.7348 18.1014 11.4805 18.2889 11.293C18.4764 11.1054 18.7308 11.0001 18.996 11.0001ZM6.289 7.29006L11.286 2.29306C11.4581 2.12073 11.6871 2.01712 11.9301 2.00165C12.1732 1.98619 12.4135 2.05994 12.606 2.20906L12.7 2.29206L17.703 7.28906C17.8827 7.46885 17.9872 7.71032 17.9952 7.96438C18.0032 8.21844 17.9142 8.46602 17.7462 8.6568C17.5782 8.84757 17.3439 8.96722 17.0909 8.99142C16.8378 9.01561 16.5851 8.94254 16.384 8.78706L16.29 8.70406L12.996 5.41506V15.2551C12.996 15.5 12.906 15.7364 12.7433 15.9194C12.5805 16.1025 12.3563 16.2194 12.113 16.2481L11.996 16.2551C11.7511 16.255 11.5147 16.1651 11.3316 16.0023C11.1486 15.8396 11.0317 15.6153 11.003 15.3721L10.996 15.2551V5.41006L7.703 8.70406C7.53081 8.87624 7.30171 8.97967 7.05868 8.99495C6.81566 9.01023 6.5754 8.93631 6.383 8.78706L6.289 8.70406C6.11682 8.53187 6.01339 8.30277 5.99811 8.05974C5.98283 7.81671 6.05675 7.57646 6.206 7.38406L6.289 7.28906L11.286 2.29306L6.29 7.28906L6.289 7.29006Z" fill="#0C0024"/>
</svg>
