<svg width="24" height="24" viewBox="0 0 24 24" fill="none" xmlns="http://www.w3.org/2000/svg">
<path d="M12 8.63997C11.712 8.63997 11.52 8.44797 11.52 8.15997V4.31997C11.52 4.03197 11.712 3.83997 12 3.83997C12.288 3.83997 12.48 4.03197 12.48 4.31997V8.15997C12.48 8.44797 12.288 8.63997 12 8.63997Z" fill="#0C0024"/>
<path opacity="0.3" d="M12 20.16C11.712 20.16 11.52 19.968 11.52 19.68V15.84C11.52 15.552 11.712 15.36 12 15.36C12.288 15.36 12.48 15.552 12.48 15.84V19.68C12.48 19.968 12.288 20.16 12 20.16Z" fill="#0C0024"/>
<path opacity="0.3" d="M13.92 9.11994C13.824 9.11994 13.776 9.11994 13.68 9.07194C13.488 8.92794 13.392 8.68794 13.536 8.44794L15.456 5.13594C15.6 4.94394 15.84 4.84794 16.08 4.99194C16.272 5.13594 16.368 5.37594 16.224 5.61594L14.304 8.92794C14.208 9.02394 14.064 9.11994 13.92 9.11994Z" fill="#0C0024"/>
<path opacity="0.3" d="M8.16 19.104C8.064 19.104 8.016 19.104 7.92 19.056C7.728 18.912 7.632 18.672 7.776 18.432L9.696 15.1199C9.84 14.9279 10.08 14.8319 10.32 14.9759C10.512 15.1199 10.608 15.3599 10.464 15.5999L8.544 18.912C8.448 19.008 8.304 19.104 8.16 19.104Z" fill="#0C0024"/>
<path opacity="0.93" d="M10.08 9.11997C9.936 9.11997 9.792 9.02397 9.696 8.87997L7.776 5.56797C7.632 5.37597 7.728 5.08797 7.92 4.94397C8.112 4.79997 8.4 4.89597 8.544 5.08797L10.464 8.39997C10.608 8.59197 10.512 8.87997 10.32 9.02397C10.224 9.11997 10.176 9.11997 10.08 9.11997Z" fill="#0C0024"/>
<path opacity="0.3" d="M15.84 19.104C15.696 19.104 15.552 19.008 15.456 18.864L13.536 15.552C13.392 15.36 13.488 15.072 13.68 14.928C13.872 14.784 14.16 14.88 14.304 15.072L16.224 18.384C16.368 18.576 16.272 18.864 16.08 19.008C15.984 19.056 15.936 19.104 15.84 19.104Z" fill="#0C0024"/>
<path opacity="0.65" d="M8.16 12.48H4.32C4.032 12.48 3.84 12.288 3.84 12C3.84 11.712 4.032 11.52 4.32 11.52H8.16C8.448 11.52 8.64 11.712 8.64 12C8.64 12.288 8.448 12.48 8.16 12.48Z" fill="#0C0024"/>
<path opacity="0.3" d="M19.68 12.48H15.84C15.552 12.48 15.36 12.288 15.36 12C15.36 11.712 15.552 11.52 15.84 11.52H19.68C19.968 11.52 20.16 11.712 20.16 12C20.16 12.288 19.968 12.48 19.68 12.48Z" fill="#0C0024"/>
<path opacity="0.86" d="M8.688 10.512C8.592 10.512 8.544 10.512 8.448 10.464L5.136 8.544C4.944 8.4 4.848 8.16 4.992 7.92C5.136 7.728 5.376 7.632 5.616 7.776L8.928 9.696C9.12 9.84 9.216 10.08 9.072 10.32C8.976 10.464 8.832 10.512 8.688 10.512Z" fill="#0C0024"/>
<path opacity="0.3" d="M18.672 16.272C18.576 16.272 18.528 16.272 18.432 16.224L15.12 14.304C14.928 14.16 14.832 13.92 14.976 13.68C15.12 13.488 15.36 13.392 15.6 13.536L18.912 15.456C19.104 15.6 19.2 15.84 19.056 16.08C18.96 16.224 18.816 16.272 18.672 16.272Z" fill="#0C0024"/>
<path opacity="0.44" d="M5.328 16.272C5.184 16.272 5.04 16.176 4.944 16.032C4.8 15.84 4.896 15.552 5.088 15.408L8.4 13.488C8.592 13.344 8.88 13.44 9.024 13.632C9.168 13.824 9.072 14.112 8.88 14.256L5.568 16.176C5.52 16.272 5.424 16.272 5.328 16.272Z" fill="#0C0024"/>
<path opacity="0.3" d="M15.312 10.512C15.168 10.512 15.024 10.416 14.928 10.272C14.784 10.08 14.88 9.79202 15.072 9.64802L18.384 7.72802C18.576 7.58402 18.864 7.68002 19.008 7.87202C19.152 8.06402 19.056 8.35202 18.864 8.49602L15.552 10.416C15.456 10.512 15.408 10.512 15.312 10.512Z" fill="#0C0024"/>
</svg>
