<svg width="12" height="12" viewBox="0 0 12 12" fill="none" xmlns="http://www.w3.org/2000/svg">
<path d="M10.6768 4.52128L7.67898 4.06505L6.33889 1.22008C6.30228 1.14219 6.24207 1.07913 6.16768 1.04081C5.98113 0.944366 5.75444 1.02473 5.66116 1.22008L4.32106 4.06505L1.32326 4.52128C1.24061 4.53365 1.16504 4.57445 1.10719 4.63627C1.03725 4.71155 0.998705 4.81283 1.00003 4.91785C1.00136 5.02287 1.04245 5.12305 1.11427 5.19636L3.28323 7.41076L2.7708 10.5376C2.75878 10.6104 2.76647 10.6852 2.79299 10.7536C2.81951 10.822 2.86379 10.8812 2.92083 10.9246C2.97787 10.968 3.04537 10.9937 3.11568 10.999C3.186 11.0042 3.25631 10.9888 3.31865 10.9543L6.00002 9.47803L8.6814 10.9543C8.7546 10.9951 8.83962 11.0087 8.92108 10.9939C9.12653 10.9568 9.26467 10.7528 9.22925 10.5376L8.71682 7.41076L10.8858 5.19636C10.9448 5.13578 10.9838 5.05665 10.9956 4.9701C11.0275 4.75373 10.8834 4.55343 10.6768 4.52128Z" fill="#20113E"/>
</svg>
