<svg width="96" height="96" viewBox="0 0 96 96" fill="none" xmlns="http://www.w3.org/2000/svg">
<rect width="96" height="96" rx="48" fill="#F7F5FC"/>
<circle cx="48.381" cy="47.6193" r="24.7619" fill="white"/>
<path d="M44.2668 52.8007L38.4668 47.0007C37.9779 46.5118 37.3673 46.2789 36.6348 46.302C35.9006 46.3233 35.2891 46.5784 34.8002 47.0673C34.3113 47.5562 34.0668 48.1784 34.0668 48.934C34.0668 49.6895 34.3113 50.3118 34.8002 50.8007L42.4002 58.4007C42.8891 58.8895 43.5113 59.134 44.2668 59.134C45.0224 59.134 45.6446 58.8895 46.1335 58.4007L61.2668 43.2673C61.7557 42.7784 61.9895 42.1669 61.9682 41.4327C61.9451 40.7002 61.6891 40.0895 61.2002 39.6007C60.7113 39.1118 60.0891 38.8673 59.3335 38.8673C58.5779 38.8673 57.9557 39.1118 57.4668 39.6007L44.2668 52.8007ZM48.0002 74.6673C44.3113 74.6673 40.8446 73.9669 37.6002 72.566C34.3557 71.1669 31.5335 69.2673 29.1335 66.8673C26.7335 64.4673 24.8339 61.6451 23.4348 58.4007C22.0339 55.1562 21.3335 51.6895 21.3335 48.0007C21.3335 44.3118 22.0339 40.8451 23.4348 37.6007C24.8339 34.3562 26.7335 31.534 29.1335 29.134C31.5335 26.734 34.3557 24.8335 37.6002 23.4327C40.8446 22.0335 44.3113 21.334 48.0002 21.334C51.6891 21.334 55.1557 22.0335 58.4002 23.4327C61.6446 24.8335 64.4668 26.734 66.8668 29.134C69.2668 31.534 71.1664 34.3562 72.5655 37.6007C73.9664 40.8451 74.6668 44.3118 74.6668 48.0007C74.6668 51.6895 73.9664 55.1562 72.5655 58.4007C71.1664 61.6451 69.2668 64.4673 66.8668 66.8673C64.4668 69.2673 61.6446 71.1669 58.4002 72.566C55.1557 73.9669 51.6891 74.6673 48.0002 74.6673ZM48.0002 69.334C53.9113 69.334 58.9451 67.2567 63.1015 63.102C67.2562 58.9455 69.3335 53.9118 69.3335 48.0007C69.3335 42.0895 67.2562 37.0558 63.1015 32.8993C58.9451 28.7447 53.9113 26.6673 48.0002 26.6673C42.0891 26.6673 37.0562 28.7447 32.9015 32.8993C28.7451 37.0558 26.6668 42.0895 26.6668 48.0007C26.6668 53.9118 28.7451 58.9455 32.9015 63.102C37.0562 67.2567 42.0891 69.334 48.0002 69.334Z" fill="#663FBA"/>
</svg>
