<svg width="24" height="24" viewBox="0 0 24 24" fill="none" xmlns="http://www.w3.org/2000/svg">
<path fill-rule="evenodd" clip-rule="evenodd" d="M6 1C5.20435 1 4.44129 1.31607 3.87868 1.87868C3.31607 2.44129 3 3.20435 3 4V20C3 20.7957 3.31607 21.5587 3.87868 22.1213C4.44129 22.6839 5.20435 23 6 23H18C18.7957 23 19.5587 22.6839 20.1213 22.1213C20.6839 21.5587 21 20.7957 21 20V8.342V8.34188C21 7.94222 20.92 7.5466 20.765 7.17825C20.6099 6.80997 20.3829 6.47638 20.0972 6.19705L20.097 6.19688L15.6572 1.85505L15.6571 1.855C15.0967 1.30699 14.344 1.0001 13.5601 1H13.56H6ZM5.29289 3.29289C5.48043 3.10536 5.73478 3 6 3H13V6C13 6.79565 13.3161 7.55871 13.8787 8.12132C14.4413 8.68393 15.2044 9 16 9H19V20C19 20.2652 18.8946 20.5196 18.7071 20.7071C18.5196 20.8946 18.2652 21 18 21H6C5.73478 21 5.48043 20.8946 5.29289 20.7071C5.10536 20.5196 5 20.2652 5 20V4C5 3.73478 5.10536 3.48043 5.29289 3.29289ZM18.0577 7L15 4.00977V6C15 6.26522 15.1054 6.51957 15.2929 6.70711C15.4804 6.89464 15.7348 7 16 7H18.0577ZM9 12C8.44772 12 8 12.4477 8 13C8 13.5523 8.44772 14 9 14H15C15.5523 14 16 13.5523 16 13C16 12.4477 15.5523 12 15 12H9ZM9 16C8.44772 16 8 16.4477 8 17C8 17.5523 8.44772 18 9 18H12C12.5523 18 13 17.5523 13 17C13 16.4477 12.5523 16 12 16H9Z" fill="#0C0024"/>
</svg>
