<svg width="56" height="56" viewBox="0 0 56 56" fill="none" xmlns="http://www.w3.org/2000/svg">
<path d="M0 28C0 16.7643 0 11.1465 2.69649 7.11088C3.86382 5.36383 5.36383 3.86382 7.11088 2.69649C11.1465 0 16.7643 0 28 0C39.2357 0 44.8535 0 48.8891 2.69649C50.6362 3.86382 52.1362 5.36383 53.3035 7.11088C56 11.1465 56 16.7643 56 28C56 39.2357 56 44.8535 53.3035 48.8891C52.1362 50.6362 50.6362 52.1362 48.8891 53.3035C44.8535 56 39.2357 56 28 56C16.7643 56 11.1465 56 7.11088 53.3035C5.36383 52.1362 3.86382 50.6362 2.69649 48.8891C0 44.8535 0 39.2357 0 28Z" fill="#310D75"/>
<path d="M21.6401 21.5392H25.3859V34.1972L27.0865 34.7892V35.5534H19.9395V34.7892L21.6401 34.1972V21.5392ZM29.1854 22.6263H17.6576L18.9385 21.9913L17.1194 25.6401L16 25.5433L16.5705 20H17.3239L18.9277 21.1732L17.5607 20.8611H29.2823L28.1736 21.1732L29.7774 20H30.5309L31.1014 25.5433L29.9819 25.6401L28.1629 21.9913L29.1854 22.6263Z" fill="white"/>
<path d="M36.1251 32.3243C36.1251 32.7836 36.2722 33.1244 36.5664 33.3469C36.8606 33.5622 37.3127 33.6698 37.9226 33.6698C38.2168 33.6698 38.5361 33.6411 38.8806 33.5837C39.225 33.5263 39.5982 33.4402 40 33.3254V34.251C39.3829 34.6313 38.8375 34.9399 38.3639 35.1767C37.8975 35.4063 37.4777 35.5714 37.1046 35.6718C36.7315 35.7795 36.3798 35.8333 36.0498 35.8333C35.3896 35.8333 34.8155 35.7292 34.3276 35.5211C33.8396 35.3059 33.4629 34.9794 33.1974 34.5416C32.9319 34.0967 32.7991 33.5406 32.7991 32.8733V27.739L31.1415 26.5443V25.9308C31.3496 25.8159 31.5864 25.6832 31.8519 25.5325C32.1174 25.3746 32.3973 25.206 32.6915 25.0266C32.9929 24.8472 33.2943 24.6642 33.5956 24.4777C33.897 24.2839 34.1876 24.0938 34.4675 23.9072C34.7545 23.7206 35.0164 23.5412 35.2532 23.369H36.1251V25.8877V32.3243ZM34.7689 27.3408L34.7904 25.6294H39.6448L39.5049 27.3408H34.7689Z" fill="white"/>
</svg>
