<svg width="300" height="200" viewBox="0 0 300 200" fill="none" xmlns="http://www.w3.org/2000/svg">
<g clip-path="url(#clip0_1432_147809)">
<rect width="300" height="200" fill="#4469FC"/>
<path d="M42.7927 18.3011L27.0013 4.08574C37.1429 -1.83132 39.7683 -9.73655 39.8133 -12.9495L-11.8535 -42.8145L-43.7942 37.2233C-3.35949 55.174 30.7782 32.088 42.7927 18.3011Z" fill="#FF7853"/>
<path d="M186.925 147.138L162 110.677C235.707 49.4925 266.596 73.0295 272.827 92.446C313.371 62.2096 328.889 87.5548 331.579 104.007L363.626 84.8869L388.996 120.459C319.562 177.375 289.147 158.403 282.619 141.802C237.042 175.952 222.977 145.36 221.642 125.795L186.925 147.138Z" fill="#9DECFF"/>
<path d="M-16.6417 153.708L-5.00976 133.639C40.0262 156.486 56.727 199.535 59.448 218.203L37.0407 222.231C26.3218 183.192 -3.2138 160.282 -16.6417 153.708Z" fill="#DAE1FE"/>
<rect x="53" y="113" width="194" height="60" rx="8" fill="white"/>
<rect x="61" y="122" width="22" height="22" rx="8" fill="#ECF0FF"/>
<path d="M73.8797 131.823C73.9512 131.752 74.0479 131.712 74.1486 131.712C74.2493 131.712 74.346 131.752 74.4176 131.823C74.4529 131.857 74.481 131.899 74.5001 131.945C74.5193 131.99 74.5291 132.039 74.5291 132.089C74.5291 132.139 74.5193 132.188 74.5001 132.233C74.481 132.279 74.4529 132.321 74.4176 132.355L72.2682 134.462C72.1964 134.533 72.0997 134.572 71.9989 134.572C71.8982 134.572 71.8015 134.533 71.7297 134.462L69.5803 132.355C69.545 132.321 69.5169 132.279 69.4978 132.233C69.4786 132.188 69.4688 132.139 69.4688 132.089C69.4688 132.039 69.4786 131.99 69.4978 131.945C69.5169 131.899 69.545 131.857 69.5803 131.823C69.6519 131.752 69.7486 131.712 69.8493 131.712C69.95 131.712 70.0467 131.752 70.1182 131.823L71.9998 133.55L73.8797 131.823Z" fill="#313F87"/>
<rect x="96" y="128" width="88" height="9" rx="2" fill="#ECF0FF"/>
<rect x="53" y="23" width="194" height="80" rx="8" fill="white"/>
<path d="M63 45.2013C63 43.1552 63 42.1322 63.1861 41.2845C63.8553 38.2362 66.2362 35.8553 69.2845 35.1861C70.1322 35 71.1552 35 73.2013 35H96.6039C98.65 35 99.673 35 100.521 35.1861C103.569 35.8553 105.95 38.2362 106.619 41.2845C106.805 42.1322 106.805 43.1552 106.805 45.2013V45.2013C106.805 47.2474 106.805 48.2704 106.619 49.1181C105.95 52.1664 103.569 54.5473 100.521 55.2165C99.673 55.4026 98.65 55.4026 96.6039 55.4026H73.2013C71.1552 55.4026 70.1322 55.4026 69.2845 55.2165C66.2362 54.5473 63.8553 52.1664 63.1861 49.1181C63 48.2704 63 47.2474 63 45.2013V45.2013Z" fill="#FFE3DA"/>
<path d="M71.8563 41.8466H69.5116V48.7012H70.8636V46.2903H71.8941C73.473 46.2903 74.8723 45.8648 74.8723 44.1157C74.8723 42.0452 73.265 41.8466 71.8563 41.8466ZM70.8636 42.9055H71.8847C72.6221 42.9055 73.4825 43.0001 73.4825 44.1252C73.4825 45.0328 72.8207 45.2408 71.9792 45.2408H70.8636V42.9055ZM78.3228 44.8721V43.643C78.2377 43.6335 78.1242 43.6241 78.0391 43.6241C77.4529 43.6241 76.9897 43.8794 76.6966 44.5034V43.6146H75.4108V48.7012H76.7155V46.035C76.7155 45.0801 77.1409 44.8437 77.7838 44.8437C77.9729 44.8437 78.1337 44.8532 78.3228 44.8721ZM78.6528 46.1674C78.6528 47.9543 79.9197 48.8241 81.2055 48.8241C82.4913 48.8241 83.7582 47.9543 83.7582 46.1674C83.7582 44.3804 82.4913 43.5012 81.2055 43.5012C79.9197 43.5012 78.6528 44.3804 78.6528 46.1674ZM79.9764 46.1674C79.9764 45.099 80.487 44.5223 81.2055 44.5223C81.9241 44.5223 82.4346 45.099 82.4346 46.1674C82.4346 47.2263 81.9241 47.803 81.2055 47.803C80.487 47.803 79.9764 47.2263 79.9764 46.1674ZM85.893 41.8466H84.5883V43.0568H85.893V41.8466ZM84.5883 43.6146V48.6444C84.5883 49.1928 84.5694 49.3819 84.0778 49.3819H83.9076V50.3557H84.2479C85.5243 50.3557 85.893 50.0815 85.893 48.6634V43.6146H84.5883ZM88.0271 46.5172H91.7806C91.8373 44.7208 90.854 43.5012 89.2846 43.5012C87.7813 43.5012 86.7318 44.6263 86.7318 46.139C86.7318 47.6044 87.6867 48.8241 89.3224 48.8241C90.7027 48.8241 91.4497 47.9826 91.7238 47.2263H90.3813C90.1166 47.6706 89.71 47.8124 89.3129 47.8124C88.6984 47.8124 88.0933 47.387 88.0271 46.5172ZM88.046 45.619C88.15 44.7681 88.7835 44.4561 89.2751 44.4561C89.8235 44.4561 90.4286 44.7586 90.4569 45.619H88.046ZM97.2882 45.3543C97.118 44.0874 96.0402 43.5012 94.9813 43.5012C93.4591 43.5012 92.4286 44.6168 92.4286 46.1674C92.4286 47.699 93.4024 48.8241 94.9246 48.8241C95.974 48.8241 97.0329 48.3608 97.3355 46.971H96.0875C95.9173 47.5855 95.4351 47.8124 94.9908 47.8124C94.2722 47.8124 93.7617 47.2168 93.7617 46.1484C93.7617 45.0895 94.3006 44.5128 94.9813 44.5128C95.4729 44.5128 95.9457 44.8721 96.0402 45.3543H97.2882ZM98.2942 42.2343V43.6146H97.5757V44.5128H98.2942V47.3303C98.2942 48.3419 98.5211 48.7012 99.684 48.7012H100.639V47.7652H100.242C99.7786 47.7652 99.599 47.6612 99.599 47.1412V44.5128H100.658V43.6146H99.599V42.2343H98.2942Z" fill="#FF5F29"/>
<rect x="112.207" y="35" width="73.8052" height="20.4026" rx="8" fill="#ECF0FF"/>
<path d="M122.705 43.5674C122.705 42.3761 121.826 41.7237 120.455 41.7237C118.933 41.7237 117.931 42.6408 117.95 44.059H119.217C119.217 43.0379 119.803 42.6881 120.38 42.6881C121.013 42.6881 121.391 43.0379 121.391 43.6335C121.391 44.7208 120.03 45.8648 117.827 47.6423V48.7012H122.866V47.6044H119.349C121.457 46.1957 122.705 44.8532 122.705 43.5674ZM128.828 47.0561V45.9499H127.655V41.8466H126.379L122.975 46.035V47.0561H126.36V48.7012H127.655V47.0561H128.828ZM124.403 45.9499L126.36 43.5012V45.9499H124.403ZM129.27 45.2597C129.27 47.3492 130.197 48.8241 132.031 48.8241C133.856 48.8241 134.782 47.3492 134.782 45.2597C134.782 43.1797 133.856 41.7237 132.031 41.7237C130.197 41.7237 129.27 43.1797 129.27 45.2597ZM133.449 45.2597C133.449 46.9048 132.958 47.8408 132.031 47.8408C131.104 47.8408 130.603 46.9048 130.603 45.2597C130.603 43.6241 131.104 42.707 132.031 42.707C132.958 42.707 133.449 43.6241 133.449 45.2597ZM137.909 41.8466V48.7012H139.261V45.7419H142.702V44.6452H139.261V42.9434H142.901V41.8466H137.909ZM143.144 46.1674C143.144 47.9543 144.411 48.8241 145.697 48.8241C146.983 48.8241 148.25 47.9543 148.25 46.1674C148.25 44.3804 146.983 43.5012 145.697 43.5012C144.411 43.5012 143.144 44.3804 143.144 46.1674ZM144.468 46.1674C144.468 45.099 144.978 44.5223 145.697 44.5223C146.416 44.5223 146.926 45.099 146.926 46.1674C146.926 47.2263 146.416 47.803 145.697 47.803C144.978 47.803 144.468 47.2263 144.468 46.1674ZM150.385 48.7012V41.8466H149.08V48.7012H150.385ZM152.859 48.7012V41.8466H151.554V48.7012H152.859ZM153.688 46.1674C153.688 47.9543 154.955 48.8241 156.241 48.8241C157.527 48.8241 158.794 47.9543 158.794 46.1674C158.794 44.3804 157.527 43.5012 156.241 43.5012C154.955 43.5012 153.688 44.3804 153.688 46.1674ZM155.012 46.1674C155.012 45.099 155.522 44.5223 156.241 44.5223C156.96 44.5223 157.47 45.099 157.47 46.1674C157.47 47.2263 156.96 47.803 156.241 47.803C155.522 47.803 155.012 47.2263 155.012 46.1674ZM161.854 43.6146L161.06 47.1317L160.379 43.6146H159.084L160.275 48.7012H161.618L162.554 44.8437L163.48 48.7012H164.823L166.023 43.6146H164.728L164.047 47.1223L163.244 43.6146H161.854ZM167.624 46.5172H171.377C171.434 44.7208 170.451 43.5012 168.881 43.5012C167.378 43.5012 166.328 44.6263 166.328 46.139C166.328 47.6044 167.283 48.8241 168.919 48.8241C170.299 48.8241 171.046 47.9826 171.32 47.2263H169.978C169.713 47.6706 169.307 47.8124 168.91 47.8124C168.295 47.8124 167.69 47.387 167.624 46.5172ZM167.643 45.619C167.747 44.7681 168.38 44.4561 168.872 44.4561C169.42 44.4561 170.025 44.7586 170.054 45.619H167.643ZM175.13 44.8721V43.643C175.044 43.6335 174.931 43.6241 174.846 43.6241C174.26 43.6241 173.796 43.8794 173.503 44.5034V43.6146H172.218V48.7012H173.522V46.035C173.522 45.0801 173.948 44.8437 174.591 44.8437C174.78 44.8437 174.94 44.8532 175.13 44.8721ZM178.665 45.1463H179.884C179.714 43.9739 178.703 43.4823 177.644 43.4823C176.547 43.4823 175.564 44.0779 175.564 44.995C175.564 45.9215 176.197 46.3186 177.152 46.5172L177.908 46.6779C178.343 46.7724 178.74 46.9237 178.74 47.3019C178.74 47.6706 178.381 47.8786 177.823 47.8786C177.152 47.8786 176.802 47.5099 176.727 47.0183H175.469C175.592 48.1812 176.537 48.8241 177.785 48.8241C178.939 48.8241 179.988 48.2001 179.988 47.179C179.988 46.1295 179.128 45.8743 178.116 45.6474L177.436 45.4961C176.953 45.3921 176.755 45.1841 176.755 44.9099C176.755 44.5979 177.095 44.4183 177.577 44.4183C178.173 44.4183 178.57 44.7208 178.665 45.1463Z" fill="#335DFF"/>
<path d="M65.9498 70.2909H62.792L67.7273 78.6676V84H70.4313V78.7055L75.48 70.2909H72.3978L69.1455 76.0204L65.9498 70.2909ZM74.0911 78.9324C74.0911 82.5062 76.6249 84.2458 79.1965 84.2458C81.7682 84.2458 84.302 82.5062 84.302 78.9324C84.302 75.3585 81.7682 73.6 79.1965 73.6C76.6249 73.6 74.0911 75.3585 74.0911 78.9324ZM76.7383 78.9324C76.7383 76.7956 77.7594 75.6422 79.1965 75.6422C80.6336 75.6422 81.6547 76.7956 81.6547 78.9324C81.6547 81.0502 80.6336 82.2036 79.1965 82.2036C77.7594 82.2036 76.7383 81.0502 76.7383 78.9324ZM92.221 82.6575V84H94.8305V73.8269H92.221V79.1215C92.221 80.7287 91.824 82.1469 90.1032 82.1469C88.6283 82.1469 88.4392 81.0502 88.4392 79.6887V73.8269H85.8298V80.256C85.8298 82.752 86.813 84.2458 89.2523 84.2458C90.5003 84.2458 91.6349 83.6785 92.221 82.6575ZM102.995 76.3418V73.8836C102.825 73.8647 102.598 73.8458 102.428 73.8458C101.255 73.8458 100.329 74.3564 99.7426 75.6044V73.8269H97.1709V84H99.7804V78.6676C99.7804 76.7578 100.631 76.2851 101.917 76.2851C102.295 76.2851 102.617 76.304 102.995 76.3418ZM116.694 84H120.212V70.2909H117.659V80.7476L112.175 70.2909H108.658V84H111.211V73.5433L116.694 84ZM121.936 78.9324C121.936 82.5062 124.47 84.2458 127.042 84.2458C129.613 84.2458 132.147 82.5062 132.147 78.9324C132.147 75.3585 129.613 73.6 127.042 73.6C124.47 73.6 121.936 75.3585 121.936 78.9324ZM124.584 78.9324C124.584 76.7956 125.605 75.6422 127.042 75.6422C128.479 75.6422 129.5 76.7956 129.5 78.9324C129.5 81.0502 128.479 82.2036 127.042 82.2036C125.605 82.2036 124.584 81.0502 124.584 78.9324ZM140.066 82.6575V84H142.676V73.8269H140.066V79.1215C140.066 80.7287 139.669 82.1469 137.948 82.1469C136.473 82.1469 136.284 81.0502 136.284 79.6887V73.8269H133.675V80.256C133.675 82.752 134.658 84.2458 137.097 84.2458C138.345 84.2458 139.48 83.6785 140.066 82.6575ZM155.908 75.6989C157.439 75.6989 157.534 76.9658 157.534 78.0815V84H160.143V77.5898C160.143 75.1884 159.255 73.6 156.702 73.6C155.17 73.6 154.149 74.1295 153.355 75.264C152.958 74.5265 152.202 73.6 150.462 73.6C149.233 73.6 148.193 74.1673 147.626 75.1695V73.8269H145.016V84H147.626V78.7055C147.626 77.1549 147.909 75.6989 149.649 75.6989C151.18 75.6989 151.275 76.9658 151.275 78.0815V84H153.884V78.7055C153.884 77.1549 154.168 75.6989 155.908 75.6989Z" fill="#232D60"/>
<rect x="195" y="136" width="89" height="48" rx="8" fill="#FF5F29"/>
<path d="M218.072 161.144H216.12C215.768 162.728 214.648 163.544 213.08 163.544C211.224 163.544 209.8 161.976 209.8 159.16C209.8 156.36 211.256 154.856 213.096 154.856C214.6 154.856 215.736 155.688 216.088 157.256H218.04C217.576 154.664 215.736 153.192 213.16 153.192C209.8 153.192 207.704 155.512 207.704 159.16C207.704 162.792 209.672 165.208 213.064 165.208C215.736 165.208 217.592 163.736 218.072 161.144ZM227.82 160.712C227.82 157.608 225.676 156.2 223.58 156.2C221.484 156.2 219.34 157.608 219.34 160.712C219.34 163.816 221.484 165.208 223.58 165.208C225.676 165.208 227.82 163.816 227.82 160.712ZM223.58 163.656C222.38 163.656 221.308 162.696 221.308 160.712C221.308 158.728 222.38 157.752 223.58 157.752C224.78 157.752 225.852 158.728 225.852 160.712C225.852 162.696 224.78 163.656 223.58 163.656ZM231.289 157.592V156.392H229.385V165H231.289V160.424C231.289 158.872 231.833 157.752 233.289 157.752C234.745 157.752 234.921 158.888 234.921 160.056V165H236.825V159.592C236.825 157.544 235.977 156.2 233.897 156.2C232.697 156.2 231.785 156.696 231.289 157.592ZM240.71 157.592V156.392H238.806V165H240.71V160.424C240.71 158.872 241.254 157.752 242.71 157.752C244.166 157.752 244.342 158.888 244.342 160.056V165H246.246V159.592C246.246 157.544 245.398 156.2 243.318 156.2C242.118 156.2 241.206 156.696 240.71 157.592ZM249.588 161.24H256.004C256.164 158.344 254.516 156.2 251.876 156.2C249.428 156.2 247.652 158.04 247.652 160.632C247.652 163.096 249.236 165.208 252.004 165.208C254.228 165.208 255.508 163.8 255.908 162.424H254.036C253.7 163.224 252.916 163.624 251.924 163.624C250.836 163.624 249.716 162.84 249.588 161.24ZM249.588 159.848C249.748 158.216 250.98 157.688 251.876 157.688C252.996 157.688 254.02 158.504 254.068 159.848H249.588ZM265.154 159.336C264.834 157.416 263.17 156.2 261.298 156.2C258.738 156.2 257.074 158.152 257.074 160.712C257.074 163.272 258.722 165.208 261.218 165.208C263.058 165.208 264.834 164.072 265.218 162.056H263.362C263.122 163.208 262.178 163.624 261.25 163.624C260.13 163.624 259.042 162.744 259.042 160.696C259.042 158.664 260.114 157.784 261.298 157.784C262.338 157.784 263.138 158.424 263.298 159.336H265.154ZM266.969 154.12V156.392H265.689V157.768H266.969V162.744C266.969 164.504 267.337 165 269.177 165H270.585V163.544H269.897C269.081 163.544 268.873 163.336 268.873 162.456V157.768H270.601V156.392H268.873V154.12H266.969Z" fill="white"/>
<rect x="230" y="16" width="38" height="38" rx="6.33333" fill="#ECF0FF"/>
<path d="M246.625 35.0003C246.188 35.0003 245.833 35.3548 245.833 35.792C245.833 36.2292 246.188 36.5837 246.625 36.5837H251.375C251.812 36.5837 252.167 36.2292 252.167 35.792C252.167 35.3548 251.812 35.0003 251.375 35.0003H246.625Z" fill="#313F87"/>
<path d="M245.833 38.9587C245.833 38.5214 246.188 38.167 246.625 38.167H249C249.437 38.167 249.792 38.5214 249.792 38.9587C249.792 39.3959 249.437 39.7503 249 39.7503H246.625C246.188 39.7503 245.833 39.3959 245.833 38.9587Z" fill="#313F87"/>
<path fill-rule="evenodd" clip-rule="evenodd" d="M244.25 26.292C243.62 26.292 243.016 26.5422 242.571 26.9876C242.125 27.433 241.875 28.0371 241.875 28.667V41.3337C241.875 41.9636 242.125 42.5676 242.571 43.013C243.016 43.4584 243.62 43.7087 244.25 43.7087H253.75C254.38 43.7087 254.984 43.4584 255.429 43.013C255.875 42.5676 256.125 41.9636 256.125 41.3337V32.1043C256.125 31.7879 256.062 31.4747 255.939 31.1831C255.816 30.8916 255.636 30.6273 255.41 30.4062L251.895 26.9689C251.452 26.535 250.856 26.2921 250.235 26.292H244.25ZM243.69 28.1072C243.839 27.9587 244.04 27.8753 244.25 27.8753H249.792V30.2503C249.792 30.8802 250.042 31.4843 250.487 31.9297C250.933 32.3751 251.537 32.6253 252.167 32.6253H254.542V41.3337C254.542 41.5436 254.458 41.745 254.31 41.8935C254.161 42.0419 253.96 42.1253 253.75 42.1253H244.25C244.04 42.1253 243.839 42.0419 243.69 41.8935C243.542 41.745 243.458 41.5436 243.458 41.3337V28.667C243.458 28.457 243.542 28.2557 243.69 28.1072ZM253.796 31.042L251.375 28.6747V30.2503C251.375 30.4603 251.458 30.6617 251.607 30.8101C251.755 30.9586 251.957 31.042 252.167 31.042H253.796Z" fill="#313F87"/>
</g>
<defs>
<clipPath id="clip0_1432_147809">
<rect width="300" height="200" fill="white"/>
</clipPath>
</defs>
</svg>
