<svg width="18" height="18" viewBox="0 0 18 18" fill="none" xmlns="http://www.w3.org/2000/svg">
<path d="M17.2967 14.2969L14.2967 17.2969C14.0844 17.5064 13.7981 17.6239 13.4998 17.6239C13.2015 17.6239 12.9153 17.5064 12.703 17.2969C12.5981 17.1924 12.5149 17.0682 12.4581 16.9314C12.4013 16.7947 12.3721 16.6481 12.3721 16.5C12.3721 16.3519 12.4013 16.2053 12.4581 16.0686C12.5149 15.9318 12.5981 15.8076 12.703 15.7031L13.7811 14.625H1.49983C1.20146 14.625 0.915316 14.5065 0.704337 14.2955C0.493359 14.0845 0.374833 13.7984 0.374833 13.5C0.374833 13.2016 0.493359 12.9155 0.704337 12.7045C0.915316 12.4935 1.20146 12.375 1.49983 12.375H13.7811L12.703 11.2969C12.4916 11.0855 12.3729 10.7989 12.3729 10.5C12.3729 10.2011 12.4916 9.91447 12.703 9.70312C12.9143 9.49178 13.2009 9.37305 13.4998 9.37305C13.7987 9.37305 14.0854 9.49178 14.2967 9.70312L17.2967 12.7031C17.4016 12.8076 17.4848 12.9318 17.5416 13.0686C17.5984 13.2053 17.6276 13.3519 17.6276 13.5C17.6276 13.6481 17.5984 13.7947 17.5416 13.9314C17.4848 14.0682 17.4016 14.1924 17.2967 14.2969ZM3.70296 8.29687C3.91525 8.50642 4.20154 8.62391 4.49983 8.62391C4.79812 8.62391 5.08441 8.50642 5.29671 8.29687C5.40159 8.19236 5.4848 8.06817 5.54158 7.93142C5.59837 7.79467 5.62759 7.64806 5.62759 7.5C5.62759 7.35193 5.59837 7.20532 5.54158 7.06858C5.4848 6.93183 5.40159 6.80764 5.29671 6.70312L4.21858 5.625H16.4998C16.7982 5.625 17.0843 5.50647 17.2953 5.29549C17.5063 5.08452 17.6248 4.79837 17.6248 4.5C17.6248 4.20163 17.5063 3.91548 17.2953 3.7045C17.0843 3.49353 16.7982 3.375 16.4998 3.375H4.21858L5.29671 2.29687C5.40135 2.19223 5.48436 2.06799 5.541 1.93126C5.59763 1.79454 5.62678 1.64799 5.62678 1.5C5.62678 1.35201 5.59763 1.20546 5.541 1.06873C5.48436 0.932005 5.40135 0.807771 5.29671 0.703123C5.19206 0.598476 5.06783 0.515466 4.9311 0.458831C4.79437 0.402196 4.64783 0.373047 4.49983 0.373047C4.20095 0.373047 3.9143 0.491779 3.70296 0.703123L0.702958 3.70312C0.598078 3.80764 0.514861 3.93183 0.45808 4.06858C0.401299 4.20532 0.37207 4.35193 0.37207 4.5C0.37207 4.64806 0.401299 4.79467 0.45808 4.93142C0.514861 5.06817 0.598078 5.19236 0.702958 5.29687L3.70296 8.29687Z" fill="#663FBA"/>
</svg>
