<svg width="56" height="56" viewBox="0 0 56 56" fill="none" xmlns="http://www.w3.org/2000/svg">
<path d="M0 28C0 16.7643 0 11.1465 2.69649 7.11088C3.86382 5.36383 5.36383 3.86382 7.11088 2.69649C11.1465 0 16.7643 0 28 0C39.2357 0 44.8535 0 48.8891 2.69649C50.6362 3.86382 52.1362 5.36383 53.3035 7.11088C56 11.1465 56 16.7643 56 28C56 39.2357 56 44.8535 53.3035 48.8891C52.1362 50.6362 50.6362 52.1362 48.8891 53.3035C44.8535 56 39.2357 56 28 56C16.7643 56 11.1465 56 7.11088 53.3035C5.36383 52.1362 3.86382 50.6362 2.69649 48.8891C0 44.8535 0 39.2357 0 28Z" fill="#1DA1F2"/>
<path d="M24.29 36C31.837 36 35.965 29.8437 35.965 24.5055C35.965 24.3302 35.965 24.1559 35.953 23.9827C36.756 23.4116 37.449 22.7028 38 21.8915C37.252 22.2184 36.457 22.433 35.644 22.5275C36.5 22.0224 37.141 21.2289 37.448 20.2926C36.642 20.7632 35.761 21.095 34.842 21.2732C33.288 19.6467 30.689 19.568 29.036 21.098C27.971 22.0845 27.518 23.5554 27.849 24.9584C24.55 24.7949 21.476 23.261 19.392 20.7376C18.303 22.5836 18.86 24.9446 20.663 26.13C20.01 26.1113 19.371 25.938 18.8 25.6249V25.6761C18.801 27.5989 20.178 29.2549 22.092 29.6359C21.488 29.7984 20.854 29.822 20.24 29.7048C20.777 31.351 22.318 32.4783 24.073 32.5108C22.62 33.6351 20.825 34.2455 18.977 34.2436C18.651 34.2426 18.325 34.2239 18 34.1855C19.877 35.3709 22.06 36 24.29 35.997" fill="white"/>
</svg>
