<svg width="24" height="24" viewBox="0 0 24 24" fill="none" xmlns="http://www.w3.org/2000/svg">
<path fill-rule="evenodd" clip-rule="evenodd" d="M14.0259 9.9741C13.1196 9.0687 11.8911 8.5593 10.6104 8.5593C9.3297 8.5593 8.1012 9.0687 7.1949 9.9741L4.4148 12.7533C3.5085 13.6596 3 14.8881 3 16.1697C3 17.4504 3.5085 18.6798 4.4148 19.5852C5.3211 20.4915 6.5496 21 7.8303 21C9.1119 21 10.3404 20.4915 11.2467 19.5852L12.6363 18.1956C12.9873 17.8446 12.9873 17.274 12.6363 16.923C12.2853 16.572 11.7147 16.572 11.3637 16.923L9.9741 18.3126C9.4053 18.8814 8.6349 19.2 7.8303 19.2C7.0266 19.2 6.2562 18.8814 5.6874 18.3126C5.1195 17.7438 4.8 16.9734 4.8 16.1697C4.8 15.3651 5.1186 14.5947 5.6874 14.0259L8.4675 11.2467C9.0363 10.6788 9.8067 10.3593 10.6104 10.3593C11.4141 10.3593 12.1845 10.6788 12.7533 11.2467C13.1043 11.5986 13.6749 11.5977 14.0259 11.2467C14.3769 10.8957 14.3769 10.3251 14.0259 9.9741ZM9.9741 14.0259C10.8804 14.9322 12.1089 15.4407 13.3896 15.4407C14.6703 15.4407 15.8988 14.9322 16.8051 14.0259L19.5852 11.2467C20.4915 10.3404 21 9.1119 21 7.8312C21 6.5496 20.4915 5.3211 19.5852 4.4148C18.6789 3.5085 17.4504 3 16.1697 3C14.8881 3 13.6596 3.5085 12.7533 4.4148L11.3637 5.8044C11.0127 6.1554 11.0127 6.726 11.3637 7.077C11.7147 7.428 12.2853 7.428 12.6363 7.077L14.0259 5.6874C14.5947 5.1195 15.3651 4.8 16.1697 4.8C16.9734 4.8 17.7438 5.1195 18.3126 5.6874C18.8805 6.2562 19.2 7.0266 19.2 7.8312C19.2 8.6349 18.8805 9.4053 18.3126 9.9741L15.5325 12.7533C14.9637 13.3212 14.1933 13.6407 13.3896 13.6407C12.5859 13.6407 11.8155 13.3212 11.2467 12.7533C10.8957 12.4023 10.3251 12.4023 9.9741 12.7533C9.6231 13.1052 9.6231 13.6749 9.9741 14.0259ZM9.22766 7.42767C8.84105 7.81429 8.21421 7.81429 7.82759 7.42767L5.50003 5.10011C5.11342 4.71349 5.11342 4.08665 5.50003 3.70004C5.88665 3.31342 6.51349 3.31342 6.90011 3.70004L9.22766 6.02759C9.61428 6.41421 9.61428 7.04105 9.22766 7.42767ZM17.0469 20.3295C17.4335 20.7161 18.0604 20.7161 18.447 20.3295C18.8336 19.9428 18.8336 19.316 18.447 18.9294L16.1194 16.6018C15.7328 16.2152 15.106 16.2152 14.7194 16.6018C14.3328 16.9884 14.3328 17.6153 14.7194 18.0019L17.0469 20.3295Z" fill="#FC395C"/>
</svg>
