<svg width="24" height="24" viewBox="0 0 24 24" fill="none" xmlns="http://www.w3.org/2000/svg">
<path fill-rule="evenodd" clip-rule="evenodd" d="M6.80272 3.65912C6.47078 3.32717 5.93259 3.32717 5.60064 3.65912C5.2687 3.99106 5.2687 4.52925 5.60064 4.8612L19.3986 18.6591C19.7305 18.9911 20.2687 18.9911 20.6006 18.6591C20.9326 18.3272 20.9326 17.789 20.6006 17.457L16.2816 13.138L17.7644 10.4462L18.458 11.1415C18.7342 11.4185 19.0001 11.458 19.2168 11.4146C19.4369 11.3704 19.6173 11.2378 19.7101 11.1465C19.8413 10.9679 19.9099 10.7188 19.8984 10.4654C19.8868 10.2099 19.7943 9.95975 19.6152 9.78026L14.2199 4.37134C13.8593 4.00985 13.3233 4.00985 12.9627 4.37134C12.602 4.73297 12.602 5.27078 12.9627 5.63241L13.6565 6.32789L10.9486 7.80499L6.80272 3.65912ZM12.2806 9.13696L14.8644 11.7207L16.3129 9.09116L14.9077 7.68248L12.2806 9.13696ZM6.67939 10.1338L7.96947 9.43007L9.31704 10.7776L8.03153 11.4893L12.5156 15.9847L13.229 14.6896L14.6462 16.1068L13.9671 17.3397L15.0192 18.3945C15.3799 18.7561 15.3799 19.2939 15.0192 19.6555C14.9364 19.7386 14.7323 19.8552 14.4888 19.8901C14.2504 19.9242 13.9848 19.8788 13.762 19.6555L9.69468 15.5779L5.99788 19.284L4.73938 18.0224L8.33626 14.3163L4.37015 10.3402C4.00943 9.97854 4.00943 9.44073 4.37015 9.0791C4.73073 8.71761 5.26676 8.71761 5.62734 9.0791L6.67939 10.1338Z" fill="#0C0024"/>
</svg>
