<svg width="12" height="13" viewBox="0 0 12 13" fill="none" xmlns="http://www.w3.org/2000/svg">
<path fill-rule="evenodd" clip-rule="evenodd" d="M3.3 0.28125C3.63137 0.28125 3.9 0.525458 3.9 0.826705V11.7358C3.9 12.037 3.63137 12.2812 3.3 12.2812C2.96863 12.2812 2.7 12.037 2.7 11.7358V0.826705C2.7 0.525458 2.96863 0.28125 3.3 0.28125ZM8.7 2.19034C9.03137 2.19034 9.3 2.43455 9.3 2.7358V9.8267C9.3 10.128 9.03137 10.3722 8.7 10.3722C8.36863 10.3722 8.1 10.128 8.1 9.8267V2.7358C8.1 2.43455 8.36863 2.19034 8.7 2.19034ZM0.6 3.8267C0.931371 3.8267 1.2 4.07091 1.2 4.37216V8.19034C1.2 8.49159 0.931371 8.7358 0.6 8.7358C0.268629 8.7358 0 8.49159 0 8.19034V4.37216C0 4.07091 0.268629 3.8267 0.6 3.8267ZM6 3.8267C6.33137 3.8267 6.6 4.07091 6.6 4.37216V8.19034C6.6 8.49159 6.33137 8.7358 6 8.7358C5.66863 8.7358 5.4 8.49159 5.4 8.19034V4.37216C5.4 4.07091 5.66863 3.8267 6 3.8267ZM11.4 4.09943C11.7314 4.09943 12 4.34364 12 4.64489V7.91761C12 8.21886 11.7314 8.46307 11.4 8.46307C11.0686 8.46307 10.8 8.21886 10.8 7.91761V4.64489C10.8 4.34364 11.0686 4.09943 11.4 4.09943Z" fill="white"/>
</svg>
