<svg width="24" height="24" viewBox="0 0 24 24" fill="none" xmlns="http://www.w3.org/2000/svg">
<path d="M6 11.1317C5.80222 11.1317 5.60888 11.1904 5.44443 11.3002C5.27998 11.4101 5.15181 11.5663 5.07612 11.749C5.00043 11.9318 4.98063 12.1328 5.01921 12.3268C5.0578 12.5208 5.15304 12.699 5.29289 12.8388C5.43275 12.9787 5.61093 13.0739 5.80491 13.1125C5.99889 13.1511 6.19996 13.1313 6.38268 13.0556C6.56541 12.9799 6.72159 12.8517 6.83147 12.6873C6.94135 12.5228 7 12.3295 7 12.1317C7 11.8665 6.89464 11.6121 6.70711 11.4246C6.51957 11.2371 6.26522 11.1317 6 11.1317ZM18 11.1317C17.8022 11.1317 17.6089 11.1904 17.4444 11.3002C17.28 11.4101 17.1518 11.5663 17.0761 11.749C17.0004 11.9318 16.9806 12.1328 17.0192 12.3268C17.0578 12.5208 17.153 12.699 17.2929 12.8388C17.4327 12.9787 17.6109 13.0739 17.8049 13.1125C17.9989 13.1511 18.2 13.1313 18.3827 13.0556C18.5654 12.9799 18.7216 12.8517 18.8315 12.6873C18.9414 12.5228 19 12.3295 19 12.1317C19 11.8665 18.8946 11.6121 18.7071 11.4246C18.5196 11.2371 18.2652 11.1317 18 11.1317ZM20 5.13171H4C3.20435 5.13171 2.44129 5.44778 1.87868 6.01039C1.31607 6.573 1 7.33606 1 8.13171V16.1317C1 16.9274 1.31607 17.6904 1.87868 18.253C2.44129 18.8156 3.20435 19.1317 4 19.1317H20C20.7956 19.1317 21.5587 18.8156 22.1213 18.253C22.6839 17.6904 23 16.9274 23 16.1317V8.13171C23 7.33606 22.6839 6.573 22.1213 6.01039C21.5587 5.44778 20.7956 5.13171 20 5.13171ZM21 16.1317C21 16.3969 20.8946 16.6513 20.7071 16.8388C20.5196 17.0264 20.2652 17.1317 20 17.1317H4C3.73478 17.1317 3.48043 17.0264 3.29289 16.8388C3.10536 16.6513 3 16.3969 3 16.1317V8.13171C3 7.8665 3.10536 7.61214 3.29289 7.42461C3.48043 7.23707 3.73478 7.13171 4 7.13171H20C20.2652 7.13171 20.5196 7.23707 20.7071 7.42461C20.8946 7.61214 21 7.8665 21 8.13171V16.1317ZM12 9.13171C11.4067 9.13171 10.8266 9.30766 10.3333 9.63731C9.83994 9.96695 9.45542 10.4355 9.22836 10.9837C9.0013 11.5318 8.94189 12.135 9.05764 12.717C9.1734 13.2989 9.45912 13.8335 9.87868 14.253C10.2982 14.6726 10.8328 14.9583 11.4147 15.0741C11.9967 15.1898 12.5999 15.1304 13.1481 14.9034C13.6962 14.6763 14.1648 14.2918 14.4944 13.7984C14.8241 13.3051 15 12.7251 15 12.1317C15 11.3361 14.6839 10.573 14.1213 10.0104C13.5587 9.44778 12.7956 9.13171 12 9.13171ZM12 13.1317C11.8022 13.1317 11.6089 13.0731 11.4444 12.9632C11.28 12.8533 11.1518 12.6971 11.0761 12.5144C11.0004 12.3317 10.9806 12.1306 11.0192 11.9366C11.0578 11.7426 11.153 11.5645 11.2929 11.4246C11.4327 11.2848 11.6109 11.1895 11.8049 11.1509C11.9989 11.1123 12.2 11.1321 12.3827 11.2078C12.5654 11.2835 12.7216 11.4117 12.8315 11.5761C12.9414 11.7406 13 11.9339 13 12.1317C13 12.3969 12.8946 12.6513 12.7071 12.8388C12.5196 13.0264 12.2652 13.1317 12 13.1317Z" fill="#0C0024"/>
</svg>
