<svg width="24" height="24" viewBox="0 0 24 24" fill="none" xmlns="http://www.w3.org/2000/svg">
<path fill-rule="evenodd" clip-rule="evenodd" d="M19.8663 20.3947C19.9823 20.4639 20.1148 20.5005 20.2498 20.5006C20.3746 20.5005 20.4974 20.4694 20.607 20.41C20.7167 20.3506 20.8098 20.2647 20.878 20.1602C22.5627 17.577 23.2498 15.2857 23.2498 12.2506C23.2498 8.76962 22.3034 6.57353 20.8831 4.34697C20.8301 4.26386 20.7613 4.19201 20.6805 4.13552C20.5997 4.07903 20.5086 4.03899 20.4124 4.01771C20.3162 3.99642 20.2167 3.9943 20.1196 4.01147C20.0226 4.02863 19.9298 4.06475 19.8467 4.11775C19.7636 4.17075 19.6918 4.2396 19.6353 4.32037C19.5788 4.40113 19.5387 4.49224 19.5175 4.58848C19.4962 4.68472 19.4941 4.78421 19.5112 4.88126C19.5284 4.97832 19.5645 5.07105 19.6175 5.15415C20.8977 7.159 21.7498 9.13337 21.7498 12.2506C21.7498 15.4268 20.8991 17.382 19.6222 19.3409C19.5484 19.454 19.5066 19.5849 19.501 19.7199C19.4955 19.8548 19.5265 19.9888 19.5908 20.1075C19.6551 20.2263 19.7503 20.3255 19.8663 20.3947ZM16.9998 18.2507C16.8682 18.2507 16.7388 18.2161 16.6248 18.1502C16.5107 18.0844 16.416 17.9898 16.3502 17.8757C16.2843 17.7617 16.2497 17.6324 16.2497 17.5007C16.2497 17.369 16.2843 17.2397 16.3501 17.1257C17.2366 15.583 17.7498 14.2902 17.7498 12.2507C17.7498 10.1802 17.2375 8.89629 16.352 7.37848C16.2549 7.20683 16.2293 7.00385 16.2808 6.81347C16.3322 6.62309 16.4566 6.46064 16.6269 6.36129C16.7973 6.26194 16.9999 6.23368 17.191 6.28263C17.382 6.33159 17.5461 6.45381 17.6476 6.62285C18.6367 8.31832 19.2498 9.85113 19.2498 12.2507C19.2498 14.6146 18.6376 16.1549 17.65 17.8757C17.5841 17.9898 17.4893 18.0845 17.3752 18.1503C17.2611 18.2162 17.1316 18.2508 16.9998 18.2507ZM13.7498 16.0006C13.6219 16.0005 13.496 15.9677 13.3843 15.9053C13.2725 15.8429 13.1786 15.753 13.1115 15.644C13.0444 15.5351 13.0062 15.4107 13.0007 15.2829C12.9952 15.155 13.0225 15.0279 13.08 14.9135C13.5248 14.029 13.7503 13.1323 13.7503 12.2506C13.7503 11.3421 13.5319 10.4721 13.0823 9.59133C12.9962 9.41466 12.9829 9.21123 13.0452 9.02483C13.1076 8.83842 13.2406 8.68394 13.4157 8.59462C13.5907 8.50529 13.7939 8.48827 13.9814 8.54721C14.1689 8.60615 14.3258 8.73634 14.4183 8.90977C14.9775 10.0062 15.2498 11.0993 15.2498 12.2506C15.2498 13.369 14.9686 14.4916 14.4201 15.5876C14.3577 15.7118 14.2619 15.8162 14.1435 15.8891C14.0252 15.962 13.8889 16.0006 13.7498 16.0006Z" fill="#0C0024"/>
<path fill-rule="evenodd" clip-rule="evenodd" d="M4.38358 20.3947C4.26758 20.4639 4.13506 20.5005 4 20.5006C3.87526 20.5005 3.75249 20.4694 3.64282 20.41C3.53314 20.3506 3.44002 20.2647 3.37188 20.1602C1.68719 17.577 1 15.2857 1 12.2506C1 8.76962 1.94641 6.57353 3.36672 4.34697C3.41972 4.26386 3.48857 4.19201 3.56934 4.13552C3.65011 4.07903 3.74121 4.03899 3.83745 4.01771C3.93369 3.99642 4.03318 3.9943 4.13024 4.01147C4.2273 4.02863 4.32002 4.06475 4.40313 4.11775C4.48623 4.17075 4.55808 4.2396 4.61457 4.32037C4.67107 4.40113 4.7111 4.49224 4.73238 4.58848C4.75367 4.68472 4.75579 4.78421 4.73862 4.88126C4.72146 4.97832 4.68534 5.07105 4.63234 5.15415C3.35219 7.159 2.5 9.13337 2.5 12.2506C2.5 15.4268 3.35078 17.382 4.62766 19.3409C4.70143 19.454 4.74329 19.5849 4.74881 19.7199C4.75434 19.8548 4.72332 19.9888 4.65903 20.1075C4.59474 20.2263 4.49958 20.3255 4.38358 20.3947ZM7.25001 18.2507C7.38168 18.2507 7.51104 18.2161 7.62507 18.1502C7.73911 18.0844 7.83381 17.9898 7.89966 17.8757C7.96551 17.7617 8.00018 17.6324 8.00018 17.5007C8.00019 17.369 7.96553 17.2397 7.8997 17.1257C7.01329 15.583 6.50001 14.2902 6.50001 12.2507C6.50001 10.1802 7.01236 8.89629 7.89783 7.37848C7.99494 7.20683 8.02054 7.00385 7.96908 6.81347C7.91763 6.62309 7.79326 6.46064 7.62291 6.36129C7.45255 6.26194 7.24992 6.23368 7.05888 6.28263C6.86785 6.33159 6.70378 6.45381 6.6022 6.62285C5.61314 8.31832 5.00001 9.85113 5.00001 12.2507C5.00001 14.6146 5.6122 16.1549 6.59986 17.8757C6.66574 17.9898 6.76052 18.0845 6.87465 18.1503C6.98879 18.2162 7.11825 18.2508 7.25001 18.2507ZM10.5 16.0006C10.628 16.0005 10.7538 15.9677 10.8656 15.9053C10.9773 15.8429 11.0712 15.753 11.1384 15.644C11.2055 15.5351 11.2436 15.4107 11.2492 15.2829C11.2547 15.155 11.2274 15.0279 11.1699 14.9135C10.725 14.029 10.4995 13.1323 10.4995 12.2506C10.4995 11.3421 10.718 10.4721 11.1675 9.59133C11.2536 9.41466 11.267 9.21123 11.2046 9.02483C11.1423 8.83842 11.0093 8.68394 10.8342 8.59462C10.6591 8.50529 10.456 8.48827 10.2684 8.54721C10.0809 8.60615 9.92406 8.73634 9.83157 8.90977C9.27235 10.0062 9.00001 11.0993 9.00001 12.2506C9.00001 13.369 9.28126 14.4916 9.8297 15.5876C9.89217 15.7118 9.98794 15.8162 10.1063 15.8891C10.2247 15.962 10.361 16.0006 10.5 16.0006Z" fill="#0C0024"/>
</svg>
