<svg width="24" height="24" viewBox="0 0 24 24" fill="none" xmlns="http://www.w3.org/2000/svg">
<path fill-rule="evenodd" clip-rule="evenodd" d="M10.3836 20.3947C10.2676 20.4639 10.1351 20.5005 10 20.5006C9.87526 20.5005 9.75249 20.4694 9.64282 20.41C9.53314 20.3506 9.44002 20.2647 9.37188 20.1602C7.68719 17.577 7 15.2857 7 12.2506C7 8.76962 7.94641 6.57353 9.36672 4.34697C9.41972 4.26386 9.48857 4.19201 9.56934 4.13552C9.65011 4.07903 9.74121 4.03899 9.83745 4.01771C9.93369 3.99642 10.0332 3.9943 10.1302 4.01147C10.2273 4.02863 10.32 4.06475 10.4031 4.11775C10.4862 4.17075 10.5581 4.2396 10.6146 4.32037C10.6711 4.40113 10.7111 4.49224 10.7324 4.58848C10.7537 4.68472 10.7558 4.78421 10.7386 4.88126C10.7215 4.97832 10.6853 5.07105 10.6323 5.15415C9.35219 7.159 8.5 9.13337 8.5 12.2506C8.5 15.4268 9.35078 17.382 10.6277 19.3409C10.7014 19.454 10.7433 19.5849 10.7488 19.7199C10.7543 19.8548 10.7233 19.9888 10.659 20.1075C10.5947 20.2263 10.4996 20.3255 10.3836 20.3947ZM13.25 18.2507C13.3817 18.2507 13.511 18.2161 13.6251 18.1502C13.7391 18.0844 13.8338 17.9898 13.8997 17.8757C13.9655 17.7617 14.0002 17.6324 14.0002 17.5007C14.0002 17.369 13.9655 17.2397 13.8997 17.1257C13.0133 15.583 12.5 14.2902 12.5 12.2507C12.5 10.1802 13.0124 8.89629 13.8978 7.37848C13.9949 7.20683 14.0205 7.00385 13.9691 6.81347C13.9176 6.62309 13.7933 6.46064 13.6229 6.36129C13.4526 6.26194 13.2499 6.23368 13.0589 6.28263C12.8678 6.33159 12.7038 6.45381 12.6022 6.62285C11.6131 8.31832 11 9.85113 11 12.2507C11 14.6146 11.6122 16.1549 12.5999 17.8757C12.6657 17.9898 12.7605 18.0845 12.8747 18.1503C12.9888 18.2162 13.1183 18.2508 13.25 18.2507ZM16.5 16.0006C16.628 16.0005 16.7538 15.9677 16.8656 15.9053C16.9773 15.8429 17.0712 15.753 17.1384 15.644C17.2055 15.5351 17.2436 15.4107 17.2492 15.2829C17.2547 15.155 17.2274 15.0279 17.1699 14.9135C16.725 14.029 16.4995 13.1323 16.4995 12.2506C16.4995 11.3421 16.718 10.4721 17.1675 9.59133C17.2536 9.41466 17.267 9.21123 17.2046 9.02483C17.1423 8.83842 17.0093 8.68394 16.8342 8.59462C16.6591 8.50529 16.456 8.48827 16.2684 8.54721C16.0809 8.60615 15.9241 8.73634 15.8316 8.90977C15.2724 10.0062 15 11.0993 15 12.2506C15 13.369 15.2813 14.4916 15.8297 15.5876C15.8922 15.7118 15.9879 15.8162 16.1063 15.8891C16.2247 15.962 16.361 16.0006 16.5 16.0006Z" fill="#0C0024"/>
</svg>
