<svg width="24" height="24" viewBox="0 0 24 24" fill="none" xmlns="http://www.w3.org/2000/svg">
<path fill-rule="evenodd" clip-rule="evenodd" d="M13.8663 20.3947C13.9823 20.4639 14.1148 20.5005 14.2498 20.5006C14.3746 20.5005 14.4974 20.4694 14.607 20.41C14.7167 20.3506 14.8098 20.2647 14.878 20.1602C16.5627 17.577 17.2498 15.2857 17.2498 12.2506C17.2498 8.76962 16.3034 6.57353 14.8831 4.34697C14.8301 4.26386 14.7613 4.19201 14.6805 4.13552C14.5997 4.07903 14.5086 4.03899 14.4124 4.01771C14.3162 3.99642 14.2167 3.9943 14.1196 4.01147C14.0226 4.02863 13.9298 4.06475 13.8467 4.11775C13.7636 4.17075 13.6918 4.2396 13.6353 4.32037C13.5788 4.40113 13.5387 4.49224 13.5175 4.58848C13.4962 4.68472 13.4941 4.78421 13.5112 4.88126C13.5284 4.97832 13.5645 5.07105 13.6175 5.15415C14.8977 7.159 15.7498 9.13337 15.7498 12.2506C15.7498 15.4268 14.8991 17.382 13.6222 19.3409C13.5484 19.454 13.5066 19.5849 13.501 19.7199C13.4955 19.8548 13.5265 19.9888 13.5908 20.1075C13.6551 20.2263 13.7503 20.3255 13.8663 20.3947ZM10.9998 18.2507C10.8682 18.2507 10.7388 18.2161 10.6248 18.1502C10.5107 18.0844 10.416 17.9898 10.3502 17.8757C10.2843 17.7617 10.2497 17.6324 10.2497 17.5007C10.2497 17.369 10.2843 17.2397 10.3501 17.1257C11.2366 15.583 11.7498 14.2902 11.7498 12.2507C11.7498 10.1802 11.2375 8.89629 10.352 7.37848C10.2549 7.20683 10.2293 7.00385 10.2808 6.81347C10.3322 6.62309 10.4566 6.46064 10.6269 6.36129C10.7973 6.26194 10.9999 6.23368 11.191 6.28263C11.382 6.33159 11.5461 6.45381 11.6476 6.62285C12.6367 8.31832 13.2498 9.85113 13.2498 12.2507C13.2498 14.6146 12.6376 16.1549 11.65 17.8757C11.5841 17.9898 11.4893 18.0845 11.3752 18.1503C11.2611 18.2162 11.1316 18.2508 10.9998 18.2507ZM7.74984 16.0006C7.62185 16.0005 7.49601 15.9677 7.38427 15.9053C7.27254 15.8429 7.17863 15.753 7.11149 15.644C7.04435 15.5351 7.00621 15.4107 7.0007 15.2829C6.99518 15.155 7.02248 15.0279 7.07999 14.9135C7.52484 14.029 7.75031 13.1323 7.75031 12.2506C7.75031 11.3421 7.53187 10.4721 7.08234 9.59133C6.99621 9.41466 6.98288 9.21123 7.04522 9.02483C7.10756 8.83842 7.24058 8.68394 7.41566 8.59462C7.59075 8.50529 7.7939 8.48827 7.9814 8.54721C8.16891 8.60615 8.32578 8.73634 8.41827 8.90977C8.97749 10.0062 9.24984 11.0993 9.24984 12.2506C9.24984 13.369 8.96859 14.4916 8.42015 15.5876C8.35767 15.7118 8.26191 15.8162 8.14354 15.8891C8.02517 15.962 7.88886 16.0006 7.74984 16.0006Z" fill="#0C0024"/>
</svg>
