<svg width="25" height="24" viewBox="0 0 25 24" fill="none" xmlns="http://www.w3.org/2000/svg">
<path fill-rule="evenodd" clip-rule="evenodd" d="M4.08579 6.58579C4.46086 6.21071 4.96957 6 5.5 6H15.5C16.0304 6 16.5391 6.21071 16.9142 6.58579C17.2893 6.96086 17.5 7.46957 17.5 8V16C17.5 16.5304 17.2893 17.0391 16.9142 17.4142C16.5391 17.7893 16.0304 18 15.5 18H5.5C4.96957 18 4.46086 17.7893 4.08579 17.4142C3.71071 17.0391 3.5 16.5304 3.5 16V8C3.5 7.46957 3.71071 6.96086 4.08579 6.58579ZM15.5 8L5.5 8L5.5 16H15.5V8Z" fill="#20113E"/>
<path fill-rule="evenodd" clip-rule="evenodd" d="M20.9472 6.10558C21.286 6.27497 21.5 6.62123 21.5 7.00001V17C21.5 17.3788 21.286 17.725 20.9472 17.8944C20.6084 18.0638 20.203 18.0273 19.9 17.8L15.9 14.8C15.6482 14.6112 15.5 14.3148 15.5 14V10C15.5 9.68525 15.6482 9.38886 15.9 9.20001L19.9 6.20001C20.203 5.97274 20.6084 5.93619 20.9472 6.10558ZM17.5 10.5V13.5L19.5 15V9.00001L17.5 10.5Z" fill="#20113E"/>
</svg>
