<svg width="25" height="25" viewBox="0 0 25 25" fill="none" xmlns="http://www.w3.org/2000/svg">
<path fill-rule="evenodd" clip-rule="evenodd" d="M22.2057 20.5209L16.8257 15.1409H16.8247C18.0704 13.5326 18.6566 11.5102 18.4641 9.48506C18.2716 7.45991 17.3148 5.58416 15.7884 4.23941C14.2619 2.89466 12.2806 2.18192 10.2473 2.24618C8.21402 2.31045 6.2816 3.14688 4.84315 4.58534C3.4047 6.02379 2.56826 7.95621 2.504 9.98948C2.43973 12.0227 3.15248 14.0041 4.49723 15.5305C5.84198 17.057 7.71772 18.0138 9.74287 18.2063C11.768 18.3988 13.7905 17.8126 15.3987 16.5669L20.7787 21.9469C20.9678 22.1362 21.2244 22.2425 21.4919 22.2426C21.7594 22.2427 22.016 22.1365 22.2052 21.9474C22.3945 21.7583 22.5008 21.5018 22.5009 21.2343C22.501 20.9668 22.3948 20.7102 22.2057 20.5209ZM14.7434 14.4846C13.6182 15.6098 12.092 16.2419 10.5007 16.2419C8.90944 16.2419 7.38332 15.6098 6.2581 14.4846C5.13289 13.3594 4.50074 11.8332 4.50074 10.2419C4.50074 8.65063 5.13289 7.12451 6.2581 5.99929C7.38332 4.87407 8.90944 4.24193 10.5007 4.24193C12.092 4.24193 13.6182 4.87407 14.7434 5.99929C15.8686 7.12451 16.5007 8.65063 16.5007 10.2419C16.5007 11.8332 15.8686 13.3594 14.7434 14.4846ZM11.5003 9.24238H13.4985C13.7636 9.24238 14.0178 9.34769 14.2053 9.53514C14.3927 9.72259 14.498 9.97683 14.498 10.2419C14.498 10.507 14.3927 10.7613 14.2053 10.9487C14.0178 11.1362 13.7636 11.2415 13.4985 11.2415H11.5003V13.2397C11.5003 13.5048 11.395 13.759 11.2075 13.9465C11.0201 14.1339 10.7658 14.2392 10.5007 14.2392C10.2356 14.2392 9.98141 14.1339 9.79395 13.9465C9.6065 13.759 9.50119 13.5048 9.50119 13.2397V11.2415H7.50299C7.23789 11.2415 6.98365 11.1362 6.7962 10.9487C6.60875 10.7613 6.50344 10.507 6.50344 10.2419C6.50344 9.97683 6.60875 9.72259 6.7962 9.53514C6.98365 9.34769 7.23789 9.24238 7.50299 9.24238H9.50119V7.24418C9.50119 6.97908 9.6065 6.72484 9.79395 6.53739C9.98141 6.34994 10.2356 6.24463 10.5007 6.24463C10.7658 6.24463 11.0201 6.34994 11.2075 6.53739C11.395 6.72484 11.5003 6.97908 11.5003 7.24418V9.24238Z" fill="#20113E"/>
</svg>
